G75*
G70*
%OFA0B0*%
%FSLAX24Y24*%
%IPPOS*%
%LPD*%
%AMOC8*
5,1,8,0,0,1.08239X$1,22.5*
%
%ADD10R,0.0671X0.0218*%
%ADD11R,0.0218X0.0671*%
%ADD12C,0.0680*%
%ADD13OC8,0.0640*%
%ADD14C,0.0674*%
%ADD15R,0.0552X0.0552*%
%ADD16C,0.0480*%
%ADD17C,0.0358*%
%ADD18C,0.0611*%
D10*
X005553Y008623D03*
X005553Y008820D03*
X005553Y009017D03*
X005553Y009214D03*
X005553Y009411D03*
X005553Y009608D03*
X005553Y009804D03*
X005553Y010001D03*
X005553Y010198D03*
X005553Y010395D03*
X005553Y010592D03*
X005553Y010789D03*
X005553Y010986D03*
X005553Y011182D03*
X005553Y011379D03*
X005553Y011576D03*
X005553Y011773D03*
X005553Y011970D03*
X005553Y012167D03*
X005553Y012363D03*
X005553Y012560D03*
X005553Y012757D03*
X005553Y012954D03*
X005553Y013151D03*
X005553Y013348D03*
X011853Y013348D03*
X011853Y013151D03*
X011853Y012954D03*
X011853Y012757D03*
X011853Y012560D03*
X011853Y012363D03*
X011853Y012167D03*
X011853Y011970D03*
X011853Y011773D03*
X011853Y011576D03*
X011853Y011379D03*
X011853Y011182D03*
X011853Y010986D03*
X011853Y010789D03*
X011853Y010592D03*
X011853Y010395D03*
X011853Y010198D03*
X011853Y010001D03*
X011853Y009804D03*
X011853Y009608D03*
X011853Y009411D03*
X011853Y009214D03*
X011853Y009017D03*
X011853Y008820D03*
X011853Y008623D03*
D11*
X011065Y007836D03*
X010868Y007836D03*
X010671Y007836D03*
X010475Y007836D03*
X010278Y007836D03*
X010081Y007836D03*
X009884Y007836D03*
X009687Y007836D03*
X009490Y007836D03*
X009293Y007836D03*
X009097Y007836D03*
X008900Y007836D03*
X008703Y007836D03*
X008506Y007836D03*
X008309Y007836D03*
X008112Y007836D03*
X007916Y007836D03*
X007719Y007836D03*
X007522Y007836D03*
X007325Y007836D03*
X007128Y007836D03*
X006931Y007836D03*
X006734Y007836D03*
X006538Y007836D03*
X006341Y007836D03*
X006341Y014135D03*
X006538Y014135D03*
X006734Y014135D03*
X006931Y014135D03*
X007128Y014135D03*
X007325Y014135D03*
X007522Y014135D03*
X007719Y014135D03*
X007916Y014135D03*
X008112Y014135D03*
X008309Y014135D03*
X008506Y014135D03*
X008703Y014135D03*
X008900Y014135D03*
X009097Y014135D03*
X009293Y014135D03*
X009490Y014135D03*
X009687Y014135D03*
X009884Y014135D03*
X010081Y014135D03*
X010278Y014135D03*
X010475Y014135D03*
X010671Y014135D03*
X010868Y014135D03*
X011065Y014135D03*
D12*
X005359Y006645D02*
X005359Y006045D01*
X003579Y006045D02*
X003579Y006645D01*
X003579Y004085D02*
X003579Y003485D01*
X005359Y003485D02*
X005359Y004085D01*
D13*
X002459Y001408D03*
X002459Y002408D03*
X003459Y002408D03*
X003459Y001408D03*
X004459Y001408D03*
X004459Y002408D03*
X005459Y002408D03*
X005459Y001408D03*
X006459Y001408D03*
X007459Y001408D03*
X007459Y002408D03*
X006459Y002408D03*
X008459Y002408D03*
X008459Y001408D03*
X009459Y001408D03*
X009459Y002408D03*
X010459Y002408D03*
X010459Y001408D03*
X011459Y001408D03*
X011459Y002408D03*
X012459Y002408D03*
X012459Y001408D03*
X013459Y001408D03*
X013459Y002408D03*
X014459Y002408D03*
X014459Y001408D03*
X014524Y003507D03*
X014524Y004507D03*
X015524Y004507D03*
X015524Y003507D03*
X015524Y005507D03*
X015524Y006507D03*
X015524Y007507D03*
X015524Y008507D03*
X015524Y009507D03*
X015524Y010507D03*
X015524Y011507D03*
X015524Y012507D03*
X015524Y013507D03*
X015524Y014507D03*
X015524Y015507D03*
X014524Y015507D03*
X014524Y014507D03*
X014524Y013507D03*
X014524Y012507D03*
X014524Y011507D03*
X014524Y010507D03*
X014524Y009507D03*
X014524Y008507D03*
X014524Y007507D03*
X014524Y006507D03*
X014524Y005507D03*
X014474Y016582D03*
X014474Y017582D03*
X013474Y017582D03*
X013474Y016582D03*
X012474Y016582D03*
X012474Y017582D03*
X011474Y017582D03*
X011474Y016582D03*
X010474Y016582D03*
X010474Y017582D03*
X009474Y017582D03*
X009474Y016582D03*
X008474Y016582D03*
X007474Y016582D03*
X007474Y017582D03*
X008474Y017582D03*
X006474Y017582D03*
X006474Y016582D03*
X005474Y016582D03*
X005474Y017582D03*
X004474Y017582D03*
X004474Y016582D03*
X003474Y016582D03*
X003474Y017582D03*
X002474Y017582D03*
X002474Y016582D03*
X002417Y015512D03*
X002417Y014512D03*
X002417Y013512D03*
X001417Y013512D03*
X001417Y014512D03*
X001417Y015512D03*
X001417Y012512D03*
X001417Y011512D03*
X001417Y010512D03*
X001417Y009512D03*
X002417Y009512D03*
X002417Y010512D03*
X002417Y011512D03*
X002417Y012512D03*
X002417Y008512D03*
X002417Y007512D03*
X002417Y006512D03*
X002417Y005512D03*
X001417Y005512D03*
X001417Y006512D03*
X001417Y007512D03*
X001417Y008512D03*
X001417Y004512D03*
X001417Y003512D03*
X002417Y003512D03*
X002417Y004512D03*
D14*
X007818Y004571D03*
X008818Y004571D03*
X008818Y005571D03*
X007818Y005571D03*
X009818Y005571D03*
X009818Y004571D03*
X010818Y004571D03*
X010818Y005571D03*
X011818Y005571D03*
X011818Y004571D03*
D15*
X005821Y014178D03*
X004995Y014178D03*
D16*
X007487Y011637D03*
X007352Y011042D03*
X008641Y010217D03*
X008297Y009193D03*
X008641Y008499D03*
X009210Y008489D03*
X009217Y009266D03*
X010332Y009402D03*
X007192Y009562D03*
X006779Y008551D03*
X011012Y012782D03*
X010592Y013404D03*
D17*
X006940Y000938D03*
D18*
X003476Y017580D03*
M02*
