G75*
G70*
%OFA0B0*%
%FSLAX24Y24*%
%IPPOS*%
%LPD*%
%AMOC8*
5,1,8,0,0,1.08239X$1,22.5*
%
%ADD10R,0.0339X0.0259*%
%ADD11R,0.0399X0.0130*%
%ADD12R,0.0269X0.0229*%
%ADD13R,0.0279X0.0249*%
%ADD14C,0.0600*%
%ADD15C,0.0594*%
%ADD16OC8,0.1500*%
%ADD17C,0.2550*%
%ADD18C,0.0860*%
%ADD19OC8,0.0860*%
%ADD20C,0.0860*%
%ADD21C,0.0520*%
%ADD22OC8,0.0560*%
%ADD23OC8,0.0520*%
%ADD24C,0.0660*%
%ADD25C,0.0990*%
%ADD26OC8,0.0630*%
%ADD27C,0.0400*%
%ADD28C,0.0500*%
%ADD29C,0.0160*%
%ADD30R,0.0396X0.0396*%
%ADD31C,0.0400*%
%ADD32C,0.0240*%
%ADD33C,0.0320*%
%ADD34C,0.0660*%
%ADD35C,0.0396*%
D10*
X018587Y022329D03*
D11*
X018528Y022124D03*
D12*
X018493Y022124D03*
D13*
X018587Y021945D03*
D14*
X018169Y021164D02*
X018169Y020564D01*
X017169Y020564D02*
X017169Y021164D01*
X016169Y021164D02*
X016169Y020564D01*
X021497Y020649D02*
X021497Y020049D01*
X022497Y020049D02*
X022497Y020649D01*
X023497Y020649D02*
X023497Y020049D01*
X023505Y017313D02*
X023505Y016713D01*
X022505Y016713D02*
X022505Y017313D01*
X021505Y017313D02*
X021505Y016713D01*
X021577Y014254D02*
X021577Y013654D01*
X022577Y013654D02*
X022577Y014254D01*
X023577Y014254D02*
X023577Y013654D01*
X025753Y023985D02*
X025753Y024585D01*
X026753Y024585D02*
X026753Y023985D01*
X027753Y023985D02*
X027753Y024585D01*
X028753Y024585D02*
X028753Y023985D01*
X029753Y023985D02*
X029753Y024585D01*
X030753Y024585D02*
X030753Y023985D01*
X031753Y023985D02*
X031753Y024585D01*
X032753Y024585D02*
X032753Y023985D01*
X033753Y023985D02*
X033753Y024585D01*
X034753Y024585D02*
X034753Y023985D01*
X037293Y023987D02*
X037293Y024587D01*
X038293Y024587D02*
X038293Y023987D01*
X039293Y023987D02*
X039293Y024587D01*
X040293Y024587D02*
X040293Y023987D01*
X041293Y023987D02*
X041293Y024587D01*
X042293Y024587D02*
X042293Y023987D01*
X043293Y023987D02*
X043293Y024587D01*
X044293Y024587D02*
X044293Y023987D01*
X045293Y023987D02*
X045293Y024587D01*
X046293Y024587D02*
X046293Y023987D01*
X018144Y023946D02*
X018144Y024546D01*
X017144Y024546D02*
X017144Y023946D01*
X016144Y023946D02*
X016144Y024546D01*
X016087Y027064D02*
X016087Y027664D01*
X017087Y027664D02*
X017087Y027064D01*
X018087Y027064D02*
X018087Y027664D01*
X018066Y030051D02*
X018066Y030651D01*
X017066Y030651D02*
X017066Y030051D01*
X016066Y030051D02*
X016066Y030651D01*
X016091Y033076D02*
X016091Y033676D01*
X017091Y033676D02*
X017091Y033076D01*
X018091Y033076D02*
X018091Y033676D01*
X018181Y035883D02*
X018181Y036483D01*
X017181Y036483D02*
X017181Y035883D01*
X016181Y035883D02*
X016181Y036483D01*
X013181Y036483D02*
X013181Y035883D01*
X012181Y035883D02*
X012181Y036483D01*
X011181Y036483D02*
X011181Y035883D01*
X011181Y038883D02*
X011181Y039483D01*
X012181Y039483D02*
X012181Y038883D01*
X013181Y038883D02*
X013181Y039483D01*
X016181Y039483D02*
X016181Y038883D01*
X017181Y038883D02*
X017181Y039483D01*
X018181Y039483D02*
X018181Y038883D01*
D15*
X045107Y018916D03*
X046107Y018916D03*
X046107Y017916D03*
X045107Y017916D03*
X045107Y016916D03*
X046107Y016916D03*
X046107Y015916D03*
X045107Y015916D03*
X045107Y014916D03*
X046107Y014916D03*
X050607Y014916D03*
X051607Y014916D03*
X051607Y015916D03*
X050607Y015916D03*
X050607Y016916D03*
X051607Y016916D03*
X051607Y017916D03*
X050607Y017916D03*
X050607Y018916D03*
X051607Y018916D03*
X055916Y019230D03*
X056916Y019230D03*
X056916Y018230D03*
X056916Y017230D03*
X055916Y017230D03*
X055916Y018230D03*
X055916Y016230D03*
X056916Y016230D03*
X056916Y015230D03*
X055916Y015230D03*
X061547Y015296D03*
X062547Y015296D03*
X062547Y016296D03*
X061547Y016296D03*
X061547Y017296D03*
X061547Y018296D03*
X062547Y018296D03*
X062547Y017296D03*
X062547Y019296D03*
X061547Y019296D03*
X066620Y019290D03*
X067620Y019290D03*
X067620Y018290D03*
X066620Y018290D03*
X066620Y017290D03*
X066620Y016290D03*
X067620Y016290D03*
X067620Y017290D03*
X067620Y015290D03*
X066620Y015290D03*
X066401Y009476D03*
X067401Y009476D03*
X067401Y008476D03*
X067401Y007476D03*
X067401Y006476D03*
X066401Y006476D03*
X066401Y007476D03*
X066401Y008476D03*
X062647Y008378D03*
X062647Y007378D03*
X061647Y007378D03*
X061647Y008378D03*
X061647Y009378D03*
X062647Y009378D03*
X062647Y006378D03*
X062647Y005378D03*
X061647Y005378D03*
X061647Y006378D03*
X056939Y006379D03*
X055939Y006379D03*
X055939Y005379D03*
X056939Y005379D03*
X056939Y007379D03*
X055939Y007379D03*
X055939Y008379D03*
X055939Y009379D03*
X056939Y009379D03*
X056939Y008379D03*
X051547Y007983D03*
X050547Y007983D03*
X050547Y006983D03*
X051547Y006983D03*
X051547Y005983D03*
X050547Y005983D03*
X050547Y004983D03*
X051547Y004983D03*
X046218Y005096D03*
X045218Y005096D03*
X045218Y006096D03*
X046218Y006096D03*
X046218Y007096D03*
X045218Y007096D03*
X045218Y008096D03*
X046218Y008096D03*
X046218Y009096D03*
X045218Y009096D03*
X050547Y008983D03*
X051547Y008983D03*
X066401Y005476D03*
X067401Y005476D03*
X062474Y025157D03*
X061474Y025157D03*
X061474Y026157D03*
X062474Y026157D03*
X062474Y027157D03*
X061474Y027157D03*
X061474Y028157D03*
X062474Y028157D03*
X062474Y029157D03*
X061474Y029157D03*
X056901Y029116D03*
X055901Y029116D03*
X055901Y028116D03*
X056901Y028116D03*
X056901Y027116D03*
X055901Y027116D03*
X055901Y026116D03*
X056901Y026116D03*
X056901Y025116D03*
X055901Y025116D03*
X066594Y025256D03*
X067594Y025256D03*
X067594Y026256D03*
X066594Y026256D03*
X066594Y027256D03*
X067594Y027256D03*
X067594Y028256D03*
X066594Y028256D03*
X066594Y029256D03*
X067594Y029256D03*
X067580Y034287D03*
X066580Y034287D03*
X066580Y035287D03*
X067580Y035287D03*
X067580Y036287D03*
X066580Y036287D03*
X066580Y037287D03*
X067580Y037287D03*
X067580Y038287D03*
X066580Y038287D03*
X062386Y038563D03*
X061386Y038563D03*
X061386Y037563D03*
X062386Y037563D03*
X062386Y036563D03*
X061386Y036563D03*
X061386Y035563D03*
X062386Y035563D03*
X062386Y034563D03*
X061386Y034563D03*
X056681Y034683D03*
X055681Y034683D03*
X055681Y035683D03*
X056681Y035683D03*
X056681Y036683D03*
X055681Y036683D03*
X055681Y037683D03*
X056681Y037683D03*
X056681Y038683D03*
X055681Y038683D03*
X023179Y009502D03*
X022179Y009502D03*
X022179Y008502D03*
X023179Y008502D03*
X023179Y007502D03*
X022179Y007502D03*
X022179Y006502D03*
X023179Y006502D03*
X023179Y005502D03*
X022179Y005502D03*
D16*
X010831Y008983D03*
X006531Y008983D03*
D17*
X008681Y003733D03*
X008681Y015633D03*
D18*
X010769Y022277D03*
X009489Y028593D03*
D19*
X011489Y028593D03*
X008769Y022277D03*
D20*
X006121Y023915D02*
X005261Y023915D01*
X004510Y025374D02*
X004510Y026234D01*
X006872Y026234D02*
X006872Y025374D01*
D21*
X006899Y029008D02*
X006379Y029008D01*
X002899Y029008D02*
X002379Y029008D01*
X002379Y033008D02*
X002899Y033008D01*
X006379Y033008D02*
X006899Y033008D01*
X006681Y037923D02*
X006681Y038443D01*
X007681Y038443D02*
X007681Y037923D01*
X004834Y021194D02*
X004314Y021194D01*
X004314Y020214D02*
X004834Y020214D01*
X004834Y019234D02*
X004314Y019234D01*
X002474Y019234D02*
X001954Y019234D01*
X001954Y020214D02*
X002474Y020214D01*
X002474Y021194D02*
X001954Y021194D01*
X019557Y002275D02*
X019557Y001755D01*
X020557Y001755D02*
X020557Y002275D01*
X023350Y002364D02*
X023350Y001844D01*
X024350Y001844D02*
X024350Y002364D01*
D22*
X027968Y004800D03*
X028968Y004800D03*
X029968Y004800D03*
X030968Y004800D03*
X031968Y004800D03*
X032968Y004800D03*
X033968Y004800D03*
X034968Y004800D03*
X035968Y004800D03*
X036968Y004800D03*
X037968Y004800D03*
X038968Y004800D03*
X039968Y004800D03*
X039968Y005800D03*
X038968Y005800D03*
X037968Y005800D03*
X036968Y005800D03*
X035968Y005800D03*
X034968Y005800D03*
X033968Y005800D03*
X032968Y005800D03*
X031968Y005800D03*
X030968Y005800D03*
X029968Y005800D03*
X028968Y005800D03*
X027968Y005800D03*
X027968Y006800D03*
X026968Y006800D03*
X026968Y007800D03*
X027968Y007800D03*
X027968Y008800D03*
X026968Y008800D03*
X026968Y009800D03*
X027968Y009800D03*
X027968Y010800D03*
X026968Y010800D03*
X026968Y011800D03*
X027968Y011800D03*
X027968Y012800D03*
X026968Y012800D03*
X026968Y013800D03*
X027968Y013800D03*
X027968Y014800D03*
X026968Y014800D03*
X026968Y015800D03*
X027968Y015800D03*
X027968Y016800D03*
X026968Y016800D03*
X026968Y017800D03*
X027968Y017800D03*
X027968Y018800D03*
X026968Y018800D03*
X027968Y019800D03*
X028968Y019800D03*
X029968Y019800D03*
X030968Y019800D03*
X031968Y019800D03*
X032968Y019800D03*
X033968Y019800D03*
X034968Y019800D03*
X035968Y019800D03*
X036968Y019800D03*
X037968Y019800D03*
X038968Y019800D03*
X039968Y019800D03*
X039968Y018800D03*
X040968Y018800D03*
X040968Y017800D03*
X040968Y016800D03*
X039968Y016800D03*
X039968Y017800D03*
X039968Y015800D03*
X039968Y014800D03*
X039968Y013800D03*
X040968Y013800D03*
X040968Y014800D03*
X040968Y015800D03*
X040968Y012800D03*
X040968Y011800D03*
X040968Y010800D03*
X039968Y010800D03*
X039968Y011800D03*
X039968Y012800D03*
X039968Y009800D03*
X039968Y008800D03*
X039968Y007800D03*
X040968Y007800D03*
X040968Y008800D03*
X040968Y009800D03*
X040968Y006800D03*
X039968Y006800D03*
X039968Y020800D03*
X038968Y020800D03*
X037968Y020800D03*
X036968Y020800D03*
X035968Y020800D03*
X034968Y020800D03*
X033968Y020800D03*
X032968Y020800D03*
X031968Y020800D03*
X030968Y020800D03*
X029968Y020800D03*
X028968Y020800D03*
X027968Y020800D03*
D23*
X019964Y010494D03*
X018791Y010532D03*
X018791Y006532D03*
X019964Y006494D03*
X006682Y031008D03*
X002682Y031008D03*
D24*
X024314Y038984D03*
X025314Y038984D03*
X026314Y038984D03*
X027314Y038984D03*
X028314Y038984D03*
X029314Y038984D03*
X030314Y038984D03*
X031314Y038984D03*
X032314Y038984D03*
X033314Y038984D03*
X034314Y038984D03*
X035314Y038984D03*
X036314Y038984D03*
X037314Y038984D03*
X038314Y038984D03*
X039314Y038984D03*
D25*
X003816Y037245D02*
X002826Y037245D01*
X002826Y035685D02*
X003816Y035685D01*
D26*
X036314Y017703D03*
X037314Y017703D03*
X030105Y014529D03*
X030105Y013529D03*
X037692Y012342D03*
X037692Y011342D03*
X031276Y007900D03*
X030276Y007900D03*
D27*
X029325Y009544D03*
X028700Y010151D03*
X034188Y009282D03*
X034754Y009027D03*
X038463Y009824D03*
X038149Y013210D03*
X038235Y014078D03*
X037704Y014764D03*
X037132Y015315D03*
X035978Y015457D03*
X034203Y015142D03*
X033368Y016135D03*
X032877Y016686D03*
X032285Y017288D03*
X031461Y017779D03*
X028720Y018289D03*
X025023Y018282D03*
X029004Y020677D03*
X026784Y024299D03*
X025717Y024193D03*
X023648Y024197D03*
X019099Y026421D03*
X018809Y028404D03*
X022843Y028963D03*
X024029Y028817D03*
X022953Y030595D03*
X022696Y032263D03*
X023138Y034242D03*
X023108Y035686D03*
X021172Y035686D03*
X019167Y034367D03*
X019071Y031484D03*
X019776Y037504D03*
X022001Y037504D03*
X024364Y039181D03*
X026684Y037288D03*
X017188Y040569D03*
X006648Y028893D03*
X018865Y022798D03*
X021311Y015232D03*
X014370Y015020D03*
X025815Y005483D03*
X025832Y004034D03*
X026835Y002660D03*
X031950Y003671D03*
X046701Y003208D03*
X047251Y002658D03*
X048134Y002141D03*
X047124Y004564D03*
X054489Y005316D03*
X057917Y003424D03*
X058926Y005378D03*
X063708Y003924D03*
X064973Y004519D03*
X054634Y008961D03*
X054572Y010674D03*
X055856Y011237D03*
X063046Y012978D03*
X053440Y018290D03*
X054613Y018946D03*
X055548Y020450D03*
X055505Y021255D03*
X055924Y022099D03*
X052873Y020391D03*
X052373Y021204D03*
X048818Y018684D03*
X047600Y018681D03*
X047638Y019737D03*
X047440Y020457D03*
X047592Y021391D03*
X045799Y026805D03*
X046921Y026968D03*
X048024Y027030D03*
X050982Y028139D03*
X050824Y029272D03*
X051816Y029823D03*
X052756Y030429D03*
X055549Y030531D03*
X056108Y029942D03*
X050867Y033784D03*
X047963Y033848D03*
X046550Y033449D03*
X045428Y032974D03*
X044371Y032934D03*
X048840Y035947D03*
X049376Y037270D03*
X048901Y038579D03*
X048884Y040235D03*
X055531Y039778D03*
X042016Y039130D03*
X035214Y027185D03*
X036271Y026671D03*
X037284Y026288D03*
X034337Y026306D03*
X044886Y026591D03*
X035294Y018718D03*
X035303Y018704D03*
X036342Y017682D03*
X015143Y003824D03*
D28*
X010769Y022277D02*
X010494Y022302D01*
X010494Y024547D01*
X010054Y024987D01*
X010054Y025592D01*
X009949Y025592D01*
X006648Y028893D01*
X006639Y028903D01*
X006639Y029008D01*
X024364Y039181D02*
X024364Y040037D01*
X023832Y040569D01*
X017188Y040569D01*
D29*
X016181Y039183D02*
X016130Y039132D01*
X016130Y038699D01*
X016641Y038189D01*
X020495Y038189D01*
X021172Y037512D01*
X021172Y035686D01*
X020984Y035499D01*
X020984Y022319D01*
X021172Y022131D01*
X021172Y022127D01*
X021830Y021469D01*
X023950Y021469D01*
X024463Y020956D01*
X024463Y019825D01*
X024652Y019636D01*
X025130Y019636D01*
X025453Y019313D01*
X025465Y019313D01*
X025537Y019241D01*
X025537Y017123D01*
X025872Y016788D01*
X026434Y016788D01*
X026435Y016788D01*
X026955Y016788D01*
X026968Y016800D01*
X026916Y016852D01*
X027442Y017326D02*
X026315Y017326D01*
X026303Y017338D01*
X026303Y017350D01*
X025908Y017745D01*
X025908Y019445D01*
X025293Y020059D01*
X025293Y020794D01*
X024051Y022037D01*
X022862Y023226D01*
X022862Y025466D01*
X023521Y026126D01*
X023521Y026126D01*
X024409Y027014D01*
X024409Y027852D01*
X024003Y028258D01*
X022582Y028258D01*
X022001Y028839D01*
X022001Y037504D01*
X023113Y036393D01*
X028071Y036393D01*
X028442Y036764D01*
X028442Y036764D01*
X029408Y037731D01*
X047134Y037731D01*
X047431Y037434D01*
X047431Y035798D01*
X047877Y035352D01*
X051139Y035352D01*
X051510Y035723D01*
X051510Y035798D01*
X052395Y036683D01*
X055681Y036683D01*
X055681Y037683D02*
X051984Y037683D01*
X050991Y036690D01*
X050991Y036244D01*
X050843Y036095D01*
X048989Y036095D01*
X048840Y035947D01*
X049376Y037270D02*
X049389Y037283D01*
X049443Y037283D01*
X049871Y037711D01*
X049871Y039751D01*
X050297Y040177D01*
X053538Y040177D01*
X053588Y040227D01*
X054037Y039778D01*
X055531Y039778D01*
X058214Y036563D02*
X057874Y036223D01*
X057874Y034362D01*
X057230Y033718D01*
X053869Y033718D01*
X052724Y034863D01*
X047431Y034863D01*
X046500Y035794D01*
X046500Y036868D01*
X046285Y037082D01*
X029798Y037082D01*
X028652Y035937D01*
X028652Y035901D01*
X028402Y035651D01*
X023144Y035651D01*
X023108Y035686D01*
X023487Y034591D02*
X023138Y034242D01*
X023487Y034591D02*
X028553Y034591D01*
X030227Y036265D01*
X044996Y036265D01*
X045552Y035708D01*
X045552Y035645D01*
X047349Y033848D01*
X047963Y033848D01*
X049196Y033784D02*
X047434Y032023D01*
X043658Y032023D01*
X043228Y032452D01*
X043228Y032840D01*
X042627Y033441D01*
X032115Y033441D01*
X030138Y031464D01*
X026581Y031464D01*
X024029Y028912D01*
X024029Y028817D01*
X022843Y028963D02*
X026040Y032160D01*
X029847Y032160D01*
X031704Y034016D01*
X043135Y034016D01*
X044218Y032934D01*
X044371Y032934D01*
X045428Y032974D02*
X045428Y033200D01*
X043870Y034758D01*
X031264Y034758D01*
X029480Y032974D01*
X025331Y032974D01*
X022953Y030595D01*
X022696Y032263D02*
X024295Y033862D01*
X029033Y033862D01*
X030735Y035564D01*
X044438Y035564D01*
X046550Y033451D01*
X046550Y033449D01*
X049196Y033784D02*
X050867Y033784D01*
X051856Y031034D02*
X050867Y030046D01*
X050867Y029315D01*
X050824Y029272D01*
X051816Y029823D02*
X051935Y029942D01*
X056108Y029942D01*
X055549Y030531D02*
X052959Y030531D01*
X052908Y030480D01*
X052807Y030480D01*
X052756Y030429D01*
X051856Y031034D02*
X067262Y031034D01*
X068335Y029961D01*
X068335Y024760D01*
X067819Y024244D01*
X064601Y024244D01*
X063785Y023429D01*
X063785Y023428D01*
X063356Y022999D01*
X063356Y017626D01*
X063026Y017296D01*
X061547Y017296D01*
X064376Y016243D02*
X064376Y003512D01*
X063937Y003073D01*
X058491Y003073D01*
X058234Y002817D01*
X049754Y002817D01*
X048510Y001573D01*
X032864Y001573D01*
X031950Y002488D01*
X031950Y003671D01*
X031950Y003671D01*
X031487Y004180D02*
X030945Y003638D01*
X030945Y002020D01*
X030772Y001847D01*
X029993Y001069D01*
X015826Y001069D01*
X015721Y001174D01*
X015706Y001174D01*
X015143Y001737D01*
X015143Y003824D01*
X014090Y002071D02*
X015406Y000754D01*
X048392Y000754D01*
X049717Y002078D01*
X058140Y002078D01*
X058623Y002562D01*
X064239Y002562D01*
X065776Y004099D01*
X068363Y004099D01*
X068558Y004294D01*
X068863Y004599D01*
X068863Y035735D01*
X068678Y035920D01*
X068678Y035920D01*
X068311Y036287D01*
X067580Y036287D01*
X061386Y036563D02*
X058214Y036563D01*
X049438Y037332D02*
X049389Y037283D01*
X049401Y037295D01*
X048901Y038579D02*
X048884Y038597D01*
X048884Y040235D01*
X029314Y038984D02*
X028312Y037983D01*
X027031Y037983D01*
X026684Y037636D01*
X026684Y037288D01*
X019776Y037504D02*
X011617Y037504D01*
X011181Y037939D01*
X011181Y039183D01*
X011181Y036183D02*
X011181Y033527D01*
X013419Y031289D01*
X013419Y031288D01*
X013931Y030776D01*
X013931Y015459D01*
X014370Y015020D01*
X014090Y014740D01*
X014090Y002071D01*
X018778Y002793D02*
X018778Y004486D01*
X017567Y005044D02*
X020775Y005044D01*
X021198Y004621D01*
X026788Y004621D01*
X026887Y004720D01*
X026835Y004668D01*
X026835Y002660D01*
X026020Y002092D02*
X026020Y003847D01*
X025832Y004034D01*
X026887Y004720D02*
X027968Y005800D01*
X028487Y005319D02*
X027968Y004800D01*
X028487Y005319D02*
X028487Y006739D01*
X028700Y006953D01*
X028700Y010151D01*
X029325Y009544D02*
X029325Y006157D01*
X028968Y005800D01*
X027968Y006800D02*
X027168Y006001D01*
X021690Y006001D01*
X021445Y005755D01*
X017767Y005755D01*
X017065Y006457D01*
X017065Y018158D01*
X017589Y018682D01*
X018349Y018682D01*
X018769Y019102D01*
X018769Y021597D01*
X018761Y021605D01*
X018191Y022174D01*
X018211Y022174D01*
X018750Y021635D01*
X018750Y022683D01*
X018865Y022798D01*
X018857Y022778D02*
X018278Y022199D01*
X018258Y022199D01*
X018191Y022174D02*
X016531Y022174D01*
X016144Y022562D01*
X016144Y024246D01*
X016429Y025246D02*
X016087Y025588D01*
X016087Y027364D01*
X016545Y028404D02*
X018809Y028404D01*
X019707Y027506D01*
X019707Y012970D01*
X020519Y012158D01*
X020519Y010447D01*
X020903Y010063D01*
X026035Y010063D01*
X026265Y010293D01*
X027460Y010293D01*
X027968Y010800D01*
X027968Y011800D02*
X027494Y012309D01*
X026473Y012309D01*
X025096Y010897D01*
X021935Y010897D01*
X021611Y011222D01*
X021611Y012529D01*
X020587Y013553D01*
X020587Y032974D01*
X019936Y033625D01*
X019908Y033625D01*
X019167Y034367D01*
X019194Y034367D02*
X019936Y033625D01*
X019194Y034367D02*
X016637Y034367D01*
X016181Y034823D01*
X016181Y036183D01*
X016120Y033828D02*
X016120Y031915D01*
X016550Y031484D01*
X019071Y031484D01*
X019873Y030682D01*
X019873Y030681D01*
X020058Y030497D01*
X020058Y013342D01*
X021104Y012295D01*
X021104Y010752D01*
X021412Y010444D01*
X025612Y010444D01*
X026968Y011800D01*
X025848Y013305D02*
X025427Y012883D01*
X022148Y012883D01*
X021577Y013454D01*
X021577Y013954D01*
X022577Y013954D02*
X022577Y014531D01*
X022802Y014757D01*
X024281Y014757D01*
X024689Y014340D01*
X027340Y014324D01*
X027888Y013800D01*
X027968Y013800D01*
X028639Y013305D02*
X029034Y012910D01*
X030669Y012910D01*
X030944Y013161D01*
X030944Y013347D01*
X030945Y013371D01*
X030945Y014307D01*
X031053Y014415D01*
X035183Y014415D01*
X035367Y014231D01*
X035367Y006200D01*
X035238Y006070D01*
X035340Y006172D01*
X035238Y006070D02*
X034968Y005800D01*
X034754Y006586D02*
X033968Y005800D01*
X033494Y006112D02*
X033494Y005274D01*
X033968Y004800D01*
X034891Y004724D02*
X034968Y004800D01*
X034891Y004724D02*
X034891Y003886D01*
X035569Y003208D01*
X046701Y003208D01*
X047251Y002658D02*
X033410Y002658D01*
X032859Y003208D01*
X032859Y004692D01*
X032968Y004800D01*
X032470Y005254D02*
X032968Y005800D01*
X033494Y006112D02*
X034188Y006805D01*
X034188Y009282D01*
X034754Y009027D02*
X034754Y006586D01*
X035968Y005800D02*
X036444Y005324D01*
X036444Y004287D01*
X036888Y003843D01*
X051674Y003843D01*
X052097Y004266D01*
X054699Y004266D01*
X055163Y004730D01*
X055163Y007603D01*
X055939Y008379D01*
X055939Y007379D02*
X057738Y007379D01*
X057952Y007165D01*
X057952Y003459D01*
X057917Y003424D01*
X054489Y005316D02*
X054477Y005329D01*
X052667Y005329D01*
X052165Y004827D01*
X052165Y004827D01*
X051688Y004350D01*
X048753Y004350D01*
X048655Y004448D01*
X048655Y004448D01*
X048325Y004778D01*
X048325Y008264D01*
X047994Y008595D01*
X045732Y008595D01*
X045230Y009096D01*
X045218Y009096D01*
X046218Y009096D02*
X048390Y009096D01*
X048800Y008686D01*
X048800Y008093D01*
X049358Y007494D01*
X052090Y007494D01*
X052375Y007779D01*
X052375Y008155D01*
X051547Y008983D01*
X051569Y008961D01*
X051145Y008465D02*
X049365Y008465D01*
X049170Y008660D01*
X049170Y009587D01*
X048780Y009977D01*
X048463Y010294D01*
X040318Y010294D01*
X039968Y010645D01*
X039968Y010800D01*
X039473Y011298D02*
X039443Y011328D01*
X039077Y010962D01*
X039077Y007549D01*
X039319Y007307D01*
X040462Y007307D01*
X040968Y006800D01*
X039968Y006800D02*
X042205Y004564D01*
X047124Y004564D01*
X048134Y002141D02*
X033104Y002141D01*
X032470Y002844D01*
X032470Y005254D01*
X031487Y004180D02*
X031487Y006381D01*
X031276Y006591D01*
X031276Y007900D01*
X030276Y007900D02*
X030276Y007082D01*
X030440Y006919D01*
X030440Y006911D01*
X030468Y006882D01*
X030468Y002242D01*
X030033Y001806D01*
X026305Y001806D01*
X026020Y002092D01*
X023350Y002104D02*
X022451Y003002D01*
X020606Y003002D01*
X019947Y003662D01*
X019947Y004396D01*
X017567Y005044D02*
X016169Y006441D01*
X016169Y020864D01*
X021497Y020349D02*
X021497Y019402D01*
X021678Y019222D01*
X024779Y019222D01*
X025025Y018976D01*
X025025Y018353D01*
X025016Y018344D01*
X025016Y018289D01*
X025023Y018282D01*
X024396Y018043D02*
X023931Y018509D01*
X021638Y018509D01*
X021505Y018375D01*
X021505Y017013D01*
X021311Y015232D02*
X026165Y015232D01*
X026287Y015314D01*
X027523Y015314D01*
X027968Y015800D01*
X027968Y016800D02*
X027442Y017326D01*
X028720Y018289D02*
X030475Y018289D01*
X030635Y018129D01*
X030635Y017784D01*
X032893Y015526D01*
X033604Y015526D01*
X033948Y015870D01*
X035564Y015870D01*
X035978Y015457D01*
X035909Y015526D01*
X035978Y015457D02*
X035960Y015440D01*
X037132Y015315D02*
X037348Y015530D01*
X037348Y016263D01*
X037204Y016406D01*
X035538Y016406D01*
X034920Y017025D01*
X034920Y018343D01*
X034867Y018396D01*
X034867Y019098D01*
X034941Y019173D01*
X035722Y019173D01*
X035847Y019048D01*
X038200Y019048D01*
X038488Y019357D01*
X038488Y021381D01*
X038800Y021672D01*
X047310Y021672D01*
X047592Y021391D01*
X047440Y020457D02*
X047440Y020358D01*
X046695Y019613D01*
X041994Y019613D01*
X041699Y019319D01*
X039648Y019319D01*
X039050Y018720D01*
X038410Y018720D01*
X037878Y018189D01*
X037878Y014939D01*
X037704Y014764D01*
X038270Y014113D02*
X038235Y014078D01*
X038270Y014113D02*
X038270Y017974D01*
X038609Y018313D01*
X041706Y018313D01*
X041734Y018342D01*
X041740Y018342D01*
X041833Y018434D01*
X046679Y018434D01*
X046869Y018624D01*
X046869Y019017D01*
X047589Y019737D01*
X047638Y019737D01*
X047600Y018681D02*
X047600Y017982D01*
X047073Y017456D01*
X047062Y017456D01*
X047012Y017405D01*
X041574Y017405D01*
X041467Y017277D01*
X039161Y017277D01*
X038777Y016916D01*
X038777Y013379D01*
X038607Y013210D01*
X038149Y013210D01*
X039144Y011980D02*
X038514Y011350D01*
X038514Y009874D01*
X038463Y009824D01*
X039473Y011298D02*
X041561Y011298D01*
X041622Y011237D01*
X055856Y011237D01*
X056976Y011800D02*
X057361Y011415D01*
X057361Y010822D01*
X057213Y010674D01*
X054572Y010674D01*
X056976Y011800D02*
X040968Y011800D01*
X040577Y012346D02*
X042402Y012346D01*
X042457Y012290D01*
X059769Y012290D01*
X060342Y011717D01*
X060342Y007882D01*
X060025Y007564D01*
X059010Y007564D01*
X058926Y007649D01*
X061647Y007378D02*
X063495Y007378D01*
X063725Y007148D01*
X063725Y003941D01*
X063708Y003924D01*
X064973Y004519D02*
X065025Y004571D01*
X065025Y006995D01*
X065506Y007476D01*
X066401Y007476D01*
X068714Y004450D02*
X068558Y004294D01*
X063046Y012978D02*
X044907Y012978D01*
X042158Y015727D01*
X042158Y015784D01*
X040984Y015784D01*
X040968Y015800D01*
X041792Y016300D02*
X039349Y016300D01*
X039144Y016094D01*
X039144Y011980D01*
X039968Y011800D02*
X040032Y011800D01*
X040577Y012346D01*
X042402Y012346D02*
X042458Y012346D01*
X048634Y010124D02*
X048780Y009977D01*
X051145Y008465D02*
X051547Y008063D01*
X051547Y007983D01*
X048336Y016425D02*
X041917Y016425D01*
X041792Y016300D01*
X036342Y017682D02*
X036325Y017682D01*
X035303Y018704D01*
X035294Y018718D02*
X035416Y018596D01*
X035422Y018596D01*
X036314Y017703D01*
X034496Y017699D02*
X034453Y017655D01*
X034453Y017220D01*
X033368Y016135D01*
X032877Y016686D02*
X033505Y017315D01*
X033505Y017570D01*
X033497Y017578D01*
X033497Y021648D01*
X034121Y022272D01*
X035928Y022272D01*
X036271Y022615D01*
X036271Y026671D01*
X035871Y025841D02*
X035214Y026498D01*
X035214Y027185D01*
X034337Y026306D02*
X034337Y026219D01*
X034863Y025692D01*
X035132Y025692D01*
X035475Y025349D01*
X035475Y023413D01*
X035206Y023144D01*
X032025Y023144D01*
X031461Y022581D01*
X031461Y017779D01*
X032285Y017288D02*
X032472Y017475D01*
X032472Y017596D01*
X032489Y017613D01*
X032489Y022169D01*
X033050Y022730D01*
X035650Y022730D01*
X035871Y022951D01*
X035871Y025841D01*
X036608Y025663D02*
X036608Y022170D01*
X036314Y021876D01*
X034908Y021876D01*
X034496Y021465D01*
X034496Y017699D01*
X032680Y015113D02*
X031467Y016327D01*
X024717Y016327D01*
X024396Y016648D01*
X024396Y018043D01*
X028968Y020664D02*
X028968Y020800D01*
X028994Y020826D01*
X028994Y022889D01*
X028752Y023131D01*
X026998Y023131D01*
X026762Y023367D01*
X026762Y024277D01*
X026753Y024285D01*
X026772Y024287D02*
X026784Y024299D01*
X026772Y024287D02*
X026772Y023343D01*
X027000Y023115D01*
X028718Y023115D01*
X028741Y023092D01*
X028764Y023092D01*
X028991Y022865D01*
X028991Y020702D01*
X029004Y020689D01*
X029004Y020677D01*
X024051Y022037D02*
X023892Y022196D01*
X019296Y024672D02*
X019296Y012814D01*
X019293Y012810D01*
X019293Y011835D01*
X018875Y011418D01*
X017962Y011418D01*
X017577Y011032D01*
X017577Y008110D01*
X017904Y007783D01*
X020217Y007783D01*
X020976Y007024D01*
X023891Y007024D01*
X023900Y007033D01*
X023900Y007050D01*
X024650Y007800D01*
X026968Y007800D01*
X023179Y007502D02*
X022733Y008000D01*
X021052Y008000D01*
X020720Y008325D01*
X023179Y005502D02*
X023198Y005483D01*
X025815Y005483D01*
X030772Y001847D02*
X030772Y001846D01*
X019557Y002015D02*
X018778Y002793D01*
X025848Y013305D02*
X028639Y013305D01*
X032680Y015113D02*
X034174Y015113D01*
X034203Y015142D01*
X036968Y019800D02*
X037054Y019800D01*
X037475Y020239D01*
X037475Y022849D01*
X037784Y023140D01*
X044951Y023140D01*
X045334Y023524D01*
X045334Y024246D01*
X045293Y024287D01*
X046803Y025291D02*
X046947Y025147D01*
X046803Y025291D02*
X049268Y022826D01*
X057144Y022826D01*
X058071Y021899D01*
X058071Y017669D01*
X057631Y017230D01*
X055916Y017230D01*
X055916Y018230D02*
X053703Y018230D01*
X053440Y018290D01*
X051638Y018946D02*
X051607Y018916D01*
X052873Y020391D02*
X053220Y020450D01*
X055548Y020450D01*
X055505Y021255D02*
X052373Y021204D01*
X049499Y023460D02*
X046186Y026773D01*
X045831Y026773D01*
X045799Y026805D01*
X045967Y026127D02*
X045350Y026127D01*
X044886Y026591D01*
X045967Y026127D02*
X046803Y025291D01*
X048332Y025557D02*
X049834Y024056D01*
X057370Y024056D01*
X058050Y024736D01*
X058050Y026783D01*
X058424Y027157D01*
X061474Y027157D01*
X063823Y026731D02*
X063823Y024648D01*
X063007Y023832D01*
X058335Y023832D01*
X057964Y023460D01*
X049499Y023460D01*
X050270Y024542D02*
X048110Y026702D01*
X048110Y027116D01*
X048024Y027030D01*
X046921Y026968D02*
X048332Y025557D01*
X048473Y025417D01*
X050270Y024542D02*
X053335Y024542D01*
X054607Y025814D01*
X054607Y025822D01*
X055901Y027116D01*
X055901Y028116D02*
X051006Y028116D01*
X050982Y028139D01*
X063823Y026731D02*
X064349Y027256D01*
X066594Y027256D01*
X066620Y017290D02*
X065423Y017290D01*
X064376Y016243D01*
X048818Y016907D02*
X048336Y016425D01*
X048818Y016907D02*
X048818Y018684D01*
X037233Y026288D02*
X036608Y025663D01*
X037233Y026288D02*
X037284Y026288D01*
X019310Y024888D02*
X019310Y024747D01*
X019292Y024765D01*
X019292Y024994D01*
X019222Y025065D01*
X019222Y025117D01*
X019081Y025258D01*
X019081Y025276D01*
X019046Y025241D01*
X018746Y025241D01*
X018741Y025246D02*
X018922Y025065D01*
X018940Y025065D01*
X019134Y025258D01*
X019134Y026386D01*
X019099Y026421D01*
X018741Y025246D02*
X018723Y025246D01*
X019296Y024672D01*
X019310Y024888D02*
X019134Y025065D01*
X018723Y025246D02*
X016429Y025246D01*
X016545Y028404D02*
X016066Y028883D01*
X016066Y030351D01*
X016091Y033376D02*
X016091Y033800D01*
X016120Y033828D01*
D30*
X028968Y020664D03*
D31*
X039314Y038984D02*
X039460Y039130D01*
X042016Y039130D01*
D32*
X051104Y022099D02*
X055924Y022099D01*
X054613Y018946D02*
X051638Y018946D01*
X050607Y018916D02*
X050607Y021602D01*
X051104Y022099D01*
X056916Y016230D02*
X058043Y015103D01*
X058043Y014281D01*
X057267Y013506D01*
X053128Y013506D01*
X053111Y013512D01*
X045942Y013512D01*
X045107Y014358D01*
X045107Y014916D01*
X046107Y014916D02*
X048552Y014916D01*
X049423Y014044D01*
X054730Y014044D01*
X055916Y015230D01*
X058651Y010103D02*
X050872Y010103D01*
X050547Y009779D01*
X050547Y008983D01*
X051569Y008961D02*
X054634Y008961D01*
X058651Y010103D02*
X058926Y009828D01*
X058926Y007649D01*
X058926Y005378D01*
D33*
X025717Y024193D02*
X023652Y024193D01*
X023648Y024197D01*
D34*
X004510Y025804D02*
X002967Y025804D01*
X000901Y027871D01*
X000754Y028018D01*
X000754Y034534D01*
X001403Y035183D01*
X001471Y035183D01*
X001928Y035640D01*
X003276Y035640D01*
X003321Y035685D01*
X000901Y027871D02*
X001145Y027626D01*
D35*
X020720Y008325D03*
X019947Y004396D03*
X018778Y004486D03*
M02*
