%
M48
M72
T01C0.0157
T02C0.0236
T03C0.0315
T04C0.0320
T05C0.0360
T06C0.0394
T07C0.0400
T08C0.0470
T09C0.0660
T10C0.0984
T11C0.1181
T12C0.1260
T13C0.1620
%
T01
X28700Y10151
X38463Y9824
X47124Y4564
X46701Y3208
X47251Y2658
X48134Y2141
X55856Y11237
X63046Y12978
T02
X54572Y10674
X54634Y8961
X54489Y5316
X57917Y3424
X58926Y5378
X63708Y3924
X64973Y4519
X53440Y18290
X54613Y18946
X55548Y20450
X55505Y21255
X55924Y22099
X52873Y20391
X52373Y21204
X48818Y18684
X47600Y18681
X47638Y19737
X47440Y20457
X47592Y21391
X45799Y26805
X46921Y26968
X48024Y27030
X50982Y28139
X50824Y29272
X51816Y29823
X52756Y30429
X55549Y30531
X56108Y29942
X50867Y33784
X47963Y33848
X46550Y33449
X45428Y32974
X44371Y32934
X48840Y35947
X49376Y37270
X48901Y38579
X48884Y40235
X55531Y39778
X42016Y39130
X26684Y37288
X24364Y39181
X22001Y37504
X19776Y37504
X21172Y35686
X23108Y35686
X23138Y34242
X22696Y32263
X22953Y30595
X22843Y28963
X24029Y28817
X19099Y26421
X18809Y28404
X19071Y31484
X19167Y34367
X17188Y40569
X6648Y28893
X18865Y22798
X23648Y24197
X25717Y24193
X26784Y24299
X28968Y20664
X29004Y20677
X28720Y18289
X31461Y17779
X32285Y17288
X32877Y16686
X33368Y16135
X34203Y15142
X35978Y15457
X37132Y15315
X37704Y14764
X38235Y14078
X38149Y13210
X34754Y9027
X34188Y9282
X29325Y9544
X25815Y5483
X25832Y4034
X26835Y2660
X31950Y3671
X20720Y8325
X19947Y4396
X18778Y4486
X15143Y3824
X14370Y15020
X21311Y15232
X25023Y18282
X35294Y18718
X35303Y18704
X36342Y17682
X37284Y26288
X36271Y26671
X35214Y27185
X34337Y26306
X44886Y26591
T03
X5691Y23915
X4510Y25804
T04
X2639Y29008
X2682Y31008
X2639Y33008
X6639Y33008
X6682Y31008
X6639Y29008
X4574Y21194
X4574Y20214
X4574Y19234
X2214Y19234
X2214Y20214
X2214Y21194
X18791Y10532
X19964Y10494
X19964Y6494
X18791Y6532
X19557Y2015
X20557Y2015
X23350Y2104
X24350Y2104
X30276Y7900
X31276Y7900
X37692Y11342
X37692Y12342
X30105Y13529
X30105Y14529
X36314Y17703
X37314Y17703
X7681Y38183
X6681Y38183
T05
X27968Y20800
X27968Y19800
X27968Y18800
X26968Y18800
X26968Y17800
X27968Y17800
X27968Y16800
X26968Y16800
X26968Y15800
X27968Y15800
X27968Y14800
X26968Y14800
X26968Y13800
X27968Y13800
X27968Y12800
X26968Y12800
X26968Y11800
X27968Y11800
X27968Y10800
X26968Y10800
X26968Y9800
X27968Y9800
X27968Y8800
X26968Y8800
X26968Y7800
X27968Y7800
X27968Y6800
X26968Y6800
X27968Y5800
X27968Y4800
X28968Y4800
X29968Y4800
X30968Y4800
X31968Y4800
X32968Y4800
X33968Y4800
X34968Y4800
X35968Y4800
X36968Y4800
X37968Y4800
X38968Y4800
X39968Y4800
X39968Y5800
X38968Y5800
X37968Y5800
X36968Y5800
X35968Y5800
X34968Y5800
X33968Y5800
X32968Y5800
X31968Y5800
X30968Y5800
X29968Y5800
X28968Y5800
X39968Y6800
X40968Y6800
X40968Y7800
X39968Y7800
X39968Y8800
X40968Y8800
X40968Y9800
X39968Y9800
X39968Y10800
X40968Y10800
X40968Y11800
X39968Y11800
X39968Y12800
X40968Y12800
X40968Y13800
X39968Y13800
X39968Y14800
X40968Y14800
X40968Y15800
X39968Y15800
X39968Y16800
X40968Y16800
X40968Y17800
X39968Y17800
X39968Y18800
X40968Y18800
X39968Y19800
X38968Y19800
X37968Y19800
X36968Y19800
X35968Y19800
X34968Y19800
X33968Y19800
X32968Y19800
X31968Y19800
X30968Y19800
X29968Y19800
X28968Y19800
X28968Y20800
X29968Y20800
X30968Y20800
X31968Y20800
X32968Y20800
X33968Y20800
X34968Y20800
X35968Y20800
X36968Y20800
X37968Y20800
X38968Y20800
X39968Y20800
T06
X45107Y18916
X46107Y18916
X46107Y17916
X45107Y17916
X45107Y16916
X46107Y16916
X46107Y15916
X45107Y15916
X45107Y14916
X46107Y14916
X50607Y14916
X51607Y14916
X51607Y15916
X50607Y15916
X50607Y16916
X51607Y16916
X51607Y17916
X50607Y17916
X50607Y18916
X51607Y18916
X55916Y19230
X56916Y19230
X56916Y18230
X56916Y17230
X55916Y17230
X55916Y18230
X55916Y16230
X56916Y16230
X56916Y15230
X55916Y15230
X61547Y15296
X62547Y15296
X62547Y16296
X61547Y16296
X61547Y17296
X61547Y18296
X62547Y18296
X62547Y17296
X62547Y19296
X61547Y19296
X66620Y19290
X67620Y19290
X67620Y18290
X66620Y18290
X66620Y17290
X66620Y16290
X67620Y16290
X67620Y17290
X67620Y15290
X66620Y15290
X66401Y9476
X67401Y9476
X67401Y8476
X67401Y7476
X67401Y6476
X66401Y6476
X66401Y7476
X66401Y8476
X62647Y8378
X62647Y7378
X61647Y7378
X61647Y8378
X61647Y9378
X62647Y9378
X62647Y6378
X62647Y5378
X61647Y5378
X61647Y6378
X56939Y6379
X55939Y6379
X55939Y5379
X56939Y5379
X56939Y7379
X55939Y7379
X55939Y8379
X55939Y9379
X56939Y9379
X56939Y8379
X51547Y7983
X50547Y7983
X50547Y6983
X51547Y6983
X51547Y5983
X50547Y5983
X50547Y4983
X51547Y4983
X46218Y5096
X45218Y5096
X45218Y6096
X46218Y6096
X46218Y7096
X45218Y7096
X45218Y8096
X46218Y8096
X46218Y9096
X45218Y9096
X50547Y8983
X51547Y8983
X66401Y5476
X67401Y5476
X62474Y25157
X61474Y25157
X61474Y26157
X62474Y26157
X62474Y27157
X61474Y27157
X61474Y28157
X62474Y28157
X62474Y29157
X61474Y29157
X56901Y29116
X55901Y29116
X55901Y28116
X56901Y28116
X56901Y27116
X55901Y27116
X55901Y26116
X56901Y26116
X56901Y25116
X55901Y25116
X66594Y25256
X67594Y25256
X67594Y26256
X66594Y26256
X66594Y27256
X67594Y27256
X67594Y28256
X66594Y28256
X66594Y29256
X67594Y29256
X67580Y34287
X66580Y34287
X66580Y35287
X67580Y35287
X67580Y36287
X66580Y36287
X66580Y37287
X67580Y37287
X67580Y38287
X66580Y38287
X62386Y38563
X61386Y38563
X61386Y37563
X62386Y37563
X62386Y36563
X61386Y36563
X61386Y35563
X62386Y35563
X62386Y34563
X61386Y34563
X56681Y34683
X55681Y34683
X55681Y35683
X56681Y35683
X56681Y36683
X55681Y36683
X55681Y37683
X56681Y37683
X56681Y38683
X55681Y38683
X39314Y38984
X38314Y38984
X37314Y38984
X36314Y38984
X35314Y38984
X34314Y38984
X33314Y38984
X32314Y38984
X31314Y38984
X30314Y38984
X29314Y38984
X28314Y38984
X27314Y38984
X26314Y38984
X25314Y38984
X24314Y38984
X6872Y25804
X22179Y9502
X23179Y9502
X23179Y8502
X22179Y8502
X22179Y7502
X23179Y7502
X23179Y6502
X22179Y6502
X22179Y5502
X23179Y5502
T07
X23577Y13954
X22577Y13954
X21577Y13954
X21505Y17013
X22505Y17013
X23505Y17013
X23497Y20349
X22497Y20349
X21497Y20349
X18169Y20864
X17169Y20864
X16169Y20864
X16144Y24246
X17144Y24246
X18144Y24246
X18087Y27364
X17087Y27364
X16087Y27364
X11489Y28593
X9489Y28593
X16066Y30351
X17066Y30351
X18066Y30351
X18091Y33376
X17091Y33376
X16091Y33376
X16181Y36183
X17181Y36183
X18181Y36183
X18181Y39183
X17181Y39183
X16181Y39183
X13181Y39183
X12181Y39183
X11181Y39183
X11181Y36183
X12181Y36183
X13181Y36183
X25753Y24285
X26753Y24285
X27753Y24285
X28753Y24285
X29753Y24285
X30753Y24285
X31753Y24285
X32753Y24285
X33753Y24285
X34753Y24285
X37293Y24287
X38293Y24287
X39293Y24287
X40293Y24287
X41293Y24287
X42293Y24287
X43293Y24287
X44293Y24287
X45293Y24287
X46293Y24287
X10769Y22277
X8769Y22277
T08
X10831Y8983
X6531Y8983
T09
X3321Y35685
X3321Y37245
T10
X22148Y38984
X22148Y26779
X51676Y26779
X51676Y38984
T11
X1585Y1598
T12
X2320Y40864
X67999Y1989
X68457Y41323
T13
X8681Y15633
X8681Y3733
M30
