G75*
%MOIN*%
%OFA0B0*%
%FSLAX24Y24*%
%IPPOS*%
%LPD*%
%AMOC8*
5,1,8,0,0,1.08239X$1,22.5*
%
%ADD10C,0.0350*%
%ADD11C,0.0594*%
%ADD12C,0.0600*%
%ADD13OC8,0.0600*%
%ADD14C,0.2000*%
%ADD15C,0.1306*%
%ADD16C,0.0554*%
%ADD17C,0.1065*%
%ADD18OC8,0.0520*%
%ADD19C,0.0825*%
%ADD20C,0.1000*%
%ADD21C,0.0560*%
%ADD22C,0.0360*%
%ADD23C,0.0240*%
%ADD24C,0.0160*%
%ADD25C,0.2540*%
%ADD26C,0.0400*%
%ADD27C,0.0320*%
D10*
X030509Y023301D02*
X030509Y023626D01*
X031326Y023626D02*
X031326Y023951D01*
X031651Y024276D01*
X032301Y024276D01*
X032627Y024602D01*
X032627Y024927D01*
X032301Y025252D01*
X031651Y025252D01*
X031326Y024927D01*
X030509Y025578D02*
X030509Y024276D01*
X031326Y023626D02*
X031651Y023301D01*
X032301Y023301D01*
X032627Y023626D01*
X033443Y023626D02*
X033443Y025252D01*
X034745Y025252D02*
X034745Y023626D01*
X034419Y023301D01*
X033769Y023301D01*
X033443Y023626D01*
X035561Y023301D02*
X035561Y025252D01*
X036212Y024602D01*
X036862Y025252D01*
X036862Y023301D01*
X037624Y023301D02*
X038274Y023301D01*
X037949Y023301D02*
X037949Y025252D01*
X038274Y025252D02*
X037624Y025252D01*
X039091Y025252D02*
X040392Y025252D01*
X039741Y025252D02*
X039741Y023301D01*
X041209Y024276D02*
X041534Y023951D01*
X042510Y023951D01*
X042510Y023301D02*
X042510Y025252D01*
X041534Y025252D01*
X041209Y024927D01*
X041209Y024276D01*
X043327Y023626D02*
X043327Y024927D01*
X043652Y025252D01*
X044302Y025252D01*
X044628Y024927D01*
X044628Y023626D01*
X044302Y023301D01*
X043652Y023301D01*
X043327Y023626D01*
X047562Y023626D02*
X047562Y024276D01*
X048213Y024276D01*
X048863Y024927D02*
X048863Y023626D01*
X048538Y023301D01*
X047887Y023301D01*
X047562Y023626D01*
X049680Y023301D02*
X049680Y025252D01*
X048863Y024927D02*
X048538Y025252D01*
X047887Y025252D01*
X047562Y024927D01*
X049680Y023301D02*
X050981Y025252D01*
X050981Y023301D01*
X051742Y023301D02*
X052393Y023301D01*
X052068Y023301D02*
X052068Y025252D01*
X052393Y025252D02*
X051742Y025252D01*
X054511Y025252D02*
X054511Y023301D01*
X053210Y023301D01*
X055327Y023301D02*
X056629Y023301D01*
X056629Y025252D01*
X057445Y024602D02*
X057445Y023301D01*
X057445Y024276D02*
X058746Y024276D01*
X058746Y024602D02*
X058096Y025252D01*
X057445Y024602D01*
X058746Y024602D02*
X058746Y023301D01*
X059563Y023626D02*
X059888Y023301D01*
X060539Y023301D01*
X060864Y023626D01*
X060864Y024927D01*
X060539Y025252D01*
X059888Y025252D01*
X059563Y024927D01*
D11*
X060039Y031626D03*
X059039Y031626D03*
X058039Y031626D03*
X057039Y031626D03*
X057039Y032626D03*
X058039Y032626D03*
X059039Y032626D03*
X060039Y032626D03*
X061039Y032626D03*
X062039Y032626D03*
X063039Y032626D03*
X064039Y032626D03*
X065039Y032626D03*
X066039Y032626D03*
X067039Y032626D03*
X068039Y032626D03*
X069039Y032626D03*
X070039Y032626D03*
X071039Y032626D03*
X072039Y032626D03*
X073039Y032626D03*
X073039Y031626D03*
X072039Y031626D03*
X071039Y031626D03*
X070039Y031626D03*
X069039Y031626D03*
X068039Y031626D03*
X067039Y031626D03*
X066039Y031626D03*
X065039Y031626D03*
X064039Y031626D03*
X063039Y031626D03*
X062039Y031626D03*
X061039Y031626D03*
X042039Y030626D03*
X041039Y030626D03*
X040039Y030626D03*
X039039Y030626D03*
X038039Y030626D03*
X037039Y030626D03*
X036039Y030626D03*
X035039Y030626D03*
X034039Y030626D03*
X033039Y030626D03*
X032039Y030626D03*
X031039Y030626D03*
X030039Y030626D03*
X029039Y030626D03*
X028039Y030626D03*
X027039Y030626D03*
X026039Y030626D03*
X026039Y029626D03*
X027039Y029626D03*
X028039Y029626D03*
X029039Y029626D03*
X030039Y029626D03*
X031039Y029626D03*
X032039Y029626D03*
X033039Y029626D03*
X034039Y029626D03*
X035039Y029626D03*
X036039Y029626D03*
X037039Y029626D03*
X038039Y029626D03*
X039039Y029626D03*
X040039Y029626D03*
X041039Y029626D03*
X042039Y029626D03*
X019039Y029626D03*
X018039Y029626D03*
X018039Y028626D03*
X019039Y028626D03*
X019039Y027626D03*
X018039Y027626D03*
X018039Y026626D03*
X019039Y026626D03*
X019039Y025626D03*
X018039Y025626D03*
X018039Y024626D03*
X019039Y024626D03*
X019039Y023626D03*
X018039Y023626D03*
X018039Y022626D03*
X019039Y022626D03*
X019039Y021626D03*
X018039Y021626D03*
X018039Y020626D03*
X019039Y020626D03*
X019039Y019626D03*
X018039Y019626D03*
X018039Y018626D03*
X019039Y018626D03*
X019039Y017626D03*
X018039Y017626D03*
X018039Y016626D03*
X019039Y016626D03*
X019039Y015626D03*
X018039Y015626D03*
X018039Y014626D03*
X019039Y014626D03*
X019039Y013626D03*
X018039Y013626D03*
X024539Y005626D03*
X025539Y005626D03*
X026539Y005626D03*
X027539Y005626D03*
X028539Y005626D03*
X029539Y005626D03*
X030539Y005626D03*
X031539Y005626D03*
X032539Y005626D03*
X033539Y005626D03*
X034539Y005626D03*
X035539Y005626D03*
X036539Y005626D03*
X037539Y005626D03*
X038539Y005626D03*
X039539Y005626D03*
X040539Y005626D03*
X040539Y004626D03*
X039539Y004626D03*
X038539Y004626D03*
X037539Y004626D03*
X036539Y004626D03*
X035539Y004626D03*
X034539Y004626D03*
X033539Y004626D03*
X032539Y004626D03*
X031539Y004626D03*
X030539Y004626D03*
X029539Y004626D03*
X028539Y004626D03*
X027539Y004626D03*
X026539Y004626D03*
X025539Y004626D03*
X024539Y004626D03*
X056539Y004626D03*
X057539Y004626D03*
X058539Y004626D03*
X059539Y004626D03*
X060539Y004626D03*
X061539Y004626D03*
X062539Y004626D03*
X063539Y004626D03*
X064539Y004626D03*
X065539Y004626D03*
X066539Y004626D03*
X067539Y004626D03*
X068539Y004626D03*
X069539Y004626D03*
X070539Y004626D03*
X071539Y004626D03*
X072539Y004626D03*
X072539Y005626D03*
X071539Y005626D03*
X070539Y005626D03*
X069539Y005626D03*
X068539Y005626D03*
X067539Y005626D03*
X066539Y005626D03*
X065539Y005626D03*
X064539Y005626D03*
X063539Y005626D03*
X062539Y005626D03*
X061539Y005626D03*
X060539Y005626D03*
X059539Y005626D03*
X058539Y005626D03*
X057539Y005626D03*
X056539Y005626D03*
D12*
X059739Y017126D02*
X060339Y017126D01*
X060339Y018126D02*
X059739Y018126D01*
X059739Y019126D02*
X060339Y019126D01*
X060339Y020126D02*
X059739Y020126D01*
X059739Y021126D02*
X060339Y021126D01*
X060339Y022126D02*
X059739Y022126D01*
X049839Y022126D02*
X049239Y022126D01*
X049239Y021126D02*
X049839Y021126D01*
X049839Y020126D02*
X049239Y020126D01*
X049239Y019126D02*
X049839Y019126D01*
X049839Y018126D02*
X049239Y018126D01*
X049239Y017126D02*
X049839Y017126D01*
X038839Y017126D02*
X038239Y017126D01*
X038239Y018126D02*
X038839Y018126D01*
X038839Y019126D02*
X038239Y019126D01*
X038239Y020126D02*
X038839Y020126D01*
X038839Y021126D02*
X038239Y021126D01*
X038239Y022126D02*
X038839Y022126D01*
X032539Y026326D02*
X032539Y026926D01*
X031539Y026926D02*
X031539Y026326D01*
X030539Y026326D02*
X030539Y026926D01*
X029539Y026926D02*
X029539Y026326D01*
X028539Y026326D02*
X028539Y026926D01*
X027539Y026926D02*
X027539Y026326D01*
X026539Y026326D02*
X026539Y026926D01*
X025539Y026926D02*
X025539Y026326D01*
X028239Y022126D02*
X028839Y022126D01*
X028839Y021126D02*
X028239Y021126D01*
X028239Y020126D02*
X028839Y020126D01*
X028839Y019126D02*
X028239Y019126D01*
X028239Y018126D02*
X028839Y018126D01*
X028839Y017126D02*
X028239Y017126D01*
X019539Y009926D02*
X019539Y009326D01*
X018539Y009326D02*
X018539Y009926D01*
X017539Y009926D02*
X017539Y009326D01*
X017539Y007426D02*
X017539Y006826D01*
X018539Y006826D02*
X018539Y007426D01*
X019539Y007426D02*
X019539Y006826D01*
X030539Y008326D02*
X030539Y008926D01*
X031539Y008926D02*
X031539Y008326D01*
X032539Y008326D02*
X032539Y008926D01*
X033539Y008926D02*
X033539Y008326D01*
X062039Y027326D02*
X062039Y027926D01*
X063039Y027926D02*
X063039Y027326D01*
X064039Y027326D02*
X064039Y027926D01*
X065039Y027926D02*
X065039Y027326D01*
X066039Y027326D02*
X066039Y027926D01*
X067039Y027926D02*
X067039Y027326D01*
X071739Y022126D02*
X072339Y022126D01*
X072339Y021126D02*
X071739Y021126D01*
X071739Y020126D02*
X072339Y020126D01*
X072339Y019126D02*
X071739Y019126D01*
X071739Y018126D02*
X072339Y018126D01*
X072339Y017126D02*
X071739Y017126D01*
X034539Y033326D02*
X034539Y033926D01*
X033539Y033926D02*
X033539Y033326D01*
X032539Y033326D02*
X032539Y033926D01*
X031539Y033926D02*
X031539Y033326D01*
X030539Y033326D02*
X030539Y033926D01*
X014039Y036826D02*
X014039Y037426D01*
X013039Y037426D02*
X013039Y036826D01*
X012039Y036826D02*
X012039Y037426D01*
D13*
X079539Y027786D03*
X080539Y027246D03*
X079539Y026706D03*
X080539Y026166D03*
X079539Y025626D03*
X080539Y025086D03*
X079539Y024546D03*
X080539Y024006D03*
X079539Y023466D03*
D14*
X080039Y020696D03*
X080039Y030556D03*
D15*
X084106Y007712D03*
X084106Y002539D03*
X030126Y037693D03*
X024953Y037693D03*
D16*
X026161Y036626D03*
X027145Y036626D03*
X027933Y036626D03*
X028917Y036626D03*
X083039Y006504D03*
X083039Y005519D03*
X083039Y004732D03*
X083039Y003748D03*
D17*
X077072Y010776D02*
X076007Y010776D01*
X076007Y012626D02*
X077072Y012626D01*
X077072Y014476D02*
X076007Y014476D01*
X046889Y036593D02*
X046889Y037658D01*
X045039Y037658D02*
X045039Y036593D01*
X043189Y036593D02*
X043189Y037658D01*
D18*
X042539Y033626D03*
X041539Y033626D03*
X044539Y033626D03*
X048539Y033626D03*
X024039Y024126D03*
X024039Y020126D03*
X015539Y020126D03*
X014039Y020126D03*
X014039Y018126D03*
X011539Y017126D03*
X012289Y016626D03*
X011539Y016126D03*
X015539Y016126D03*
X015539Y014626D03*
X014039Y014126D03*
X014039Y012126D03*
X015539Y010626D03*
X015539Y009126D03*
X014039Y008126D03*
X014039Y006626D03*
X015539Y005126D03*
X012289Y004626D03*
X011539Y005126D03*
X011539Y004126D03*
X014039Y002626D03*
X018539Y004126D03*
X019539Y004126D03*
X021539Y002126D03*
X025539Y002126D03*
X011539Y009626D03*
X012289Y010126D03*
X011539Y010626D03*
X011539Y021626D03*
X012289Y022126D03*
X011539Y022626D03*
X014039Y024126D03*
X014039Y025626D03*
X015539Y025626D03*
X015539Y027126D03*
X012289Y027626D03*
X011539Y028126D03*
X011539Y027126D03*
X014039Y029626D03*
X014039Y031126D03*
X015539Y031126D03*
X015539Y033126D03*
X012289Y033126D03*
X011539Y032626D03*
X011539Y033626D03*
X014039Y035126D03*
X015539Y037126D03*
X015539Y021626D03*
X056539Y002126D03*
X060539Y002126D03*
X073539Y010126D03*
X070539Y012126D03*
X070539Y013126D03*
X073539Y014126D03*
X076039Y020126D03*
X076039Y024126D03*
D19*
X077055Y036213D02*
X077055Y037038D01*
X079023Y037038D02*
X079023Y036213D01*
X053023Y036713D02*
X053023Y037538D01*
X051055Y037538D02*
X051055Y036713D01*
X022023Y036713D02*
X022023Y037538D01*
X020055Y037538D02*
X020055Y036713D01*
X006452Y035110D02*
X005627Y035110D01*
X005627Y033141D02*
X006452Y033141D01*
X006452Y029110D02*
X005627Y029110D01*
X005627Y027141D02*
X006452Y027141D01*
X006452Y023610D02*
X005627Y023610D01*
X005627Y021641D02*
X006452Y021641D01*
X006452Y018110D02*
X005627Y018110D01*
X005627Y016141D02*
X006452Y016141D01*
X006452Y012610D02*
X005627Y012610D01*
X005627Y010641D02*
X006452Y010641D01*
X006452Y006610D02*
X005627Y006610D01*
X005627Y004641D02*
X006452Y004641D01*
X045555Y003038D02*
X045555Y002213D01*
X047523Y002213D02*
X047523Y003038D01*
X050555Y003038D02*
X050555Y002213D01*
X052523Y002213D02*
X052523Y003038D01*
X078055Y003038D02*
X078055Y002213D01*
X080023Y002213D02*
X080023Y003038D01*
D20*
X082039Y009196D02*
X083039Y009196D01*
X083039Y018056D02*
X082039Y018056D01*
X045469Y011126D02*
X045469Y010126D01*
X036609Y010126D02*
X036609Y011126D01*
X040469Y036626D02*
X040469Y037626D01*
X031609Y037626D02*
X031609Y036626D01*
D21*
X031609Y037126D02*
X031609Y037196D01*
X033539Y039126D01*
X046039Y039126D01*
X047039Y038126D01*
X047039Y037126D01*
X046889Y037126D01*
X044539Y033626D02*
X043039Y035126D01*
X042539Y035126D01*
X040539Y037126D01*
X040469Y037126D01*
X041539Y033626D02*
X041539Y032626D01*
X042039Y032126D01*
X048039Y032126D01*
X048539Y032626D01*
X048539Y033626D01*
X036039Y032126D02*
X032039Y032126D01*
X031539Y032626D01*
X031539Y033626D01*
X031539Y034626D01*
X030126Y036039D01*
X030126Y037693D01*
X029972Y037693D01*
X029039Y038626D01*
X025886Y038626D01*
X024953Y037693D01*
X025094Y037693D01*
X026161Y036626D01*
X024953Y037693D02*
X024019Y038626D01*
X021039Y038626D01*
X020055Y037641D01*
X020055Y037126D01*
X020039Y037141D01*
X020039Y037626D01*
X019039Y038626D01*
X012539Y038626D01*
X012039Y038126D01*
X012039Y037126D01*
X004539Y037126D01*
X004039Y036626D01*
X004039Y033126D01*
X004539Y032626D01*
X005039Y033126D01*
X006023Y033126D01*
X006039Y033141D01*
X009523Y033141D01*
X010039Y032626D01*
X011539Y032626D01*
X013539Y031626D02*
X014039Y031126D01*
X013539Y031626D02*
X013539Y034126D01*
X012539Y035126D01*
X012039Y035126D01*
X011539Y034626D01*
X011539Y033626D01*
X010055Y035110D01*
X006039Y035110D01*
X004539Y032626D02*
X004039Y032126D01*
X004039Y028126D01*
X005023Y027141D01*
X005039Y027141D01*
X004039Y026141D01*
X004039Y021126D01*
X004539Y021126D01*
X005055Y021641D01*
X006039Y021641D01*
X011523Y021641D01*
X011539Y021626D01*
X012289Y022126D02*
X014039Y022126D01*
X015539Y023626D01*
X015539Y025626D01*
X014039Y025626D02*
X014039Y024126D01*
X011539Y022626D02*
X010555Y023610D01*
X006039Y023610D01*
X004039Y021126D02*
X004039Y016626D01*
X004523Y016141D01*
X006039Y016141D01*
X005055Y016141D01*
X004039Y015126D01*
X004039Y011126D01*
X004539Y010626D01*
X006023Y010626D01*
X006039Y010641D01*
X007055Y009626D01*
X011539Y009626D01*
X011539Y010626D02*
X011539Y011626D01*
X010555Y012610D01*
X006039Y012610D01*
X006039Y010641D02*
X004555Y010641D01*
X004039Y010126D01*
X004039Y005126D01*
X004539Y004626D01*
X006023Y004626D01*
X006039Y004641D01*
X006055Y004626D01*
X007539Y004626D01*
X008039Y004126D01*
X011539Y004126D01*
X011539Y003626D01*
X012039Y003126D01*
X013039Y003126D01*
X013539Y003626D01*
X018039Y003626D01*
X018539Y004126D01*
X018539Y005126D01*
X019539Y006126D01*
X019539Y007126D01*
X020539Y008126D02*
X016039Y008126D01*
X015039Y007126D01*
X014539Y007126D01*
X014039Y006626D01*
X013039Y006626D01*
X012539Y007126D01*
X012539Y008626D01*
X014039Y010126D01*
X014039Y012126D01*
X014039Y014126D01*
X016539Y015126D02*
X017039Y015626D01*
X018039Y015626D01*
X016539Y015126D02*
X016539Y012126D01*
X017539Y011126D01*
X017539Y009626D01*
X019539Y009626D02*
X023039Y009626D01*
X024039Y010626D01*
X024039Y017126D01*
X025039Y018126D01*
X028539Y018126D01*
X038539Y018126D01*
X049539Y018126D01*
X060039Y018126D01*
X070539Y018126D01*
X070539Y013126D01*
X073539Y010126D02*
X060039Y010126D01*
X054039Y016126D01*
X052539Y016126D01*
X052539Y007126D01*
X052039Y006626D01*
X047039Y006626D01*
X046539Y007126D01*
X046539Y009626D01*
X045539Y010626D01*
X045469Y010626D01*
X040539Y008126D02*
X040039Y008626D01*
X033539Y008626D01*
X033539Y010126D01*
X033039Y010626D01*
X026039Y010626D01*
X025039Y009626D01*
X023039Y009626D01*
X025039Y008626D02*
X025039Y008126D01*
X025539Y007626D01*
X028039Y007626D01*
X029039Y008626D01*
X030539Y008626D01*
X036539Y010626D02*
X032539Y014626D01*
X028039Y014626D01*
X025039Y011626D01*
X022539Y013626D02*
X022039Y013626D01*
X020539Y012126D01*
X018539Y012126D01*
X018039Y012626D01*
X018039Y013626D01*
X015539Y016126D02*
X013039Y016126D01*
X012539Y016626D01*
X012289Y016626D01*
X011539Y017126D02*
X012539Y018126D01*
X014039Y018126D01*
X012539Y020126D02*
X012039Y019626D01*
X012539Y020126D02*
X014039Y020126D01*
X011539Y017126D02*
X010555Y018110D01*
X006039Y018110D01*
X006039Y016141D02*
X009523Y016141D01*
X010039Y015626D01*
X011039Y015626D01*
X011539Y016126D01*
X019039Y018626D02*
X020039Y018626D01*
X021539Y020126D01*
X021539Y032126D01*
X017539Y030626D02*
X016539Y029626D01*
X016539Y029126D01*
X017039Y028626D01*
X018039Y028626D01*
X015539Y027126D02*
X015039Y027626D01*
X012289Y027626D01*
X011539Y028126D02*
X011539Y028626D01*
X012539Y029626D01*
X014039Y029626D01*
X011539Y028126D02*
X010555Y029110D01*
X006039Y029110D01*
X006039Y027141D02*
X005039Y027141D01*
X006039Y027141D02*
X009523Y027141D01*
X010039Y026626D01*
X011039Y026626D01*
X011539Y027126D01*
X016539Y031626D02*
X016539Y033626D01*
X017539Y034626D01*
X014539Y034626D01*
X014039Y035126D01*
X013039Y036126D01*
X013039Y037126D01*
X017539Y034626D02*
X021039Y034626D01*
X022023Y035610D01*
X022023Y037126D01*
X024039Y024126D02*
X024039Y023126D01*
X025039Y022126D01*
X028539Y022126D01*
X038539Y022126D01*
X049539Y022126D01*
X060039Y022126D01*
X072039Y022126D01*
X074039Y022126D01*
X076039Y024126D01*
X075039Y021126D02*
X072039Y021126D01*
X060039Y021126D01*
X049539Y021126D01*
X038539Y021126D01*
X028539Y021126D01*
X025039Y021126D01*
X024039Y020126D01*
X038539Y017126D02*
X042039Y013626D01*
X042039Y005126D01*
X041539Y004626D01*
X040539Y004626D01*
X044055Y001126D02*
X045555Y002626D01*
X045555Y005141D01*
X047039Y006626D01*
X036609Y010626D02*
X036539Y010626D01*
X025539Y004626D02*
X025539Y002126D01*
X024039Y001126D02*
X044055Y001126D01*
X024039Y001126D02*
X022539Y002626D01*
X022539Y007626D01*
X021039Y007626D01*
X020539Y008126D01*
X015539Y005126D02*
X015039Y004626D01*
X012289Y004626D01*
X011539Y005126D02*
X010055Y006610D01*
X006039Y006610D01*
X019539Y004126D02*
X019539Y003126D01*
X020539Y002126D01*
X021539Y002126D01*
X060039Y018126D02*
X061039Y018126D01*
X070539Y018126D02*
X072039Y018126D01*
X077539Y018126D01*
X080039Y020626D01*
X084039Y020626D01*
X085039Y021626D01*
X085039Y028626D01*
X083039Y030626D01*
X080039Y030626D01*
X079539Y030626D02*
X077055Y033110D01*
X077055Y036626D01*
X075039Y021126D02*
X076039Y020126D01*
X082539Y018056D02*
X082539Y012626D01*
X080689Y010776D01*
X076539Y010776D01*
X073539Y010126D02*
X076539Y007126D01*
X080469Y007126D01*
X082539Y009196D01*
X084106Y007712D02*
X084519Y008126D01*
X085039Y008126D01*
X085539Y007626D01*
X085539Y002626D01*
X085453Y002539D01*
X084106Y002539D01*
X084193Y002626D01*
X084539Y002626D01*
X084193Y002626D02*
X080023Y002626D01*
X078055Y002626D02*
X077539Y003141D01*
X077539Y006126D01*
X076539Y007126D01*
X083039Y006504D02*
X083417Y006504D01*
X084539Y007626D01*
X084539Y014126D01*
X085039Y014626D01*
X085039Y020126D01*
X084539Y020626D01*
X084039Y020626D01*
X084106Y007712D02*
X084106Y007570D01*
X083039Y006504D01*
D22*
X052539Y016126D03*
X040539Y008126D03*
X025039Y008626D03*
X025039Y011626D03*
X022539Y013626D03*
X012039Y019626D03*
X030039Y027626D03*
X036039Y032126D03*
X028539Y032626D03*
X021539Y032126D03*
X017539Y030626D03*
X016539Y031626D03*
D23*
X031539Y008626D02*
X031539Y007126D01*
X032039Y006626D01*
X039039Y006626D01*
X039539Y006126D01*
X039539Y005626D01*
X040539Y005626D02*
X040539Y006126D01*
X039539Y007126D01*
X033039Y007126D01*
X032539Y007626D01*
X032539Y008626D01*
X077539Y026126D02*
X078039Y025626D01*
X079539Y025626D01*
X077539Y026126D02*
X077539Y029126D01*
X079039Y030626D01*
X079539Y030626D01*
X080039Y030626D01*
D24*
X030539Y033126D02*
X029039Y031626D01*
X029039Y030626D01*
X027539Y030126D02*
X027539Y031626D01*
X028539Y032626D01*
X030539Y033126D02*
X030539Y033626D01*
X027539Y030126D02*
X027039Y029626D01*
X019039Y026626D02*
X018539Y027126D01*
X018539Y030626D01*
X018039Y031126D01*
X015539Y031126D01*
X017539Y026126D02*
X017039Y025626D01*
X016539Y025626D01*
X016039Y025126D01*
X016039Y022126D01*
X015539Y021626D01*
X016539Y021126D02*
X015539Y020126D01*
X016539Y021126D02*
X016539Y024626D01*
X017039Y025126D01*
X018539Y025126D01*
X019039Y024626D01*
X018539Y024126D02*
X017539Y024126D01*
X017039Y023626D01*
X017039Y016626D01*
X015539Y015126D01*
X015539Y014626D01*
X019039Y023626D02*
X018539Y024126D01*
X019039Y025626D02*
X018539Y026126D01*
X017539Y026126D01*
D25*
X005039Y001626D03*
X025539Y033626D03*
X084039Y036626D03*
X074039Y001626D03*
D26*
X031539Y026626D02*
X031539Y028126D01*
X031039Y028626D01*
X031039Y029626D01*
X030039Y029626D02*
X030039Y028626D01*
X030539Y028126D01*
X030539Y026626D01*
X028539Y026626D02*
X028539Y028126D01*
X028039Y028626D01*
X028039Y029626D01*
D27*
X029039Y029626D02*
X029039Y028626D01*
X030039Y027626D01*
M02*
