%
M48
M72
T01C0.0200
T02C0.0320
T03C0.0354
T04C0.0394
T05C0.0400
T06C0.0520
T07C0.0550
T08C0.0710
T09C0.0906
T10C0.1181
T11C0.1300
%
T01
X25039Y8626
X25039Y11626
X22539Y13626
X12039Y19626
X30039Y27626
X36039Y32126
X28539Y32626
X21539Y32126
X17539Y30626
X16539Y31626
X52539Y16126
X40539Y8126
T02
X25539Y2126
X21539Y2126
X19539Y4126
X18539Y4126
X15539Y5126
X12289Y4626
X11539Y5126
X11539Y4126
X14039Y2626
X14039Y6626
X14039Y8126
X15539Y9126
X15539Y10626
X12289Y10126
X11539Y10626
X11539Y9626
X14039Y12126
X14039Y14126
X15539Y14626
X15539Y16126
X12289Y16626
X11539Y17126
X11539Y16126
X14039Y18126
X14039Y20126
X15539Y20126
X15539Y21626
X12289Y22126
X11539Y22626
X11539Y21626
X14039Y24126
X14039Y25626
X15539Y25626
X15539Y27126
X12289Y27626
X11539Y28126
X11539Y27126
X14039Y29626
X14039Y31126
X15539Y31126
X15539Y33126
X12289Y33126
X11539Y32626
X11539Y33626
X14039Y35126
X15539Y37126
X41539Y33626
X42539Y33626
X44539Y33626
X48539Y33626
X24039Y24126
X24039Y20126
X56539Y2126
X60539Y2126
X73539Y10126
X70539Y12126
X70539Y13126
X73539Y14126
X76039Y20126
X76039Y24126
T03
X83039Y6504
X83039Y5519
X83039Y4732
X83039Y3748
X28917Y36626
X27933Y36626
X27145Y36626
X26161Y36626
T04
X26039Y30626
X27039Y30626
X28039Y30626
X29039Y30626
X30039Y30626
X31039Y30626
X32039Y30626
X33039Y30626
X34039Y30626
X35039Y30626
X36039Y30626
X37039Y30626
X38039Y30626
X39039Y30626
X40039Y30626
X41039Y30626
X42039Y30626
X42039Y29626
X41039Y29626
X40039Y29626
X39039Y29626
X38039Y29626
X37039Y29626
X36039Y29626
X35039Y29626
X34039Y29626
X33039Y29626
X32039Y29626
X31039Y29626
X30039Y29626
X29039Y29626
X28039Y29626
X27039Y29626
X26039Y29626
X19039Y29626
X18039Y29626
X18039Y28626
X19039Y28626
X19039Y27626
X18039Y27626
X18039Y26626
X19039Y26626
X19039Y25626
X18039Y25626
X18039Y24626
X19039Y24626
X19039Y23626
X18039Y23626
X18039Y22626
X19039Y22626
X19039Y21626
X18039Y21626
X18039Y20626
X19039Y20626
X19039Y19626
X18039Y19626
X18039Y18626
X19039Y18626
X19039Y17626
X18039Y17626
X18039Y16626
X19039Y16626
X19039Y15626
X18039Y15626
X18039Y14626
X19039Y14626
X19039Y13626
X18039Y13626
X24539Y5626
X25539Y5626
X26539Y5626
X27539Y5626
X28539Y5626
X29539Y5626
X30539Y5626
X31539Y5626
X32539Y5626
X33539Y5626
X34539Y5626
X35539Y5626
X36539Y5626
X37539Y5626
X38539Y5626
X39539Y5626
X40539Y5626
X40539Y4626
X39539Y4626
X38539Y4626
X37539Y4626
X36539Y4626
X35539Y4626
X34539Y4626
X33539Y4626
X32539Y4626
X31539Y4626
X30539Y4626
X29539Y4626
X28539Y4626
X27539Y4626
X26539Y4626
X25539Y4626
X24539Y4626
X56539Y4626
X57539Y4626
X58539Y4626
X59539Y4626
X60539Y4626
X61539Y4626
X62539Y4626
X63539Y4626
X64539Y4626
X65539Y4626
X66539Y4626
X67539Y4626
X68539Y4626
X69539Y4626
X70539Y4626
X71539Y4626
X72539Y4626
X72539Y5626
X71539Y5626
X70539Y5626
X69539Y5626
X68539Y5626
X67539Y5626
X66539Y5626
X65539Y5626
X64539Y5626
X63539Y5626
X62539Y5626
X61539Y5626
X60539Y5626
X59539Y5626
X58539Y5626
X57539Y5626
X56539Y5626
X57039Y31626
X58039Y31626
X59039Y31626
X60039Y31626
X61039Y31626
X61039Y32626
X60039Y32626
X59039Y32626
X58039Y32626
X57039Y32626
X62039Y32626
X63039Y32626
X64039Y32626
X65039Y32626
X66039Y32626
X67039Y32626
X68039Y32626
X69039Y32626
X70039Y32626
X71039Y32626
X72039Y32626
X73039Y32626
X73039Y31626
X72039Y31626
X71039Y31626
X70039Y31626
X69039Y31626
X68039Y31626
X67039Y31626
X66039Y31626
X65039Y31626
X64039Y31626
X63039Y31626
X62039Y31626
T05
X62039Y27626
X63039Y27626
X64039Y27626
X65039Y27626
X66039Y27626
X67039Y27626
X72039Y22126
X72039Y21126
X72039Y20126
X72039Y19126
X72039Y18126
X72039Y17126
X60039Y17126
X60039Y18126
X60039Y19126
X60039Y20126
X60039Y21126
X60039Y22126
X49539Y22126
X49539Y21126
X49539Y20126
X49539Y19126
X49539Y18126
X49539Y17126
X38539Y17126
X38539Y18126
X38539Y19126
X38539Y20126
X38539Y21126
X38539Y22126
X32539Y26626
X31539Y26626
X30539Y26626
X29539Y26626
X28539Y26626
X27539Y26626
X26539Y26626
X25539Y26626
X28539Y22126
X28539Y21126
X28539Y20126
X28539Y19126
X28539Y18126
X28539Y17126
X19539Y9626
X18539Y9626
X17539Y9626
X17539Y7126
X18539Y7126
X19539Y7126
X30539Y8626
X31539Y8626
X32539Y8626
X33539Y8626
X79539Y23466
X80539Y24006
X79539Y24546
X80539Y25086
X79539Y25626
X80539Y26166
X79539Y26706
X80539Y27246
X79539Y27786
X34539Y33626
X33539Y33626
X32539Y33626
X31539Y33626
X30539Y33626
X14039Y37126
X13039Y37126
X12039Y37126
T06
X31609Y37126
X40469Y37126
X82539Y18056
X82539Y9196
X45469Y10626
X36609Y10626
T07
X45555Y2626
X47523Y2626
X50555Y2626
X52523Y2626
X78055Y2626
X80023Y2626
X79023Y36626
X77055Y36626
X53023Y37126
X51055Y37126
X22023Y37126
X20055Y37126
X6039Y35110
X6039Y33141
X6039Y29110
X6039Y27141
X6039Y23610
X6039Y21641
X6039Y18110
X6039Y16141
X6039Y12610
X6039Y10641
X6039Y6610
X6039Y4641
T08
X43189Y37126
X45039Y37126
X46889Y37126
X76539Y14476
X76539Y12626
X76539Y10776
T09
X84106Y7712
X84106Y2539
X30126Y37693
X24953Y37693
T10
X5039Y1626
X25539Y33626
X84039Y36626
X74039Y1626
T11
X80039Y20696
X80039Y30556
M30
