%
M48
M72
T01C0.0157
T02C0.0236
T03C0.0315
T04C0.0320
T05C0.0360
T06C0.0394
T07C0.0400
T08C0.0470
T09C0.0660
T10C0.0984
T11C0.1260
T12C0.1620
%
T01
X28630Y10151
X38392Y9824
X47054Y4564
X46630Y3208
X47181Y2658
X48063Y2141
X55785Y11237
X62976Y12978
T02
X15072Y3824
X18708Y4486
X19876Y4396
X25762Y4034
X25745Y5483
X26765Y2660
X31880Y3671
X34118Y9282
X34683Y9027
X29254Y9544
X20649Y8325
X21240Y15232
X24953Y18282
X28650Y18289
X31391Y17779
X32215Y17288
X32806Y16686
X33297Y16135
X34132Y15142
X35907Y15457
X37062Y15315
X37633Y14764
X38165Y14078
X38078Y13210
X36272Y17682
X35233Y18704
X35224Y18718
X28933Y20677
X28897Y20664
X26713Y24299
X25646Y24193
X23577Y24197
X19028Y26421
X18738Y28404
X22772Y28963
X23958Y28817
X22883Y30595
X22625Y32263
X23067Y34242
X23038Y35686
X21101Y35686
X19096Y34367
X19001Y31484
X19706Y37504
X21931Y37504
X24293Y39181
X26614Y37288
X17117Y40569
X6577Y28893
X18794Y22798
X14300Y15020
X34266Y26306
X35144Y27185
X36200Y26671
X37213Y26288
X44815Y26591
X45728Y26805
X46851Y26968
X47954Y27030
X50912Y28139
X50754Y29272
X51746Y29823
X52686Y30429
X55479Y30531
X56038Y29942
X55853Y22099
X55435Y21255
X55477Y20450
X54543Y18946
X53369Y18290
X52802Y20391
X52303Y21204
X48747Y18684
X47529Y18681
X47568Y19737
X47369Y20457
X47521Y21391
X54501Y10674
X54564Y8961
X54419Y5316
X57847Y3424
X58855Y5378
X63637Y3924
X64903Y4519
X45357Y32974
X44300Y32934
X46480Y33449
X47892Y33848
X50797Y33784
X48770Y35947
X49305Y37270
X48831Y38579
X48813Y40235
X55461Y39778
X41945Y39130
T03
X5621Y23915
X4439Y25804
T04
X18721Y6532
X19894Y6494
X19894Y10494
X18721Y10532
X30034Y13529
X30034Y14529
X36244Y17703
X37244Y17703
X37622Y12342
X37622Y11342
X31206Y7900
X30206Y7900
X24279Y2104
X23279Y2104
X20486Y2015
X19486Y2015
X4504Y19234
X4504Y20214
X4504Y21194
X2144Y21194
X2144Y20214
X2144Y19234
X2568Y29008
X2612Y31008
X2568Y33008
X6568Y33008
X6612Y31008
X6568Y29008
X6611Y38183
X7611Y38183
T05
X26897Y6800
X27897Y6800
X27897Y5800
X27897Y4800
X28897Y4800
X29897Y4800
X29897Y5800
X28897Y5800
X30897Y5800
X31897Y5800
X32897Y5800
X32897Y4800
X31897Y4800
X30897Y4800
X33897Y4800
X34897Y4800
X34897Y5800
X33897Y5800
X35897Y5800
X36897Y5800
X36897Y4800
X35897Y4800
X37897Y4800
X38897Y4800
X39897Y4800
X39897Y5800
X38897Y5800
X37897Y5800
X39897Y6800
X40897Y6800
X40897Y7800
X39897Y7800
X39897Y8800
X39897Y9800
X40897Y9800
X40897Y8800
X40897Y10800
X39897Y10800
X39897Y11800
X39897Y12800
X40897Y12800
X40897Y11800
X40897Y13800
X39897Y13800
X39897Y14800
X39897Y15800
X40897Y15800
X40897Y14800
X40897Y16800
X39897Y16800
X39897Y17800
X40897Y17800
X40897Y18800
X39897Y18800
X39897Y19800
X38897Y19800
X37897Y19800
X36897Y19800
X35897Y19800
X34897Y19800
X33897Y19800
X32897Y19800
X31897Y19800
X30897Y19800
X29897Y19800
X28897Y19800
X27897Y19800
X27897Y18800
X26897Y18800
X26897Y17800
X27897Y17800
X27897Y16800
X26897Y16800
X26897Y15800
X27897Y15800
X27897Y14800
X26897Y14800
X26897Y13800
X27897Y13800
X27897Y12800
X26897Y12800
X26897Y11800
X27897Y11800
X27897Y10800
X26897Y10800
X26897Y9800
X27897Y9800
X27897Y8800
X26897Y8800
X26897Y7800
X27897Y7800
X27897Y20800
X28897Y20800
X29897Y20800
X30897Y20800
X31897Y20800
X32897Y20800
X33897Y20800
X34897Y20800
X35897Y20800
X36897Y20800
X37897Y20800
X38897Y20800
X39897Y20800
T06
X22108Y5502
X23108Y5502
X23108Y6502
X22108Y6502
X22108Y7502
X23108Y7502
X23108Y8502
X22108Y8502
X22108Y9502
X23108Y9502
X45147Y9096
X46147Y9096
X46147Y8096
X45147Y8096
X45147Y7096
X46147Y7096
X46147Y6096
X45147Y6096
X45147Y5096
X46147Y5096
X50477Y4983
X51477Y4983
X51477Y5983
X51477Y6983
X51477Y7983
X50477Y7983
X50477Y6983
X50477Y5983
X50477Y8983
X51477Y8983
X55869Y9379
X56869Y9379
X56869Y8379
X56869Y7379
X55869Y7379
X55869Y8379
X55869Y6379
X56869Y6379
X56869Y5379
X55869Y5379
X61576Y5378
X61576Y6378
X62576Y6378
X62576Y5378
X62576Y7378
X61576Y7378
X61576Y8378
X61576Y9378
X62576Y9378
X62576Y8378
X66330Y8476
X66330Y7476
X66330Y6476
X67330Y6476
X67330Y7476
X67330Y8476
X67330Y9476
X66330Y9476
X66330Y5476
X67330Y5476
X51537Y14916
X50537Y14916
X50537Y15916
X51537Y15916
X51537Y16916
X50537Y16916
X50537Y17916
X51537Y17916
X51537Y18916
X50537Y18916
X46037Y18916
X45037Y18916
X45037Y17916
X46037Y17916
X46037Y16916
X45037Y16916
X45037Y15916
X46037Y15916
X46037Y14916
X45037Y14916
X55845Y15230
X55845Y16230
X56845Y16230
X56845Y15230
X56845Y17230
X56845Y18230
X55845Y18230
X55845Y17230
X55845Y19230
X56845Y19230
X61477Y19296
X62477Y19296
X62477Y18296
X62477Y17296
X62477Y16296
X61477Y16296
X61477Y17296
X61477Y18296
X61477Y15296
X62477Y15296
X66550Y15290
X67550Y15290
X67550Y16290
X67550Y17290
X67550Y18290
X66550Y18290
X66550Y17290
X66550Y16290
X66550Y19290
X67550Y19290
X62403Y25157
X61403Y25157
X61403Y26157
X62403Y26157
X62403Y27157
X61403Y27157
X61403Y28157
X62403Y28157
X62403Y29157
X61403Y29157
X56830Y29116
X55830Y29116
X55830Y28116
X56830Y28116
X56830Y27116
X55830Y27116
X55830Y26116
X56830Y26116
X56830Y25116
X55830Y25116
X61316Y34563
X62316Y34563
X62316Y35563
X61316Y35563
X61316Y36563
X62316Y36563
X62316Y37563
X61316Y37563
X61316Y38563
X62316Y38563
X66509Y38287
X66509Y37287
X67509Y37287
X67509Y38287
X67509Y36287
X66509Y36287
X66509Y35287
X66509Y34287
X67509Y34287
X67509Y35287
X67523Y29256
X67523Y28256
X66523Y28256
X66523Y29256
X66523Y27256
X66523Y26256
X66523Y25256
X67523Y25256
X67523Y26256
X67523Y27256
X56611Y34683
X55611Y34683
X55611Y35683
X56611Y35683
X56611Y36683
X55611Y36683
X55611Y37683
X56611Y37683
X56611Y38683
X55611Y38683
X39243Y38984
X38243Y38984
X37243Y38984
X36243Y38984
X35243Y38984
X34243Y38984
X33243Y38984
X32243Y38984
X31243Y38984
X30243Y38984
X29243Y38984
X28243Y38984
X27243Y38984
X26243Y38984
X25243Y38984
X24243Y38984
X6802Y25804
T07
X11111Y39183
X12111Y39183
X13111Y39183
X16111Y39183
X17111Y39183
X18111Y39183
X18111Y36183
X17111Y36183
X16111Y36183
X13111Y36183
X12111Y36183
X11111Y36183
X16020Y33376
X17020Y33376
X18020Y33376
X17996Y30351
X16996Y30351
X15996Y30351
X11418Y28593
X9418Y28593
X16017Y27364
X17017Y27364
X18017Y27364
X18073Y24246
X17073Y24246
X16073Y24246
X10698Y22277
X8698Y22277
X16099Y20864
X17099Y20864
X18099Y20864
X21427Y20349
X22427Y20349
X23427Y20349
X23434Y17013
X22434Y17013
X21434Y17013
X21506Y13954
X22506Y13954
X23506Y13954
X25683Y24285
X26683Y24285
X27683Y24285
X28683Y24285
X29683Y24285
X30683Y24285
X31683Y24285
X32683Y24285
X33683Y24285
X34683Y24285
X37222Y24287
X38222Y24287
X39222Y24287
X40222Y24287
X41222Y24287
X42222Y24287
X43222Y24287
X44222Y24287
X45222Y24287
X46222Y24287
T08
X6461Y8983
X10761Y8983
T09
X3250Y35685
X3250Y37245
T10
X22078Y26779
X22078Y38984
X51605Y38984
X51605Y26779
T11
X2097Y2295
X2249Y40864
X68387Y41323
X67928Y1989
T12
X8611Y3733
X8611Y15633
M30
