G04 CAM350 V10.0.1 (Build 314) Date:  Fri Nov 30 16:16:42 2012 *
G04 Database: (Untitled) *
G04 Layer 5: silk *
%FSLAX23Y23*%
%MOIN*%
%SFA1.000B1.000*%

%MIA0B0*%
%IPPOS*%
%ADD10C,0.00000*%
%ADD18C,0.00800*%
%ADD35C,0.00400*%
%ADD36C,0.01000*%
%ADD37C,0.00600*%
%ADD38C,0.00200*%
%ADD39C,0.00500*%
%ADD40C,0.00700*%
%ADD41R,0.00790X0.00790*%
%LNsilk*%
%LPD*%
G54D41*
X537Y1418D03*
G54D10*
X12Y27D02*
G01X11Y1879D01*
X1685*
X1686Y27*
X12*
G54D35*
X495Y1197D02*
G01Y1227D01*
Y1243D02*
G01Y1273D01*
Y1289D02*
G01Y1312D01*
X487Y1319*
X457*
X449Y1312*
Y1289*
X495*
X472Y1258D02*
G01Y1243D01*
X449D02*
G01X495D01*
Y1197D02*
G01X449D01*
Y1243D02*
G01Y1273D01*
X464Y1335D02*
G01X449Y1350D01*
X495*
Y1335D02*
G01Y1365D01*
X751Y1462D02*
G01X744Y1469D01*
Y1508*
X774D02*
G01Y1469D01*
X767Y1462*
X751*
X790D02*
G01X820D01*
X805D02*
G01Y1508D01*
X790Y1492*
X1292Y325D02*
G01X1322Y279D01*
X1338D02*
G01X1368D01*
X1353D02*
G01Y325D01*
X1338Y310*
X1322Y325D02*
G01X1292Y279D01*
G54D36*
X1136Y823D02*
G01X605D01*
X595Y833*
Y1345*
X624Y1374*
X1136*
X1146Y1364*
Y833*
X1136Y823*
X545Y1365D02*
G01Y1367D01*
Y1369*
X546Y1371*
X548Y1372*
X549Y1373*
X551Y1374*
X553Y1375*
X555*
X556*
X558Y1374*
X560Y1373*
X561Y1372*
X563Y1371*
X564Y1369*
Y1367*
Y1365*
Y1363*
Y1361*
X563Y1360*
X561Y1358*
X560Y1357*
X558Y1356*
X556*
X555Y1355*
X553Y1356*
X551*
X549Y1357*
X548Y1358*
X546Y1360*
X545Y1361*
Y1363*
Y1365*
G54D37*
X377Y1651D02*
G01X367D01*
Y976*
X377*
Y926*
X367*
Y251*
X377*
Y201*
X367*
Y151*
X17*
Y336*
X37Y351*
Y371*
Y431*
Y451*
X17Y466*
Y871*
X57*
X67*
Y431*
Y371*
X57*
X37*
X46Y366D02*
G01Y16D01*
X216*
Y21*
X276*
Y16*
X331*
X346Y36*
X366*
X426*
X446*
X461Y16*
X766*
Y56*
Y66*
X426*
X366*
X96*
Y316*
X1596*
Y66*
X1426*
X1366*
X926*
Y56*
Y16*
X766*
Y66D02*
G01Y96D01*
X926*
Y66*
Y16D02*
G01X1331D01*
X1346Y36*
X1366*
X1426*
Y56*
Y66*
Y36D02*
G01X1446D01*
X1461Y16*
X1646*
Y366*
X1596*
Y376*
X1546*
Y366*
X871*
Y376*
X821*
Y366*
X146*
Y376*
X96*
Y366*
X46*
X67Y371D02*
G01Y201D01*
X317*
Y1701*
X67*
Y1431*
Y1371*
X57*
X37*
Y1351*
X17Y1336*
Y1031*
X57*
X67*
Y1371*
X37D02*
G01Y1431D01*
Y1451*
X17Y1466*
Y1521*
X22*
Y1581*
X17*
Y1751*
X367*
Y1701*
X377*
Y1651*
X327Y1833D02*
G01X267D01*
Y1843*
Y1863*
X327*
X347*
X362Y1883*
X767*
Y1843*
Y1833*
X327*
Y1843*
Y1863*
X267D02*
G01X247D01*
X232Y1883*
X47*
Y1533*
X97*
Y1523*
X147*
Y1533*
X822*
Y1523*
X872*
Y1533*
X1547*
Y1523*
X1597*
Y1533*
X1647*
Y1883*
X1477*
Y1878*
X1417*
Y1883*
X1362*
X1347Y1863*
X1327*
X1267*
X1247*
X1232Y1883*
X927*
Y1843*
Y1833*
X1267*
X1327*
X1597*
Y1583*
X97*
Y1833*
X267*
X67Y1431D02*
G01X57D01*
X37*
X17Y1031D02*
G01Y871D01*
X67D02*
G01X97D01*
Y1031*
X67*
X417Y637D02*
G01Y627D01*
X407*
X417Y637D02*
G01X477D01*
Y627*
X487*
X567Y592D02*
G01Y552D01*
Y457*
Y422*
X487Y387D02*
G01X477D01*
Y377*
X417*
Y387*
X407*
X327Y422D02*
G01Y457D01*
Y557*
Y592*
X437Y507D02*
G01Y509D01*
X438Y510*
X439Y512*
X440Y514*
X441Y515*
X443Y516*
X445*
X447Y517*
X449Y516*
X451*
X453Y515*
X454Y514*
X455Y512*
X456Y510*
X457Y509*
Y507*
Y505*
X456Y503*
X455Y501*
X454Y499*
X453Y498*
X451Y497*
X449*
X447*
X445*
X443*
X441Y498*
X440Y499*
X439Y501*
X438Y503*
X437Y505*
Y507*
X377D02*
G01Y512D01*
X378Y517*
X379Y522*
X380Y527*
X382Y532*
X384Y537*
X386Y542*
X389Y546*
X392Y550*
X396Y554*
X399Y558*
X403Y561*
X408Y564*
X412Y567*
X417Y570*
X421Y572*
X426Y573*
X431Y575*
X437Y576*
X442*
X447Y577*
X452Y576*
X457*
X463Y575*
X468Y573*
X473Y572*
X477Y570*
X482Y567*
X486Y564*
X491Y561*
X495Y558*
X498Y554*
X502Y550*
X505Y546*
X508Y542*
X510Y537*
X512Y532*
X514Y527*
X515Y522*
X516Y517*
X517Y512*
Y507*
Y501*
X516Y496*
X515Y491*
X514Y486*
X512Y481*
X510Y476*
X508Y472*
X505Y467*
X502Y463*
X498Y459*
X495Y455*
X491Y452*
X486Y449*
X482Y446*
X477Y443*
X473Y441*
X468Y440*
X463Y438*
X457Y437*
X452*
X447*
X442*
X437*
X431Y438*
X426Y440*
X421Y441*
X417Y443*
X412Y446*
X408Y449*
X403Y452*
X399Y455*
X396Y459*
X392Y463*
X389Y467*
X386Y472*
X384Y476*
X382Y481*
X380Y486*
X379Y491*
X378Y496*
X377Y501*
Y507*
X67Y431D02*
G01X57D01*
X37*
X366Y66D02*
G01Y56D01*
Y36*
X426D02*
G01Y56D01*
Y66*
X1317Y201D02*
G01X1327D01*
Y151*
X1677*
Y321*
X1672*
Y381*
X1677*
Y436*
X1657Y451*
Y471*
Y531*
Y551*
X1677Y566*
Y871*
X1637*
X1627*
Y531*
Y471*
Y201*
X1377*
Y1701*
X1627*
Y1531*
Y1471*
Y1031*
X1637*
X1677*
Y871*
X1627D02*
G01X1597D01*
Y1031*
X1627*
X1677D02*
G01Y1436D01*
X1657Y1451*
Y1471*
Y1531*
X1637*
X1627*
X1657D02*
G01Y1551D01*
X1677Y1566*
Y1751*
X1327*
Y1701*
X1317*
Y1651*
X1327*
Y976*
X1317*
Y926*
X1327*
Y251*
X1317*
Y201*
X1366Y66D02*
G01Y56D01*
Y36*
X1627Y471D02*
G01X1637D01*
X1657*
Y531D02*
G01X1637D01*
X1627*
Y1471D02*
G01X1637D01*
X1657*
X1327Y1833D02*
G01Y1843D01*
Y1863*
X1267D02*
G01Y1843D01*
Y1833*
X927D02*
G01Y1803D01*
X767*
Y1833*
Y1883D02*
G01X927D01*
G54D38*
Y1843D02*
G01X1267D01*
X1327D02*
G01X1607D01*
Y1573*
X87*
Y1843*
X267*
X327D02*
G01X767D01*
X327Y1711D02*
G01X57D01*
Y1431*
Y1371D02*
G01Y1031D01*
Y871D02*
G01Y431D01*
Y371D02*
G01Y191D01*
X327*
Y1711*
X1367D02*
G01Y191D01*
X1637*
Y471*
Y531D02*
G01Y871D01*
Y1031D02*
G01Y1471D01*
Y1531D02*
G01Y1711D01*
X1367*
X567Y552D02*
G01X557D01*
Y457*
X567*
X337D02*
G01Y557D01*
X327*
Y457D02*
G01X337D01*
X86Y326D02*
G01Y56D01*
X366*
X426D02*
G01X766D01*
X926D02*
G01X1366D01*
X1426D02*
G01X1606D01*
Y326*
X86*
G54D39*
X156Y263D02*
G01X148Y256D01*
X156Y263D02*
G01X171D01*
X178Y256*
Y248*
X148Y218*
X178*
X163Y163D02*
G01Y118D01*
X148D02*
G01X178D01*
X148Y148D02*
G01X163Y163D01*
X262Y389D02*
G01X254Y397D01*
Y412*
X262Y419*
X277Y412D02*
G01X284Y419D01*
X292*
X299Y412*
Y397*
X292Y389*
X277Y397D02*
G01Y412D01*
Y397D02*
G01X269Y389D01*
X262*
X269Y435D02*
G01X254Y450D01*
X299*
Y435D02*
G01Y465D01*
X79Y902D02*
G01X49Y932D01*
X42*
X34Y924*
Y909*
X42Y902*
X79D02*
G01Y932D01*
X72Y948D02*
G01X79Y955D01*
Y970*
X72Y978*
X64*
X57Y970*
Y948*
X72*
X57D02*
G01X42Y963D01*
X34Y978*
X134Y1608D02*
G01X119Y1623D01*
X164*
Y1608D02*
G01Y1638D01*
X219Y1630D02*
G01Y1615D01*
X227Y1608*
X219Y1630D02*
G01X227Y1638D01*
X234*
X264Y1608*
Y1638*
X798Y1821D02*
G01X828Y1851D01*
Y1858*
X820Y1866*
X805*
X798Y1858*
Y1821D02*
G01X828D01*
X844Y1828D02*
G01X851Y1821D01*
X866*
X874Y1828*
Y1836*
X866Y1843*
X844*
Y1828*
Y1843D02*
G01X859Y1858D01*
X874Y1866*
X1504Y1766D02*
G01X1519Y1781D01*
Y1736*
X1504D02*
G01X1534D01*
X1526Y1681D02*
G01X1511D01*
X1504Y1673*
X1526Y1681D02*
G01X1534Y1673D01*
Y1666*
X1504Y1636*
X1534*
X1615Y989D02*
G01X1622Y974D01*
X1637Y959*
Y982*
X1645Y989*
X1652*
X1660Y982*
Y967*
X1652Y959*
X1637*
X1630Y943D02*
G01X1622D01*
X1615Y936*
Y921*
X1622Y913*
X1630Y943D02*
G01X1660Y913D01*
Y943*
X1575Y283D02*
G01Y253D01*
Y268D02*
G01X1530D01*
X1545Y253*
X1475D02*
G01X1445Y283D01*
X1437*
X1430Y276*
Y261*
X1437Y253*
X1475D02*
G01Y283D01*
X884Y78D02*
G01X869Y71D01*
X854Y56*
X877*
X884Y48*
Y41*
X877Y33*
X862*
X854Y41*
Y56*
X838Y63D02*
G01Y71D01*
X831Y78*
X816*
X808Y71*
X838Y63D02*
G01X808Y33D01*
X838*
G54D40*
X1236Y165D02*
G01X1246Y154D01*
X1257*
X1267Y165*
Y186*
X1278Y196*
X1288*
X1299Y186*
Y165*
X1288Y154*
X1246Y196D02*
G01X1236Y186D01*
Y165*
Y219D02*
G01X1278D01*
X1299Y240*
X1278Y261*
X1236*
X1246Y283D02*
G01X1236Y294D01*
Y315*
X1246Y325*
X1257*
X1267Y315*
X1278Y325*
X1288*
X1299Y315*
Y294*
X1288Y283*
X1267Y304D02*
G01Y315D01*
X1468Y1442D02*
G01X1458Y1452D01*
X1468Y1442D02*
G01X1489D01*
X1500Y1452*
Y1463*
X1489Y1473*
X1468*
X1458Y1484*
Y1494*
X1468Y1505*
X1489*
X1500Y1494*
X1522Y1505D02*
G01Y1463D01*
X1543Y1442*
X1564Y1463*
Y1505*
X1587Y1473D02*
G01X1629D01*
X1618Y1442D02*
G01Y1505D01*
X1587Y1473*
X458Y1572D02*
G01X448Y1561D01*
X458Y1572D02*
G01Y1593D01*
X448Y1603*
X437*
X427Y1593*
Y1572*
X416Y1561*
X406*
X395Y1572*
Y1593*
X406Y1603*
X395Y1626D02*
G01X437D01*
X458Y1647*
X437Y1668*
X395*
X416Y1690D02*
G01X395Y1711D01*
X458*
Y1690D02*
G01Y1732D01*
X210Y457D02*
G01X189D01*
X178Y447*
X156Y457D02*
G01Y415D01*
X135Y394*
X114Y415*
Y457*
X91Y447D02*
G01X81Y457D01*
X60*
X49Y447*
Y436*
X60Y426*
X81*
X91Y415*
Y405*
X81Y394*
X60*
X49Y405*
X178Y394D02*
G01X220Y436D01*
Y447*
X210Y457*
X220Y394D02*
G01X178D01*
G54D18*
X588Y342D02*
G01Y673D01*
X748*
Y661*
X806*
Y673*
X908*
X1056*
X1376*
Y342*
X588*
X632Y378D02*
G01Y636D01*
X908*
Y612D02*
G01X1056D01*
Y673*
Y636D02*
G01X1331D01*
Y378*
X632*
X908Y612D02*
G01Y673D01*
M02*
