%
M48
M72
T01C0.0118
T02C0.0236
T03C0.0354
T04C0.0360
T05C0.0394
T06C0.0400
%
T01
X6940Y938
T02
X6779Y8551
X7192Y9562
X8297Y9193
X8641Y8499
X9210Y8489
X9217Y9266
X8641Y10217
X7352Y11042
X7487Y11637
X10332Y9402
X11012Y12782
X10592Y13404
T03
X3476Y17580
T04
X2474Y17582
X2474Y16582
X3474Y16582
X3474Y17582
X4474Y17582
X4474Y16582
X5474Y16582
X5474Y17582
X6474Y17582
X6474Y16582
X7474Y16582
X8474Y16582
X8474Y17582
X7474Y17582
X9474Y17582
X9474Y16582
X10474Y16582
X10474Y17582
X11474Y17582
X11474Y16582
X12474Y16582
X12474Y17582
X13474Y17582
X13474Y16582
X14474Y16582
X14474Y17582
X14524Y15507
X14524Y14507
X14524Y13507
X15524Y13507
X15524Y14507
X15524Y15507
X15524Y12507
X15524Y11507
X15524Y10507
X15524Y9507
X15524Y8507
X15524Y7507
X15524Y6507
X15524Y5507
X15524Y4507
X15524Y3507
X14524Y3507
X14524Y4507
X14524Y5507
X14524Y6507
X14524Y7507
X14524Y8507
X14524Y9507
X14524Y10507
X14524Y11507
X14524Y12507
X14459Y2408
X14459Y1408
X13459Y1408
X13459Y2408
X12459Y2408
X12459Y1408
X11459Y1408
X11459Y2408
X10459Y2408
X10459Y1408
X9459Y1408
X9459Y2408
X8459Y2408
X8459Y1408
X7459Y1408
X7459Y2408
X6459Y2408
X6459Y1408
X5459Y1408
X5459Y2408
X4459Y2408
X4459Y1408
X3459Y1408
X3459Y2408
X2459Y2408
X2459Y1408
X2417Y3512
X2417Y4512
X2417Y5512
X2417Y6512
X2417Y7512
X2417Y8512
X2417Y9512
X2417Y10512
X2417Y11512
X2417Y12512
X2417Y13512
X2417Y14512
X2417Y15512
X1417Y15512
X1417Y14512
X1417Y13512
X1417Y12512
X1417Y11512
X1417Y10512
X1417Y9512
X1417Y8512
X1417Y7512
X1417Y6512
X1417Y5512
X1417Y4512
X1417Y3512
T05
X7818Y4571
X8818Y4571
X8818Y5571
X7818Y5571
X9818Y5571
X9818Y4571
X10818Y4571
X10818Y5571
X11818Y5571
X11818Y4571
T06
X3579Y3785
X5359Y3785
X5359Y6345
X3579Y6345
M30
