M48
INCH,LZ
VER,1
FMAT,2
T01C0.024F1B1S6H2000
T02C0.032F1B1S6H2000
T03C0.036F1B1S6H2000
T04C0.04F1B1S6H2000
T05C0.048F1B1S6H2000
T06C0.067F1B1S6H2000
T07C0.0984F1B1S6H2000
T08C0.126F1B1S6H2000
T09C0.162F1B1S6H2000
DETECT,ON
ATC,ON
%
T01
X02852Y00972
X03828Y00939
X04694Y00413
X04652Y00278
X04707Y00223
X04795Y00171
X05567Y0108
X06287Y01255
X01496Y00339
X0186Y00405
X01977Y00396
X02565Y0036
X02563Y00505
X02665Y00223
X03177Y00324
X03401Y00885
X03457Y00859
X02914Y00911
X02054Y00789
X02113Y0148
X02484Y01785
X02854Y01786
X03128Y01735
X0321Y01686
X0327Y01625
X03319Y0157
X03402Y01471
X0358Y01502
X03695Y01488
X03752Y01433
X03805Y01365
X03797Y01278
X03616Y01725
X03512Y01827
X03511Y01829
X02882Y02024
X02879Y02023
X0266Y02387
X02554Y02376
X02347Y02376
X01892Y02599
X01863Y02797
X02266Y02853
X02385Y02838
X02277Y03016
X02251Y03183
X02296Y03381
X02293Y03525
X02099Y03525
X01899Y03393
X01889Y03105
X0196Y03707
X02182Y03707
X01701Y04014
X0265Y03686
X04183Y0387
X04872Y03815
X04919Y03684
X04866Y03551
X04778Y03342
X04637Y03302
X04525Y03254
X04419Y0325
X05069Y03335
X05258Y03
X05164Y02939
X05064Y02884
X0508Y02771
X04784Y0266
X04674Y02654
X04562Y02637
X0447Y02616
X0371Y02586
X03609Y02624
X03503Y02675
X03416Y02587
X04741Y02096
X04726Y02002
X04746Y0193
X04742Y01825
X04864Y01825
X05219Y02077
X05269Y01996
X05443Y01851
X05326Y01786
X05537Y02002
X05532Y02082
X05574Y02167
X05593Y02951
X05537Y0301
X0487Y0398
X05535Y03935
X01868Y02237
X01419Y01459
X05439Y01024
X05445Y00853
X05431Y00488
X05774Y00299
X05874Y00495
X06353Y00349
X06479Y00409
T02
X01861Y0061
X01978Y00606
X01978Y01006
X01861Y0101
X02992Y0131
X02992Y0141
X03613Y01727
X03713Y01727
X03751Y01191
X03751Y01091
X0311Y00747
X0301Y00747
X02417Y00167
X02317Y00167
X02038Y00158
X01938Y00158
X00439Y0188
X00439Y01978
X00439Y02076
X00203Y02076
X00203Y01978
X00203Y0188
X00246Y02858
X0025Y03058
X00246Y03258
X00646Y03258
X0065Y03058
X00646Y02858
X0065Y03775
X0075Y03775
T03
X02679Y00637
X02779Y00637
X02779Y00537
X02779Y00437
X02879Y00437
X02979Y00437
X02979Y00537
X02879Y00537
X03079Y00537
X03179Y00537
X03279Y00537
X03279Y00437
X03179Y00437
X03079Y00437
X03379Y00437
X03479Y00437
X03479Y00537
X03379Y00537
X03579Y00537
X03679Y00537
X03679Y00437
X03579Y00437
X03779Y00437
X03879Y00437
X03979Y00437
X03979Y00537
X03879Y00537
X03779Y00537
X03979Y00637
X04079Y00637
X04079Y00737
X03979Y00737
X03979Y00837
X03979Y00937
X04079Y00937
X04079Y00837
X04079Y01037
X03979Y01037
X03979Y01137
X03979Y01237
X04079Y01237
X04079Y01137
X04079Y01337
X03979Y01337
X03979Y01437
X03979Y01537
X04079Y01537
X04079Y01437
X04079Y01637
X03979Y01637
X03979Y01737
X04079Y01737
X04079Y01837
X03979Y01837
X03979Y01937
X03879Y01937
X03779Y01937
X03679Y01937
X03579Y01937
X03479Y01937
X03379Y01937
X03279Y01937
X03179Y01937
X03079Y01937
X02979Y01937
X02879Y01937
X02779Y01937
X02779Y01837
X02679Y01837
X02679Y01737
X02779Y01737
X02779Y01637
X02679Y01637
X02679Y01537
X02779Y01537
X02779Y01437
X02679Y01437
X02679Y01337
X02779Y01337
X02779Y01237
X02679Y01237
X02679Y01137
X02779Y01137
X02779Y01037
X02679Y01037
X02679Y00937
X02779Y00937
X02779Y00837
X02679Y00837
X02679Y00737
X02779Y00737
X02779Y02037
X02879Y02037
X02979Y02037
X03079Y02037
X03179Y02037
X03279Y02037
X03379Y02037
X03479Y02037
X03579Y02037
X03679Y02037
X03779Y02037
X03879Y02037
X03979Y02037
T04
X022Y00507
X023Y00507
X023Y00607
X022Y00607
X022Y00707
X023Y00707
X023Y00807
X022Y00807
X022Y00907
X023Y00907
X04504Y00866
X04604Y00866
X04604Y00766
X04504Y00766
X04504Y00666
X04604Y00666
X04604Y00566
X04504Y00566
X04504Y00466
X04604Y00466
X05037Y00455
X05137Y00455
X05137Y00555
X05137Y00655
X05137Y00755
X05037Y00755
X05037Y00655
X05037Y00555
X05037Y00855
X05137Y00855
X05576Y00895
X05676Y00895
X05676Y00795
X05676Y00695
X05576Y00695
X05576Y00795
X05576Y00595
X05676Y00595
X05676Y00495
X05576Y00495
X06147Y00495
X06147Y00595
X06247Y00595
X06247Y00495
X06247Y00695
X06147Y00695
X06147Y00795
X06147Y00895
X06247Y00895
X06247Y00795
X06622Y00804
X06622Y00704
X06622Y00604
X06722Y00604
X06722Y00704
X06722Y00804
X06722Y00904
X06622Y00904
X06622Y00504
X06722Y00504
X05143Y01448
X05043Y01448
X05043Y01548
X05143Y01548
X05143Y01648
X05043Y01648
X05043Y01748
X05143Y01748
X05143Y01848
X05043Y01848
X04593Y01848
X04493Y01848
X04493Y01748
X04593Y01748
X04593Y01648
X04493Y01648
X04493Y01548
X04593Y01548
X04593Y01448
X04493Y01448
X05573Y0148
X05573Y0158
X05673Y0158
X05673Y0148
X05673Y0168
X05673Y0178
X05573Y0178
X05573Y0168
X05573Y0188
X05673Y0188
X06137Y01886
X06237Y01886
X06237Y01786
X06237Y01686
X06237Y01586
X06137Y01586
X06137Y01686
X06137Y01786
X06137Y01486
X06237Y01486
X06644Y01486
X06744Y01486
X06744Y01586
X06744Y01686
X06744Y01786
X06644Y01786
X06644Y01686
X06644Y01586
X06644Y01886
X06744Y01886
X06229Y02472
X06129Y02472
X06129Y02572
X06229Y02572
X06229Y02672
X06129Y02672
X06129Y02772
X06229Y02772
X06229Y02872
X06129Y02872
X05672Y02868
X05572Y02868
X05572Y02768
X05672Y02768
X05672Y02668
X05572Y02668
X05572Y02568
X05672Y02568
X05672Y02468
X05572Y02468
X06121Y03413
X06221Y03413
X06221Y03513
X06121Y03513
X06121Y03613
X06221Y03613
X06221Y03713
X06121Y03713
X06121Y03813
X06221Y03813
X0664Y03785
X0664Y03685
X0674Y03685
X0674Y03785
X0674Y03585
X0664Y03585
X0664Y03485
X0664Y03385
X0674Y03385
X0674Y03485
X06741Y02882
X06741Y02782
X06641Y02782
X06641Y02882
X06641Y02682
X06641Y02582
X06641Y02482
X06741Y02482
X06741Y02582
X06741Y02682
X0565Y03425
X0555Y03425
X0555Y03525
X0565Y03525
X0565Y03625
X0555Y03625
X0555Y03725
X0565Y03725
X0565Y03825
X0555Y03825
X03913Y03855
X03813Y03855
X03713Y03855
X03613Y03855
X03513Y03855
X03413Y03855
X03313Y03855
X03213Y03855
X03113Y03855
X03013Y03855
X02913Y03855
X02813Y03855
X02713Y03855
X02613Y03855
X02513Y03855
X02413Y03855
X00669Y02537
X00551Y02348
X00433Y02537
X011Y03875
X012Y03875
X013Y03875
X016Y03875
X017Y03875
X018Y03875
X018Y03575
X017Y03575
X016Y03575
X013Y03575
X012Y03575
X011Y03575
X01591Y03294
X01691Y03294
X01791Y03294
X01789Y02992
X01689Y02992
X01589Y02992
X01131Y02816
X00931Y02816
X01591Y02693
X01691Y02693
X01791Y02693
X01796Y02381
X01696Y02381
X01596Y02381
X01059Y02184
X00859Y02184
X01599Y02043
X01699Y02043
X01799Y02043
X02132Y01992
X02232Y01992
X02332Y01992
X02332Y01658
X02232Y01658
X02132Y01658
X0214Y01352
X0224Y01352
X0234Y01352
X02557Y02385
X02657Y02385
X02757Y02385
X02857Y02385
X02957Y02385
X03057Y02385
X03157Y02385
X03257Y02385
X03357Y02385
X03457Y02385
X03711Y02385
X03811Y02385
X03911Y02385
X04011Y02385
X04111Y02385
X04211Y02385
X04311Y02385
X04411Y02385
X04511Y02385
X04611Y02385
T05
X00635Y00855
X01065Y00855
T06
X00314Y03525
X00314Y03681
T07
X02197Y02635
X02197Y03855
X05149Y03855
X05149Y02635
T08
X00199Y00186
X00214Y04043
X06828Y04089
X06782Y00156
T09
X0085Y0033
X0085Y0152
M30
