G75*
G70*
%OFA0B0*%
%FSLAX24Y24*%
%IPPOS*%
%LPD*%
%AMOC8*
5,1,8,0,0,1.08239X$1,22.5*
%
%ADD10C,0.0000*%
%ADD11C,0.0100*%
%ADD12C,0.0316*%
%ADD13C,0.1182*%
%ADD14C,0.0600*%
%ADD15C,0.1080*%
%ADD16OC8,0.1080*%
%ADD17C,0.1070*%
%ADD18C,0.0680*%
%ADD19OC8,0.0600*%
%ADD20C,0.0740*%
%ADD21C,0.0640*%
%ADD22C,0.0520*%
%ADD23C,0.0520*%
%ADD24OC8,0.0710*%
%ADD25C,0.0674*%
%ADD26C,0.2080*%
%ADD27C,0.0940*%
%ADD28C,0.0840*%
%ADD29C,0.0867*%
%ADD30C,0.0789*%
%ADD31C,0.0780*%
D10*
X000158Y000158D02*
X051160Y000158D01*
X051160Y031113D01*
X000158Y031113D01*
X002035Y029520D02*
X002037Y029541D01*
X002043Y029561D01*
X002052Y029581D01*
X002064Y029598D01*
X002079Y029612D01*
X002097Y029624D01*
X002117Y029632D01*
X002137Y029637D01*
X002158Y029638D01*
X002179Y029635D01*
X002199Y029629D01*
X002218Y029618D01*
X002235Y029605D01*
X002248Y029589D01*
X002259Y029571D01*
X002267Y029551D01*
X002271Y029531D01*
X002271Y029509D01*
X002267Y029489D01*
X002259Y029469D01*
X002248Y029451D01*
X002235Y029435D01*
X002218Y029422D01*
X002199Y029411D01*
X002179Y029405D01*
X002158Y029402D01*
X002137Y029403D01*
X002117Y029408D01*
X002097Y029416D01*
X002079Y029428D01*
X002064Y029442D01*
X002052Y029459D01*
X002043Y029479D01*
X002037Y029499D01*
X002035Y029520D01*
X001680Y029571D02*
X001682Y029618D01*
X001688Y029664D01*
X001698Y029710D01*
X001711Y029755D01*
X001729Y029798D01*
X001750Y029840D01*
X001774Y029880D01*
X001802Y029917D01*
X001833Y029952D01*
X001867Y029985D01*
X001903Y030014D01*
X001942Y030040D01*
X001983Y030063D01*
X002026Y030082D01*
X002070Y030098D01*
X002115Y030110D01*
X002161Y030118D01*
X002208Y030122D01*
X002254Y030122D01*
X002301Y030118D01*
X002347Y030110D01*
X002392Y030098D01*
X002436Y030082D01*
X002479Y030063D01*
X002520Y030040D01*
X002559Y030014D01*
X002595Y029985D01*
X002629Y029952D01*
X002660Y029917D01*
X002688Y029880D01*
X002712Y029840D01*
X002733Y029798D01*
X002751Y029755D01*
X002764Y029710D01*
X002774Y029664D01*
X002780Y029618D01*
X002782Y029571D01*
X002780Y029524D01*
X002774Y029478D01*
X002764Y029432D01*
X002751Y029387D01*
X002733Y029344D01*
X002712Y029302D01*
X002688Y029262D01*
X002660Y029225D01*
X002629Y029190D01*
X002595Y029157D01*
X002559Y029128D01*
X002520Y029102D01*
X002479Y029079D01*
X002436Y029060D01*
X002392Y029044D01*
X002347Y029032D01*
X002301Y029024D01*
X002254Y029020D01*
X002208Y029020D01*
X002161Y029024D01*
X002115Y029032D01*
X002070Y029044D01*
X002026Y029060D01*
X001983Y029079D01*
X001942Y029102D01*
X001903Y029128D01*
X001867Y029157D01*
X001833Y029190D01*
X001802Y029225D01*
X001774Y029262D01*
X001750Y029302D01*
X001729Y029344D01*
X001711Y029387D01*
X001698Y029432D01*
X001688Y029478D01*
X001682Y029524D01*
X001680Y029571D01*
X001398Y001970D02*
X001400Y002017D01*
X001406Y002063D01*
X001416Y002109D01*
X001429Y002154D01*
X001447Y002197D01*
X001468Y002239D01*
X001492Y002279D01*
X001520Y002316D01*
X001551Y002351D01*
X001585Y002384D01*
X001621Y002413D01*
X001660Y002439D01*
X001701Y002462D01*
X001744Y002481D01*
X001788Y002497D01*
X001833Y002509D01*
X001879Y002517D01*
X001926Y002521D01*
X001972Y002521D01*
X002019Y002517D01*
X002065Y002509D01*
X002110Y002497D01*
X002154Y002481D01*
X002197Y002462D01*
X002238Y002439D01*
X002277Y002413D01*
X002313Y002384D01*
X002347Y002351D01*
X002378Y002316D01*
X002406Y002279D01*
X002430Y002239D01*
X002451Y002197D01*
X002469Y002154D01*
X002482Y002109D01*
X002492Y002063D01*
X002498Y002017D01*
X002500Y001970D01*
X002498Y001923D01*
X002492Y001877D01*
X002482Y001831D01*
X002469Y001786D01*
X002451Y001743D01*
X002430Y001701D01*
X002406Y001661D01*
X002378Y001624D01*
X002347Y001589D01*
X002313Y001556D01*
X002277Y001527D01*
X002238Y001501D01*
X002197Y001478D01*
X002154Y001459D01*
X002110Y001443D01*
X002065Y001431D01*
X002019Y001423D01*
X001972Y001419D01*
X001926Y001419D01*
X001879Y001423D01*
X001833Y001431D01*
X001788Y001443D01*
X001744Y001459D01*
X001701Y001478D01*
X001660Y001501D01*
X001621Y001527D01*
X001585Y001556D01*
X001551Y001589D01*
X001520Y001624D01*
X001492Y001661D01*
X001468Y001701D01*
X001447Y001743D01*
X001429Y001786D01*
X001416Y001831D01*
X001406Y001877D01*
X001400Y001923D01*
X001398Y001970D01*
X001945Y001936D02*
X001947Y001957D01*
X001953Y001977D01*
X001962Y001997D01*
X001974Y002014D01*
X001989Y002028D01*
X002007Y002040D01*
X002027Y002048D01*
X002047Y002053D01*
X002068Y002054D01*
X002089Y002051D01*
X002109Y002045D01*
X002128Y002034D01*
X002145Y002021D01*
X002158Y002005D01*
X002169Y001987D01*
X002177Y001967D01*
X002181Y001947D01*
X002181Y001925D01*
X002177Y001905D01*
X002169Y001885D01*
X002158Y001867D01*
X002145Y001851D01*
X002128Y001838D01*
X002109Y001827D01*
X002089Y001821D01*
X002068Y001818D01*
X002047Y001819D01*
X002027Y001824D01*
X002007Y001832D01*
X001989Y001844D01*
X001974Y001858D01*
X001962Y001875D01*
X001953Y001895D01*
X001947Y001915D01*
X001945Y001936D01*
X049088Y029138D02*
X049090Y029159D01*
X049096Y029179D01*
X049105Y029199D01*
X049117Y029216D01*
X049132Y029230D01*
X049150Y029242D01*
X049170Y029250D01*
X049190Y029255D01*
X049211Y029256D01*
X049232Y029253D01*
X049252Y029247D01*
X049271Y029236D01*
X049288Y029223D01*
X049301Y029207D01*
X049312Y029189D01*
X049320Y029169D01*
X049324Y029149D01*
X049324Y029127D01*
X049320Y029107D01*
X049312Y029087D01*
X049301Y029069D01*
X049288Y029053D01*
X049271Y029040D01*
X049252Y029029D01*
X049232Y029023D01*
X049211Y029020D01*
X049190Y029021D01*
X049170Y029026D01*
X049150Y029034D01*
X049132Y029046D01*
X049117Y029060D01*
X049105Y029077D01*
X049096Y029097D01*
X049090Y029117D01*
X049088Y029138D01*
X048685Y029118D02*
X048687Y029165D01*
X048693Y029211D01*
X048703Y029257D01*
X048716Y029302D01*
X048734Y029345D01*
X048755Y029387D01*
X048779Y029427D01*
X048807Y029464D01*
X048838Y029499D01*
X048872Y029532D01*
X048908Y029561D01*
X048947Y029587D01*
X048988Y029610D01*
X049031Y029629D01*
X049075Y029645D01*
X049120Y029657D01*
X049166Y029665D01*
X049213Y029669D01*
X049259Y029669D01*
X049306Y029665D01*
X049352Y029657D01*
X049397Y029645D01*
X049441Y029629D01*
X049484Y029610D01*
X049525Y029587D01*
X049564Y029561D01*
X049600Y029532D01*
X049634Y029499D01*
X049665Y029464D01*
X049693Y029427D01*
X049717Y029387D01*
X049738Y029345D01*
X049756Y029302D01*
X049769Y029257D01*
X049779Y029211D01*
X049785Y029165D01*
X049787Y029118D01*
X049785Y029071D01*
X049779Y029025D01*
X049769Y028979D01*
X049756Y028934D01*
X049738Y028891D01*
X049717Y028849D01*
X049693Y028809D01*
X049665Y028772D01*
X049634Y028737D01*
X049600Y028704D01*
X049564Y028675D01*
X049525Y028649D01*
X049484Y028626D01*
X049441Y028607D01*
X049397Y028591D01*
X049352Y028579D01*
X049306Y028571D01*
X049259Y028567D01*
X049213Y028567D01*
X049166Y028571D01*
X049120Y028579D01*
X049075Y028591D01*
X049031Y028607D01*
X048988Y028626D01*
X048947Y028649D01*
X048908Y028675D01*
X048872Y028704D01*
X048838Y028737D01*
X048807Y028772D01*
X048779Y028809D01*
X048755Y028849D01*
X048734Y028891D01*
X048716Y028934D01*
X048703Y028979D01*
X048693Y029025D01*
X048687Y029071D01*
X048685Y029118D01*
X049577Y001678D02*
X049579Y001699D01*
X049585Y001719D01*
X049594Y001739D01*
X049606Y001756D01*
X049621Y001770D01*
X049639Y001782D01*
X049659Y001790D01*
X049679Y001795D01*
X049700Y001796D01*
X049721Y001793D01*
X049741Y001787D01*
X049760Y001776D01*
X049777Y001763D01*
X049790Y001747D01*
X049801Y001729D01*
X049809Y001709D01*
X049813Y001689D01*
X049813Y001667D01*
X049809Y001647D01*
X049801Y001627D01*
X049790Y001609D01*
X049777Y001593D01*
X049760Y001580D01*
X049741Y001569D01*
X049721Y001563D01*
X049700Y001560D01*
X049679Y001561D01*
X049659Y001566D01*
X049639Y001574D01*
X049621Y001586D01*
X049606Y001600D01*
X049594Y001617D01*
X049585Y001637D01*
X049579Y001657D01*
X049577Y001678D01*
X049138Y001630D02*
X049140Y001677D01*
X049146Y001723D01*
X049156Y001769D01*
X049169Y001814D01*
X049187Y001857D01*
X049208Y001899D01*
X049232Y001939D01*
X049260Y001976D01*
X049291Y002011D01*
X049325Y002044D01*
X049361Y002073D01*
X049400Y002099D01*
X049441Y002122D01*
X049484Y002141D01*
X049528Y002157D01*
X049573Y002169D01*
X049619Y002177D01*
X049666Y002181D01*
X049712Y002181D01*
X049759Y002177D01*
X049805Y002169D01*
X049850Y002157D01*
X049894Y002141D01*
X049937Y002122D01*
X049978Y002099D01*
X050017Y002073D01*
X050053Y002044D01*
X050087Y002011D01*
X050118Y001976D01*
X050146Y001939D01*
X050170Y001899D01*
X050191Y001857D01*
X050209Y001814D01*
X050222Y001769D01*
X050232Y001723D01*
X050238Y001677D01*
X050240Y001630D01*
X050238Y001583D01*
X050232Y001537D01*
X050222Y001491D01*
X050209Y001446D01*
X050191Y001403D01*
X050170Y001361D01*
X050146Y001321D01*
X050118Y001284D01*
X050087Y001249D01*
X050053Y001216D01*
X050017Y001187D01*
X049978Y001161D01*
X049937Y001138D01*
X049894Y001119D01*
X049850Y001103D01*
X049805Y001091D01*
X049759Y001083D01*
X049712Y001079D01*
X049666Y001079D01*
X049619Y001083D01*
X049573Y001091D01*
X049528Y001103D01*
X049484Y001119D01*
X049441Y001138D01*
X049400Y001161D01*
X049361Y001187D01*
X049325Y001216D01*
X049291Y001249D01*
X049260Y001284D01*
X049232Y001321D01*
X049208Y001361D01*
X049187Y001403D01*
X049169Y001446D01*
X049156Y001491D01*
X049146Y001537D01*
X049140Y001583D01*
X049138Y001630D01*
D11*
X000158Y000158D02*
X000158Y031113D01*
D12*
X002153Y029520D03*
X002063Y001936D03*
X049206Y029138D03*
X049695Y001678D03*
D13*
X049689Y001630D03*
X049236Y029118D03*
X002231Y029571D03*
X001949Y001970D03*
D14*
X005399Y005515D02*
X005919Y005515D01*
X009399Y005515D02*
X009919Y005515D01*
X011669Y005429D02*
X012189Y005429D01*
X012189Y004429D02*
X011669Y004429D01*
X015414Y008593D02*
X015934Y008593D01*
X015934Y009593D02*
X015414Y009593D01*
X015414Y010593D02*
X015934Y010593D01*
X015934Y011593D02*
X015414Y011593D01*
X015414Y012593D02*
X015934Y012593D01*
X015934Y013593D02*
X015414Y013593D01*
X015414Y014593D02*
X015934Y014593D01*
X015934Y015593D02*
X015414Y015593D01*
X018414Y015593D02*
X018934Y015593D01*
X018934Y014593D02*
X018414Y014593D01*
X018414Y013593D02*
X018934Y013593D01*
X018934Y012593D02*
X018414Y012593D01*
X018414Y011593D02*
X018934Y011593D01*
X018934Y010593D02*
X018414Y010593D01*
X018414Y009593D02*
X018934Y009593D01*
X018934Y008593D02*
X018414Y008593D01*
X025001Y009843D02*
X025521Y009843D01*
X025521Y010843D02*
X025001Y010843D01*
X025001Y011843D02*
X025521Y011843D01*
X025521Y012843D02*
X025001Y012843D01*
X025001Y013843D02*
X025521Y013843D01*
X025521Y014843D02*
X025001Y014843D01*
X025001Y015843D02*
X025521Y015843D01*
X025521Y016843D02*
X025001Y016843D01*
X025001Y017843D02*
X025521Y017843D01*
X025521Y018843D02*
X025001Y018843D01*
X025001Y019843D02*
X025521Y019843D01*
X025521Y020843D02*
X025001Y020843D01*
X025001Y021843D02*
X025521Y021843D01*
X025521Y022843D02*
X025001Y022843D01*
X028001Y022843D02*
X028521Y022843D01*
X028521Y021843D02*
X028001Y021843D01*
X028001Y020843D02*
X028521Y020843D01*
X028521Y019843D02*
X028001Y019843D01*
X028001Y018843D02*
X028521Y018843D01*
X028521Y017843D02*
X028001Y017843D01*
X028001Y016843D02*
X028521Y016843D01*
X028521Y015843D02*
X028001Y015843D01*
X028001Y014843D02*
X028521Y014843D01*
X028521Y013843D02*
X028001Y013843D01*
X028001Y012843D02*
X028521Y012843D01*
X028521Y011843D02*
X028001Y011843D01*
X028001Y010843D02*
X028521Y010843D01*
X028521Y009843D02*
X028001Y009843D01*
X029952Y007993D02*
X030472Y007993D01*
X030472Y006993D02*
X029952Y006993D01*
X029952Y005993D02*
X030472Y005993D01*
X030472Y004993D02*
X029952Y004993D01*
X032952Y004993D02*
X033472Y004993D01*
X033472Y005993D02*
X032952Y005993D01*
X032952Y006993D02*
X033472Y006993D01*
X033472Y007993D02*
X032952Y007993D01*
X036519Y010530D02*
X037039Y010530D01*
X037039Y011530D02*
X036519Y011530D01*
X036519Y012530D02*
X037039Y012530D01*
X037039Y013530D02*
X036519Y013530D01*
X036519Y014530D02*
X037039Y014530D01*
X037039Y015530D02*
X036519Y015530D01*
X036519Y016530D02*
X037039Y016530D01*
X034581Y016538D02*
X034061Y016538D01*
X034061Y015538D02*
X034581Y015538D01*
X034581Y014538D02*
X034061Y014538D01*
X034061Y013538D02*
X034581Y013538D01*
X034581Y012538D02*
X034061Y012538D01*
X031581Y012538D02*
X031061Y012538D01*
X031061Y013538D02*
X031581Y013538D01*
X031581Y014538D02*
X031061Y014538D01*
X031061Y015538D02*
X031581Y015538D01*
X031581Y016538D02*
X031061Y016538D01*
X031061Y017538D02*
X031581Y017538D01*
X031581Y018538D02*
X031061Y018538D01*
X031061Y019538D02*
X031581Y019538D01*
X031581Y020538D02*
X031061Y020538D01*
X034061Y020538D02*
X034581Y020538D01*
X034581Y019538D02*
X034061Y019538D01*
X034061Y018538D02*
X034581Y018538D01*
X034581Y017538D02*
X034061Y017538D01*
X039519Y016530D02*
X040039Y016530D01*
X040039Y015530D02*
X039519Y015530D01*
X039519Y014530D02*
X040039Y014530D01*
X040039Y013530D02*
X039519Y013530D01*
X039519Y012530D02*
X040039Y012530D01*
X040039Y011530D02*
X039519Y011530D01*
X039519Y010530D02*
X040039Y010530D01*
X043912Y012107D02*
X043912Y012627D01*
X044912Y012627D02*
X044912Y012107D01*
X044861Y005666D02*
X044861Y005146D01*
X043861Y005146D02*
X043861Y005666D01*
X043635Y019472D02*
X043635Y019992D01*
X044635Y019992D02*
X044635Y019472D01*
X018634Y019698D02*
X018114Y019698D01*
X018114Y020698D02*
X018634Y020698D01*
X018634Y021698D02*
X018114Y021698D01*
X018114Y022698D02*
X018634Y022698D01*
X018634Y023698D02*
X018114Y023698D01*
X018114Y024698D02*
X018634Y024698D01*
X015634Y024698D02*
X015114Y024698D01*
X015114Y023698D02*
X015634Y023698D01*
X015634Y022698D02*
X015114Y022698D01*
X015114Y021698D02*
X015634Y021698D01*
X015634Y020698D02*
X015114Y020698D01*
X015114Y019698D02*
X015634Y019698D01*
X015634Y018698D02*
X015114Y018698D01*
X015114Y017698D02*
X015634Y017698D01*
X018114Y017698D02*
X018634Y017698D01*
X018634Y018698D02*
X018114Y018698D01*
X006176Y013248D02*
X006176Y012728D01*
X005176Y012728D02*
X005176Y013248D01*
X004176Y013248D02*
X004176Y012728D01*
X004176Y011248D02*
X004176Y010728D01*
X005176Y010728D02*
X005176Y011248D01*
X006176Y011248D02*
X006176Y010728D01*
D15*
X011017Y011247D03*
X012940Y016745D03*
D16*
X010940Y016745D03*
X009017Y011247D03*
D17*
X018188Y004783D02*
X018188Y003793D01*
X019748Y003793D02*
X019748Y004783D01*
X020010Y027171D02*
X020010Y028161D01*
X018450Y028161D02*
X018450Y027171D01*
D18*
X021777Y025367D02*
X022377Y025367D01*
X022377Y024367D02*
X021777Y024367D01*
X021777Y023367D02*
X022377Y023367D01*
X022377Y022367D02*
X021777Y022367D01*
X021777Y021367D02*
X022377Y021367D01*
X022377Y020367D02*
X021777Y020367D01*
X009100Y022987D02*
X008500Y022987D01*
X008500Y023987D02*
X009100Y023987D01*
X009100Y024987D02*
X008500Y024987D01*
X004499Y017094D02*
X003899Y017094D01*
X003899Y016094D02*
X004499Y016094D01*
X035348Y028413D02*
X035348Y029013D01*
X036348Y029013D02*
X036348Y028413D01*
X047562Y025765D02*
X048162Y025765D01*
X048162Y024765D02*
X047562Y024765D01*
X047562Y023765D02*
X048162Y023765D01*
X048193Y017745D02*
X047593Y017745D01*
X047593Y016745D02*
X048193Y016745D01*
X048193Y015745D02*
X047593Y015745D01*
X047593Y014745D02*
X048193Y014745D01*
X048193Y013745D02*
X047593Y013745D01*
X047593Y012745D02*
X048193Y012745D01*
X047936Y006687D02*
X047336Y006687D01*
X047336Y005687D02*
X047936Y005687D01*
X047936Y004687D02*
X047336Y004687D01*
D19*
X042004Y006297D03*
X040425Y005102D03*
X040425Y008102D03*
X041868Y008423D03*
X039987Y009142D03*
X036987Y009142D03*
X041868Y012423D03*
X046059Y011927D03*
X046059Y008927D03*
X042004Y002297D03*
X034931Y001983D03*
X034931Y004983D03*
X028817Y005186D03*
X023817Y005186D03*
X017984Y007019D03*
X014669Y005521D03*
X012984Y007019D03*
X009546Y003900D03*
X005546Y003900D03*
X014669Y002521D03*
X013917Y011521D03*
X013917Y014521D03*
X012122Y020935D03*
X009122Y020935D03*
X010619Y024381D03*
X012151Y025768D03*
X014251Y026434D03*
X012151Y028768D03*
X010619Y029381D03*
X014251Y030434D03*
X022082Y027403D03*
X025082Y027403D03*
X033021Y025314D03*
X032937Y023754D03*
X032932Y022464D03*
X036932Y022464D03*
X036937Y023754D03*
X037021Y025314D03*
X041956Y022849D03*
X046153Y024319D03*
X046153Y027319D03*
X045886Y019745D03*
X041956Y018849D03*
X045886Y016745D03*
D20*
X009670Y007428D03*
X005670Y007428D03*
D21*
X047435Y009032D02*
X047995Y009032D01*
X047995Y010032D02*
X047435Y010032D01*
X047435Y011032D02*
X047995Y011032D01*
X048152Y019936D02*
X047592Y019931D01*
X047582Y020931D02*
X048142Y020936D01*
X048131Y021936D02*
X047571Y021931D01*
D22*
X044212Y022454D03*
X044212Y023454D03*
X044212Y024454D03*
X039248Y021423D03*
X039248Y020423D03*
X039248Y019423D03*
X044219Y016929D03*
X044219Y015929D03*
X044219Y014929D03*
X044224Y009703D03*
X044224Y008703D03*
X044224Y007703D03*
D23*
X033841Y009998D02*
X033841Y010438D01*
X031841Y010438D02*
X031841Y009998D01*
D24*
X039140Y023622D03*
X041140Y023622D03*
X040849Y025461D03*
X038849Y025461D03*
X036383Y026882D03*
X035383Y026882D03*
D25*
X022528Y017070D03*
X021528Y017070D03*
X021528Y016070D03*
X022528Y016070D03*
X022528Y015070D03*
X021528Y015070D03*
X021528Y014070D03*
X022528Y014070D03*
X022528Y013070D03*
X021528Y013070D03*
D26*
X006389Y021970D03*
X006389Y026033D03*
D27*
X010607Y024370D03*
X012158Y025753D03*
X014256Y026401D03*
X012165Y028770D03*
X010629Y029375D03*
X014225Y030465D03*
X022082Y027416D03*
X025076Y027406D03*
X012146Y020963D03*
X009142Y020949D03*
X013919Y014526D03*
X013894Y011523D03*
X009670Y007415D03*
X012994Y007024D03*
X014678Y005496D03*
X017995Y007011D03*
X014669Y002528D03*
X005674Y007436D03*
X037036Y009148D03*
X039968Y009148D03*
X046030Y008918D03*
X040431Y005100D03*
X045863Y016755D03*
X045896Y019763D03*
X046163Y024290D03*
X046127Y027349D03*
D28*
X044211Y024470D03*
X044199Y023481D03*
X044211Y022454D03*
X041951Y022840D03*
X041144Y023607D03*
X039144Y023615D03*
X036947Y023745D03*
X036929Y022457D03*
X039242Y021414D03*
X039254Y020414D03*
X039254Y019438D03*
X041971Y018832D03*
X044223Y016934D03*
X044223Y015918D03*
X044234Y014942D03*
X041892Y012407D03*
X044223Y009702D03*
X044223Y008690D03*
X044234Y007698D03*
X041872Y008450D03*
X040435Y008056D03*
X042006Y006289D03*
X042006Y002300D03*
X034951Y001966D03*
X034931Y005025D03*
X028804Y005179D03*
X023824Y005152D03*
X009546Y003887D03*
X005534Y003883D03*
X032930Y022463D03*
X032939Y023761D03*
X033038Y025312D03*
X037014Y025344D03*
X038845Y025458D03*
X040860Y025458D03*
X046101Y011954D03*
D29*
X040852Y025459D03*
D30*
X022523Y017078D03*
X021528Y017069D03*
X021528Y014076D03*
X021528Y013085D03*
X022540Y013063D03*
D31*
X022522Y014080D03*
X022522Y015067D03*
X021459Y015067D03*
X021510Y016080D03*
M02*
