G75*
G70*
%OFA0B0*%
%FSLAX24Y24*%
%IPPOS*%
%LPD*%
%AMOC8*
5,1,8,0,0,1.08239X$1,22.5*
%
%ADD10C,0.0316*%
%ADD11C,0.0680*%
%ADD12OC8,0.0710*%
%ADD13C,0.0600*%
%ADD14C,0.1070*%
%ADD15C,0.0674*%
%ADD16C,0.0580*%
%ADD17C,0.0320*%
%ADD18C,0.0740*%
%ADD19C,0.0860*%
%ADD20C,0.1080*%
%ADD21OC8,0.1320*%
%ADD22C,0.1320*%
%ADD23OC8,0.0600*%
%ADD24C,0.2080*%
%ADD25C,0.0840*%
D10*
X027150Y014833D03*
X028650Y008333D03*
D11*
X012500Y008063D02*
X012500Y008663D01*
X011500Y008663D02*
X011500Y008063D01*
X010500Y008063D02*
X010500Y008663D01*
X008445Y016018D02*
X007845Y016018D01*
X007845Y017018D02*
X008445Y017018D01*
X008445Y018018D02*
X007845Y018018D01*
D12*
X011940Y018443D03*
X012940Y018443D03*
X012760Y014303D03*
X011760Y014303D03*
D13*
X012650Y021073D02*
X012650Y021593D01*
X013650Y021593D02*
X013650Y021073D01*
X026630Y020833D02*
X027150Y020833D01*
X027150Y021833D02*
X026630Y021833D01*
X030150Y021833D02*
X030670Y021833D01*
X030670Y020833D02*
X030150Y020833D01*
X031890Y018833D02*
X032410Y018833D01*
X032410Y017833D02*
X031890Y017833D01*
X031890Y016833D02*
X032410Y016833D01*
X035390Y007333D02*
X035910Y007333D01*
X035910Y006333D02*
X035390Y006333D01*
D14*
X028930Y003328D02*
X028930Y002338D01*
X027370Y002338D02*
X027370Y003328D01*
X004145Y009053D02*
X003155Y009053D01*
X003155Y010613D02*
X004145Y010613D01*
D15*
X018150Y020833D03*
X019150Y020833D03*
X020150Y020833D03*
X021150Y020833D03*
X022150Y020833D03*
X022150Y021833D03*
X021150Y021833D03*
X020150Y021833D03*
X019150Y021833D03*
X018150Y021833D03*
D16*
X017650Y016583D02*
X017650Y016083D01*
X018650Y016083D02*
X018650Y016583D01*
X019650Y016583D02*
X019650Y016083D01*
X020650Y016083D02*
X020650Y016583D01*
X021650Y016583D02*
X021650Y016083D01*
X022650Y016083D02*
X022650Y016583D01*
X022650Y013583D02*
X022650Y013083D01*
X021650Y013083D02*
X021650Y013583D01*
X020650Y013583D02*
X020650Y013083D01*
X019650Y013083D02*
X019650Y013583D01*
X018650Y013583D02*
X018650Y013083D01*
X017650Y013083D02*
X017650Y013583D01*
X016650Y013583D02*
X016650Y013083D01*
X016650Y016083D02*
X016650Y016583D01*
D17*
X016650Y016333D03*
X017650Y016333D03*
X018650Y016333D03*
X019650Y016333D03*
X020650Y016333D03*
X021650Y016333D03*
X022650Y016333D03*
X022650Y013333D03*
X021650Y013333D03*
X020650Y013333D03*
X019650Y013333D03*
X018650Y013333D03*
X017650Y013333D03*
X016650Y013333D03*
D18*
X018320Y010333D02*
X018980Y010333D01*
X022320Y010333D02*
X022980Y010333D01*
X026820Y006333D02*
X027480Y006333D01*
X030820Y006333D02*
X031480Y006333D01*
X032320Y004333D02*
X032980Y004333D01*
X036320Y004333D02*
X036980Y004333D01*
X029980Y015333D02*
X029320Y015333D01*
X025980Y015333D02*
X025320Y015333D01*
X009980Y012333D02*
X009320Y012333D01*
X005980Y012333D02*
X005320Y012333D01*
D19*
X025150Y012443D02*
X025150Y013223D01*
X027150Y013223D02*
X027150Y012443D01*
X029150Y012443D02*
X029150Y013223D01*
X029150Y010223D02*
X029150Y009443D01*
X027150Y009443D02*
X027150Y010223D01*
X025150Y010223D02*
X025150Y009443D01*
X035150Y009443D02*
X035150Y010223D01*
X035150Y012443D02*
X035150Y013223D01*
D20*
X025090Y003233D02*
X025090Y002233D01*
X016230Y002233D02*
X016230Y003233D01*
D21*
X005405Y003983D03*
D22*
X002405Y003983D03*
D23*
X015120Y009363D03*
X015120Y013363D03*
X018965Y018948D03*
X022965Y018948D03*
X023615Y017958D03*
X027615Y017958D03*
X034510Y018133D03*
X034510Y022133D03*
X032460Y007903D03*
X028460Y007903D03*
X032695Y002468D03*
X036695Y002468D03*
X011305Y021373D03*
X007305Y021373D03*
X003835Y019088D03*
X003835Y015088D03*
D24*
X005857Y015062D03*
X005857Y019125D03*
X009454Y005990D03*
X013516Y005990D03*
D25*
X023570Y017953D03*
X023020Y018968D03*
X022160Y020883D03*
X021145Y020838D03*
X020170Y020793D03*
X019200Y020793D03*
X018135Y020838D03*
X018135Y021903D03*
X019200Y021858D03*
X020170Y021808D03*
X021190Y021858D03*
X022160Y021808D03*
X018950Y019018D03*
X011235Y021423D03*
X007355Y021423D03*
X027545Y017953D03*
X034520Y018088D03*
X034520Y022073D03*
X032720Y002493D03*
X036690Y002443D03*
M02*
