%
M48
M72
T01C0.0160
T02C0.0236
T03C0.0240
T04C0.0320
T05C0.0394
T06C0.0400
T07C0.0440
T08C0.0520
T09C0.0660
T10C0.1000
%
T01
X16650Y13333
X17650Y13333
X18650Y13333
X19650Y13333
X20650Y13333
X21650Y13333
X22650Y13333
X22650Y16333
X21650Y16333
X20650Y16333
X19650Y16333
X18650Y16333
X17650Y16333
X16650Y16333
T02
X18950Y19018
X19200Y20793
X20170Y20793
X21145Y20838
X22160Y20883
X22160Y21808
X21190Y21858
X20170Y21808
X19200Y21858
X18135Y21903
X18135Y20838
X23020Y18968
X23570Y17953
X27545Y17953
X27150Y14833
X34520Y18088
X34520Y22073
X28650Y8333
X32720Y2493
X36690Y2443
X11235Y21423
X7355Y21423
T03
X16650Y16333
X17650Y16333
X18650Y16333
X19650Y16333
X20650Y16333
X21650Y16333
X22650Y16333
X22650Y13333
X21650Y13333
X20650Y13333
X19650Y13333
X18650Y13333
X17650Y13333
X16650Y13333
T04
X15120Y13363
X12760Y14303
X11760Y14303
X11940Y18443
X12940Y18443
X12650Y21333
X13650Y21333
X11305Y21373
X7305Y21373
X3835Y19088
X3835Y15088
X15120Y9363
X23615Y17958
X22965Y18948
X18965Y18948
X27150Y20833
X27150Y21833
X30150Y21833
X30150Y20833
X32150Y18833
X32150Y17833
X32150Y16833
X34510Y18133
X34510Y22133
X27615Y17958
X28460Y7903
X32460Y7903
X35650Y7333
X35650Y6333
X36695Y2468
X32695Y2468
T05
X22150Y20833
X21150Y20833
X20150Y20833
X19150Y20833
X18150Y20833
X18150Y21833
X19150Y21833
X20150Y21833
X21150Y21833
X22150Y21833
T06
X2405Y3983
X5405Y3983
X10500Y8363
X11500Y8363
X12500Y8363
X8145Y16018
X8145Y17018
X8145Y18018
T07
X9650Y12333
X5650Y12333
X18650Y10333
X22650Y10333
X27150Y6333
X31150Y6333
X32650Y4333
X36650Y4333
X29650Y15333
X25650Y15333
T08
X25150Y12833
X27150Y12833
X29150Y12833
X29150Y9833
X27150Y9833
X25150Y9833
X35150Y9833
X35150Y12833
X25090Y2733
X16230Y2733
T09
X27370Y2833
X28930Y2833
X3650Y9053
X3650Y10613
T10
X5857Y15062
X5857Y19125
X9454Y5990
X13516Y5990
M30
