G75*
G70*
%OFA0B0*%
%FSLAX24Y24*%
%IPPOS*%
%LPD*%
%AMOC8*
5,1,8,0,0,1.08239X$1,22.5*
%
%ADD10C,0.0000*%
%ADD11C,0.0060*%
%ADD12C,0.0100*%
%ADD13C,0.0070*%
%ADD14C,0.0080*%
%ADD15C,0.0040*%
%ADD16C,0.0050*%
%ADD17C,0.0200*%
%ADD18R,0.4200X0.0300*%
%ADD19R,0.0750X0.0200*%
%ADD20R,0.0300X0.0200*%
%ADD21R,0.0240X0.0340*%
%ADD22R,0.0200X0.0800*%
%ADD23R,0.0340X0.0240*%
%ADD24R,0.0800X0.0200*%
%ADD25R,0.0200X0.0750*%
%ADD26C,0.0120*%
%ADD27R,0.0250X0.1500*%
%ADD28C,0.0020*%
%ADD29R,0.0250X0.0450*%
%ADD30R,0.0250X0.1600*%
%ADD31R,0.4000X0.0200*%
%ADD32R,0.1550X0.0050*%
%ADD33R,0.1900X0.0200*%
%ADD34R,0.3600X0.0200*%
%ADD35R,0.0500X0.0500*%
D10*
X000100Y000807D02*
X000102Y023854D01*
X034671Y023853D01*
X034671Y000800D01*
X000100Y000807D01*
X000687Y001898D02*
X000689Y001946D01*
X000695Y001994D01*
X000705Y002041D01*
X000718Y002087D01*
X000736Y002132D01*
X000756Y002176D01*
X000781Y002218D01*
X000809Y002257D01*
X000839Y002294D01*
X000873Y002328D01*
X000910Y002360D01*
X000948Y002389D01*
X000989Y002414D01*
X001032Y002436D01*
X001077Y002454D01*
X001123Y002468D01*
X001170Y002479D01*
X001218Y002486D01*
X001266Y002489D01*
X001314Y002488D01*
X001362Y002483D01*
X001410Y002474D01*
X001456Y002462D01*
X001501Y002445D01*
X001545Y002425D01*
X001587Y002402D01*
X001627Y002375D01*
X001665Y002345D01*
X001700Y002312D01*
X001732Y002276D01*
X001762Y002238D01*
X001788Y002197D01*
X001810Y002154D01*
X001830Y002110D01*
X001845Y002065D01*
X001857Y002018D01*
X001865Y001970D01*
X001869Y001922D01*
X001869Y001874D01*
X001865Y001826D01*
X001857Y001778D01*
X001845Y001731D01*
X001830Y001686D01*
X001810Y001642D01*
X001788Y001599D01*
X001762Y001558D01*
X001732Y001520D01*
X001700Y001484D01*
X001665Y001451D01*
X001627Y001421D01*
X001587Y001394D01*
X001545Y001371D01*
X001501Y001351D01*
X001456Y001334D01*
X001410Y001322D01*
X001362Y001313D01*
X001314Y001308D01*
X001266Y001307D01*
X001218Y001310D01*
X001170Y001317D01*
X001123Y001328D01*
X001077Y001342D01*
X001032Y001360D01*
X000989Y001382D01*
X000948Y001407D01*
X000910Y001436D01*
X000873Y001468D01*
X000839Y001502D01*
X000809Y001539D01*
X000781Y001578D01*
X000756Y001620D01*
X000736Y001664D01*
X000718Y001709D01*
X000705Y001755D01*
X000695Y001802D01*
X000689Y001850D01*
X000687Y001898D01*
X000643Y022485D02*
X000645Y022533D01*
X000651Y022581D01*
X000661Y022628D01*
X000674Y022674D01*
X000692Y022719D01*
X000712Y022763D01*
X000737Y022805D01*
X000765Y022844D01*
X000795Y022881D01*
X000829Y022915D01*
X000866Y022947D01*
X000904Y022976D01*
X000945Y023001D01*
X000988Y023023D01*
X001033Y023041D01*
X001079Y023055D01*
X001126Y023066D01*
X001174Y023073D01*
X001222Y023076D01*
X001270Y023075D01*
X001318Y023070D01*
X001366Y023061D01*
X001412Y023049D01*
X001457Y023032D01*
X001501Y023012D01*
X001543Y022989D01*
X001583Y022962D01*
X001621Y022932D01*
X001656Y022899D01*
X001688Y022863D01*
X001718Y022825D01*
X001744Y022784D01*
X001766Y022741D01*
X001786Y022697D01*
X001801Y022652D01*
X001813Y022605D01*
X001821Y022557D01*
X001825Y022509D01*
X001825Y022461D01*
X001821Y022413D01*
X001813Y022365D01*
X001801Y022318D01*
X001786Y022273D01*
X001766Y022229D01*
X001744Y022186D01*
X001718Y022145D01*
X001688Y022107D01*
X001656Y022071D01*
X001621Y022038D01*
X001583Y022008D01*
X001543Y021981D01*
X001501Y021958D01*
X001457Y021938D01*
X001412Y021921D01*
X001366Y021909D01*
X001318Y021900D01*
X001270Y021895D01*
X001222Y021894D01*
X001174Y021897D01*
X001126Y021904D01*
X001079Y021915D01*
X001033Y021929D01*
X000988Y021947D01*
X000945Y021969D01*
X000904Y021994D01*
X000866Y022023D01*
X000829Y022055D01*
X000795Y022089D01*
X000765Y022126D01*
X000737Y022165D01*
X000712Y022207D01*
X000692Y022251D01*
X000674Y022296D01*
X000661Y022342D01*
X000651Y022389D01*
X000645Y022437D01*
X000643Y022485D01*
X032730Y022791D02*
X032732Y022839D01*
X032738Y022887D01*
X032748Y022934D01*
X032761Y022980D01*
X032779Y023025D01*
X032799Y023069D01*
X032824Y023111D01*
X032852Y023150D01*
X032882Y023187D01*
X032916Y023221D01*
X032953Y023253D01*
X032991Y023282D01*
X033032Y023307D01*
X033075Y023329D01*
X033120Y023347D01*
X033166Y023361D01*
X033213Y023372D01*
X033261Y023379D01*
X033309Y023382D01*
X033357Y023381D01*
X033405Y023376D01*
X033453Y023367D01*
X033499Y023355D01*
X033544Y023338D01*
X033588Y023318D01*
X033630Y023295D01*
X033670Y023268D01*
X033708Y023238D01*
X033743Y023205D01*
X033775Y023169D01*
X033805Y023131D01*
X033831Y023090D01*
X033853Y023047D01*
X033873Y023003D01*
X033888Y022958D01*
X033900Y022911D01*
X033908Y022863D01*
X033912Y022815D01*
X033912Y022767D01*
X033908Y022719D01*
X033900Y022671D01*
X033888Y022624D01*
X033873Y022579D01*
X033853Y022535D01*
X033831Y022492D01*
X033805Y022451D01*
X033775Y022413D01*
X033743Y022377D01*
X033708Y022344D01*
X033670Y022314D01*
X033630Y022287D01*
X033588Y022264D01*
X033544Y022244D01*
X033499Y022227D01*
X033453Y022215D01*
X033405Y022206D01*
X033357Y022201D01*
X033309Y022200D01*
X033261Y022203D01*
X033213Y022210D01*
X033166Y022221D01*
X033120Y022235D01*
X033075Y022253D01*
X033032Y022275D01*
X032991Y022300D01*
X032953Y022329D01*
X032916Y022361D01*
X032882Y022395D01*
X032852Y022432D01*
X032824Y022471D01*
X032799Y022513D01*
X032779Y022557D01*
X032761Y022602D01*
X032748Y022648D01*
X032738Y022695D01*
X032732Y022743D01*
X032730Y022791D01*
X033210Y001898D02*
X033212Y001946D01*
X033218Y001994D01*
X033228Y002041D01*
X033241Y002087D01*
X033259Y002132D01*
X033279Y002176D01*
X033304Y002218D01*
X033332Y002257D01*
X033362Y002294D01*
X033396Y002328D01*
X033433Y002360D01*
X033471Y002389D01*
X033512Y002414D01*
X033555Y002436D01*
X033600Y002454D01*
X033646Y002468D01*
X033693Y002479D01*
X033741Y002486D01*
X033789Y002489D01*
X033837Y002488D01*
X033885Y002483D01*
X033933Y002474D01*
X033979Y002462D01*
X034024Y002445D01*
X034068Y002425D01*
X034110Y002402D01*
X034150Y002375D01*
X034188Y002345D01*
X034223Y002312D01*
X034255Y002276D01*
X034285Y002238D01*
X034311Y002197D01*
X034333Y002154D01*
X034353Y002110D01*
X034368Y002065D01*
X034380Y002018D01*
X034388Y001970D01*
X034392Y001922D01*
X034392Y001874D01*
X034388Y001826D01*
X034380Y001778D01*
X034368Y001731D01*
X034353Y001686D01*
X034333Y001642D01*
X034311Y001599D01*
X034285Y001558D01*
X034255Y001520D01*
X034223Y001484D01*
X034188Y001451D01*
X034150Y001421D01*
X034110Y001394D01*
X034068Y001371D01*
X034024Y001351D01*
X033979Y001334D01*
X033933Y001322D01*
X033885Y001313D01*
X033837Y001308D01*
X033789Y001307D01*
X033741Y001310D01*
X033693Y001317D01*
X033646Y001328D01*
X033600Y001342D01*
X033555Y001360D01*
X033512Y001382D01*
X033471Y001407D01*
X033433Y001436D01*
X033396Y001468D01*
X033362Y001502D01*
X033332Y001539D01*
X033304Y001578D01*
X033279Y001620D01*
X033259Y001664D01*
X033241Y001709D01*
X033228Y001755D01*
X033218Y001802D01*
X033212Y001850D01*
X033210Y001898D01*
D11*
X029697Y004299D02*
X028097Y004299D01*
X028080Y004301D01*
X028063Y004305D01*
X028047Y004312D01*
X028033Y004322D01*
X028020Y004335D01*
X028010Y004349D01*
X028003Y004365D01*
X027999Y004382D01*
X027997Y004399D01*
X027997Y004999D01*
X027999Y005016D01*
X028003Y005033D01*
X028010Y005049D01*
X028020Y005063D01*
X028033Y005076D01*
X028047Y005086D01*
X028063Y005093D01*
X028080Y005097D01*
X028097Y005099D01*
X029697Y005099D01*
X029714Y005097D01*
X029731Y005093D01*
X029747Y005086D01*
X029761Y005076D01*
X029774Y005063D01*
X029784Y005049D01*
X029791Y005033D01*
X029795Y005016D01*
X029797Y004999D01*
X029797Y004399D01*
X029795Y004382D01*
X029791Y004365D01*
X029784Y004349D01*
X029774Y004335D01*
X029761Y004322D01*
X029747Y004312D01*
X029731Y004305D01*
X029714Y004301D01*
X029697Y004299D01*
X029147Y004699D02*
X028897Y004699D01*
X028897Y004949D01*
X028897Y004699D02*
X028897Y004449D01*
X028897Y004699D02*
X028497Y004449D01*
X028497Y004949D01*
X028897Y004699D01*
X028297Y004699D01*
X029173Y006107D02*
X028183Y007087D01*
X028183Y006597D02*
X027843Y006597D01*
X029173Y006597D02*
X029413Y006597D01*
X031253Y005747D02*
X026103Y005747D01*
X026103Y017197D01*
X031253Y017197D01*
X031253Y005747D01*
X023417Y007118D02*
X023367Y008268D01*
X023267Y008368D01*
X019567Y008368D01*
X019467Y008268D01*
X019417Y007118D01*
X017778Y005959D02*
X017778Y005059D01*
X017328Y005209D02*
X017328Y005859D01*
X017078Y005859D01*
X015078Y005859D01*
X015078Y005409D01*
X017078Y005409D01*
X017078Y005659D01*
X017228Y005659D01*
X017228Y005209D01*
X017078Y005659D02*
X017078Y005859D01*
X017778Y005959D02*
X007878Y005959D01*
X007878Y005059D01*
X008578Y005409D02*
X010578Y005409D01*
X010578Y005859D01*
X008578Y005859D01*
X008578Y005409D01*
X007878Y003759D02*
X007878Y002859D01*
X017778Y002859D01*
X017778Y003759D01*
X017078Y003409D02*
X015078Y003409D01*
X015078Y002959D01*
X017078Y002959D01*
X017078Y003409D01*
X021435Y005635D02*
X021435Y006185D01*
X021335Y006135D01*
X021535Y006135D01*
X021435Y006185D01*
X021435Y006335D01*
X021535Y006135D01*
X021585Y006135D01*
X021435Y006385D01*
X021435Y006335D01*
X021335Y006135D01*
X021285Y006135D01*
X021435Y006385D01*
X017716Y008501D02*
X017716Y008651D01*
X017666Y008701D01*
X017666Y010601D01*
X017716Y010651D01*
X017716Y010801D01*
X017714Y010818D01*
X017710Y010835D01*
X017703Y010851D01*
X017693Y010865D01*
X017680Y010878D01*
X017666Y010888D01*
X017650Y010895D01*
X017633Y010899D01*
X017616Y010901D01*
X016916Y010901D01*
X016899Y010899D01*
X016882Y010895D01*
X016866Y010888D01*
X016852Y010878D01*
X016839Y010865D01*
X016829Y010851D01*
X016822Y010835D01*
X016818Y010818D01*
X016816Y010801D01*
X016816Y010651D01*
X016866Y010601D01*
X016866Y008701D01*
X016816Y008651D01*
X016816Y008501D01*
X016818Y008484D01*
X016822Y008467D01*
X016829Y008451D01*
X016839Y008437D01*
X016852Y008424D01*
X016866Y008414D01*
X016882Y008407D01*
X016899Y008403D01*
X016916Y008401D01*
X017616Y008401D01*
X017633Y008403D01*
X017650Y008407D01*
X017666Y008414D01*
X017680Y008424D01*
X017693Y008437D01*
X017703Y008451D01*
X017710Y008467D01*
X017714Y008484D01*
X017716Y008501D01*
X020517Y009911D02*
X020517Y010511D01*
X020519Y010528D01*
X020523Y010545D01*
X020530Y010561D01*
X020540Y010575D01*
X020553Y010588D01*
X020567Y010598D01*
X020583Y010605D01*
X020600Y010609D01*
X020617Y010611D01*
X022217Y010611D01*
X022234Y010609D01*
X022251Y010605D01*
X022267Y010598D01*
X022281Y010588D01*
X022294Y010575D01*
X022304Y010561D01*
X022311Y010545D01*
X022315Y010528D01*
X022317Y010511D01*
X022317Y009911D01*
X022315Y009894D01*
X022311Y009877D01*
X022304Y009861D01*
X022294Y009847D01*
X022281Y009834D01*
X022267Y009824D01*
X022251Y009817D01*
X022234Y009813D01*
X022217Y009811D01*
X020617Y009811D01*
X020600Y009813D01*
X020583Y009817D01*
X020567Y009824D01*
X020553Y009834D01*
X020540Y009847D01*
X020530Y009861D01*
X020523Y009877D01*
X020519Y009894D01*
X020517Y009911D01*
X020817Y010211D02*
X021417Y010211D01*
X021417Y010461D01*
X021417Y010211D02*
X021417Y009961D01*
X021417Y010211D02*
X021017Y009961D01*
X021017Y010461D01*
X021417Y010211D01*
X021667Y010211D01*
X022059Y011893D02*
X022209Y011893D01*
X022259Y011943D01*
X024159Y011943D01*
X024209Y011893D01*
X024359Y011893D01*
X024376Y011895D01*
X024393Y011899D01*
X024409Y011906D01*
X024423Y011916D01*
X024436Y011929D01*
X024446Y011943D01*
X024453Y011959D01*
X024457Y011976D01*
X024459Y011993D01*
X024459Y012693D01*
X024457Y012710D01*
X024453Y012727D01*
X024446Y012743D01*
X024436Y012757D01*
X024423Y012770D01*
X024409Y012780D01*
X024393Y012787D01*
X024376Y012791D01*
X024359Y012793D01*
X024209Y012793D01*
X024159Y012743D01*
X022259Y012743D01*
X022209Y012793D01*
X022059Y012793D01*
X022042Y012791D01*
X022025Y012787D01*
X022009Y012780D01*
X021995Y012770D01*
X021982Y012757D01*
X021972Y012743D01*
X021965Y012727D01*
X021961Y012710D01*
X021959Y012693D01*
X021959Y011993D01*
X021961Y011976D01*
X021965Y011959D01*
X021972Y011943D01*
X021982Y011929D01*
X021995Y011916D01*
X022009Y011906D01*
X022025Y011899D01*
X022042Y011895D01*
X022059Y011893D01*
X019320Y013281D02*
X019292Y013237D01*
X019261Y013195D01*
X019226Y013156D01*
X019189Y013119D01*
X019150Y013085D01*
X019108Y013055D01*
X019064Y013027D01*
X019018Y013003D01*
X018970Y012982D01*
X018920Y012965D01*
X018870Y012951D01*
X018819Y012942D01*
X018767Y012936D01*
X018715Y012934D01*
X018110Y013987D02*
X018138Y014031D01*
X018169Y014073D01*
X018204Y014112D01*
X018241Y014149D01*
X018280Y014183D01*
X018322Y014213D01*
X018366Y014241D01*
X018412Y014265D01*
X018460Y014286D01*
X018510Y014303D01*
X018560Y014317D01*
X018611Y014326D01*
X018663Y014332D01*
X018715Y014334D01*
X018115Y014484D02*
X017865Y014734D01*
X017615Y014484D01*
X017865Y014234D01*
X018110Y013281D02*
X018138Y013237D01*
X018169Y013195D01*
X018204Y013156D01*
X018241Y013119D01*
X018280Y013085D01*
X018322Y013055D01*
X018366Y013027D01*
X018412Y013003D01*
X018460Y012982D01*
X018510Y012965D01*
X018560Y012951D01*
X018611Y012942D01*
X018663Y012936D01*
X018715Y012934D01*
X019320Y013987D02*
X019292Y014031D01*
X019261Y014073D01*
X019226Y014112D01*
X019189Y014149D01*
X019150Y014183D01*
X019108Y014213D01*
X019064Y014241D01*
X019018Y014265D01*
X018970Y014286D01*
X018920Y014303D01*
X018870Y014317D01*
X018819Y014326D01*
X018767Y014332D01*
X018715Y014334D01*
X017665Y013634D02*
X017667Y013699D01*
X017673Y013763D01*
X017683Y013827D01*
X017697Y013890D01*
X017714Y013952D01*
X017736Y014013D01*
X017761Y014073D01*
X017790Y014131D01*
X017822Y014187D01*
X017858Y014241D01*
X017897Y014292D01*
X017939Y014341D01*
X017984Y014388D01*
X018032Y014431D01*
X018082Y014472D01*
X018135Y014509D01*
X018190Y014543D01*
X018247Y014574D01*
X018306Y014601D01*
X018366Y014624D01*
X018428Y014644D01*
X018490Y014660D01*
X018554Y014672D01*
X018618Y014680D01*
X018683Y014684D01*
X018747Y014684D01*
X018812Y014680D01*
X018876Y014672D01*
X018940Y014660D01*
X019002Y014644D01*
X019064Y014624D01*
X019124Y014601D01*
X019183Y014574D01*
X019240Y014543D01*
X019295Y014509D01*
X019348Y014472D01*
X019398Y014431D01*
X019446Y014388D01*
X019491Y014341D01*
X019533Y014292D01*
X019572Y014241D01*
X019608Y014187D01*
X019640Y014131D01*
X019669Y014073D01*
X019694Y014013D01*
X019716Y013952D01*
X019733Y013890D01*
X019747Y013827D01*
X019757Y013763D01*
X019763Y013699D01*
X019765Y013634D01*
X019763Y013569D01*
X019757Y013505D01*
X019747Y013441D01*
X019733Y013378D01*
X019716Y013316D01*
X019694Y013255D01*
X019669Y013195D01*
X019640Y013137D01*
X019608Y013081D01*
X019572Y013027D01*
X019533Y012976D01*
X019491Y012927D01*
X019446Y012880D01*
X019398Y012837D01*
X019348Y012796D01*
X019295Y012759D01*
X019240Y012725D01*
X019183Y012694D01*
X019124Y012667D01*
X019064Y012644D01*
X019002Y012624D01*
X018940Y012608D01*
X018876Y012596D01*
X018812Y012588D01*
X018747Y012584D01*
X018683Y012584D01*
X018618Y012588D01*
X018554Y012596D01*
X018490Y012608D01*
X018428Y012624D01*
X018366Y012644D01*
X018306Y012667D01*
X018247Y012694D01*
X018190Y012725D01*
X018135Y012759D01*
X018082Y012796D01*
X018032Y012837D01*
X017984Y012880D01*
X017939Y012927D01*
X017897Y012976D01*
X017858Y013027D01*
X017822Y013081D01*
X017790Y013137D01*
X017761Y013195D01*
X017736Y013255D01*
X017714Y013316D01*
X017697Y013378D01*
X017683Y013441D01*
X017673Y013505D01*
X017667Y013569D01*
X017665Y013634D01*
X016639Y014296D02*
X015939Y014296D01*
X015922Y014298D01*
X015905Y014302D01*
X015889Y014309D01*
X015875Y014319D01*
X015862Y014332D01*
X015852Y014346D01*
X015845Y014362D01*
X015841Y014379D01*
X015839Y014396D01*
X015839Y014546D01*
X015889Y014596D01*
X015889Y016496D01*
X015839Y016546D01*
X015839Y016696D01*
X015841Y016713D01*
X015845Y016730D01*
X015852Y016746D01*
X015862Y016760D01*
X015875Y016773D01*
X015889Y016783D01*
X015905Y016790D01*
X015922Y016794D01*
X015939Y016796D01*
X016639Y016796D01*
X016656Y016794D01*
X016673Y016790D01*
X016689Y016783D01*
X016703Y016773D01*
X016716Y016760D01*
X016726Y016746D01*
X016733Y016730D01*
X016737Y016713D01*
X016739Y016696D01*
X016739Y016546D01*
X016689Y016496D01*
X016689Y014596D01*
X016739Y014546D01*
X016739Y014396D01*
X016737Y014379D01*
X016733Y014362D01*
X016726Y014346D01*
X016716Y014332D01*
X016703Y014319D01*
X016689Y014309D01*
X016673Y014302D01*
X016656Y014298D01*
X016639Y014296D01*
X014319Y014142D02*
X014319Y013992D01*
X014317Y013975D01*
X014313Y013958D01*
X014306Y013942D01*
X014296Y013928D01*
X014283Y013915D01*
X014269Y013905D01*
X014253Y013898D01*
X014236Y013894D01*
X014219Y013892D01*
X013519Y013892D01*
X013502Y013894D01*
X013485Y013898D01*
X013469Y013905D01*
X013455Y013915D01*
X013442Y013928D01*
X013432Y013942D01*
X013425Y013958D01*
X013421Y013975D01*
X013419Y013992D01*
X013419Y014142D01*
X013469Y014192D01*
X013469Y016092D01*
X013419Y016142D01*
X013419Y016292D01*
X013421Y016309D01*
X013425Y016326D01*
X013432Y016342D01*
X013442Y016356D01*
X013455Y016369D01*
X013469Y016379D01*
X013485Y016386D01*
X013502Y016390D01*
X013519Y016392D01*
X014219Y016392D01*
X014236Y016390D01*
X014253Y016386D01*
X014269Y016379D01*
X014283Y016369D01*
X014296Y016356D01*
X014306Y016342D01*
X014313Y016326D01*
X014317Y016309D01*
X014319Y016292D01*
X014319Y016142D01*
X014269Y016092D01*
X014269Y014192D01*
X014319Y014142D01*
X008626Y013485D02*
X008626Y013335D01*
X008576Y013285D01*
X008576Y011385D01*
X008626Y011335D01*
X008626Y011185D01*
X008624Y011168D01*
X008620Y011151D01*
X008613Y011135D01*
X008603Y011121D01*
X008590Y011108D01*
X008576Y011098D01*
X008560Y011091D01*
X008543Y011087D01*
X008526Y011085D01*
X007826Y011085D01*
X007809Y011087D01*
X007792Y011091D01*
X007776Y011098D01*
X007762Y011108D01*
X007749Y011121D01*
X007739Y011135D01*
X007732Y011151D01*
X007728Y011168D01*
X007726Y011185D01*
X007726Y011335D01*
X007776Y011385D01*
X007776Y013285D01*
X007726Y013335D01*
X007726Y013485D01*
X007728Y013502D01*
X007732Y013519D01*
X007739Y013535D01*
X007749Y013549D01*
X007762Y013562D01*
X007776Y013572D01*
X007792Y013579D01*
X007809Y013583D01*
X007826Y013585D01*
X008526Y013585D01*
X008543Y013583D01*
X008560Y013579D01*
X008576Y013572D01*
X008590Y013562D01*
X008603Y013549D01*
X008613Y013535D01*
X008620Y013519D01*
X008624Y013502D01*
X008626Y013485D01*
X004604Y011025D02*
X004054Y011025D01*
X000554Y011025D02*
X000558Y011184D01*
X000570Y011344D01*
X000589Y011502D01*
X000616Y011659D01*
X000651Y011815D01*
X000694Y011968D01*
X000744Y012120D01*
X000801Y012269D01*
X000866Y012415D01*
X000938Y012557D01*
X001016Y012696D01*
X001102Y012831D01*
X001194Y012961D01*
X001292Y013087D01*
X001396Y013208D01*
X001506Y013323D01*
X001621Y013433D01*
X001742Y013537D01*
X001868Y013635D01*
X001998Y013727D01*
X002133Y013813D01*
X002272Y013891D01*
X002414Y013963D01*
X002560Y014028D01*
X002709Y014085D01*
X002861Y014135D01*
X003014Y014178D01*
X003170Y014213D01*
X003327Y014240D01*
X003485Y014259D01*
X003645Y014271D01*
X003804Y014275D01*
X003963Y014271D01*
X004123Y014259D01*
X004281Y014240D01*
X004438Y014213D01*
X004594Y014178D01*
X004747Y014135D01*
X004899Y014085D01*
X005048Y014028D01*
X005194Y013963D01*
X005336Y013891D01*
X005475Y013813D01*
X005610Y013727D01*
X005740Y013635D01*
X005866Y013537D01*
X005987Y013433D01*
X006102Y013323D01*
X006212Y013208D01*
X006316Y013087D01*
X006414Y012961D01*
X006506Y012831D01*
X006592Y012696D01*
X006670Y012557D01*
X006742Y012415D01*
X006807Y012269D01*
X006864Y012120D01*
X006914Y011968D01*
X006957Y011815D01*
X006992Y011659D01*
X007019Y011502D01*
X007038Y011344D01*
X007050Y011184D01*
X007054Y011025D01*
X007050Y010866D01*
X007038Y010706D01*
X007019Y010548D01*
X006992Y010391D01*
X006957Y010235D01*
X006914Y010082D01*
X006864Y009930D01*
X006807Y009781D01*
X006742Y009635D01*
X006670Y009493D01*
X006592Y009354D01*
X006506Y009219D01*
X006414Y009089D01*
X006316Y008963D01*
X006212Y008842D01*
X006102Y008727D01*
X005987Y008617D01*
X005866Y008513D01*
X005740Y008415D01*
X005610Y008323D01*
X005475Y008237D01*
X005336Y008159D01*
X005194Y008087D01*
X005048Y008022D01*
X004899Y007965D01*
X004747Y007915D01*
X004594Y007872D01*
X004438Y007837D01*
X004281Y007810D01*
X004123Y007791D01*
X003963Y007779D01*
X003804Y007775D01*
X003645Y007779D01*
X003485Y007791D01*
X003327Y007810D01*
X003170Y007837D01*
X003014Y007872D01*
X002861Y007915D01*
X002709Y007965D01*
X002560Y008022D01*
X002414Y008087D01*
X002272Y008159D01*
X002133Y008237D01*
X001998Y008323D01*
X001868Y008415D01*
X001742Y008513D01*
X001621Y008617D01*
X001506Y008727D01*
X001396Y008842D01*
X001292Y008963D01*
X001194Y009089D01*
X001102Y009219D01*
X001016Y009354D01*
X000938Y009493D01*
X000866Y009635D01*
X000801Y009781D01*
X000744Y009930D01*
X000694Y010082D01*
X000651Y010235D01*
X000616Y010391D01*
X000589Y010548D01*
X000570Y010706D01*
X000558Y010866D01*
X000554Y011025D01*
X000854Y011025D02*
X001454Y011025D01*
X001154Y010725D02*
X001154Y011325D01*
X003004Y011025D02*
X003454Y011025D01*
X003454Y010275D01*
X003704Y010275D01*
X003704Y011775D01*
X003454Y011775D01*
X003454Y011025D01*
X008384Y008848D02*
X008428Y008820D01*
X008470Y008789D01*
X008509Y008754D01*
X008546Y008717D01*
X008580Y008678D01*
X008610Y008636D01*
X008638Y008592D01*
X008662Y008546D01*
X008683Y008498D01*
X008700Y008448D01*
X008714Y008398D01*
X008723Y008347D01*
X008729Y008295D01*
X008731Y008243D01*
X008881Y008843D02*
X009131Y009093D01*
X008881Y009343D01*
X008631Y009093D01*
X007678Y008848D02*
X007634Y008820D01*
X007592Y008789D01*
X007553Y008754D01*
X007516Y008717D01*
X007482Y008678D01*
X007452Y008636D01*
X007424Y008592D01*
X007400Y008546D01*
X007379Y008498D01*
X007362Y008448D01*
X007348Y008398D01*
X007339Y008347D01*
X007333Y008295D01*
X007331Y008243D01*
X008384Y007638D02*
X008428Y007666D01*
X008470Y007697D01*
X008509Y007732D01*
X008546Y007769D01*
X008580Y007808D01*
X008610Y007850D01*
X008638Y007894D01*
X008662Y007940D01*
X008683Y007988D01*
X008700Y008038D01*
X008714Y008088D01*
X008723Y008139D01*
X008729Y008191D01*
X008731Y008243D01*
X006981Y008243D02*
X006983Y008308D01*
X006989Y008372D01*
X006999Y008436D01*
X007013Y008499D01*
X007030Y008561D01*
X007052Y008622D01*
X007077Y008682D01*
X007106Y008740D01*
X007138Y008796D01*
X007174Y008850D01*
X007213Y008901D01*
X007255Y008950D01*
X007300Y008997D01*
X007348Y009040D01*
X007398Y009081D01*
X007451Y009118D01*
X007506Y009152D01*
X007563Y009183D01*
X007622Y009210D01*
X007682Y009233D01*
X007744Y009253D01*
X007806Y009269D01*
X007870Y009281D01*
X007934Y009289D01*
X007999Y009293D01*
X008063Y009293D01*
X008128Y009289D01*
X008192Y009281D01*
X008256Y009269D01*
X008318Y009253D01*
X008380Y009233D01*
X008440Y009210D01*
X008499Y009183D01*
X008556Y009152D01*
X008611Y009118D01*
X008664Y009081D01*
X008714Y009040D01*
X008762Y008997D01*
X008807Y008950D01*
X008849Y008901D01*
X008888Y008850D01*
X008924Y008796D01*
X008956Y008740D01*
X008985Y008682D01*
X009010Y008622D01*
X009032Y008561D01*
X009049Y008499D01*
X009063Y008436D01*
X009073Y008372D01*
X009079Y008308D01*
X009081Y008243D01*
X009079Y008178D01*
X009073Y008114D01*
X009063Y008050D01*
X009049Y007987D01*
X009032Y007925D01*
X009010Y007864D01*
X008985Y007804D01*
X008956Y007746D01*
X008924Y007690D01*
X008888Y007636D01*
X008849Y007585D01*
X008807Y007536D01*
X008762Y007489D01*
X008714Y007446D01*
X008664Y007405D01*
X008611Y007368D01*
X008556Y007334D01*
X008499Y007303D01*
X008440Y007276D01*
X008380Y007253D01*
X008318Y007233D01*
X008256Y007217D01*
X008192Y007205D01*
X008128Y007197D01*
X008063Y007193D01*
X007999Y007193D01*
X007934Y007197D01*
X007870Y007205D01*
X007806Y007217D01*
X007744Y007233D01*
X007682Y007253D01*
X007622Y007276D01*
X007563Y007303D01*
X007506Y007334D01*
X007451Y007368D01*
X007398Y007405D01*
X007348Y007446D01*
X007300Y007489D01*
X007255Y007536D01*
X007213Y007585D01*
X007174Y007636D01*
X007138Y007690D01*
X007106Y007746D01*
X007077Y007804D01*
X007052Y007864D01*
X007030Y007925D01*
X007013Y007987D01*
X006999Y008050D01*
X006989Y008114D01*
X006983Y008178D01*
X006981Y008243D01*
X007331Y008243D02*
X007333Y008191D01*
X007339Y008139D01*
X007348Y008088D01*
X007362Y008038D01*
X007379Y007988D01*
X007400Y007940D01*
X007424Y007894D01*
X007452Y007850D01*
X007482Y007808D01*
X007516Y007769D01*
X007553Y007732D01*
X007592Y007697D01*
X007634Y007666D01*
X007678Y007638D01*
X005887Y006276D02*
X004687Y006276D01*
X004687Y002276D01*
X004087Y002276D01*
X003687Y002276D01*
X003687Y002646D01*
X003537Y002646D02*
X003537Y002496D01*
X001737Y002496D01*
X000987Y002496D01*
X000987Y002276D01*
X001387Y002276D01*
X001837Y002276D01*
X003687Y002276D01*
X003987Y002076D02*
X004087Y002276D01*
X003987Y002076D02*
X005887Y002076D01*
X005887Y002276D01*
X005887Y006276D01*
X005787Y006066D02*
X005787Y004466D01*
X004787Y004466D01*
X004787Y006066D01*
X005787Y006066D01*
X005187Y005906D02*
X005437Y004706D01*
X005387Y004656D02*
X005137Y005856D01*
X005063Y005829D02*
X005080Y005855D01*
X005099Y005878D01*
X005122Y005898D01*
X005146Y005915D01*
X005173Y005929D01*
X005202Y005940D01*
X005231Y005946D01*
X005261Y005949D01*
X005292Y005948D01*
X005321Y005943D01*
X005350Y005934D01*
X005378Y005921D01*
X005403Y005905D01*
X005427Y005886D01*
X005407Y005906D02*
X005448Y005871D01*
X005487Y005832D01*
X005523Y005792D01*
X005556Y005748D01*
X005586Y005703D01*
X005614Y005656D01*
X005637Y005607D01*
X005658Y005556D01*
X005675Y005505D01*
X005689Y005452D01*
X005699Y005399D01*
X005705Y005345D01*
X005708Y005290D01*
X005707Y005236D01*
X005702Y005181D01*
X005694Y005128D01*
X005683Y005074D01*
X005667Y005022D01*
X005649Y004971D01*
X005626Y004921D01*
X005601Y004873D01*
X005572Y004827D01*
X005541Y004783D01*
X005506Y004741D01*
X005469Y004701D01*
X005429Y004664D01*
X005427Y004666D02*
X005403Y004647D01*
X005378Y004631D01*
X005350Y004618D01*
X005322Y004608D01*
X005292Y004601D01*
X005262Y004597D01*
X005232Y004597D01*
X005201Y004601D01*
X005172Y004608D01*
X005143Y004618D01*
X005116Y004631D01*
X005090Y004647D01*
X005067Y004666D01*
X005045Y004688D01*
X004787Y004096D02*
X004787Y002496D01*
X005787Y002496D01*
X005787Y004096D01*
X004787Y004096D01*
X005137Y003886D02*
X005387Y002686D01*
X005437Y002736D02*
X005187Y003936D01*
X005063Y003859D02*
X005080Y003885D01*
X005099Y003908D01*
X005122Y003928D01*
X005146Y003945D01*
X005173Y003959D01*
X005202Y003970D01*
X005231Y003976D01*
X005261Y003979D01*
X005292Y003978D01*
X005321Y003973D01*
X005350Y003964D01*
X005378Y003951D01*
X005403Y003935D01*
X005427Y003916D01*
X005077Y003876D02*
X005041Y003828D01*
X005008Y003777D01*
X004978Y003725D01*
X004952Y003671D01*
X004929Y003615D01*
X004909Y003558D01*
X004893Y003500D01*
X004881Y003441D01*
X004873Y003381D01*
X004868Y003321D01*
X004867Y003261D01*
X004870Y003201D01*
X004877Y003141D01*
X004887Y003081D01*
X004901Y003023D01*
X004919Y002965D01*
X004940Y002909D01*
X004965Y002854D01*
X004993Y002801D01*
X005024Y002749D01*
X005059Y002700D01*
X005045Y002718D02*
X005067Y002696D01*
X005090Y002677D01*
X005116Y002661D01*
X005143Y002648D01*
X005172Y002638D01*
X005201Y002631D01*
X005232Y002627D01*
X005262Y002627D01*
X005292Y002631D01*
X005322Y002638D01*
X005350Y002648D01*
X005378Y002661D01*
X005403Y002677D01*
X005427Y002696D01*
X005887Y002276D02*
X004687Y002276D01*
X005429Y002694D02*
X005469Y002731D01*
X005506Y002771D01*
X005541Y002813D01*
X005572Y002857D01*
X005601Y002903D01*
X005626Y002951D01*
X005648Y003001D01*
X005667Y003052D01*
X005683Y003104D01*
X005694Y003158D01*
X005702Y003211D01*
X005707Y003266D01*
X005708Y003320D01*
X005705Y003374D01*
X005699Y003429D01*
X005689Y003482D01*
X005675Y003535D01*
X005658Y003586D01*
X005637Y003637D01*
X005614Y003686D01*
X005586Y003733D01*
X005556Y003778D01*
X005523Y003821D01*
X005487Y003862D01*
X005448Y003901D01*
X005407Y003936D01*
X005059Y004670D02*
X005024Y004719D01*
X004993Y004771D01*
X004965Y004824D01*
X004940Y004879D01*
X004919Y004935D01*
X004901Y004993D01*
X004887Y005051D01*
X004877Y005111D01*
X004870Y005171D01*
X004867Y005231D01*
X004868Y005291D01*
X004873Y005351D01*
X004881Y005411D01*
X004893Y005470D01*
X004909Y005528D01*
X004929Y005585D01*
X004952Y005641D01*
X004978Y005695D01*
X005008Y005747D01*
X005041Y005798D01*
X005077Y005846D01*
X004687Y006276D02*
X003687Y006276D01*
X003687Y005916D01*
X003537Y005916D02*
X003537Y006066D01*
X001737Y006066D01*
X000987Y006066D01*
X000987Y004466D01*
X000987Y004096D01*
X000987Y002496D01*
X001387Y002276D02*
X001287Y002076D01*
X001937Y002076D01*
X001837Y002276D01*
X001737Y002496D02*
X001737Y004096D01*
X003537Y004096D01*
X003537Y003946D01*
X003687Y003946D02*
X003687Y004616D01*
X003537Y004616D02*
X003537Y004466D01*
X001737Y004466D01*
X001737Y006066D01*
X001987Y005916D02*
X003237Y005916D01*
X003687Y006276D02*
X000987Y006276D01*
X000987Y006066D01*
X001987Y005916D02*
X001987Y004616D01*
X003237Y004616D01*
X003237Y003946D02*
X001987Y003946D01*
X001987Y002646D01*
X003237Y002646D01*
X001737Y004096D02*
X000987Y004096D01*
X000987Y004466D02*
X001737Y004466D01*
X008328Y003609D02*
X008328Y002959D01*
X008578Y002959D01*
X010578Y002959D01*
X010578Y003409D01*
X008578Y003409D01*
X008578Y003159D01*
X008428Y003159D01*
X008428Y003609D01*
X008578Y003159D02*
X008578Y002959D01*
X010597Y007829D02*
X013297Y007829D01*
X013314Y007831D01*
X013331Y007835D01*
X013347Y007842D01*
X013361Y007852D01*
X013374Y007865D01*
X013384Y007879D01*
X013391Y007895D01*
X013395Y007912D01*
X013397Y007929D01*
X013397Y008929D01*
X013395Y008946D01*
X013391Y008963D01*
X013384Y008979D01*
X013374Y008993D01*
X013361Y009006D01*
X013347Y009016D01*
X013331Y009023D01*
X013314Y009027D01*
X013297Y009029D01*
X010597Y009029D01*
X010580Y009027D01*
X010563Y009023D01*
X010547Y009016D01*
X010533Y009006D01*
X010520Y008993D01*
X010510Y008979D01*
X010503Y008963D01*
X010499Y008946D01*
X010497Y008929D01*
X010497Y007929D01*
X010499Y007912D01*
X010503Y007895D01*
X010510Y007879D01*
X010520Y007865D01*
X010533Y007852D01*
X010547Y007842D01*
X010563Y007835D01*
X010580Y007831D01*
X010597Y007829D01*
X011347Y008429D02*
X011817Y008429D01*
X012067Y008429D02*
X012547Y008429D01*
X005097Y017000D02*
X001497Y017000D01*
X001497Y020700D01*
X005097Y020700D01*
X005097Y017000D01*
X003297Y018400D02*
X003297Y018850D01*
X003547Y018850D01*
X003547Y019000D01*
X003497Y019000D01*
X003297Y018850D02*
X003047Y018850D01*
X003047Y018700D01*
X003097Y018700D01*
X003297Y018850D02*
X003547Y019350D01*
X003047Y019350D01*
X003297Y018850D01*
X003297Y019850D01*
X023094Y019649D02*
X023094Y018049D01*
X023096Y018032D01*
X023100Y018015D01*
X023107Y017999D01*
X023117Y017985D01*
X023130Y017972D01*
X023144Y017962D01*
X023160Y017955D01*
X023177Y017951D01*
X023194Y017949D01*
X023794Y017949D01*
X023811Y017951D01*
X023828Y017955D01*
X023844Y017962D01*
X023858Y017972D01*
X023871Y017985D01*
X023881Y017999D01*
X023888Y018015D01*
X023892Y018032D01*
X023894Y018049D01*
X023894Y019649D01*
X023892Y019666D01*
X023888Y019683D01*
X023881Y019699D01*
X023871Y019713D01*
X023858Y019726D01*
X023844Y019736D01*
X023828Y019743D01*
X023811Y019747D01*
X023794Y019749D01*
X023194Y019749D01*
X023177Y019747D01*
X023160Y019743D01*
X023144Y019736D01*
X023130Y019726D01*
X023117Y019713D01*
X023107Y019699D01*
X023100Y019683D01*
X023096Y019666D01*
X023094Y019649D01*
X023494Y019449D02*
X023494Y018849D01*
X023744Y018849D01*
X023494Y018849D02*
X023494Y018599D01*
X023494Y018849D02*
X023244Y018849D01*
X023494Y018849D02*
X023244Y019249D01*
X023744Y019249D01*
X023494Y018849D01*
X024954Y019647D02*
X024954Y021247D01*
X024956Y021264D01*
X024960Y021281D01*
X024967Y021297D01*
X024977Y021311D01*
X024990Y021324D01*
X025004Y021334D01*
X025020Y021341D01*
X025037Y021345D01*
X025054Y021347D01*
X025654Y021347D01*
X025671Y021345D01*
X025688Y021341D01*
X025704Y021334D01*
X025718Y021324D01*
X025731Y021311D01*
X025741Y021297D01*
X025748Y021281D01*
X025752Y021264D01*
X025754Y021247D01*
X025754Y019647D01*
X025752Y019630D01*
X025748Y019613D01*
X025741Y019597D01*
X025731Y019583D01*
X025718Y019570D01*
X025704Y019560D01*
X025688Y019553D01*
X025671Y019549D01*
X025654Y019547D01*
X025054Y019547D01*
X025037Y019549D01*
X025020Y019553D01*
X025004Y019560D01*
X024990Y019570D01*
X024977Y019583D01*
X024967Y019597D01*
X024960Y019613D01*
X024956Y019630D01*
X024954Y019647D01*
X025354Y020197D02*
X025354Y020447D01*
X025604Y020447D01*
X025354Y020447D02*
X025104Y020447D01*
X025354Y020447D02*
X025104Y020847D01*
X025604Y020847D01*
X025354Y020447D01*
X025354Y021047D01*
X027651Y020847D02*
X027687Y020895D01*
X027720Y020946D01*
X027750Y020998D01*
X027776Y021052D01*
X027799Y021108D01*
X027819Y021165D01*
X027835Y021223D01*
X027847Y021282D01*
X027855Y021342D01*
X027860Y021402D01*
X027861Y021462D01*
X027858Y021522D01*
X027851Y021582D01*
X027841Y021642D01*
X027827Y021700D01*
X027809Y021758D01*
X027788Y021814D01*
X027763Y021869D01*
X027735Y021922D01*
X027704Y021974D01*
X027669Y022023D01*
X027683Y022005D02*
X027661Y022027D01*
X027638Y022046D01*
X027612Y022062D01*
X027585Y022075D01*
X027556Y022085D01*
X027527Y022092D01*
X027496Y022096D01*
X027466Y022096D01*
X027436Y022092D01*
X027406Y022085D01*
X027378Y022075D01*
X027350Y022062D01*
X027325Y022046D01*
X027301Y022027D01*
X027291Y021987D02*
X027541Y020787D01*
X027591Y020837D02*
X027341Y022037D01*
X026941Y022227D02*
X027941Y022227D01*
X027941Y020627D01*
X026941Y020627D01*
X026941Y022227D01*
X026841Y022447D02*
X026841Y022647D01*
X028741Y022647D01*
X028641Y022447D01*
X028041Y022447D01*
X028041Y018447D01*
X026841Y018447D01*
X026841Y022447D01*
X028041Y022447D01*
X028641Y022447D02*
X029041Y022447D01*
X029041Y022077D01*
X029191Y022077D02*
X029191Y022227D01*
X030991Y022227D01*
X031741Y022227D01*
X031741Y022447D01*
X031341Y022447D01*
X030891Y022447D01*
X029041Y022447D01*
X029491Y022077D02*
X030741Y022077D01*
X030741Y020777D01*
X029491Y020777D01*
X029191Y020777D02*
X029191Y020627D01*
X030991Y020627D01*
X030991Y022227D01*
X030891Y022447D02*
X030791Y022647D01*
X031441Y022647D01*
X031341Y022447D01*
X031741Y022227D02*
X031741Y020627D01*
X031741Y020257D01*
X031741Y018657D01*
X030991Y018657D01*
X030991Y020257D01*
X029191Y020257D01*
X029191Y020107D01*
X029041Y020107D02*
X029041Y020777D01*
X029491Y020107D02*
X030741Y020107D01*
X030741Y018807D01*
X029491Y018807D01*
X029191Y018807D02*
X029191Y018657D01*
X030991Y018657D01*
X031741Y018657D02*
X031741Y018447D01*
X029041Y018447D01*
X029041Y018807D01*
X029041Y018447D02*
X028041Y018447D01*
X027941Y018657D02*
X026941Y018657D01*
X026941Y020257D01*
X027941Y020257D01*
X027941Y018657D01*
X027591Y018867D02*
X027341Y020067D01*
X027291Y020017D02*
X027541Y018817D01*
X027665Y018894D02*
X027648Y018868D01*
X027629Y018845D01*
X027606Y018825D01*
X027582Y018808D01*
X027555Y018794D01*
X027526Y018783D01*
X027497Y018777D01*
X027467Y018774D01*
X027436Y018775D01*
X027407Y018780D01*
X027378Y018789D01*
X027350Y018802D01*
X027325Y018818D01*
X027301Y018837D01*
X027651Y018877D02*
X027687Y018925D01*
X027720Y018976D01*
X027750Y019028D01*
X027776Y019082D01*
X027799Y019138D01*
X027819Y019195D01*
X027835Y019253D01*
X027847Y019312D01*
X027855Y019372D01*
X027860Y019432D01*
X027861Y019492D01*
X027858Y019552D01*
X027851Y019612D01*
X027841Y019672D01*
X027827Y019730D01*
X027809Y019788D01*
X027788Y019844D01*
X027763Y019899D01*
X027735Y019952D01*
X027704Y020004D01*
X027669Y020053D01*
X027683Y020035D02*
X027661Y020057D01*
X027638Y020076D01*
X027612Y020092D01*
X027585Y020105D01*
X027556Y020115D01*
X027527Y020122D01*
X027496Y020126D01*
X027466Y020126D01*
X027436Y020122D01*
X027406Y020115D01*
X027378Y020105D01*
X027350Y020092D01*
X027325Y020076D01*
X027301Y020057D01*
X027299Y020059D02*
X027259Y020022D01*
X027222Y019982D01*
X027187Y019940D01*
X027156Y019896D01*
X027127Y019850D01*
X027102Y019802D01*
X027079Y019752D01*
X027061Y019701D01*
X027045Y019649D01*
X027034Y019595D01*
X027026Y019542D01*
X027021Y019487D01*
X027020Y019433D01*
X027023Y019378D01*
X027029Y019324D01*
X027039Y019271D01*
X027053Y019218D01*
X027070Y019167D01*
X027091Y019116D01*
X027114Y019067D01*
X027142Y019020D01*
X027172Y018975D01*
X027205Y018931D01*
X027241Y018891D01*
X027280Y018852D01*
X027321Y018817D01*
X027301Y020807D02*
X027325Y020788D01*
X027350Y020772D01*
X027378Y020759D01*
X027407Y020750D01*
X027436Y020745D01*
X027467Y020744D01*
X027497Y020747D01*
X027526Y020753D01*
X027555Y020764D01*
X027582Y020778D01*
X027606Y020795D01*
X027629Y020815D01*
X027648Y020838D01*
X027665Y020864D01*
X027321Y020787D02*
X027280Y020822D01*
X027241Y020861D01*
X027205Y020902D01*
X027172Y020945D01*
X027142Y020990D01*
X027114Y021037D01*
X027091Y021086D01*
X027070Y021137D01*
X027053Y021188D01*
X027039Y021241D01*
X027029Y021294D01*
X027023Y021349D01*
X027020Y021403D01*
X027021Y021457D01*
X027026Y021512D01*
X027034Y021565D01*
X027045Y021619D01*
X027061Y021671D01*
X027080Y021722D01*
X027102Y021772D01*
X027127Y021820D01*
X027156Y021866D01*
X027187Y021910D01*
X027222Y021952D01*
X027259Y021992D01*
X027299Y022029D01*
X030991Y020627D02*
X031741Y020627D01*
X031741Y020257D02*
X030991Y020257D01*
X029383Y016447D02*
X028933Y016447D01*
X028933Y014877D01*
X029153Y014497D02*
X029353Y014497D01*
X028933Y014277D02*
X028933Y012497D01*
X029383Y012497D01*
X028323Y012497D02*
X027873Y012497D01*
X028323Y012497D02*
X028323Y014277D01*
X028103Y014497D02*
X027903Y014497D01*
X028323Y014877D02*
X028323Y016447D01*
X027873Y016447D01*
X032267Y015139D02*
X032267Y013539D01*
X032269Y013522D01*
X032273Y013505D01*
X032280Y013489D01*
X032290Y013475D01*
X032303Y013462D01*
X032317Y013452D01*
X032333Y013445D01*
X032350Y013441D01*
X032367Y013439D01*
X032967Y013439D01*
X032984Y013441D01*
X033001Y013445D01*
X033017Y013452D01*
X033031Y013462D01*
X033044Y013475D01*
X033054Y013489D01*
X033061Y013505D01*
X033065Y013522D01*
X033067Y013539D01*
X033067Y015139D01*
X033065Y015156D01*
X033061Y015173D01*
X033054Y015189D01*
X033044Y015203D01*
X033031Y015216D01*
X033017Y015226D01*
X033001Y015233D01*
X032984Y015237D01*
X032967Y015239D01*
X032367Y015239D01*
X032350Y015237D01*
X032333Y015233D01*
X032317Y015226D01*
X032303Y015216D01*
X032290Y015203D01*
X032280Y015189D01*
X032273Y015173D01*
X032269Y015156D01*
X032267Y015139D01*
X032667Y014939D02*
X032667Y014339D01*
X032917Y014339D01*
X032667Y014339D02*
X032667Y014089D01*
X032667Y014339D02*
X032417Y014339D01*
X032667Y014339D02*
X032417Y014739D01*
X032917Y014739D01*
X032667Y014339D01*
D12*
X029153Y014497D02*
X028933Y014277D01*
X028803Y014147D01*
X028453Y014147D02*
X028323Y014277D01*
X028103Y014497D01*
X017765Y013634D02*
X017767Y013695D01*
X017773Y013757D01*
X017783Y013817D01*
X017797Y013877D01*
X017814Y013936D01*
X017836Y013994D01*
X017861Y014050D01*
X017890Y014105D01*
X017922Y014157D01*
X017957Y014207D01*
X017996Y014255D01*
X018038Y014300D01*
X018082Y014343D01*
X018130Y014382D01*
X018179Y014419D01*
X018231Y014452D01*
X018285Y014481D01*
X018341Y014507D01*
X018398Y014530D01*
X018457Y014548D01*
X018516Y014563D01*
X018577Y014574D01*
X018638Y014581D01*
X018700Y014584D01*
X018761Y014583D01*
X018822Y014578D01*
X018883Y014569D01*
X018943Y014556D01*
X019003Y014539D01*
X019061Y014519D01*
X019117Y014495D01*
X019172Y014467D01*
X019225Y014435D01*
X019276Y014401D01*
X019324Y014363D01*
X019370Y014322D01*
X019413Y014278D01*
X019454Y014231D01*
X019491Y014182D01*
X019525Y014131D01*
X019555Y014078D01*
X019582Y014022D01*
X019605Y013965D01*
X019625Y013907D01*
X019641Y013848D01*
X019653Y013787D01*
X019661Y013726D01*
X019665Y013665D01*
X019665Y013603D01*
X019661Y013542D01*
X019653Y013481D01*
X019641Y013420D01*
X019625Y013361D01*
X019605Y013303D01*
X019582Y013246D01*
X019555Y013190D01*
X019525Y013137D01*
X019491Y013086D01*
X019454Y013037D01*
X019413Y012990D01*
X019370Y012946D01*
X019324Y012905D01*
X019276Y012867D01*
X019225Y012833D01*
X019172Y012801D01*
X019117Y012773D01*
X019061Y012749D01*
X019003Y012729D01*
X018943Y012712D01*
X018883Y012699D01*
X018822Y012690D01*
X018761Y012685D01*
X018700Y012684D01*
X018638Y012687D01*
X018577Y012694D01*
X018516Y012705D01*
X018457Y012720D01*
X018398Y012738D01*
X018341Y012761D01*
X018285Y012787D01*
X018231Y012816D01*
X018179Y012849D01*
X018130Y012886D01*
X018082Y012925D01*
X018038Y012968D01*
X017996Y013013D01*
X017957Y013061D01*
X017922Y013111D01*
X017890Y013163D01*
X017861Y013218D01*
X017836Y013274D01*
X017814Y013332D01*
X017797Y013391D01*
X017783Y013451D01*
X017773Y013511D01*
X017767Y013573D01*
X017765Y013634D01*
X007081Y008243D02*
X007083Y008304D01*
X007089Y008366D01*
X007099Y008426D01*
X007113Y008486D01*
X007130Y008545D01*
X007152Y008603D01*
X007177Y008659D01*
X007206Y008714D01*
X007238Y008766D01*
X007273Y008816D01*
X007312Y008864D01*
X007354Y008909D01*
X007398Y008952D01*
X007446Y008991D01*
X007495Y009028D01*
X007547Y009061D01*
X007601Y009090D01*
X007657Y009116D01*
X007714Y009139D01*
X007773Y009157D01*
X007832Y009172D01*
X007893Y009183D01*
X007954Y009190D01*
X008016Y009193D01*
X008077Y009192D01*
X008138Y009187D01*
X008199Y009178D01*
X008259Y009165D01*
X008319Y009148D01*
X008377Y009128D01*
X008433Y009104D01*
X008488Y009076D01*
X008541Y009044D01*
X008592Y009010D01*
X008640Y008972D01*
X008686Y008931D01*
X008729Y008887D01*
X008770Y008840D01*
X008807Y008791D01*
X008841Y008740D01*
X008871Y008687D01*
X008898Y008631D01*
X008921Y008574D01*
X008941Y008516D01*
X008957Y008457D01*
X008969Y008396D01*
X008977Y008335D01*
X008981Y008274D01*
X008981Y008212D01*
X008977Y008151D01*
X008969Y008090D01*
X008957Y008029D01*
X008941Y007970D01*
X008921Y007912D01*
X008898Y007855D01*
X008871Y007799D01*
X008841Y007746D01*
X008807Y007695D01*
X008770Y007646D01*
X008729Y007599D01*
X008686Y007555D01*
X008640Y007514D01*
X008592Y007476D01*
X008541Y007442D01*
X008488Y007410D01*
X008433Y007382D01*
X008377Y007358D01*
X008319Y007338D01*
X008259Y007321D01*
X008199Y007308D01*
X008138Y007299D01*
X008077Y007294D01*
X008016Y007293D01*
X007954Y007296D01*
X007893Y007303D01*
X007832Y007314D01*
X007773Y007329D01*
X007714Y007347D01*
X007657Y007370D01*
X007601Y007396D01*
X007547Y007425D01*
X007495Y007458D01*
X007446Y007495D01*
X007398Y007534D01*
X007354Y007577D01*
X007312Y007622D01*
X007273Y007670D01*
X007238Y007720D01*
X007206Y007772D01*
X007177Y007827D01*
X007152Y007883D01*
X007130Y007941D01*
X007113Y008000D01*
X007099Y008060D01*
X007089Y008120D01*
X007083Y008182D01*
X007081Y008243D01*
X028183Y007337D02*
X028183Y007087D01*
X028183Y006597D01*
X028183Y005857D01*
X029173Y005857D01*
X029173Y006107D01*
X029173Y006597D01*
X029173Y007337D01*
X028183Y007337D01*
D13*
X024685Y006635D02*
X024685Y000447D01*
X024687Y000416D01*
X024685Y000384D01*
X024679Y000353D01*
X024669Y000323D01*
X024655Y000295D01*
X024638Y000268D01*
X024618Y000244D01*
X024595Y000222D01*
X024569Y000204D01*
X024542Y000189D01*
X024512Y000177D01*
X024482Y000169D01*
X024451Y000165D01*
X024419Y000166D01*
X024388Y000169D01*
X024357Y000177D01*
X024328Y000189D01*
X024300Y000204D01*
X024275Y000223D01*
X024252Y000244D01*
X024231Y000269D01*
X024214Y000295D01*
X024201Y000324D01*
X024191Y000354D01*
X024185Y000385D01*
X023998Y004572D01*
X022935Y004572D02*
X022810Y000385D01*
X022808Y000355D01*
X022803Y000325D01*
X022794Y000296D01*
X022781Y000269D01*
X022766Y000243D01*
X022747Y000219D01*
X022726Y000198D01*
X022702Y000179D01*
X022676Y000164D01*
X022649Y000151D01*
X022620Y000142D01*
X022590Y000137D01*
X022560Y000135D01*
X022530Y000137D01*
X022500Y000142D01*
X022471Y000151D01*
X022444Y000164D01*
X022418Y000179D01*
X022394Y000198D01*
X022373Y000219D01*
X022354Y000243D01*
X022339Y000269D01*
X022326Y000296D01*
X022317Y000325D01*
X022312Y000355D01*
X022310Y000385D01*
X022310Y005260D01*
X020560Y005260D01*
X020560Y000385D01*
X020558Y000355D01*
X020553Y000325D01*
X020544Y000296D01*
X020531Y000269D01*
X020516Y000243D01*
X020497Y000219D01*
X020476Y000198D01*
X020452Y000179D01*
X020426Y000164D01*
X020399Y000151D01*
X020370Y000142D01*
X020340Y000137D01*
X020310Y000135D01*
X020280Y000137D01*
X020250Y000142D01*
X020221Y000151D01*
X020194Y000164D01*
X020168Y000179D01*
X020144Y000198D01*
X020123Y000219D01*
X020104Y000243D01*
X020089Y000269D01*
X020076Y000296D01*
X020067Y000325D01*
X020062Y000355D01*
X020060Y000385D01*
X018685Y000385D02*
X018683Y000355D01*
X018678Y000325D01*
X018669Y000296D01*
X018656Y000269D01*
X018641Y000243D01*
X018622Y000219D01*
X018601Y000198D01*
X018577Y000179D01*
X018551Y000164D01*
X018524Y000151D01*
X018495Y000142D01*
X018465Y000137D01*
X018435Y000135D01*
X018405Y000137D01*
X018375Y000142D01*
X018346Y000151D01*
X018319Y000164D01*
X018293Y000179D01*
X018269Y000198D01*
X018248Y000219D01*
X018229Y000243D01*
X018214Y000269D01*
X018201Y000296D01*
X018192Y000325D01*
X018187Y000355D01*
X018185Y000385D01*
X018185Y006635D01*
X024685Y006635D01*
X029879Y017422D02*
X029879Y018052D01*
X029984Y017737D02*
X030300Y017422D01*
X030524Y017422D02*
X030944Y017422D01*
X030734Y017422D02*
X030734Y018052D01*
X030524Y017842D01*
X030300Y018052D02*
X029879Y017632D01*
X026606Y018482D02*
X025976Y018903D01*
X026081Y019127D02*
X025976Y019232D01*
X025976Y019442D01*
X026081Y019547D01*
X026186Y019547D01*
X026291Y019442D01*
X026396Y019547D01*
X026501Y019547D01*
X026606Y019442D01*
X026606Y019232D01*
X026501Y019127D01*
X026606Y018903D02*
X025976Y018482D01*
X026291Y019337D02*
X026291Y019442D01*
X008004Y013085D02*
X007899Y013190D01*
X007688Y013190D01*
X007583Y013085D01*
X007359Y013085D02*
X007254Y013190D01*
X007044Y013190D01*
X006939Y013085D01*
X006939Y012665D01*
X007044Y012560D01*
X007254Y012560D01*
X007359Y012665D01*
X007583Y012560D02*
X008004Y012980D01*
X008004Y013085D01*
X008004Y012560D02*
X007583Y012560D01*
X001352Y017045D02*
X000721Y017045D01*
X000721Y017361D01*
X000826Y017466D01*
X001247Y017466D01*
X001352Y017361D01*
X001352Y017045D01*
X001247Y017690D02*
X001352Y017795D01*
X001352Y018005D01*
X001247Y018110D01*
X000826Y018110D01*
X000721Y018005D01*
X000721Y017795D01*
X000826Y017690D01*
X000932Y017690D01*
X001037Y017795D01*
X001037Y018110D01*
X006227Y006087D02*
X006122Y005982D01*
X006122Y005772D01*
X006227Y005667D01*
X006122Y005442D02*
X006752Y005022D01*
X006752Y005442D02*
X006122Y005022D01*
X006752Y005667D02*
X006332Y006087D01*
X006227Y006087D01*
X006752Y006087D02*
X006752Y005667D01*
X007863Y002675D02*
X008284Y002675D01*
X008508Y002465D02*
X008718Y002675D01*
X008718Y002044D01*
X008508Y002044D02*
X008928Y002044D01*
X008074Y002360D02*
X007863Y002360D01*
X007863Y002675D02*
X007863Y002044D01*
D14*
X012071Y018904D02*
X012071Y022211D01*
X019945Y022211D01*
X019945Y018904D01*
X018346Y018904D01*
X018346Y019022D01*
X017763Y019022D01*
X017763Y018904D01*
X016749Y018904D01*
X015266Y018904D01*
X012071Y018904D01*
X012514Y019268D02*
X012514Y021847D01*
X019502Y021847D01*
X019502Y019268D01*
X016749Y019268D01*
X016749Y019514D02*
X015266Y019514D01*
X015266Y018904D01*
X015266Y019268D02*
X012514Y019268D01*
X016749Y019514D02*
X016749Y018904D01*
D15*
X012795Y022377D02*
X012488Y022377D01*
X012335Y022377D02*
X012028Y022838D01*
X012335Y022838D02*
X012028Y022377D01*
X012488Y022684D02*
X012642Y022838D01*
X012642Y022377D01*
D16*
X017364Y016611D02*
X017364Y016311D01*
X017364Y016461D02*
X016913Y016461D01*
X017063Y016311D01*
X016988Y016151D02*
X017138Y016151D01*
X017213Y016076D01*
X017213Y015851D01*
X017213Y016001D02*
X017364Y016151D01*
X017364Y015851D02*
X016913Y015851D01*
X016913Y016076D01*
X016988Y016151D01*
X018240Y015309D02*
X018465Y015309D01*
X018541Y015234D01*
X018541Y014934D01*
X018465Y014859D01*
X018240Y014859D01*
X018240Y015309D01*
X018701Y015234D02*
X018776Y015309D01*
X018926Y015309D01*
X019001Y015234D01*
X019001Y015159D01*
X018701Y014859D01*
X019001Y014859D01*
X019386Y014962D02*
X019386Y015112D01*
X019461Y015188D01*
X019762Y015188D01*
X019837Y015112D01*
X019837Y014962D01*
X019762Y014887D01*
X019461Y014887D01*
X019386Y014962D01*
X019687Y015037D02*
X019837Y015188D01*
X019837Y015348D02*
X019536Y015648D01*
X019461Y015648D01*
X019386Y015573D01*
X019386Y015423D01*
X019461Y015348D01*
X019837Y015348D02*
X019837Y015648D01*
X021509Y014912D02*
X021563Y014939D01*
X021614Y014969D01*
X021664Y015002D01*
X021712Y015037D01*
X021712Y016687D01*
X021112Y016415D02*
X021112Y016309D01*
X021500Y016816D02*
X021556Y016789D01*
X021610Y016758D01*
X021662Y016724D01*
X021712Y016687D01*
X020615Y016812D02*
X020558Y016783D01*
X020502Y016750D01*
X020449Y016715D01*
X020398Y016675D01*
X020350Y016633D01*
X020304Y016588D01*
X020261Y016541D01*
X020221Y016491D01*
X020184Y016438D01*
X020151Y016383D01*
X020120Y016327D01*
X020094Y016268D01*
X020071Y016208D01*
X020051Y016147D01*
X020036Y016085D01*
X020024Y016022D01*
X020016Y015958D01*
X020012Y015894D01*
X020012Y015830D01*
X020016Y015766D01*
X020024Y015702D01*
X020036Y015639D01*
X020051Y015577D01*
X020071Y015516D01*
X020094Y015456D01*
X020120Y015397D01*
X020151Y015341D01*
X020184Y015286D01*
X020221Y015233D01*
X020261Y015183D01*
X020304Y015136D01*
X020350Y015091D01*
X020398Y015049D01*
X020449Y015009D01*
X020502Y014974D01*
X020558Y014941D01*
X020615Y014912D01*
X021112Y015309D02*
X021112Y015415D01*
X022034Y013418D02*
X022259Y013418D01*
X022334Y013343D01*
X022334Y013193D01*
X022259Y013118D01*
X022034Y013118D01*
X022184Y013118D02*
X022334Y012968D01*
X022494Y013193D02*
X022794Y013193D01*
X022719Y012968D02*
X022719Y013418D01*
X022494Y013193D01*
X022034Y012968D02*
X022034Y013418D01*
X018341Y010641D02*
X018341Y010491D01*
X018266Y010416D01*
X018341Y010256D02*
X018191Y010105D01*
X018191Y010180D02*
X018191Y009955D01*
X018341Y009955D02*
X017890Y009955D01*
X017890Y010180D01*
X017965Y010256D01*
X018116Y010256D01*
X018191Y010180D01*
X017965Y010416D02*
X017890Y010491D01*
X017890Y010641D01*
X017965Y010716D01*
X018041Y010716D01*
X018116Y010641D01*
X018191Y010716D01*
X018266Y010716D01*
X018341Y010641D01*
X018116Y010641D02*
X018116Y010566D01*
X015095Y010042D02*
X013445Y010042D01*
X013718Y010642D02*
X013823Y010642D01*
X013320Y010245D02*
X013347Y010191D01*
X013377Y010140D01*
X013410Y010090D01*
X013445Y010042D01*
X013320Y011139D02*
X013349Y011196D01*
X013382Y011252D01*
X013417Y011305D01*
X013457Y011356D01*
X013499Y011404D01*
X013544Y011450D01*
X013591Y011493D01*
X013641Y011533D01*
X013694Y011570D01*
X013749Y011603D01*
X013805Y011634D01*
X013864Y011660D01*
X013924Y011683D01*
X013985Y011703D01*
X014047Y011718D01*
X014110Y011730D01*
X014174Y011738D01*
X014238Y011742D01*
X014302Y011742D01*
X014366Y011738D01*
X014430Y011730D01*
X014493Y011718D01*
X014555Y011703D01*
X014616Y011683D01*
X014676Y011660D01*
X014735Y011634D01*
X014791Y011603D01*
X014846Y011570D01*
X014899Y011533D01*
X014949Y011493D01*
X014996Y011450D01*
X015041Y011404D01*
X015083Y011356D01*
X015123Y011305D01*
X015158Y011252D01*
X015191Y011196D01*
X015220Y011139D01*
X014823Y010642D02*
X014718Y010642D01*
X015224Y010254D02*
X015197Y010198D01*
X015166Y010144D01*
X015132Y010092D01*
X015095Y010042D01*
X014056Y011917D02*
X013756Y011917D01*
X013906Y011917D02*
X013906Y012367D01*
X013756Y012217D01*
X013596Y012292D02*
X013596Y011992D01*
X013520Y011917D01*
X013370Y011917D01*
X013295Y011992D01*
X013295Y012292D01*
X013370Y012367D01*
X013520Y012367D01*
X013596Y012292D01*
X013445Y012067D02*
X013596Y011917D01*
X011879Y012643D02*
X011579Y012643D01*
X011804Y012868D01*
X011804Y012418D01*
X011419Y012418D02*
X011269Y012568D01*
X011419Y012493D02*
X011344Y012418D01*
X011194Y012418D01*
X011119Y012493D01*
X011119Y012793D01*
X011194Y012868D01*
X011344Y012868D01*
X011419Y012793D01*
X011419Y012493D01*
X011965Y014540D02*
X011938Y014594D01*
X011908Y014645D01*
X011875Y014695D01*
X011840Y014743D01*
X011839Y014743D02*
X010190Y014743D01*
X010462Y014143D02*
X010567Y014143D01*
X010060Y014531D02*
X010087Y014587D01*
X010118Y014641D01*
X010152Y014693D01*
X010189Y014743D01*
X010064Y013646D02*
X010093Y013589D01*
X010126Y013533D01*
X010161Y013480D01*
X010201Y013429D01*
X010243Y013381D01*
X010288Y013335D01*
X010335Y013292D01*
X010385Y013252D01*
X010438Y013215D01*
X010493Y013182D01*
X010549Y013151D01*
X010608Y013125D01*
X010668Y013102D01*
X010729Y013082D01*
X010791Y013067D01*
X010854Y013055D01*
X010918Y013047D01*
X010982Y013043D01*
X011046Y013043D01*
X011110Y013047D01*
X011174Y013055D01*
X011237Y013067D01*
X011299Y013082D01*
X011360Y013102D01*
X011420Y013125D01*
X011479Y013151D01*
X011535Y013182D01*
X011590Y013215D01*
X011643Y013252D01*
X011693Y013292D01*
X011740Y013335D01*
X011785Y013381D01*
X011827Y013429D01*
X011867Y013480D01*
X011902Y013533D01*
X011935Y013589D01*
X011964Y013646D01*
X012793Y013967D02*
X012793Y014192D01*
X012868Y014267D01*
X013018Y014267D01*
X013093Y014192D01*
X013093Y013967D01*
X013093Y014117D02*
X013244Y014267D01*
X013244Y014427D02*
X012943Y014727D01*
X012868Y014727D01*
X012793Y014652D01*
X012793Y014502D01*
X012868Y014427D01*
X013244Y014427D02*
X013244Y014727D01*
X013244Y013967D02*
X012793Y013967D01*
X011567Y014143D02*
X011462Y014143D01*
X007551Y011846D02*
X007551Y011696D01*
X007476Y011621D01*
X007326Y011621D02*
X007251Y011771D01*
X007251Y011846D01*
X007326Y011921D01*
X007476Y011921D01*
X007551Y011846D01*
X007326Y011621D02*
X007101Y011621D01*
X007101Y011921D01*
X007176Y011461D02*
X007326Y011461D01*
X007401Y011386D01*
X007401Y011160D01*
X007551Y011160D02*
X007101Y011160D01*
X007101Y011386D01*
X007176Y011461D01*
X007401Y011310D02*
X007551Y011461D01*
X009331Y008607D02*
X009406Y008607D01*
X009481Y008532D01*
X009556Y008607D01*
X009631Y008607D01*
X009706Y008532D01*
X009706Y008382D01*
X009631Y008307D01*
X009631Y008147D02*
X009331Y008147D01*
X009256Y008072D01*
X009256Y007847D01*
X009706Y007847D01*
X009706Y008072D01*
X009631Y008147D01*
X009331Y008307D02*
X009256Y008382D01*
X009256Y008532D01*
X009331Y008607D01*
X009481Y008532D02*
X009481Y008457D01*
X012052Y007629D02*
X012052Y007329D01*
X012127Y007254D01*
X012277Y007254D01*
X012352Y007329D01*
X012512Y007254D02*
X012812Y007254D01*
X012662Y007254D02*
X012662Y007704D01*
X012512Y007554D01*
X012352Y007629D02*
X012277Y007704D01*
X012127Y007704D01*
X012052Y007629D01*
X004412Y005911D02*
X004412Y005611D01*
X004412Y005761D02*
X003962Y005761D01*
X004112Y005611D01*
X004112Y003911D02*
X004037Y003911D01*
X003962Y003836D01*
X003962Y003686D01*
X004037Y003611D01*
X004112Y003911D02*
X004412Y003611D01*
X004412Y003911D01*
X021371Y009236D02*
X021597Y009236D01*
X021672Y009311D01*
X021672Y009611D01*
X021597Y009686D01*
X021371Y009686D01*
X021371Y009236D01*
X021832Y009311D02*
X021907Y009236D01*
X022057Y009236D01*
X022132Y009311D01*
X022132Y009461D01*
X022057Y009536D01*
X021982Y009536D01*
X021832Y009461D01*
X021832Y009686D01*
X022132Y009686D01*
X022596Y009023D02*
X022747Y009023D01*
X022822Y008948D01*
X022822Y008648D01*
X022747Y008573D01*
X022596Y008573D01*
X022521Y008648D01*
X022521Y008948D01*
X022596Y009023D01*
X022672Y008723D02*
X022822Y008573D01*
X022982Y008648D02*
X023057Y008573D01*
X023207Y008573D01*
X023282Y008648D01*
X023282Y008723D01*
X023207Y008798D01*
X023132Y008798D01*
X023207Y008798D02*
X023282Y008873D01*
X023282Y008948D01*
X023207Y009023D01*
X023057Y009023D01*
X022982Y008948D01*
X025022Y006287D02*
X025473Y006287D01*
X025473Y006137D02*
X025473Y006437D01*
X025172Y006137D02*
X025022Y006287D01*
X025022Y005977D02*
X025322Y005677D01*
X025247Y005752D02*
X025473Y005977D01*
X025473Y005677D02*
X025022Y005677D01*
X025022Y005517D02*
X025322Y005216D01*
X025247Y005291D02*
X025473Y005517D01*
X025473Y005216D02*
X025022Y005216D01*
X028852Y004175D02*
X028852Y003724D01*
X029077Y003724D01*
X029152Y003799D01*
X029152Y004100D01*
X029077Y004175D01*
X028852Y004175D01*
X029312Y004024D02*
X029462Y004175D01*
X029462Y003724D01*
X029312Y003724D02*
X029612Y003724D01*
X031692Y013514D02*
X031692Y013739D01*
X031767Y013814D01*
X032067Y013814D01*
X032142Y013739D01*
X032142Y013514D01*
X031692Y013514D01*
X031917Y013974D02*
X031917Y014200D01*
X031992Y014275D01*
X032067Y014275D01*
X032142Y014200D01*
X032142Y014050D01*
X032067Y013974D01*
X031917Y013974D01*
X031767Y014125D01*
X031692Y014275D01*
X028766Y018702D02*
X028766Y019003D01*
X028766Y018852D02*
X028316Y018852D01*
X028466Y018702D01*
X028391Y020702D02*
X028316Y020777D01*
X028316Y020927D01*
X028391Y021003D01*
X028466Y021003D01*
X028766Y020702D01*
X028766Y021003D01*
X024829Y020308D02*
X024379Y020308D01*
X024604Y020083D01*
X024604Y020383D01*
X024754Y019923D02*
X024454Y019923D01*
X024379Y019847D01*
X024379Y019622D01*
X024829Y019622D01*
X024829Y019847D01*
X024754Y019923D01*
X022969Y018484D02*
X022894Y018484D01*
X022594Y018785D01*
X022519Y018785D01*
X022519Y018484D01*
X022594Y018324D02*
X022519Y018249D01*
X022519Y018024D01*
X022969Y018024D01*
X022969Y018249D01*
X022894Y018324D01*
X022594Y018324D01*
D17*
X023187Y008128D03*
D18*
X021417Y006818D03*
D19*
X019692Y007068D03*
X023142Y007068D03*
X022692Y010211D03*
X020142Y010211D03*
X027622Y004699D03*
X030172Y004699D03*
D20*
X021917Y007068D03*
X020917Y007068D03*
D21*
X017266Y008231D03*
X017266Y011071D03*
X013869Y013722D03*
X016289Y014126D03*
X013869Y016562D03*
X016289Y016966D03*
X008176Y013755D03*
X008176Y010915D03*
D22*
X022067Y010211D03*
X029547Y004699D03*
D23*
X024629Y012343D03*
X021789Y012343D03*
D24*
X023494Y018199D03*
X025354Y019797D03*
X032667Y013689D03*
D25*
X032667Y013064D03*
X032667Y015614D03*
X025354Y019172D03*
X023494Y020124D03*
X025354Y021722D03*
X023494Y017574D03*
D26*
X012067Y008679D02*
X012067Y008429D01*
X012067Y008179D01*
X011817Y008179D02*
X011817Y008429D01*
X011817Y008679D01*
D27*
X004029Y011025D03*
D28*
X010828Y005559D02*
X014828Y005559D01*
X014878Y004409D02*
X010778Y004409D01*
X010828Y003259D02*
X014828Y003259D01*
D29*
X014953Y003384D03*
X014953Y005434D03*
X010703Y005434D03*
X010703Y003384D03*
D30*
X010703Y004409D03*
X014953Y004409D03*
D31*
X012828Y003459D03*
X012828Y005359D03*
D32*
X009803Y005184D03*
X009803Y003634D03*
X015853Y003634D03*
X015853Y005184D03*
D33*
X016028Y005309D03*
X016028Y003509D03*
X009628Y003509D03*
X009628Y005309D03*
D34*
X003297Y017600D03*
D35*
X003297Y016750D03*
X003297Y020950D03*
M02*
