%
M48
M72
T01C0.0320
T02C0.0354
T03C0.0394
T04C0.0400
T05C0.0520
T06C0.0590
T07C0.1000
T08C0.1181
%
T01
X8031Y7743
X8031Y8743
X8176Y10335
X10947Y8429
X12947Y8429
X13270Y10692
X14270Y10692
X15270Y10692
X17266Y11651
X19417Y10211
X21209Y12343
X19215Y13634
X18215Y13634
X16289Y13546
X13869Y13142
X12014Y14093
X11014Y14093
X10014Y14093
X8176Y14335
X13869Y17142
X16289Y17546
X21062Y16862
X21062Y15862
X21062Y14862
X23494Y16849
X25354Y18447
X23494Y20849
X25354Y22447
X32667Y16339
X32667Y12339
X25209Y12343
X23417Y10211
X17266Y7651
X26897Y4699
X30897Y4699
X10174Y18264
X10174Y22264
T02
X11828Y12013
X16456Y11952
X18176Y9098
X26078Y9259
X26882Y17627
X33846Y17668
T03
X18008Y20057
X17008Y20057
X16008Y20057
X15008Y20057
X14008Y20057
X14008Y21057
X15008Y21057
X16008Y21057
X17008Y21057
X18008Y21057
T04
X5304Y11025
X2304Y11025
X20417Y7668
X21417Y7668
X22417Y7668
T05
X27153Y6597
X30103Y6597
X30103Y12507
X30103Y14467
X30103Y16437
X27153Y16437
X27153Y14467
X27153Y12507
X29291Y19457
X29291Y21427
X17258Y4409
X8398Y4409
X3437Y5266
X3437Y3296
T06
X3297Y15850
X3297Y21850
T07
X19404Y5277
X23467Y5277
T08
X1278Y1898
X1234Y22485
X33321Y22791
X33801Y1898
M30
