G75*
G70*
%OFA0B0*%
%FSLAX24Y24*%
%IPPOS*%
%LPD*%
%AMOC8*
5,1,8,0,0,1.08239X$1,22.5*
%
%ADD10C,0.0000*%
%ADD11R,0.0200X0.0200*%
%ADD12C,0.0060*%
%ADD13C,0.0040*%
%ADD14C,0.0080*%
%ADD15C,0.0020*%
%ADD16C,0.0070*%
%ADD17C,0.0100*%
%ADD18C,0.0039*%
%ADD19R,0.0200X0.0800*%
%ADD20R,0.0750X0.0200*%
%ADD21C,0.0050*%
%ADD22R,0.0340X0.0240*%
%ADD23R,0.1161X0.1713*%
%ADD24C,0.0160*%
%ADD25C,0.0120*%
%ADD26R,0.0400X0.0400*%
%ADD27R,0.0240X0.0340*%
D10*
X000102Y000204D02*
X000112Y042619D01*
X070094Y042622D01*
X070088Y000131D01*
X000102Y000204D01*
X000994Y001598D02*
X000996Y001646D01*
X001002Y001694D01*
X001012Y001741D01*
X001025Y001787D01*
X001043Y001832D01*
X001063Y001876D01*
X001088Y001918D01*
X001116Y001957D01*
X001146Y001994D01*
X001180Y002028D01*
X001217Y002060D01*
X001255Y002089D01*
X001296Y002114D01*
X001339Y002136D01*
X001384Y002154D01*
X001430Y002168D01*
X001477Y002179D01*
X001525Y002186D01*
X001573Y002189D01*
X001621Y002188D01*
X001669Y002183D01*
X001717Y002174D01*
X001763Y002162D01*
X001808Y002145D01*
X001852Y002125D01*
X001894Y002102D01*
X001934Y002075D01*
X001972Y002045D01*
X002007Y002012D01*
X002039Y001976D01*
X002069Y001938D01*
X002095Y001897D01*
X002117Y001854D01*
X002137Y001810D01*
X002152Y001765D01*
X002164Y001718D01*
X002172Y001670D01*
X002176Y001622D01*
X002176Y001574D01*
X002172Y001526D01*
X002164Y001478D01*
X002152Y001431D01*
X002137Y001386D01*
X002117Y001342D01*
X002095Y001299D01*
X002069Y001258D01*
X002039Y001220D01*
X002007Y001184D01*
X001972Y001151D01*
X001934Y001121D01*
X001894Y001094D01*
X001852Y001071D01*
X001808Y001051D01*
X001763Y001034D01*
X001717Y001022D01*
X001669Y001013D01*
X001621Y001008D01*
X001573Y001007D01*
X001525Y001010D01*
X001477Y001017D01*
X001430Y001028D01*
X001384Y001042D01*
X001339Y001060D01*
X001296Y001082D01*
X001255Y001107D01*
X001217Y001136D01*
X001180Y001168D01*
X001146Y001202D01*
X001116Y001239D01*
X001088Y001278D01*
X001063Y001320D01*
X001043Y001364D01*
X001025Y001409D01*
X001012Y001455D01*
X001002Y001502D01*
X000996Y001550D01*
X000994Y001598D01*
X021656Y026779D02*
X021658Y026823D01*
X021664Y026867D01*
X021674Y026910D01*
X021687Y026952D01*
X021705Y026992D01*
X021726Y027031D01*
X021750Y027068D01*
X021777Y027103D01*
X021808Y027135D01*
X021841Y027164D01*
X021877Y027190D01*
X021915Y027212D01*
X021955Y027231D01*
X021996Y027247D01*
X022039Y027259D01*
X022082Y027267D01*
X022126Y027271D01*
X022170Y027271D01*
X022214Y027267D01*
X022257Y027259D01*
X022300Y027247D01*
X022341Y027231D01*
X022381Y027212D01*
X022419Y027190D01*
X022455Y027164D01*
X022488Y027135D01*
X022519Y027103D01*
X022546Y027068D01*
X022570Y027031D01*
X022591Y026992D01*
X022609Y026952D01*
X022622Y026910D01*
X022632Y026867D01*
X022638Y026823D01*
X022640Y026779D01*
X022638Y026735D01*
X022632Y026691D01*
X022622Y026648D01*
X022609Y026606D01*
X022591Y026566D01*
X022570Y026527D01*
X022546Y026490D01*
X022519Y026455D01*
X022488Y026423D01*
X022455Y026394D01*
X022419Y026368D01*
X022381Y026346D01*
X022341Y026327D01*
X022300Y026311D01*
X022257Y026299D01*
X022214Y026291D01*
X022170Y026287D01*
X022126Y026287D01*
X022082Y026291D01*
X022039Y026299D01*
X021996Y026311D01*
X021955Y026327D01*
X021915Y026346D01*
X021877Y026368D01*
X021841Y026394D01*
X021808Y026423D01*
X021777Y026455D01*
X021750Y026490D01*
X021726Y026527D01*
X021705Y026566D01*
X021687Y026606D01*
X021674Y026648D01*
X021664Y026691D01*
X021658Y026735D01*
X021656Y026779D01*
X021656Y038984D02*
X021658Y039028D01*
X021664Y039072D01*
X021674Y039115D01*
X021687Y039157D01*
X021705Y039197D01*
X021726Y039236D01*
X021750Y039273D01*
X021777Y039308D01*
X021808Y039340D01*
X021841Y039369D01*
X021877Y039395D01*
X021915Y039417D01*
X021955Y039436D01*
X021996Y039452D01*
X022039Y039464D01*
X022082Y039472D01*
X022126Y039476D01*
X022170Y039476D01*
X022214Y039472D01*
X022257Y039464D01*
X022300Y039452D01*
X022341Y039436D01*
X022381Y039417D01*
X022419Y039395D01*
X022455Y039369D01*
X022488Y039340D01*
X022519Y039308D01*
X022546Y039273D01*
X022570Y039236D01*
X022591Y039197D01*
X022609Y039157D01*
X022622Y039115D01*
X022632Y039072D01*
X022638Y039028D01*
X022640Y038984D01*
X022638Y038940D01*
X022632Y038896D01*
X022622Y038853D01*
X022609Y038811D01*
X022591Y038771D01*
X022570Y038732D01*
X022546Y038695D01*
X022519Y038660D01*
X022488Y038628D01*
X022455Y038599D01*
X022419Y038573D01*
X022381Y038551D01*
X022341Y038532D01*
X022300Y038516D01*
X022257Y038504D01*
X022214Y038496D01*
X022170Y038492D01*
X022126Y038492D01*
X022082Y038496D01*
X022039Y038504D01*
X021996Y038516D01*
X021955Y038532D01*
X021915Y038551D01*
X021877Y038573D01*
X021841Y038599D01*
X021808Y038628D01*
X021777Y038660D01*
X021750Y038695D01*
X021726Y038732D01*
X021705Y038771D01*
X021687Y038811D01*
X021674Y038853D01*
X021664Y038896D01*
X021658Y038940D01*
X021656Y038984D01*
X001690Y040864D02*
X001692Y040914D01*
X001698Y040964D01*
X001708Y041013D01*
X001722Y041061D01*
X001739Y041108D01*
X001760Y041153D01*
X001785Y041197D01*
X001813Y041238D01*
X001845Y041277D01*
X001879Y041314D01*
X001916Y041348D01*
X001956Y041378D01*
X001998Y041405D01*
X002042Y041429D01*
X002088Y041450D01*
X002135Y041466D01*
X002183Y041479D01*
X002233Y041488D01*
X002282Y041493D01*
X002333Y041494D01*
X002383Y041491D01*
X002432Y041484D01*
X002481Y041473D01*
X002529Y041458D01*
X002575Y041440D01*
X002620Y041418D01*
X002663Y041392D01*
X002704Y041363D01*
X002743Y041331D01*
X002779Y041296D01*
X002811Y041258D01*
X002841Y041218D01*
X002868Y041175D01*
X002891Y041131D01*
X002910Y041085D01*
X002926Y041037D01*
X002938Y040988D01*
X002946Y040939D01*
X002950Y040889D01*
X002950Y040839D01*
X002946Y040789D01*
X002938Y040740D01*
X002926Y040691D01*
X002910Y040643D01*
X002891Y040597D01*
X002868Y040553D01*
X002841Y040510D01*
X002811Y040470D01*
X002779Y040432D01*
X002743Y040397D01*
X002704Y040365D01*
X002663Y040336D01*
X002620Y040310D01*
X002575Y040288D01*
X002529Y040270D01*
X002481Y040255D01*
X002432Y040244D01*
X002383Y040237D01*
X002333Y040234D01*
X002282Y040235D01*
X002233Y040240D01*
X002183Y040249D01*
X002135Y040262D01*
X002088Y040278D01*
X002042Y040299D01*
X001998Y040323D01*
X001956Y040350D01*
X001916Y040380D01*
X001879Y040414D01*
X001845Y040451D01*
X001813Y040490D01*
X001785Y040531D01*
X001760Y040575D01*
X001739Y040620D01*
X001722Y040667D01*
X001708Y040715D01*
X001698Y040764D01*
X001692Y040814D01*
X001690Y040864D01*
X051184Y038984D02*
X051186Y039028D01*
X051192Y039072D01*
X051202Y039115D01*
X051215Y039157D01*
X051233Y039197D01*
X051254Y039236D01*
X051278Y039273D01*
X051305Y039308D01*
X051336Y039340D01*
X051369Y039369D01*
X051405Y039395D01*
X051443Y039417D01*
X051483Y039436D01*
X051524Y039452D01*
X051567Y039464D01*
X051610Y039472D01*
X051654Y039476D01*
X051698Y039476D01*
X051742Y039472D01*
X051785Y039464D01*
X051828Y039452D01*
X051869Y039436D01*
X051909Y039417D01*
X051947Y039395D01*
X051983Y039369D01*
X052016Y039340D01*
X052047Y039308D01*
X052074Y039273D01*
X052098Y039236D01*
X052119Y039197D01*
X052137Y039157D01*
X052150Y039115D01*
X052160Y039072D01*
X052166Y039028D01*
X052168Y038984D01*
X052166Y038940D01*
X052160Y038896D01*
X052150Y038853D01*
X052137Y038811D01*
X052119Y038771D01*
X052098Y038732D01*
X052074Y038695D01*
X052047Y038660D01*
X052016Y038628D01*
X051983Y038599D01*
X051947Y038573D01*
X051909Y038551D01*
X051869Y038532D01*
X051828Y038516D01*
X051785Y038504D01*
X051742Y038496D01*
X051698Y038492D01*
X051654Y038492D01*
X051610Y038496D01*
X051567Y038504D01*
X051524Y038516D01*
X051483Y038532D01*
X051443Y038551D01*
X051405Y038573D01*
X051369Y038599D01*
X051336Y038628D01*
X051305Y038660D01*
X051278Y038695D01*
X051254Y038732D01*
X051233Y038771D01*
X051215Y038811D01*
X051202Y038853D01*
X051192Y038896D01*
X051186Y038940D01*
X051184Y038984D01*
X067827Y041323D02*
X067829Y041373D01*
X067835Y041423D01*
X067845Y041472D01*
X067859Y041520D01*
X067876Y041567D01*
X067897Y041612D01*
X067922Y041656D01*
X067950Y041697D01*
X067982Y041736D01*
X068016Y041773D01*
X068053Y041807D01*
X068093Y041837D01*
X068135Y041864D01*
X068179Y041888D01*
X068225Y041909D01*
X068272Y041925D01*
X068320Y041938D01*
X068370Y041947D01*
X068419Y041952D01*
X068470Y041953D01*
X068520Y041950D01*
X068569Y041943D01*
X068618Y041932D01*
X068666Y041917D01*
X068712Y041899D01*
X068757Y041877D01*
X068800Y041851D01*
X068841Y041822D01*
X068880Y041790D01*
X068916Y041755D01*
X068948Y041717D01*
X068978Y041677D01*
X069005Y041634D01*
X069028Y041590D01*
X069047Y041544D01*
X069063Y041496D01*
X069075Y041447D01*
X069083Y041398D01*
X069087Y041348D01*
X069087Y041298D01*
X069083Y041248D01*
X069075Y041199D01*
X069063Y041150D01*
X069047Y041102D01*
X069028Y041056D01*
X069005Y041012D01*
X068978Y040969D01*
X068948Y040929D01*
X068916Y040891D01*
X068880Y040856D01*
X068841Y040824D01*
X068800Y040795D01*
X068757Y040769D01*
X068712Y040747D01*
X068666Y040729D01*
X068618Y040714D01*
X068569Y040703D01*
X068520Y040696D01*
X068470Y040693D01*
X068419Y040694D01*
X068370Y040699D01*
X068320Y040708D01*
X068272Y040721D01*
X068225Y040737D01*
X068179Y040758D01*
X068135Y040782D01*
X068093Y040809D01*
X068053Y040839D01*
X068016Y040873D01*
X067982Y040910D01*
X067950Y040949D01*
X067922Y040990D01*
X067897Y041034D01*
X067876Y041079D01*
X067859Y041126D01*
X067845Y041174D01*
X067835Y041223D01*
X067829Y041273D01*
X067827Y041323D01*
X051184Y026779D02*
X051186Y026823D01*
X051192Y026867D01*
X051202Y026910D01*
X051215Y026952D01*
X051233Y026992D01*
X051254Y027031D01*
X051278Y027068D01*
X051305Y027103D01*
X051336Y027135D01*
X051369Y027164D01*
X051405Y027190D01*
X051443Y027212D01*
X051483Y027231D01*
X051524Y027247D01*
X051567Y027259D01*
X051610Y027267D01*
X051654Y027271D01*
X051698Y027271D01*
X051742Y027267D01*
X051785Y027259D01*
X051828Y027247D01*
X051869Y027231D01*
X051909Y027212D01*
X051947Y027190D01*
X051983Y027164D01*
X052016Y027135D01*
X052047Y027103D01*
X052074Y027068D01*
X052098Y027031D01*
X052119Y026992D01*
X052137Y026952D01*
X052150Y026910D01*
X052160Y026867D01*
X052166Y026823D01*
X052168Y026779D01*
X052166Y026735D01*
X052160Y026691D01*
X052150Y026648D01*
X052137Y026606D01*
X052119Y026566D01*
X052098Y026527D01*
X052074Y026490D01*
X052047Y026455D01*
X052016Y026423D01*
X051983Y026394D01*
X051947Y026368D01*
X051909Y026346D01*
X051869Y026327D01*
X051828Y026311D01*
X051785Y026299D01*
X051742Y026291D01*
X051698Y026287D01*
X051654Y026287D01*
X051610Y026291D01*
X051567Y026299D01*
X051524Y026311D01*
X051483Y026327D01*
X051443Y026346D01*
X051405Y026368D01*
X051369Y026394D01*
X051336Y026423D01*
X051305Y026455D01*
X051278Y026490D01*
X051254Y026527D01*
X051233Y026566D01*
X051215Y026606D01*
X051202Y026648D01*
X051192Y026691D01*
X051186Y026735D01*
X051184Y026779D01*
X067369Y001989D02*
X067371Y002039D01*
X067377Y002089D01*
X067387Y002138D01*
X067401Y002186D01*
X067418Y002233D01*
X067439Y002278D01*
X067464Y002322D01*
X067492Y002363D01*
X067524Y002402D01*
X067558Y002439D01*
X067595Y002473D01*
X067635Y002503D01*
X067677Y002530D01*
X067721Y002554D01*
X067767Y002575D01*
X067814Y002591D01*
X067862Y002604D01*
X067912Y002613D01*
X067961Y002618D01*
X068012Y002619D01*
X068062Y002616D01*
X068111Y002609D01*
X068160Y002598D01*
X068208Y002583D01*
X068254Y002565D01*
X068299Y002543D01*
X068342Y002517D01*
X068383Y002488D01*
X068422Y002456D01*
X068458Y002421D01*
X068490Y002383D01*
X068520Y002343D01*
X068547Y002300D01*
X068570Y002256D01*
X068589Y002210D01*
X068605Y002162D01*
X068617Y002113D01*
X068625Y002064D01*
X068629Y002014D01*
X068629Y001964D01*
X068625Y001914D01*
X068617Y001865D01*
X068605Y001816D01*
X068589Y001768D01*
X068570Y001722D01*
X068547Y001678D01*
X068520Y001635D01*
X068490Y001595D01*
X068458Y001557D01*
X068422Y001522D01*
X068383Y001490D01*
X068342Y001461D01*
X068299Y001435D01*
X068254Y001413D01*
X068208Y001395D01*
X068160Y001380D01*
X068111Y001369D01*
X068062Y001362D01*
X068012Y001359D01*
X067961Y001360D01*
X067912Y001365D01*
X067862Y001374D01*
X067814Y001387D01*
X067767Y001403D01*
X067721Y001424D01*
X067677Y001448D01*
X067635Y001475D01*
X067595Y001505D01*
X067558Y001539D01*
X067524Y001576D01*
X067492Y001615D01*
X067464Y001656D01*
X067439Y001700D01*
X067418Y001745D01*
X067401Y001792D01*
X067387Y001840D01*
X067377Y001889D01*
X067371Y001939D01*
X067369Y001989D01*
D11*
X046293Y024287D03*
X045293Y024287D03*
X044293Y024287D03*
X043293Y024287D03*
X042293Y024287D03*
X041293Y024287D03*
X040293Y024287D03*
X039293Y024287D03*
X038293Y024287D03*
X037293Y024287D03*
X034753Y024285D03*
X033753Y024285D03*
X032753Y024285D03*
X031753Y024285D03*
X030753Y024285D03*
X029753Y024285D03*
X028753Y024285D03*
X027753Y024285D03*
X026753Y024285D03*
X025753Y024285D03*
X023497Y020349D03*
X022497Y020349D03*
X021497Y020349D03*
X018169Y020864D03*
X017169Y020864D03*
X016169Y020864D03*
X016144Y024246D03*
X017144Y024246D03*
X018144Y024246D03*
X018087Y027364D03*
X017087Y027364D03*
X016087Y027364D03*
X016066Y030351D03*
X017066Y030351D03*
X018066Y030351D03*
X018091Y033376D03*
X017091Y033376D03*
X016091Y033376D03*
X016181Y036183D03*
X017181Y036183D03*
X018181Y036183D03*
X018181Y039183D03*
X017181Y039183D03*
X016181Y039183D03*
X013181Y039183D03*
X012181Y039183D03*
X011181Y039183D03*
X011181Y036183D03*
X012181Y036183D03*
X013181Y036183D03*
X021505Y017013D03*
X022505Y017013D03*
X023505Y017013D03*
X023577Y013954D03*
X022577Y013954D03*
X021577Y013954D03*
D12*
X021077Y013454D02*
X024077Y013454D01*
X024077Y014454D01*
X024077Y014704D01*
X021077Y014704D01*
X021077Y014454D01*
X024077Y014454D01*
X025718Y013600D02*
X025718Y016650D01*
X025918Y016800D01*
X025918Y017000D01*
X025918Y017600D01*
X025918Y017800D01*
X025718Y017950D01*
X025718Y018500D01*
X025768Y018500D01*
X025768Y019100D01*
X025718Y019100D01*
X025718Y020800D01*
X029218Y020800D01*
X029218Y020300D01*
X029318Y020300D01*
X029318Y019800D01*
X029218Y019800D01*
X029218Y013050D01*
X029318Y013050D01*
X029318Y012550D01*
X029218Y012550D01*
X029218Y005800D01*
X029318Y005800D01*
X029318Y005300D01*
X029218Y005300D01*
X029218Y004800D01*
X025718Y004800D01*
X025718Y006650D01*
X025918Y006800D01*
X025918Y007000D01*
X025918Y007600D01*
X025918Y007800D01*
X025718Y007950D01*
X025718Y012000D01*
X026118Y012000D01*
X026218Y012000D01*
X026218Y007600D01*
X026218Y007000D01*
X026118Y007000D01*
X025918Y007000D01*
X025968Y007050D02*
X025968Y003550D01*
X027668Y003550D01*
X027668Y003600D01*
X028268Y003600D01*
X028268Y003550D01*
X028818Y003550D01*
X028968Y003750D01*
X029168Y003750D01*
X029768Y003750D01*
X029968Y003750D01*
X030118Y003550D01*
X033168Y003550D01*
X033168Y003950D01*
X033168Y004050D01*
X029768Y004050D01*
X029168Y004050D01*
X026468Y004050D01*
X026468Y006550D01*
X041468Y006550D01*
X041468Y004050D01*
X039768Y004050D01*
X039168Y004050D01*
X034768Y004050D01*
X034768Y003950D01*
X034768Y003550D01*
X033168Y003550D01*
X033168Y004050D02*
X033168Y004350D01*
X034768Y004350D01*
X034768Y004050D01*
X034768Y003550D02*
X038818Y003550D01*
X038968Y003750D01*
X039168Y003750D01*
X039768Y003750D01*
X039768Y003950D01*
X039768Y004050D01*
X039768Y003750D02*
X039968Y003750D01*
X040118Y003550D01*
X041968Y003550D01*
X041968Y007050D01*
X041468Y007050D01*
X041468Y007150D01*
X040968Y007150D01*
X040968Y007050D01*
X034218Y007050D01*
X034218Y007150D01*
X033718Y007150D01*
X033718Y007050D01*
X026968Y007050D01*
X026968Y007150D01*
X026468Y007150D01*
X026468Y007050D01*
X025968Y007050D01*
X026218Y007000D02*
X026218Y005300D01*
X028718Y005300D01*
X028718Y020300D01*
X026218Y020300D01*
X026218Y017600D01*
X026218Y017000D01*
X026118Y017000D01*
X025918Y017000D01*
X026218Y017000D02*
X026218Y013600D01*
X026118Y013600D01*
X025718Y013600D01*
X025718Y012000D01*
X026218Y012000D02*
X026518Y012000D01*
X026518Y013600D01*
X026218Y013600D01*
X029605Y013179D02*
X029605Y014879D01*
X029607Y014896D01*
X029611Y014913D01*
X029618Y014929D01*
X029628Y014943D01*
X029641Y014956D01*
X029655Y014966D01*
X029671Y014973D01*
X029688Y014977D01*
X029705Y014979D01*
X030505Y014979D01*
X030522Y014977D01*
X030539Y014973D01*
X030555Y014966D01*
X030569Y014956D01*
X030582Y014943D01*
X030592Y014929D01*
X030599Y014913D01*
X030603Y014896D01*
X030605Y014879D01*
X030605Y013179D01*
X030603Y013162D01*
X030599Y013145D01*
X030592Y013129D01*
X030582Y013115D01*
X030569Y013102D01*
X030555Y013092D01*
X030539Y013085D01*
X030522Y013081D01*
X030505Y013079D01*
X029705Y013079D01*
X029688Y013081D01*
X029671Y013085D01*
X029655Y013092D01*
X029641Y013102D01*
X029628Y013115D01*
X029618Y013129D01*
X029611Y013145D01*
X029607Y013162D01*
X029605Y013179D01*
X030105Y013879D02*
X030105Y013929D01*
X030105Y014129D02*
X030105Y014179D01*
X026218Y017600D02*
X026118Y017600D01*
X025918Y017600D01*
X025968Y018550D02*
X026468Y018550D01*
X026468Y018450D01*
X026968Y018450D01*
X026968Y018550D01*
X033718Y018550D01*
X033718Y018450D01*
X034218Y018450D01*
X034218Y018550D01*
X040968Y018550D01*
X040968Y018450D01*
X041468Y018450D01*
X041468Y018550D01*
X041968Y018550D01*
X041968Y022050D01*
X040268Y022050D01*
X040268Y022000D01*
X039668Y022000D01*
X039668Y022050D01*
X039118Y022050D01*
X038968Y021850D01*
X038768Y021850D01*
X038168Y021850D01*
X037968Y021850D01*
X037818Y022050D01*
X034768Y022050D01*
X034768Y021650D01*
X034768Y021550D01*
X038168Y021550D01*
X038768Y021550D01*
X041468Y021550D01*
X041468Y019050D01*
X026468Y019050D01*
X026468Y021550D01*
X028168Y021550D01*
X028768Y021550D01*
X033168Y021550D01*
X033168Y021650D01*
X033168Y022050D01*
X034768Y022050D01*
X034768Y021550D02*
X034768Y021250D01*
X033168Y021250D01*
X033168Y021550D01*
X033168Y022050D02*
X029118Y022050D01*
X028968Y021850D01*
X028768Y021850D01*
X028168Y021850D01*
X028168Y021650D01*
X028168Y021550D01*
X028168Y021850D02*
X027968Y021850D01*
X027818Y022050D01*
X025968Y022050D01*
X025968Y018550D01*
X024005Y017763D02*
X024005Y017513D01*
X024005Y016513D01*
X021005Y016513D01*
X021005Y017513D01*
X021005Y017763D01*
X024005Y017763D01*
X024005Y017513D02*
X021005Y017513D01*
X020997Y019849D02*
X023997Y019849D01*
X023997Y020849D01*
X023997Y021099D01*
X020997Y021099D01*
X020997Y020849D01*
X023997Y020849D01*
X020997Y020849D02*
X020997Y019849D01*
X018669Y020364D02*
X018669Y021364D01*
X018669Y021614D01*
X015669Y021614D01*
X015669Y021364D01*
X018669Y021364D01*
X018669Y020364D02*
X015669Y020364D01*
X015669Y021364D01*
X015644Y023746D02*
X018644Y023746D01*
X018644Y024746D01*
X018644Y024996D01*
X015644Y024996D01*
X015644Y024746D01*
X018644Y024746D01*
X015644Y024746D02*
X015644Y023746D01*
X015587Y026864D02*
X018587Y026864D01*
X018587Y027864D01*
X018587Y028114D01*
X015587Y028114D01*
X015587Y027864D01*
X018587Y027864D01*
X018566Y029851D02*
X015566Y029851D01*
X015566Y030851D01*
X015566Y031101D01*
X018566Y031101D01*
X018566Y030851D01*
X018566Y029851D01*
X018566Y030851D02*
X015566Y030851D01*
X015591Y032876D02*
X018591Y032876D01*
X018591Y033876D01*
X018591Y034126D01*
X015591Y034126D01*
X015591Y033876D01*
X018591Y033876D01*
X018681Y035683D02*
X015681Y035683D01*
X015681Y036683D01*
X015681Y036933D01*
X018681Y036933D01*
X018681Y036683D01*
X018681Y035683D01*
X018681Y036683D02*
X015681Y036683D01*
X013681Y036683D02*
X013681Y035683D01*
X010681Y035683D01*
X010681Y036683D01*
X010681Y036933D01*
X013681Y036933D01*
X013681Y036683D01*
X010681Y036683D01*
X010681Y038683D02*
X013681Y038683D01*
X013681Y039683D01*
X013681Y039933D01*
X010681Y039933D01*
X010681Y039683D01*
X013681Y039683D01*
X015681Y039683D02*
X015681Y038683D01*
X018681Y038683D01*
X018681Y039683D01*
X018681Y039933D01*
X015681Y039933D01*
X015681Y039683D01*
X018681Y039683D01*
X010681Y039683D02*
X010681Y038683D01*
X007786Y037830D02*
X007758Y037786D01*
X007727Y037744D01*
X007692Y037705D01*
X007655Y037668D01*
X007616Y037634D01*
X007574Y037604D01*
X007530Y037576D01*
X007484Y037552D01*
X007436Y037531D01*
X007386Y037514D01*
X007336Y037500D01*
X007285Y037491D01*
X007233Y037485D01*
X007181Y037483D01*
X007129Y037485D01*
X007077Y037491D01*
X007026Y037500D01*
X006976Y037514D01*
X006926Y037531D01*
X006878Y037552D01*
X006832Y037576D01*
X006788Y037604D01*
X006746Y037634D01*
X006707Y037668D01*
X006670Y037705D01*
X006635Y037744D01*
X006604Y037786D01*
X006576Y037830D01*
X006576Y038536D02*
X006604Y038580D01*
X006635Y038622D01*
X006670Y038661D01*
X006707Y038698D01*
X006746Y038732D01*
X006788Y038762D01*
X006832Y038790D01*
X006878Y038814D01*
X006926Y038835D01*
X006976Y038852D01*
X007026Y038866D01*
X007077Y038875D01*
X007129Y038881D01*
X007181Y038883D01*
X006581Y039033D02*
X006331Y039283D01*
X006081Y039033D01*
X006331Y038783D01*
X007181Y038883D02*
X007233Y038881D01*
X007285Y038875D01*
X007336Y038866D01*
X007386Y038852D01*
X007436Y038835D01*
X007484Y038814D01*
X007530Y038790D01*
X007574Y038762D01*
X007616Y038732D01*
X007655Y038698D01*
X007692Y038661D01*
X007727Y038622D01*
X007758Y038580D01*
X007786Y038536D01*
X006131Y038183D02*
X006133Y038248D01*
X006139Y038312D01*
X006149Y038376D01*
X006163Y038439D01*
X006180Y038501D01*
X006202Y038562D01*
X006227Y038622D01*
X006256Y038680D01*
X006288Y038736D01*
X006324Y038790D01*
X006363Y038841D01*
X006405Y038890D01*
X006450Y038937D01*
X006498Y038980D01*
X006548Y039021D01*
X006601Y039058D01*
X006656Y039092D01*
X006713Y039123D01*
X006772Y039150D01*
X006832Y039173D01*
X006894Y039193D01*
X006956Y039209D01*
X007020Y039221D01*
X007084Y039229D01*
X007149Y039233D01*
X007213Y039233D01*
X007278Y039229D01*
X007342Y039221D01*
X007406Y039209D01*
X007468Y039193D01*
X007530Y039173D01*
X007590Y039150D01*
X007649Y039123D01*
X007706Y039092D01*
X007761Y039058D01*
X007814Y039021D01*
X007864Y038980D01*
X007912Y038937D01*
X007957Y038890D01*
X007999Y038841D01*
X008038Y038790D01*
X008074Y038736D01*
X008106Y038680D01*
X008135Y038622D01*
X008160Y038562D01*
X008182Y038501D01*
X008199Y038439D01*
X008213Y038376D01*
X008223Y038312D01*
X008229Y038248D01*
X008231Y038183D01*
X008229Y038118D01*
X008223Y038054D01*
X008213Y037990D01*
X008199Y037927D01*
X008182Y037865D01*
X008160Y037804D01*
X008135Y037744D01*
X008106Y037686D01*
X008074Y037630D01*
X008038Y037576D01*
X007999Y037525D01*
X007957Y037476D01*
X007912Y037429D01*
X007864Y037386D01*
X007814Y037345D01*
X007761Y037308D01*
X007706Y037274D01*
X007649Y037243D01*
X007590Y037216D01*
X007530Y037193D01*
X007468Y037173D01*
X007406Y037157D01*
X007342Y037145D01*
X007278Y037137D01*
X007213Y037133D01*
X007149Y037133D01*
X007084Y037137D01*
X007020Y037145D01*
X006956Y037157D01*
X006894Y037173D01*
X006832Y037193D01*
X006772Y037216D01*
X006713Y037243D01*
X006656Y037274D01*
X006601Y037308D01*
X006548Y037345D01*
X006498Y037386D01*
X006450Y037429D01*
X006405Y037476D01*
X006363Y037525D01*
X006324Y037576D01*
X006288Y037630D01*
X006256Y037686D01*
X006227Y037744D01*
X006202Y037804D01*
X006180Y037865D01*
X006163Y037927D01*
X006149Y037990D01*
X006139Y038054D01*
X006133Y038118D01*
X006131Y038183D01*
X001491Y037997D02*
X001491Y037570D01*
X001491Y037784D02*
X000850Y037784D01*
X001064Y037570D01*
X000850Y037353D02*
X000850Y037139D01*
X000850Y037246D02*
X001384Y037246D01*
X001491Y037139D01*
X001491Y037032D01*
X001384Y036926D01*
X003839Y033408D02*
X005439Y033408D01*
X005456Y033406D01*
X005473Y033402D01*
X005489Y033395D01*
X005503Y033385D01*
X005516Y033372D01*
X005526Y033358D01*
X005533Y033342D01*
X005537Y033325D01*
X005539Y033308D01*
X005539Y032708D01*
X005537Y032691D01*
X005533Y032674D01*
X005526Y032658D01*
X005516Y032644D01*
X005503Y032631D01*
X005489Y032621D01*
X005473Y032614D01*
X005456Y032610D01*
X005439Y032608D01*
X003839Y032608D01*
X003822Y032610D01*
X003805Y032614D01*
X003789Y032621D01*
X003775Y032631D01*
X003762Y032644D01*
X003752Y032658D01*
X003745Y032674D01*
X003741Y032691D01*
X003739Y032708D01*
X003739Y033308D01*
X003741Y033325D01*
X003745Y033342D01*
X003752Y033358D01*
X003762Y033372D01*
X003775Y033385D01*
X003789Y033395D01*
X003805Y033402D01*
X003822Y033406D01*
X003839Y033408D01*
X004389Y033008D02*
X004639Y033008D01*
X004639Y032758D01*
X004639Y033008D02*
X004639Y033258D01*
X004639Y033008D02*
X005039Y033258D01*
X005039Y032758D01*
X004639Y033008D01*
X005239Y033008D01*
X005682Y031458D02*
X005832Y031458D01*
X005849Y031456D01*
X005866Y031452D01*
X005882Y031445D01*
X005896Y031435D01*
X005909Y031422D01*
X005919Y031408D01*
X005926Y031392D01*
X005930Y031375D01*
X005932Y031358D01*
X005932Y030658D01*
X005930Y030641D01*
X005926Y030624D01*
X005919Y030608D01*
X005909Y030594D01*
X005896Y030581D01*
X005882Y030571D01*
X005866Y030564D01*
X005849Y030560D01*
X005832Y030558D01*
X005682Y030558D01*
X005632Y030608D01*
X003732Y030608D01*
X003682Y030558D01*
X003532Y030558D01*
X003515Y030560D01*
X003498Y030564D01*
X003482Y030571D01*
X003468Y030581D01*
X003455Y030594D01*
X003445Y030608D01*
X003438Y030624D01*
X003434Y030641D01*
X003432Y030658D01*
X003432Y031358D01*
X003434Y031375D01*
X003438Y031392D01*
X003445Y031408D01*
X003455Y031422D01*
X003468Y031435D01*
X003482Y031445D01*
X003498Y031452D01*
X003515Y031456D01*
X003532Y031458D01*
X003682Y031458D01*
X003732Y031408D01*
X005632Y031408D01*
X005682Y031458D01*
X005439Y029408D02*
X003839Y029408D01*
X003822Y029406D01*
X003805Y029402D01*
X003789Y029395D01*
X003775Y029385D01*
X003762Y029372D01*
X003752Y029358D01*
X003745Y029342D01*
X003741Y029325D01*
X003739Y029308D01*
X003739Y028708D01*
X003741Y028691D01*
X003745Y028674D01*
X003752Y028658D01*
X003762Y028644D01*
X003775Y028631D01*
X003789Y028621D01*
X003805Y028614D01*
X003822Y028610D01*
X003839Y028608D01*
X005439Y028608D01*
X005456Y028610D01*
X005473Y028614D01*
X005489Y028621D01*
X005503Y028631D01*
X005516Y028644D01*
X005526Y028658D01*
X005533Y028674D01*
X005537Y028691D01*
X005539Y028708D01*
X005539Y029308D01*
X005537Y029325D01*
X005533Y029342D01*
X005526Y029358D01*
X005516Y029372D01*
X005503Y029385D01*
X005489Y029395D01*
X005473Y029402D01*
X005456Y029406D01*
X005439Y029408D01*
X004889Y029008D02*
X004639Y029008D01*
X004639Y029258D01*
X004639Y029008D02*
X004239Y029258D01*
X004239Y028758D01*
X004639Y029008D01*
X004639Y028758D01*
X004639Y029008D02*
X004039Y029008D01*
X004394Y022214D02*
X003644Y022214D01*
X003644Y021964D01*
X003144Y021964D01*
X003144Y022214D01*
X003644Y022214D01*
X003144Y022214D02*
X002394Y022214D01*
X002394Y021964D01*
X001394Y021964D01*
X001394Y018464D01*
X002394Y018464D01*
X002394Y018214D01*
X003144Y018214D01*
X003644Y018214D01*
X003644Y018464D01*
X003144Y018464D01*
X003144Y018214D01*
X003644Y018214D02*
X004394Y018214D01*
X004394Y018464D01*
X005394Y018464D01*
X005394Y021964D01*
X004394Y021964D01*
X004394Y022214D01*
X004644Y021714D02*
X004644Y021564D01*
X004644Y021714D02*
X002144Y021714D01*
X002144Y021564D01*
X002644Y021214D02*
X004144Y021214D01*
X004144Y019464D01*
X002644Y019464D01*
X002644Y019214D01*
X004144Y019214D01*
X004144Y019464D01*
X004644Y018864D02*
X004644Y018714D01*
X002144Y018714D01*
X002144Y018864D01*
X002644Y019464D02*
X002644Y021214D01*
X003394Y020714D02*
X003394Y019714D01*
X002894Y020214D02*
X003894Y020214D01*
X006901Y016523D02*
X004271Y012033D01*
X004269Y012036D02*
X004159Y011817D01*
X004060Y011593D01*
X003972Y011364D01*
X003895Y011132D01*
X003830Y010896D01*
X003777Y010657D01*
X003735Y010415D01*
X003705Y010172D01*
X003687Y009928D01*
X003681Y009683D01*
X004351Y007183D02*
X006881Y002883D01*
X008681Y001883D02*
X008781Y001885D01*
X008881Y001892D01*
X008981Y001904D01*
X009080Y001921D01*
X009178Y001942D01*
X009275Y001968D01*
X009371Y001998D01*
X009465Y002033D01*
X009558Y002072D01*
X009648Y002115D01*
X009736Y002163D01*
X009822Y002215D01*
X009906Y002270D01*
X009987Y002330D01*
X010064Y002393D01*
X010139Y002460D01*
X010211Y002531D01*
X010279Y002604D01*
X010343Y002681D01*
X010404Y002761D01*
X010461Y002844D01*
X010514Y002929D01*
X010491Y002893D02*
X013101Y007343D01*
X004356Y007174D02*
X004241Y007384D01*
X004136Y007599D01*
X004042Y007818D01*
X003958Y008042D01*
X003885Y008269D01*
X003823Y008500D01*
X003772Y008733D01*
X003732Y008969D01*
X003704Y009206D01*
X003687Y009444D01*
X003681Y009683D01*
X013093Y007330D02*
X013203Y007549D01*
X013302Y007773D01*
X013390Y008002D01*
X013467Y008234D01*
X013532Y008470D01*
X013585Y008709D01*
X013627Y008951D01*
X013657Y009194D01*
X013675Y009438D01*
X013681Y009683D01*
X013011Y012193D02*
X010461Y016523D01*
X010470Y016508D02*
X010413Y016592D01*
X010353Y016673D01*
X010288Y016751D01*
X010220Y016826D01*
X010148Y016897D01*
X010073Y016965D01*
X009995Y017029D01*
X009914Y017090D01*
X009830Y017146D01*
X009744Y017199D01*
X009655Y017247D01*
X009564Y017291D01*
X009471Y017331D01*
X009376Y017366D01*
X009280Y017397D01*
X009182Y017423D01*
X009083Y017445D01*
X008983Y017461D01*
X008883Y017473D01*
X008782Y017481D01*
X008681Y017483D01*
X008580Y017481D01*
X008479Y017473D01*
X008379Y017461D01*
X008279Y017445D01*
X008180Y017423D01*
X008082Y017397D01*
X007986Y017366D01*
X007891Y017331D01*
X007798Y017291D01*
X007707Y017247D01*
X007618Y017199D01*
X007532Y017146D01*
X007448Y017090D01*
X007367Y017029D01*
X007289Y016965D01*
X007214Y016897D01*
X007142Y016826D01*
X007074Y016751D01*
X007009Y016673D01*
X006949Y016592D01*
X006892Y016508D01*
X013006Y012192D02*
X013121Y011982D01*
X013226Y011767D01*
X013320Y011548D01*
X013404Y011324D01*
X013477Y011097D01*
X013539Y010866D01*
X013590Y010633D01*
X013630Y010397D01*
X013658Y010160D01*
X013675Y009922D01*
X013681Y009683D01*
X018341Y009682D02*
X018341Y009532D01*
X018391Y009482D01*
X018391Y007582D01*
X018341Y007532D01*
X018341Y007382D01*
X018343Y007365D01*
X018347Y007348D01*
X018354Y007332D01*
X018364Y007318D01*
X018377Y007305D01*
X018391Y007295D01*
X018407Y007288D01*
X018424Y007284D01*
X018441Y007282D01*
X019141Y007282D01*
X019158Y007284D01*
X019175Y007288D01*
X019191Y007295D01*
X019205Y007305D01*
X019218Y007318D01*
X019228Y007332D01*
X019235Y007348D01*
X019239Y007365D01*
X019241Y007382D01*
X019241Y007532D01*
X019191Y007582D01*
X019191Y009482D01*
X019241Y009532D01*
X019241Y009682D01*
X019239Y009699D01*
X019235Y009716D01*
X019228Y009732D01*
X019218Y009746D01*
X019205Y009759D01*
X019191Y009769D01*
X019175Y009776D01*
X019158Y009780D01*
X019141Y009782D01*
X018441Y009782D01*
X018424Y009780D01*
X018407Y009776D01*
X018391Y009769D01*
X018377Y009759D01*
X018364Y009746D01*
X018354Y009732D01*
X018347Y009716D01*
X018343Y009699D01*
X018341Y009682D01*
X019514Y009644D02*
X019514Y009494D01*
X019564Y009444D01*
X019564Y007544D01*
X019514Y007494D01*
X019514Y007344D01*
X019516Y007327D01*
X019520Y007310D01*
X019527Y007294D01*
X019537Y007280D01*
X019550Y007267D01*
X019564Y007257D01*
X019580Y007250D01*
X019597Y007246D01*
X019614Y007244D01*
X020314Y007244D01*
X020331Y007246D01*
X020348Y007250D01*
X020364Y007257D01*
X020378Y007267D01*
X020391Y007280D01*
X020401Y007294D01*
X020408Y007310D01*
X020412Y007327D01*
X020414Y007344D01*
X020414Y007494D01*
X020364Y007544D01*
X020364Y009444D01*
X020414Y009494D01*
X020414Y009644D01*
X020412Y009661D01*
X020408Y009678D01*
X020401Y009694D01*
X020391Y009708D01*
X020378Y009721D01*
X020364Y009731D01*
X020348Y009738D01*
X020331Y009742D01*
X020314Y009744D01*
X019614Y009744D01*
X019597Y009742D01*
X019580Y009738D01*
X019564Y009731D01*
X019550Y009721D01*
X019537Y009708D01*
X019527Y009694D01*
X019520Y009678D01*
X019516Y009661D01*
X019514Y009644D01*
X021077Y013454D02*
X021077Y014454D01*
X029826Y008300D02*
X029826Y007500D01*
X029828Y007483D01*
X029832Y007466D01*
X029839Y007450D01*
X029849Y007436D01*
X029862Y007423D01*
X029876Y007413D01*
X029892Y007406D01*
X029909Y007402D01*
X029926Y007400D01*
X031626Y007400D01*
X031643Y007402D01*
X031660Y007406D01*
X031676Y007413D01*
X031690Y007423D01*
X031703Y007436D01*
X031713Y007450D01*
X031720Y007466D01*
X031724Y007483D01*
X031726Y007500D01*
X031726Y008300D01*
X031724Y008317D01*
X031720Y008334D01*
X031713Y008350D01*
X031703Y008364D01*
X031690Y008377D01*
X031676Y008387D01*
X031660Y008394D01*
X031643Y008398D01*
X031626Y008400D01*
X029926Y008400D01*
X029909Y008398D01*
X029892Y008394D01*
X029876Y008387D01*
X029862Y008377D01*
X029849Y008364D01*
X029839Y008350D01*
X029832Y008334D01*
X029828Y008317D01*
X029826Y008300D01*
X030626Y007900D02*
X030676Y007900D01*
X030876Y007900D02*
X030926Y007900D01*
X026218Y007600D02*
X026118Y007600D01*
X025918Y007600D01*
X029168Y004050D02*
X029168Y003950D01*
X029168Y003750D01*
X029768Y003750D02*
X029768Y003950D01*
X029768Y004050D01*
X024455Y001751D02*
X024427Y001707D01*
X024396Y001665D01*
X024361Y001626D01*
X024324Y001589D01*
X024285Y001555D01*
X024243Y001525D01*
X024199Y001497D01*
X024153Y001473D01*
X024105Y001452D01*
X024055Y001435D01*
X024005Y001421D01*
X023954Y001412D01*
X023902Y001406D01*
X023850Y001404D01*
X023798Y001406D01*
X023746Y001412D01*
X023695Y001421D01*
X023645Y001435D01*
X023595Y001452D01*
X023547Y001473D01*
X023501Y001497D01*
X023457Y001525D01*
X023415Y001555D01*
X023376Y001589D01*
X023339Y001626D01*
X023304Y001665D01*
X023273Y001707D01*
X023245Y001751D01*
X023245Y002457D02*
X023273Y002501D01*
X023304Y002543D01*
X023339Y002582D01*
X023376Y002619D01*
X023415Y002653D01*
X023457Y002683D01*
X023501Y002711D01*
X023547Y002735D01*
X023595Y002756D01*
X023645Y002773D01*
X023695Y002787D01*
X023746Y002796D01*
X023798Y002802D01*
X023850Y002804D01*
X023250Y002954D02*
X023000Y003204D01*
X022750Y002954D01*
X023000Y002704D01*
X023850Y002804D02*
X023902Y002802D01*
X023954Y002796D01*
X024005Y002787D01*
X024055Y002773D01*
X024105Y002756D01*
X024153Y002735D01*
X024199Y002711D01*
X024243Y002683D01*
X024285Y002653D01*
X024324Y002619D01*
X024361Y002582D01*
X024396Y002543D01*
X024427Y002501D01*
X024455Y002457D01*
X022800Y002104D02*
X022802Y002169D01*
X022808Y002233D01*
X022818Y002297D01*
X022832Y002360D01*
X022849Y002422D01*
X022871Y002483D01*
X022896Y002543D01*
X022925Y002601D01*
X022957Y002657D01*
X022993Y002711D01*
X023032Y002762D01*
X023074Y002811D01*
X023119Y002858D01*
X023167Y002901D01*
X023217Y002942D01*
X023270Y002979D01*
X023325Y003013D01*
X023382Y003044D01*
X023441Y003071D01*
X023501Y003094D01*
X023563Y003114D01*
X023625Y003130D01*
X023689Y003142D01*
X023753Y003150D01*
X023818Y003154D01*
X023882Y003154D01*
X023947Y003150D01*
X024011Y003142D01*
X024075Y003130D01*
X024137Y003114D01*
X024199Y003094D01*
X024259Y003071D01*
X024318Y003044D01*
X024375Y003013D01*
X024430Y002979D01*
X024483Y002942D01*
X024533Y002901D01*
X024581Y002858D01*
X024626Y002811D01*
X024668Y002762D01*
X024707Y002711D01*
X024743Y002657D01*
X024775Y002601D01*
X024804Y002543D01*
X024829Y002483D01*
X024851Y002422D01*
X024868Y002360D01*
X024882Y002297D01*
X024892Y002233D01*
X024898Y002169D01*
X024900Y002104D01*
X024898Y002039D01*
X024892Y001975D01*
X024882Y001911D01*
X024868Y001848D01*
X024851Y001786D01*
X024829Y001725D01*
X024804Y001665D01*
X024775Y001607D01*
X024743Y001551D01*
X024707Y001497D01*
X024668Y001446D01*
X024626Y001397D01*
X024581Y001350D01*
X024533Y001307D01*
X024483Y001266D01*
X024430Y001229D01*
X024375Y001195D01*
X024318Y001164D01*
X024259Y001137D01*
X024199Y001114D01*
X024137Y001094D01*
X024075Y001078D01*
X024011Y001066D01*
X023947Y001058D01*
X023882Y001054D01*
X023818Y001054D01*
X023753Y001058D01*
X023689Y001066D01*
X023625Y001078D01*
X023563Y001094D01*
X023501Y001114D01*
X023441Y001137D01*
X023382Y001164D01*
X023325Y001195D01*
X023270Y001229D01*
X023217Y001266D01*
X023167Y001307D01*
X023119Y001350D01*
X023074Y001397D01*
X023032Y001446D01*
X022993Y001497D01*
X022957Y001551D01*
X022925Y001607D01*
X022896Y001665D01*
X022871Y001725D01*
X022849Y001786D01*
X022832Y001848D01*
X022818Y001911D01*
X022808Y001975D01*
X022802Y002039D01*
X022800Y002104D01*
X020662Y001662D02*
X020634Y001618D01*
X020603Y001576D01*
X020568Y001537D01*
X020531Y001500D01*
X020492Y001466D01*
X020450Y001436D01*
X020406Y001408D01*
X020360Y001384D01*
X020312Y001363D01*
X020262Y001346D01*
X020212Y001332D01*
X020161Y001323D01*
X020109Y001317D01*
X020057Y001315D01*
X020005Y001317D01*
X019953Y001323D01*
X019902Y001332D01*
X019852Y001346D01*
X019802Y001363D01*
X019754Y001384D01*
X019708Y001408D01*
X019664Y001436D01*
X019622Y001466D01*
X019583Y001500D01*
X019546Y001537D01*
X019511Y001576D01*
X019480Y001618D01*
X019452Y001662D01*
X019452Y002368D02*
X019480Y002412D01*
X019511Y002454D01*
X019546Y002493D01*
X019583Y002530D01*
X019622Y002564D01*
X019664Y002594D01*
X019708Y002622D01*
X019754Y002646D01*
X019802Y002667D01*
X019852Y002684D01*
X019902Y002698D01*
X019953Y002707D01*
X020005Y002713D01*
X020057Y002715D01*
X019457Y002865D02*
X019207Y003115D01*
X018957Y002865D01*
X019207Y002615D01*
X020057Y002715D02*
X020109Y002713D01*
X020161Y002707D01*
X020212Y002698D01*
X020262Y002684D01*
X020312Y002667D01*
X020360Y002646D01*
X020406Y002622D01*
X020450Y002594D01*
X020492Y002564D01*
X020531Y002530D01*
X020568Y002493D01*
X020603Y002454D01*
X020634Y002412D01*
X020662Y002368D01*
X019007Y002015D02*
X019009Y002080D01*
X019015Y002144D01*
X019025Y002208D01*
X019039Y002271D01*
X019056Y002333D01*
X019078Y002394D01*
X019103Y002454D01*
X019132Y002512D01*
X019164Y002568D01*
X019200Y002622D01*
X019239Y002673D01*
X019281Y002722D01*
X019326Y002769D01*
X019374Y002812D01*
X019424Y002853D01*
X019477Y002890D01*
X019532Y002924D01*
X019589Y002955D01*
X019648Y002982D01*
X019708Y003005D01*
X019770Y003025D01*
X019832Y003041D01*
X019896Y003053D01*
X019960Y003061D01*
X020025Y003065D01*
X020089Y003065D01*
X020154Y003061D01*
X020218Y003053D01*
X020282Y003041D01*
X020344Y003025D01*
X020406Y003005D01*
X020466Y002982D01*
X020525Y002955D01*
X020582Y002924D01*
X020637Y002890D01*
X020690Y002853D01*
X020740Y002812D01*
X020788Y002769D01*
X020833Y002722D01*
X020875Y002673D01*
X020914Y002622D01*
X020950Y002568D01*
X020982Y002512D01*
X021011Y002454D01*
X021036Y002394D01*
X021058Y002333D01*
X021075Y002271D01*
X021089Y002208D01*
X021099Y002144D01*
X021105Y002080D01*
X021107Y002015D01*
X021105Y001950D01*
X021099Y001886D01*
X021089Y001822D01*
X021075Y001759D01*
X021058Y001697D01*
X021036Y001636D01*
X021011Y001576D01*
X020982Y001518D01*
X020950Y001462D01*
X020914Y001408D01*
X020875Y001357D01*
X020833Y001308D01*
X020788Y001261D01*
X020740Y001218D01*
X020690Y001177D01*
X020637Y001140D01*
X020582Y001106D01*
X020525Y001075D01*
X020466Y001048D01*
X020406Y001025D01*
X020344Y001005D01*
X020282Y000989D01*
X020218Y000977D01*
X020154Y000969D01*
X020089Y000965D01*
X020025Y000965D01*
X019960Y000969D01*
X019896Y000977D01*
X019832Y000989D01*
X019770Y001005D01*
X019708Y001025D01*
X019648Y001048D01*
X019589Y001075D01*
X019532Y001106D01*
X019477Y001140D01*
X019424Y001177D01*
X019374Y001218D01*
X019326Y001261D01*
X019281Y001308D01*
X019239Y001357D01*
X019200Y001408D01*
X019164Y001462D01*
X019132Y001518D01*
X019103Y001576D01*
X019078Y001636D01*
X019056Y001697D01*
X019039Y001759D01*
X019025Y001822D01*
X019015Y001886D01*
X019009Y001950D01*
X019007Y002015D01*
X008681Y001883D02*
X008579Y001885D01*
X008478Y001893D01*
X008377Y001905D01*
X008277Y001922D01*
X008177Y001943D01*
X008079Y001970D01*
X007982Y002001D01*
X007887Y002036D01*
X007794Y002077D01*
X007702Y002121D01*
X007613Y002170D01*
X007526Y002223D01*
X007442Y002280D01*
X007361Y002341D01*
X007283Y002406D01*
X007208Y002475D01*
X007136Y002547D01*
X007068Y002622D01*
X007003Y002701D01*
X006943Y002782D01*
X006886Y002867D01*
X006833Y002954D01*
X004991Y009683D02*
X004995Y009864D01*
X005009Y010045D01*
X005031Y010224D01*
X005062Y010403D01*
X005102Y010580D01*
X005150Y010754D01*
X005207Y010926D01*
X005272Y011095D01*
X005345Y011261D01*
X005427Y011422D01*
X005516Y011580D01*
X005613Y011733D01*
X005717Y011881D01*
X005829Y012024D01*
X005947Y012161D01*
X006072Y012292D01*
X006203Y012417D01*
X006340Y012535D01*
X006483Y012647D01*
X006631Y012751D01*
X006784Y012848D01*
X006942Y012937D01*
X007103Y013019D01*
X007269Y013092D01*
X007438Y013157D01*
X007610Y013214D01*
X007784Y013262D01*
X007961Y013302D01*
X008140Y013333D01*
X008319Y013355D01*
X008500Y013369D01*
X008681Y013373D01*
X008862Y013369D01*
X009043Y013355D01*
X009222Y013333D01*
X009401Y013302D01*
X009578Y013262D01*
X009752Y013214D01*
X009924Y013157D01*
X010093Y013092D01*
X010259Y013019D01*
X010420Y012937D01*
X010578Y012848D01*
X010731Y012751D01*
X010879Y012647D01*
X011022Y012535D01*
X011159Y012417D01*
X011290Y012292D01*
X011415Y012161D01*
X011533Y012024D01*
X011645Y011881D01*
X011749Y011733D01*
X011846Y011580D01*
X011935Y011422D01*
X012017Y011261D01*
X012090Y011095D01*
X012155Y010926D01*
X012212Y010754D01*
X012260Y010580D01*
X012300Y010403D01*
X012331Y010224D01*
X012353Y010045D01*
X012367Y009864D01*
X012371Y009683D01*
X012367Y009502D01*
X012353Y009321D01*
X012331Y009142D01*
X012300Y008963D01*
X012260Y008786D01*
X012212Y008612D01*
X012155Y008440D01*
X012090Y008271D01*
X012017Y008105D01*
X011935Y007944D01*
X011846Y007786D01*
X011749Y007633D01*
X011645Y007485D01*
X011533Y007342D01*
X011415Y007205D01*
X011290Y007074D01*
X011159Y006949D01*
X011022Y006831D01*
X010879Y006719D01*
X010731Y006615D01*
X010578Y006518D01*
X010420Y006429D01*
X010259Y006347D01*
X010093Y006274D01*
X009924Y006209D01*
X009752Y006152D01*
X009578Y006104D01*
X009401Y006064D01*
X009222Y006033D01*
X009043Y006011D01*
X008862Y005997D01*
X008681Y005993D01*
X008500Y005997D01*
X008319Y006011D01*
X008140Y006033D01*
X007961Y006064D01*
X007784Y006104D01*
X007610Y006152D01*
X007438Y006209D01*
X007269Y006274D01*
X007103Y006347D01*
X006942Y006429D01*
X006784Y006518D01*
X006631Y006615D01*
X006483Y006719D01*
X006340Y006831D01*
X006203Y006949D01*
X006072Y007074D01*
X005947Y007205D01*
X005829Y007342D01*
X005717Y007485D01*
X005613Y007633D01*
X005516Y007786D01*
X005427Y007944D01*
X005345Y008105D01*
X005272Y008271D01*
X005207Y008440D01*
X005150Y008612D01*
X005102Y008786D01*
X005062Y008963D01*
X005031Y009142D01*
X005009Y009321D01*
X004995Y009502D01*
X004991Y009683D01*
X025253Y023535D02*
X025253Y023785D01*
X025253Y024785D01*
X035253Y024785D01*
X035253Y023785D01*
X035253Y023535D01*
X025253Y023535D01*
X025253Y023785D02*
X035253Y023785D01*
X036793Y023787D02*
X036793Y023537D01*
X046793Y023537D01*
X046793Y023787D01*
X036793Y023787D01*
X036793Y024787D01*
X046793Y024787D01*
X046793Y023787D01*
X042218Y020800D02*
X038718Y020800D01*
X038718Y020300D01*
X038618Y020300D01*
X038618Y019800D01*
X038718Y019800D01*
X038718Y013050D01*
X038618Y013050D01*
X038618Y012550D01*
X038718Y012550D01*
X038718Y005800D01*
X038618Y005800D01*
X038618Y005300D01*
X038718Y005300D01*
X038718Y004800D01*
X042218Y004800D01*
X042218Y006500D01*
X042168Y006500D01*
X042168Y007100D01*
X042218Y007100D01*
X042218Y007650D01*
X042018Y007800D01*
X042018Y008000D01*
X042018Y008600D01*
X042018Y008800D01*
X042218Y008950D01*
X042218Y012000D01*
X041818Y012000D01*
X041718Y012000D01*
X041718Y008600D01*
X041718Y008000D01*
X041718Y005300D01*
X039218Y005300D01*
X039218Y020300D01*
X041718Y020300D01*
X041718Y018600D01*
X041718Y018000D01*
X041718Y013600D01*
X041818Y013600D01*
X042218Y013600D01*
X042218Y012000D01*
X041718Y012000D02*
X041418Y012000D01*
X041418Y013600D01*
X041718Y013600D01*
X042218Y013600D02*
X042218Y017650D01*
X042018Y017800D01*
X042018Y018000D01*
X042018Y018600D01*
X041818Y018600D01*
X041718Y018600D01*
X042018Y018600D02*
X042018Y018800D01*
X042218Y018950D01*
X042218Y020800D01*
X038768Y021550D02*
X038768Y021650D01*
X038768Y021850D01*
X038168Y021850D02*
X038168Y021650D01*
X038168Y021550D01*
X037664Y018203D02*
X035964Y018203D01*
X035947Y018201D01*
X035930Y018197D01*
X035914Y018190D01*
X035900Y018180D01*
X035887Y018167D01*
X035877Y018153D01*
X035870Y018137D01*
X035866Y018120D01*
X035864Y018103D01*
X035864Y017303D01*
X035866Y017286D01*
X035870Y017269D01*
X035877Y017253D01*
X035887Y017239D01*
X035900Y017226D01*
X035914Y017216D01*
X035930Y017209D01*
X035947Y017205D01*
X035964Y017203D01*
X037664Y017203D01*
X037681Y017205D01*
X037698Y017209D01*
X037714Y017216D01*
X037728Y017226D01*
X037741Y017239D01*
X037751Y017253D01*
X037758Y017269D01*
X037762Y017286D01*
X037764Y017303D01*
X037764Y018103D01*
X037762Y018120D01*
X037758Y018137D01*
X037751Y018153D01*
X037741Y018167D01*
X037728Y018180D01*
X037714Y018190D01*
X037698Y018197D01*
X037681Y018201D01*
X037664Y018203D01*
X036964Y017703D02*
X036914Y017703D01*
X036714Y017703D02*
X036664Y017703D01*
X041718Y018000D02*
X041818Y018000D01*
X042018Y018000D01*
X038092Y012792D02*
X037292Y012792D01*
X037275Y012790D01*
X037258Y012786D01*
X037242Y012779D01*
X037228Y012769D01*
X037215Y012756D01*
X037205Y012742D01*
X037198Y012726D01*
X037194Y012709D01*
X037192Y012692D01*
X037192Y010992D01*
X037194Y010975D01*
X037198Y010958D01*
X037205Y010942D01*
X037215Y010928D01*
X037228Y010915D01*
X037242Y010905D01*
X037258Y010898D01*
X037275Y010894D01*
X037292Y010892D01*
X038092Y010892D01*
X038109Y010894D01*
X038126Y010898D01*
X038142Y010905D01*
X038156Y010915D01*
X038169Y010928D01*
X038179Y010942D01*
X038186Y010958D01*
X038190Y010975D01*
X038192Y010992D01*
X038192Y012692D01*
X038190Y012709D01*
X038186Y012726D01*
X038179Y012742D01*
X038169Y012756D01*
X038156Y012769D01*
X038142Y012779D01*
X038126Y012786D01*
X038109Y012790D01*
X038092Y012792D01*
X037692Y011992D02*
X037692Y011942D01*
X037692Y011742D02*
X037692Y011692D01*
X041718Y008600D02*
X041818Y008600D01*
X042018Y008600D01*
X042018Y008000D02*
X041818Y008000D01*
X041718Y008000D01*
X039168Y004050D02*
X039168Y003950D01*
X039168Y003750D01*
X028768Y021550D02*
X028768Y021650D01*
X028768Y021850D01*
X015587Y026864D02*
X015587Y027864D01*
X015591Y032876D02*
X015591Y033876D01*
D13*
X015475Y034691D02*
X015475Y035151D01*
X015705Y035151D01*
X015782Y035074D01*
X015782Y034921D01*
X015705Y034844D01*
X015475Y034844D01*
X015935Y034691D02*
X016089Y034844D01*
X016242Y034691D01*
X016242Y035151D01*
X016396Y035151D02*
X016549Y034997D01*
X016702Y035151D01*
X016702Y034691D01*
X016856Y034921D02*
X017086Y035151D01*
X017086Y034691D01*
X017163Y034921D02*
X016856Y034921D01*
X017316Y034997D02*
X017470Y035151D01*
X017623Y035074D02*
X017623Y034767D01*
X017700Y034691D01*
X017853Y034691D01*
X017930Y034767D01*
X017930Y035074D01*
X017853Y035151D01*
X017700Y035151D01*
X017623Y035074D01*
X017316Y034997D02*
X017316Y034844D01*
X017470Y034691D01*
X018084Y034767D02*
X018084Y035074D01*
X018160Y035151D01*
X018314Y035151D01*
X018390Y035074D01*
X018544Y034921D02*
X018774Y035151D01*
X018774Y034691D01*
X019004Y034691D02*
X019004Y034997D01*
X019158Y035151D01*
X019311Y034997D01*
X019311Y034691D01*
X019465Y034691D02*
X019618Y034844D01*
X019618Y034997D01*
X019465Y035151D01*
X019311Y034921D02*
X019004Y034921D01*
X018851Y034921D02*
X018544Y034921D01*
X018390Y034767D02*
X018314Y034691D01*
X018160Y034691D01*
X018084Y034767D01*
X016396Y034691D02*
X016396Y035151D01*
X015935Y035151D02*
X015935Y034691D01*
X014231Y034766D02*
X014231Y034920D01*
X014078Y035073D01*
X013924Y034997D02*
X013847Y035073D01*
X013694Y035073D01*
X013617Y034997D01*
X013617Y034690D01*
X013694Y034613D01*
X013847Y034613D01*
X013924Y034690D01*
X014078Y034613D02*
X014231Y034766D01*
X013464Y034766D02*
X013464Y034690D01*
X013387Y034613D01*
X013234Y034613D01*
X013157Y034690D01*
X013003Y034690D02*
X012927Y034613D01*
X012773Y034613D01*
X012697Y034690D01*
X012697Y034997D01*
X012773Y035073D01*
X012927Y035073D01*
X013003Y034997D01*
X013157Y034997D02*
X013234Y035073D01*
X013387Y035073D01*
X013464Y034997D01*
X013464Y034920D01*
X013387Y034843D01*
X013464Y034766D01*
X013387Y034843D02*
X013310Y034843D01*
X012543Y034690D02*
X012543Y034997D01*
X012466Y035073D01*
X012313Y035073D01*
X012236Y034997D01*
X012236Y034690D01*
X012313Y034613D01*
X012466Y034613D01*
X012543Y034690D01*
X012083Y034613D02*
X011929Y034766D01*
X011929Y034920D01*
X012083Y035073D01*
X011776Y034997D02*
X011776Y034920D01*
X011699Y034843D01*
X011776Y034766D01*
X011776Y034690D01*
X011699Y034613D01*
X011546Y034613D01*
X011469Y034690D01*
X011315Y034613D02*
X011315Y035073D01*
X011162Y034920D01*
X011009Y035073D01*
X011009Y034613D01*
X010855Y034613D02*
X010855Y035073D01*
X010548Y035073D02*
X010548Y034613D01*
X010702Y034766D01*
X010855Y034613D01*
X010395Y034843D02*
X010318Y034766D01*
X010088Y034766D01*
X010088Y034613D02*
X010088Y035073D01*
X010318Y035073D01*
X010395Y034997D01*
X010395Y034843D01*
X011469Y034997D02*
X011546Y035073D01*
X011699Y035073D01*
X011776Y034997D01*
X011699Y034843D02*
X011622Y034843D01*
X015152Y032421D02*
X015382Y032421D01*
X015459Y032345D01*
X015459Y032191D01*
X015382Y032114D01*
X015152Y032114D01*
X015152Y031961D02*
X015152Y032421D01*
X015612Y032421D02*
X015612Y031961D01*
X015766Y032114D01*
X015919Y031961D01*
X015919Y032421D01*
X016073Y032421D02*
X016226Y032268D01*
X016380Y032421D01*
X016380Y031961D01*
X016533Y032038D02*
X016610Y031961D01*
X016763Y031961D01*
X016840Y032038D01*
X016840Y032191D01*
X016763Y032268D01*
X016687Y032268D01*
X016533Y032191D01*
X016533Y032421D01*
X016840Y032421D01*
X016994Y032268D02*
X017147Y032421D01*
X017300Y032345D02*
X017300Y032038D01*
X017377Y031961D01*
X017531Y031961D01*
X017607Y032038D01*
X017607Y032345D01*
X017531Y032421D01*
X017377Y032421D01*
X017300Y032345D01*
X016994Y032268D02*
X016994Y032114D01*
X017147Y031961D01*
X017761Y032038D02*
X017761Y032345D01*
X017837Y032421D01*
X017991Y032421D01*
X018068Y032345D01*
X018221Y032191D02*
X018528Y032191D01*
X018681Y032191D02*
X018912Y032191D01*
X018988Y032114D01*
X018988Y032038D01*
X018912Y031961D01*
X018681Y031961D01*
X018681Y032421D01*
X018912Y032421D01*
X018988Y032345D01*
X018988Y032268D01*
X018912Y032191D01*
X019142Y031961D02*
X019295Y032114D01*
X019295Y032268D01*
X019142Y032421D01*
X018451Y032421D02*
X018451Y031961D01*
X018221Y032191D02*
X018451Y032421D01*
X018068Y032038D02*
X017991Y031961D01*
X017837Y031961D01*
X017761Y032038D01*
X016073Y031961D02*
X016073Y032421D01*
X016200Y029319D02*
X016047Y029165D01*
X015893Y029319D01*
X015893Y028858D01*
X015740Y028858D02*
X015740Y029319D01*
X015433Y029319D02*
X015433Y028858D01*
X015586Y029012D01*
X015740Y028858D01*
X016200Y028858D02*
X016200Y029319D01*
X016354Y029089D02*
X016584Y029089D01*
X016661Y029012D01*
X016661Y028935D01*
X016584Y028858D01*
X016430Y028858D01*
X016354Y028935D01*
X016354Y029089D01*
X016507Y029242D01*
X016661Y029319D01*
X016814Y029165D02*
X016968Y029319D01*
X017121Y029242D02*
X017121Y028935D01*
X017198Y028858D01*
X017351Y028858D01*
X017428Y028935D01*
X017428Y029242D01*
X017351Y029319D01*
X017198Y029319D01*
X017121Y029242D01*
X016814Y029165D02*
X016814Y029012D01*
X016968Y028858D01*
X017581Y028935D02*
X017581Y029242D01*
X017658Y029319D01*
X017812Y029319D01*
X017888Y029242D01*
X018042Y029089D02*
X018349Y029089D01*
X018502Y029242D02*
X018502Y028935D01*
X018579Y028858D01*
X018732Y028858D01*
X018809Y028935D01*
X018962Y028858D02*
X019116Y029012D01*
X019116Y029165D01*
X018962Y029319D01*
X018809Y029242D02*
X018732Y029319D01*
X018579Y029319D01*
X018502Y029242D01*
X018272Y029319D02*
X018042Y029089D01*
X017888Y028935D02*
X017812Y028858D01*
X017658Y028858D01*
X017581Y028935D01*
X018272Y028858D02*
X018272Y029319D01*
X015280Y029242D02*
X015280Y029089D01*
X015203Y029012D01*
X014973Y029012D01*
X014973Y028858D02*
X014973Y029319D01*
X015203Y029319D01*
X015280Y029242D01*
X015224Y026487D02*
X015301Y026411D01*
X015301Y026257D01*
X015224Y026180D01*
X014994Y026180D01*
X014994Y026027D02*
X014994Y026487D01*
X015224Y026487D01*
X015454Y026487D02*
X015454Y026027D01*
X015608Y026180D01*
X015761Y026027D01*
X015761Y026487D01*
X015915Y026487D02*
X016068Y026334D01*
X016221Y026487D01*
X016221Y026027D01*
X016375Y026027D02*
X016375Y026104D01*
X016682Y026411D01*
X016682Y026487D01*
X016375Y026487D01*
X015915Y026487D02*
X015915Y026027D01*
X016835Y026180D02*
X016835Y026334D01*
X016989Y026487D01*
X017142Y026411D02*
X017219Y026487D01*
X017372Y026487D01*
X017449Y026411D01*
X017449Y026104D01*
X017372Y026027D01*
X017219Y026027D01*
X017142Y026104D01*
X017142Y026411D01*
X016835Y026180D02*
X016989Y026027D01*
X017603Y026104D02*
X017679Y026027D01*
X017833Y026027D01*
X017909Y026104D01*
X018063Y026027D02*
X018370Y026027D01*
X018523Y026027D02*
X018523Y026334D01*
X018677Y026487D01*
X018830Y026334D01*
X018830Y026027D01*
X018984Y026027D02*
X019137Y026180D01*
X019137Y026334D01*
X018984Y026487D01*
X018830Y026257D02*
X018523Y026257D01*
X018216Y026487D02*
X018216Y026027D01*
X018063Y026334D02*
X018216Y026487D01*
X017909Y026411D02*
X017833Y026487D01*
X017679Y026487D01*
X017603Y026411D01*
X017603Y026104D01*
X017581Y023022D02*
X017504Y022945D01*
X017504Y022638D01*
X017581Y022562D01*
X017734Y022562D01*
X017811Y022638D01*
X017964Y022562D02*
X018271Y022562D01*
X018118Y022562D02*
X018118Y023022D01*
X017964Y022869D01*
X017811Y022945D02*
X017734Y023022D01*
X017581Y023022D01*
X017350Y022945D02*
X017350Y022638D01*
X017274Y022562D01*
X017120Y022562D01*
X017044Y022638D01*
X017044Y022945D01*
X017120Y023022D01*
X017274Y023022D01*
X017350Y022945D01*
X016890Y023022D02*
X016737Y022869D01*
X016737Y022715D01*
X016890Y022562D01*
X016583Y022638D02*
X016583Y022715D01*
X016506Y022792D01*
X016353Y022792D01*
X016276Y022869D01*
X016276Y022945D01*
X016353Y023022D01*
X016506Y023022D01*
X016583Y022945D01*
X016583Y022869D01*
X016506Y022792D01*
X016353Y022792D02*
X016276Y022715D01*
X016276Y022638D01*
X016353Y022562D01*
X016506Y022562D01*
X016583Y022638D01*
X016123Y022562D02*
X016123Y023022D01*
X015969Y022869D01*
X015816Y023022D01*
X015816Y022562D01*
X015662Y022562D02*
X015662Y023022D01*
X015356Y023022D02*
X015356Y022562D01*
X015509Y022715D01*
X015662Y022562D01*
X015202Y022792D02*
X015125Y022715D01*
X014895Y022715D01*
X014895Y022562D02*
X014895Y023022D01*
X015125Y023022D01*
X015202Y022945D01*
X015202Y022792D01*
X018425Y022792D02*
X018655Y022792D01*
X018731Y022715D01*
X018731Y022638D01*
X018655Y022562D01*
X018425Y022562D01*
X018425Y023022D01*
X018655Y023022D01*
X018731Y022945D01*
X018731Y022869D01*
X018655Y022792D01*
X018885Y023022D02*
X019038Y022869D01*
X019038Y022715D01*
X018885Y022562D01*
X018790Y019993D02*
X018944Y019840D01*
X018944Y019686D01*
X018790Y019533D01*
X018637Y019610D02*
X018560Y019533D01*
X018407Y019533D01*
X018330Y019610D01*
X018330Y019917D01*
X018407Y019993D01*
X018560Y019993D01*
X018637Y019917D01*
X018176Y019533D02*
X017870Y019533D01*
X018023Y019533D02*
X018023Y019993D01*
X017870Y019840D01*
X017716Y019917D02*
X017639Y019993D01*
X017486Y019993D01*
X017409Y019917D01*
X017409Y019610D01*
X017486Y019533D01*
X017639Y019533D01*
X017716Y019610D01*
X017256Y019610D02*
X017256Y019917D01*
X017179Y019993D01*
X017026Y019993D01*
X016949Y019917D01*
X016949Y019610D01*
X017026Y019533D01*
X017179Y019533D01*
X017256Y019610D01*
X016795Y019533D02*
X016642Y019686D01*
X016642Y019840D01*
X016795Y019993D01*
X016489Y019917D02*
X016412Y019993D01*
X016258Y019993D01*
X016182Y019917D01*
X016182Y019840D01*
X016258Y019763D01*
X016489Y019763D01*
X016489Y019610D02*
X016489Y019917D01*
X016489Y019610D02*
X016412Y019533D01*
X016258Y019533D01*
X016182Y019610D01*
X016028Y019533D02*
X016028Y019993D01*
X015875Y019840D01*
X015721Y019993D01*
X015721Y019533D01*
X015568Y019533D02*
X015568Y019993D01*
X015261Y019993D02*
X015261Y019533D01*
X015414Y019686D01*
X015568Y019533D01*
X015107Y019763D02*
X015031Y019686D01*
X014801Y019686D01*
X014801Y019533D02*
X014801Y019993D01*
X015031Y019993D01*
X015107Y019917D01*
X015107Y019763D01*
X020250Y019334D02*
X020250Y018874D01*
X020250Y019027D02*
X020481Y019027D01*
X020557Y019104D01*
X020557Y019258D01*
X020481Y019334D01*
X020250Y019334D01*
X020711Y019334D02*
X020711Y018874D01*
X020864Y019027D01*
X021018Y018874D01*
X021018Y019334D01*
X021171Y019334D02*
X021325Y019181D01*
X021478Y019334D01*
X021478Y018874D01*
X021631Y018874D02*
X021938Y018874D01*
X021785Y018874D02*
X021785Y019334D01*
X021631Y019181D01*
X022092Y019258D02*
X022169Y019334D01*
X022322Y019334D01*
X022399Y019258D01*
X022092Y018951D01*
X022169Y018874D01*
X022322Y018874D01*
X022399Y018951D01*
X022399Y019258D01*
X022552Y019181D02*
X022706Y019334D01*
X022859Y019258D02*
X022859Y018951D01*
X022936Y018874D01*
X023089Y018874D01*
X023166Y018951D01*
X023166Y019258D01*
X023089Y019334D01*
X022936Y019334D01*
X022859Y019258D01*
X022552Y019181D02*
X022552Y019027D01*
X022706Y018874D01*
X023319Y018951D02*
X023319Y019258D01*
X023396Y019334D01*
X023550Y019334D01*
X023626Y019258D01*
X023780Y019334D02*
X023780Y019104D01*
X023933Y019181D01*
X024010Y019181D01*
X024087Y019104D01*
X024087Y018951D01*
X024010Y018874D01*
X023856Y018874D01*
X023780Y018951D01*
X023626Y018951D02*
X023550Y018874D01*
X023396Y018874D01*
X023319Y018951D01*
X023780Y019334D02*
X024087Y019334D01*
X024240Y019181D02*
X024394Y019334D01*
X024547Y019181D01*
X024547Y018874D01*
X024701Y018874D02*
X024854Y019027D01*
X024854Y019181D01*
X024701Y019334D01*
X024547Y019104D02*
X024240Y019104D01*
X024240Y019181D02*
X024240Y018874D01*
X022092Y018951D02*
X022092Y019258D01*
X021171Y019334D02*
X021171Y018874D01*
X021233Y015998D02*
X021386Y015844D01*
X021539Y015998D01*
X021539Y015538D01*
X021693Y015538D02*
X022000Y015538D01*
X022153Y015538D02*
X022460Y015538D01*
X022307Y015538D02*
X022307Y015998D01*
X022153Y015844D01*
X021846Y015998D02*
X021846Y015538D01*
X021693Y015844D02*
X021846Y015998D01*
X021233Y015998D02*
X021233Y015538D01*
X021079Y015538D02*
X021079Y015998D01*
X020772Y015998D02*
X020772Y015538D01*
X020926Y015691D01*
X021079Y015538D01*
X020619Y015768D02*
X020619Y015921D01*
X020542Y015998D01*
X020312Y015998D01*
X020312Y015538D01*
X020312Y015691D02*
X020542Y015691D01*
X020619Y015768D01*
X022614Y015691D02*
X022614Y015844D01*
X022767Y015998D01*
X022920Y015921D02*
X022920Y015614D01*
X022997Y015538D01*
X023151Y015538D01*
X023227Y015614D01*
X023227Y015921D01*
X023151Y015998D01*
X022997Y015998D01*
X022920Y015921D01*
X022614Y015691D02*
X022767Y015538D01*
X023381Y015614D02*
X023381Y015921D01*
X023458Y015998D01*
X023611Y015998D01*
X023688Y015921D01*
X023841Y015998D02*
X023841Y015768D01*
X023995Y015844D01*
X024071Y015844D01*
X024148Y015768D01*
X024148Y015614D01*
X024071Y015538D01*
X023918Y015538D01*
X023841Y015614D01*
X023688Y015614D02*
X023611Y015538D01*
X023458Y015538D01*
X023381Y015614D01*
X023841Y015998D02*
X024148Y015998D01*
X024302Y015998D02*
X024532Y015998D01*
X024608Y015921D01*
X024608Y015844D01*
X024532Y015768D01*
X024302Y015768D01*
X024532Y015768D02*
X024608Y015691D01*
X024608Y015614D01*
X024532Y015538D01*
X024302Y015538D01*
X024302Y015998D01*
X024762Y015998D02*
X024915Y015844D01*
X024915Y015691D01*
X024762Y015538D01*
X024780Y013101D02*
X024933Y012948D01*
X024933Y012794D01*
X024780Y012641D01*
X024627Y012717D02*
X024550Y012641D01*
X024396Y012641D01*
X024320Y012717D01*
X024320Y013024D01*
X024396Y013101D01*
X024550Y013101D01*
X024627Y013024D01*
X024166Y013101D02*
X023859Y013101D01*
X023859Y012871D01*
X024013Y012948D01*
X024089Y012948D01*
X024166Y012871D01*
X024166Y012717D01*
X024089Y012641D01*
X023936Y012641D01*
X023859Y012717D01*
X023706Y012717D02*
X023629Y012641D01*
X023476Y012641D01*
X023399Y012717D01*
X023399Y013024D01*
X023476Y013101D01*
X023629Y013101D01*
X023706Y013024D01*
X023245Y013024D02*
X023169Y013101D01*
X023015Y013101D01*
X022939Y013024D01*
X022939Y012717D01*
X023015Y012641D01*
X023169Y012641D01*
X023245Y012717D01*
X023245Y013024D01*
X022785Y013101D02*
X022632Y012948D01*
X022632Y012794D01*
X022785Y012641D01*
X022478Y012641D02*
X022171Y012641D01*
X022478Y012948D01*
X022478Y013024D01*
X022401Y013101D01*
X022248Y013101D01*
X022171Y013024D01*
X021864Y013101D02*
X021864Y012641D01*
X021711Y012641D02*
X022018Y012641D01*
X021711Y012948D02*
X021864Y013101D01*
X021558Y013101D02*
X021558Y012641D01*
X021251Y012641D02*
X021251Y013101D01*
X021404Y012948D01*
X021558Y013101D01*
X021097Y013101D02*
X021097Y012641D01*
X020944Y012794D01*
X020790Y012641D01*
X020790Y013101D01*
X020637Y013024D02*
X020637Y012871D01*
X020560Y012794D01*
X020330Y012794D01*
X020330Y012641D02*
X020330Y013101D01*
X020560Y013101D01*
X020637Y013024D01*
X024886Y009120D02*
X024962Y009197D01*
X025039Y009197D01*
X025116Y009120D01*
X025116Y008890D01*
X025193Y008736D02*
X025346Y008583D01*
X025346Y008506D01*
X025269Y008430D01*
X025193Y008430D01*
X025039Y008583D01*
X024962Y008583D01*
X024886Y008506D01*
X024962Y008430D01*
X025039Y008430D01*
X025346Y008736D01*
X025346Y008890D02*
X025346Y009120D01*
X025269Y009197D01*
X025193Y009197D01*
X025116Y009120D01*
X024886Y009120D02*
X024886Y008890D01*
X025346Y008890D01*
X025346Y008276D02*
X024886Y008276D01*
X025116Y008276D02*
X025116Y007969D01*
X025116Y007816D02*
X025116Y007509D01*
X024886Y007355D02*
X024886Y007049D01*
X024886Y007202D02*
X025346Y007202D01*
X025346Y006895D02*
X025193Y006742D01*
X025193Y006818D02*
X025193Y006588D01*
X025346Y006588D02*
X024886Y006588D01*
X024886Y006818D01*
X024962Y006895D01*
X025116Y006895D01*
X025193Y006818D01*
X025269Y006435D02*
X024962Y006435D01*
X024886Y006358D01*
X024886Y006205D01*
X024962Y006128D01*
X025269Y006128D01*
X025346Y006205D01*
X025346Y006358D01*
X025269Y006435D01*
X025116Y005974D02*
X025193Y005898D01*
X025193Y005667D01*
X025346Y005667D02*
X024886Y005667D01*
X024886Y005898D01*
X024962Y005974D01*
X025116Y005974D01*
X025346Y007969D02*
X024886Y007969D01*
X042973Y007751D02*
X042973Y007444D01*
X042973Y007598D02*
X043433Y007598D01*
X043433Y007291D02*
X043280Y007137D01*
X043280Y007214D02*
X043280Y006984D01*
X043433Y006984D02*
X042973Y006984D01*
X042973Y007214D01*
X043050Y007291D01*
X043203Y007291D01*
X043280Y007214D01*
X043357Y006830D02*
X043050Y006830D01*
X042973Y006754D01*
X042973Y006600D01*
X043050Y006524D01*
X043357Y006524D01*
X043433Y006600D01*
X043433Y006754D01*
X043357Y006830D01*
X043203Y006370D02*
X043280Y006293D01*
X043280Y006063D01*
X043433Y006063D02*
X042973Y006063D01*
X042973Y006293D01*
X043050Y006370D01*
X043203Y006370D01*
X043203Y007905D02*
X043203Y008212D01*
X042973Y008365D02*
X042973Y008595D01*
X043050Y008672D01*
X043357Y008672D01*
X043433Y008595D01*
X043433Y008365D01*
X042973Y008365D01*
X048380Y007939D02*
X048380Y007785D01*
X048456Y007709D01*
X048763Y007709D01*
X048840Y007785D01*
X048840Y007939D01*
X048763Y008016D01*
X048456Y008016D02*
X048380Y007939D01*
X048610Y007555D02*
X048610Y007248D01*
X048380Y007095D02*
X048380Y006788D01*
X048380Y006941D02*
X048840Y006941D01*
X048840Y006635D02*
X048687Y006481D01*
X048687Y006558D02*
X048687Y006328D01*
X048840Y006328D02*
X048380Y006328D01*
X048380Y006558D01*
X048456Y006635D01*
X048610Y006635D01*
X048687Y006558D01*
X048763Y006174D02*
X048456Y006174D01*
X048380Y006098D01*
X048380Y005944D01*
X048456Y005867D01*
X048763Y005867D01*
X048840Y005944D01*
X048840Y006098D01*
X048763Y006174D01*
X048610Y005714D02*
X048687Y005637D01*
X048687Y005407D01*
X048840Y005407D02*
X048380Y005407D01*
X048380Y005637D01*
X048456Y005714D01*
X048610Y005714D01*
X053617Y005803D02*
X053771Y005957D01*
X053617Y006110D01*
X054078Y006110D01*
X054001Y006264D02*
X054078Y006340D01*
X054078Y006494D01*
X054001Y006570D01*
X053694Y006570D01*
X053617Y006494D01*
X053617Y006340D01*
X053694Y006264D01*
X053771Y006264D01*
X053847Y006340D01*
X053847Y006570D01*
X053617Y005803D02*
X054078Y005803D01*
X059170Y005725D02*
X059323Y005878D01*
X059170Y006031D01*
X059630Y006031D01*
X059630Y006185D02*
X059630Y006492D01*
X059630Y006645D02*
X059630Y006952D01*
X059630Y006799D02*
X059170Y006799D01*
X059323Y006645D01*
X059170Y006338D02*
X059630Y006338D01*
X059323Y006185D02*
X059170Y006338D01*
X059170Y005725D02*
X059630Y005725D01*
X064311Y005742D02*
X064771Y005742D01*
X064771Y005895D02*
X064771Y006202D01*
X064771Y006049D02*
X064311Y006049D01*
X064464Y005895D01*
X064311Y005742D02*
X064464Y005588D01*
X064311Y005435D01*
X064771Y005435D01*
X064771Y006356D02*
X064464Y006663D01*
X064388Y006663D01*
X064311Y006586D01*
X064311Y006432D01*
X064388Y006356D01*
X064771Y006356D02*
X064771Y006663D01*
X064836Y014784D02*
X064375Y014784D01*
X064529Y014937D01*
X064375Y015090D01*
X064836Y015090D01*
X064836Y015244D02*
X064836Y015551D01*
X064836Y015397D02*
X064375Y015397D01*
X064529Y015244D01*
X064452Y015704D02*
X064375Y015781D01*
X064375Y015934D01*
X064452Y016011D01*
X064759Y015704D01*
X064836Y015781D01*
X064836Y015934D01*
X064759Y016011D01*
X064452Y016011D01*
X064452Y015704D02*
X064759Y015704D01*
X059685Y015792D02*
X059609Y015715D01*
X059532Y015715D01*
X059455Y015792D01*
X059455Y015945D01*
X059532Y016022D01*
X059609Y016022D01*
X059685Y015945D01*
X059685Y015792D01*
X059455Y015792D02*
X059378Y015715D01*
X059302Y015715D01*
X059225Y015792D01*
X059225Y015945D01*
X059302Y016022D01*
X059378Y016022D01*
X059455Y015945D01*
X059225Y015562D02*
X059685Y015562D01*
X059685Y015255D02*
X059225Y015255D01*
X059378Y015408D01*
X059225Y015562D01*
X054286Y015499D02*
X053826Y015499D01*
X053979Y015652D01*
X053826Y015806D01*
X054286Y015806D01*
X054286Y015959D02*
X054209Y015959D01*
X053902Y016266D01*
X053826Y016266D01*
X053826Y015959D01*
X048513Y015727D02*
X048053Y015727D01*
X048053Y015958D01*
X048130Y016034D01*
X048283Y016034D01*
X048360Y015958D01*
X048360Y015727D01*
X048437Y016188D02*
X048130Y016188D01*
X048053Y016265D01*
X048053Y016418D01*
X048130Y016495D01*
X048437Y016495D01*
X048513Y016418D01*
X048513Y016265D01*
X048437Y016188D01*
X048513Y016648D02*
X048053Y016648D01*
X048053Y016878D01*
X048130Y016955D01*
X048283Y016955D01*
X048360Y016878D01*
X048360Y016648D01*
X048360Y016802D02*
X048513Y016955D01*
X048513Y017262D02*
X048053Y017262D01*
X048053Y017109D02*
X048053Y017415D01*
X048283Y017569D02*
X048283Y017876D01*
X048437Y018029D02*
X048513Y018106D01*
X048513Y018183D01*
X048437Y018259D01*
X048053Y018259D01*
X048053Y018183D02*
X048053Y018336D01*
X043553Y017913D02*
X043246Y017913D01*
X043093Y017759D01*
X043246Y017606D01*
X043553Y017606D01*
X043323Y017606D02*
X043323Y017913D01*
X043323Y017452D02*
X043323Y017146D01*
X043093Y016992D02*
X043093Y016685D01*
X043093Y016839D02*
X043553Y016839D01*
X043553Y016532D02*
X043400Y016378D01*
X043400Y016455D02*
X043400Y016225D01*
X043553Y016225D02*
X043093Y016225D01*
X043093Y016455D01*
X043170Y016532D01*
X043323Y016532D01*
X043400Y016455D01*
X043477Y016071D02*
X043170Y016071D01*
X043093Y015995D01*
X043093Y015841D01*
X043170Y015765D01*
X043477Y015765D01*
X043553Y015841D01*
X043553Y015995D01*
X043477Y016071D01*
X043323Y015611D02*
X043400Y015534D01*
X043400Y015304D01*
X043553Y015304D02*
X043093Y015304D01*
X043093Y015534D01*
X043170Y015611D01*
X043323Y015611D01*
X042689Y025087D02*
X042383Y025087D01*
X042689Y025394D01*
X042689Y025470D01*
X042613Y025547D01*
X042459Y025547D01*
X042383Y025470D01*
X042229Y025470D02*
X042152Y025547D01*
X041999Y025547D01*
X041922Y025470D01*
X041922Y025163D01*
X041999Y025087D01*
X042152Y025087D01*
X042229Y025163D01*
X041769Y025163D02*
X041769Y025470D01*
X041692Y025547D01*
X041462Y025547D01*
X041462Y025087D01*
X041692Y025087D01*
X041769Y025163D01*
X041308Y025087D02*
X041308Y025394D01*
X041155Y025547D01*
X041001Y025394D01*
X041001Y025087D01*
X041001Y025317D02*
X041308Y025317D01*
X031150Y025085D02*
X030843Y025085D01*
X030996Y025085D02*
X030996Y025546D01*
X030843Y025392D01*
X030689Y025469D02*
X030613Y025546D01*
X030459Y025546D01*
X030383Y025469D01*
X030383Y025162D01*
X030459Y025085D01*
X030613Y025085D01*
X030689Y025162D01*
X030229Y025162D02*
X030229Y025469D01*
X030152Y025546D01*
X029922Y025546D01*
X029922Y025085D01*
X030152Y025085D01*
X030229Y025162D01*
X029769Y025085D02*
X029769Y025392D01*
X029615Y025546D01*
X029462Y025392D01*
X029462Y025085D01*
X029462Y025316D02*
X029769Y025316D01*
X019387Y037613D02*
X019541Y037766D01*
X019541Y037920D01*
X019387Y038073D01*
X019234Y037997D02*
X019157Y038073D01*
X018927Y038073D01*
X018927Y037613D01*
X019157Y037613D01*
X019234Y037690D01*
X019234Y037766D01*
X019157Y037843D01*
X018927Y037843D01*
X018773Y037766D02*
X018773Y037690D01*
X018697Y037613D01*
X018543Y037613D01*
X018466Y037690D01*
X018313Y037690D02*
X018236Y037613D01*
X018083Y037613D01*
X018006Y037690D01*
X018006Y037997D01*
X018083Y038073D01*
X018236Y038073D01*
X018313Y037997D01*
X018466Y037997D02*
X018543Y038073D01*
X018697Y038073D01*
X018773Y037997D01*
X018773Y037920D01*
X018697Y037843D01*
X018773Y037766D01*
X018697Y037843D02*
X018620Y037843D01*
X019157Y037843D02*
X019234Y037920D01*
X019234Y037997D01*
X017853Y037997D02*
X017776Y038073D01*
X017622Y038073D01*
X017546Y037997D01*
X017546Y037690D01*
X017622Y037613D01*
X017776Y037613D01*
X017853Y037690D01*
X017853Y037997D01*
X017392Y038073D02*
X017239Y037920D01*
X017239Y037766D01*
X017392Y037613D01*
X017085Y037613D02*
X016779Y037613D01*
X017085Y037920D01*
X017085Y037997D01*
X017009Y038073D01*
X016855Y038073D01*
X016779Y037997D01*
X016625Y038073D02*
X016625Y037613D01*
X016318Y037613D02*
X016318Y038073D01*
X016472Y037920D01*
X016625Y038073D01*
X016165Y038073D02*
X016165Y037613D01*
X016011Y037766D01*
X015858Y037613D01*
X015858Y038073D01*
X015704Y037997D02*
X015628Y038073D01*
X015397Y038073D01*
X015397Y037613D01*
X015397Y037766D02*
X015628Y037766D01*
X015704Y037843D01*
X015704Y037997D01*
X014463Y037920D02*
X014310Y038073D01*
X014463Y037920D02*
X014463Y037766D01*
X014310Y037613D01*
X014156Y037613D02*
X014156Y037920D01*
X014003Y038073D01*
X013849Y037920D01*
X013849Y037613D01*
X013696Y037690D02*
X013619Y037613D01*
X013466Y037613D01*
X013389Y037690D01*
X013236Y037690D02*
X013159Y037613D01*
X013005Y037613D01*
X012929Y037690D01*
X012929Y037997D01*
X013005Y038073D01*
X013159Y038073D01*
X013236Y037997D01*
X013389Y037997D02*
X013466Y038073D01*
X013619Y038073D01*
X013696Y037997D01*
X013696Y037920D01*
X013619Y037843D01*
X013696Y037766D01*
X013696Y037690D01*
X013619Y037843D02*
X013543Y037843D01*
X013849Y037843D02*
X014156Y037843D01*
X012775Y037690D02*
X012775Y037997D01*
X012699Y038073D01*
X012545Y038073D01*
X012468Y037997D01*
X012468Y037690D01*
X012545Y037613D01*
X012699Y037613D01*
X012775Y037690D01*
X012315Y037613D02*
X012161Y037766D01*
X012161Y037920D01*
X012315Y038073D01*
X011855Y038073D02*
X011855Y037613D01*
X012008Y037613D02*
X011701Y037613D01*
X011548Y037613D02*
X011548Y038073D01*
X011394Y037920D01*
X011241Y038073D01*
X011241Y037613D01*
X011087Y037613D02*
X011087Y038073D01*
X010780Y038073D02*
X010780Y037613D01*
X010934Y037766D01*
X011087Y037613D01*
X010627Y037843D02*
X010550Y037766D01*
X010320Y037766D01*
X010320Y037613D02*
X010320Y038073D01*
X010550Y038073D01*
X010627Y037997D01*
X010627Y037843D01*
X011701Y037920D02*
X011855Y038073D01*
X021932Y040151D02*
X022162Y040151D01*
X022239Y040228D01*
X022239Y040535D01*
X022162Y040612D01*
X021932Y040612D01*
X021932Y040151D01*
X022392Y040151D02*
X022546Y040151D01*
X022469Y040151D02*
X022469Y040612D01*
X022392Y040612D02*
X022546Y040612D01*
X022699Y040535D02*
X022776Y040612D01*
X022929Y040612D01*
X023006Y040535D01*
X022929Y040382D02*
X023006Y040305D01*
X023006Y040228D01*
X022929Y040151D01*
X022776Y040151D01*
X022699Y040228D01*
X022776Y040382D02*
X022929Y040382D01*
X022776Y040382D02*
X022699Y040458D01*
X022699Y040535D01*
X023160Y040458D02*
X023313Y040612D01*
X023313Y040151D01*
X023160Y040151D02*
X023467Y040151D01*
X002478Y028285D02*
X002478Y028208D01*
X002171Y027901D01*
X002171Y027824D01*
X001941Y027901D02*
X001941Y028285D01*
X001865Y028285D02*
X002018Y028285D01*
X002171Y028285D02*
X002478Y028285D01*
X001941Y027901D02*
X001865Y027824D01*
X001788Y027824D01*
X001711Y027901D01*
X053424Y026463D02*
X053654Y026233D01*
X053654Y026540D01*
X053884Y026463D02*
X053424Y026463D01*
X053424Y026079D02*
X053884Y026079D01*
X053884Y025772D02*
X053424Y025772D01*
X053577Y025926D01*
X053424Y026079D01*
X059075Y025968D02*
X059228Y026122D01*
X059075Y026275D01*
X059535Y026275D01*
X059458Y026429D02*
X059535Y026505D01*
X059535Y026659D01*
X059458Y026736D01*
X059305Y026736D01*
X059228Y026659D01*
X059228Y026582D01*
X059305Y026429D01*
X059075Y026429D01*
X059075Y026736D01*
X059075Y025968D02*
X059535Y025968D01*
X064349Y026456D02*
X064502Y026609D01*
X064349Y026763D01*
X064809Y026763D01*
X064733Y026916D02*
X064579Y026916D01*
X064579Y027146D01*
X064656Y027223D01*
X064733Y027223D01*
X064809Y027146D01*
X064809Y026993D01*
X064733Y026916D01*
X064579Y026916D02*
X064426Y027070D01*
X064349Y027223D01*
X064349Y026456D02*
X064809Y026456D01*
X064563Y034556D02*
X064103Y034556D01*
X064257Y034709D01*
X064103Y034863D01*
X064563Y034863D01*
X064487Y035016D02*
X064563Y035093D01*
X064563Y035247D01*
X064487Y035323D01*
X064410Y035323D01*
X064333Y035247D01*
X064333Y035170D01*
X064333Y035247D02*
X064257Y035323D01*
X064180Y035323D01*
X064103Y035247D01*
X064103Y035093D01*
X064180Y035016D01*
X059292Y034982D02*
X058985Y035289D01*
X058909Y035289D01*
X058832Y035212D01*
X058832Y035059D01*
X058909Y034982D01*
X058832Y034829D02*
X059292Y034829D01*
X059292Y034982D02*
X059292Y035289D01*
X058832Y034829D02*
X058985Y034675D01*
X058832Y034522D01*
X059292Y034522D01*
X053974Y035107D02*
X053514Y035107D01*
X053668Y035261D01*
X053514Y035414D01*
X053974Y035414D01*
X053744Y035567D02*
X053744Y035874D01*
X053668Y036028D02*
X053514Y036181D01*
X053974Y036181D01*
X053974Y036028D02*
X053974Y036335D01*
D14*
X051381Y037606D02*
X051381Y027921D01*
X022444Y027921D01*
X022444Y037606D01*
X051381Y037606D01*
X052621Y039929D02*
X052621Y025834D01*
X021203Y025834D01*
X021203Y039929D01*
X052621Y039929D01*
X054528Y040620D02*
X057835Y040620D01*
X057835Y039021D01*
X057717Y039021D01*
X057717Y038439D01*
X057835Y038439D01*
X057835Y037424D01*
X057835Y035942D01*
X057835Y032746D01*
X054528Y032746D01*
X054528Y040620D01*
X054892Y040177D02*
X057471Y040177D01*
X057471Y037424D01*
X057225Y037424D02*
X057225Y035942D01*
X057835Y035942D01*
X057471Y035942D02*
X057471Y033189D01*
X054892Y033189D01*
X054892Y040177D01*
X057225Y037424D02*
X057835Y037424D01*
X060597Y040057D02*
X063176Y040057D01*
X063176Y037304D01*
X062929Y037304D02*
X062929Y035822D01*
X063540Y035822D01*
X063540Y032626D01*
X060233Y032626D01*
X060233Y040500D01*
X063540Y040500D01*
X063540Y038901D01*
X063422Y038901D01*
X063422Y038319D01*
X063540Y038319D01*
X063540Y037304D01*
X063540Y035822D01*
X063176Y035822D02*
X063176Y033069D01*
X060597Y033069D01*
X060597Y040057D01*
X062929Y037304D02*
X063540Y037304D01*
X065791Y039781D02*
X068369Y039781D01*
X068369Y037028D01*
X068123Y037028D02*
X068123Y035546D01*
X068734Y035546D01*
X068734Y032350D01*
X065426Y032350D01*
X065426Y040224D01*
X068734Y040224D01*
X068734Y038625D01*
X068615Y038625D01*
X068615Y038043D01*
X068734Y038043D01*
X068734Y037028D01*
X068734Y035546D01*
X068369Y035546D02*
X068369Y032793D01*
X065791Y032793D01*
X065791Y039781D01*
X068123Y037028D02*
X068734Y037028D01*
X068747Y031193D02*
X065440Y031193D01*
X065440Y023319D01*
X068747Y023319D01*
X068747Y026515D01*
X068747Y027998D01*
X068137Y027998D01*
X068137Y026515D01*
X068747Y026515D01*
X068383Y026515D02*
X068383Y023762D01*
X065804Y023762D01*
X065804Y030751D01*
X068383Y030751D01*
X068383Y027998D01*
X068747Y027998D02*
X068747Y029012D01*
X068629Y029012D01*
X068629Y029594D01*
X068747Y029594D01*
X068747Y031193D01*
X063628Y031094D02*
X063628Y029494D01*
X063509Y029494D01*
X063509Y028912D01*
X063628Y028912D01*
X063628Y027898D01*
X063628Y026415D01*
X063628Y023220D01*
X060320Y023220D01*
X060320Y031094D01*
X063628Y031094D01*
X063263Y030651D02*
X063263Y027898D01*
X063017Y027898D02*
X063628Y027898D01*
X063017Y027898D02*
X063017Y026415D01*
X063628Y026415D01*
X063263Y026415D02*
X063263Y023662D01*
X060685Y023662D01*
X060685Y030651D01*
X063263Y030651D01*
X058054Y031053D02*
X058054Y029453D01*
X057936Y029453D01*
X057936Y028871D01*
X058054Y028871D01*
X058054Y027857D01*
X058054Y026374D01*
X058054Y023179D01*
X054747Y023179D01*
X054747Y031053D01*
X058054Y031053D01*
X057690Y030610D02*
X057690Y027857D01*
X057444Y027857D02*
X058054Y027857D01*
X057444Y027857D02*
X057444Y026374D01*
X058054Y026374D01*
X057690Y026374D02*
X057690Y023622D01*
X055111Y023622D01*
X055111Y030610D01*
X057690Y030610D01*
X049570Y030086D02*
X024255Y030086D01*
X024255Y035441D01*
X049570Y035441D01*
X049570Y030086D01*
X054762Y021167D02*
X058069Y021167D01*
X058069Y019568D01*
X057951Y019568D01*
X057951Y018985D01*
X058069Y018985D01*
X058069Y017971D01*
X058069Y016489D01*
X058069Y013293D01*
X054762Y013293D01*
X054762Y021167D01*
X055126Y020724D02*
X057705Y020724D01*
X057705Y017971D01*
X057459Y017971D02*
X058069Y017971D01*
X057459Y017971D02*
X057459Y016489D01*
X058069Y016489D01*
X057705Y016489D02*
X057705Y013736D01*
X055126Y013736D01*
X055126Y020724D01*
X052761Y020853D02*
X052761Y019254D01*
X052643Y019254D01*
X052643Y018671D01*
X052761Y018671D01*
X052761Y017657D01*
X052761Y016174D01*
X052761Y012979D01*
X049454Y012979D01*
X049454Y020853D01*
X052761Y020853D01*
X052397Y020410D02*
X052397Y017657D01*
X052151Y017657D02*
X052151Y016174D01*
X052761Y016174D01*
X052397Y016174D02*
X052397Y013422D01*
X049818Y013422D01*
X049818Y020410D01*
X052397Y020410D01*
X052151Y017657D02*
X052761Y017657D01*
X047261Y020853D02*
X043954Y020853D01*
X043954Y017657D01*
X043954Y016174D01*
X044564Y016174D01*
X044564Y017657D01*
X043954Y017657D01*
X044318Y017657D02*
X044318Y020410D01*
X046897Y020410D01*
X046897Y013422D01*
X044318Y013422D01*
X044318Y016174D01*
X043954Y016174D02*
X043954Y015160D01*
X044072Y015160D01*
X044072Y014578D01*
X043954Y014578D01*
X043954Y012979D01*
X047261Y012979D01*
X047261Y020853D01*
X060394Y021233D02*
X060394Y013359D01*
X063701Y013359D01*
X063701Y016555D01*
X063701Y018037D01*
X063090Y018037D01*
X063090Y016555D01*
X063701Y016555D01*
X063336Y016555D02*
X063336Y013802D01*
X060758Y013802D01*
X060758Y020790D01*
X063336Y020790D01*
X063336Y018037D01*
X063701Y018037D02*
X063701Y019051D01*
X063583Y019051D01*
X063583Y019634D01*
X063701Y019634D01*
X063701Y021233D01*
X060394Y021233D01*
X065467Y021227D02*
X068774Y021227D01*
X068774Y019628D01*
X068656Y019628D01*
X068656Y019046D01*
X068774Y019046D01*
X068774Y018031D01*
X068774Y016549D01*
X068774Y013353D01*
X065467Y013353D01*
X065467Y021227D01*
X065831Y020784D02*
X068410Y020784D01*
X068410Y018031D01*
X068164Y018031D02*
X068164Y016549D01*
X068774Y016549D01*
X068410Y016549D02*
X068410Y013796D01*
X065831Y013796D01*
X065831Y020784D01*
X068164Y018031D02*
X068774Y018031D01*
X068554Y011413D02*
X065247Y011413D01*
X065247Y003539D01*
X068554Y003539D01*
X068554Y006735D01*
X068554Y008218D01*
X067944Y008218D01*
X067944Y006735D01*
X068554Y006735D01*
X068190Y006735D02*
X068190Y003982D01*
X065611Y003982D01*
X065611Y010970D01*
X068190Y010970D01*
X068190Y008218D01*
X068554Y008218D02*
X068554Y009232D01*
X068436Y009232D01*
X068436Y009814D01*
X068554Y009814D01*
X068554Y011413D01*
X063800Y011315D02*
X063800Y009716D01*
X063682Y009716D01*
X063682Y009134D01*
X063800Y009134D01*
X063800Y008119D01*
X063800Y006637D01*
X063800Y003441D01*
X060493Y003441D01*
X060493Y011315D01*
X063800Y011315D01*
X063436Y010872D02*
X063436Y008119D01*
X063190Y008119D02*
X063190Y006637D01*
X063800Y006637D01*
X063436Y006637D02*
X063436Y003884D01*
X060858Y003884D01*
X060858Y010872D01*
X063436Y010872D01*
X063190Y008119D02*
X063800Y008119D01*
X058093Y008121D02*
X058093Y006638D01*
X058093Y003442D01*
X054786Y003442D01*
X054786Y011316D01*
X058093Y011316D01*
X058093Y009717D01*
X057975Y009717D01*
X057975Y009135D01*
X058093Y009135D01*
X058093Y008121D01*
X057483Y008121D01*
X057483Y006638D01*
X058093Y006638D01*
X057729Y006638D02*
X057729Y003885D01*
X055150Y003885D01*
X055150Y010873D01*
X057729Y010873D01*
X057729Y008121D01*
X052701Y007724D02*
X052701Y006242D01*
X052701Y003046D01*
X049394Y003046D01*
X049394Y010920D01*
X052701Y010920D01*
X052701Y009321D01*
X052583Y009321D01*
X052583Y008739D01*
X052701Y008739D01*
X052701Y007724D01*
X052090Y007724D01*
X052090Y006242D01*
X052701Y006242D01*
X052336Y006242D02*
X052336Y003489D01*
X049758Y003489D01*
X049758Y010477D01*
X052336Y010477D01*
X052336Y007724D01*
X047371Y007838D02*
X047371Y006355D01*
X047371Y003159D01*
X044064Y003159D01*
X044064Y011033D01*
X047371Y011033D01*
X047371Y009434D01*
X047253Y009434D01*
X047253Y008852D01*
X047371Y008852D01*
X047371Y007838D01*
X046761Y007838D01*
X046761Y006355D01*
X047371Y006355D01*
X047007Y006355D02*
X047007Y003602D01*
X044428Y003602D01*
X044428Y010591D01*
X047007Y010591D01*
X047007Y007838D01*
X024333Y011439D02*
X024333Y003565D01*
X021025Y003565D01*
X021025Y005164D01*
X021144Y005164D01*
X021144Y005746D01*
X021025Y005746D01*
X021025Y006761D01*
X021025Y008243D01*
X021025Y011439D01*
X024333Y011439D01*
X023968Y010996D02*
X021390Y010996D01*
X021390Y008243D01*
X021636Y008243D02*
X021025Y008243D01*
X021636Y008243D02*
X021636Y006761D01*
X021025Y006761D01*
X021390Y006761D02*
X021390Y004008D01*
X023968Y004008D01*
X023968Y010996D01*
X007269Y022277D02*
X007272Y022400D01*
X007281Y022522D01*
X007296Y022644D01*
X007317Y022765D01*
X007344Y022884D01*
X007377Y023003D01*
X007415Y023119D01*
X007459Y023234D01*
X007509Y023346D01*
X007564Y023455D01*
X007625Y023562D01*
X007690Y023666D01*
X007761Y023766D01*
X007836Y023863D01*
X007917Y023956D01*
X008001Y024045D01*
X008090Y024129D01*
X008183Y024210D01*
X008280Y024285D01*
X008380Y024356D01*
X008484Y024421D01*
X008591Y024482D01*
X008700Y024537D01*
X008812Y024587D01*
X008927Y024631D01*
X009043Y024669D01*
X009162Y024702D01*
X009281Y024729D01*
X009402Y024750D01*
X009524Y024765D01*
X009646Y024774D01*
X009769Y024777D01*
X009892Y024774D01*
X010014Y024765D01*
X010136Y024750D01*
X010257Y024729D01*
X010376Y024702D01*
X010495Y024669D01*
X010611Y024631D01*
X010726Y024587D01*
X010838Y024537D01*
X010947Y024482D01*
X011054Y024421D01*
X011158Y024356D01*
X011258Y024285D01*
X011355Y024210D01*
X011448Y024129D01*
X011537Y024045D01*
X011621Y023956D01*
X011702Y023863D01*
X011777Y023766D01*
X011848Y023666D01*
X011913Y023562D01*
X011974Y023455D01*
X012029Y023346D01*
X012079Y023234D01*
X012123Y023119D01*
X012161Y023003D01*
X012194Y022884D01*
X012221Y022765D01*
X012242Y022644D01*
X012257Y022522D01*
X012266Y022400D01*
X012269Y022277D01*
X012266Y022154D01*
X012257Y022032D01*
X012242Y021910D01*
X012221Y021789D01*
X012194Y021670D01*
X012161Y021551D01*
X012123Y021435D01*
X012079Y021320D01*
X012029Y021208D01*
X011974Y021099D01*
X011913Y020992D01*
X011848Y020888D01*
X011777Y020788D01*
X011702Y020691D01*
X011621Y020598D01*
X011537Y020509D01*
X011448Y020425D01*
X011355Y020344D01*
X011258Y020269D01*
X011158Y020198D01*
X011054Y020133D01*
X010947Y020072D01*
X010838Y020017D01*
X010726Y019967D01*
X010611Y019923D01*
X010495Y019885D01*
X010376Y019852D01*
X010257Y019825D01*
X010136Y019804D01*
X010014Y019789D01*
X009892Y019780D01*
X009769Y019777D01*
X009646Y019780D01*
X009524Y019789D01*
X009402Y019804D01*
X009281Y019825D01*
X009162Y019852D01*
X009043Y019885D01*
X008927Y019923D01*
X008812Y019967D01*
X008700Y020017D01*
X008591Y020072D01*
X008484Y020133D01*
X008380Y020198D01*
X008280Y020269D01*
X008183Y020344D01*
X008090Y020425D01*
X008001Y020509D01*
X007917Y020598D01*
X007836Y020691D01*
X007761Y020788D01*
X007690Y020888D01*
X007625Y020992D01*
X007564Y021099D01*
X007509Y021208D01*
X007459Y021320D01*
X007415Y021435D01*
X007377Y021551D01*
X007344Y021670D01*
X007317Y021789D01*
X007296Y021910D01*
X007281Y022032D01*
X007272Y022154D01*
X007269Y022277D01*
X007989Y028593D02*
X007992Y028716D01*
X008001Y028838D01*
X008016Y028960D01*
X008037Y029081D01*
X008064Y029200D01*
X008097Y029319D01*
X008135Y029435D01*
X008179Y029550D01*
X008229Y029662D01*
X008284Y029771D01*
X008345Y029878D01*
X008410Y029982D01*
X008481Y030082D01*
X008556Y030179D01*
X008637Y030272D01*
X008721Y030361D01*
X008810Y030445D01*
X008903Y030526D01*
X009000Y030601D01*
X009100Y030672D01*
X009204Y030737D01*
X009311Y030798D01*
X009420Y030853D01*
X009532Y030903D01*
X009647Y030947D01*
X009763Y030985D01*
X009882Y031018D01*
X010001Y031045D01*
X010122Y031066D01*
X010244Y031081D01*
X010366Y031090D01*
X010489Y031093D01*
X010612Y031090D01*
X010734Y031081D01*
X010856Y031066D01*
X010977Y031045D01*
X011096Y031018D01*
X011215Y030985D01*
X011331Y030947D01*
X011446Y030903D01*
X011558Y030853D01*
X011667Y030798D01*
X011774Y030737D01*
X011878Y030672D01*
X011978Y030601D01*
X012075Y030526D01*
X012168Y030445D01*
X012257Y030361D01*
X012341Y030272D01*
X012422Y030179D01*
X012497Y030082D01*
X012568Y029982D01*
X012633Y029878D01*
X012694Y029771D01*
X012749Y029662D01*
X012799Y029550D01*
X012843Y029435D01*
X012881Y029319D01*
X012914Y029200D01*
X012941Y029081D01*
X012962Y028960D01*
X012977Y028838D01*
X012986Y028716D01*
X012989Y028593D01*
X012986Y028470D01*
X012977Y028348D01*
X012962Y028226D01*
X012941Y028105D01*
X012914Y027986D01*
X012881Y027867D01*
X012843Y027751D01*
X012799Y027636D01*
X012749Y027524D01*
X012694Y027415D01*
X012633Y027308D01*
X012568Y027204D01*
X012497Y027104D01*
X012422Y027007D01*
X012341Y026914D01*
X012257Y026825D01*
X012168Y026741D01*
X012075Y026660D01*
X011978Y026585D01*
X011878Y026514D01*
X011774Y026449D01*
X011667Y026388D01*
X011558Y026333D01*
X011446Y026283D01*
X011331Y026239D01*
X011215Y026201D01*
X011096Y026168D01*
X010977Y026141D01*
X010856Y026120D01*
X010734Y026105D01*
X010612Y026096D01*
X010489Y026093D01*
X010366Y026096D01*
X010244Y026105D01*
X010122Y026120D01*
X010001Y026141D01*
X009882Y026168D01*
X009763Y026201D01*
X009647Y026239D01*
X009532Y026283D01*
X009420Y026333D01*
X009311Y026388D01*
X009204Y026449D01*
X009100Y026514D01*
X009000Y026585D01*
X008903Y026660D01*
X008810Y026741D01*
X008721Y026825D01*
X008637Y026914D01*
X008556Y027007D01*
X008481Y027104D01*
X008410Y027204D01*
X008345Y027308D01*
X008284Y027415D01*
X008229Y027524D01*
X008179Y027636D01*
X008135Y027751D01*
X008097Y027867D01*
X008064Y027986D01*
X008037Y028105D01*
X008016Y028226D01*
X008001Y028348D01*
X007992Y028470D01*
X007989Y028593D01*
D15*
X026368Y021650D02*
X026368Y018950D01*
X041568Y018950D01*
X041568Y021650D01*
X038768Y021650D01*
X038168Y021650D02*
X034768Y021650D01*
X033168Y021650D02*
X028768Y021650D01*
X028168Y021650D02*
X026368Y021650D01*
X026118Y020400D02*
X026118Y017600D01*
X026118Y017000D02*
X026118Y013600D01*
X026118Y012000D02*
X026118Y007600D01*
X026118Y007000D02*
X026118Y005200D01*
X028818Y005200D01*
X028818Y020400D01*
X026118Y020400D01*
X039118Y020400D02*
X039118Y005200D01*
X041818Y005200D01*
X041818Y008000D01*
X041818Y008600D02*
X041818Y012000D01*
X041818Y013600D02*
X041818Y018000D01*
X041818Y018600D02*
X041818Y020400D01*
X039118Y020400D01*
X041568Y006650D02*
X026368Y006650D01*
X026368Y003950D01*
X029168Y003950D01*
X029768Y003950D02*
X033168Y003950D01*
X034768Y003950D02*
X039168Y003950D01*
X039768Y003950D02*
X041568Y003950D01*
X041568Y006650D01*
X004081Y009683D02*
X004087Y009909D01*
X004103Y010134D01*
X004131Y010358D01*
X004169Y010580D01*
X004219Y010801D01*
X004279Y011018D01*
X004350Y011233D01*
X004431Y011443D01*
X004523Y011650D01*
X004624Y011851D01*
X004735Y012048D01*
X004856Y012239D01*
X004986Y012423D01*
X005125Y012601D01*
X005273Y012772D01*
X005428Y012936D01*
X005592Y013091D01*
X005763Y013239D01*
X005941Y013378D01*
X006125Y013508D01*
X006316Y013629D01*
X006513Y013740D01*
X006714Y013841D01*
X006921Y013933D01*
X007131Y014014D01*
X007346Y014085D01*
X007563Y014145D01*
X007784Y014195D01*
X008006Y014233D01*
X008230Y014261D01*
X008455Y014277D01*
X008681Y014283D01*
X008907Y014277D01*
X009132Y014261D01*
X009356Y014233D01*
X009578Y014195D01*
X009799Y014145D01*
X010016Y014085D01*
X010231Y014014D01*
X010441Y013933D01*
X010648Y013841D01*
X010849Y013740D01*
X011046Y013629D01*
X011237Y013508D01*
X011421Y013378D01*
X011599Y013239D01*
X011770Y013091D01*
X011934Y012936D01*
X012089Y012772D01*
X012237Y012601D01*
X012376Y012423D01*
X012506Y012239D01*
X012627Y012048D01*
X012738Y011851D01*
X012839Y011650D01*
X012931Y011443D01*
X013012Y011233D01*
X013083Y011018D01*
X013143Y010801D01*
X013193Y010580D01*
X013231Y010358D01*
X013259Y010134D01*
X013275Y009909D01*
X013281Y009683D01*
X013275Y009457D01*
X013259Y009232D01*
X013231Y009008D01*
X013193Y008786D01*
X013143Y008565D01*
X013083Y008348D01*
X013012Y008133D01*
X012931Y007923D01*
X012839Y007716D01*
X012738Y007515D01*
X012627Y007318D01*
X012506Y007127D01*
X012376Y006943D01*
X012237Y006765D01*
X012089Y006594D01*
X011934Y006430D01*
X011770Y006275D01*
X011599Y006127D01*
X011421Y005988D01*
X011237Y005858D01*
X011046Y005737D01*
X010849Y005626D01*
X010648Y005525D01*
X010441Y005433D01*
X010231Y005352D01*
X010016Y005281D01*
X009799Y005221D01*
X009578Y005171D01*
X009356Y005133D01*
X009132Y005105D01*
X008907Y005089D01*
X008681Y005083D01*
X008455Y005089D01*
X008230Y005105D01*
X008006Y005133D01*
X007784Y005171D01*
X007563Y005221D01*
X007346Y005281D01*
X007131Y005352D01*
X006921Y005433D01*
X006714Y005525D01*
X006513Y005626D01*
X006316Y005737D01*
X006125Y005858D01*
X005941Y005988D01*
X005763Y006127D01*
X005592Y006275D01*
X005428Y006430D01*
X005273Y006594D01*
X005125Y006765D01*
X004986Y006943D01*
X004856Y007127D01*
X004735Y007318D01*
X004624Y007515D01*
X004523Y007716D01*
X004431Y007923D01*
X004350Y008133D01*
X004279Y008348D01*
X004219Y008565D01*
X004169Y008786D01*
X004131Y009008D01*
X004103Y009232D01*
X004087Y009457D01*
X004081Y009683D01*
D16*
X007998Y010018D02*
X008208Y010018D01*
X008103Y010018D02*
X008103Y010649D01*
X007998Y010649D02*
X008208Y010649D01*
X008427Y010544D02*
X008427Y010123D01*
X008532Y010018D01*
X008743Y010018D01*
X008848Y010123D01*
X009072Y010018D02*
X009492Y010018D01*
X009282Y010018D02*
X009282Y010649D01*
X009072Y010439D01*
X008848Y010544D02*
X008743Y010649D01*
X008532Y010649D01*
X008427Y010544D01*
X007631Y020187D02*
X007344Y020187D01*
X007631Y020474D01*
X007631Y020546D01*
X007559Y020617D01*
X007415Y020617D01*
X007344Y020546D01*
X007170Y020546D02*
X007098Y020617D01*
X006955Y020617D01*
X006883Y020546D01*
X006883Y020259D01*
X006955Y020187D01*
X007098Y020187D01*
X007170Y020259D01*
X012596Y030253D02*
X012739Y030253D01*
X012811Y030325D01*
X012984Y030253D02*
X013271Y030253D01*
X013128Y030253D02*
X013128Y030684D01*
X012984Y030540D01*
X012811Y030612D02*
X012739Y030684D01*
X012596Y030684D01*
X012524Y030612D01*
X012524Y030325D01*
X012596Y030253D01*
X029503Y020401D02*
X030133Y020401D01*
X030133Y020191D02*
X030133Y020611D01*
X029713Y020191D02*
X029503Y020401D01*
X029503Y019967D02*
X029923Y019967D01*
X030133Y019756D01*
X029923Y019546D01*
X029503Y019546D01*
X029608Y019322D02*
X029503Y019217D01*
X029503Y019007D01*
X029608Y018902D01*
X029713Y018902D01*
X029818Y019007D01*
X029818Y019217D01*
X029923Y019322D01*
X030028Y019322D01*
X030133Y019217D01*
X030133Y019007D01*
X030028Y018902D01*
X040069Y018161D02*
X040069Y018056D01*
X040174Y017951D01*
X040385Y017951D01*
X040490Y017846D01*
X040490Y017741D01*
X040385Y017635D01*
X040174Y017635D01*
X040069Y017741D01*
X040069Y018161D02*
X040174Y018266D01*
X040385Y018266D01*
X040490Y018161D01*
X040714Y018266D02*
X040714Y017846D01*
X040924Y017635D01*
X041134Y017846D01*
X041134Y018266D01*
X041358Y017951D02*
X041779Y017951D01*
X041674Y018266D02*
X041358Y017951D01*
X041674Y017635D02*
X041674Y018266D01*
X027712Y007861D02*
X027607Y007966D01*
X027397Y007966D01*
X027292Y007861D01*
X027068Y007966D02*
X027068Y007546D01*
X026858Y007335D01*
X026648Y007546D01*
X026648Y007966D01*
X026423Y007861D02*
X026318Y007966D01*
X026108Y007966D01*
X026003Y007861D01*
X026003Y007756D01*
X026108Y007651D01*
X026318Y007651D01*
X026423Y007546D01*
X026423Y007441D01*
X026318Y007335D01*
X026108Y007335D01*
X026003Y007441D01*
X027292Y007335D02*
X027712Y007756D01*
X027712Y007861D01*
X027712Y007335D02*
X027292Y007335D01*
X037803Y006440D02*
X037803Y006230D01*
X037908Y006124D01*
X037803Y005900D02*
X038223Y005900D01*
X038433Y005690D01*
X038223Y005480D01*
X037803Y005480D01*
X037908Y005256D02*
X037803Y005151D01*
X037803Y004941D01*
X037908Y004835D01*
X038013Y004835D01*
X038118Y004941D01*
X038118Y005151D01*
X038223Y005256D01*
X038328Y005256D01*
X038433Y005151D01*
X038433Y004941D01*
X038328Y004835D01*
X038328Y006124D02*
X038433Y006230D01*
X038433Y006440D01*
X038328Y006545D01*
X038223Y006545D01*
X038118Y006440D01*
X038118Y006335D01*
X038118Y006440D02*
X038013Y006545D01*
X037908Y006545D01*
X037803Y006440D01*
D17*
X030876Y007600D02*
X030876Y007900D01*
X030876Y008200D01*
X030676Y008200D02*
X030676Y007900D01*
X030676Y007600D01*
X037392Y011742D02*
X037692Y011742D01*
X037992Y011742D01*
X037992Y011942D02*
X037692Y011942D01*
X037392Y011942D01*
X030405Y013929D02*
X030105Y013929D01*
X029805Y013929D01*
X029805Y014129D02*
X030105Y014129D01*
X030405Y014129D01*
X036714Y017403D02*
X036714Y017703D01*
X036714Y018003D01*
X036914Y018003D02*
X036914Y017703D01*
X036914Y017403D01*
X022900Y002104D02*
X022902Y002165D01*
X022908Y002227D01*
X022918Y002287D01*
X022932Y002347D01*
X022949Y002406D01*
X022971Y002464D01*
X022996Y002520D01*
X023025Y002575D01*
X023057Y002627D01*
X023092Y002677D01*
X023131Y002725D01*
X023173Y002770D01*
X023217Y002813D01*
X023265Y002852D01*
X023314Y002889D01*
X023366Y002922D01*
X023420Y002951D01*
X023476Y002977D01*
X023533Y003000D01*
X023592Y003018D01*
X023651Y003033D01*
X023712Y003044D01*
X023773Y003051D01*
X023835Y003054D01*
X023896Y003053D01*
X023957Y003048D01*
X024018Y003039D01*
X024078Y003026D01*
X024138Y003009D01*
X024196Y002989D01*
X024252Y002965D01*
X024307Y002937D01*
X024360Y002905D01*
X024411Y002871D01*
X024459Y002833D01*
X024505Y002792D01*
X024548Y002748D01*
X024589Y002701D01*
X024626Y002652D01*
X024660Y002601D01*
X024690Y002548D01*
X024717Y002492D01*
X024740Y002435D01*
X024760Y002377D01*
X024776Y002318D01*
X024788Y002257D01*
X024796Y002196D01*
X024800Y002135D01*
X024800Y002073D01*
X024796Y002012D01*
X024788Y001951D01*
X024776Y001890D01*
X024760Y001831D01*
X024740Y001773D01*
X024717Y001716D01*
X024690Y001660D01*
X024660Y001607D01*
X024626Y001556D01*
X024589Y001507D01*
X024548Y001460D01*
X024505Y001416D01*
X024459Y001375D01*
X024411Y001337D01*
X024360Y001303D01*
X024307Y001271D01*
X024252Y001243D01*
X024196Y001219D01*
X024138Y001199D01*
X024078Y001182D01*
X024018Y001169D01*
X023957Y001160D01*
X023896Y001155D01*
X023835Y001154D01*
X023773Y001157D01*
X023712Y001164D01*
X023651Y001175D01*
X023592Y001190D01*
X023533Y001208D01*
X023476Y001231D01*
X023420Y001257D01*
X023366Y001286D01*
X023314Y001319D01*
X023265Y001356D01*
X023217Y001395D01*
X023173Y001438D01*
X023131Y001483D01*
X023092Y001531D01*
X023057Y001581D01*
X023025Y001633D01*
X022996Y001688D01*
X022971Y001744D01*
X022949Y001802D01*
X022932Y001861D01*
X022918Y001921D01*
X022908Y001981D01*
X022902Y002043D01*
X022900Y002104D01*
X019107Y002015D02*
X019109Y002076D01*
X019115Y002138D01*
X019125Y002198D01*
X019139Y002258D01*
X019156Y002317D01*
X019178Y002375D01*
X019203Y002431D01*
X019232Y002486D01*
X019264Y002538D01*
X019299Y002588D01*
X019338Y002636D01*
X019380Y002681D01*
X019424Y002724D01*
X019472Y002763D01*
X019521Y002800D01*
X019573Y002833D01*
X019627Y002862D01*
X019683Y002888D01*
X019740Y002911D01*
X019799Y002929D01*
X019858Y002944D01*
X019919Y002955D01*
X019980Y002962D01*
X020042Y002965D01*
X020103Y002964D01*
X020164Y002959D01*
X020225Y002950D01*
X020285Y002937D01*
X020345Y002920D01*
X020403Y002900D01*
X020459Y002876D01*
X020514Y002848D01*
X020567Y002816D01*
X020618Y002782D01*
X020666Y002744D01*
X020712Y002703D01*
X020755Y002659D01*
X020796Y002612D01*
X020833Y002563D01*
X020867Y002512D01*
X020897Y002459D01*
X020924Y002403D01*
X020947Y002346D01*
X020967Y002288D01*
X020983Y002229D01*
X020995Y002168D01*
X021003Y002107D01*
X021007Y002046D01*
X021007Y001984D01*
X021003Y001923D01*
X020995Y001862D01*
X020983Y001801D01*
X020967Y001742D01*
X020947Y001684D01*
X020924Y001627D01*
X020897Y001571D01*
X020867Y001518D01*
X020833Y001467D01*
X020796Y001418D01*
X020755Y001371D01*
X020712Y001327D01*
X020666Y001286D01*
X020618Y001248D01*
X020567Y001214D01*
X020514Y001182D01*
X020459Y001154D01*
X020403Y001130D01*
X020345Y001110D01*
X020285Y001093D01*
X020225Y001080D01*
X020164Y001071D01*
X020103Y001066D01*
X020042Y001065D01*
X019980Y001068D01*
X019919Y001075D01*
X019858Y001086D01*
X019799Y001101D01*
X019740Y001119D01*
X019683Y001142D01*
X019627Y001168D01*
X019573Y001197D01*
X019521Y001230D01*
X019472Y001267D01*
X019424Y001306D01*
X019380Y001349D01*
X019338Y001394D01*
X019299Y001442D01*
X019264Y001492D01*
X019232Y001544D01*
X019203Y001599D01*
X019178Y001655D01*
X019156Y001713D01*
X019139Y001772D01*
X019125Y001832D01*
X019115Y001892D01*
X019109Y001954D01*
X019107Y002015D01*
X010769Y021027D02*
X010769Y021527D01*
X011019Y021277D02*
X010519Y021277D01*
X009489Y029343D02*
X009489Y029843D01*
X009239Y029593D02*
X009739Y029593D01*
X006231Y038183D02*
X006233Y038244D01*
X006239Y038306D01*
X006249Y038366D01*
X006263Y038426D01*
X006280Y038485D01*
X006302Y038543D01*
X006327Y038599D01*
X006356Y038654D01*
X006388Y038706D01*
X006423Y038756D01*
X006462Y038804D01*
X006504Y038849D01*
X006548Y038892D01*
X006596Y038931D01*
X006645Y038968D01*
X006697Y039001D01*
X006751Y039030D01*
X006807Y039056D01*
X006864Y039079D01*
X006923Y039097D01*
X006982Y039112D01*
X007043Y039123D01*
X007104Y039130D01*
X007166Y039133D01*
X007227Y039132D01*
X007288Y039127D01*
X007349Y039118D01*
X007409Y039105D01*
X007469Y039088D01*
X007527Y039068D01*
X007583Y039044D01*
X007638Y039016D01*
X007691Y038984D01*
X007742Y038950D01*
X007790Y038912D01*
X007836Y038871D01*
X007879Y038827D01*
X007920Y038780D01*
X007957Y038731D01*
X007991Y038680D01*
X008021Y038627D01*
X008048Y038571D01*
X008071Y038514D01*
X008091Y038456D01*
X008107Y038397D01*
X008119Y038336D01*
X008127Y038275D01*
X008131Y038214D01*
X008131Y038152D01*
X008127Y038091D01*
X008119Y038030D01*
X008107Y037969D01*
X008091Y037910D01*
X008071Y037852D01*
X008048Y037795D01*
X008021Y037739D01*
X007991Y037686D01*
X007957Y037635D01*
X007920Y037586D01*
X007879Y037539D01*
X007836Y037495D01*
X007790Y037454D01*
X007742Y037416D01*
X007691Y037382D01*
X007638Y037350D01*
X007583Y037322D01*
X007527Y037298D01*
X007469Y037278D01*
X007409Y037261D01*
X007349Y037248D01*
X007288Y037239D01*
X007227Y037234D01*
X007166Y037233D01*
X007104Y037236D01*
X007043Y037243D01*
X006982Y037254D01*
X006923Y037269D01*
X006864Y037287D01*
X006807Y037310D01*
X006751Y037336D01*
X006697Y037365D01*
X006645Y037398D01*
X006596Y037435D01*
X006548Y037474D01*
X006504Y037517D01*
X006462Y037562D01*
X006423Y037610D01*
X006388Y037660D01*
X006356Y037712D01*
X006327Y037767D01*
X006302Y037823D01*
X006280Y037881D01*
X006263Y037940D01*
X006249Y038000D01*
X006239Y038060D01*
X006233Y038122D01*
X006231Y038183D01*
D18*
X006183Y027576D02*
X001459Y027576D01*
X001459Y027064D01*
X001853Y027064D01*
X002246Y027064D02*
X002640Y027064D01*
X002837Y027379D02*
X006183Y027379D01*
X006183Y024730D01*
X006774Y024879D02*
X006774Y024230D01*
X006971Y024230D01*
X006971Y024879D01*
X005002Y024544D02*
X005002Y025312D01*
X005002Y025607D01*
X005002Y026001D02*
X005002Y026296D01*
X005002Y027064D01*
X004608Y027064D01*
X004215Y027064D02*
X003821Y027064D01*
X003427Y027064D02*
X003034Y027064D01*
X002837Y027379D02*
X002837Y027576D01*
X002837Y027379D02*
X002837Y024033D01*
X003034Y024544D02*
X003427Y024544D01*
X003821Y024544D02*
X004215Y024544D01*
X004608Y024544D02*
X005002Y024544D01*
X004683Y024033D02*
X001459Y024033D01*
X001459Y024544D01*
X001853Y024544D01*
X002246Y024544D02*
X002640Y024544D01*
X001459Y024544D02*
X001459Y027064D01*
X002246Y026296D02*
X002203Y026294D01*
X002161Y026289D01*
X002119Y026279D01*
X002078Y026266D01*
X002038Y026250D01*
X002000Y026230D01*
X001964Y026207D01*
X001930Y026181D01*
X001898Y026152D01*
X001869Y026120D01*
X001843Y026086D01*
X001820Y026050D01*
X001800Y026012D01*
X001784Y025972D01*
X001771Y025931D01*
X001761Y025889D01*
X001756Y025847D01*
X001754Y025804D01*
X001756Y025761D01*
X001761Y025719D01*
X001771Y025677D01*
X001784Y025636D01*
X001800Y025596D01*
X001820Y025558D01*
X001843Y025522D01*
X001869Y025488D01*
X001898Y025456D01*
X001930Y025427D01*
X001964Y025401D01*
X002000Y025378D01*
X002038Y025358D01*
X002078Y025342D01*
X002119Y025329D01*
X002161Y025319D01*
X002203Y025314D01*
X002246Y025312D01*
X006183Y027379D02*
X006774Y027379D01*
X006774Y026730D01*
X006971Y026730D02*
X006971Y027379D01*
X006774Y027379D01*
X006183Y027379D02*
X006183Y027576D01*
D19*
X005289Y029008D03*
X003989Y033008D03*
D20*
X003364Y033008D03*
X005914Y033008D03*
X005914Y029008D03*
X003364Y029008D03*
D21*
X004593Y028483D02*
X004593Y028033D01*
X004818Y028033D01*
X004893Y028108D01*
X004893Y028408D01*
X004818Y028483D01*
X004593Y028483D01*
X005053Y028333D02*
X005204Y028483D01*
X005204Y028033D01*
X005354Y028033D02*
X005053Y028033D01*
X004268Y031633D02*
X003967Y031633D01*
X004118Y031633D02*
X004118Y032083D01*
X003967Y031933D01*
X003807Y032008D02*
X003807Y031858D01*
X003732Y031783D01*
X003507Y031783D01*
X003657Y031783D02*
X003807Y031633D01*
X003507Y031633D02*
X003507Y032083D01*
X003732Y032083D01*
X003807Y032008D01*
X004244Y033802D02*
X004469Y033802D01*
X004544Y033877D01*
X004544Y034177D01*
X004469Y034252D01*
X004244Y034252D01*
X004244Y033802D01*
X004704Y033802D02*
X005005Y034102D01*
X005005Y034177D01*
X004929Y034252D01*
X004779Y034252D01*
X004704Y034177D01*
X004704Y033802D02*
X005005Y033802D01*
X006706Y039408D02*
X006932Y039408D01*
X007007Y039483D01*
X007007Y039783D01*
X006932Y039859D01*
X006706Y039859D01*
X006706Y039408D01*
X007167Y039483D02*
X007242Y039408D01*
X007392Y039408D01*
X007467Y039483D01*
X007467Y039558D01*
X007392Y039633D01*
X007317Y039633D01*
X007392Y039633D02*
X007467Y039708D01*
X007467Y039783D01*
X007392Y039859D01*
X007242Y039859D01*
X007167Y039783D01*
X033472Y021801D02*
X033547Y021876D01*
X033697Y021876D01*
X033773Y021801D01*
X033773Y021726D01*
X033472Y021425D01*
X033773Y021425D01*
X033933Y021500D02*
X034008Y021425D01*
X034158Y021425D01*
X034233Y021500D01*
X034233Y021576D01*
X034158Y021651D01*
X033933Y021651D01*
X033933Y021500D01*
X033933Y021651D02*
X034083Y021801D01*
X034233Y021876D01*
X028193Y019665D02*
X028193Y019365D01*
X027893Y019665D01*
X027818Y019665D01*
X027743Y019590D01*
X027743Y019440D01*
X027818Y019365D01*
X027193Y019365D02*
X027193Y019665D01*
X027193Y019515D02*
X026743Y019515D01*
X026893Y019365D01*
X030729Y014543D02*
X030804Y014393D01*
X030955Y014243D01*
X030955Y014468D01*
X031030Y014543D01*
X031105Y014543D01*
X031180Y014468D01*
X031180Y014318D01*
X031105Y014243D01*
X030955Y014243D01*
X031105Y014083D02*
X031180Y014008D01*
X031180Y013858D01*
X031105Y013783D01*
X030804Y013783D01*
X030729Y013858D01*
X030729Y014008D01*
X030804Y014083D01*
X026343Y012990D02*
X026268Y013065D01*
X026193Y013065D01*
X026118Y012990D01*
X026118Y012765D01*
X026268Y012765D01*
X026343Y012840D01*
X026343Y012990D01*
X026118Y012765D02*
X025968Y012915D01*
X025893Y013065D01*
X025968Y012605D02*
X025893Y012530D01*
X025893Y012380D01*
X025968Y012305D01*
X025968Y012605D02*
X026043Y012605D01*
X026343Y012305D01*
X026343Y012605D01*
X030151Y008900D02*
X030226Y008975D01*
X030377Y008975D01*
X030452Y008900D01*
X030612Y008900D02*
X030687Y008975D01*
X030837Y008975D01*
X030912Y008900D01*
X030912Y008825D01*
X030837Y008750D01*
X030912Y008675D01*
X030912Y008600D01*
X030837Y008525D01*
X030687Y008525D01*
X030612Y008600D01*
X030452Y008600D02*
X030377Y008525D01*
X030226Y008525D01*
X030151Y008600D01*
X030151Y008900D01*
X030762Y008750D02*
X030837Y008750D01*
X027293Y005951D02*
X027218Y006026D01*
X027068Y006026D01*
X026993Y005951D01*
X027293Y005951D02*
X027293Y005876D01*
X026993Y005575D01*
X027293Y005575D01*
X027143Y005026D02*
X027143Y004575D01*
X026993Y004575D02*
X027293Y004575D01*
X026993Y004876D02*
X027143Y005026D01*
X024060Y003779D02*
X024060Y003329D01*
X024135Y003554D02*
X023835Y003554D01*
X024060Y003779D01*
X023675Y003704D02*
X023675Y003404D01*
X023600Y003329D01*
X023375Y003329D01*
X023375Y003779D01*
X023600Y003779D01*
X023675Y003704D01*
X020342Y003690D02*
X020042Y003690D01*
X020042Y003465D01*
X020192Y003540D01*
X020267Y003540D01*
X020342Y003465D01*
X020342Y003315D01*
X020267Y003240D01*
X020117Y003240D01*
X020042Y003315D01*
X019882Y003315D02*
X019882Y003615D01*
X019807Y003690D01*
X019582Y003690D01*
X019582Y003240D01*
X019807Y003240D01*
X019882Y003315D01*
X019339Y007319D02*
X018889Y007319D01*
X018889Y007544D01*
X018964Y007619D01*
X019114Y007619D01*
X019189Y007544D01*
X019189Y007319D01*
X019189Y007469D02*
X019339Y007619D01*
X019339Y007779D02*
X019039Y008079D01*
X018964Y008079D01*
X018889Y008004D01*
X018889Y007854D01*
X018964Y007779D01*
X019339Y007779D02*
X019339Y008079D01*
X018166Y008042D02*
X018166Y007892D01*
X018091Y007817D01*
X018166Y007657D02*
X018016Y007507D01*
X018016Y007582D02*
X018016Y007357D01*
X018166Y007357D02*
X017716Y007357D01*
X017716Y007582D01*
X017791Y007657D01*
X017941Y007657D01*
X018016Y007582D01*
X017791Y007817D02*
X017716Y007892D01*
X017716Y008042D01*
X017791Y008117D01*
X017866Y008117D01*
X017941Y008042D01*
X018016Y008117D01*
X018091Y008117D01*
X018166Y008042D01*
X017941Y008042D02*
X017941Y007967D01*
X033593Y004101D02*
X033668Y004176D01*
X033818Y004176D01*
X033893Y004101D01*
X033893Y004026D01*
X033593Y003725D01*
X033893Y003725D01*
X034053Y003800D02*
X034128Y003725D01*
X034279Y003725D01*
X034354Y003800D01*
X034354Y003876D01*
X034279Y003951D01*
X034053Y003951D01*
X034053Y003800D01*
X034053Y003951D02*
X034204Y004101D01*
X034354Y004176D01*
X039743Y005900D02*
X039818Y005825D01*
X039743Y005900D02*
X039743Y006051D01*
X039818Y006126D01*
X039893Y006126D01*
X040193Y005825D01*
X040193Y006126D01*
X040743Y005976D02*
X041193Y005976D01*
X041193Y006126D02*
X041193Y005825D01*
X040893Y005825D02*
X040743Y005976D01*
X036992Y011217D02*
X037067Y011292D01*
X037067Y011442D01*
X036992Y011517D01*
X036992Y011677D02*
X037067Y011752D01*
X037067Y011902D01*
X036992Y011977D01*
X036842Y011977D01*
X036767Y011902D01*
X036767Y011827D01*
X036842Y011677D01*
X036617Y011677D01*
X036617Y011977D01*
X036692Y011517D02*
X036617Y011442D01*
X036617Y011292D01*
X036692Y011217D01*
X036992Y011217D01*
X041593Y012500D02*
X041668Y012425D01*
X041593Y012500D02*
X041593Y012651D01*
X041668Y012726D01*
X041743Y012726D01*
X042043Y012425D01*
X042043Y012726D01*
X041968Y012886D02*
X042043Y012961D01*
X042043Y013111D01*
X041968Y013186D01*
X041893Y013186D01*
X041818Y013111D01*
X041818Y012886D01*
X041968Y012886D01*
X041818Y012886D02*
X041668Y013036D01*
X041593Y013186D01*
X037254Y016628D02*
X037254Y017078D01*
X037029Y016853D01*
X037329Y016853D01*
X036869Y016703D02*
X036793Y016628D01*
X036643Y016628D01*
X036568Y016703D01*
X036568Y017003D01*
X036643Y017078D01*
X036793Y017078D01*
X036869Y017003D01*
X040533Y019575D02*
X040833Y019876D01*
X040833Y019951D01*
X040758Y020026D01*
X040608Y020026D01*
X040533Y019951D01*
X040533Y019575D02*
X040833Y019575D01*
X040833Y020575D02*
X040533Y020575D01*
X040683Y020575D02*
X040683Y021026D01*
X040533Y020876D01*
X006680Y019989D02*
X006380Y019989D01*
X006530Y019989D02*
X006530Y020440D01*
X006380Y020290D01*
X006220Y020365D02*
X006145Y020440D01*
X005994Y020440D01*
X005919Y020365D01*
X005919Y020290D01*
X005994Y020214D01*
X006145Y020214D01*
X006220Y020139D01*
X006220Y020064D01*
X006145Y019989D01*
X005994Y019989D01*
X005919Y020064D01*
D22*
X006102Y031008D03*
X003262Y031008D03*
D23*
X026135Y031750D03*
X027572Y031750D03*
X029009Y031750D03*
X030446Y031750D03*
X031883Y031750D03*
X033320Y031750D03*
X034757Y031750D03*
X036194Y031750D03*
X037631Y031750D03*
X039068Y031750D03*
X040505Y031750D03*
X041942Y031750D03*
X043379Y031750D03*
X044816Y031750D03*
X046253Y031750D03*
X047690Y031750D03*
X047690Y033777D03*
X046253Y033777D03*
X044816Y033777D03*
X043379Y033777D03*
X041942Y033777D03*
X040505Y033777D03*
X039068Y033777D03*
X037631Y033777D03*
X036194Y033777D03*
X034757Y033777D03*
X033320Y033777D03*
X031883Y033777D03*
X030446Y033777D03*
X029009Y033777D03*
X027572Y033777D03*
X026135Y033777D03*
D24*
X005821Y034665D02*
X005821Y038165D01*
X004821Y038165D01*
X001821Y038165D01*
X001821Y034665D01*
X004821Y034665D01*
X005821Y034665D01*
D25*
X004821Y034665D02*
X004821Y038165D01*
D26*
X003321Y037245D03*
X003321Y035685D03*
D27*
X018791Y009952D03*
X019964Y009914D03*
X019964Y007074D03*
X018791Y007112D03*
M02*
