G75*
G70*
%OFA0B0*%
%FSLAX24Y24*%
%IPPOS*%
%LPD*%
%AMOC8*
5,1,8,0,0,1.08239X$1,22.5*
%
%ADD10C,0.0600*%
%ADD11C,0.0594*%
%ADD12C,0.0705*%
%ADD13C,0.2020*%
%ADD14C,0.0515*%
%ADD15C,0.0520*%
%ADD16C,0.0560*%
%ADD17C,0.0990*%
%ADD18C,0.0396*%
%ADD19C,0.0317*%
D10*
X021577Y013954D03*
X022577Y013954D03*
X023577Y013954D03*
X023505Y017013D03*
X022505Y017013D03*
X021505Y017013D03*
X021497Y020349D03*
X022497Y020349D03*
X023497Y020349D03*
X018169Y020864D03*
X017169Y020864D03*
X016169Y020864D03*
X016144Y024246D03*
X017144Y024246D03*
X018144Y024246D03*
X018087Y027364D03*
X017087Y027364D03*
X016087Y027364D03*
X011489Y028593D03*
X009489Y028593D03*
X016066Y030351D03*
X017066Y030351D03*
X018066Y030351D03*
X018091Y033376D03*
X017091Y033376D03*
X016091Y033376D03*
X016181Y036183D03*
X017181Y036183D03*
X018181Y036183D03*
X018181Y039183D03*
X017181Y039183D03*
X016181Y039183D03*
X013181Y039183D03*
X012181Y039183D03*
X011181Y039183D03*
X011181Y036183D03*
X012181Y036183D03*
X013181Y036183D03*
X025753Y024285D03*
X026753Y024285D03*
X027753Y024285D03*
X028753Y024285D03*
X029753Y024285D03*
X030753Y024285D03*
X031753Y024285D03*
X032753Y024285D03*
X033753Y024285D03*
X034753Y024285D03*
X037293Y024287D03*
X038293Y024287D03*
X039293Y024287D03*
X040293Y024287D03*
X041293Y024287D03*
X042293Y024287D03*
X043293Y024287D03*
X044293Y024287D03*
X045293Y024287D03*
X046293Y024287D03*
X010769Y022277D03*
X008769Y022277D03*
D11*
X006872Y025804D03*
X024314Y038984D03*
X025314Y038984D03*
X026314Y038984D03*
X027314Y038984D03*
X028314Y038984D03*
X029314Y038984D03*
X030314Y038984D03*
X031314Y038984D03*
X032314Y038984D03*
X033314Y038984D03*
X034314Y038984D03*
X035314Y038984D03*
X036314Y038984D03*
X037314Y038984D03*
X038314Y038984D03*
X039314Y038984D03*
X055681Y038683D03*
X056681Y038683D03*
X056681Y037683D03*
X055681Y037683D03*
X055681Y036683D03*
X056681Y036683D03*
X056681Y035683D03*
X055681Y035683D03*
X055681Y034683D03*
X056681Y034683D03*
X061386Y034563D03*
X062386Y034563D03*
X062386Y035563D03*
X061386Y035563D03*
X061386Y036563D03*
X062386Y036563D03*
X062386Y037563D03*
X061386Y037563D03*
X061386Y038563D03*
X062386Y038563D03*
X066580Y038287D03*
X066580Y037287D03*
X067580Y037287D03*
X067580Y038287D03*
X067580Y036287D03*
X067580Y035287D03*
X067580Y034287D03*
X066580Y034287D03*
X066580Y035287D03*
X066580Y036287D03*
X066594Y029256D03*
X066594Y028256D03*
X067594Y028256D03*
X067594Y029256D03*
X067594Y027256D03*
X067594Y026256D03*
X067594Y025256D03*
X066594Y025256D03*
X066594Y026256D03*
X066594Y027256D03*
X062474Y027157D03*
X061474Y027157D03*
X061474Y028157D03*
X062474Y028157D03*
X062474Y029157D03*
X061474Y029157D03*
X056901Y029116D03*
X055901Y029116D03*
X055901Y028116D03*
X056901Y028116D03*
X056901Y027116D03*
X055901Y027116D03*
X055901Y026116D03*
X056901Y026116D03*
X056901Y025116D03*
X055901Y025116D03*
X061474Y025157D03*
X062474Y025157D03*
X062474Y026157D03*
X061474Y026157D03*
X061547Y019296D03*
X062547Y019296D03*
X062547Y018296D03*
X061547Y018296D03*
X061547Y017296D03*
X061547Y016296D03*
X062547Y016296D03*
X062547Y017296D03*
X062547Y015296D03*
X061547Y015296D03*
X056916Y015230D03*
X056916Y016230D03*
X055916Y016230D03*
X055916Y015230D03*
X055916Y017230D03*
X056916Y017230D03*
X056916Y018230D03*
X055916Y018230D03*
X055916Y019230D03*
X056916Y019230D03*
X051607Y018916D03*
X050607Y018916D03*
X050607Y017916D03*
X051607Y017916D03*
X051607Y016916D03*
X050607Y016916D03*
X050607Y015916D03*
X051607Y015916D03*
X051607Y014916D03*
X050607Y014916D03*
X046107Y014916D03*
X045107Y014916D03*
X045107Y015916D03*
X046107Y015916D03*
X046107Y016916D03*
X045107Y016916D03*
X045107Y017916D03*
X046107Y017916D03*
X046107Y018916D03*
X045107Y018916D03*
X045218Y009096D03*
X046218Y009096D03*
X046218Y008096D03*
X045218Y008096D03*
X045218Y007096D03*
X046218Y007096D03*
X046218Y006096D03*
X045218Y006096D03*
X045218Y005096D03*
X046218Y005096D03*
X050547Y004983D03*
X051547Y004983D03*
X051547Y005983D03*
X050547Y005983D03*
X050547Y006983D03*
X051547Y006983D03*
X051547Y007983D03*
X050547Y007983D03*
X050547Y008983D03*
X051547Y008983D03*
X055939Y009379D03*
X055939Y008379D03*
X055939Y007379D03*
X056939Y007379D03*
X056939Y008379D03*
X056939Y009379D03*
X061647Y009378D03*
X062647Y009378D03*
X062647Y008378D03*
X062647Y007378D03*
X061647Y007378D03*
X061647Y008378D03*
X061647Y006378D03*
X062647Y006378D03*
X062647Y005378D03*
X061647Y005378D03*
X056939Y005379D03*
X055939Y005379D03*
X055939Y006379D03*
X056939Y006379D03*
X066401Y006476D03*
X067401Y006476D03*
X067401Y007476D03*
X066401Y007476D03*
X066401Y008476D03*
X067401Y008476D03*
X067401Y009476D03*
X066401Y009476D03*
X066401Y005476D03*
X067401Y005476D03*
X067620Y015290D03*
X066620Y015290D03*
X066620Y016290D03*
X066620Y017290D03*
X066620Y018290D03*
X067620Y018290D03*
X067620Y017290D03*
X067620Y016290D03*
X067620Y019290D03*
X066620Y019290D03*
X023179Y009502D03*
X022179Y009502D03*
X022179Y008502D03*
X023179Y008502D03*
X023179Y007502D03*
X022179Y007502D03*
X022179Y006502D03*
X023179Y006502D03*
X023179Y005502D03*
X022179Y005502D03*
D12*
X010831Y008983D03*
X006531Y008983D03*
D13*
X008681Y003733D03*
X008681Y015633D03*
D14*
X005691Y023915D03*
X004510Y025804D03*
D15*
X002639Y029008D03*
X002682Y031008D03*
X002639Y033008D03*
X006639Y033008D03*
X006682Y031008D03*
X006639Y029008D03*
X004574Y021194D03*
X004574Y020214D03*
X004574Y019234D03*
X002214Y019234D03*
X002214Y020214D03*
X002214Y021194D03*
X018791Y010532D03*
X019964Y010494D03*
X019964Y006494D03*
X018791Y006532D03*
X019557Y002015D03*
X020557Y002015D03*
X023350Y002104D03*
X024350Y002104D03*
X030276Y007900D03*
X031276Y007900D03*
X037692Y011342D03*
X037692Y012342D03*
X030105Y013529D03*
X030105Y014529D03*
X036314Y017703D03*
X037314Y017703D03*
X007681Y038183D03*
X006681Y038183D03*
D16*
X027968Y020800D03*
X027968Y019800D03*
X027968Y018800D03*
X026968Y018800D03*
X026968Y017800D03*
X027968Y017800D03*
X027968Y016800D03*
X026968Y016800D03*
X026968Y015800D03*
X027968Y015800D03*
X027968Y014800D03*
X026968Y014800D03*
X026968Y013800D03*
X027968Y013800D03*
X027968Y012800D03*
X026968Y012800D03*
X026968Y011800D03*
X027968Y011800D03*
X027968Y010800D03*
X026968Y010800D03*
X026968Y009800D03*
X027968Y009800D03*
X027968Y008800D03*
X026968Y008800D03*
X026968Y007800D03*
X027968Y007800D03*
X027968Y006800D03*
X026968Y006800D03*
X027968Y005800D03*
X027968Y004800D03*
X028968Y004800D03*
X029968Y004800D03*
X030968Y004800D03*
X031968Y004800D03*
X032968Y004800D03*
X033968Y004800D03*
X034968Y004800D03*
X035968Y004800D03*
X036968Y004800D03*
X037968Y004800D03*
X038968Y004800D03*
X039968Y004800D03*
X039968Y005800D03*
X038968Y005800D03*
X037968Y005800D03*
X036968Y005800D03*
X035968Y005800D03*
X034968Y005800D03*
X033968Y005800D03*
X032968Y005800D03*
X031968Y005800D03*
X030968Y005800D03*
X029968Y005800D03*
X028968Y005800D03*
X039968Y006800D03*
X040968Y006800D03*
X040968Y007800D03*
X039968Y007800D03*
X039968Y008800D03*
X040968Y008800D03*
X040968Y009800D03*
X039968Y009800D03*
X039968Y010800D03*
X040968Y010800D03*
X040968Y011800D03*
X039968Y011800D03*
X039968Y012800D03*
X040968Y012800D03*
X040968Y013800D03*
X039968Y013800D03*
X039968Y014800D03*
X040968Y014800D03*
X040968Y015800D03*
X039968Y015800D03*
X039968Y016800D03*
X040968Y016800D03*
X040968Y017800D03*
X039968Y017800D03*
X039968Y018800D03*
X040968Y018800D03*
X039968Y019800D03*
X038968Y019800D03*
X037968Y019800D03*
X036968Y019800D03*
X035968Y019800D03*
X034968Y019800D03*
X033968Y019800D03*
X032968Y019800D03*
X031968Y019800D03*
X030968Y019800D03*
X029968Y019800D03*
X028968Y019800D03*
X028968Y020800D03*
X029968Y020800D03*
X030968Y020800D03*
X031968Y020800D03*
X032968Y020800D03*
X033968Y020800D03*
X034968Y020800D03*
X035968Y020800D03*
X036968Y020800D03*
X037968Y020800D03*
X038968Y020800D03*
X039968Y020800D03*
D17*
X003321Y035685D03*
X003321Y037245D03*
D18*
X006648Y028893D03*
X018809Y028404D03*
X019099Y026421D03*
X022843Y028963D03*
X024029Y028817D03*
X022953Y030595D03*
X022696Y032263D03*
X023138Y034242D03*
X023108Y035686D03*
X021172Y035686D03*
X019167Y034367D03*
X019071Y031484D03*
X019776Y037504D03*
X022001Y037504D03*
X024364Y039181D03*
X026684Y037288D03*
X017188Y040569D03*
X035214Y027185D03*
X036271Y026671D03*
X037284Y026288D03*
X034337Y026306D03*
X026784Y024299D03*
X025717Y024193D03*
X023648Y024197D03*
X018865Y022798D03*
X025023Y018282D03*
X028720Y018289D03*
X031461Y017779D03*
X032285Y017288D03*
X032877Y016686D03*
X033368Y016135D03*
X034203Y015142D03*
X035978Y015457D03*
X037132Y015315D03*
X037704Y014764D03*
X038235Y014078D03*
X038149Y013210D03*
X034754Y009027D03*
X034188Y009282D03*
X029325Y009544D03*
X025815Y005483D03*
X025832Y004034D03*
X026835Y002660D03*
X031950Y003671D03*
X020720Y008325D03*
X019947Y004396D03*
X018778Y004486D03*
X015143Y003824D03*
X014370Y015020D03*
X021311Y015232D03*
X028968Y020664D03*
X029004Y020677D03*
X035294Y018718D03*
X035303Y018704D03*
X036342Y017682D03*
X047600Y018681D03*
X048818Y018684D03*
X047638Y019737D03*
X047440Y020457D03*
X047592Y021391D03*
X052373Y021204D03*
X052873Y020391D03*
X054613Y018946D03*
X053440Y018290D03*
X055548Y020450D03*
X055505Y021255D03*
X055924Y022099D03*
X048024Y027030D03*
X046921Y026968D03*
X045799Y026805D03*
X044886Y026591D03*
X050982Y028139D03*
X050824Y029272D03*
X051816Y029823D03*
X052756Y030429D03*
X055549Y030531D03*
X056108Y029942D03*
X050867Y033784D03*
X047963Y033848D03*
X046550Y033449D03*
X045428Y032974D03*
X044371Y032934D03*
X048840Y035947D03*
X049376Y037270D03*
X048901Y038579D03*
X048884Y040235D03*
X055531Y039778D03*
X042016Y039130D03*
X054572Y010674D03*
X054634Y008961D03*
X054489Y005316D03*
X057917Y003424D03*
X058926Y005378D03*
X063708Y003924D03*
X064973Y004519D03*
D19*
X055856Y011237D03*
X063046Y012978D03*
X047124Y004564D03*
X046701Y003208D03*
X047251Y002658D03*
X048134Y002141D03*
X038463Y009824D03*
X028700Y010151D03*
M02*
