%
M48
M72
T01C0.0236
T02C0.0240
T03C0.0315
T04C0.0320
T05C0.0354
T06C0.0360
T07C0.0394
T08C0.0400
T09C0.0440
T10C0.0660
T11C0.1000
T12C0.1102
%
T01
X1565Y1678
X2055Y29138
X49108Y29520
X49198Y1936
T02
X19419Y10218
X17419Y10218
X7036Y9703
X7036Y8703
X7036Y7703
X7041Y14929
X7041Y15929
X7041Y16929
X12012Y19423
X12012Y20423
X12012Y21423
X7048Y22454
X7048Y23454
X7048Y24454
T03
X5097Y24290
X5134Y27349
X10408Y25459
X5365Y19763
X5397Y16755
X11293Y9148
X10825Y8056
X14224Y9148
X16329Y5025
X16309Y1966
X10829Y5100
X5231Y8918
X22457Y5179
X27436Y5152
X33266Y7011
X36583Y5496
X38266Y7024
X41591Y7415
X45586Y7436
X37366Y11523
X37342Y14526
X29732Y14076
X29732Y13085
X28720Y13063
X28738Y17078
X29732Y17069
X39115Y20963
X42118Y20949
X40653Y24370
X39102Y25753
X37004Y26401
X39096Y28770
X40632Y29375
X37035Y30465
X29178Y27416
X26184Y27406
X36592Y2528
T04
X36591Y2521
X39332Y4429
X39332Y5429
X38276Y7019
X36591Y5521
X33276Y7019
X32587Y8593
X32587Y9593
X32587Y10593
X32587Y11593
X32587Y12593
X32587Y13593
X32587Y14593
X32587Y15593
X35587Y15593
X35587Y14593
X35587Y13593
X35587Y12593
X35587Y11593
X37343Y11521
X35587Y10593
X35587Y9593
X35587Y8593
X41601Y5515
X41715Y3900
X45601Y5515
X45715Y3900
X46084Y10988
X45084Y10988
X47084Y10988
X47084Y12988
X46084Y12988
X45084Y12988
X37343Y14521
X35886Y17698
X35886Y18698
X35886Y19698
X35886Y20698
X35886Y21698
X35886Y22698
X35886Y23698
X35886Y24698
X37009Y26434
X39110Y25768
X40642Y24381
X42139Y20935
X39139Y20935
X32886Y20698
X32886Y19698
X32886Y18698
X32886Y17698
X32886Y21698
X32886Y22698
X32886Y23698
X32886Y24698
X29178Y27403
X26178Y27403
X25999Y22843
X25999Y21843
X25999Y20843
X25999Y19843
X25999Y18843
X25999Y17843
X25999Y16843
X25999Y15843
X25999Y14843
X25999Y13843
X25999Y12843
X25999Y11843
X25999Y10843
X25999Y9843
X22999Y9843
X22999Y10843
X22999Y11843
X22999Y12843
X22999Y13843
X22999Y14843
X22999Y15843
X22999Y16843
X22999Y17843
X22999Y18843
X22999Y19843
X22999Y20843
X22999Y21843
X22999Y22843
X19939Y20538
X19939Y19538
X19939Y18538
X19939Y17538
X19939Y16538
X19939Y15538
X19939Y14538
X19939Y13538
X19939Y12538
X16939Y12538
X16939Y13538
X16939Y14538
X16939Y15538
X16939Y16538
X16939Y17538
X16939Y18538
X16939Y19538
X16939Y20538
X18328Y22464
X18323Y23754
X18239Y25314
X15877Y26882
X14877Y26882
X14239Y25314
X12412Y25461
X10412Y25461
X10120Y23622
X9304Y22849
X12120Y23622
X14323Y23754
X14328Y22464
X9304Y18849
X7625Y19732
X6625Y19732
X5375Y19745
X5375Y16745
X11482Y16530
X11482Y15530
X11482Y14530
X11482Y13530
X11482Y12530
X11482Y11530
X11482Y10530
X11273Y9142
X9392Y8423
X10836Y8102
X9256Y6297
X10836Y5102
X7400Y5406
X6400Y5406
X9256Y2297
X16329Y1983
X16329Y4983
X18049Y4993
X18049Y5993
X18049Y6993
X18049Y7993
X21049Y7993
X21049Y6993
X21049Y5993
X22444Y5186
X21049Y4993
X27444Y5186
X14482Y10530
X14482Y11530
X14482Y12530
X14482Y13530
X14482Y14530
X14482Y15530
X14482Y16530
X9392Y12423
X7349Y12367
X6349Y12367
X5201Y11927
X5201Y8927
X14273Y9142
X5108Y24319
X5108Y27319
X37009Y30434
X39110Y28768
X40642Y29381
T05
X18223Y25312
X18321Y23761
X18330Y22463
X14332Y22457
X14313Y23745
X12117Y23615
X10117Y23607
X10400Y25458
X12416Y25458
X14246Y25344
X12018Y21414
X12006Y20414
X12006Y19438
X7038Y16934
X7038Y15918
X7026Y14942
X9369Y12407
X7038Y9702
X7038Y8690
X7026Y7698
X9388Y8450
X9254Y6289
X9254Y2300
X41715Y3887
X45727Y3883
X7050Y22454
X7061Y23481
X7050Y24470
T06
X3409Y21933
X3399Y20934
X3388Y19934
X3545Y11032
X3545Y10032
X3545Y9032
T07
X5160Y11954
X9290Y18832
X9309Y22840
X28732Y17070
X29732Y17070
X29750Y16080
X29732Y16070
X28732Y16070
X28732Y15070
X28739Y15067
X29732Y15070
X29801Y15067
X29732Y14070
X28739Y14080
X28732Y14070
X28732Y13070
X29732Y13070
T08
X38320Y16745
X40320Y16745
X47061Y17094
X47061Y16094
X42244Y11247
X40244Y11247
X29183Y20367
X29183Y21367
X29183Y22367
X29183Y23367
X29183Y24367
X29183Y25367
X15912Y28713
X14912Y28713
X3398Y25765
X3398Y24765
X3398Y23765
X3368Y17745
X3368Y16745
X3368Y15745
X3368Y14745
X3368Y13745
X3368Y12745
X3625Y6687
X3625Y5687
X3625Y4687
X42460Y22987
X42460Y23987
X42460Y24987
T09
X41590Y7428
X45590Y7428
T10
X33072Y4288
X31512Y4288
X31250Y27666
X32810Y27666
T11
X44872Y26033
X44872Y21970
T12
X1571Y1630
X2024Y29118
X49029Y29571
X49312Y1970
M30
