G75*
%MOIN*%
%OFA0B0*%
%FSLAX24Y24*%
%IPPOS*%
%LPD*%
%AMOC8*
5,1,8,0,0,1.08239X$1,22.5*
%
%ADD10C,0.0380*%
%ADD11C,0.0080*%
%ADD12C,0.0594*%
%ADD13C,0.0040*%
%ADD14C,0.0000*%
%ADD15C,0.0060*%
%ADD16C,0.0600*%
%ADD17R,0.0200X0.0200*%
%ADD18OC8,0.0600*%
%ADD19C,0.2000*%
%ADD20C,0.0070*%
%ADD21C,0.0050*%
%ADD22R,0.0300X0.7300*%
%ADD23R,0.0200X1.2200*%
%ADD24R,0.2850X0.0320*%
%ADD25R,0.1850X0.0320*%
%ADD26C,0.1306*%
%ADD27C,0.0554*%
%ADD28C,0.1065*%
%ADD29OC8,0.0520*%
%ADD30C,0.0825*%
%ADD31R,0.0240X0.0340*%
%ADD32R,0.0340X0.0240*%
%ADD33C,0.0100*%
%ADD34C,0.0020*%
%ADD35C,0.1000*%
%ADD36R,0.0250X0.0450*%
%ADD37R,0.0250X0.1600*%
%ADD38R,0.4000X0.0200*%
%ADD39R,0.1550X0.0050*%
%ADD40R,0.1900X0.0200*%
%ADD41R,0.0450X0.0250*%
%ADD42R,0.1600X0.0250*%
%ADD43R,0.0200X0.4000*%
%ADD44R,0.0050X0.1550*%
%ADD45R,0.0200X0.1900*%
%ADD46C,0.0560*%
%ADD47C,0.0360*%
%ADD48C,0.0160*%
%ADD49C,0.0240*%
%ADD50C,0.2540*%
D10*
X028229Y012176D02*
X028589Y011816D01*
X029310Y011816D01*
X029670Y012176D01*
X030568Y011816D02*
X030568Y013257D01*
X031289Y013977D01*
X032009Y013257D01*
X032009Y011816D01*
X032907Y011816D02*
X034348Y011816D01*
X035246Y011816D02*
X036687Y011816D01*
X037584Y011816D02*
X038305Y011816D01*
X037945Y011816D02*
X037945Y013977D01*
X038305Y013977D02*
X037584Y013977D01*
X039144Y013977D02*
X040585Y011816D01*
X040585Y013977D01*
X041482Y013617D02*
X041482Y012176D01*
X041843Y011816D01*
X042563Y011816D01*
X042924Y012176D01*
X042924Y012897D01*
X042203Y012897D01*
X042924Y013617D02*
X042563Y013977D01*
X041843Y013977D01*
X041482Y013617D01*
X039144Y013977D02*
X039144Y011816D01*
X035246Y011816D02*
X035246Y013977D01*
X032907Y013977D02*
X032907Y011816D01*
X032009Y012897D02*
X030568Y012897D01*
X029670Y013617D02*
X029310Y013977D01*
X028589Y013977D01*
X028229Y013617D01*
X028229Y012176D01*
X046160Y012176D02*
X046520Y011816D01*
X047241Y011816D01*
X047601Y012176D01*
X047601Y013617D01*
X047241Y013977D01*
X046520Y013977D01*
X046160Y013617D01*
X046160Y012176D01*
X048499Y012536D02*
X049580Y012536D01*
X049940Y012897D01*
X049940Y013617D01*
X049580Y013977D01*
X048499Y013977D01*
X048499Y011816D01*
X051558Y011816D02*
X051558Y013977D01*
X050838Y013977D02*
X052279Y013977D01*
X053176Y013977D02*
X053897Y013977D01*
X053537Y013977D02*
X053537Y011816D01*
X053897Y011816D02*
X053176Y011816D01*
X054736Y011816D02*
X054736Y013977D01*
X055456Y013257D01*
X056177Y013977D01*
X056177Y011816D01*
X057074Y012176D02*
X057435Y011816D01*
X058155Y011816D01*
X058516Y012176D01*
X058516Y013977D01*
X059413Y013617D02*
X059413Y013257D01*
X059773Y012897D01*
X060494Y012897D01*
X060854Y012536D01*
X060854Y012176D01*
X060494Y011816D01*
X059773Y011816D01*
X059413Y012176D01*
X061752Y012176D02*
X061752Y011816D01*
X062112Y011816D01*
X062112Y012176D01*
X061752Y012176D01*
X062921Y012176D02*
X062921Y011816D01*
X063282Y011816D01*
X063282Y012176D01*
X062921Y012176D01*
X064091Y012176D02*
X064091Y011816D01*
X064451Y011816D01*
X064451Y012176D01*
X064091Y012176D01*
X065260Y012176D02*
X065260Y011816D01*
X065620Y011816D01*
X065620Y012176D01*
X065260Y012176D01*
X066430Y012176D02*
X066430Y011816D01*
X066790Y011816D01*
X066790Y012176D01*
X066430Y012176D01*
X060854Y013617D02*
X060494Y013977D01*
X059773Y013977D01*
X059413Y013617D01*
X057074Y013977D02*
X057074Y012176D01*
D11*
X056798Y006779D02*
X054602Y006779D01*
X054602Y003472D01*
X056795Y003472D01*
X056795Y003590D01*
X057377Y003590D01*
X057377Y003472D01*
X063798Y003472D01*
X065281Y003472D01*
X065281Y004082D01*
X063798Y004082D01*
X063798Y003472D01*
X063798Y003836D02*
X055045Y003836D01*
X055045Y006415D01*
X056795Y006415D01*
X056798Y006169D02*
X058281Y006169D01*
X058281Y006779D01*
X070798Y006779D01*
X070798Y006169D01*
X072281Y006169D01*
X072281Y006779D01*
X074476Y006779D01*
X074476Y003472D01*
X072377Y003472D01*
X072377Y003590D01*
X071795Y003590D01*
X071795Y003472D01*
X065281Y003472D01*
X065281Y003836D02*
X074033Y003836D01*
X074033Y006415D01*
X072283Y006415D01*
X072281Y006779D02*
X070798Y006779D01*
X070797Y006415D02*
X058281Y006415D01*
X058281Y006779D02*
X056798Y006779D01*
X056798Y006169D01*
X062079Y001146D02*
X062319Y001146D01*
X062399Y001066D01*
X062399Y000906D01*
X062319Y000826D01*
X062079Y000826D01*
X062239Y000826D02*
X062399Y000666D01*
X062595Y000746D02*
X062675Y000666D01*
X062835Y000666D01*
X062915Y000746D01*
X062915Y000906D01*
X062755Y000906D01*
X062915Y001066D02*
X062835Y001146D01*
X062675Y001146D01*
X062595Y001066D01*
X062595Y000746D01*
X062079Y000666D02*
X062079Y001146D01*
X063626Y001066D02*
X063626Y000746D01*
X063706Y000666D01*
X063866Y000666D01*
X063946Y000746D01*
X064142Y000826D02*
X064382Y000826D01*
X064462Y000906D01*
X064462Y001066D01*
X064382Y001146D01*
X064142Y001146D01*
X064142Y000666D01*
X064302Y000826D02*
X064462Y000666D01*
X064657Y000666D02*
X064657Y001146D01*
X064978Y001146D01*
X065173Y000986D02*
X065333Y001146D01*
X065493Y000986D01*
X065493Y000666D01*
X065493Y000906D02*
X065173Y000906D01*
X065173Y000986D02*
X065173Y000666D01*
X064978Y000666D02*
X064657Y000666D01*
X064657Y000906D02*
X064818Y000906D01*
X063946Y001066D02*
X063866Y001146D01*
X063706Y001146D01*
X063626Y001066D01*
X065689Y001146D02*
X066009Y001146D01*
X065849Y001146D02*
X065849Y000666D01*
X066204Y000666D02*
X066364Y000666D01*
X066284Y000666D02*
X066284Y001146D01*
X066204Y001146D02*
X066364Y001146D01*
X066548Y001066D02*
X066548Y000746D01*
X066628Y000666D01*
X066788Y000666D01*
X066868Y000746D01*
X066868Y001066D01*
X066788Y001146D01*
X066628Y001146D01*
X066548Y001066D01*
X067064Y001146D02*
X067384Y000666D01*
X067384Y001146D01*
X067579Y001066D02*
X067579Y000986D01*
X067659Y000906D01*
X067820Y000906D01*
X067900Y000826D01*
X067900Y000746D01*
X067820Y000666D01*
X067659Y000666D01*
X067579Y000746D01*
X067579Y001066D02*
X067659Y001146D01*
X067820Y001146D01*
X067900Y001066D01*
X068095Y000746D02*
X068175Y000746D01*
X068175Y000666D01*
X068095Y000666D01*
X068095Y000746D01*
X068353Y000746D02*
X068433Y000746D01*
X068433Y000666D01*
X068353Y000666D01*
X068353Y000746D01*
X068611Y000746D02*
X068691Y000746D01*
X068691Y000666D01*
X068611Y000666D01*
X068611Y000746D01*
X067064Y000666D02*
X067064Y001146D01*
X042476Y003472D02*
X040377Y003472D01*
X040377Y003590D01*
X039795Y003590D01*
X039795Y003472D01*
X033281Y003472D01*
X031798Y003472D01*
X025377Y003472D01*
X025377Y003590D01*
X024795Y003590D01*
X024795Y003472D01*
X022602Y003472D01*
X022602Y006779D01*
X024798Y006779D01*
X024798Y006169D01*
X026281Y006169D01*
X026281Y006779D01*
X038798Y006779D01*
X038798Y006169D01*
X040281Y006169D01*
X040281Y006779D01*
X042476Y006779D01*
X042476Y003472D01*
X042033Y003836D02*
X033281Y003836D01*
X033281Y004082D02*
X033281Y003472D01*
X033281Y004082D02*
X031798Y004082D01*
X031798Y003472D01*
X031798Y003836D02*
X023045Y003836D01*
X023045Y006415D01*
X024795Y006415D01*
X024798Y006779D02*
X026281Y006779D01*
X026281Y006415D02*
X038797Y006415D01*
X038798Y006779D02*
X040281Y006779D01*
X040283Y006415D02*
X042033Y006415D01*
X042033Y003836D01*
X020193Y011689D02*
X016886Y011689D01*
X016886Y013788D01*
X017004Y013788D01*
X017004Y014370D01*
X016886Y014370D01*
X016886Y020884D01*
X016886Y022367D01*
X016886Y028788D01*
X017004Y028788D01*
X017004Y029370D01*
X016886Y029370D01*
X016886Y031563D01*
X020193Y031563D01*
X020193Y029367D01*
X019582Y029367D01*
X019582Y027884D01*
X020193Y027884D01*
X020193Y015367D01*
X019582Y015367D01*
X019582Y013884D01*
X020193Y013884D01*
X020193Y011689D01*
X019829Y012131D02*
X017250Y012131D01*
X017250Y020884D01*
X017496Y020884D02*
X016886Y020884D01*
X017496Y020884D02*
X017496Y022367D01*
X016886Y022367D01*
X017250Y022367D02*
X017250Y031120D01*
X019829Y031120D01*
X019829Y029370D01*
X020193Y029367D02*
X020193Y027884D01*
X019829Y027883D02*
X019829Y015368D01*
X020193Y015367D02*
X020193Y013884D01*
X019829Y013881D02*
X019829Y012131D01*
X018039Y004876D02*
X018039Y003376D01*
X024102Y028472D02*
X024102Y031779D01*
X026201Y031779D01*
X026201Y031661D01*
X026784Y031661D01*
X026784Y031779D01*
X033298Y031779D01*
X034781Y031779D01*
X041201Y031779D01*
X041201Y031661D01*
X041784Y031661D01*
X041784Y031779D01*
X043976Y031779D01*
X043976Y028472D01*
X041781Y028472D01*
X041781Y029082D01*
X040298Y029082D01*
X040298Y028472D01*
X027781Y028472D01*
X027781Y029082D01*
X026298Y029082D01*
X026298Y028472D01*
X024102Y028472D01*
X024545Y028836D02*
X024545Y031415D01*
X033298Y031415D01*
X033298Y031169D02*
X034781Y031169D01*
X034781Y031779D01*
X034781Y031415D02*
X043533Y031415D01*
X043533Y028836D01*
X041783Y028836D01*
X041781Y028472D02*
X040298Y028472D01*
X040297Y028836D02*
X027781Y028836D01*
X027781Y028472D02*
X026298Y028472D01*
X026295Y028836D02*
X024545Y028836D01*
X033298Y031169D02*
X033298Y031779D01*
X043039Y032876D02*
X043039Y034376D01*
X055102Y033779D02*
X055102Y030472D01*
X057298Y030472D01*
X057298Y031082D01*
X058781Y031082D01*
X058781Y030472D01*
X057298Y030472D01*
X057295Y030836D02*
X055545Y030836D01*
X055545Y033415D01*
X064298Y033415D01*
X064298Y033169D02*
X065781Y033169D01*
X065781Y033779D01*
X072201Y033779D01*
X072201Y033661D01*
X072784Y033661D01*
X072784Y033779D01*
X074976Y033779D01*
X074976Y030472D01*
X072781Y030472D01*
X072781Y031082D01*
X071298Y031082D01*
X071298Y030472D01*
X058781Y030472D01*
X058781Y030836D02*
X071297Y030836D01*
X071298Y030472D02*
X072781Y030472D01*
X072783Y030836D02*
X074533Y030836D01*
X074533Y033415D01*
X065781Y033415D01*
X065781Y033779D02*
X064298Y033779D01*
X064298Y033169D01*
X064298Y033779D02*
X057784Y033779D01*
X057784Y033661D01*
X057201Y033661D01*
X057201Y033779D01*
X055102Y033779D01*
X069789Y013626D02*
X071289Y013626D01*
D12*
X071539Y005626D03*
X072539Y005626D03*
X072539Y004626D03*
X071539Y004626D03*
X070539Y004626D03*
X069539Y004626D03*
X068539Y004626D03*
X067539Y004626D03*
X066539Y004626D03*
X065539Y004626D03*
X064539Y004626D03*
X063539Y004626D03*
X062539Y004626D03*
X061539Y004626D03*
X060539Y004626D03*
X059539Y004626D03*
X058539Y004626D03*
X057539Y004626D03*
X056539Y004626D03*
X056539Y005626D03*
X057539Y005626D03*
X058539Y005626D03*
X059539Y005626D03*
X060539Y005626D03*
X061539Y005626D03*
X062539Y005626D03*
X063539Y005626D03*
X064539Y005626D03*
X065539Y005626D03*
X066539Y005626D03*
X067539Y005626D03*
X068539Y005626D03*
X069539Y005626D03*
X070539Y005626D03*
X040539Y005626D03*
X039539Y005626D03*
X038539Y005626D03*
X037539Y005626D03*
X036539Y005626D03*
X035539Y005626D03*
X034539Y005626D03*
X033539Y005626D03*
X032539Y005626D03*
X031539Y005626D03*
X030539Y005626D03*
X029539Y005626D03*
X028539Y005626D03*
X027539Y005626D03*
X026539Y005626D03*
X025539Y005626D03*
X024539Y005626D03*
X024539Y004626D03*
X025539Y004626D03*
X026539Y004626D03*
X027539Y004626D03*
X028539Y004626D03*
X029539Y004626D03*
X030539Y004626D03*
X031539Y004626D03*
X032539Y004626D03*
X033539Y004626D03*
X034539Y004626D03*
X035539Y004626D03*
X036539Y004626D03*
X037539Y004626D03*
X038539Y004626D03*
X039539Y004626D03*
X040539Y004626D03*
X019039Y013626D03*
X018039Y013626D03*
X018039Y014626D03*
X019039Y014626D03*
X019039Y015626D03*
X018039Y015626D03*
X018039Y016626D03*
X019039Y016626D03*
X019039Y017626D03*
X018039Y017626D03*
X018039Y018626D03*
X019039Y018626D03*
X019039Y019626D03*
X018039Y019626D03*
X018039Y020626D03*
X019039Y020626D03*
X019039Y021626D03*
X018039Y021626D03*
X018039Y022626D03*
X019039Y022626D03*
X019039Y023626D03*
X018039Y023626D03*
X018039Y024626D03*
X019039Y024626D03*
X019039Y025626D03*
X018039Y025626D03*
X018039Y026626D03*
X019039Y026626D03*
X019039Y027626D03*
X018039Y027626D03*
X018039Y028626D03*
X019039Y028626D03*
X019039Y029626D03*
X018039Y029626D03*
X026039Y029626D03*
X027039Y029626D03*
X028039Y029626D03*
X029039Y029626D03*
X030039Y029626D03*
X031039Y029626D03*
X032039Y029626D03*
X033039Y029626D03*
X034039Y029626D03*
X035039Y029626D03*
X036039Y029626D03*
X037039Y029626D03*
X038039Y029626D03*
X039039Y029626D03*
X040039Y029626D03*
X041039Y029626D03*
X042039Y029626D03*
X042039Y030626D03*
X041039Y030626D03*
X040039Y030626D03*
X039039Y030626D03*
X038039Y030626D03*
X037039Y030626D03*
X036039Y030626D03*
X035039Y030626D03*
X034039Y030626D03*
X033039Y030626D03*
X032039Y030626D03*
X031039Y030626D03*
X030039Y030626D03*
X029039Y030626D03*
X028039Y030626D03*
X027039Y030626D03*
X026039Y030626D03*
X057039Y031626D03*
X058039Y031626D03*
X059039Y031626D03*
X060039Y031626D03*
X061039Y031626D03*
X061039Y032626D03*
X060039Y032626D03*
X059039Y032626D03*
X058039Y032626D03*
X057039Y032626D03*
X062039Y032626D03*
X063039Y032626D03*
X064039Y032626D03*
X065039Y032626D03*
X066039Y032626D03*
X067039Y032626D03*
X068039Y032626D03*
X069039Y032626D03*
X070039Y032626D03*
X071039Y032626D03*
X072039Y032626D03*
X073039Y032626D03*
X073039Y031626D03*
X072039Y031626D03*
X071039Y031626D03*
X070039Y031626D03*
X069039Y031626D03*
X068039Y031626D03*
X067039Y031626D03*
X066039Y031626D03*
X065039Y031626D03*
X064039Y031626D03*
X063039Y031626D03*
X062039Y031626D03*
D13*
X069757Y030229D02*
X069834Y030306D01*
X069987Y030306D01*
X070064Y030229D01*
X070064Y030153D01*
X069757Y029846D01*
X070064Y029846D01*
X070218Y029922D02*
X070294Y029846D01*
X070448Y029846D01*
X070525Y029922D01*
X070525Y030076D01*
X070448Y030153D01*
X070371Y030153D01*
X070218Y030076D01*
X070218Y030306D01*
X070525Y030306D01*
X070678Y030229D02*
X070755Y030306D01*
X070908Y030306D01*
X070985Y030229D01*
X070985Y030153D01*
X070908Y030076D01*
X070985Y029999D01*
X070985Y029922D01*
X070908Y029846D01*
X070755Y029846D01*
X070678Y029922D01*
X070831Y030076D02*
X070908Y030076D01*
X071138Y030076D02*
X071445Y030076D01*
X071599Y030076D02*
X071906Y030076D01*
X071369Y030306D02*
X071138Y030076D01*
X071369Y029846D02*
X071369Y030306D01*
X074138Y030306D02*
X074138Y029846D01*
X074369Y029846D01*
X074445Y029922D01*
X074445Y029999D01*
X074369Y030076D01*
X074138Y030076D01*
X074138Y030306D02*
X074369Y030306D01*
X074445Y030229D01*
X074445Y030153D01*
X074369Y030076D01*
X074599Y030306D02*
X074906Y030306D01*
X074752Y030306D02*
X074752Y029846D01*
X065678Y026826D02*
X065371Y026826D01*
X065371Y026596D01*
X065524Y026673D01*
X065601Y026673D01*
X065678Y026596D01*
X065678Y026442D01*
X065601Y026366D01*
X065447Y026366D01*
X065371Y026442D01*
X065217Y026442D02*
X065141Y026366D01*
X064987Y026366D01*
X064910Y026442D01*
X065217Y026749D01*
X065217Y026442D01*
X064910Y026442D02*
X064910Y026749D01*
X064987Y026826D01*
X065141Y026826D01*
X065217Y026749D01*
X064757Y026596D02*
X064450Y026596D01*
X064297Y026749D02*
X064220Y026826D01*
X064066Y026826D01*
X063990Y026749D01*
X063990Y026442D01*
X064066Y026366D01*
X064220Y026366D01*
X064297Y026442D01*
X063836Y026366D02*
X063836Y026826D01*
X063836Y026596D02*
X063529Y026596D01*
X063529Y026366D02*
X063529Y026826D01*
X061222Y020304D02*
X061299Y020227D01*
X061299Y020073D01*
X061222Y019997D01*
X061299Y019843D02*
X060839Y019843D01*
X060916Y019997D02*
X060839Y020073D01*
X060839Y020227D01*
X060916Y020304D01*
X060992Y020304D01*
X061069Y020227D01*
X061146Y020304D01*
X061222Y020304D01*
X061069Y020227D02*
X061069Y020150D01*
X061299Y019843D02*
X060839Y019536D01*
X061299Y019536D01*
X061299Y019383D02*
X060992Y019383D01*
X060839Y019229D01*
X060992Y019076D01*
X061299Y019076D01*
X061222Y018923D02*
X061299Y018846D01*
X061299Y018692D01*
X061222Y018616D01*
X060916Y018616D01*
X060839Y018692D01*
X060839Y018846D01*
X060916Y018923D01*
X061069Y019076D02*
X061069Y019383D01*
X050799Y019383D02*
X050492Y019383D01*
X050339Y019229D01*
X050492Y019076D01*
X050799Y019076D01*
X050722Y018923D02*
X050799Y018846D01*
X050799Y018692D01*
X050722Y018616D01*
X050416Y018616D01*
X050339Y018692D01*
X050339Y018846D01*
X050416Y018923D01*
X050569Y019076D02*
X050569Y019383D01*
X050799Y019536D02*
X050339Y019536D01*
X050799Y019843D01*
X050339Y019843D01*
X050569Y019997D02*
X050569Y020304D01*
X050799Y020227D02*
X050339Y020227D01*
X050569Y019997D01*
X039799Y019997D02*
X039492Y020304D01*
X039416Y020304D01*
X039339Y020227D01*
X039339Y020073D01*
X039416Y019997D01*
X039339Y019843D02*
X039799Y019843D01*
X039339Y019536D01*
X039799Y019536D01*
X039799Y019383D02*
X039492Y019383D01*
X039339Y019229D01*
X039492Y019076D01*
X039799Y019076D01*
X039722Y018923D02*
X039799Y018846D01*
X039799Y018692D01*
X039722Y018616D01*
X039416Y018616D01*
X039339Y018692D01*
X039339Y018846D01*
X039416Y018923D01*
X039569Y019076D02*
X039569Y019383D01*
X039799Y019997D02*
X039799Y020304D01*
X029799Y020227D02*
X029799Y020073D01*
X029722Y019997D01*
X029569Y019997D02*
X029492Y020150D01*
X029492Y020227D01*
X029569Y020304D01*
X029722Y020304D01*
X029799Y020227D01*
X029569Y019997D02*
X029339Y019997D01*
X029339Y020304D01*
X029339Y019843D02*
X029799Y019843D01*
X029339Y019536D01*
X029799Y019536D01*
X029799Y019383D02*
X029492Y019383D01*
X029339Y019229D01*
X029492Y019076D01*
X029799Y019076D01*
X029722Y018923D02*
X029799Y018846D01*
X029799Y018692D01*
X029722Y018616D01*
X029416Y018616D01*
X029339Y018692D01*
X029339Y018846D01*
X029416Y018923D01*
X029569Y019076D02*
X029569Y019383D01*
X020819Y026344D02*
X020512Y026651D01*
X020436Y026651D01*
X020359Y026574D01*
X020359Y026420D01*
X020436Y026344D01*
X020819Y026344D02*
X020819Y026651D01*
X020742Y026804D02*
X020819Y026881D01*
X020819Y027034D01*
X020742Y027111D01*
X020589Y027111D01*
X020512Y027034D01*
X020512Y026957D01*
X020589Y026804D01*
X020359Y026804D01*
X020359Y027111D01*
X020436Y027264D02*
X020359Y027341D01*
X020359Y027495D01*
X020436Y027571D01*
X020512Y027571D01*
X020589Y027495D01*
X020666Y027571D01*
X020742Y027571D01*
X020819Y027495D01*
X020819Y027341D01*
X020742Y027264D01*
X020589Y027418D02*
X020589Y027495D01*
X020589Y027725D02*
X020589Y028032D01*
X020589Y028185D02*
X020589Y028492D01*
X020819Y027955D02*
X020359Y027955D01*
X020589Y027725D01*
X020819Y029344D02*
X020359Y029344D01*
X020512Y029497D01*
X020359Y029651D01*
X020819Y029651D01*
X020742Y029804D02*
X020819Y029881D01*
X020819Y030034D01*
X020742Y030111D01*
X020436Y030111D01*
X020359Y030034D01*
X020359Y029881D01*
X020436Y029804D01*
X020742Y029804D01*
X020359Y030264D02*
X020359Y030571D01*
X020359Y030418D02*
X020819Y030418D01*
X020742Y030725D02*
X020819Y030802D01*
X020819Y030955D01*
X020742Y031032D01*
X020436Y031032D01*
X020359Y030955D01*
X020359Y030802D01*
X020436Y030725D01*
X020742Y030725D01*
X020666Y031185D02*
X020666Y031415D01*
X020589Y031492D01*
X020436Y031492D01*
X020359Y031415D01*
X020359Y031185D01*
X020819Y031185D01*
X020666Y031339D02*
X020819Y031492D01*
X024374Y034968D02*
X024374Y035429D01*
X024451Y035199D02*
X024681Y034968D01*
X024835Y035045D02*
X024911Y034968D01*
X025065Y034968D01*
X025142Y035045D01*
X025142Y035429D01*
X025295Y035352D02*
X025295Y035275D01*
X025372Y035199D01*
X025525Y035199D01*
X025602Y035122D01*
X025602Y035045D01*
X025525Y034968D01*
X025372Y034968D01*
X025295Y035045D01*
X025295Y035352D02*
X025372Y035429D01*
X025525Y035429D01*
X025602Y035352D01*
X025755Y035429D02*
X025986Y035429D01*
X026062Y035352D01*
X026062Y035275D01*
X025986Y035199D01*
X025755Y035199D01*
X025755Y035429D02*
X025755Y034968D01*
X025986Y034968D01*
X026062Y035045D01*
X026062Y035122D01*
X025986Y035199D01*
X026216Y035122D02*
X026216Y035429D01*
X026523Y035429D02*
X026523Y035122D01*
X026369Y034968D01*
X026216Y035122D01*
X026676Y034968D02*
X026983Y035429D01*
X026974Y035723D02*
X025423Y035723D01*
X025423Y035724D02*
X025408Y035726D01*
X025394Y035731D01*
X025381Y035739D01*
X025371Y035749D01*
X025363Y035762D01*
X025358Y035776D01*
X025356Y035791D01*
X025355Y035791D02*
X025355Y035951D01*
X025119Y035951D01*
X025178Y036111D02*
X025979Y036111D01*
X026013Y036052D01*
X026013Y035951D01*
X026014Y035938D01*
X026019Y035925D01*
X026026Y035914D01*
X026035Y035905D01*
X026046Y035898D01*
X026059Y035893D01*
X026072Y035892D01*
X026713Y035892D01*
X026720Y035893D01*
X026725Y035897D01*
X026729Y035902D01*
X026730Y035909D01*
X026730Y036052D01*
X026629Y036229D01*
X026561Y036010D01*
X026198Y036010D01*
X026123Y036255D01*
X026114Y036263D02*
X026637Y036263D01*
X026772Y036111D01*
X026730Y036052D01*
X026772Y036111D02*
X027075Y036111D01*
X028307Y036111D01*
X028340Y036077D01*
X028340Y035900D01*
X029057Y035900D01*
X029057Y036061D01*
X028956Y036246D01*
X028964Y036255D02*
X028880Y036027D01*
X028509Y036027D01*
X028458Y036255D01*
X028349Y036052D01*
X028307Y036111D02*
X028441Y036271D01*
X028973Y036271D01*
X029108Y036111D01*
X029732Y036111D01*
X029732Y035951D01*
X029968Y035951D01*
X029909Y036111D02*
X029732Y036111D01*
X029732Y035951D02*
X029732Y035808D01*
X029731Y035808D02*
X029729Y035792D01*
X029725Y035776D01*
X029717Y035761D01*
X029706Y035749D01*
X029694Y035738D01*
X029679Y035730D01*
X029663Y035726D01*
X029647Y035724D01*
X029647Y035723D02*
X028087Y035723D01*
X028072Y035724D01*
X028058Y035729D01*
X028045Y035736D01*
X028033Y035745D01*
X028024Y035757D01*
X028017Y035770D01*
X028012Y035784D01*
X028011Y035799D01*
X028011Y035951D01*
X027084Y035951D01*
X027075Y035825D02*
X027075Y036111D01*
X027075Y035825D02*
X027073Y035807D01*
X027069Y035790D01*
X027061Y035775D01*
X027051Y035760D01*
X027039Y035748D01*
X027025Y035738D01*
X027009Y035730D01*
X026992Y035726D01*
X026974Y035724D01*
X026676Y035429D02*
X026983Y034968D01*
X028011Y035951D02*
X028011Y036111D01*
X029057Y036061D02*
X029108Y036111D01*
X029495Y036389D02*
X029523Y036391D01*
X029550Y036396D01*
X029576Y036405D01*
X029601Y036417D01*
X029623Y036433D01*
X029644Y036451D01*
X029662Y036472D01*
X029678Y036495D01*
X029690Y036519D01*
X029699Y036545D01*
X029704Y036572D01*
X029706Y036600D01*
X029706Y037106D01*
X029698Y037106D01*
X029512Y036954D01*
X029512Y036592D01*
X029647Y036474D01*
X029985Y036347D02*
X030271Y036347D01*
X030290Y036349D01*
X030309Y036354D01*
X030326Y036362D01*
X030342Y036373D01*
X030355Y036386D01*
X030366Y036402D01*
X030374Y036419D01*
X030379Y036438D01*
X030381Y036457D01*
X030145Y036339D02*
X030145Y036128D01*
X030143Y036103D01*
X030138Y036078D01*
X030129Y036054D01*
X030117Y036032D01*
X030102Y036012D01*
X030084Y035994D01*
X030064Y035979D01*
X030042Y035967D01*
X030018Y035958D01*
X029993Y035953D01*
X029968Y035951D01*
X029909Y036112D02*
X029924Y036114D01*
X029938Y036119D01*
X029951Y036127D01*
X029961Y036137D01*
X029969Y036150D01*
X029974Y036164D01*
X029976Y036179D01*
X029968Y036794D02*
X029867Y036904D01*
X029698Y037106D02*
X025364Y037106D01*
X025574Y036954D01*
X029512Y036954D01*
X029167Y037115D02*
X029167Y037621D01*
X028652Y037621D01*
X028652Y037115D01*
X028188Y037115D02*
X028188Y037621D01*
X027674Y037621D01*
X027674Y037123D01*
X027404Y037132D02*
X027404Y037621D01*
X026890Y037621D01*
X026890Y037115D01*
X026881Y037115D01*
X026435Y037123D02*
X026435Y037621D01*
X025912Y037621D01*
X025912Y037123D01*
X025574Y036954D02*
X025566Y036592D01*
X025440Y036482D01*
X025364Y036642D02*
X025364Y037106D01*
X025212Y036887D02*
X025102Y036786D01*
X025094Y036347D02*
X025094Y036196D01*
X024933Y036137D02*
X024935Y036111D01*
X024941Y036085D01*
X024950Y036060D01*
X024963Y036036D01*
X024978Y036015D01*
X024997Y035996D01*
X025018Y035981D01*
X025042Y035968D01*
X025067Y035959D01*
X025093Y035953D01*
X025119Y035951D01*
X025355Y035951D02*
X025355Y036111D01*
X025178Y036112D02*
X025162Y036114D01*
X025146Y036118D01*
X025131Y036126D01*
X025119Y036137D01*
X025108Y036149D01*
X025100Y036164D01*
X025096Y036180D01*
X025094Y036196D01*
X025094Y036347D02*
X024799Y036347D01*
X024799Y036348D02*
X024783Y036350D01*
X024767Y036354D01*
X024752Y036362D01*
X024740Y036373D01*
X024729Y036385D01*
X024721Y036400D01*
X024717Y036416D01*
X024715Y036432D01*
X024934Y036339D02*
X024934Y036137D01*
X024835Y035429D02*
X024835Y035045D01*
X024681Y035429D02*
X024374Y035122D01*
X026021Y036035D02*
X026123Y036212D01*
X026114Y036263D02*
X025979Y036120D01*
X025979Y036111D02*
X025979Y036111D01*
X025617Y036389D02*
X025587Y036391D01*
X025556Y036396D01*
X025527Y036405D01*
X025499Y036418D01*
X025473Y036434D01*
X025449Y036453D01*
X025428Y036474D01*
X025409Y036498D01*
X025393Y036524D01*
X025380Y036552D01*
X025371Y036581D01*
X025366Y036612D01*
X025364Y036642D01*
X025355Y038110D02*
X025355Y038430D01*
X025356Y038430D02*
X025358Y038445D01*
X025363Y038459D01*
X025371Y038472D01*
X025381Y038482D01*
X025394Y038490D01*
X025408Y038495D01*
X025423Y038497D01*
X025423Y038498D02*
X027008Y038498D01*
X027008Y038497D02*
X027023Y038495D01*
X027037Y038490D01*
X027050Y038482D01*
X027060Y038472D01*
X027068Y038459D01*
X027073Y038445D01*
X027075Y038430D01*
X027075Y038110D01*
X028011Y038110D01*
X028307Y038110D01*
X028340Y038143D01*
X028340Y038270D01*
X028341Y038283D01*
X028346Y038296D01*
X028353Y038307D01*
X028362Y038316D01*
X028373Y038323D01*
X028386Y038328D01*
X028399Y038329D01*
X029006Y038329D01*
X029019Y038327D01*
X029032Y038322D01*
X029042Y038314D01*
X029050Y038304D01*
X029055Y038291D01*
X029057Y038278D01*
X029057Y038160D01*
X029091Y038118D01*
X029732Y038118D01*
X029732Y038430D01*
X029731Y038430D02*
X029729Y038445D01*
X029724Y038459D01*
X029716Y038472D01*
X029706Y038482D01*
X029693Y038490D01*
X029679Y038495D01*
X029664Y038497D01*
X029664Y038498D02*
X028087Y038498D01*
X028072Y038497D01*
X028058Y038492D01*
X028045Y038485D01*
X028033Y038476D01*
X028024Y038464D01*
X028017Y038451D01*
X028012Y038437D01*
X028011Y038422D01*
X028011Y038270D01*
X028011Y038110D01*
X028011Y038270D02*
X027084Y038270D01*
X027075Y038110D02*
X026780Y038110D01*
X026747Y038143D01*
X026747Y038270D01*
X026746Y038283D01*
X026741Y038296D01*
X026734Y038307D01*
X026725Y038316D01*
X026714Y038323D01*
X026701Y038328D01*
X026688Y038329D01*
X026080Y038329D01*
X026067Y038327D01*
X026055Y038322D01*
X026044Y038314D01*
X026036Y038304D01*
X026031Y038291D01*
X026029Y038278D01*
X026030Y038278D02*
X026030Y038160D01*
X025996Y038118D01*
X025355Y038118D01*
X025142Y038590D02*
X024835Y038590D01*
X025142Y038897D01*
X025142Y038974D01*
X025065Y039051D01*
X024911Y039051D01*
X024835Y038974D01*
X024681Y039051D02*
X024374Y038590D01*
X024681Y038590D02*
X024374Y039051D01*
X025988Y038110D02*
X026123Y037941D01*
X026637Y037941D01*
X026780Y038110D01*
X028307Y038110D02*
X028450Y037941D01*
X028964Y037941D01*
X029099Y038110D01*
X031529Y032826D02*
X031529Y032366D01*
X031836Y032366D01*
X031990Y032366D02*
X032143Y032366D01*
X032066Y032366D02*
X032066Y032826D01*
X031990Y032826D02*
X032143Y032826D01*
X032297Y032826D02*
X032297Y032366D01*
X032527Y032366D01*
X032603Y032442D01*
X032603Y032749D01*
X032527Y032826D01*
X032297Y032826D01*
X032757Y032673D02*
X032910Y032826D01*
X033064Y032673D01*
X033064Y032366D01*
X033217Y032366D02*
X033217Y032826D01*
X033447Y032826D01*
X033524Y032749D01*
X033524Y032596D01*
X033447Y032519D01*
X033217Y032519D01*
X033371Y032519D02*
X033524Y032366D01*
X033064Y032596D02*
X032757Y032596D01*
X032757Y032673D02*
X032757Y032366D01*
X038757Y028229D02*
X038834Y028306D01*
X038987Y028306D01*
X039064Y028229D01*
X039064Y028153D01*
X038757Y027846D01*
X039064Y027846D01*
X039218Y027922D02*
X039294Y027846D01*
X039448Y027846D01*
X039525Y027922D01*
X039525Y028076D01*
X039448Y028153D01*
X039371Y028153D01*
X039218Y028076D01*
X039218Y028306D01*
X039525Y028306D01*
X039678Y028229D02*
X039755Y028306D01*
X039908Y028306D01*
X039985Y028229D01*
X039985Y028153D01*
X039908Y028076D01*
X039985Y027999D01*
X039985Y027922D01*
X039908Y027846D01*
X039755Y027846D01*
X039678Y027922D01*
X039831Y028076D02*
X039908Y028076D01*
X040138Y028076D02*
X040445Y028076D01*
X040599Y028076D02*
X040906Y028076D01*
X041297Y028153D02*
X041374Y028076D01*
X041527Y028076D01*
X041604Y027999D01*
X041604Y027922D01*
X041527Y027846D01*
X041374Y027846D01*
X041297Y027922D01*
X041297Y028153D02*
X041297Y028229D01*
X041374Y028306D01*
X041527Y028306D01*
X041604Y028229D01*
X041757Y028306D02*
X041757Y027846D01*
X042064Y027846D01*
X042218Y027846D02*
X042218Y028306D01*
X042525Y027846D01*
X042525Y028306D01*
X042678Y028229D02*
X042678Y028153D01*
X042755Y028076D01*
X042908Y028076D01*
X042985Y027999D01*
X042985Y027922D01*
X042908Y027846D01*
X042755Y027846D01*
X042678Y027922D01*
X042678Y028229D02*
X042755Y028306D01*
X042908Y028306D01*
X042985Y028229D01*
X043138Y028229D02*
X043138Y027922D01*
X043215Y027846D01*
X043369Y027846D01*
X043445Y027922D01*
X043445Y028229D01*
X043369Y028306D01*
X043215Y028306D01*
X043138Y028229D01*
X043599Y028306D02*
X043829Y028306D01*
X043906Y028229D01*
X043906Y028076D01*
X043829Y027999D01*
X043599Y027999D01*
X043752Y027999D02*
X043906Y027846D01*
X043599Y027846D02*
X043599Y028306D01*
X042064Y028306D02*
X041757Y028306D01*
X041757Y028076D02*
X041911Y028076D01*
X040369Y027846D02*
X040369Y028306D01*
X040138Y028076D01*
X013936Y037926D02*
X013782Y038079D01*
X013859Y038079D02*
X013629Y038079D01*
X013629Y037926D02*
X013629Y038386D01*
X013859Y038386D01*
X013936Y038309D01*
X013936Y038156D01*
X013859Y038079D01*
X013475Y037926D02*
X013322Y037926D01*
X013399Y037926D02*
X013399Y038386D01*
X013475Y038386D02*
X013322Y038386D01*
X013168Y038386D02*
X012861Y037926D01*
X012708Y037926D02*
X012708Y038386D01*
X012555Y038233D01*
X012401Y038386D01*
X012401Y037926D01*
X012248Y038156D02*
X012171Y038079D01*
X011941Y038079D01*
X011941Y037926D02*
X011941Y038386D01*
X012171Y038386D01*
X012248Y038309D01*
X012248Y038156D01*
X011787Y038156D02*
X011710Y038079D01*
X011480Y038079D01*
X011480Y037926D02*
X011480Y038386D01*
X011710Y038386D01*
X011787Y038309D01*
X011787Y038156D01*
X011634Y038079D02*
X011787Y037926D01*
X014525Y010886D02*
X014678Y010733D01*
X014832Y010886D01*
X014832Y010426D01*
X014985Y010502D02*
X015062Y010426D01*
X015215Y010426D01*
X015292Y010502D01*
X015292Y010809D01*
X015215Y010886D01*
X015062Y010886D01*
X014985Y010809D01*
X014985Y010502D01*
X014525Y010426D02*
X014525Y010886D01*
X015446Y010886D02*
X015753Y010886D01*
X015599Y010886D02*
X015599Y010426D01*
X015906Y010502D02*
X015906Y010809D01*
X015983Y010886D01*
X016136Y010886D01*
X016213Y010809D01*
X016213Y010502D01*
X016136Y010426D01*
X015983Y010426D01*
X015906Y010502D01*
X016366Y010426D02*
X016366Y010886D01*
X016597Y010886D01*
X016673Y010809D01*
X016673Y010656D01*
X016597Y010579D01*
X016366Y010579D01*
X016520Y010579D02*
X016673Y010426D01*
X016827Y010656D02*
X017134Y010656D01*
X017287Y010733D02*
X017364Y010656D01*
X017517Y010656D01*
X017594Y010579D01*
X017594Y010502D01*
X017517Y010426D01*
X017364Y010426D01*
X017287Y010502D01*
X017287Y010733D02*
X017287Y010809D01*
X017364Y010886D01*
X017517Y010886D01*
X017594Y010809D01*
X017748Y010886D02*
X017748Y010426D01*
X018055Y010426D01*
X018208Y010426D02*
X018208Y010886D01*
X018438Y010886D01*
X018515Y010809D01*
X018515Y010656D01*
X018438Y010579D01*
X018208Y010579D01*
X018361Y010579D02*
X018515Y010426D01*
X018668Y010579D02*
X018822Y010426D01*
X018975Y010579D01*
X018975Y010886D01*
X019129Y010809D02*
X019129Y010502D01*
X019206Y010426D01*
X019359Y010426D01*
X019436Y010502D01*
X019436Y010809D01*
X019359Y010886D01*
X019206Y010886D01*
X019129Y010809D01*
X018668Y010886D02*
X018668Y010579D01*
X018055Y010886D02*
X017748Y010886D01*
X017748Y010656D02*
X017901Y010656D01*
X018208Y008386D02*
X018208Y007926D01*
X018515Y007926D01*
X018668Y008002D02*
X018745Y007926D01*
X018899Y007926D01*
X018975Y008002D01*
X018975Y008079D01*
X018899Y008156D01*
X018745Y008156D01*
X018668Y008233D01*
X018668Y008309D01*
X018745Y008386D01*
X018899Y008386D01*
X018975Y008309D01*
X019129Y008309D02*
X019129Y008002D01*
X019206Y007926D01*
X019359Y007926D01*
X019436Y008002D01*
X019436Y008309D02*
X019359Y008386D01*
X019206Y008386D01*
X019129Y008309D01*
X018515Y008386D02*
X018208Y008386D01*
X018208Y008156D02*
X018361Y008156D01*
X018055Y008156D02*
X017748Y008156D01*
X017594Y008156D02*
X017517Y008079D01*
X017287Y008079D01*
X017287Y007926D02*
X017287Y008386D01*
X017517Y008386D01*
X017594Y008309D01*
X017594Y008156D01*
X017441Y008079D02*
X017594Y007926D01*
X017134Y008002D02*
X017134Y008309D01*
X017057Y008386D01*
X016904Y008386D01*
X016827Y008309D01*
X016827Y008002D01*
X016904Y007926D01*
X017057Y007926D01*
X017134Y008002D01*
X016673Y008386D02*
X016366Y008386D01*
X016520Y008386D02*
X016520Y007926D01*
X016213Y008002D02*
X016213Y008309D01*
X016136Y008386D01*
X015983Y008386D01*
X015906Y008309D01*
X015906Y008002D01*
X015983Y007926D01*
X016136Y007926D01*
X016213Y008002D01*
X015753Y007926D02*
X015753Y008386D01*
X015599Y008233D01*
X015446Y008386D01*
X015446Y007926D01*
X022559Y007329D02*
X022559Y007022D01*
X022636Y006946D01*
X022789Y006946D01*
X022866Y007022D01*
X022866Y007176D01*
X022713Y007176D01*
X022866Y007329D02*
X022789Y007406D01*
X022636Y007406D01*
X022559Y007329D01*
X023020Y007406D02*
X023020Y006946D01*
X023020Y007099D02*
X023250Y007099D01*
X023327Y007176D01*
X023327Y007329D01*
X023250Y007406D01*
X023020Y007406D01*
X023480Y007329D02*
X023480Y007253D01*
X023557Y007176D01*
X023710Y007176D01*
X023787Y007099D01*
X023787Y007022D01*
X023710Y006946D01*
X023557Y006946D01*
X023480Y007022D01*
X023480Y007329D02*
X023557Y007406D01*
X023710Y007406D01*
X023787Y007329D01*
X025559Y007329D02*
X025636Y007406D01*
X025789Y007406D01*
X025866Y007329D01*
X025866Y007253D01*
X025559Y006946D01*
X025866Y006946D01*
X026020Y007022D02*
X026096Y006946D01*
X026250Y006946D01*
X026327Y007022D01*
X026327Y007176D01*
X026250Y007253D01*
X026173Y007253D01*
X026020Y007176D01*
X026020Y007406D01*
X026327Y007406D01*
X026480Y007329D02*
X026557Y007406D01*
X026710Y007406D01*
X026787Y007329D01*
X026787Y007253D01*
X026710Y007176D01*
X026787Y007099D01*
X026787Y007022D01*
X026710Y006946D01*
X026557Y006946D01*
X026480Y007022D01*
X026633Y007176D02*
X026710Y007176D01*
X026940Y007176D02*
X027247Y007176D01*
X027401Y007176D02*
X027708Y007176D01*
X027171Y006946D02*
X027171Y007406D01*
X026940Y007176D01*
X030779Y007442D02*
X030856Y007366D01*
X031009Y007366D01*
X031086Y007442D01*
X031086Y007596D01*
X030933Y007596D01*
X031086Y007749D02*
X031009Y007826D01*
X030856Y007826D01*
X030779Y007749D01*
X030779Y007442D01*
X031240Y007366D02*
X031547Y007366D01*
X031700Y007442D02*
X031777Y007366D01*
X031930Y007366D01*
X032007Y007442D01*
X032007Y007749D01*
X031930Y007826D01*
X031777Y007826D01*
X031700Y007749D01*
X031700Y007442D01*
X031393Y007596D02*
X031240Y007596D01*
X031240Y007826D02*
X031240Y007366D01*
X031240Y007826D02*
X031547Y007826D01*
X054559Y007406D02*
X054713Y007253D01*
X054866Y007406D01*
X054866Y006946D01*
X055020Y006946D02*
X055020Y007253D01*
X055173Y007406D01*
X055327Y007253D01*
X055327Y006946D01*
X055480Y007022D02*
X055557Y006946D01*
X055710Y006946D01*
X055787Y007022D01*
X055787Y007099D01*
X055710Y007176D01*
X055557Y007176D01*
X055480Y007253D01*
X055480Y007329D01*
X055557Y007406D01*
X055710Y007406D01*
X055787Y007329D01*
X055940Y007406D02*
X056247Y007406D01*
X056094Y007406D02*
X056094Y006946D01*
X056401Y006946D02*
X056708Y006946D01*
X056861Y006946D02*
X056861Y007406D01*
X057091Y007406D01*
X057168Y007329D01*
X057168Y007176D01*
X057091Y007099D01*
X056861Y007099D01*
X057015Y007099D02*
X057168Y006946D01*
X057559Y006946D02*
X057866Y007253D01*
X057866Y007329D01*
X057789Y007406D01*
X057636Y007406D01*
X057559Y007329D01*
X057559Y006946D02*
X057866Y006946D01*
X058020Y007022D02*
X058096Y006946D01*
X058250Y006946D01*
X058327Y007022D01*
X058327Y007176D01*
X058250Y007253D01*
X058173Y007253D01*
X058020Y007176D01*
X058020Y007406D01*
X058327Y007406D01*
X058480Y007329D02*
X058557Y007406D01*
X058710Y007406D01*
X058787Y007329D01*
X058787Y007253D01*
X058710Y007176D01*
X058787Y007099D01*
X058787Y007022D01*
X058710Y006946D01*
X058557Y006946D01*
X058480Y007022D01*
X058633Y007176D02*
X058710Y007176D01*
X058940Y007176D02*
X059247Y007176D01*
X059401Y007176D02*
X059708Y007176D01*
X059171Y007406D02*
X058940Y007176D01*
X059171Y006946D02*
X059171Y007406D01*
X056708Y007406D02*
X056401Y007406D01*
X056401Y006946D01*
X056401Y007176D02*
X056554Y007176D01*
X055327Y007176D02*
X055020Y007176D01*
X054559Y006946D02*
X054559Y007406D01*
X072839Y018692D02*
X072916Y018616D01*
X073222Y018616D01*
X073299Y018692D01*
X073299Y018846D01*
X073222Y018923D01*
X073299Y019076D02*
X072992Y019076D01*
X072839Y019229D01*
X072992Y019383D01*
X073299Y019383D01*
X073299Y019536D02*
X072839Y019536D01*
X073299Y019843D01*
X072839Y019843D01*
X072992Y019997D02*
X072839Y020150D01*
X073299Y020150D01*
X073299Y019997D02*
X073299Y020304D01*
X073069Y019383D02*
X073069Y019076D01*
X072916Y018923D02*
X072839Y018846D01*
X072839Y018692D01*
X081382Y008177D02*
X081842Y007870D01*
X081688Y007717D02*
X081382Y007717D01*
X081382Y007870D02*
X081842Y008177D01*
X081688Y007717D02*
X081842Y007563D01*
X081688Y007410D01*
X081382Y007410D01*
X081458Y007256D02*
X081535Y007256D01*
X081612Y007179D01*
X081612Y006949D01*
X081688Y006796D02*
X081765Y006796D01*
X081842Y006719D01*
X081842Y006566D01*
X081765Y006489D01*
X081765Y006335D02*
X081382Y006335D01*
X081458Y006489D02*
X081535Y006489D01*
X081612Y006566D01*
X081612Y006719D01*
X081688Y006796D01*
X081842Y006949D02*
X081842Y007179D01*
X081765Y007256D01*
X081688Y007256D01*
X081612Y007179D01*
X081458Y007256D02*
X081382Y007179D01*
X081382Y006949D01*
X081842Y006949D01*
X081458Y006796D02*
X081382Y006719D01*
X081382Y006566D01*
X081458Y006489D01*
X081765Y006335D02*
X081842Y006259D01*
X081842Y006105D01*
X081765Y006029D01*
X081382Y006029D01*
X081382Y005875D02*
X081688Y005568D01*
X081612Y005645D02*
X081842Y005875D01*
X081842Y005568D02*
X081382Y005568D01*
X082137Y005691D02*
X082137Y007242D01*
X082139Y007257D01*
X082144Y007271D01*
X082152Y007284D01*
X082162Y007294D01*
X082175Y007302D01*
X082189Y007307D01*
X082204Y007309D01*
X082204Y007310D02*
X082365Y007310D01*
X082365Y007546D01*
X082525Y007487D02*
X082525Y006686D01*
X082466Y006652D01*
X082365Y006652D01*
X082352Y006651D01*
X082339Y006646D01*
X082328Y006639D01*
X082319Y006630D01*
X082312Y006619D01*
X082307Y006606D01*
X082306Y006593D01*
X082306Y005952D01*
X082305Y005952D02*
X082306Y005945D01*
X082310Y005940D01*
X082315Y005936D01*
X082322Y005935D01*
X082466Y005935D01*
X082643Y006036D01*
X082424Y006104D01*
X082424Y006466D01*
X082668Y006542D01*
X082677Y006551D02*
X082677Y006028D01*
X082525Y005893D01*
X082466Y005935D01*
X082525Y005893D02*
X082525Y005589D01*
X082525Y004358D01*
X082491Y004325D01*
X082314Y004325D01*
X082314Y003608D01*
X082474Y003608D01*
X082660Y003709D01*
X082668Y003701D02*
X082440Y003785D01*
X082440Y004156D01*
X082668Y004206D01*
X082466Y004316D01*
X082525Y004358D02*
X082685Y004223D01*
X082685Y003692D01*
X082525Y003557D01*
X082525Y002933D01*
X082365Y002933D01*
X082365Y002697D01*
X082525Y002756D02*
X082525Y002933D01*
X082365Y002933D02*
X082221Y002933D01*
X082221Y002934D02*
X082205Y002936D01*
X082189Y002940D01*
X082174Y002948D01*
X082162Y002959D01*
X082151Y002971D01*
X082143Y002986D01*
X082139Y003002D01*
X082137Y003018D01*
X082137Y004577D01*
X082138Y004592D01*
X082143Y004606D01*
X082150Y004619D01*
X082159Y004631D01*
X082171Y004640D01*
X082184Y004647D01*
X082198Y004652D01*
X082213Y004653D01*
X082365Y004653D01*
X082365Y005581D01*
X082238Y005589D02*
X082525Y005589D01*
X082238Y005590D02*
X082220Y005592D01*
X082203Y005596D01*
X082188Y005604D01*
X082173Y005614D01*
X082161Y005626D01*
X082151Y005641D01*
X082143Y005656D01*
X082139Y005673D01*
X082137Y005691D01*
X083528Y005775D02*
X084034Y005775D01*
X084034Y005261D01*
X083545Y005261D01*
X083537Y004991D02*
X084034Y004991D01*
X084034Y004476D01*
X083528Y004476D01*
X083528Y004013D02*
X084034Y004013D01*
X084034Y003498D01*
X083528Y003498D01*
X083368Y003152D02*
X083005Y003152D01*
X082887Y003018D01*
X083014Y002959D02*
X083520Y002959D01*
X083520Y002967D01*
X083368Y003152D01*
X083368Y007090D01*
X083005Y007099D01*
X082896Y007225D01*
X083056Y007301D02*
X083520Y007301D01*
X083368Y007090D01*
X083520Y007301D02*
X083520Y002967D01*
X083317Y002798D02*
X083208Y002697D01*
X082761Y002680D02*
X082761Y002394D01*
X082763Y002375D01*
X082768Y002356D01*
X082776Y002339D01*
X082787Y002323D01*
X082800Y002310D01*
X082816Y002299D01*
X082833Y002291D01*
X082852Y002286D01*
X082871Y002284D01*
X082752Y002520D02*
X082542Y002520D01*
X082517Y002522D01*
X082492Y002527D01*
X082468Y002536D01*
X082446Y002548D01*
X082426Y002563D01*
X082408Y002581D01*
X082393Y002601D01*
X082381Y002623D01*
X082372Y002647D01*
X082367Y002672D01*
X082365Y002697D01*
X082525Y002756D02*
X082527Y002741D01*
X082532Y002727D01*
X082540Y002714D01*
X082550Y002704D01*
X082563Y002696D01*
X082577Y002691D01*
X082592Y002689D01*
X083014Y002958D02*
X082986Y002960D01*
X082959Y002965D01*
X082933Y002974D01*
X082909Y002986D01*
X082886Y003002D01*
X082865Y003020D01*
X082847Y003041D01*
X082831Y003064D01*
X082819Y003088D01*
X082810Y003114D01*
X082805Y003141D01*
X082803Y003169D01*
X082525Y003557D02*
X082474Y003608D01*
X082525Y004653D02*
X082365Y004653D01*
X084355Y004215D02*
X084355Y003701D01*
X084523Y003566D01*
X084532Y003574D02*
X084574Y003608D01*
X084692Y003608D01*
X084692Y003607D02*
X084705Y003609D01*
X084718Y003614D01*
X084728Y003622D01*
X084736Y003633D01*
X084741Y003645D01*
X084743Y003658D01*
X084742Y003658D02*
X084742Y004266D01*
X084741Y004279D01*
X084736Y004292D01*
X084729Y004303D01*
X084720Y004312D01*
X084709Y004319D01*
X084696Y004324D01*
X084683Y004325D01*
X084557Y004325D01*
X084523Y004358D01*
X084355Y004215D01*
X084523Y004358D02*
X084523Y004653D01*
X084523Y005589D01*
X084523Y005884D01*
X084557Y005918D01*
X084683Y005918D01*
X084696Y005919D01*
X084709Y005924D01*
X084720Y005931D01*
X084729Y005940D01*
X084736Y005951D01*
X084741Y005964D01*
X084742Y005977D01*
X084742Y006584D01*
X084743Y006584D02*
X084741Y006597D01*
X084736Y006610D01*
X084728Y006620D01*
X084718Y006628D01*
X084705Y006633D01*
X084692Y006635D01*
X084574Y006635D01*
X084532Y006669D01*
X084532Y007310D01*
X084523Y007310D02*
X084844Y007310D01*
X084844Y007309D02*
X084859Y007307D01*
X084873Y007302D01*
X084886Y007294D01*
X084896Y007284D01*
X084904Y007271D01*
X084909Y007257D01*
X084911Y007242D01*
X084911Y005657D01*
X084909Y005642D01*
X084904Y005628D01*
X084896Y005615D01*
X084886Y005605D01*
X084873Y005597D01*
X084859Y005592D01*
X084844Y005590D01*
X084844Y005589D02*
X084523Y005589D01*
X084683Y005581D02*
X084683Y004653D01*
X084523Y004653D01*
X084683Y004653D02*
X084835Y004653D01*
X084850Y004652D01*
X084864Y004647D01*
X084877Y004640D01*
X084889Y004631D01*
X084898Y004619D01*
X084905Y004606D01*
X084910Y004592D01*
X084911Y004577D01*
X084911Y003001D01*
X084909Y002986D01*
X084904Y002972D01*
X084896Y002959D01*
X084886Y002949D01*
X084873Y002941D01*
X084859Y002936D01*
X084844Y002934D01*
X084844Y002933D02*
X084532Y002933D01*
X084532Y003574D01*
X084523Y005884D02*
X084355Y006028D01*
X084355Y006542D01*
X084523Y006677D01*
X084034Y006753D02*
X084034Y006230D01*
X083537Y006230D01*
X083528Y005783D02*
X083528Y005775D01*
X083537Y006753D02*
X084034Y006753D01*
X083056Y007301D02*
X083026Y007299D01*
X082995Y007294D01*
X082966Y007285D01*
X082938Y007272D01*
X082912Y007256D01*
X082888Y007237D01*
X082867Y007216D01*
X082848Y007192D01*
X082832Y007166D01*
X082819Y007138D01*
X082810Y007109D01*
X082805Y007078D01*
X082803Y007048D01*
X082525Y007310D02*
X082365Y007310D01*
X082364Y007546D02*
X082366Y007572D01*
X082372Y007598D01*
X082381Y007623D01*
X082394Y007647D01*
X082409Y007668D01*
X082428Y007687D01*
X082449Y007702D01*
X082473Y007715D01*
X082498Y007724D01*
X082524Y007730D01*
X082550Y007732D01*
X082550Y007731D02*
X082752Y007731D01*
X082761Y007866D02*
X082761Y007571D01*
X082609Y007571D01*
X082593Y007569D01*
X082577Y007565D01*
X082562Y007557D01*
X082550Y007546D01*
X082539Y007534D01*
X082531Y007519D01*
X082527Y007503D01*
X082525Y007487D01*
X082761Y007866D02*
X082763Y007882D01*
X082767Y007898D01*
X082775Y007913D01*
X082786Y007925D01*
X082798Y007936D01*
X082813Y007944D01*
X082829Y007948D01*
X082845Y007950D01*
X083199Y007563D02*
X083301Y007453D01*
X082533Y006686D02*
X082677Y006551D01*
X082626Y006542D02*
X082449Y006643D01*
X082525Y006686D02*
X082525Y006686D01*
X085004Y007410D02*
X085464Y007717D01*
X085464Y007870D02*
X085464Y008177D01*
X085464Y008024D02*
X085004Y008024D01*
X085157Y007870D01*
X085004Y007717D02*
X085464Y007410D01*
D14*
X083039Y005526D02*
X083039Y004726D01*
X082639Y005126D02*
X083439Y005126D01*
X079439Y002626D02*
X078639Y002626D01*
X079039Y002226D02*
X079039Y003026D01*
X064939Y005126D02*
X064139Y005126D01*
X064539Y004726D02*
X064539Y005526D01*
X058539Y002526D02*
X058539Y001726D01*
X058139Y002126D02*
X058939Y002126D01*
X051939Y002626D02*
X051139Y002626D01*
X051539Y002226D02*
X051539Y003026D01*
X046939Y002626D02*
X046139Y002626D01*
X046539Y002226D02*
X046539Y003026D01*
X032939Y005126D02*
X032139Y005126D01*
X032539Y004726D02*
X032539Y005526D01*
X032039Y008226D02*
X032039Y009026D01*
X031639Y008626D02*
X032439Y008626D01*
X023539Y002526D02*
X023539Y001726D01*
X023139Y002126D02*
X023939Y002126D01*
X019439Y004126D02*
X018639Y004126D01*
X019039Y003726D02*
X019039Y004526D01*
X018539Y006726D02*
X018539Y007526D01*
X018139Y007126D02*
X018939Y007126D01*
X015939Y007126D02*
X015139Y007126D01*
X015539Y006726D02*
X015539Y007526D01*
X018539Y009226D02*
X018539Y010026D01*
X018139Y009626D02*
X018939Y009626D01*
X014439Y010126D02*
X013639Y010126D01*
X014039Y009726D02*
X014039Y010526D01*
X011939Y010126D02*
X011139Y010126D01*
X011539Y009726D02*
X011539Y010526D01*
X015539Y012226D02*
X015539Y013026D01*
X015139Y012626D02*
X015939Y012626D01*
X014039Y015726D02*
X014039Y016526D01*
X013639Y016126D02*
X014439Y016126D01*
X011939Y016626D02*
X011139Y016626D01*
X011539Y016226D02*
X011539Y017026D01*
X015139Y018126D02*
X015939Y018126D01*
X015539Y017726D02*
X015539Y018526D01*
X018539Y021226D02*
X018539Y022026D01*
X018139Y021626D02*
X018939Y021626D01*
X015939Y023626D02*
X015139Y023626D01*
X015539Y023226D02*
X015539Y024026D01*
X014039Y022526D02*
X014039Y021726D01*
X013639Y022126D02*
X014439Y022126D01*
X011939Y022126D02*
X011139Y022126D01*
X011539Y021726D02*
X011539Y022526D01*
X006439Y022626D02*
X005639Y022626D01*
X006039Y022226D02*
X006039Y023026D01*
X011539Y027226D02*
X011539Y028026D01*
X011139Y027626D02*
X011939Y027626D01*
X013639Y027626D02*
X014439Y027626D01*
X014039Y027226D02*
X014039Y028026D01*
X015539Y028726D02*
X015539Y029526D01*
X015139Y029126D02*
X015939Y029126D01*
X014039Y032726D02*
X014039Y033526D01*
X013639Y033126D02*
X014439Y033126D01*
X011939Y033126D02*
X011139Y033126D01*
X011539Y032726D02*
X011539Y033526D01*
X015139Y035126D02*
X015939Y035126D01*
X015539Y034726D02*
X015539Y035526D01*
X013039Y036726D02*
X013039Y037526D01*
X012639Y037126D02*
X013439Y037126D01*
X020639Y037126D02*
X021439Y037126D01*
X021039Y036726D02*
X021039Y037526D01*
X027139Y036626D02*
X027939Y036626D01*
X027539Y036226D02*
X027539Y037026D01*
X032139Y033626D02*
X032939Y033626D01*
X032539Y033226D02*
X032539Y034026D01*
X036039Y036726D02*
X036039Y037526D01*
X035639Y037126D02*
X036439Y037126D01*
X041639Y033626D02*
X042439Y033626D01*
X042039Y033226D02*
X042039Y034026D01*
X046139Y033626D02*
X046939Y033626D01*
X046539Y033226D02*
X046539Y034026D01*
X045039Y036726D02*
X045039Y037526D01*
X044639Y037126D02*
X045439Y037126D01*
X051639Y037126D02*
X052439Y037126D01*
X052039Y036726D02*
X052039Y037526D01*
X064639Y032126D02*
X065439Y032126D01*
X065039Y031726D02*
X065039Y032526D01*
X064539Y028026D02*
X064539Y027226D01*
X064139Y027626D02*
X064939Y027626D01*
X075639Y022126D02*
X076439Y022126D01*
X076039Y021726D02*
X076039Y022526D01*
X072039Y020026D02*
X072039Y019226D01*
X071639Y019626D02*
X072439Y019626D01*
X080039Y025226D02*
X080039Y026026D01*
X079639Y025626D02*
X080439Y025626D01*
X060439Y019626D02*
X059639Y019626D01*
X060039Y019226D02*
X060039Y020026D01*
X049939Y019626D02*
X049139Y019626D01*
X049539Y019226D02*
X049539Y020026D01*
X038939Y019626D02*
X038139Y019626D01*
X038539Y019226D02*
X038539Y020026D01*
X028939Y019626D02*
X028139Y019626D01*
X028539Y019226D02*
X028539Y020026D01*
X024439Y022126D02*
X023639Y022126D01*
X024039Y021726D02*
X024039Y022526D01*
X034039Y029726D02*
X034039Y030526D01*
X033639Y030126D02*
X034439Y030126D01*
X006439Y028126D02*
X005639Y028126D01*
X006039Y027726D02*
X006039Y028526D01*
X006039Y033726D02*
X006039Y034526D01*
X005639Y034126D02*
X006439Y034126D01*
X006039Y017526D02*
X006039Y016726D01*
X005639Y017126D02*
X006439Y017126D01*
X006039Y012026D02*
X006039Y011226D01*
X005639Y011626D02*
X006439Y011626D01*
X006039Y006026D02*
X006039Y005226D01*
X005639Y005626D02*
X006439Y005626D01*
X011139Y004626D02*
X011939Y004626D01*
X011539Y004226D02*
X011539Y005026D01*
X013639Y004626D02*
X014439Y004626D01*
X014039Y004226D02*
X014039Y005026D01*
X070139Y012626D02*
X070939Y012626D01*
X070539Y012226D02*
X070539Y013026D01*
X073139Y012126D02*
X073939Y012126D01*
X073539Y011726D02*
X073539Y012526D01*
X076139Y012626D02*
X076939Y012626D01*
X076539Y012226D02*
X076539Y013026D01*
X082139Y013626D02*
X082939Y013626D01*
X082539Y013226D02*
X082539Y014026D01*
X078039Y036226D02*
X078039Y037026D01*
X077639Y036626D02*
X078439Y036626D01*
D15*
X078128Y037615D02*
X078173Y037665D01*
X078222Y037712D01*
X078273Y037757D01*
X078326Y037798D01*
X078382Y037837D01*
X078440Y037872D01*
X078500Y037904D01*
X078561Y037932D01*
X078625Y037957D01*
X078689Y037978D01*
X078754Y037995D01*
X078821Y038009D01*
X078888Y038018D01*
X078955Y038024D01*
X079023Y038026D01*
X078123Y037626D02*
X077923Y037626D01*
X077915Y037619D02*
X077869Y037668D01*
X077821Y037715D01*
X077770Y037760D01*
X077717Y037801D01*
X077661Y037839D01*
X077603Y037874D01*
X077544Y037905D01*
X077482Y037933D01*
X077419Y037957D01*
X077355Y037978D01*
X077290Y037995D01*
X077224Y038009D01*
X077157Y038018D01*
X077090Y038024D01*
X077023Y038026D01*
X076123Y037626D02*
X076023Y037626D01*
X076023Y035376D01*
X080023Y035376D01*
X080023Y037626D01*
X079923Y037626D01*
X080273Y038126D02*
X075773Y038126D01*
X075773Y035126D01*
X075773Y034876D01*
X075773Y035126D02*
X080273Y035126D01*
X080273Y034876D01*
X080273Y035126D02*
X080273Y038126D01*
X079915Y037619D02*
X079869Y037668D01*
X079821Y037715D01*
X079770Y037760D01*
X079717Y037801D01*
X079661Y037839D01*
X079603Y037874D01*
X079544Y037905D01*
X079482Y037933D01*
X079420Y037957D01*
X079355Y037978D01*
X079290Y037995D01*
X079224Y038009D01*
X079158Y038018D01*
X079090Y038024D01*
X079023Y038026D01*
X077023Y038026D02*
X076955Y038024D01*
X076888Y038018D01*
X076821Y038009D01*
X076754Y037995D01*
X076689Y037978D01*
X076625Y037957D01*
X076561Y037932D01*
X076500Y037904D01*
X076440Y037872D01*
X076382Y037837D01*
X076326Y037798D01*
X076273Y037757D01*
X076222Y037712D01*
X076173Y037665D01*
X076128Y037615D01*
X075773Y034626D02*
X075773Y032876D01*
X075773Y032626D02*
X075773Y032126D01*
X076023Y032126D01*
X076273Y032126D02*
X078023Y032126D01*
X078273Y032126D02*
X079773Y032126D01*
X080023Y032126D02*
X080273Y032126D01*
X080273Y032626D01*
X080273Y032876D02*
X080273Y034626D01*
X079039Y031726D02*
X082989Y031726D01*
X083039Y031726D01*
X084239Y031726D01*
X084439Y031726D01*
X084439Y030726D01*
X084439Y029726D01*
X084439Y021526D01*
X084239Y021526D01*
X084239Y021576D01*
X083289Y021576D01*
X083259Y021578D01*
X083229Y021583D01*
X083200Y021592D01*
X083173Y021605D01*
X083147Y021620D01*
X083123Y021639D01*
X083102Y021660D01*
X083083Y021684D01*
X083068Y021710D01*
X083055Y021737D01*
X083046Y021766D01*
X083041Y021796D01*
X083039Y021826D01*
X083039Y021876D02*
X078989Y021876D01*
X078789Y021676D01*
X078789Y019726D01*
X078989Y019526D01*
X082989Y019526D01*
X083039Y019526D01*
X083039Y021526D01*
X083039Y021876D01*
X083039Y021976D01*
X082739Y021976D01*
X082739Y029276D01*
X083039Y029276D01*
X083039Y021976D01*
X084439Y021526D02*
X084439Y020526D01*
X084439Y019526D01*
X084239Y019526D01*
X083039Y019526D01*
X084439Y019526D02*
X084639Y019526D01*
X084639Y022576D01*
X084639Y028676D01*
X084639Y031726D01*
X084439Y031726D01*
X083039Y031726D02*
X083039Y029726D01*
X083039Y029376D01*
X078989Y029376D01*
X078789Y029576D01*
X078789Y031476D01*
X079039Y031726D01*
X079389Y030556D02*
X079391Y030606D01*
X079397Y030656D01*
X079407Y030706D01*
X079420Y030754D01*
X079437Y030802D01*
X079458Y030848D01*
X079482Y030892D01*
X079510Y030934D01*
X079541Y030974D01*
X079575Y031011D01*
X079612Y031046D01*
X079651Y031077D01*
X079692Y031106D01*
X079736Y031131D01*
X079782Y031153D01*
X079829Y031171D01*
X079877Y031185D01*
X079926Y031196D01*
X079976Y031203D01*
X080026Y031206D01*
X080077Y031205D01*
X080127Y031200D01*
X080177Y031191D01*
X080225Y031179D01*
X080273Y031162D01*
X080319Y031142D01*
X080364Y031119D01*
X080407Y031092D01*
X080447Y031062D01*
X080485Y031029D01*
X080520Y030993D01*
X080553Y030954D01*
X080582Y030913D01*
X080608Y030870D01*
X080631Y030825D01*
X080650Y030778D01*
X080665Y030730D01*
X080677Y030681D01*
X080685Y030631D01*
X080689Y030581D01*
X080689Y030531D01*
X080685Y030481D01*
X080677Y030431D01*
X080665Y030382D01*
X080650Y030334D01*
X080631Y030287D01*
X080608Y030242D01*
X080582Y030199D01*
X080553Y030158D01*
X080520Y030119D01*
X080485Y030083D01*
X080447Y030050D01*
X080407Y030020D01*
X080364Y029993D01*
X080319Y029970D01*
X080273Y029950D01*
X080225Y029933D01*
X080177Y029921D01*
X080127Y029912D01*
X080077Y029907D01*
X080026Y029906D01*
X079976Y029909D01*
X079926Y029916D01*
X079877Y029927D01*
X079829Y029941D01*
X079782Y029959D01*
X079736Y029981D01*
X079692Y030006D01*
X079651Y030035D01*
X079612Y030066D01*
X079575Y030101D01*
X079541Y030138D01*
X079510Y030178D01*
X079482Y030220D01*
X079458Y030264D01*
X079437Y030310D01*
X079420Y030358D01*
X079407Y030406D01*
X079397Y030456D01*
X079391Y030506D01*
X079389Y030556D01*
X083039Y029376D02*
X083039Y029276D01*
X083039Y029426D02*
X083041Y029456D01*
X083046Y029486D01*
X083055Y029515D01*
X083068Y029542D01*
X083083Y029568D01*
X083102Y029592D01*
X083123Y029613D01*
X083147Y029632D01*
X083173Y029647D01*
X083200Y029660D01*
X083229Y029669D01*
X083259Y029674D01*
X083289Y029676D01*
X084239Y029676D01*
X084239Y029726D01*
X084439Y029726D01*
X084639Y029076D02*
X084641Y029046D01*
X084646Y029016D01*
X084655Y028987D01*
X084668Y028960D01*
X084683Y028934D01*
X084702Y028910D01*
X084723Y028889D01*
X084747Y028870D01*
X084773Y028855D01*
X084800Y028842D01*
X084829Y028833D01*
X084859Y028828D01*
X084889Y028826D01*
X086889Y028826D01*
X086915Y028824D01*
X086941Y028819D01*
X086966Y028811D01*
X086989Y028799D01*
X087011Y028785D01*
X087030Y028767D01*
X087048Y028748D01*
X087062Y028726D01*
X087074Y028703D01*
X087082Y028678D01*
X087087Y028652D01*
X087089Y028626D01*
X087089Y028526D01*
X087089Y022726D01*
X087089Y022626D01*
X087087Y022600D01*
X087082Y022574D01*
X087074Y022549D01*
X087062Y022526D01*
X087048Y022504D01*
X087030Y022485D01*
X087011Y022467D01*
X086989Y022453D01*
X086966Y022441D01*
X086941Y022433D01*
X086915Y022428D01*
X086889Y022426D01*
X084889Y022426D01*
X084859Y022424D01*
X084829Y022419D01*
X084800Y022410D01*
X084773Y022397D01*
X084747Y022382D01*
X084723Y022363D01*
X084702Y022342D01*
X084683Y022318D01*
X084668Y022292D01*
X084655Y022265D01*
X084646Y022236D01*
X084641Y022206D01*
X084639Y022176D01*
X079389Y020696D02*
X079391Y020746D01*
X079397Y020796D01*
X079407Y020846D01*
X079420Y020894D01*
X079437Y020942D01*
X079458Y020988D01*
X079482Y021032D01*
X079510Y021074D01*
X079541Y021114D01*
X079575Y021151D01*
X079612Y021186D01*
X079651Y021217D01*
X079692Y021246D01*
X079736Y021271D01*
X079782Y021293D01*
X079829Y021311D01*
X079877Y021325D01*
X079926Y021336D01*
X079976Y021343D01*
X080026Y021346D01*
X080077Y021345D01*
X080127Y021340D01*
X080177Y021331D01*
X080225Y021319D01*
X080273Y021302D01*
X080319Y021282D01*
X080364Y021259D01*
X080407Y021232D01*
X080447Y021202D01*
X080485Y021169D01*
X080520Y021133D01*
X080553Y021094D01*
X080582Y021053D01*
X080608Y021010D01*
X080631Y020965D01*
X080650Y020918D01*
X080665Y020870D01*
X080677Y020821D01*
X080685Y020771D01*
X080689Y020721D01*
X080689Y020671D01*
X080685Y020621D01*
X080677Y020571D01*
X080665Y020522D01*
X080650Y020474D01*
X080631Y020427D01*
X080608Y020382D01*
X080582Y020339D01*
X080553Y020298D01*
X080520Y020259D01*
X080485Y020223D01*
X080447Y020190D01*
X080407Y020160D01*
X080364Y020133D01*
X080319Y020110D01*
X080273Y020090D01*
X080225Y020073D01*
X080177Y020061D01*
X080127Y020052D01*
X080077Y020047D01*
X080026Y020046D01*
X079976Y020049D01*
X079926Y020056D01*
X079877Y020067D01*
X079829Y020081D01*
X079782Y020099D01*
X079736Y020121D01*
X079692Y020146D01*
X079651Y020175D01*
X079612Y020206D01*
X079575Y020241D01*
X079541Y020278D01*
X079510Y020318D01*
X079482Y020360D01*
X079458Y020404D01*
X079437Y020450D01*
X079420Y020498D01*
X079407Y020546D01*
X079397Y020596D01*
X079391Y020646D01*
X079389Y020696D01*
X076489Y020976D02*
X076489Y021126D01*
X076439Y021176D01*
X076439Y023076D01*
X076489Y023126D01*
X076489Y023276D01*
X076487Y023293D01*
X076483Y023310D01*
X076476Y023326D01*
X076466Y023340D01*
X076453Y023353D01*
X076439Y023363D01*
X076423Y023370D01*
X076406Y023374D01*
X076389Y023376D01*
X075689Y023376D01*
X075672Y023374D01*
X075655Y023370D01*
X075639Y023363D01*
X075625Y023353D01*
X075612Y023340D01*
X075602Y023326D01*
X075595Y023310D01*
X075591Y023293D01*
X075589Y023276D01*
X075589Y023126D01*
X075639Y023076D01*
X075639Y021176D01*
X075589Y021126D01*
X075589Y020976D01*
X075591Y020959D01*
X075595Y020942D01*
X075602Y020926D01*
X075612Y020912D01*
X075625Y020899D01*
X075639Y020889D01*
X075655Y020882D01*
X075672Y020878D01*
X075689Y020876D01*
X076389Y020876D01*
X076406Y020878D01*
X076423Y020882D01*
X076439Y020889D01*
X076453Y020899D01*
X076466Y020912D01*
X076476Y020926D01*
X076483Y020942D01*
X076487Y020959D01*
X076489Y020976D01*
X072539Y022626D02*
X072539Y016626D01*
X071539Y016626D01*
X071289Y016626D01*
X071289Y022626D01*
X071539Y022626D01*
X072539Y022626D01*
X071539Y022626D02*
X071539Y016626D01*
X074969Y015006D02*
X074969Y013606D01*
X074839Y013526D01*
X074839Y011726D01*
X074959Y011646D01*
X074959Y010246D01*
X075209Y009996D01*
X077869Y009996D01*
X078119Y010246D01*
X078119Y011646D01*
X078239Y011726D01*
X078239Y013526D01*
X078109Y013616D01*
X078109Y015006D01*
X077859Y015256D01*
X075219Y015256D01*
X074969Y015006D01*
X073889Y013376D02*
X073189Y013376D01*
X073172Y013374D01*
X073155Y013370D01*
X073139Y013363D01*
X073125Y013353D01*
X073112Y013340D01*
X073102Y013326D01*
X073095Y013310D01*
X073091Y013293D01*
X073089Y013276D01*
X073089Y013126D01*
X073139Y013076D01*
X073139Y011176D01*
X073089Y011126D01*
X073089Y010976D01*
X073091Y010959D01*
X073095Y010942D01*
X073102Y010926D01*
X073112Y010912D01*
X073125Y010899D01*
X073139Y010889D01*
X073155Y010882D01*
X073172Y010878D01*
X073189Y010876D01*
X073889Y010876D01*
X073906Y010878D01*
X073923Y010882D01*
X073939Y010889D01*
X073953Y010899D01*
X073966Y010912D01*
X073976Y010926D01*
X073983Y010942D01*
X073987Y010959D01*
X073989Y010976D01*
X073989Y011126D01*
X073939Y011176D01*
X073939Y013076D01*
X073989Y013126D01*
X073989Y013276D01*
X073987Y013293D01*
X073983Y013310D01*
X073976Y013326D01*
X073966Y013340D01*
X073953Y013353D01*
X073939Y013363D01*
X073923Y013370D01*
X073906Y013374D01*
X073889Y013376D01*
X069539Y012626D02*
X069541Y012689D01*
X069547Y012751D01*
X069557Y012813D01*
X069570Y012875D01*
X069588Y012935D01*
X069609Y012994D01*
X069634Y013052D01*
X069663Y013108D01*
X069695Y013162D01*
X069730Y013214D01*
X069768Y013263D01*
X069810Y013311D01*
X069854Y013355D01*
X069902Y013397D01*
X069951Y013435D01*
X070003Y013470D01*
X070057Y013502D01*
X070113Y013531D01*
X070171Y013556D01*
X070230Y013577D01*
X070290Y013595D01*
X070352Y013608D01*
X070414Y013618D01*
X070476Y013624D01*
X070539Y013626D01*
X070602Y013624D01*
X070664Y013618D01*
X070726Y013608D01*
X070788Y013595D01*
X070848Y013577D01*
X070907Y013556D01*
X070965Y013531D01*
X071021Y013502D01*
X071075Y013470D01*
X071127Y013435D01*
X071176Y013397D01*
X071224Y013355D01*
X071268Y013311D01*
X071310Y013263D01*
X071348Y013214D01*
X071383Y013162D01*
X071415Y013108D01*
X071444Y013052D01*
X071469Y012994D01*
X071490Y012935D01*
X071508Y012875D01*
X071521Y012813D01*
X071531Y012751D01*
X071537Y012689D01*
X071539Y012626D01*
X071537Y012563D01*
X071531Y012501D01*
X071521Y012439D01*
X071508Y012377D01*
X071490Y012317D01*
X071469Y012258D01*
X071444Y012200D01*
X071415Y012144D01*
X071383Y012090D01*
X071348Y012038D01*
X071310Y011989D01*
X071268Y011941D01*
X071224Y011897D01*
X071176Y011855D01*
X071127Y011817D01*
X071075Y011782D01*
X071021Y011750D01*
X070965Y011721D01*
X070907Y011696D01*
X070848Y011675D01*
X070788Y011657D01*
X070726Y011644D01*
X070664Y011634D01*
X070602Y011628D01*
X070539Y011626D01*
X070476Y011628D01*
X070414Y011634D01*
X070352Y011644D01*
X070290Y011657D01*
X070230Y011675D01*
X070171Y011696D01*
X070113Y011721D01*
X070057Y011750D01*
X070003Y011782D01*
X069951Y011817D01*
X069902Y011855D01*
X069854Y011897D01*
X069810Y011941D01*
X069768Y011989D01*
X069730Y012038D01*
X069695Y012090D01*
X069663Y012144D01*
X069634Y012200D01*
X069609Y012258D01*
X069588Y012317D01*
X069570Y012377D01*
X069557Y012439D01*
X069547Y012501D01*
X069541Y012563D01*
X069539Y012626D01*
X060539Y016626D02*
X060539Y022626D01*
X059539Y022626D01*
X059289Y022626D01*
X059289Y016626D01*
X059539Y016626D01*
X059539Y022626D01*
X061539Y027126D02*
X067539Y027126D01*
X067539Y028126D01*
X067539Y028376D01*
X061539Y028376D01*
X061539Y028126D01*
X067539Y028126D01*
X061539Y028126D02*
X061539Y027126D01*
X054273Y032626D02*
X054023Y032626D01*
X053773Y032626D02*
X052273Y032626D01*
X052023Y032626D02*
X050273Y032626D01*
X050023Y032626D02*
X049773Y032626D01*
X049773Y033126D01*
X049773Y033376D02*
X049773Y035126D01*
X049773Y035376D02*
X049773Y035626D01*
X054273Y035626D01*
X054273Y035376D01*
X054273Y035626D02*
X054273Y038626D01*
X049773Y038626D01*
X049773Y035626D01*
X050023Y035876D02*
X050023Y038126D01*
X050123Y038126D01*
X050128Y038115D02*
X050173Y038165D01*
X050222Y038212D01*
X050273Y038257D01*
X050326Y038298D01*
X050382Y038337D01*
X050440Y038372D01*
X050500Y038404D01*
X050561Y038432D01*
X050625Y038457D01*
X050689Y038478D01*
X050754Y038495D01*
X050821Y038509D01*
X050888Y038518D01*
X050955Y038524D01*
X051023Y038526D01*
X051923Y038126D02*
X052123Y038126D01*
X052128Y038115D02*
X052173Y038165D01*
X052222Y038212D01*
X052273Y038257D01*
X052326Y038298D01*
X052382Y038337D01*
X052440Y038372D01*
X052500Y038404D01*
X052561Y038432D01*
X052625Y038457D01*
X052689Y038478D01*
X052754Y038495D01*
X052821Y038509D01*
X052888Y038518D01*
X052955Y038524D01*
X053023Y038526D01*
X053923Y038126D02*
X054023Y038126D01*
X054023Y035876D01*
X050023Y035876D01*
X051023Y038526D02*
X051090Y038524D01*
X051157Y038518D01*
X051224Y038509D01*
X051290Y038495D01*
X051355Y038478D01*
X051419Y038457D01*
X051482Y038433D01*
X051544Y038405D01*
X051603Y038374D01*
X051661Y038339D01*
X051717Y038301D01*
X051770Y038260D01*
X051821Y038215D01*
X051869Y038168D01*
X051915Y038119D01*
X053023Y038526D02*
X053090Y038524D01*
X053158Y038518D01*
X053224Y038509D01*
X053290Y038495D01*
X053355Y038478D01*
X053420Y038457D01*
X053482Y038433D01*
X053544Y038405D01*
X053603Y038374D01*
X053661Y038339D01*
X053717Y038301D01*
X053770Y038260D01*
X053821Y038215D01*
X053869Y038168D01*
X053915Y038119D01*
X054273Y035126D02*
X054273Y033376D01*
X054273Y033126D02*
X054273Y032626D01*
X047789Y033276D02*
X047789Y033976D01*
X047787Y033993D01*
X047783Y034010D01*
X047776Y034026D01*
X047766Y034040D01*
X047753Y034053D01*
X047739Y034063D01*
X047723Y034070D01*
X047706Y034074D01*
X047689Y034076D01*
X047539Y034076D01*
X047489Y034026D01*
X045589Y034026D01*
X045539Y034076D01*
X045389Y034076D01*
X045372Y034074D01*
X045355Y034070D01*
X045339Y034063D01*
X045325Y034053D01*
X045312Y034040D01*
X045302Y034026D01*
X045295Y034010D01*
X045291Y033993D01*
X045289Y033976D01*
X045289Y033276D01*
X045291Y033259D01*
X045295Y033242D01*
X045302Y033226D01*
X045312Y033212D01*
X045325Y033199D01*
X045339Y033189D01*
X045355Y033182D01*
X045372Y033178D01*
X045389Y033176D01*
X045539Y033176D01*
X045589Y033226D01*
X047489Y033226D01*
X047539Y033176D01*
X047689Y033176D01*
X047706Y033178D01*
X047723Y033182D01*
X047739Y033189D01*
X047753Y033199D01*
X047766Y033212D01*
X047776Y033226D01*
X047783Y033242D01*
X047787Y033259D01*
X047789Y033276D01*
X047419Y035546D02*
X046019Y035546D01*
X045939Y035426D01*
X044139Y035426D01*
X044059Y035556D01*
X042659Y035556D01*
X042409Y035806D01*
X042409Y038446D01*
X042659Y038696D01*
X044049Y038696D01*
X044139Y038826D01*
X045939Y038826D01*
X046019Y038706D01*
X047419Y038706D01*
X047669Y038456D01*
X047669Y035796D01*
X047419Y035546D01*
X041039Y033626D02*
X041041Y033689D01*
X041047Y033751D01*
X041057Y033813D01*
X041070Y033875D01*
X041088Y033935D01*
X041109Y033994D01*
X041134Y034052D01*
X041163Y034108D01*
X041195Y034162D01*
X041230Y034214D01*
X041268Y034263D01*
X041310Y034311D01*
X041354Y034355D01*
X041402Y034397D01*
X041451Y034435D01*
X041503Y034470D01*
X041557Y034502D01*
X041613Y034531D01*
X041671Y034556D01*
X041730Y034577D01*
X041790Y034595D01*
X041852Y034608D01*
X041914Y034618D01*
X041976Y034624D01*
X042039Y034626D01*
X042102Y034624D01*
X042164Y034618D01*
X042226Y034608D01*
X042288Y034595D01*
X042348Y034577D01*
X042407Y034556D01*
X042465Y034531D01*
X042521Y034502D01*
X042575Y034470D01*
X042627Y034435D01*
X042676Y034397D01*
X042724Y034355D01*
X042768Y034311D01*
X042810Y034263D01*
X042848Y034214D01*
X042883Y034162D01*
X042915Y034108D01*
X042944Y034052D01*
X042969Y033994D01*
X042990Y033935D01*
X043008Y033875D01*
X043021Y033813D01*
X043031Y033751D01*
X043037Y033689D01*
X043039Y033626D01*
X043037Y033563D01*
X043031Y033501D01*
X043021Y033439D01*
X043008Y033377D01*
X042990Y033317D01*
X042969Y033258D01*
X042944Y033200D01*
X042915Y033144D01*
X042883Y033090D01*
X042848Y033038D01*
X042810Y032989D01*
X042768Y032941D01*
X042724Y032897D01*
X042676Y032855D01*
X042627Y032817D01*
X042575Y032782D01*
X042521Y032750D01*
X042465Y032721D01*
X042407Y032696D01*
X042348Y032675D01*
X042288Y032657D01*
X042226Y032644D01*
X042164Y032634D01*
X042102Y032628D01*
X042039Y032626D01*
X041976Y032628D01*
X041914Y032634D01*
X041852Y032644D01*
X041790Y032657D01*
X041730Y032675D01*
X041671Y032696D01*
X041613Y032721D01*
X041557Y032750D01*
X041503Y032782D01*
X041451Y032817D01*
X041402Y032855D01*
X041354Y032897D01*
X041310Y032941D01*
X041268Y032989D01*
X041230Y033038D01*
X041195Y033090D01*
X041163Y033144D01*
X041134Y033200D01*
X041109Y033258D01*
X041088Y033317D01*
X041070Y033377D01*
X041057Y033439D01*
X041047Y033501D01*
X041041Y033563D01*
X041039Y033626D01*
X040989Y035576D02*
X040989Y036476D01*
X040289Y036126D02*
X038289Y036126D01*
X038289Y035676D01*
X040289Y035676D01*
X040289Y036126D01*
X040989Y035576D02*
X031089Y035576D01*
X031089Y036476D01*
X031539Y036326D02*
X031539Y035676D01*
X031789Y035676D01*
X033789Y035676D01*
X033789Y036126D01*
X031789Y036126D01*
X031789Y035876D01*
X031639Y035876D01*
X031639Y036326D01*
X031789Y035876D02*
X031789Y035676D01*
X030039Y034376D02*
X035039Y034376D01*
X035039Y034126D01*
X035039Y033126D01*
X030039Y033126D01*
X030039Y034126D01*
X030039Y034376D01*
X030039Y034126D02*
X035039Y034126D01*
X031089Y037776D02*
X031089Y038676D01*
X040989Y038676D01*
X040989Y037776D01*
X040539Y037926D02*
X040539Y038576D01*
X040289Y038576D01*
X038289Y038576D01*
X038289Y038126D01*
X040289Y038126D01*
X040289Y038376D01*
X040439Y038376D01*
X040439Y037926D01*
X040289Y038376D02*
X040289Y038576D01*
X033789Y038576D02*
X033789Y038126D01*
X031789Y038126D01*
X031789Y038576D01*
X033789Y038576D01*
X023273Y038626D02*
X023273Y035626D01*
X023273Y035376D01*
X023273Y035626D02*
X018773Y035626D01*
X018773Y035376D01*
X018773Y035626D02*
X018773Y038626D01*
X023273Y038626D01*
X023023Y038126D02*
X022923Y038126D01*
X023023Y038126D02*
X023023Y035876D01*
X019023Y035876D01*
X019023Y038126D01*
X019123Y038126D01*
X019128Y038115D02*
X019173Y038165D01*
X019222Y038212D01*
X019273Y038257D01*
X019326Y038298D01*
X019382Y038337D01*
X019440Y038372D01*
X019500Y038404D01*
X019561Y038432D01*
X019625Y038457D01*
X019689Y038478D01*
X019754Y038495D01*
X019821Y038509D01*
X019888Y038518D01*
X019955Y038524D01*
X020023Y038526D01*
X020923Y038126D02*
X021123Y038126D01*
X021128Y038115D02*
X021173Y038165D01*
X021222Y038212D01*
X021273Y038257D01*
X021326Y038298D01*
X021382Y038337D01*
X021440Y038372D01*
X021500Y038404D01*
X021561Y038432D01*
X021625Y038457D01*
X021689Y038478D01*
X021754Y038495D01*
X021821Y038509D01*
X021888Y038518D01*
X021955Y038524D01*
X022023Y038526D01*
X022090Y038524D01*
X022158Y038518D01*
X022224Y038509D01*
X022290Y038495D01*
X022355Y038478D01*
X022420Y038457D01*
X022482Y038433D01*
X022544Y038405D01*
X022603Y038374D01*
X022661Y038339D01*
X022717Y038301D01*
X022770Y038260D01*
X022821Y038215D01*
X022869Y038168D01*
X022915Y038119D01*
X020915Y038119D02*
X020869Y038168D01*
X020821Y038215D01*
X020770Y038260D01*
X020717Y038301D01*
X020661Y038339D01*
X020603Y038374D01*
X020544Y038405D01*
X020482Y038433D01*
X020419Y038457D01*
X020355Y038478D01*
X020290Y038495D01*
X020224Y038509D01*
X020157Y038518D01*
X020090Y038524D01*
X020023Y038526D01*
X015989Y036276D02*
X015989Y036126D01*
X015939Y036076D01*
X015939Y034176D01*
X015989Y034126D01*
X015989Y033976D01*
X015987Y033959D01*
X015983Y033942D01*
X015976Y033926D01*
X015966Y033912D01*
X015953Y033899D01*
X015939Y033889D01*
X015923Y033882D01*
X015906Y033878D01*
X015889Y033876D01*
X015189Y033876D01*
X015172Y033878D01*
X015155Y033882D01*
X015139Y033889D01*
X015125Y033899D01*
X015112Y033912D01*
X015102Y033926D01*
X015095Y033942D01*
X015091Y033959D01*
X015089Y033976D01*
X015089Y034126D01*
X015139Y034176D01*
X015139Y036076D01*
X015089Y036126D01*
X015089Y036276D01*
X015091Y036293D01*
X015095Y036310D01*
X015102Y036326D01*
X015112Y036340D01*
X015125Y036353D01*
X015139Y036363D01*
X015155Y036370D01*
X015172Y036374D01*
X015189Y036376D01*
X015889Y036376D01*
X015906Y036374D01*
X015923Y036370D01*
X015939Y036363D01*
X015953Y036353D01*
X015966Y036340D01*
X015976Y036326D01*
X015983Y036310D01*
X015987Y036293D01*
X015989Y036276D01*
X014539Y036376D02*
X011539Y036376D01*
X011539Y036626D01*
X011539Y037626D01*
X014539Y037626D01*
X014539Y036626D01*
X014539Y036376D01*
X014539Y036626D02*
X011539Y036626D01*
X010539Y036360D02*
X010539Y036110D01*
X010539Y036360D02*
X010039Y036360D01*
X009789Y036360D02*
X008039Y036360D01*
X007789Y036360D02*
X007539Y036360D01*
X004539Y036360D01*
X004539Y031860D01*
X007539Y031860D01*
X007789Y031860D01*
X007539Y031860D02*
X007539Y036360D01*
X007289Y036110D02*
X007289Y032110D01*
X005039Y032110D01*
X005039Y032210D01*
X005050Y032215D02*
X005000Y032260D01*
X004953Y032309D01*
X004908Y032360D01*
X004867Y032413D01*
X004828Y032469D01*
X004793Y032527D01*
X004761Y032587D01*
X004733Y032648D01*
X004708Y032712D01*
X004687Y032776D01*
X004670Y032841D01*
X004656Y032908D01*
X004647Y032975D01*
X004641Y033042D01*
X004639Y033110D01*
X004641Y033177D01*
X004647Y033244D01*
X004656Y033311D01*
X004670Y033377D01*
X004687Y033442D01*
X004708Y033506D01*
X004732Y033569D01*
X004760Y033631D01*
X004791Y033690D01*
X004826Y033748D01*
X004864Y033804D01*
X004905Y033857D01*
X004950Y033908D01*
X004997Y033956D01*
X005046Y034002D01*
X005039Y034010D02*
X005039Y034210D01*
X005050Y034215D02*
X005000Y034260D01*
X004953Y034309D01*
X004908Y034360D01*
X004867Y034413D01*
X004828Y034469D01*
X004793Y034527D01*
X004761Y034587D01*
X004733Y034648D01*
X004708Y034712D01*
X004687Y034776D01*
X004670Y034841D01*
X004656Y034908D01*
X004647Y034975D01*
X004641Y035042D01*
X004639Y035110D01*
X004641Y035177D01*
X004647Y035245D01*
X004656Y035311D01*
X004670Y035377D01*
X004687Y035442D01*
X004708Y035507D01*
X004732Y035569D01*
X004760Y035631D01*
X004791Y035690D01*
X004826Y035748D01*
X004864Y035804D01*
X004905Y035857D01*
X004950Y035908D01*
X004997Y035956D01*
X005046Y036002D01*
X005039Y036010D02*
X005039Y036110D01*
X007289Y036110D01*
X010539Y035860D02*
X010539Y034360D01*
X010539Y034110D02*
X010539Y032360D01*
X010539Y032110D02*
X010539Y031860D01*
X010039Y031860D01*
X009789Y031860D02*
X008039Y031860D01*
X008039Y030360D02*
X009789Y030360D01*
X010039Y030360D02*
X010539Y030360D01*
X010539Y030110D01*
X010539Y029860D02*
X010539Y028360D01*
X010539Y028110D02*
X010539Y026360D01*
X010539Y026110D02*
X010539Y025860D01*
X010039Y025860D01*
X009789Y025860D02*
X008039Y025860D01*
X007789Y025860D02*
X007539Y025860D01*
X007539Y030360D01*
X007789Y030360D01*
X007539Y030360D02*
X004539Y030360D01*
X004539Y025860D01*
X007539Y025860D01*
X007289Y026110D02*
X005039Y026110D01*
X005039Y026210D01*
X005050Y026215D02*
X005000Y026260D01*
X004953Y026309D01*
X004908Y026360D01*
X004867Y026413D01*
X004828Y026469D01*
X004793Y026527D01*
X004761Y026587D01*
X004733Y026648D01*
X004708Y026712D01*
X004687Y026776D01*
X004670Y026841D01*
X004656Y026908D01*
X004647Y026975D01*
X004641Y027042D01*
X004639Y027110D01*
X004641Y027177D01*
X004647Y027244D01*
X004656Y027311D01*
X004670Y027377D01*
X004687Y027442D01*
X004708Y027506D01*
X004732Y027569D01*
X004760Y027631D01*
X004791Y027690D01*
X004826Y027748D01*
X004864Y027804D01*
X004905Y027857D01*
X004950Y027908D01*
X004997Y027956D01*
X005046Y028002D01*
X005039Y028010D02*
X005039Y028210D01*
X005050Y028215D02*
X005000Y028260D01*
X004953Y028309D01*
X004908Y028360D01*
X004867Y028413D01*
X004828Y028469D01*
X004793Y028527D01*
X004761Y028587D01*
X004733Y028648D01*
X004708Y028712D01*
X004687Y028776D01*
X004670Y028841D01*
X004656Y028908D01*
X004647Y028975D01*
X004641Y029042D01*
X004639Y029110D01*
X004641Y029177D01*
X004647Y029245D01*
X004656Y029311D01*
X004670Y029377D01*
X004687Y029442D01*
X004708Y029507D01*
X004732Y029569D01*
X004760Y029631D01*
X004791Y029690D01*
X004826Y029748D01*
X004864Y029804D01*
X004905Y029857D01*
X004950Y029908D01*
X004997Y029956D01*
X005046Y030002D01*
X005039Y030010D02*
X005039Y030110D01*
X007289Y030110D01*
X007289Y026110D01*
X007539Y024860D02*
X004539Y024860D01*
X004539Y020360D01*
X007539Y020360D01*
X007789Y020360D01*
X007539Y020360D02*
X007539Y024860D01*
X007789Y024860D01*
X008039Y024860D02*
X009789Y024860D01*
X010039Y024860D02*
X010539Y024860D01*
X010539Y024610D01*
X010539Y024360D02*
X010539Y022860D01*
X010539Y022610D02*
X010539Y020860D01*
X010539Y020610D02*
X010539Y020360D01*
X010039Y020360D01*
X009789Y020360D02*
X008039Y020360D01*
X007289Y020610D02*
X005039Y020610D01*
X005039Y020710D01*
X005050Y020715D02*
X005000Y020760D01*
X004953Y020809D01*
X004908Y020860D01*
X004867Y020913D01*
X004828Y020969D01*
X004793Y021027D01*
X004761Y021087D01*
X004733Y021148D01*
X004708Y021212D01*
X004687Y021276D01*
X004670Y021341D01*
X004656Y021408D01*
X004647Y021475D01*
X004641Y021542D01*
X004639Y021610D01*
X004641Y021677D01*
X004647Y021744D01*
X004656Y021811D01*
X004670Y021877D01*
X004687Y021942D01*
X004708Y022006D01*
X004732Y022069D01*
X004760Y022131D01*
X004791Y022190D01*
X004826Y022248D01*
X004864Y022304D01*
X004905Y022357D01*
X004950Y022408D01*
X004997Y022456D01*
X005046Y022502D01*
X005039Y022510D02*
X005039Y022710D01*
X005050Y022715D02*
X005000Y022760D01*
X004953Y022809D01*
X004908Y022860D01*
X004867Y022913D01*
X004828Y022969D01*
X004793Y023027D01*
X004761Y023087D01*
X004733Y023148D01*
X004708Y023212D01*
X004687Y023276D01*
X004670Y023341D01*
X004656Y023408D01*
X004647Y023475D01*
X004641Y023542D01*
X004639Y023610D01*
X004641Y023677D01*
X004647Y023745D01*
X004656Y023811D01*
X004670Y023877D01*
X004687Y023942D01*
X004708Y024007D01*
X004732Y024069D01*
X004760Y024131D01*
X004791Y024190D01*
X004826Y024248D01*
X004864Y024304D01*
X004905Y024357D01*
X004950Y024408D01*
X004997Y024456D01*
X005046Y024502D01*
X005039Y024510D02*
X005039Y024610D01*
X007289Y024610D01*
X007289Y020610D01*
X007539Y019360D02*
X004539Y019360D01*
X004539Y014860D01*
X007539Y014860D01*
X007789Y014860D01*
X007539Y014860D02*
X007539Y019360D01*
X007789Y019360D01*
X008039Y019360D02*
X009789Y019360D01*
X010039Y019360D02*
X010539Y019360D01*
X010539Y019110D01*
X010539Y018860D02*
X010539Y017360D01*
X010539Y017110D02*
X010539Y015360D01*
X010539Y015110D02*
X010539Y014860D01*
X010039Y014860D01*
X009789Y014860D02*
X008039Y014860D01*
X007289Y015110D02*
X005039Y015110D01*
X005039Y015210D01*
X005050Y015215D02*
X005000Y015260D01*
X004953Y015309D01*
X004908Y015360D01*
X004867Y015413D01*
X004828Y015469D01*
X004793Y015527D01*
X004761Y015587D01*
X004733Y015648D01*
X004708Y015712D01*
X004687Y015776D01*
X004670Y015841D01*
X004656Y015908D01*
X004647Y015975D01*
X004641Y016042D01*
X004639Y016110D01*
X004641Y016177D01*
X004647Y016244D01*
X004656Y016311D01*
X004670Y016377D01*
X004687Y016442D01*
X004708Y016506D01*
X004732Y016569D01*
X004760Y016631D01*
X004791Y016690D01*
X004826Y016748D01*
X004864Y016804D01*
X004905Y016857D01*
X004950Y016908D01*
X004997Y016956D01*
X005046Y017002D01*
X005039Y017010D02*
X005039Y017210D01*
X005050Y017215D02*
X005000Y017260D01*
X004953Y017309D01*
X004908Y017360D01*
X004867Y017413D01*
X004828Y017469D01*
X004793Y017527D01*
X004761Y017587D01*
X004733Y017648D01*
X004708Y017712D01*
X004687Y017776D01*
X004670Y017841D01*
X004656Y017908D01*
X004647Y017975D01*
X004641Y018042D01*
X004639Y018110D01*
X004641Y018177D01*
X004647Y018245D01*
X004656Y018311D01*
X004670Y018377D01*
X004687Y018442D01*
X004708Y018507D01*
X004732Y018569D01*
X004760Y018631D01*
X004791Y018690D01*
X004826Y018748D01*
X004864Y018804D01*
X004905Y018857D01*
X004950Y018908D01*
X004997Y018956D01*
X005046Y019002D01*
X005039Y019010D02*
X005039Y019110D01*
X007289Y019110D01*
X007289Y015110D01*
X007539Y013860D02*
X004539Y013860D01*
X004539Y009360D01*
X007539Y009360D01*
X007789Y009360D01*
X007539Y009360D02*
X007539Y013860D01*
X007789Y013860D01*
X008039Y013860D02*
X009789Y013860D01*
X010039Y013860D02*
X010539Y013860D01*
X010539Y013610D01*
X010539Y013360D02*
X010539Y011860D01*
X010539Y011610D02*
X010539Y009860D01*
X010539Y009610D02*
X010539Y009360D01*
X010039Y009360D01*
X009789Y009360D02*
X008039Y009360D01*
X007289Y009610D02*
X005039Y009610D01*
X005039Y009710D01*
X005050Y009715D02*
X005000Y009760D01*
X004953Y009809D01*
X004908Y009860D01*
X004867Y009913D01*
X004828Y009969D01*
X004793Y010027D01*
X004761Y010087D01*
X004733Y010148D01*
X004708Y010212D01*
X004687Y010276D01*
X004670Y010341D01*
X004656Y010408D01*
X004647Y010475D01*
X004641Y010542D01*
X004639Y010610D01*
X004641Y010677D01*
X004647Y010744D01*
X004656Y010811D01*
X004670Y010877D01*
X004687Y010942D01*
X004708Y011006D01*
X004732Y011069D01*
X004760Y011131D01*
X004791Y011190D01*
X004826Y011248D01*
X004864Y011304D01*
X004905Y011357D01*
X004950Y011408D01*
X004997Y011456D01*
X005046Y011502D01*
X005039Y011510D02*
X005039Y011710D01*
X005050Y011715D02*
X005000Y011760D01*
X004953Y011809D01*
X004908Y011860D01*
X004867Y011913D01*
X004828Y011969D01*
X004793Y012027D01*
X004761Y012087D01*
X004733Y012148D01*
X004708Y012212D01*
X004687Y012276D01*
X004670Y012341D01*
X004656Y012408D01*
X004647Y012475D01*
X004641Y012542D01*
X004639Y012610D01*
X004641Y012677D01*
X004647Y012745D01*
X004656Y012811D01*
X004670Y012877D01*
X004687Y012942D01*
X004708Y013007D01*
X004732Y013069D01*
X004760Y013131D01*
X004791Y013190D01*
X004826Y013248D01*
X004864Y013304D01*
X004905Y013357D01*
X004950Y013408D01*
X004997Y013456D01*
X005046Y013502D01*
X005039Y013510D02*
X005039Y013610D01*
X007289Y013610D01*
X007289Y009610D01*
X007539Y007860D02*
X004539Y007860D01*
X004539Y003360D01*
X007539Y003360D01*
X007789Y003360D01*
X007539Y003360D02*
X007539Y007860D01*
X007789Y007860D01*
X008039Y007860D02*
X009789Y007860D01*
X010039Y007860D02*
X010539Y007860D01*
X010539Y007610D01*
X010539Y007360D02*
X010539Y005860D01*
X010539Y005610D02*
X010539Y003860D01*
X010539Y003610D02*
X010539Y003360D01*
X010039Y003360D01*
X009789Y003360D02*
X008039Y003360D01*
X007289Y003610D02*
X005039Y003610D01*
X005039Y003710D01*
X005050Y003715D02*
X005000Y003760D01*
X004953Y003809D01*
X004908Y003860D01*
X004867Y003913D01*
X004828Y003969D01*
X004793Y004027D01*
X004761Y004087D01*
X004733Y004148D01*
X004708Y004212D01*
X004687Y004276D01*
X004670Y004341D01*
X004656Y004408D01*
X004647Y004475D01*
X004641Y004542D01*
X004639Y004610D01*
X004641Y004677D01*
X004647Y004744D01*
X004656Y004811D01*
X004670Y004877D01*
X004687Y004942D01*
X004708Y005006D01*
X004732Y005069D01*
X004760Y005131D01*
X004791Y005190D01*
X004826Y005248D01*
X004864Y005304D01*
X004905Y005357D01*
X004950Y005408D01*
X004997Y005456D01*
X005046Y005502D01*
X005039Y005510D02*
X005039Y005710D01*
X005050Y005715D02*
X005000Y005760D01*
X004953Y005809D01*
X004908Y005860D01*
X004867Y005913D01*
X004828Y005969D01*
X004793Y006027D01*
X004761Y006087D01*
X004733Y006148D01*
X004708Y006212D01*
X004687Y006276D01*
X004670Y006341D01*
X004656Y006408D01*
X004647Y006475D01*
X004641Y006542D01*
X004639Y006610D01*
X004641Y006677D01*
X004647Y006745D01*
X004656Y006811D01*
X004670Y006877D01*
X004687Y006942D01*
X004708Y007007D01*
X004732Y007069D01*
X004760Y007131D01*
X004791Y007190D01*
X004826Y007248D01*
X004864Y007304D01*
X004905Y007357D01*
X004950Y007408D01*
X004997Y007456D01*
X005046Y007502D01*
X005039Y007510D02*
X005039Y007610D01*
X007289Y007610D01*
X007289Y003610D01*
X013589Y003626D02*
X013589Y003476D01*
X013591Y003459D01*
X013595Y003442D01*
X013602Y003426D01*
X013612Y003412D01*
X013625Y003399D01*
X013639Y003389D01*
X013655Y003382D01*
X013672Y003378D01*
X013689Y003376D01*
X014389Y003376D01*
X014406Y003378D01*
X014423Y003382D01*
X014439Y003389D01*
X014453Y003399D01*
X014466Y003412D01*
X014476Y003426D01*
X014483Y003442D01*
X014487Y003459D01*
X014489Y003476D01*
X014489Y003626D01*
X014439Y003676D01*
X014439Y005576D01*
X014489Y005626D01*
X014489Y005776D01*
X014487Y005793D01*
X014483Y005810D01*
X014476Y005826D01*
X014466Y005840D01*
X014453Y005853D01*
X014439Y005863D01*
X014423Y005870D01*
X014406Y005874D01*
X014389Y005876D01*
X013689Y005876D01*
X013672Y005874D01*
X013655Y005870D01*
X013639Y005863D01*
X013625Y005853D01*
X013612Y005840D01*
X013602Y005826D01*
X013595Y005810D01*
X013591Y005793D01*
X013589Y005776D01*
X013589Y005626D01*
X013639Y005576D01*
X013639Y003676D01*
X013589Y003626D01*
X015189Y005876D02*
X015889Y005876D01*
X015906Y005878D01*
X015923Y005882D01*
X015939Y005889D01*
X015953Y005899D01*
X015966Y005912D01*
X015976Y005926D01*
X015983Y005942D01*
X015987Y005959D01*
X015989Y005976D01*
X015989Y006126D01*
X015939Y006176D01*
X015939Y008076D01*
X015989Y008126D01*
X015989Y008276D01*
X015987Y008293D01*
X015983Y008310D01*
X015976Y008326D01*
X015966Y008340D01*
X015953Y008353D01*
X015939Y008363D01*
X015923Y008370D01*
X015906Y008374D01*
X015889Y008376D01*
X015189Y008376D01*
X015172Y008374D01*
X015155Y008370D01*
X015139Y008363D01*
X015125Y008353D01*
X015112Y008340D01*
X015102Y008326D01*
X015095Y008310D01*
X015091Y008293D01*
X015089Y008276D01*
X015089Y008126D01*
X015139Y008076D01*
X015139Y006176D01*
X015089Y006126D01*
X015089Y005976D01*
X015091Y005959D01*
X015095Y005942D01*
X015102Y005926D01*
X015112Y005912D01*
X015125Y005899D01*
X015139Y005889D01*
X015155Y005882D01*
X015172Y005878D01*
X015189Y005876D01*
X017039Y006376D02*
X017039Y006626D01*
X017039Y007626D01*
X020039Y007626D01*
X020039Y006626D01*
X020039Y006376D01*
X017039Y006376D01*
X017039Y006626D02*
X020039Y006626D01*
X020039Y008876D02*
X017039Y008876D01*
X017039Y009126D01*
X017039Y010126D01*
X020039Y010126D01*
X020039Y009126D01*
X020039Y008876D01*
X020039Y009126D02*
X017039Y009126D01*
X014489Y009126D02*
X014489Y008976D01*
X014487Y008959D01*
X014483Y008942D01*
X014476Y008926D01*
X014466Y008912D01*
X014453Y008899D01*
X014439Y008889D01*
X014423Y008882D01*
X014406Y008878D01*
X014389Y008876D01*
X013689Y008876D01*
X013672Y008878D01*
X013655Y008882D01*
X013639Y008889D01*
X013625Y008899D01*
X013612Y008912D01*
X013602Y008926D01*
X013595Y008942D01*
X013591Y008959D01*
X013589Y008976D01*
X013589Y009126D01*
X013639Y009176D01*
X013639Y011076D01*
X013589Y011126D01*
X013589Y011276D01*
X013591Y011293D01*
X013595Y011310D01*
X013602Y011326D01*
X013612Y011340D01*
X013625Y011353D01*
X013639Y011363D01*
X013655Y011370D01*
X013672Y011374D01*
X013689Y011376D01*
X014389Y011376D01*
X014406Y011374D01*
X014423Y011370D01*
X014439Y011363D01*
X014453Y011353D01*
X014466Y011340D01*
X014476Y011326D01*
X014483Y011310D01*
X014487Y011293D01*
X014489Y011276D01*
X014489Y011126D01*
X014439Y011076D01*
X014439Y009176D01*
X014489Y009126D01*
X015189Y011376D02*
X015889Y011376D01*
X015906Y011378D01*
X015923Y011382D01*
X015939Y011389D01*
X015953Y011399D01*
X015966Y011412D01*
X015976Y011426D01*
X015983Y011442D01*
X015987Y011459D01*
X015989Y011476D01*
X015989Y011626D01*
X015939Y011676D01*
X015939Y013576D01*
X015989Y013626D01*
X015989Y013776D01*
X015987Y013793D01*
X015983Y013810D01*
X015976Y013826D01*
X015966Y013840D01*
X015953Y013853D01*
X015939Y013863D01*
X015923Y013870D01*
X015906Y013874D01*
X015889Y013876D01*
X015189Y013876D01*
X015172Y013874D01*
X015155Y013870D01*
X015139Y013863D01*
X015125Y013853D01*
X015112Y013840D01*
X015102Y013826D01*
X015095Y013810D01*
X015091Y013793D01*
X015089Y013776D01*
X015089Y013626D01*
X015139Y013576D01*
X015139Y011676D01*
X015089Y011626D01*
X015089Y011476D01*
X015091Y011459D01*
X015095Y011442D01*
X015102Y011426D01*
X015112Y011412D01*
X015125Y011399D01*
X015139Y011389D01*
X015155Y011382D01*
X015172Y011378D01*
X015189Y011376D01*
X014389Y014876D02*
X013689Y014876D01*
X013672Y014878D01*
X013655Y014882D01*
X013639Y014889D01*
X013625Y014899D01*
X013612Y014912D01*
X013602Y014926D01*
X013595Y014942D01*
X013591Y014959D01*
X013589Y014976D01*
X013589Y015126D01*
X013639Y015176D01*
X013639Y017076D01*
X013589Y017126D01*
X013589Y017276D01*
X013591Y017293D01*
X013595Y017310D01*
X013602Y017326D01*
X013612Y017340D01*
X013625Y017353D01*
X013639Y017363D01*
X013655Y017370D01*
X013672Y017374D01*
X013689Y017376D01*
X014389Y017376D01*
X014406Y017374D01*
X014423Y017370D01*
X014439Y017363D01*
X014453Y017353D01*
X014466Y017340D01*
X014476Y017326D01*
X014483Y017310D01*
X014487Y017293D01*
X014489Y017276D01*
X014489Y017126D01*
X014439Y017076D01*
X014439Y015176D01*
X014489Y015126D01*
X014489Y014976D01*
X014487Y014959D01*
X014483Y014942D01*
X014476Y014926D01*
X014466Y014912D01*
X014453Y014899D01*
X014439Y014889D01*
X014423Y014882D01*
X014406Y014878D01*
X014389Y014876D01*
X015189Y016876D02*
X015889Y016876D01*
X015906Y016878D01*
X015923Y016882D01*
X015939Y016889D01*
X015953Y016899D01*
X015966Y016912D01*
X015976Y016926D01*
X015983Y016942D01*
X015987Y016959D01*
X015989Y016976D01*
X015989Y017126D01*
X015939Y017176D01*
X015939Y019076D01*
X015989Y019126D01*
X015989Y019276D01*
X015987Y019293D01*
X015983Y019310D01*
X015976Y019326D01*
X015966Y019340D01*
X015953Y019353D01*
X015939Y019363D01*
X015923Y019370D01*
X015906Y019374D01*
X015889Y019376D01*
X015189Y019376D01*
X015172Y019374D01*
X015155Y019370D01*
X015139Y019363D01*
X015125Y019353D01*
X015112Y019340D01*
X015102Y019326D01*
X015095Y019310D01*
X015091Y019293D01*
X015089Y019276D01*
X015089Y019126D01*
X015139Y019076D01*
X015139Y017176D01*
X015089Y017126D01*
X015089Y016976D01*
X015091Y016959D01*
X015095Y016942D01*
X015102Y016926D01*
X015112Y016912D01*
X015125Y016899D01*
X015139Y016889D01*
X015155Y016882D01*
X015172Y016878D01*
X015189Y016876D01*
X014389Y020876D02*
X013689Y020876D01*
X013672Y020878D01*
X013655Y020882D01*
X013639Y020889D01*
X013625Y020899D01*
X013612Y020912D01*
X013602Y020926D01*
X013595Y020942D01*
X013591Y020959D01*
X013589Y020976D01*
X013589Y021126D01*
X013639Y021176D01*
X013639Y023076D01*
X013589Y023126D01*
X013589Y023276D01*
X013591Y023293D01*
X013595Y023310D01*
X013602Y023326D01*
X013612Y023340D01*
X013625Y023353D01*
X013639Y023363D01*
X013655Y023370D01*
X013672Y023374D01*
X013689Y023376D01*
X014389Y023376D01*
X014406Y023374D01*
X014423Y023370D01*
X014439Y023363D01*
X014453Y023353D01*
X014466Y023340D01*
X014476Y023326D01*
X014483Y023310D01*
X014487Y023293D01*
X014489Y023276D01*
X014489Y023126D01*
X014439Y023076D01*
X014439Y021176D01*
X014489Y021126D01*
X014489Y020976D01*
X014487Y020959D01*
X014483Y020942D01*
X014476Y020926D01*
X014466Y020912D01*
X014453Y020899D01*
X014439Y020889D01*
X014423Y020882D01*
X014406Y020878D01*
X014389Y020876D01*
X015189Y022376D02*
X015889Y022376D01*
X015906Y022378D01*
X015923Y022382D01*
X015939Y022389D01*
X015953Y022399D01*
X015966Y022412D01*
X015976Y022426D01*
X015983Y022442D01*
X015987Y022459D01*
X015989Y022476D01*
X015989Y022626D01*
X015939Y022676D01*
X015939Y024576D01*
X015989Y024626D01*
X015989Y024776D01*
X015987Y024793D01*
X015983Y024810D01*
X015976Y024826D01*
X015966Y024840D01*
X015953Y024853D01*
X015939Y024863D01*
X015923Y024870D01*
X015906Y024874D01*
X015889Y024876D01*
X015189Y024876D01*
X015172Y024874D01*
X015155Y024870D01*
X015139Y024863D01*
X015125Y024853D01*
X015112Y024840D01*
X015102Y024826D01*
X015095Y024810D01*
X015091Y024793D01*
X015089Y024776D01*
X015089Y024626D01*
X015139Y024576D01*
X015139Y022676D01*
X015089Y022626D01*
X015089Y022476D01*
X015091Y022459D01*
X015095Y022442D01*
X015102Y022426D01*
X015112Y022412D01*
X015125Y022399D01*
X015139Y022389D01*
X015155Y022382D01*
X015172Y022378D01*
X015189Y022376D01*
X014389Y026376D02*
X013689Y026376D01*
X013672Y026378D01*
X013655Y026382D01*
X013639Y026389D01*
X013625Y026399D01*
X013612Y026412D01*
X013602Y026426D01*
X013595Y026442D01*
X013591Y026459D01*
X013589Y026476D01*
X013589Y026626D01*
X013639Y026676D01*
X013639Y028576D01*
X013589Y028626D01*
X013589Y028776D01*
X013591Y028793D01*
X013595Y028810D01*
X013602Y028826D01*
X013612Y028840D01*
X013625Y028853D01*
X013639Y028863D01*
X013655Y028870D01*
X013672Y028874D01*
X013689Y028876D01*
X014389Y028876D01*
X014406Y028874D01*
X014423Y028870D01*
X014439Y028863D01*
X014453Y028853D01*
X014466Y028840D01*
X014476Y028826D01*
X014483Y028810D01*
X014487Y028793D01*
X014489Y028776D01*
X014489Y028626D01*
X014439Y028576D01*
X014439Y026676D01*
X014489Y026626D01*
X014489Y026476D01*
X014487Y026459D01*
X014483Y026442D01*
X014476Y026426D01*
X014466Y026412D01*
X014453Y026399D01*
X014439Y026389D01*
X014423Y026382D01*
X014406Y026378D01*
X014389Y026376D01*
X015189Y027876D02*
X015889Y027876D01*
X015906Y027878D01*
X015923Y027882D01*
X015939Y027889D01*
X015953Y027899D01*
X015966Y027912D01*
X015976Y027926D01*
X015983Y027942D01*
X015987Y027959D01*
X015989Y027976D01*
X015989Y028126D01*
X015939Y028176D01*
X015939Y030076D01*
X015989Y030126D01*
X015989Y030276D01*
X015987Y030293D01*
X015983Y030310D01*
X015976Y030326D01*
X015966Y030340D01*
X015953Y030353D01*
X015939Y030363D01*
X015923Y030370D01*
X015906Y030374D01*
X015889Y030376D01*
X015189Y030376D01*
X015172Y030374D01*
X015155Y030370D01*
X015139Y030363D01*
X015125Y030353D01*
X015112Y030340D01*
X015102Y030326D01*
X015095Y030310D01*
X015091Y030293D01*
X015089Y030276D01*
X015089Y030126D01*
X015139Y030076D01*
X015139Y028176D01*
X015089Y028126D01*
X015089Y027976D01*
X015091Y027959D01*
X015095Y027942D01*
X015102Y027926D01*
X015112Y027912D01*
X015125Y027899D01*
X015139Y027889D01*
X015155Y027882D01*
X015172Y027878D01*
X015189Y027876D01*
X014389Y031876D02*
X013689Y031876D01*
X013672Y031878D01*
X013655Y031882D01*
X013639Y031889D01*
X013625Y031899D01*
X013612Y031912D01*
X013602Y031926D01*
X013595Y031942D01*
X013591Y031959D01*
X013589Y031976D01*
X013589Y032126D01*
X013639Y032176D01*
X013639Y034076D01*
X013589Y034126D01*
X013589Y034276D01*
X013591Y034293D01*
X013595Y034310D01*
X013602Y034326D01*
X013612Y034340D01*
X013625Y034353D01*
X013639Y034363D01*
X013655Y034370D01*
X013672Y034374D01*
X013689Y034376D01*
X014389Y034376D01*
X014406Y034374D01*
X014423Y034370D01*
X014439Y034363D01*
X014453Y034353D01*
X014466Y034340D01*
X014476Y034326D01*
X014483Y034310D01*
X014487Y034293D01*
X014489Y034276D01*
X014489Y034126D01*
X014439Y034076D01*
X014439Y032176D01*
X014489Y032126D01*
X014489Y031976D01*
X014487Y031959D01*
X014483Y031942D01*
X014476Y031926D01*
X014466Y031912D01*
X014453Y031899D01*
X014439Y031889D01*
X014423Y031882D01*
X014406Y031878D01*
X014389Y031876D01*
X018773Y032626D02*
X018773Y033126D01*
X018773Y033376D02*
X018773Y035126D01*
X023273Y035126D02*
X023273Y033376D01*
X023273Y033126D02*
X023273Y032626D01*
X023023Y032626D01*
X022773Y032626D02*
X021273Y032626D01*
X021023Y032626D02*
X019273Y032626D01*
X019023Y032626D02*
X018773Y032626D01*
X023689Y023376D02*
X024389Y023376D01*
X024406Y023374D01*
X024423Y023370D01*
X024439Y023363D01*
X024453Y023353D01*
X024466Y023340D01*
X024476Y023326D01*
X024483Y023310D01*
X024487Y023293D01*
X024489Y023276D01*
X024489Y023126D01*
X024439Y023076D01*
X024439Y021176D01*
X024489Y021126D01*
X024489Y020976D01*
X024487Y020959D01*
X024483Y020942D01*
X024476Y020926D01*
X024466Y020912D01*
X024453Y020899D01*
X024439Y020889D01*
X024423Y020882D01*
X024406Y020878D01*
X024389Y020876D01*
X023689Y020876D01*
X023672Y020878D01*
X023655Y020882D01*
X023639Y020889D01*
X023625Y020899D01*
X023612Y020912D01*
X023602Y020926D01*
X023595Y020942D01*
X023591Y020959D01*
X023589Y020976D01*
X023589Y021126D01*
X023639Y021176D01*
X023639Y023076D01*
X023589Y023126D01*
X023589Y023276D01*
X023591Y023293D01*
X023595Y023310D01*
X023602Y023326D01*
X023612Y023340D01*
X023625Y023353D01*
X023639Y023363D01*
X023655Y023370D01*
X023672Y023374D01*
X023689Y023376D01*
X027789Y022626D02*
X028039Y022626D01*
X029039Y022626D01*
X029039Y016626D01*
X028039Y016626D01*
X027789Y016626D01*
X027789Y022626D01*
X028039Y022626D02*
X028039Y016626D01*
X037789Y016626D02*
X037789Y022626D01*
X038039Y022626D01*
X039039Y022626D01*
X039039Y016626D01*
X038039Y016626D01*
X037789Y016626D01*
X038039Y016626D02*
X038039Y022626D01*
X048789Y022626D02*
X049039Y022626D01*
X050039Y022626D01*
X050039Y016626D01*
X049039Y016626D01*
X048789Y016626D01*
X048789Y022626D01*
X049039Y022626D02*
X049039Y016626D01*
X059539Y016626D02*
X060539Y016626D01*
X053805Y007126D02*
X053805Y006626D01*
X053805Y006376D02*
X053805Y004626D01*
X053805Y004376D02*
X053805Y004126D01*
X049305Y004126D01*
X049305Y004376D01*
X049305Y004626D02*
X049305Y006376D01*
X049305Y006626D02*
X049305Y007126D01*
X049555Y007126D01*
X049805Y007126D02*
X051305Y007126D01*
X051555Y007126D02*
X053305Y007126D01*
X053555Y007126D02*
X053805Y007126D01*
X048805Y007126D02*
X048805Y006626D01*
X048805Y006376D02*
X048805Y004626D01*
X048805Y004376D02*
X048805Y004126D01*
X044305Y004126D01*
X044305Y004376D01*
X044305Y004626D02*
X044305Y006376D01*
X044305Y006626D02*
X044305Y007126D01*
X044555Y007126D01*
X044805Y007126D02*
X046305Y007126D01*
X046555Y007126D02*
X048305Y007126D01*
X048555Y007126D02*
X048805Y007126D01*
X048805Y004126D02*
X048805Y001126D01*
X044305Y001126D01*
X044305Y004126D01*
X044555Y003876D02*
X048555Y003876D01*
X048555Y001626D01*
X048455Y001626D01*
X049305Y001126D02*
X053805Y001126D01*
X053805Y004126D01*
X053555Y003876D02*
X053555Y001626D01*
X053455Y001626D01*
X053450Y001637D02*
X053405Y001587D01*
X053356Y001540D01*
X053305Y001495D01*
X053252Y001454D01*
X053196Y001415D01*
X053138Y001380D01*
X053078Y001348D01*
X053017Y001320D01*
X052953Y001295D01*
X052889Y001274D01*
X052824Y001257D01*
X052757Y001243D01*
X052690Y001234D01*
X052623Y001228D01*
X052555Y001226D01*
X051655Y001626D02*
X051455Y001626D01*
X051450Y001637D02*
X051405Y001587D01*
X051356Y001540D01*
X051305Y001495D01*
X051252Y001454D01*
X051196Y001415D01*
X051138Y001380D01*
X051078Y001348D01*
X051017Y001320D01*
X050953Y001295D01*
X050889Y001274D01*
X050824Y001257D01*
X050757Y001243D01*
X050690Y001234D01*
X050623Y001228D01*
X050555Y001226D01*
X049655Y001626D02*
X049555Y001626D01*
X049555Y003876D01*
X053555Y003876D01*
X052555Y001226D02*
X052488Y001228D01*
X052421Y001234D01*
X052354Y001243D01*
X052288Y001257D01*
X052223Y001274D01*
X052159Y001295D01*
X052096Y001319D01*
X052034Y001347D01*
X051975Y001378D01*
X051917Y001413D01*
X051861Y001451D01*
X051808Y001492D01*
X051757Y001537D01*
X051709Y001584D01*
X051663Y001633D01*
X050555Y001226D02*
X050488Y001228D01*
X050420Y001234D01*
X050354Y001243D01*
X050288Y001257D01*
X050223Y001274D01*
X050158Y001295D01*
X050096Y001319D01*
X050034Y001347D01*
X049975Y001378D01*
X049917Y001413D01*
X049861Y001451D01*
X049808Y001492D01*
X049757Y001537D01*
X049709Y001584D01*
X049663Y001633D01*
X049305Y001126D02*
X049305Y004126D01*
X048450Y001637D02*
X048405Y001587D01*
X048356Y001540D01*
X048305Y001495D01*
X048252Y001454D01*
X048196Y001415D01*
X048138Y001380D01*
X048078Y001348D01*
X048017Y001320D01*
X047953Y001295D01*
X047889Y001274D01*
X047824Y001257D01*
X047757Y001243D01*
X047690Y001234D01*
X047623Y001228D01*
X047555Y001226D01*
X046655Y001626D02*
X046455Y001626D01*
X046450Y001637D02*
X046405Y001587D01*
X046356Y001540D01*
X046305Y001495D01*
X046252Y001454D01*
X046196Y001415D01*
X046138Y001380D01*
X046078Y001348D01*
X046017Y001320D01*
X045953Y001295D01*
X045889Y001274D01*
X045824Y001257D01*
X045757Y001243D01*
X045690Y001234D01*
X045623Y001228D01*
X045555Y001226D01*
X044655Y001626D02*
X044555Y001626D01*
X044555Y003876D01*
X044663Y001633D02*
X044709Y001584D01*
X044757Y001537D01*
X044808Y001492D01*
X044861Y001451D01*
X044917Y001413D01*
X044975Y001378D01*
X045034Y001347D01*
X045096Y001319D01*
X045158Y001295D01*
X045223Y001274D01*
X045288Y001257D01*
X045354Y001243D01*
X045420Y001234D01*
X045488Y001228D01*
X045555Y001226D01*
X046663Y001633D02*
X046709Y001584D01*
X046757Y001537D01*
X046808Y001492D01*
X046861Y001451D01*
X046917Y001413D01*
X046975Y001378D01*
X047034Y001347D01*
X047096Y001319D01*
X047159Y001295D01*
X047223Y001274D01*
X047288Y001257D01*
X047354Y001243D01*
X047421Y001234D01*
X047488Y001228D01*
X047555Y001226D01*
X057289Y001776D02*
X057289Y002476D01*
X057291Y002493D01*
X057295Y002510D01*
X057302Y002526D01*
X057312Y002540D01*
X057325Y002553D01*
X057339Y002563D01*
X057355Y002570D01*
X057372Y002574D01*
X057389Y002576D01*
X057539Y002576D01*
X057589Y002526D01*
X059489Y002526D01*
X059539Y002576D01*
X059689Y002576D01*
X059706Y002574D01*
X059723Y002570D01*
X059739Y002563D01*
X059753Y002553D01*
X059766Y002540D01*
X059776Y002526D01*
X059783Y002510D01*
X059787Y002493D01*
X059789Y002476D01*
X059789Y001776D01*
X059787Y001759D01*
X059783Y001742D01*
X059776Y001726D01*
X059766Y001712D01*
X059753Y001699D01*
X059739Y001689D01*
X059723Y001682D01*
X059706Y001678D01*
X059689Y001676D01*
X059539Y001676D01*
X059489Y001726D01*
X057589Y001726D01*
X057539Y001676D01*
X057389Y001676D01*
X057372Y001678D01*
X057355Y001682D01*
X057339Y001689D01*
X057325Y001699D01*
X057312Y001712D01*
X057302Y001726D01*
X057295Y001742D01*
X057291Y001759D01*
X057289Y001776D01*
X076805Y001126D02*
X081305Y001126D01*
X081305Y004126D01*
X081305Y004376D01*
X081305Y004626D02*
X081305Y006376D01*
X081305Y006626D02*
X081305Y007126D01*
X081055Y007126D01*
X080805Y007126D02*
X079055Y007126D01*
X078805Y007126D02*
X077305Y007126D01*
X077055Y007126D02*
X076805Y007126D01*
X076805Y006626D01*
X076805Y006376D02*
X076805Y004626D01*
X076805Y004376D02*
X076805Y004126D01*
X076805Y001126D01*
X077055Y001626D02*
X077155Y001626D01*
X077055Y001626D02*
X077055Y003876D01*
X081055Y003876D01*
X081055Y001626D01*
X080955Y001626D01*
X080950Y001637D02*
X080905Y001587D01*
X080856Y001540D01*
X080805Y001495D01*
X080752Y001454D01*
X080696Y001415D01*
X080638Y001380D01*
X080578Y001348D01*
X080517Y001320D01*
X080453Y001295D01*
X080389Y001274D01*
X080324Y001257D01*
X080257Y001243D01*
X080190Y001234D01*
X080123Y001228D01*
X080055Y001226D01*
X079155Y001626D02*
X078955Y001626D01*
X078950Y001637D02*
X078905Y001587D01*
X078856Y001540D01*
X078805Y001495D01*
X078752Y001454D01*
X078696Y001415D01*
X078638Y001380D01*
X078578Y001348D01*
X078517Y001320D01*
X078453Y001295D01*
X078389Y001274D01*
X078324Y001257D01*
X078257Y001243D01*
X078190Y001234D01*
X078123Y001228D01*
X078055Y001226D01*
X077988Y001228D01*
X077920Y001234D01*
X077854Y001243D01*
X077788Y001257D01*
X077723Y001274D01*
X077658Y001295D01*
X077596Y001319D01*
X077534Y001347D01*
X077475Y001378D01*
X077417Y001413D01*
X077361Y001451D01*
X077308Y001492D01*
X077257Y001537D01*
X077209Y001584D01*
X077163Y001633D01*
X079163Y001633D02*
X079209Y001584D01*
X079257Y001537D01*
X079308Y001492D01*
X079361Y001451D01*
X079417Y001413D01*
X079475Y001378D01*
X079534Y001347D01*
X079596Y001319D01*
X079659Y001295D01*
X079723Y001274D01*
X079788Y001257D01*
X079854Y001243D01*
X079921Y001234D01*
X079988Y001228D01*
X080055Y001226D01*
X081305Y004126D02*
X076805Y004126D01*
X080989Y008676D02*
X081889Y008676D01*
X081539Y009376D02*
X081089Y009376D01*
X081089Y011376D01*
X081539Y011376D01*
X081539Y009376D01*
X080989Y008676D02*
X080989Y018576D01*
X081889Y018576D01*
X081739Y018126D02*
X081089Y018126D01*
X081089Y017876D01*
X081089Y015876D01*
X081539Y015876D01*
X081539Y017876D01*
X081289Y017876D01*
X081289Y018026D01*
X081739Y018026D01*
X081289Y017876D02*
X081089Y017876D01*
X083189Y018576D02*
X084089Y018576D01*
X084089Y008676D01*
X083189Y008676D01*
X083339Y009126D02*
X083989Y009126D01*
X083989Y009376D01*
X083989Y011376D01*
X083539Y011376D01*
X083539Y009376D01*
X083789Y009376D01*
X083789Y009226D01*
X083339Y009226D01*
X083789Y009376D02*
X083989Y009376D01*
X083989Y015876D02*
X083539Y015876D01*
X083539Y017876D01*
X083989Y017876D01*
X083989Y015876D01*
X034039Y009376D02*
X034039Y009126D01*
X034039Y008126D01*
X030039Y008126D01*
X030039Y009126D01*
X030039Y009376D01*
X034039Y009376D01*
X034039Y009126D02*
X030039Y009126D01*
X018039Y004126D02*
X018041Y004189D01*
X018047Y004251D01*
X018057Y004313D01*
X018070Y004375D01*
X018088Y004435D01*
X018109Y004494D01*
X018134Y004552D01*
X018163Y004608D01*
X018195Y004662D01*
X018230Y004714D01*
X018268Y004763D01*
X018310Y004811D01*
X018354Y004855D01*
X018402Y004897D01*
X018451Y004935D01*
X018503Y004970D01*
X018557Y005002D01*
X018613Y005031D01*
X018671Y005056D01*
X018730Y005077D01*
X018790Y005095D01*
X018852Y005108D01*
X018914Y005118D01*
X018976Y005124D01*
X019039Y005126D01*
X019102Y005124D01*
X019164Y005118D01*
X019226Y005108D01*
X019288Y005095D01*
X019348Y005077D01*
X019407Y005056D01*
X019465Y005031D01*
X019521Y005002D01*
X019575Y004970D01*
X019627Y004935D01*
X019676Y004897D01*
X019724Y004855D01*
X019768Y004811D01*
X019810Y004763D01*
X019848Y004714D01*
X019883Y004662D01*
X019915Y004608D01*
X019944Y004552D01*
X019969Y004494D01*
X019990Y004435D01*
X020008Y004375D01*
X020021Y004313D01*
X020031Y004251D01*
X020037Y004189D01*
X020039Y004126D01*
X020037Y004063D01*
X020031Y004001D01*
X020021Y003939D01*
X020008Y003877D01*
X019990Y003817D01*
X019969Y003758D01*
X019944Y003700D01*
X019915Y003644D01*
X019883Y003590D01*
X019848Y003538D01*
X019810Y003489D01*
X019768Y003441D01*
X019724Y003397D01*
X019676Y003355D01*
X019627Y003317D01*
X019575Y003282D01*
X019521Y003250D01*
X019465Y003221D01*
X019407Y003196D01*
X019348Y003175D01*
X019288Y003157D01*
X019226Y003144D01*
X019164Y003134D01*
X019102Y003128D01*
X019039Y003126D01*
X018976Y003128D01*
X018914Y003134D01*
X018852Y003144D01*
X018790Y003157D01*
X018730Y003175D01*
X018671Y003196D01*
X018613Y003221D01*
X018557Y003250D01*
X018503Y003282D01*
X018451Y003317D01*
X018402Y003355D01*
X018354Y003397D01*
X018310Y003441D01*
X018268Y003489D01*
X018230Y003538D01*
X018195Y003590D01*
X018163Y003644D01*
X018134Y003700D01*
X018109Y003758D01*
X018088Y003817D01*
X018070Y003877D01*
X018057Y003939D01*
X018047Y004001D01*
X018041Y004063D01*
X018039Y004126D01*
X022289Y002476D02*
X022289Y001776D01*
X022291Y001759D01*
X022295Y001742D01*
X022302Y001726D01*
X022312Y001712D01*
X022325Y001699D01*
X022339Y001689D01*
X022355Y001682D01*
X022372Y001678D01*
X022389Y001676D01*
X022539Y001676D01*
X022589Y001726D01*
X024489Y001726D01*
X024539Y001676D01*
X024689Y001676D01*
X024706Y001678D01*
X024723Y001682D01*
X024739Y001689D01*
X024753Y001699D01*
X024766Y001712D01*
X024776Y001726D01*
X024783Y001742D01*
X024787Y001759D01*
X024789Y001776D01*
X024789Y002476D01*
X024787Y002493D01*
X024783Y002510D01*
X024776Y002526D01*
X024766Y002540D01*
X024753Y002553D01*
X024739Y002563D01*
X024723Y002570D01*
X024706Y002574D01*
X024689Y002576D01*
X024539Y002576D01*
X024489Y002526D01*
X022589Y002526D01*
X022539Y002576D01*
X022389Y002576D01*
X022372Y002574D01*
X022355Y002570D01*
X022339Y002563D01*
X022325Y002553D01*
X022312Y002540D01*
X022302Y002526D01*
X022295Y002510D01*
X022291Y002493D01*
X022289Y002476D01*
D16*
X019539Y006826D02*
X019539Y007426D01*
X018539Y007426D02*
X018539Y006826D01*
X017539Y006826D02*
X017539Y007426D01*
X017539Y009326D02*
X017539Y009926D01*
X018539Y009926D02*
X018539Y009326D01*
X019539Y009326D02*
X019539Y009926D01*
X030539Y008926D02*
X030539Y008326D01*
X031539Y008326D02*
X031539Y008926D01*
X032539Y008926D02*
X032539Y008326D01*
X033539Y008326D02*
X033539Y008926D01*
X028839Y017126D02*
X028239Y017126D01*
X028239Y018126D02*
X028839Y018126D01*
X028839Y019126D02*
X028239Y019126D01*
X028239Y020126D02*
X028839Y020126D01*
X028839Y021126D02*
X028239Y021126D01*
X028239Y022126D02*
X028839Y022126D01*
X038239Y022126D02*
X038839Y022126D01*
X038839Y021126D02*
X038239Y021126D01*
X038239Y020126D02*
X038839Y020126D01*
X038839Y019126D02*
X038239Y019126D01*
X038239Y018126D02*
X038839Y018126D01*
X038839Y017126D02*
X038239Y017126D01*
X049239Y017126D02*
X049839Y017126D01*
X049839Y018126D02*
X049239Y018126D01*
X049239Y019126D02*
X049839Y019126D01*
X049839Y020126D02*
X049239Y020126D01*
X049239Y021126D02*
X049839Y021126D01*
X049839Y022126D02*
X049239Y022126D01*
X059739Y022126D02*
X060339Y022126D01*
X060339Y021126D02*
X059739Y021126D01*
X059739Y020126D02*
X060339Y020126D01*
X060339Y019126D02*
X059739Y019126D01*
X059739Y018126D02*
X060339Y018126D01*
X060339Y017126D02*
X059739Y017126D01*
X071739Y017126D02*
X072339Y017126D01*
X072339Y018126D02*
X071739Y018126D01*
X071739Y019126D02*
X072339Y019126D01*
X072339Y020126D02*
X071739Y020126D01*
X071739Y021126D02*
X072339Y021126D01*
X072339Y022126D02*
X071739Y022126D01*
X067039Y027326D02*
X067039Y027926D01*
X066039Y027926D02*
X066039Y027326D01*
X065039Y027326D02*
X065039Y027926D01*
X064039Y027926D02*
X064039Y027326D01*
X063039Y027326D02*
X063039Y027926D01*
X062039Y027926D02*
X062039Y027326D01*
X034539Y033326D02*
X034539Y033926D01*
X033539Y033926D02*
X033539Y033326D01*
X032539Y033326D02*
X032539Y033926D01*
X031539Y033926D02*
X031539Y033326D01*
X030539Y033326D02*
X030539Y033926D01*
X014039Y036826D02*
X014039Y037426D01*
X013039Y037426D02*
X013039Y036826D01*
X012039Y036826D02*
X012039Y037426D01*
D17*
X012039Y037126D03*
X013039Y037126D03*
X014039Y037126D03*
X030539Y033626D03*
X031539Y033626D03*
X032539Y033626D03*
X033539Y033626D03*
X034539Y033626D03*
X038539Y022126D03*
X038539Y021126D03*
X038539Y020126D03*
X038539Y019126D03*
X038539Y018126D03*
X038539Y017126D03*
X028539Y017126D03*
X028539Y018126D03*
X028539Y019126D03*
X028539Y020126D03*
X028539Y021126D03*
X028539Y022126D03*
X049539Y022126D03*
X049539Y021126D03*
X049539Y020126D03*
X049539Y019126D03*
X049539Y018126D03*
X049539Y017126D03*
X060039Y017126D03*
X060039Y018126D03*
X060039Y019126D03*
X060039Y020126D03*
X060039Y021126D03*
X060039Y022126D03*
X062039Y027626D03*
X063039Y027626D03*
X064039Y027626D03*
X065039Y027626D03*
X066039Y027626D03*
X067039Y027626D03*
X072039Y022126D03*
X072039Y021126D03*
X072039Y020126D03*
X072039Y019126D03*
X072039Y018126D03*
X072039Y017126D03*
X033539Y008626D03*
X032539Y008626D03*
X031539Y008626D03*
X030539Y008626D03*
X019539Y009626D03*
X018539Y009626D03*
X017539Y009626D03*
X017539Y007126D03*
X018539Y007126D03*
X019539Y007126D03*
D18*
X079539Y023466D03*
X080539Y024006D03*
X079539Y024546D03*
X080539Y025086D03*
X079539Y025626D03*
X080539Y026166D03*
X079539Y026706D03*
X080539Y027246D03*
X079539Y027786D03*
D19*
X080039Y030556D03*
X080039Y020696D03*
D20*
X080279Y018436D02*
X080174Y018331D01*
X080174Y018121D01*
X080279Y018016D01*
X080174Y017792D02*
X080174Y017371D01*
X080804Y017371D01*
X080489Y017371D02*
X080489Y017582D01*
X080804Y018016D02*
X080384Y018436D01*
X080279Y018436D01*
X080804Y018436D02*
X080804Y018016D01*
X075929Y016291D02*
X075929Y015661D01*
X075719Y015661D02*
X076139Y015661D01*
X075719Y016081D02*
X075929Y016291D01*
X075495Y016186D02*
X075389Y016291D01*
X075179Y016291D01*
X075074Y016186D01*
X075074Y016081D01*
X075179Y015976D01*
X075389Y015976D01*
X075495Y015871D01*
X075495Y015766D01*
X075389Y015661D01*
X075179Y015661D01*
X075074Y015766D01*
X077574Y029082D02*
X077574Y029398D01*
X077679Y029503D01*
X077889Y029503D01*
X077994Y029398D01*
X077994Y029082D01*
X078204Y029082D02*
X077574Y029082D01*
X077679Y029727D02*
X078099Y029727D01*
X078204Y029832D01*
X078204Y030042D01*
X078099Y030147D01*
X078204Y030371D02*
X077784Y030371D01*
X077574Y030582D01*
X077784Y030792D01*
X078204Y030792D01*
X078204Y031016D02*
X077574Y031016D01*
X078204Y031436D01*
X077574Y031436D01*
X077889Y030792D02*
X077889Y030371D01*
X077679Y030147D02*
X077574Y030042D01*
X077574Y029832D01*
X077679Y029727D01*
X042004Y035766D02*
X041899Y035661D01*
X042004Y035766D02*
X042004Y035976D01*
X041899Y036081D01*
X041794Y036081D01*
X041689Y035976D01*
X041689Y035766D01*
X041584Y035661D01*
X041479Y035661D01*
X041374Y035766D01*
X041374Y035976D01*
X041479Y036081D01*
X041479Y036305D02*
X041374Y036410D01*
X041374Y036620D01*
X041479Y036725D01*
X041584Y036725D01*
X042004Y036305D01*
X042004Y036725D01*
X032139Y034761D02*
X031719Y034761D01*
X031929Y034761D02*
X031929Y035391D01*
X031719Y035181D01*
X031495Y035391D02*
X031074Y035391D01*
X031074Y034761D01*
X031074Y035076D02*
X031284Y035076D01*
D21*
X022888Y038976D02*
X022813Y038901D01*
X022663Y038901D01*
X022588Y038976D01*
X022588Y039126D02*
X022738Y039201D01*
X022813Y039201D01*
X022888Y039126D01*
X022888Y038976D01*
X022588Y039126D02*
X022588Y039351D01*
X022888Y039351D01*
X022428Y039351D02*
X022128Y038901D01*
X022428Y038901D02*
X022128Y039351D01*
X016614Y036190D02*
X016614Y035890D01*
X016614Y036040D02*
X016164Y036040D01*
X016314Y035890D01*
X016389Y035730D02*
X016464Y035655D01*
X016464Y035430D01*
X016464Y035580D02*
X016614Y035730D01*
X016389Y035730D02*
X016239Y035730D01*
X016164Y035655D01*
X016164Y035430D01*
X016614Y035430D01*
X019868Y033776D02*
X019943Y033851D01*
X020093Y033851D01*
X020168Y033776D01*
X020168Y033701D01*
X019868Y033401D01*
X020168Y033401D01*
X021808Y033401D02*
X022108Y033401D01*
X021958Y033401D02*
X021958Y033851D01*
X021808Y033701D01*
X016614Y030190D02*
X016614Y029890D01*
X016314Y030190D01*
X016239Y030190D01*
X016164Y030115D01*
X016164Y029965D01*
X016239Y029890D01*
X016239Y029730D02*
X016389Y029730D01*
X016464Y029655D01*
X016464Y029430D01*
X016464Y029580D02*
X016614Y029730D01*
X016614Y029430D02*
X016164Y029430D01*
X016164Y029655D01*
X016239Y029730D01*
X012264Y031055D02*
X012189Y030980D01*
X011889Y030980D01*
X011814Y031055D01*
X011814Y031205D01*
X011889Y031280D01*
X012189Y031280D01*
X012264Y031205D01*
X012264Y031055D01*
X012114Y031130D02*
X012264Y031280D01*
X012264Y031440D02*
X012264Y031740D01*
X012264Y031590D02*
X011814Y031590D01*
X011964Y031440D01*
X011514Y031440D02*
X011439Y031440D01*
X011139Y031740D01*
X011064Y031740D01*
X011064Y031440D01*
X011064Y031205D02*
X011289Y030980D01*
X011289Y031280D01*
X011514Y031205D02*
X011064Y031205D01*
X011064Y030820D02*
X011064Y030519D01*
X011289Y030519D01*
X011214Y030670D01*
X011214Y030745D01*
X011289Y030820D01*
X011439Y030820D01*
X011514Y030745D01*
X011514Y030594D01*
X011439Y030519D01*
X011439Y030359D02*
X011514Y030284D01*
X011514Y030134D01*
X011439Y030059D01*
X011139Y030059D01*
X011064Y030134D01*
X011064Y030284D01*
X011139Y030359D01*
X011139Y029899D02*
X011214Y029899D01*
X011289Y029824D01*
X011289Y029599D01*
X011289Y029824D02*
X011364Y029899D01*
X011439Y029899D01*
X011514Y029824D01*
X011514Y029599D01*
X011064Y029599D01*
X011064Y029824D01*
X011139Y029899D01*
X009764Y029195D02*
X009764Y028894D01*
X009764Y029045D02*
X009314Y029045D01*
X009464Y028894D01*
X010889Y028450D02*
X010889Y026801D01*
X011439Y026738D02*
X011439Y026580D01*
X011139Y026240D02*
X011439Y025940D01*
X011514Y025940D01*
X011514Y025705D02*
X011064Y025705D01*
X011289Y025480D01*
X011289Y025780D01*
X011064Y025940D02*
X011064Y026240D01*
X011139Y026240D01*
X011814Y026165D02*
X011814Y026015D01*
X011889Y025940D01*
X011889Y025780D02*
X012189Y025780D01*
X012264Y025705D01*
X012264Y025555D01*
X012189Y025480D01*
X011889Y025480D01*
X011814Y025555D01*
X011814Y025705D01*
X011889Y025780D01*
X012114Y025630D02*
X012264Y025780D01*
X012264Y025940D02*
X011964Y026240D01*
X011889Y026240D01*
X011814Y026165D01*
X012264Y026240D02*
X012264Y025940D01*
X012964Y026451D02*
X012964Y026676D01*
X013039Y026751D01*
X013189Y026751D01*
X013264Y026676D01*
X013264Y026451D01*
X013264Y026601D02*
X013414Y026751D01*
X013339Y026911D02*
X013264Y026911D01*
X013189Y026986D01*
X013189Y027136D01*
X013264Y027211D01*
X013339Y027211D01*
X013414Y027136D01*
X013414Y026986D01*
X013339Y026911D01*
X013189Y026986D02*
X013114Y026911D01*
X013039Y026911D01*
X012964Y026986D01*
X012964Y027136D01*
X013039Y027211D01*
X013114Y027211D01*
X013189Y027136D01*
X013414Y026451D02*
X012964Y026451D01*
X011439Y027513D02*
X011439Y027738D01*
X010889Y028451D02*
X010937Y028486D01*
X010987Y028519D01*
X011039Y028550D01*
X011093Y028577D01*
X011148Y028601D01*
X011205Y028621D01*
X011262Y028639D01*
X011320Y028653D01*
X011379Y028664D01*
X011439Y028671D01*
X011439Y028513D01*
X011439Y028671D02*
X011501Y028675D01*
X011564Y028676D01*
X011626Y028672D01*
X011688Y028665D01*
X011749Y028655D01*
X011810Y028640D01*
X011870Y028622D01*
X011929Y028601D01*
X011986Y028576D01*
X012041Y028548D01*
X012095Y028517D01*
X012147Y028482D01*
X012197Y028444D01*
X012244Y028404D01*
X012289Y028360D01*
X012332Y028315D01*
X012371Y028266D01*
X012408Y028216D01*
X012441Y028163D01*
X012472Y028109D01*
X012499Y028052D01*
X012522Y027995D01*
X012542Y027936D01*
X012542Y027316D02*
X012522Y027256D01*
X012498Y027197D01*
X012470Y027140D01*
X012439Y027085D01*
X012404Y027031D01*
X012367Y026980D01*
X012326Y026931D01*
X012282Y026885D01*
X012236Y026841D01*
X012187Y026800D01*
X012136Y026762D01*
X012083Y026728D01*
X012027Y026696D01*
X011970Y026669D01*
X011911Y026644D01*
X011851Y026624D01*
X011790Y026606D01*
X011728Y026593D01*
X011665Y026584D01*
X011602Y026578D01*
X011538Y026576D01*
X011474Y026578D01*
X011411Y026584D01*
X011348Y026593D01*
X011286Y026607D01*
X011225Y026624D01*
X011165Y026645D01*
X011106Y026669D01*
X011049Y026697D01*
X010993Y026729D01*
X010940Y026764D01*
X010889Y026801D01*
X009764Y026954D02*
X009764Y027255D01*
X009464Y027255D02*
X009764Y026954D01*
X009389Y026954D02*
X009314Y027030D01*
X009314Y027180D01*
X009389Y027255D01*
X009464Y027255D01*
X011064Y025320D02*
X011064Y025019D01*
X011289Y025019D01*
X011214Y025170D01*
X011214Y025245D01*
X011289Y025320D01*
X011439Y025320D01*
X011514Y025245D01*
X011514Y025094D01*
X011439Y025019D01*
X011439Y024859D02*
X011514Y024784D01*
X011514Y024634D01*
X011439Y024559D01*
X011139Y024559D01*
X011064Y024634D01*
X011064Y024784D01*
X011139Y024859D01*
X011139Y024399D02*
X011214Y024399D01*
X011289Y024324D01*
X011289Y024099D01*
X011289Y024324D02*
X011364Y024399D01*
X011439Y024399D01*
X011514Y024324D01*
X011514Y024099D01*
X011064Y024099D01*
X011064Y024324D01*
X011139Y024399D01*
X009764Y023695D02*
X009764Y023394D01*
X009764Y023545D02*
X009314Y023545D01*
X009464Y023394D01*
X010889Y022950D02*
X010889Y021301D01*
X011439Y021238D02*
X011439Y021080D01*
X011139Y020740D02*
X011439Y020440D01*
X011514Y020440D01*
X011514Y020205D02*
X011064Y020205D01*
X011289Y019980D01*
X011289Y020280D01*
X011064Y020440D02*
X011064Y020740D01*
X011139Y020740D01*
X011814Y020665D02*
X011889Y020740D01*
X011964Y020740D01*
X012039Y020665D01*
X012114Y020740D01*
X012189Y020740D01*
X012264Y020665D01*
X012264Y020515D01*
X012189Y020440D01*
X012189Y020280D02*
X012264Y020205D01*
X012264Y020055D01*
X012189Y019980D01*
X011889Y019980D01*
X011814Y020055D01*
X011814Y020205D01*
X011889Y020280D01*
X012189Y020280D01*
X012264Y020280D02*
X012114Y020130D01*
X011889Y020440D02*
X011814Y020515D01*
X011814Y020665D01*
X012039Y020665D02*
X012039Y020590D01*
X011439Y019820D02*
X011289Y019820D01*
X011214Y019745D01*
X011214Y019670D01*
X011289Y019519D01*
X011064Y019519D01*
X011064Y019820D01*
X011439Y019820D02*
X011514Y019745D01*
X011514Y019594D01*
X011439Y019519D01*
X011439Y019359D02*
X011514Y019284D01*
X011514Y019134D01*
X011439Y019059D01*
X011139Y019059D01*
X011064Y019134D01*
X011064Y019284D01*
X011139Y019359D01*
X011139Y018899D02*
X011214Y018899D01*
X011289Y018824D01*
X011289Y018599D01*
X011289Y018824D02*
X011364Y018899D01*
X011439Y018899D01*
X011514Y018824D01*
X011514Y018599D01*
X011064Y018599D01*
X011064Y018824D01*
X011139Y018899D01*
X009764Y018195D02*
X009764Y017894D01*
X009764Y018045D02*
X009314Y018045D01*
X009464Y017894D01*
X010889Y017450D02*
X010889Y015801D01*
X011439Y015738D02*
X011439Y015580D01*
X011139Y015240D02*
X011439Y014940D01*
X011514Y014940D01*
X011514Y014705D02*
X011064Y014705D01*
X011289Y014480D01*
X011289Y014780D01*
X011064Y014940D02*
X011064Y015240D01*
X011139Y015240D01*
X011814Y015165D02*
X012039Y014940D01*
X012039Y015240D01*
X012264Y015165D02*
X011814Y015165D01*
X011889Y014780D02*
X012189Y014780D01*
X012264Y014705D01*
X012264Y014555D01*
X012189Y014480D01*
X011889Y014480D01*
X011814Y014555D01*
X011814Y014705D01*
X011889Y014780D01*
X012114Y014630D02*
X012264Y014780D01*
X012964Y014951D02*
X012964Y015176D01*
X013039Y015251D01*
X013189Y015251D01*
X013264Y015176D01*
X013264Y014951D01*
X013264Y015101D02*
X013414Y015251D01*
X013414Y015411D02*
X013414Y015711D01*
X013414Y015561D02*
X012964Y015561D01*
X013114Y015411D01*
X013039Y015871D02*
X012964Y015946D01*
X012964Y016097D01*
X013039Y016172D01*
X013339Y015871D01*
X013414Y015946D01*
X013414Y016097D01*
X013339Y016172D01*
X013039Y016172D01*
X013039Y015871D02*
X013339Y015871D01*
X013414Y014951D02*
X012964Y014951D01*
X011514Y014245D02*
X011514Y014094D01*
X011439Y014019D01*
X011289Y014019D02*
X011214Y014170D01*
X011214Y014245D01*
X011289Y014320D01*
X011439Y014320D01*
X011514Y014245D01*
X011289Y014019D02*
X011064Y014019D01*
X011064Y014320D01*
X011139Y013859D02*
X011064Y013784D01*
X011064Y013634D01*
X011139Y013559D01*
X011439Y013559D01*
X011514Y013634D01*
X011514Y013784D01*
X011439Y013859D01*
X011439Y013399D02*
X011514Y013324D01*
X011514Y013099D01*
X011064Y013099D01*
X011064Y013324D01*
X011139Y013399D01*
X011214Y013399D01*
X011289Y013324D01*
X011289Y013099D01*
X011289Y013324D02*
X011364Y013399D01*
X011439Y013399D01*
X009764Y012695D02*
X009764Y012394D01*
X009764Y012545D02*
X009314Y012545D01*
X009464Y012394D01*
X010889Y010950D02*
X010889Y009301D01*
X011439Y009238D02*
X011439Y009080D01*
X011139Y008740D02*
X011439Y008440D01*
X011514Y008440D01*
X011514Y008205D02*
X011064Y008205D01*
X011289Y007980D01*
X011289Y008280D01*
X011064Y008440D02*
X011064Y008740D01*
X011139Y008740D01*
X011814Y008740D02*
X011814Y008440D01*
X012039Y008440D01*
X011964Y008590D01*
X011964Y008665D01*
X012039Y008740D01*
X012189Y008740D01*
X012264Y008665D01*
X012264Y008515D01*
X012189Y008440D01*
X012189Y008280D02*
X012264Y008205D01*
X012264Y008055D01*
X012189Y007980D01*
X011889Y007980D01*
X011814Y008055D01*
X011814Y008205D01*
X011889Y008280D01*
X012189Y008280D01*
X012264Y008280D02*
X012114Y008130D01*
X011514Y007745D02*
X011439Y007820D01*
X011289Y007820D01*
X011214Y007745D01*
X011214Y007670D01*
X011289Y007519D01*
X011064Y007519D01*
X011064Y007820D01*
X011514Y007745D02*
X011514Y007594D01*
X011439Y007519D01*
X011439Y007359D02*
X011514Y007284D01*
X011514Y007134D01*
X011439Y007059D01*
X011139Y007059D01*
X011064Y007134D01*
X011064Y007284D01*
X011139Y007359D01*
X011139Y006899D02*
X011214Y006899D01*
X011289Y006824D01*
X011289Y006599D01*
X011289Y006824D02*
X011364Y006899D01*
X011439Y006899D01*
X011514Y006824D01*
X011514Y006599D01*
X011064Y006599D01*
X011064Y006824D01*
X011139Y006899D01*
X009764Y006695D02*
X009764Y006394D01*
X009764Y006545D02*
X009314Y006545D01*
X009464Y006394D01*
X010889Y005450D02*
X010889Y003801D01*
X011439Y003738D02*
X011439Y003580D01*
X011139Y003240D02*
X011439Y002940D01*
X011514Y002940D01*
X011514Y002705D02*
X011064Y002705D01*
X011289Y002480D01*
X011289Y002780D01*
X011064Y002940D02*
X011064Y003240D01*
X011139Y003240D01*
X011814Y003240D02*
X011889Y003090D01*
X012039Y002940D01*
X012039Y003165D01*
X012114Y003240D01*
X012189Y003240D01*
X012264Y003165D01*
X012264Y003015D01*
X012189Y002940D01*
X012039Y002940D01*
X012189Y002780D02*
X012264Y002705D01*
X012264Y002555D01*
X012189Y002480D01*
X011889Y002480D01*
X011814Y002555D01*
X011814Y002705D01*
X011889Y002780D01*
X012189Y002780D01*
X012264Y002780D02*
X012114Y002630D01*
X011514Y002245D02*
X011514Y002094D01*
X011439Y002019D01*
X011289Y002019D02*
X011214Y002170D01*
X011214Y002245D01*
X011289Y002320D01*
X011439Y002320D01*
X011514Y002245D01*
X011289Y002019D02*
X011064Y002019D01*
X011064Y002320D01*
X011139Y001859D02*
X011064Y001784D01*
X011064Y001634D01*
X011139Y001559D01*
X011439Y001559D01*
X011514Y001634D01*
X011514Y001784D01*
X011439Y001859D01*
X011439Y001399D02*
X011514Y001324D01*
X011514Y001099D01*
X011064Y001099D01*
X011064Y001324D01*
X011139Y001399D01*
X011214Y001399D01*
X011289Y001324D01*
X011289Y001099D01*
X011289Y001324D02*
X011364Y001399D01*
X011439Y001399D01*
X015973Y003441D02*
X016273Y003441D01*
X016433Y003441D02*
X016733Y003441D01*
X016893Y003441D02*
X017119Y003441D01*
X017194Y003516D01*
X017194Y003816D01*
X017119Y003891D01*
X016893Y003891D01*
X016893Y003441D01*
X016583Y003666D02*
X016433Y003666D01*
X016433Y003891D02*
X016433Y003441D01*
X015973Y003441D02*
X015973Y003891D01*
X016433Y003891D02*
X016733Y003891D01*
X017354Y003741D02*
X017504Y003891D01*
X017504Y003441D01*
X017354Y003441D02*
X017654Y003441D01*
X015114Y004469D02*
X014664Y004469D01*
X014664Y004695D01*
X014739Y004770D01*
X014889Y004770D01*
X014964Y004695D01*
X014964Y004469D01*
X014964Y004620D02*
X015114Y004770D01*
X015114Y004930D02*
X015114Y005230D01*
X015114Y005080D02*
X014664Y005080D01*
X014814Y004930D01*
X014739Y005390D02*
X014664Y005465D01*
X014664Y005615D01*
X014739Y005690D01*
X014814Y005690D01*
X015114Y005390D01*
X015114Y005690D01*
X016164Y007430D02*
X016164Y007655D01*
X016239Y007730D01*
X016389Y007730D01*
X016464Y007655D01*
X016464Y007430D01*
X016464Y007580D02*
X016614Y007730D01*
X016539Y007890D02*
X016614Y007965D01*
X016614Y008115D01*
X016539Y008190D01*
X016464Y008190D01*
X016389Y008115D01*
X016389Y007890D01*
X016539Y007890D01*
X016389Y007890D02*
X016239Y008040D01*
X016164Y008190D01*
X016164Y007430D02*
X016614Y007430D01*
X015114Y009969D02*
X014664Y009969D01*
X014664Y010195D01*
X014739Y010270D01*
X014889Y010270D01*
X014964Y010195D01*
X014964Y009969D01*
X014964Y010120D02*
X015114Y010270D01*
X015114Y010430D02*
X015114Y010730D01*
X015114Y010580D02*
X014664Y010580D01*
X014814Y010430D01*
X014814Y010890D02*
X014664Y011040D01*
X015114Y011040D01*
X015114Y010890D02*
X015114Y011190D01*
X016164Y012930D02*
X016164Y013155D01*
X016239Y013230D01*
X016389Y013230D01*
X016464Y013155D01*
X016464Y012930D01*
X016464Y013080D02*
X016614Y013230D01*
X016539Y013390D02*
X016614Y013465D01*
X016614Y013615D01*
X016539Y013690D01*
X016389Y013690D01*
X016314Y013615D01*
X016314Y013540D01*
X016389Y013390D01*
X016164Y013390D01*
X016164Y013690D01*
X016164Y012930D02*
X016614Y012930D01*
X011439Y011171D02*
X011439Y011013D01*
X011439Y010238D02*
X011439Y010013D01*
X010889Y010951D02*
X010937Y010986D01*
X010987Y011019D01*
X011039Y011050D01*
X011093Y011077D01*
X011148Y011101D01*
X011205Y011121D01*
X011262Y011139D01*
X011320Y011153D01*
X011379Y011164D01*
X011439Y011171D01*
X011501Y011175D01*
X011564Y011176D01*
X011626Y011172D01*
X011688Y011165D01*
X011749Y011155D01*
X011810Y011140D01*
X011870Y011122D01*
X011929Y011101D01*
X011986Y011076D01*
X012041Y011048D01*
X012095Y011017D01*
X012147Y010982D01*
X012197Y010944D01*
X012244Y010904D01*
X012289Y010860D01*
X012332Y010815D01*
X012371Y010766D01*
X012408Y010716D01*
X012441Y010663D01*
X012472Y010609D01*
X012499Y010552D01*
X012522Y010495D01*
X012542Y010436D01*
X012542Y009816D02*
X012522Y009756D01*
X012498Y009697D01*
X012470Y009640D01*
X012439Y009585D01*
X012404Y009531D01*
X012367Y009480D01*
X012326Y009431D01*
X012282Y009385D01*
X012236Y009341D01*
X012187Y009300D01*
X012136Y009262D01*
X012083Y009228D01*
X012027Y009196D01*
X011970Y009169D01*
X011911Y009144D01*
X011851Y009124D01*
X011790Y009106D01*
X011728Y009093D01*
X011665Y009084D01*
X011602Y009078D01*
X011538Y009076D01*
X011474Y009078D01*
X011411Y009084D01*
X011348Y009093D01*
X011286Y009107D01*
X011225Y009124D01*
X011165Y009145D01*
X011106Y009169D01*
X011049Y009197D01*
X010993Y009229D01*
X010940Y009264D01*
X010889Y009301D01*
X009764Y010454D02*
X009464Y010755D01*
X009389Y010755D01*
X009314Y010680D01*
X009314Y010530D01*
X009389Y010454D01*
X009764Y010454D02*
X009764Y010755D01*
X004264Y012254D02*
X003814Y012554D01*
X003964Y012714D02*
X003814Y012864D01*
X004264Y012864D01*
X004264Y012714D02*
X004264Y013014D01*
X004264Y013174D02*
X003964Y013475D01*
X003889Y013475D01*
X003814Y013400D01*
X003814Y013250D01*
X003889Y013174D01*
X004264Y013174D02*
X004264Y013475D01*
X004264Y012554D02*
X003814Y012254D01*
X009314Y016030D02*
X009389Y015954D01*
X009314Y016030D02*
X009314Y016180D01*
X009389Y016255D01*
X009464Y016255D01*
X009764Y015954D01*
X009764Y016255D01*
X011439Y016513D02*
X011439Y016738D01*
X010889Y017451D02*
X010937Y017486D01*
X010987Y017519D01*
X011039Y017550D01*
X011093Y017577D01*
X011148Y017601D01*
X011205Y017621D01*
X011262Y017639D01*
X011320Y017653D01*
X011379Y017664D01*
X011439Y017671D01*
X011439Y017513D01*
X011439Y017671D02*
X011501Y017675D01*
X011564Y017676D01*
X011626Y017672D01*
X011688Y017665D01*
X011749Y017655D01*
X011810Y017640D01*
X011870Y017622D01*
X011929Y017601D01*
X011986Y017576D01*
X012041Y017548D01*
X012095Y017517D01*
X012147Y017482D01*
X012197Y017444D01*
X012244Y017404D01*
X012289Y017360D01*
X012332Y017315D01*
X012371Y017266D01*
X012408Y017216D01*
X012441Y017163D01*
X012472Y017109D01*
X012499Y017052D01*
X012522Y016995D01*
X012542Y016936D01*
X012542Y016316D02*
X012522Y016256D01*
X012498Y016197D01*
X012470Y016140D01*
X012439Y016085D01*
X012404Y016031D01*
X012367Y015980D01*
X012326Y015931D01*
X012282Y015885D01*
X012236Y015841D01*
X012187Y015800D01*
X012136Y015762D01*
X012083Y015728D01*
X012027Y015696D01*
X011970Y015669D01*
X011911Y015644D01*
X011851Y015624D01*
X011790Y015606D01*
X011728Y015593D01*
X011665Y015584D01*
X011602Y015578D01*
X011538Y015576D01*
X011474Y015578D01*
X011411Y015584D01*
X011348Y015593D01*
X011286Y015607D01*
X011225Y015624D01*
X011165Y015645D01*
X011106Y015669D01*
X011049Y015697D01*
X010993Y015729D01*
X010940Y015764D01*
X010889Y015801D01*
X016164Y018430D02*
X016164Y018655D01*
X016239Y018730D01*
X016389Y018730D01*
X016464Y018655D01*
X016464Y018430D01*
X016464Y018580D02*
X016614Y018730D01*
X016389Y018890D02*
X016389Y019190D01*
X016614Y019115D02*
X016164Y019115D01*
X016389Y018890D01*
X016614Y018430D02*
X016164Y018430D01*
X009764Y021454D02*
X009464Y021755D01*
X009389Y021755D01*
X009314Y021680D01*
X009314Y021530D01*
X009389Y021454D01*
X009764Y021454D02*
X009764Y021755D01*
X011439Y022013D02*
X011439Y022238D01*
X010889Y022951D02*
X010937Y022986D01*
X010987Y023019D01*
X011039Y023050D01*
X011093Y023077D01*
X011148Y023101D01*
X011205Y023121D01*
X011262Y023139D01*
X011320Y023153D01*
X011379Y023164D01*
X011439Y023171D01*
X011439Y023013D01*
X011439Y023171D02*
X011501Y023175D01*
X011564Y023176D01*
X011626Y023172D01*
X011688Y023165D01*
X011749Y023155D01*
X011810Y023140D01*
X011870Y023122D01*
X011929Y023101D01*
X011986Y023076D01*
X012041Y023048D01*
X012095Y023017D01*
X012147Y022982D01*
X012197Y022944D01*
X012244Y022904D01*
X012289Y022860D01*
X012332Y022815D01*
X012371Y022766D01*
X012408Y022716D01*
X012441Y022663D01*
X012472Y022609D01*
X012499Y022552D01*
X012522Y022495D01*
X012542Y022436D01*
X012542Y021816D02*
X012522Y021756D01*
X012498Y021697D01*
X012470Y021640D01*
X012439Y021585D01*
X012404Y021531D01*
X012367Y021480D01*
X012326Y021431D01*
X012282Y021385D01*
X012236Y021341D01*
X012187Y021300D01*
X012136Y021262D01*
X012083Y021228D01*
X012027Y021196D01*
X011970Y021169D01*
X011911Y021144D01*
X011851Y021124D01*
X011790Y021106D01*
X011728Y021093D01*
X011665Y021084D01*
X011602Y021078D01*
X011538Y021076D01*
X011474Y021078D01*
X011411Y021084D01*
X011348Y021093D01*
X011286Y021107D01*
X011225Y021124D01*
X011165Y021145D01*
X011106Y021169D01*
X011049Y021197D01*
X010993Y021229D01*
X010940Y021264D01*
X010889Y021301D01*
X014464Y022451D02*
X014464Y022676D01*
X014539Y022751D01*
X014689Y022751D01*
X014764Y022676D01*
X014764Y022451D01*
X014664Y022430D02*
X014664Y022655D01*
X014739Y022730D01*
X014889Y022730D01*
X014964Y022655D01*
X014964Y022430D01*
X014914Y022451D02*
X014464Y022451D01*
X014664Y022430D02*
X015114Y022430D01*
X014964Y022580D02*
X015114Y022730D01*
X015039Y022890D02*
X015114Y022965D01*
X015114Y023115D01*
X015039Y023190D01*
X014739Y023190D01*
X014664Y023115D01*
X014664Y022965D01*
X014739Y022890D01*
X014814Y022890D01*
X014889Y022965D01*
X014889Y023190D01*
X014839Y023211D02*
X014914Y023136D01*
X014914Y022986D01*
X014839Y022911D01*
X014914Y022751D02*
X014764Y022601D01*
X014539Y022911D02*
X014464Y022986D01*
X014464Y023136D01*
X014539Y023211D01*
X014614Y023211D01*
X014689Y023136D01*
X014764Y023211D01*
X014839Y023211D01*
X014689Y023136D02*
X014689Y023061D01*
X022964Y022097D02*
X022964Y021946D01*
X023039Y021871D01*
X023189Y022022D02*
X023189Y022097D01*
X023264Y022172D01*
X023339Y022172D01*
X023414Y022097D01*
X023414Y021946D01*
X023339Y021871D01*
X023414Y021711D02*
X023414Y021411D01*
X023414Y021561D02*
X022964Y021561D01*
X023114Y021411D01*
X023189Y021251D02*
X023264Y021176D01*
X023264Y020951D01*
X023264Y021101D02*
X023414Y021251D01*
X023189Y021251D02*
X023039Y021251D01*
X022964Y021176D01*
X022964Y020951D01*
X023414Y020951D01*
X023189Y022097D02*
X023114Y022172D01*
X023039Y022172D01*
X022964Y022097D01*
X004264Y023254D02*
X003814Y023554D01*
X003964Y023714D02*
X003814Y023864D01*
X004264Y023864D01*
X004264Y023714D02*
X004264Y024014D01*
X004189Y024174D02*
X003889Y024475D01*
X004189Y024475D01*
X004264Y024400D01*
X004264Y024250D01*
X004189Y024174D01*
X003889Y024174D01*
X003814Y024250D01*
X003814Y024400D01*
X003889Y024475D01*
X004264Y023554D02*
X003814Y023254D01*
X004264Y018975D02*
X004264Y018674D01*
X004264Y018825D02*
X003814Y018825D01*
X003964Y018674D01*
X004264Y018514D02*
X004264Y018214D01*
X004264Y018364D02*
X003814Y018364D01*
X003964Y018214D01*
X003814Y018054D02*
X004264Y017754D01*
X004264Y018054D02*
X003814Y017754D01*
X003889Y007475D02*
X003964Y007475D01*
X004039Y007400D01*
X004114Y007475D01*
X004189Y007475D01*
X004264Y007400D01*
X004264Y007250D01*
X004189Y007174D01*
X004264Y007014D02*
X004264Y006714D01*
X004264Y006864D02*
X003814Y006864D01*
X003964Y006714D01*
X003814Y006554D02*
X004264Y006254D01*
X004264Y006554D02*
X003814Y006254D01*
X003889Y007174D02*
X003814Y007250D01*
X003814Y007400D01*
X003889Y007475D01*
X004039Y007400D02*
X004039Y007325D01*
X009314Y004680D02*
X009314Y004530D01*
X009389Y004454D01*
X009314Y004680D02*
X009389Y004755D01*
X009464Y004755D01*
X009764Y004454D01*
X009764Y004755D01*
X011439Y004738D02*
X011439Y004513D01*
X010889Y005451D02*
X010937Y005486D01*
X010987Y005519D01*
X011039Y005550D01*
X011093Y005577D01*
X011148Y005601D01*
X011205Y005621D01*
X011262Y005639D01*
X011320Y005653D01*
X011379Y005664D01*
X011439Y005671D01*
X011439Y005513D01*
X011439Y005671D02*
X011501Y005675D01*
X011564Y005676D01*
X011626Y005672D01*
X011688Y005665D01*
X011749Y005655D01*
X011810Y005640D01*
X011870Y005622D01*
X011929Y005601D01*
X011986Y005576D01*
X012041Y005548D01*
X012095Y005517D01*
X012147Y005482D01*
X012197Y005444D01*
X012244Y005404D01*
X012289Y005360D01*
X012332Y005315D01*
X012371Y005266D01*
X012408Y005216D01*
X012441Y005163D01*
X012472Y005109D01*
X012499Y005052D01*
X012522Y004995D01*
X012542Y004936D01*
X012542Y004316D02*
X012522Y004256D01*
X012498Y004197D01*
X012470Y004140D01*
X012439Y004085D01*
X012404Y004031D01*
X012367Y003980D01*
X012326Y003931D01*
X012282Y003885D01*
X012236Y003841D01*
X012187Y003800D01*
X012136Y003762D01*
X012083Y003728D01*
X012027Y003696D01*
X011970Y003669D01*
X011911Y003644D01*
X011851Y003624D01*
X011790Y003606D01*
X011728Y003593D01*
X011665Y003584D01*
X011602Y003578D01*
X011538Y003576D01*
X011474Y003578D01*
X011411Y003584D01*
X011348Y003593D01*
X011286Y003607D01*
X011225Y003624D01*
X011165Y003645D01*
X011106Y003669D01*
X011049Y003697D01*
X010993Y003729D01*
X010940Y003764D01*
X010889Y003801D01*
X023383Y001501D02*
X023383Y001051D01*
X023383Y001201D02*
X023608Y001201D01*
X023683Y001276D01*
X023683Y001426D01*
X023608Y001501D01*
X023383Y001501D01*
X023533Y001201D02*
X023683Y001051D01*
X023843Y001051D02*
X024144Y001051D01*
X023994Y001051D02*
X023994Y001501D01*
X023843Y001351D01*
X024304Y001276D02*
X024529Y001276D01*
X024604Y001201D01*
X024604Y001126D01*
X024529Y001051D01*
X024379Y001051D01*
X024304Y001126D01*
X024304Y001276D01*
X024454Y001426D01*
X024604Y001501D01*
X044580Y000851D02*
X044880Y000401D01*
X045040Y000626D02*
X045341Y000626D01*
X045266Y000851D02*
X045040Y000626D01*
X044880Y000851D02*
X044580Y000401D01*
X045266Y000401D02*
X045266Y000851D01*
X049580Y000851D02*
X049880Y000401D01*
X050040Y000401D02*
X050341Y000401D01*
X050190Y000401D02*
X050190Y000851D01*
X050040Y000701D01*
X049880Y000851D02*
X049580Y000401D01*
X050501Y000626D02*
X050801Y000626D01*
X050726Y000851D02*
X050501Y000626D01*
X050726Y000401D02*
X050726Y000851D01*
X058383Y001051D02*
X058383Y001501D01*
X058608Y001501D01*
X058683Y001426D01*
X058683Y001276D01*
X058608Y001201D01*
X058383Y001201D01*
X058533Y001201D02*
X058683Y001051D01*
X058843Y001051D02*
X059144Y001051D01*
X058994Y001051D02*
X058994Y001501D01*
X058843Y001351D01*
X059304Y001276D02*
X059304Y001501D01*
X059604Y001501D01*
X059529Y001351D02*
X059604Y001276D01*
X059604Y001126D01*
X059529Y001051D01*
X059379Y001051D01*
X059304Y001126D01*
X059304Y001276D02*
X059454Y001351D01*
X059529Y001351D01*
X052600Y005901D02*
X052300Y005901D01*
X052600Y006201D01*
X052600Y006276D01*
X052525Y006351D01*
X052375Y006351D01*
X052300Y006276D01*
X050660Y005901D02*
X050360Y005901D01*
X050510Y005901D02*
X050510Y006351D01*
X050360Y006201D01*
X047600Y006201D02*
X047300Y005901D01*
X047600Y005901D01*
X047600Y006201D02*
X047600Y006276D01*
X047525Y006351D01*
X047375Y006351D01*
X047300Y006276D01*
X045660Y005901D02*
X045360Y005901D01*
X045510Y005901D02*
X045510Y006351D01*
X045360Y006201D01*
X069854Y013901D02*
X070304Y013901D01*
X070304Y014201D01*
X070304Y014361D02*
X070304Y014661D01*
X070304Y014821D02*
X070304Y015047D01*
X070229Y015122D01*
X069929Y015122D01*
X069854Y015047D01*
X069854Y014821D01*
X070304Y014821D01*
X070079Y014511D02*
X070079Y014361D01*
X069854Y014361D02*
X070304Y014361D01*
X069854Y014361D02*
X069854Y014661D01*
X069929Y015282D02*
X069854Y015357D01*
X069854Y015507D01*
X069929Y015582D01*
X070004Y015582D01*
X070304Y015282D01*
X070304Y015582D01*
X072464Y012172D02*
X072539Y012172D01*
X072839Y011871D01*
X072914Y011871D01*
X072914Y011711D02*
X072914Y011411D01*
X072914Y011561D02*
X072464Y011561D01*
X072614Y011411D01*
X072689Y011251D02*
X072764Y011176D01*
X072764Y010951D01*
X072764Y011101D02*
X072914Y011251D01*
X072689Y011251D02*
X072539Y011251D01*
X072464Y011176D01*
X072464Y010951D01*
X072914Y010951D01*
X072464Y011871D02*
X072464Y012172D01*
X078010Y006351D02*
X078010Y005901D01*
X077860Y005901D02*
X078160Y005901D01*
X077860Y006201D02*
X078010Y006351D01*
X079800Y006276D02*
X079875Y006351D01*
X080025Y006351D01*
X080100Y006276D01*
X080100Y006201D01*
X079800Y005901D01*
X080100Y005901D01*
X077766Y000851D02*
X077615Y000851D01*
X077540Y000776D01*
X077380Y000851D02*
X077080Y000401D01*
X077380Y000401D02*
X077080Y000851D01*
X077540Y000476D02*
X077615Y000401D01*
X077766Y000401D01*
X077841Y000476D01*
X077841Y000551D01*
X077766Y000626D01*
X077690Y000626D01*
X077766Y000626D02*
X077841Y000701D01*
X077841Y000776D01*
X077766Y000851D01*
X081525Y019600D02*
X081675Y019751D01*
X081600Y019751D01*
X081600Y019826D01*
X081675Y019826D01*
X081675Y019751D01*
X081832Y019826D02*
X081907Y019751D01*
X082057Y019751D01*
X082132Y019826D01*
X082132Y019976D01*
X082057Y020051D01*
X081982Y020051D01*
X081832Y019976D01*
X081832Y020201D01*
X082132Y020201D01*
X082292Y019976D02*
X082592Y019976D01*
X082517Y020201D02*
X082292Y019976D01*
X082517Y019751D02*
X082517Y020201D01*
X081364Y020126D02*
X081289Y020201D01*
X081139Y020201D01*
X081064Y020126D01*
X081364Y020126D02*
X081364Y020051D01*
X081064Y019751D01*
X081364Y019751D01*
X080689Y022440D02*
X080764Y022515D01*
X080764Y022665D01*
X080689Y022740D01*
X080389Y022740D01*
X080314Y022665D01*
X080314Y022515D01*
X080389Y022440D01*
X080464Y022440D01*
X080539Y022515D01*
X080539Y022740D01*
X079764Y022665D02*
X079764Y022515D01*
X079689Y022440D01*
X079539Y022440D02*
X079464Y022590D01*
X079464Y022665D01*
X079539Y022740D01*
X079689Y022740D01*
X079764Y022665D01*
X079539Y022440D02*
X079314Y022440D01*
X079314Y022740D01*
X075414Y022097D02*
X074964Y022097D01*
X075189Y021871D01*
X075189Y022172D01*
X075414Y021711D02*
X075414Y021411D01*
X075414Y021561D02*
X074964Y021561D01*
X075114Y021411D01*
X075189Y021251D02*
X075264Y021176D01*
X075264Y020951D01*
X075264Y021101D02*
X075414Y021251D01*
X075189Y021251D02*
X075039Y021251D01*
X074964Y021176D01*
X074964Y020951D01*
X075414Y020951D01*
X083414Y027269D02*
X083414Y027570D01*
X083489Y027730D02*
X083414Y027805D01*
X083414Y027955D01*
X083489Y028030D01*
X083789Y027730D01*
X083864Y027805D01*
X083864Y027955D01*
X083789Y028030D01*
X083489Y028030D01*
X083489Y028190D02*
X083564Y028190D01*
X083639Y028265D01*
X083639Y028490D01*
X083789Y028490D02*
X083489Y028490D01*
X083414Y028415D01*
X083414Y028265D01*
X083489Y028190D01*
X083789Y028190D02*
X083864Y028265D01*
X083864Y028415D01*
X083789Y028490D01*
X083789Y027730D02*
X083489Y027730D01*
X083639Y027420D02*
X083639Y027269D01*
X083864Y027269D02*
X083414Y027269D01*
X080764Y028265D02*
X080764Y028415D01*
X080689Y028490D01*
X080614Y028490D01*
X080539Y028415D01*
X080539Y028190D01*
X080689Y028190D01*
X080764Y028265D01*
X080539Y028190D02*
X080389Y028340D01*
X080314Y028490D01*
X079764Y028490D02*
X079764Y028190D01*
X079764Y028340D02*
X079314Y028340D01*
X079464Y028190D01*
X079108Y032901D02*
X078808Y032901D01*
X078958Y032901D02*
X078958Y033351D01*
X078808Y033201D01*
X077168Y033201D02*
X076868Y032901D01*
X077168Y032901D01*
X077168Y033201D02*
X077168Y033276D01*
X077093Y033351D01*
X076943Y033351D01*
X076868Y033276D01*
X079128Y038401D02*
X079428Y038851D01*
X079588Y038851D02*
X079888Y038851D01*
X079888Y038776D01*
X079588Y038476D01*
X079588Y038401D01*
X079428Y038401D02*
X079128Y038851D01*
X053888Y038976D02*
X053888Y039051D01*
X053813Y039126D01*
X053588Y039126D01*
X053588Y038976D01*
X053663Y038901D01*
X053813Y038901D01*
X053888Y038976D01*
X053738Y039276D02*
X053588Y039126D01*
X053738Y039276D02*
X053888Y039351D01*
X053428Y039351D02*
X053128Y038901D01*
X053428Y038901D02*
X053128Y039351D01*
X046585Y034626D02*
X046585Y034551D01*
X046510Y034476D01*
X046360Y034476D01*
X046285Y034551D01*
X046285Y034626D01*
X046360Y034701D01*
X046510Y034701D01*
X046585Y034626D01*
X046510Y034476D02*
X046585Y034401D01*
X046585Y034326D01*
X046510Y034251D01*
X046360Y034251D01*
X046285Y034326D01*
X046285Y034401D01*
X046360Y034476D01*
X046125Y034251D02*
X045825Y034251D01*
X045975Y034251D02*
X045975Y034701D01*
X045825Y034551D01*
X045664Y034626D02*
X045664Y034476D01*
X045589Y034401D01*
X045364Y034401D01*
X045514Y034401D02*
X045664Y034251D01*
X045364Y034251D02*
X045364Y034701D01*
X045589Y034701D01*
X045664Y034626D01*
X044996Y034236D02*
X044996Y034161D01*
X044921Y034086D01*
X044996Y034011D01*
X044996Y033936D01*
X044921Y033861D01*
X044770Y033861D01*
X044695Y033936D01*
X044535Y033936D02*
X044535Y034236D01*
X044460Y034311D01*
X044235Y034311D01*
X044235Y033861D01*
X044460Y033861D01*
X044535Y033936D01*
X044695Y034236D02*
X044770Y034311D01*
X044921Y034311D01*
X044996Y034236D01*
X044921Y034086D02*
X044845Y034086D01*
X044075Y034311D02*
X043775Y034311D01*
X043775Y033861D01*
X044075Y033861D01*
X043925Y034086D02*
X043775Y034086D01*
X043614Y033861D02*
X043314Y033861D01*
X043314Y034311D01*
X050868Y033776D02*
X050943Y033851D01*
X051093Y033851D01*
X051168Y033776D01*
X051168Y033701D01*
X050868Y033401D01*
X051168Y033401D01*
X052808Y033401D02*
X053108Y033401D01*
X052958Y033401D02*
X052958Y033851D01*
X052808Y033701D01*
X013414Y032411D02*
X013339Y032411D01*
X013039Y032711D01*
X012964Y032711D01*
X012964Y032411D01*
X013039Y032251D02*
X013189Y032251D01*
X013264Y032176D01*
X013264Y031951D01*
X013264Y032101D02*
X013414Y032251D01*
X013414Y031951D02*
X012964Y031951D01*
X012964Y032176D01*
X013039Y032251D01*
X011439Y032238D02*
X011439Y032080D01*
X010889Y032301D02*
X010889Y033950D01*
X011439Y034013D02*
X011439Y034171D01*
X011439Y033238D02*
X011439Y033013D01*
X010889Y033951D02*
X010937Y033986D01*
X010987Y034019D01*
X011039Y034050D01*
X011093Y034077D01*
X011148Y034101D01*
X011205Y034121D01*
X011262Y034139D01*
X011320Y034153D01*
X011379Y034164D01*
X011439Y034171D01*
X009764Y034894D02*
X009764Y035195D01*
X009764Y035045D02*
X009314Y035045D01*
X009464Y034894D01*
X009464Y033255D02*
X009389Y033255D01*
X009314Y033180D01*
X009314Y033030D01*
X009389Y032954D01*
X009464Y033255D02*
X009764Y032954D01*
X009764Y033255D01*
X010889Y032301D02*
X010940Y032264D01*
X010993Y032229D01*
X011049Y032197D01*
X011106Y032169D01*
X011165Y032145D01*
X011225Y032124D01*
X011286Y032107D01*
X011348Y032093D01*
X011411Y032084D01*
X011474Y032078D01*
X011538Y032076D01*
X011602Y032078D01*
X011665Y032084D01*
X011728Y032093D01*
X011790Y032106D01*
X011851Y032124D01*
X011911Y032144D01*
X011970Y032169D01*
X012027Y032196D01*
X012083Y032228D01*
X012136Y032262D01*
X012187Y032300D01*
X012236Y032341D01*
X012282Y032385D01*
X012326Y032431D01*
X012367Y032480D01*
X012404Y032531D01*
X012439Y032585D01*
X012470Y032640D01*
X012498Y032697D01*
X012522Y032756D01*
X012542Y032816D01*
X012542Y033436D02*
X012522Y033495D01*
X012499Y033552D01*
X012472Y033609D01*
X012441Y033663D01*
X012408Y033716D01*
X012371Y033766D01*
X012332Y033815D01*
X012289Y033860D01*
X012244Y033904D01*
X012197Y033944D01*
X012147Y033982D01*
X012095Y034017D01*
X012041Y034048D01*
X011986Y034076D01*
X011929Y034101D01*
X011870Y034122D01*
X011810Y034140D01*
X011749Y034155D01*
X011688Y034165D01*
X011626Y034172D01*
X011564Y034176D01*
X011501Y034175D01*
X011439Y034171D01*
X004264Y035214D02*
X003814Y035514D01*
X003889Y035674D02*
X003964Y035674D01*
X004039Y035750D01*
X004039Y035900D01*
X004114Y035975D01*
X004189Y035975D01*
X004264Y035900D01*
X004264Y035750D01*
X004189Y035674D01*
X004114Y035674D01*
X004039Y035750D01*
X004039Y035900D02*
X003964Y035975D01*
X003889Y035975D01*
X003814Y035900D01*
X003814Y035750D01*
X003889Y035674D01*
X004264Y035514D02*
X003814Y035214D01*
X003889Y029975D02*
X003814Y029900D01*
X003814Y029750D01*
X003889Y029674D01*
X003964Y029674D01*
X004039Y029750D01*
X004039Y029975D01*
X004189Y029975D02*
X003889Y029975D01*
X004189Y029975D02*
X004264Y029900D01*
X004264Y029750D01*
X004189Y029674D01*
X004264Y029514D02*
X003814Y029214D01*
X003814Y029514D02*
X004264Y029214D01*
D22*
X082889Y025626D03*
D23*
X084539Y025626D03*
D24*
X081314Y025636D03*
X081314Y026706D03*
X081314Y027786D03*
X081314Y024546D03*
X081314Y023466D03*
D25*
X081814Y024006D03*
X081814Y025096D03*
X081814Y026166D03*
X081814Y027246D03*
D26*
X084106Y007712D03*
X084106Y002539D03*
X030126Y037693D03*
X024953Y037693D03*
D27*
X026161Y036626D03*
X027145Y036626D03*
X027933Y036626D03*
X028917Y036626D03*
X083039Y006504D03*
X083039Y005519D03*
X083039Y004732D03*
X083039Y003748D03*
D28*
X077072Y010776D02*
X076007Y010776D01*
X076007Y012626D02*
X077072Y012626D01*
X077072Y014476D02*
X076007Y014476D01*
X046889Y036593D02*
X046889Y037658D01*
X045039Y037658D02*
X045039Y036593D01*
X043189Y036593D02*
X043189Y037658D01*
D29*
X042539Y033626D03*
X041539Y033626D03*
X044539Y033626D03*
X048539Y033626D03*
X024039Y024126D03*
X024039Y020126D03*
X015539Y020126D03*
X014039Y020126D03*
X014039Y018126D03*
X011539Y017126D03*
X012289Y016626D03*
X011539Y016126D03*
X015539Y016126D03*
X015539Y014626D03*
X014039Y014126D03*
X014039Y012126D03*
X015539Y010626D03*
X015539Y009126D03*
X014039Y008126D03*
X014039Y006626D03*
X015539Y005126D03*
X012289Y004626D03*
X011539Y005126D03*
X011539Y004126D03*
X014039Y002626D03*
X018539Y004126D03*
X019539Y004126D03*
X021539Y002126D03*
X025539Y002126D03*
X011539Y009626D03*
X012289Y010126D03*
X011539Y010626D03*
X011539Y021626D03*
X012289Y022126D03*
X011539Y022626D03*
X014039Y024126D03*
X014039Y025626D03*
X015539Y025626D03*
X015539Y027126D03*
X012289Y027626D03*
X011539Y028126D03*
X011539Y027126D03*
X014039Y029626D03*
X014039Y031126D03*
X015539Y031126D03*
X015539Y033126D03*
X012289Y033126D03*
X011539Y032626D03*
X011539Y033626D03*
X014039Y035126D03*
X015539Y037126D03*
X015539Y021626D03*
X056539Y002126D03*
X060539Y002126D03*
X073539Y010126D03*
X070539Y012126D03*
X070539Y013126D03*
X073539Y014126D03*
X076039Y020126D03*
X076039Y024126D03*
D30*
X077055Y036213D02*
X077055Y037038D01*
X079023Y037038D02*
X079023Y036213D01*
X053023Y036713D02*
X053023Y037538D01*
X051055Y037538D02*
X051055Y036713D01*
X022023Y036713D02*
X022023Y037538D01*
X020055Y037538D02*
X020055Y036713D01*
X006452Y035110D02*
X005627Y035110D01*
X005627Y033141D02*
X006452Y033141D01*
X006452Y029110D02*
X005627Y029110D01*
X005627Y027141D02*
X006452Y027141D01*
X006452Y023610D02*
X005627Y023610D01*
X005627Y021641D02*
X006452Y021641D01*
X006452Y018110D02*
X005627Y018110D01*
X005627Y016141D02*
X006452Y016141D01*
X006452Y012610D02*
X005627Y012610D01*
X005627Y010641D02*
X006452Y010641D01*
X006452Y006610D02*
X005627Y006610D01*
X005627Y004641D02*
X006452Y004641D01*
X045555Y003038D02*
X045555Y002213D01*
X047523Y002213D02*
X047523Y003038D01*
X050555Y003038D02*
X050555Y002213D01*
X052523Y002213D02*
X052523Y003038D01*
X078055Y003038D02*
X078055Y002213D01*
X080023Y002213D02*
X080023Y003038D01*
D31*
X073539Y010706D03*
X073539Y013546D03*
X076039Y020706D03*
X076039Y023546D03*
X024039Y023546D03*
X024039Y020706D03*
X015539Y019546D03*
X014039Y020706D03*
X015539Y022206D03*
X014039Y023546D03*
X015539Y025046D03*
X014039Y026206D03*
X015539Y027706D03*
X014039Y029046D03*
X015539Y030546D03*
X014039Y031706D03*
X015539Y033706D03*
X014039Y034546D03*
X015539Y036546D03*
X014039Y017546D03*
X015539Y016706D03*
X014039Y014706D03*
X015539Y014046D03*
X014039Y011546D03*
X015539Y011206D03*
X014039Y008706D03*
X015539Y008546D03*
X014039Y006046D03*
X015539Y005706D03*
X014039Y003206D03*
D32*
X022119Y002126D03*
X024959Y002126D03*
X057119Y002126D03*
X059959Y002126D03*
X047959Y033626D03*
X045119Y033626D03*
D33*
X043039Y034376D02*
X042996Y034430D01*
X042950Y034482D01*
X042901Y034531D01*
X042849Y034578D01*
X042795Y034621D01*
X042739Y034662D01*
X042680Y034699D01*
X042620Y034733D01*
X042557Y034763D01*
X042494Y034790D01*
X042428Y034814D01*
X042362Y034834D01*
X042294Y034850D01*
X042226Y034862D01*
X042157Y034870D01*
X042088Y034875D01*
X042018Y034876D01*
X041949Y034873D01*
X041880Y034866D01*
X041812Y034855D01*
X041744Y034841D01*
X041677Y034822D01*
X041611Y034800D01*
X041546Y034775D01*
X041483Y034746D01*
X041422Y034713D01*
X041363Y034677D01*
X041306Y034638D01*
X041250Y034596D01*
X041198Y034551D01*
X041148Y034503D01*
X041101Y034452D01*
X041056Y034398D01*
X041015Y034343D01*
X040977Y034285D01*
X040942Y034225D01*
X040910Y034163D01*
X040882Y034100D01*
X040858Y034035D01*
X040837Y033969D01*
X040820Y033901D01*
X040806Y033833D01*
X040797Y033764D01*
X040791Y033695D01*
X040789Y033626D01*
X040791Y033557D01*
X040797Y033488D01*
X040806Y033419D01*
X040820Y033351D01*
X040837Y033283D01*
X040858Y033217D01*
X040882Y033152D01*
X040910Y033089D01*
X040942Y033027D01*
X040977Y032967D01*
X041015Y032909D01*
X041056Y032854D01*
X041101Y032800D01*
X041148Y032749D01*
X041198Y032701D01*
X041250Y032656D01*
X041306Y032614D01*
X041363Y032575D01*
X041422Y032539D01*
X041483Y032506D01*
X041546Y032477D01*
X041611Y032452D01*
X041677Y032430D01*
X041744Y032411D01*
X041812Y032397D01*
X041880Y032386D01*
X041949Y032379D01*
X042018Y032376D01*
X042088Y032377D01*
X042157Y032382D01*
X042226Y032390D01*
X042294Y032402D01*
X042362Y032418D01*
X042428Y032438D01*
X042494Y032462D01*
X042557Y032489D01*
X042620Y032519D01*
X042680Y032553D01*
X042739Y032590D01*
X042795Y032631D01*
X042849Y032674D01*
X042901Y032721D01*
X042950Y032770D01*
X042996Y032822D01*
X043039Y032876D01*
X069789Y013626D02*
X069735Y013583D01*
X069683Y013537D01*
X069634Y013488D01*
X069587Y013436D01*
X069544Y013382D01*
X069503Y013326D01*
X069466Y013267D01*
X069432Y013207D01*
X069402Y013144D01*
X069375Y013081D01*
X069351Y013015D01*
X069331Y012949D01*
X069315Y012881D01*
X069303Y012813D01*
X069295Y012744D01*
X069290Y012675D01*
X069289Y012605D01*
X069292Y012536D01*
X069299Y012467D01*
X069310Y012399D01*
X069324Y012331D01*
X069343Y012264D01*
X069365Y012198D01*
X069390Y012133D01*
X069419Y012070D01*
X069452Y012009D01*
X069488Y011950D01*
X069527Y011893D01*
X069569Y011837D01*
X069614Y011785D01*
X069662Y011735D01*
X069713Y011688D01*
X069767Y011643D01*
X069822Y011602D01*
X069880Y011564D01*
X069940Y011529D01*
X070002Y011497D01*
X070065Y011469D01*
X070130Y011445D01*
X070196Y011424D01*
X070264Y011407D01*
X070332Y011393D01*
X070401Y011384D01*
X070470Y011378D01*
X070539Y011376D01*
X070608Y011378D01*
X070677Y011384D01*
X070746Y011393D01*
X070814Y011407D01*
X070882Y011424D01*
X070948Y011445D01*
X071013Y011469D01*
X071076Y011497D01*
X071138Y011529D01*
X071198Y011564D01*
X071256Y011602D01*
X071311Y011643D01*
X071365Y011688D01*
X071416Y011735D01*
X071464Y011785D01*
X071509Y011837D01*
X071551Y011893D01*
X071590Y011950D01*
X071626Y012009D01*
X071659Y012070D01*
X071688Y012133D01*
X071713Y012198D01*
X071735Y012264D01*
X071754Y012331D01*
X071768Y012399D01*
X071779Y012467D01*
X071786Y012536D01*
X071789Y012605D01*
X071788Y012675D01*
X071783Y012744D01*
X071775Y012813D01*
X071763Y012881D01*
X071747Y012949D01*
X071727Y013015D01*
X071703Y013081D01*
X071676Y013144D01*
X071646Y013207D01*
X071612Y013267D01*
X071575Y013326D01*
X071534Y013382D01*
X071491Y013436D01*
X071444Y013488D01*
X071395Y013537D01*
X071343Y013583D01*
X071289Y013626D01*
X018039Y004876D02*
X018082Y004930D01*
X018128Y004982D01*
X018177Y005031D01*
X018229Y005078D01*
X018283Y005121D01*
X018339Y005162D01*
X018398Y005199D01*
X018458Y005233D01*
X018521Y005263D01*
X018584Y005290D01*
X018650Y005314D01*
X018716Y005334D01*
X018784Y005350D01*
X018852Y005362D01*
X018921Y005370D01*
X018990Y005375D01*
X019060Y005376D01*
X019129Y005373D01*
X019198Y005366D01*
X019266Y005355D01*
X019334Y005341D01*
X019401Y005322D01*
X019467Y005300D01*
X019532Y005275D01*
X019595Y005246D01*
X019656Y005213D01*
X019715Y005177D01*
X019772Y005138D01*
X019828Y005096D01*
X019880Y005051D01*
X019930Y005003D01*
X019977Y004952D01*
X020022Y004898D01*
X020063Y004843D01*
X020101Y004785D01*
X020136Y004725D01*
X020168Y004663D01*
X020196Y004600D01*
X020220Y004535D01*
X020241Y004469D01*
X020258Y004401D01*
X020272Y004333D01*
X020281Y004264D01*
X020287Y004195D01*
X020289Y004126D01*
X020287Y004057D01*
X020281Y003988D01*
X020272Y003919D01*
X020258Y003851D01*
X020241Y003783D01*
X020220Y003717D01*
X020196Y003652D01*
X020168Y003589D01*
X020136Y003527D01*
X020101Y003467D01*
X020063Y003409D01*
X020022Y003354D01*
X019977Y003300D01*
X019930Y003249D01*
X019880Y003201D01*
X019828Y003156D01*
X019772Y003114D01*
X019715Y003075D01*
X019656Y003039D01*
X019595Y003006D01*
X019532Y002977D01*
X019467Y002952D01*
X019401Y002930D01*
X019334Y002911D01*
X019266Y002897D01*
X019198Y002886D01*
X019129Y002879D01*
X019060Y002876D01*
X018990Y002877D01*
X018921Y002882D01*
X018852Y002890D01*
X018784Y002902D01*
X018716Y002918D01*
X018650Y002938D01*
X018584Y002962D01*
X018521Y002989D01*
X018458Y003019D01*
X018398Y003053D01*
X018339Y003090D01*
X018283Y003131D01*
X018229Y003174D01*
X018177Y003221D01*
X018128Y003270D01*
X018082Y003322D01*
X018039Y003376D01*
D34*
X081389Y011626D02*
X081389Y015626D01*
X082539Y015676D02*
X082539Y011576D01*
X083689Y011626D02*
X083689Y015626D01*
X038039Y035976D02*
X034039Y035976D01*
X033989Y037126D02*
X038089Y037126D01*
X038039Y038276D02*
X034039Y038276D01*
D35*
X031609Y037626D02*
X031609Y036626D01*
X040469Y036626D02*
X040469Y037626D01*
X082039Y018056D02*
X083039Y018056D01*
X083039Y009196D02*
X082039Y009196D01*
D36*
X038164Y036101D03*
X038164Y038151D03*
X033914Y038151D03*
X033914Y036101D03*
D37*
X033914Y037126D03*
X038164Y037126D03*
D38*
X036039Y038076D03*
X036039Y036176D03*
D39*
X039064Y036351D03*
X039064Y037901D03*
X033014Y037901D03*
X033014Y036351D03*
D40*
X032839Y036226D03*
X032839Y038026D03*
X039239Y038026D03*
X039239Y036226D03*
D41*
X081514Y015751D03*
X083564Y015751D03*
X083564Y011501D03*
X081514Y011501D03*
D42*
X082539Y011501D03*
X082539Y015751D03*
D43*
X081589Y013626D03*
X083489Y013626D03*
D44*
X083314Y016651D03*
X081764Y016651D03*
X081764Y010601D03*
X083314Y010601D03*
D45*
X083439Y010426D03*
X081639Y010426D03*
X081639Y016826D03*
X083439Y016826D03*
D46*
X077539Y012626D02*
X076539Y012626D01*
X077539Y012626D02*
X080039Y010126D01*
X080039Y005126D01*
X081539Y003626D01*
X082917Y003626D01*
X083039Y003748D01*
X074039Y005126D02*
X073539Y004626D01*
X072539Y004626D01*
X074039Y005126D02*
X074039Y006626D01*
X072539Y008126D01*
X069539Y008126D01*
X069039Y008626D01*
X069039Y014626D01*
X065539Y018126D01*
X065539Y021626D01*
X064039Y023126D01*
X058039Y023126D01*
X056039Y021126D01*
X056039Y017626D01*
X056539Y017126D01*
X060039Y017126D01*
X067039Y019626D02*
X067039Y022626D01*
X064039Y025626D01*
X064039Y027626D01*
X063039Y027626D02*
X063039Y026126D01*
X061539Y024626D01*
X056039Y024626D01*
X053023Y027641D01*
X052539Y027157D01*
X052539Y016126D01*
X067039Y019626D02*
X068539Y018126D01*
X072039Y018126D01*
X072039Y017126D02*
X074039Y017126D01*
X074539Y017626D01*
X074539Y033126D01*
X073039Y034626D01*
X058039Y034626D01*
X057039Y033626D01*
X057039Y032626D01*
X051055Y037126D02*
X050555Y036626D01*
X050039Y036626D01*
X048039Y034626D01*
X044039Y034626D01*
X043039Y033626D01*
X042539Y033626D01*
X042539Y032626D01*
X042039Y032126D01*
X036039Y032126D01*
X034539Y033626D02*
X037539Y033626D01*
X038539Y034626D01*
X038539Y036126D01*
X039539Y037126D01*
X040469Y037126D01*
X038539Y039126D02*
X044039Y039126D01*
X045039Y038126D01*
X045039Y037126D01*
X038539Y039126D02*
X036039Y036626D01*
X035539Y036626D01*
X034039Y035126D01*
X030039Y035126D01*
X028917Y036248D01*
X028917Y036626D01*
X022539Y032626D02*
X019539Y035626D01*
X018539Y035626D01*
X017039Y037126D01*
X015539Y037126D01*
X014039Y037126D02*
X016039Y035126D01*
X016039Y034626D01*
X018039Y032626D01*
X021039Y032626D01*
X021539Y032126D01*
X022539Y032626D02*
X022539Y031126D01*
X022039Y030626D01*
X017539Y030626D01*
X016539Y029626D02*
X016539Y031626D01*
X015539Y033126D02*
X012289Y033126D01*
X016039Y029126D02*
X016539Y029626D01*
X016039Y029126D02*
X015539Y029126D01*
X014039Y027626D01*
X014039Y025626D01*
X014039Y024126D02*
X014039Y022126D01*
X013039Y021126D01*
X013039Y019626D01*
X013539Y019126D01*
X015039Y019126D01*
X015539Y018626D01*
X015539Y018126D01*
X014039Y016626D01*
X014039Y014126D01*
X017039Y016126D02*
X017539Y016626D01*
X018039Y016626D01*
X017039Y016126D02*
X017039Y010626D01*
X016539Y010126D01*
X016539Y007626D01*
X017039Y007126D01*
X017539Y007126D01*
X018539Y007126D02*
X018539Y009626D01*
X019539Y009626D02*
X019539Y007126D01*
X020539Y005626D02*
X021539Y006626D01*
X021539Y022126D01*
X021039Y022626D01*
X019039Y022626D01*
X011539Y022626D02*
X011039Y023126D01*
X010039Y023126D01*
X009539Y022626D01*
X009539Y020626D01*
X010539Y019626D01*
X012039Y019626D01*
X022539Y013626D02*
X025539Y013626D01*
X028539Y016626D01*
X028539Y017126D01*
X015539Y010626D02*
X015039Y010626D01*
X014539Y010126D01*
X012289Y010126D01*
X011539Y010626D02*
X011039Y010626D01*
X010539Y010126D01*
X010539Y008626D01*
X011039Y008126D01*
X014039Y008126D01*
X015539Y009126D02*
X015539Y006626D01*
X016539Y005626D01*
X020539Y005626D01*
X014039Y002626D02*
X013539Y003126D01*
X013539Y005626D01*
X013039Y006126D01*
X012039Y006126D01*
X011539Y005626D01*
X011539Y005126D01*
X040539Y008126D02*
X044539Y008126D01*
X047539Y005126D01*
X047539Y002641D01*
X047523Y002626D01*
X047523Y005110D01*
X048039Y005626D01*
X051539Y005626D01*
X052539Y004626D01*
X052539Y002641D01*
X052523Y002626D01*
X050555Y002626D02*
X050539Y002626D01*
X050539Y001626D01*
X051039Y001126D01*
X054539Y001126D01*
X055539Y002126D01*
X056539Y002126D01*
X060539Y002126D02*
X070039Y002126D01*
X070539Y002626D01*
X070539Y004626D01*
X070539Y012126D02*
X073039Y012126D01*
X073539Y012626D01*
X073539Y014126D01*
X053023Y027641D02*
X053023Y037126D01*
X053039Y037141D01*
X053039Y038126D01*
X053539Y038626D01*
X078539Y038626D01*
X079023Y038141D01*
X079023Y036626D01*
D47*
X052539Y016126D03*
X040539Y008126D03*
X022539Y013626D03*
X012039Y019626D03*
X017539Y030626D03*
X016539Y031626D03*
X021539Y032126D03*
X028539Y032626D03*
X036039Y032126D03*
D48*
X036039Y030626D02*
X036539Y030126D01*
X036539Y028626D01*
X042039Y023126D01*
X050039Y023126D01*
X051039Y022126D01*
X051039Y019626D01*
X050539Y019126D01*
X049539Y019126D01*
X049539Y020126D02*
X044039Y020126D01*
X035539Y028626D01*
X035539Y030126D01*
X035039Y030626D01*
X033539Y032126D02*
X033539Y033626D01*
X032539Y033626D02*
X032539Y033126D01*
X032039Y032626D01*
X028539Y032626D01*
X027039Y031626D02*
X033039Y031626D01*
X033539Y032126D01*
X027039Y031626D02*
X026539Y031126D01*
X026539Y030126D01*
X026039Y029626D01*
X025039Y030126D02*
X025539Y030626D01*
X026039Y030626D01*
X025039Y030126D02*
X025039Y029126D01*
X025539Y028626D01*
X034539Y028626D01*
X046039Y017126D01*
X049539Y017126D01*
X060039Y019126D02*
X061539Y019126D01*
X063039Y017626D01*
X064039Y018126D02*
X062039Y020126D01*
X060039Y020126D01*
X070039Y020626D02*
X070039Y025126D01*
X068539Y026626D01*
X068539Y028126D01*
X066539Y030126D01*
X066539Y032126D01*
X066039Y032626D01*
X067039Y032626D02*
X067539Y032126D01*
X067539Y030626D01*
X070039Y028126D01*
X070039Y025626D01*
X071039Y024626D01*
X071539Y024626D01*
X073039Y023126D01*
X073039Y019626D01*
X072539Y019126D01*
X072039Y019126D01*
X072039Y020126D02*
X070539Y020126D01*
X070039Y020626D01*
X064039Y005126D02*
X063539Y004626D01*
X063039Y005126D02*
X062539Y004626D01*
D49*
X063039Y005126D02*
X063039Y007626D01*
X065539Y010126D01*
X067039Y010126D01*
X067539Y010626D01*
X067539Y012626D01*
X067039Y013126D01*
X064039Y013126D01*
X063039Y014126D01*
X063039Y017626D01*
X064039Y018126D02*
X064039Y015126D01*
X065039Y014126D01*
X067539Y014126D01*
X068039Y013626D01*
X068039Y010126D01*
X067039Y009126D01*
X066039Y009126D01*
X064039Y007126D01*
X064039Y005126D01*
X039539Y019626D02*
X039039Y019126D01*
X038539Y019126D01*
X039539Y019626D02*
X039539Y022626D01*
X039039Y023126D01*
X035539Y023126D01*
X029539Y017126D01*
X029539Y016626D01*
X026039Y013126D01*
X026039Y008126D01*
X026539Y007626D01*
X029539Y007626D01*
X031039Y006126D01*
X031039Y005126D01*
X030539Y004626D01*
X031539Y004626D02*
X032039Y005126D01*
X032039Y006126D01*
X033039Y007126D01*
X034539Y007126D01*
X035039Y007626D01*
X035039Y009126D01*
X034039Y010126D01*
X031039Y010126D01*
X030539Y010626D01*
X027539Y010626D01*
X026539Y011626D01*
X026539Y012626D01*
X034039Y020126D01*
X038539Y020126D01*
X030039Y019626D02*
X030039Y023126D01*
X028039Y025126D01*
X023539Y025126D01*
X022539Y024126D01*
X018539Y024126D01*
X018039Y023626D01*
X018539Y023126D02*
X018039Y022626D01*
X018539Y023126D02*
X022039Y023126D01*
X022539Y022626D01*
X022539Y020126D01*
X023539Y019126D01*
X026039Y019126D01*
X027039Y020126D01*
X028539Y020126D01*
X028539Y019126D02*
X029539Y019126D01*
X030039Y019626D01*
X057039Y030626D02*
X058539Y029126D01*
X064539Y029126D01*
X065039Y028626D01*
X065039Y027626D01*
X066039Y027626D02*
X066039Y028126D01*
X065539Y028626D01*
X065539Y029126D01*
X064539Y030126D01*
X059039Y030126D01*
X058039Y031126D01*
X058039Y031626D01*
X057039Y031626D02*
X057039Y030626D01*
X076039Y025126D02*
X076039Y024126D01*
X076039Y025126D02*
X077539Y026626D01*
X079459Y026626D01*
X079539Y026706D01*
X080539Y026166D02*
X082499Y026166D01*
X083039Y025626D01*
X083039Y023126D01*
X082039Y022126D01*
X077039Y022126D01*
X076039Y021126D01*
X076039Y020126D01*
D50*
X005039Y001626D03*
X025539Y033626D03*
X084039Y036626D03*
X074039Y001626D03*
M02*
