%
M48
M72
T01C0.0236
T02C0.0240
T03C0.0320
T04C0.0374
T05C0.0400
T06C0.0440
T07C0.0470
T08C0.0472
T09C0.0520
T10C0.0591
T11C0.0790
T12C0.0906
T13C0.1260
T14C0.1300
%
T01
X27033Y9005
X32533Y9005
X57033Y17005
X58533Y16005
X74033Y16505
X100033Y16505
X100033Y16005
X100033Y15505
X100033Y15005
X100033Y14505
X100033Y14005
X100033Y13505
X100033Y13005
X100033Y12505
X100033Y12005
X100033Y11505
X100033Y11005
X100033Y10505
X100033Y10005
X100033Y9505
X100033Y9005
X100033Y8505
X100033Y8005
X100033Y7505
X100033Y7005
X100033Y6505
X100033Y6005
X100033Y5505
X100033Y5005
X100033Y4505
X100033Y4005
X100033Y3505
X100033Y3005
X100033Y2505
X100033Y2005
X100033Y1505
X100033Y1005
X100033Y505
X104603Y15535
X100033Y17005
X100033Y17505
X100033Y18005
X100033Y18505
X100033Y19005
X100033Y19505
X100033Y20005
X100033Y20505
X100033Y21005
X100033Y21505
X100033Y22005
X100033Y22505
X100033Y23005
X100033Y23505
X100033Y24005
X100033Y24505
X100033Y25005
X100033Y25505
X100033Y26005
X100033Y26505
X100033Y27005
X100033Y27505
X100033Y28005
X100033Y28505
X100033Y29005
X100033Y29505
X100033Y30005
X100033Y30505
X100033Y31005
X100033Y31505
X100033Y32005
X100033Y32505
X100033Y33005
X100033Y33505
X100033Y34005
X100033Y34505
X100033Y35005
X100033Y35505
X100033Y36005
X100033Y36505
X100033Y37005
X100033Y37505
X100033Y38005
X100033Y38505
X100033Y39005
X100033Y39505
X100033Y40005
X100033Y40505
X100033Y41005
X100033Y41505
X100033Y42005
X100033Y42505
X100033Y43005
X100033Y43505
X100033Y44005
X100033Y44505
X100033Y45005
X100033Y45505
X100033Y46005
T02
X79533Y24005
X79533Y22005
X28533Y20505
X28533Y18505
T03
X29033Y16505
X27033Y16505
X34033Y16005
X34033Y15005
X34033Y14005
X34033Y13005
X34033Y12005
X40033Y12005
X40033Y13005
X40033Y14005
X40033Y15005
X40033Y16005
X40033Y17005
X40033Y18005
X40033Y19005
X40033Y20005
X40033Y21005
X40033Y22005
X40033Y23005
X40033Y24005
X40033Y25005
X40033Y26005
X40033Y27005
X40033Y28005
X40033Y29005
X40033Y30005
X40033Y31005
X34033Y31005
X34033Y30005
X34033Y29005
X34033Y28005
X34033Y27005
X34033Y26005
X34033Y25005
X34033Y24005
X34033Y23005
X34033Y22005
X34033Y21005
X34033Y20005
X34033Y19005
X34033Y18005
X34033Y17005
X29033Y22505
X27033Y22505
X25533Y27505
X29533Y27505
X19033Y33005
X15033Y33005
X16533Y35255
X16033Y36005
X17033Y36005
X20533Y35505
X24533Y35505
X28033Y35505
X32033Y35505
X42033Y37005
X44533Y35505
X46033Y37005
X48033Y37005
X48533Y35505
X50533Y35505
X52033Y37005
X54033Y37005
X54533Y35505
X56533Y35505
X58033Y37005
X59533Y37005
X60533Y35505
X62033Y35505
X63533Y37005
X66033Y35505
X75033Y31005
X79033Y31005
X82533Y30505
X82533Y29505
X82533Y28505
X82533Y27505
X82533Y26505
X82533Y25505
X82533Y24505
X82533Y23505
X82533Y22505
X82533Y21505
X82533Y20505
X82533Y19505
X82533Y18505
X82533Y17505
X82533Y16505
X82533Y15505
X88533Y15505
X88533Y16505
X88533Y17505
X88533Y18505
X88533Y19505
X88533Y20505
X88533Y21505
X88533Y22505
X88533Y23505
X88533Y24505
X88533Y25505
X88533Y26505
X88533Y27505
X88533Y28505
X88533Y29505
X88533Y30505
X88533Y31505
X88533Y32505
X88533Y33505
X88533Y34505
X82533Y34505
X82533Y33505
X82533Y32505
X82533Y31505
X94033Y28505
X96033Y30255
X95533Y31005
X96533Y31005
X98033Y28505
X104533Y30505
X105533Y30505
X105533Y33005
X109533Y33005
X105533Y35505
X104533Y35505
X105533Y38005
X109533Y38005
X107533Y40505
X105533Y40505
X104533Y40505
X111533Y40505
X88533Y38005
X84533Y38005
X87033Y41505
X88033Y41505
X105533Y27505
X109533Y27505
X105533Y25005
X104533Y25005
X106033Y22505
X110033Y22505
X105533Y20005
X104533Y20005
X106033Y17505
X110033Y17505
X105533Y15505
X104533Y15505
X106533Y13505
X110533Y13505
X105533Y11005
X104533Y11005
X107033Y8505
X111033Y8505
X105533Y6005
X104533Y6005
X92533Y5505
X88533Y5505
X89533Y2505
X90533Y2505
X81533Y4505
X77533Y4505
X78533Y2505
X79533Y2505
X63533Y4505
X59533Y4505
X61533Y2505
X62533Y2505
X74033Y11505
X78033Y11505
X93033Y11505
X97033Y11505
X79033Y19505
X77033Y19505
X76533Y26505
X78533Y26505
X60033Y12005
X56033Y12005
X12033Y28005
X11033Y28005
X8533Y30005
X8533Y26005
X8033Y41505
X9033Y41505
X6533Y41505
X2533Y41505
T04
X6100Y36883
X6100Y35899
X6100Y35111
X6100Y34127
X6100Y27883
X6100Y26899
X6100Y26111
X6100Y25127
X67655Y39438
X68640Y39438
X69427Y39438
X70411Y39438
X75655Y39438
X76640Y39438
X77427Y39438
X78411Y39438
T05
X80533Y35505
X80533Y34505
X80533Y33505
X80533Y32505
X80533Y31505
X80533Y30505
X80533Y29505
X80533Y28505
X92033Y28005
X92033Y29005
X92033Y30005
X92033Y31005
X92033Y32005
X92033Y33005
X92033Y27005
X92033Y26005
X92033Y23505
X92033Y22505
X92033Y21505
X92033Y20505
X92033Y19505
X92033Y18505
X92033Y17505
X92033Y16505
X90533Y10505
X87533Y10505
X83533Y9505
X80533Y9505
X71033Y10505
X68033Y10505
X64033Y9005
X61033Y9005
X53533Y13505
X50533Y13505
X47533Y10005
X44533Y10005
X22033Y11005
X19033Y11005
X15033Y9505
X12033Y9505
X14033Y16505
X17033Y16505
X12533Y22005
X9533Y22005
T06
X8533Y18005
X8533Y17005
X8533Y16005
X56033Y9505
X57033Y9505
X58033Y9505
X73533Y9505
X74533Y9505
X75533Y9505
X94033Y9005
X95033Y9005
X96033Y9005
T07
X74493Y27025
X69573Y27025
X69573Y28985
X74493Y28985
X24493Y25985
X24493Y24025
X19573Y24025
X19573Y25985
T08
X51033Y27505
X51033Y28505
X51033Y29505
X60533Y29505
X60533Y28505
X60533Y27505
X61033Y23005
X61033Y22005
X61033Y21005
X51533Y21005
X51533Y22005
X51533Y23005
X96033Y19505
X96033Y18505
X96033Y17505
T09
X4033Y3525
X4033Y5495
X22563Y4005
X24533Y4005
X26503Y4005
X32063Y4005
X34033Y4005
X36003Y4005
X41563Y4005
X43533Y4005
X45503Y4005
X50043Y4505
X52013Y4505
X66543Y4005
X68513Y4005
X84543Y3505
X86513Y3505
X113033Y25515
X113033Y27485
X94523Y43505
X92553Y43505
X63513Y41005
X61543Y41005
X58013Y41005
X56043Y41005
X52513Y41005
X50543Y41005
X47013Y41005
X45043Y41005
X34013Y41505
X32043Y41505
X22513Y41505
X20543Y41505
T10
X13002Y37777
X11033Y38761
X9065Y37777
X9065Y33761
X13002Y33761
X91289Y35536
X95305Y35536
X96289Y37505
X95305Y39474
X91289Y39474
T11
X5613Y11005
X4033Y11005
X2453Y11005
T12
X5033Y23918
X5033Y29092
X5033Y32918
X5033Y38092
X66447Y40505
X71620Y40505
X74447Y40505
X79620Y40505
T13
X77533Y33505
X97033Y33505
X98033Y44505
X102033Y44505
X114033Y44505
X75033Y19505
X98033Y19005
X98533Y2505
X102033Y2005
X114033Y2005
X16033Y41005
X15033Y2505
T14
X2633Y17005
X57033Y2605
X74533Y2605
X95033Y2105
M30
