M48
INCH,LZ
VER,1
FMAT,2
T01C0.024F1B1S6H2000
T02C0.036F1B1S6H2000
T03C0.04F1B1S6H2000
DETECT,ON
ATC,ON
%
T01
X00682Y00067
X00666Y00828
X00707Y00929
X00818Y00892
X00852Y00823
X00909Y00822
X0091Y009
X00852Y00995
X00723Y01077
X00737Y01137
X01021Y00913
X01089Y01251
X01047Y01313
X02356Y00067
X0234Y00828
X02381Y00929
X02492Y00892
X02526Y00823
X02583Y00822
X02584Y009
X02526Y00995
X02397Y01077
X02411Y01137
X02695Y00913
X02763Y01251
X02721Y01313
T02
X00235Y01731
X00235Y01631
X00335Y01631
X00335Y01731
X00435Y01731
X00435Y01631
X00535Y01631
X00535Y01731
X00635Y01731
X00635Y01631
X00735Y01631
X00835Y01631
X00835Y01731
X00735Y01731
X00935Y01731
X00935Y01631
X01035Y01631
X01035Y01731
X01135Y01731
X01135Y01631
X01235Y01631
X01235Y01731
X01335Y01731
X01335Y01631
X01435Y01631
X01435Y01731
X0144Y01524
X0144Y01424
X0144Y01324
X0154Y01324
X0154Y01424
X0154Y01524
X0154Y01224
X0154Y01124
X0154Y01024
X0154Y00924
X0154Y00824
X0154Y00724
X0154Y00624
X0154Y00524
X0154Y00424
X0154Y00324
X0144Y00324
X0144Y00424
X0144Y00524
X0144Y00624
X0144Y00724
X0144Y00824
X0144Y00924
X0144Y01024
X0144Y01124
X0144Y01224
X01434Y00214
X01434Y00114
X01334Y00114
X01334Y00214
X01234Y00214
X01234Y00114
X01134Y00114
X01134Y00214
X01034Y00214
X01034Y00114
X00934Y00114
X00934Y00214
X00834Y00214
X00834Y00114
X00734Y00114
X00734Y00214
X00634Y00214
X00634Y00114
X00534Y00114
X00534Y00214
X00434Y00214
X00434Y00114
X00334Y00114
X00334Y00214
X00234Y00214
X00234Y00114
X0023Y00324
X0023Y00424
X0023Y00524
X0023Y00624
X0023Y00724
X0023Y00824
X0023Y00924
X0023Y01024
X0023Y01124
X0023Y01224
X0023Y01324
X0023Y01424
X0023Y01524
X0013Y01524
X0013Y01424
X0013Y01324
X0013Y01224
X0013Y01124
X0013Y01024
X0013Y00924
X0013Y00824
X0013Y00724
X0013Y00624
X0013Y00524
X0013Y00424
X0013Y00324
X01909Y01731
X01909Y01631
X02009Y01631
X02009Y01731
X02109Y01731
X02109Y01631
X02209Y01631
X02209Y01731
X02309Y01731
X02309Y01631
X02409Y01631
X02509Y01631
X02509Y01731
X02409Y01731
X02609Y01731
X02609Y01631
X02709Y01631
X02709Y01731
X02809Y01731
X02809Y01631
X02909Y01631
X02909Y01731
X03009Y01731
X03009Y01631
X03109Y01631
X03109Y01731
X03114Y01524
X03114Y01424
X03114Y01324
X03214Y01324
X03214Y01424
X03214Y01524
X03214Y01224
X03214Y01124
X03214Y01024
X03214Y00924
X03214Y00824
X03214Y00724
X03214Y00624
X03214Y00524
X03214Y00424
X03214Y00324
X03114Y00324
X03114Y00424
X03114Y00524
X03114Y00624
X03114Y00724
X03114Y00824
X03114Y00924
X03114Y01024
X03114Y01124
X03114Y01224
X03108Y00214
X03108Y00114
X03008Y00114
X03008Y00214
X02908Y00214
X02908Y00114
X02808Y00114
X02808Y00214
X02708Y00214
X02708Y00114
X02608Y00114
X02608Y00214
X02508Y00214
X02508Y00114
X02408Y00114
X02408Y00214
X02308Y00214
X02308Y00114
X02208Y00114
X02208Y00214
X02108Y00214
X02108Y00114
X02008Y00114
X02008Y00214
X01908Y00214
X01908Y00114
X01904Y00324
X01904Y00424
X01904Y00524
X01904Y00624
X01904Y00724
X01904Y00824
X01904Y00924
X01904Y01024
X01904Y01124
X01904Y01224
X01904Y01324
X01904Y01424
X01904Y01524
X01804Y01524
X01804Y01424
X01804Y01324
X01804Y01224
X01804Y01124
X01804Y01024
X01804Y00924
X01804Y00824
X01804Y00724
X01804Y00624
X01804Y00524
X01804Y00424
X01804Y00324
T03
X0077Y0043
X0087Y0043
X0087Y0053
X0077Y0053
X0097Y0053
X0097Y0043
X0107Y0043
X0107Y0053
X0117Y0053
X0117Y0043
X00346Y00352
X00524Y00352
X00524Y00608
X00346Y00608
X02444Y0043
X02544Y0043
X02544Y0053
X02444Y0053
X02644Y0053
X02644Y0043
X02744Y0043
X02744Y0053
X02844Y0053
X02844Y0043
X0202Y00352
X02198Y00352
X02198Y00608
X0202Y00608
M30
