G04 CAM350 V10.0.1 (Build 314) Date:  Fri Nov 30 16:16:42 2012 *
G04 Database: (Untitled) *
G04 Layer 2: sol *
%FSLAX23Y23*%
%MOIN*%
%SFA1.000B1.000*%

%MIA0B0*%
%IPPOS*%
%ADD16C,0.05940*%
%ADD18C,0.00800*%
%ADD19C,0.01200*%
%ADD70C,0.04000*%
%ADD71R,0.20000X0.07000*%
%ADD20C,0.02400*%
%ADD22C,0.05310*%
%ADD23R,0.04250X0.04130*%
%ADD24R,0.06300X0.05120*%
%ADD25R,0.04130X0.04250*%
%ADD27R,0.05120X0.06300*%
%ADD42C,0.06000*%
%ADD58O,0.06000X0.12000*%
%LNsol*%
%LPD*%
G54D71*
X1048Y1000D03*
X668D03*
G54D23*
X829Y1138D03*
Y1206D03*
X921Y1209D03*
Y1140D03*
X1318Y905D03*
Y836D03*
X459Y1459D03*
Y1527D03*
X363D03*
Y1458D03*
X370Y1100D03*
Y1032D03*
X438Y614D03*
Y545D03*
G54D24*
X435Y368D03*
Y443D03*
G54D25*
X823Y756D03*
X892D03*
X1031Y1507D03*
X1100D03*
G54D42*
X1136Y1631D03*
Y1731D03*
X1236D03*
Y1631D03*
X1336D03*
Y1731D03*
X1436D03*
Y1631D03*
X1440Y1524D03*
Y1424D03*
Y1324D03*
Y1224D03*
Y1124D03*
Y1024D03*
Y924D03*
Y824D03*
Y724D03*
Y624D03*
Y524D03*
Y424D03*
Y324D03*
X1540D03*
Y424D03*
Y524D03*
Y624D03*
Y724D03*
Y824D03*
Y924D03*
Y1024D03*
Y1124D03*
Y1224D03*
Y1324D03*
Y1424D03*
Y1524D03*
X1036Y1631D03*
Y1731D03*
X936D03*
Y1631D03*
X836D03*
X736D03*
Y1731D03*
X836D03*
X636D03*
Y1631D03*
X536D03*
Y1731D03*
X436D03*
Y1631D03*
X336D03*
Y1731D03*
X236D03*
Y1631D03*
X230Y1524D03*
Y1424D03*
Y1324D03*
X130D03*
Y1424D03*
Y1524D03*
Y1224D03*
Y1124D03*
Y1024D03*
Y924D03*
X230D03*
Y1024D03*
Y1124D03*
Y1224D03*
Y824D03*
Y724D03*
Y624D03*
Y524D03*
X130D03*
Y624D03*
Y724D03*
Y824D03*
Y424D03*
Y324D03*
X230D03*
Y424D03*
X234Y214D03*
Y114D03*
X334D03*
Y214D03*
X434D03*
Y114D03*
X534D03*
Y214D03*
X634D03*
Y114D03*
X734D03*
Y214D03*
X834D03*
Y114D03*
X934D03*
Y214D03*
X1034D03*
Y114D03*
X1134D03*
Y214D03*
X1234D03*
Y114D03*
X1334D03*
Y214D03*
X1434D03*
Y114D03*
G54D16*
X1170Y430D03*
Y530D03*
X1070D03*
Y430D03*
X970D03*
Y530D03*
X870D03*
Y430D03*
X770D03*
Y530D03*
G54D27*
X673Y1467D03*
X599D03*
G54D70*
X737Y1137D03*
X723Y1077D03*
X852Y995D03*
X818Y892D03*
X852Y823D03*
X909Y822D03*
X910Y900D03*
X1021Y913D03*
X707Y929D03*
X666Y828D03*
X1089Y1251D03*
X1047Y1313D03*
X682Y67D03*
G54D22*
X336Y1731D03*
G54D58*
X524Y352D03*
X346D03*
X524Y608D03*
X346D03*
G54D18*
X892Y756D03*
G54D19*
X970Y530D03*
G54D71*
X2722Y1000D03*
X2342D03*
G54D23*
X2503Y1138D03*
Y1206D03*
X2595Y1209D03*
Y1140D03*
X2992Y905D03*
Y836D03*
X2133Y1459D03*
Y1527D03*
X2037D03*
Y1458D03*
X2044Y1100D03*
Y1032D03*
X2112Y614D03*
Y545D03*
G54D24*
X2109Y368D03*
Y443D03*
G54D25*
X2497Y756D03*
X2566D03*
X2705Y1507D03*
X2774D03*
G54D42*
X2810Y1631D03*
Y1731D03*
X2910D03*
Y1631D03*
X3010D03*
Y1731D03*
X3110D03*
Y1631D03*
X3114Y1524D03*
Y1424D03*
Y1324D03*
Y1224D03*
Y1124D03*
Y1024D03*
Y924D03*
Y824D03*
Y724D03*
Y624D03*
Y524D03*
Y424D03*
Y324D03*
X3214D03*
Y424D03*
Y524D03*
Y624D03*
Y724D03*
Y824D03*
Y924D03*
Y1024D03*
Y1124D03*
Y1224D03*
Y1324D03*
Y1424D03*
Y1524D03*
X2710Y1631D03*
Y1731D03*
X2610D03*
Y1631D03*
X2510D03*
X2410D03*
Y1731D03*
X2510D03*
X2310D03*
Y1631D03*
X2210D03*
Y1731D03*
X2110D03*
Y1631D03*
X2010D03*
Y1731D03*
X1910D03*
Y1631D03*
X1904Y1524D03*
Y1424D03*
Y1324D03*
X1804D03*
Y1424D03*
Y1524D03*
Y1224D03*
Y1124D03*
Y1024D03*
Y924D03*
X1904D03*
Y1024D03*
Y1124D03*
Y1224D03*
Y824D03*
Y724D03*
Y624D03*
Y524D03*
X1804D03*
Y624D03*
Y724D03*
Y824D03*
Y424D03*
Y324D03*
X1904D03*
Y424D03*
X1908Y214D03*
Y114D03*
X2008D03*
Y214D03*
X2108D03*
Y114D03*
X2208D03*
Y214D03*
X2308D03*
Y114D03*
X2408D03*
Y214D03*
X2508D03*
Y114D03*
X2608D03*
Y214D03*
X2708D03*
Y114D03*
X2808D03*
Y214D03*
X2908D03*
Y114D03*
X3008D03*
Y214D03*
X3108D03*
Y114D03*
G54D16*
X2844Y430D03*
Y530D03*
X2744D03*
Y430D03*
X2644D03*
Y530D03*
X2544D03*
Y430D03*
X2444D03*
Y530D03*
G54D27*
X2347Y1467D03*
X2273D03*
G54D70*
X2411Y1137D03*
X2397Y1077D03*
X2526Y995D03*
X2492Y892D03*
X2526Y823D03*
X2583Y822D03*
X2584Y900D03*
X2695Y913D03*
X2381Y929D03*
X2340Y828D03*
X2763Y1251D03*
X2721Y1313D03*
X2356Y67D03*
G54D22*
X2010Y1731D03*
G54D58*
X2198Y352D03*
X2020D03*
X2198Y608D03*
X2020D03*
G54D18*
X2566Y756D03*
G54D19*
X2644Y530D03*
G54D18*
X620Y1446D02*
G01Y1395D01*
X649Y1366*
X995*
X1047Y1313*
X1089Y1251D02*
G01X1122Y1284D01*
Y1316*
X1136Y1330*
Y1398*
X1137*
X1093Y1442*
X961*
X936Y1467*
X673*
X684Y1283D02*
G01X970D01*
X1039Y1213*
Y1121*
X1075Y1085*
X1205*
X1210Y1080*
Y788*
X1170Y748*
Y530*
Y430D02*
G01X1246D01*
X1258Y443*
Y1101*
X1108Y1251*
X1089*
X1013Y1189D02*
G01Y1099D01*
X1051Y1061*
X1153*
X1176Y1038*
Y809*
X1125Y758*
Y326*
X1074Y275*
X716*
X685Y244*
Y165*
X634Y114*
X682Y67D02*
G01X688Y61D01*
X1159*
X1189Y91*
Y330*
X1258Y399*
Y443*
X1070Y430D02*
G01X1016Y484D01*
Y628*
X1003Y642*
Y825*
X930Y897*
X912*
X910Y900*
X868*
X838Y929*
X707*
X668Y1000D02*
G01Y1022D01*
X723Y1077*
X780Y1093D02*
G01X737Y1137D01*
X738Y1135*
X780Y1093D02*
G01X826D01*
X852Y1067*
Y995*
X921Y940D02*
G01X998Y863D01*
X1040*
X1062Y841*
Y618*
X1024Y581*
Y476*
X970Y530D02*
G01X919Y480D01*
X524*
Y608*
X462Y545*
X438Y614D02*
G01X352D01*
X346Y608*
Y352*
Y322*
X299Y275*
X31*
X93Y472D02*
G01X178D01*
X230Y524*
X264Y577D02*
G01X183D01*
X130Y524*
X93Y472D02*
G01X70Y495D01*
Y856*
X93Y878*
X298*
X338Y919*
X426Y1007*
Y1044*
X499Y1117*
X560*
X586Y1143*
Y1184*
X684Y1283*
X712Y1256D02*
G01X946D01*
X1013Y1189*
X987Y1179D02*
G01X956Y1210D01*
X922*
X921Y1209*
X987Y1179D02*
G01Y1074D01*
X1045Y1016*
Y1002*
Y937*
X1039Y930*
X1038*
X1021Y913*
X921Y940D02*
G01Y1140D01*
X829Y1206D02*
G01X737D01*
X669Y1138*
Y1000*
X603Y1067D02*
G01X625Y1089D01*
Y1169*
X712Y1256*
X603Y1067D02*
G01X503D01*
X471Y1035*
Y915*
X496Y890*
X816*
X818Y892*
X839Y861D02*
G01X809Y831D01*
X669*
X666Y828*
X677*
X741Y750D02*
G01X281D01*
X260Y771*
X190*
X178Y758*
Y672*
X130Y624*
X264Y577D02*
G01X286Y598D01*
Y692*
X304Y711*
X723*
X770Y664*
Y530*
X870D02*
G01Y621D01*
X741Y750*
X823Y756D02*
G01Y788D01*
X852Y823*
X839Y861D02*
G01X927D01*
X970Y818*
Y530*
X892Y756D02*
G01Y800D01*
X909Y817*
Y822*
X524Y480D02*
G01Y352D01*
X435Y304D02*
G01X477Y262D01*
Y157*
X434Y114*
X534Y214D02*
G01X559D01*
X584Y188*
Y29*
X435Y304D02*
G01Y368D01*
X370Y1032D02*
G01X237D01*
X230Y1024*
X215*
X166Y1073*
X45*
X134Y1120D02*
G01X169D01*
X212Y1077*
X246*
X270Y1100*
X370*
X371Y1459D02*
G01X319Y1510D01*
Y1522*
X261Y1580*
X45*
X236Y1630D02*
G01X257D01*
X308Y1579*
X332*
X363Y1548*
Y1527*
X395Y1571D02*
G01X439Y1527D01*
X337Y1630*
X336Y1631*
X337Y1630D02*
G01X345Y1622D01*
X439Y1527D02*
G01X459D01*
Y1459D02*
G01X371D01*
X336Y1731D02*
G01Y1813D01*
X1076Y1577D02*
G01X1161D01*
X1191Y1607*
X1236Y1584D02*
G01X1159Y1507D01*
X1236Y1582D02*
G01Y1631D01*
X1318Y905D02*
G01X1389D01*
X1420Y874*
X1492*
X1540Y824*
X1637*
X1440D02*
G01X1430Y836D01*
X1318*
G54D19*
X1048Y1000D02*
G01X1045Y1002D01*
X918Y1138D02*
G01X921Y1140D01*
X918Y1138D02*
G01X829D01*
X669Y1000D02*
G01X668D01*
X134Y1120D02*
G01X130Y1124D01*
X45Y1073D02*
G01X38Y1066D01*
X363Y1458D02*
G01X459D01*
Y1459*
X599Y1467D02*
G01X620Y1446D01*
X673Y1467D02*
G01X939D01*
X957Y1450*
X1031Y1507D02*
G01Y1532D01*
X1076Y1577*
X1100Y1507D02*
G01X1160D01*
X1236Y1582*
Y1585D02*
G01Y1633D01*
X1191Y1607D02*
G01Y1686D01*
X1236Y1731*
Y1818*
X1241Y1823*
X1159Y1507D02*
G01X1100D01*
X1637Y824D02*
G01X1647Y814D01*
X1070Y430D02*
G01X1024Y476D01*
X1070Y430D02*
G01X970D01*
X870*
X770*
X750*
X534Y214*
X584Y29D02*
G01X576Y21D01*
X435Y443D02*
G01X438Y467D01*
Y545*
X462*
X524Y480D02*
G01Y479D01*
X45Y1580D02*
G01X38Y1587D01*
X236Y1631D02*
G01Y1630D01*
X336Y1813D02*
G01X346Y1823D01*
G54D20*
X576Y21D02*
G01X1598D01*
X1647Y69*
Y814*
Y1764*
X1588Y1823*
X1241*
X346*
X80*
X38Y1782*
Y1587*
Y1066*
X31Y1073D02*
G01Y275D01*
Y55*
X66Y21*
X576*
G54D18*
X74Y1852D02*
G01X-1D01*
Y1777*
X0Y75D02*
G01Y0D01*
X75*
X1599D02*
G01X1674D01*
Y75*
X1673Y1777D02*
G01Y1852D01*
X1598*
X2294Y1446D02*
G01Y1395D01*
X2323Y1366*
X2669*
X2721Y1313*
X2763Y1251D02*
G01X2796Y1284D01*
Y1316*
X2810Y1330*
Y1398*
X2811*
X2767Y1442*
X2635*
X2610Y1467*
X2347*
X2358Y1283D02*
G01X2644D01*
X2713Y1213*
Y1121*
X2749Y1085*
X2879*
X2884Y1080*
Y788*
X2844Y748*
Y530*
Y430D02*
G01X2920D01*
X2932Y443*
Y1101*
X2782Y1251*
X2763*
X2687Y1189D02*
G01Y1099D01*
X2725Y1061*
X2827*
X2850Y1038*
Y809*
X2799Y758*
Y326*
X2748Y275*
X2390*
X2359Y244*
Y165*
X2308Y114*
X2356Y67D02*
G01X2362Y61D01*
X2833*
X2863Y91*
Y330*
X2932Y399*
Y443*
X2744Y430D02*
G01X2690Y484D01*
Y628*
X2677Y642*
Y825*
X2604Y897*
X2586*
X2584Y900*
X2542*
X2512Y929*
X2381*
X2342Y1000D02*
G01Y1022D01*
X2397Y1077*
X2454Y1093D02*
G01X2411Y1137D01*
X2412Y1135*
X2454Y1093D02*
G01X2500D01*
X2526Y1067*
Y995*
X2595Y940D02*
G01X2672Y863D01*
X2714*
X2736Y841*
Y618*
X2698Y581*
Y476*
X2644Y530D02*
G01X2593Y480D01*
X2198*
Y608*
X2136Y545*
X2112Y614D02*
G01X2026D01*
X2020Y608*
Y352*
Y322*
X1973Y275*
X1705*
X1767Y472D02*
G01X1852D01*
X1904Y524*
X1938Y577D02*
G01X1857D01*
X1804Y524*
X1767Y472D02*
G01X1744Y495D01*
Y856*
X1767Y878*
X1972*
X2012Y919*
X2100Y1007*
Y1044*
X2173Y1117*
X2234*
X2260Y1143*
Y1184*
X2358Y1283*
X2386Y1256D02*
G01X2620D01*
X2687Y1189*
X2661Y1179D02*
G01X2630Y1210D01*
X2596*
X2595Y1209*
X2661Y1179D02*
G01Y1074D01*
X2719Y1016*
Y1002*
Y937*
X2713Y930*
X2712*
X2695Y913*
X2595Y940D02*
G01Y1140D01*
X2503Y1206D02*
G01X2411D01*
X2343Y1138*
Y1000*
X2277Y1067D02*
G01X2299Y1089D01*
Y1169*
X2386Y1256*
X2277Y1067D02*
G01X2177D01*
X2145Y1035*
Y915*
X2170Y890*
X2490*
X2492Y892*
X2513Y861D02*
G01X2483Y831D01*
X2343*
X2340Y828*
X2351*
X2415Y750D02*
G01X1955D01*
X1934Y771*
X1864*
X1852Y758*
Y672*
X1804Y624*
X1938Y577D02*
G01X1960Y598D01*
Y692*
X1978Y711*
X2397*
X2444Y664*
Y530*
X2544D02*
G01Y621D01*
X2415Y750*
X2497Y756D02*
G01Y788D01*
X2526Y823*
X2513Y861D02*
G01X2601D01*
X2644Y818*
Y530*
X2566Y756D02*
G01Y800D01*
X2583Y817*
Y822*
X2198Y480D02*
G01Y352D01*
X2109Y304D02*
G01X2151Y262D01*
Y157*
X2108Y114*
X2208Y214D02*
G01X2233D01*
X2258Y188*
Y29*
X2109Y304D02*
G01Y368D01*
X2044Y1032D02*
G01X1911D01*
X1904Y1024*
X1889*
X1840Y1073*
X1719*
X1808Y1120D02*
G01X1843D01*
X1886Y1077*
X1920*
X1944Y1100*
X2044*
X2045Y1459D02*
G01X1993Y1510D01*
Y1522*
X1935Y1580*
X1719*
X1910Y1630D02*
G01X1931D01*
X1982Y1579*
X2006*
X2037Y1548*
Y1527*
X2069Y1571D02*
G01X2113Y1527D01*
X2011Y1630*
X2010Y1631*
X2011Y1630D02*
G01X2019Y1622D01*
X2113Y1527D02*
G01X2133D01*
Y1459D02*
G01X2045D01*
X2010Y1731D02*
G01Y1813D01*
X2750Y1577D02*
G01X2835D01*
X2865Y1607*
X2910Y1584D02*
G01X2833Y1507D01*
X2910Y1582D02*
G01Y1631D01*
X2992Y905D02*
G01X3063D01*
X3094Y874*
X3166*
X3214Y824*
X3311*
X3114D02*
G01X3104Y836D01*
X2992*
G54D19*
X2722Y1000D02*
G01X2719Y1002D01*
X2592Y1138D02*
G01X2595Y1140D01*
X2592Y1138D02*
G01X2503D01*
X2343Y1000D02*
G01X2342D01*
X1808Y1120D02*
G01X1804Y1124D01*
X1719Y1073D02*
G01X1712Y1066D01*
X2037Y1458D02*
G01X2133D01*
Y1459*
X2273Y1467D02*
G01X2294Y1446D01*
X2347Y1467D02*
G01X2613D01*
X2631Y1450*
X2705Y1507D02*
G01Y1532D01*
X2750Y1577*
X2774Y1507D02*
G01X2834D01*
X2910Y1582*
Y1585D02*
G01Y1633D01*
X2865Y1607D02*
G01Y1686D01*
X2910Y1731*
Y1818*
X2915Y1823*
X2833Y1507D02*
G01X2774D01*
X3311Y824D02*
G01X3321Y814D01*
X2744Y430D02*
G01X2698Y476D01*
X2744Y430D02*
G01X2644D01*
X2544*
X2444*
X2424*
X2208Y214*
X2258Y29D02*
G01X2250Y21D01*
X2109Y443D02*
G01X2112Y467D01*
Y545*
X2136*
X2198Y480D02*
G01Y479D01*
X1719Y1580D02*
G01X1712Y1587D01*
X1910Y1631D02*
G01Y1630D01*
X2010Y1813D02*
G01X2020Y1823D01*
G54D20*
X2250Y21D02*
G01X3272D01*
X3321Y69*
Y814*
Y1764*
X3262Y1823*
X2915*
X2020*
X1754*
X1712Y1782*
Y1587*
Y1066*
X1705Y1073D02*
G01Y275D01*
Y55*
X1740Y21*
X2250*
G54D18*
X1748Y1852D02*
G01X1673D01*
Y1777*
X1674Y75D02*
G01Y0D01*
X1749*
X3273D02*
G01X3348D01*
Y75*
X3347Y1777D02*
G01Y1852D01*
X3272*
G54D19*
G01X3297Y-44D02*
X3303Y-37D01*
X3313Y-34D01*
X3325D01*
X3334Y-37D01*
X3341Y-44D01*
Y-50D01*
X3338Y-56D01*
X3334Y-59D01*
X3328Y-62D01*
X3309Y-69D01*
X3303Y-72D01*
X3300Y-75D01*
X3297Y-81D01*
Y-91D01*
X3303Y-97D01*
X3313Y-100D01*
X3325D01*
X3334Y-97D01*
X3341Y-91D01*
X3259Y-34D02*
X3266Y-37D01*
X3272Y-44D01*
X3275Y-50D01*
X3278Y-59D01*
Y-75D01*
X3275Y-84D01*
X3272Y-91D01*
X3266Y-97D01*
X3259Y-100D01*
X3247D01*
X3241Y-97D01*
X3234Y-91D01*
X3231Y-84D01*
X3228Y-75D01*
Y-59D01*
X3231Y-50D01*
X3234Y-44D01*
X3241Y-37D01*
X3247Y-34D01*
X3259D01*
X3206D02*
Y-100D01*
Y-100D02*
X3169D01*
X3153Y-34D02*
Y-100D01*
Y-34D02*
X3131D01*
X3122Y-37D01*
X3116Y-44D01*
X3113Y-50D01*
X3109Y-59D01*
Y-75D01*
X3113Y-84D01*
X3116Y-91D01*
X3122Y-97D01*
X3131Y-100D01*
X3153D01*
X3088Y-34D02*
Y-100D01*
Y-34D02*
X3047D01*
X3088Y-66D02*
X3063D01*
X3088Y-100D02*
X3047D01*
X3028Y-34D02*
Y-100D01*
Y-34D02*
X3000D01*
X2991Y-37D01*
X2988Y-41D01*
X2984Y-47D01*
Y-53D01*
X2988Y-59D01*
X2991Y-62D01*
X3000Y-66D01*
X3028D01*
X3006D02*
X2984Y-100D01*
X2872Y-44D02*
X2878Y-37D01*
X2888Y-34D01*
X2900D01*
X2909Y-37D01*
X2916Y-44D01*
Y-50D01*
X2913Y-56D01*
X2909Y-59D01*
X2903Y-62D01*
X2884Y-69D01*
X2878Y-72D01*
X2875Y-75D01*
X2872Y-81D01*
Y-91D01*
X2878Y-97D01*
X2888Y-100D01*
X2900D01*
X2909Y-97D01*
X2916Y-91D01*
X2850Y-34D02*
Y-100D01*
X2825Y-34D02*
Y-100D01*
Y-34D02*
X2803D01*
X2794Y-37D01*
X2788Y-44D01*
X2784Y-50D01*
X2781Y-59D01*
Y-75D01*
X2784Y-84D01*
X2788Y-91D01*
X2794Y-97D01*
X2803Y-100D01*
X2825D01*
X2759Y-34D02*
Y-100D01*
Y-34D02*
X2719D01*
X2759Y-66D02*
X2734D01*
X2759Y-100D02*
X2719D01*
M02*
