G75*
%MOIN*%
%OFA0B0*%
%FSLAX24Y24*%
%IPPOS*%
%LPD*%
%AMOC8*
5,1,8,0,0,1.08239X$1,22.5*
%
%ADD10C,0.0380*%
%ADD11C,0.0594*%
%ADD12C,0.0600*%
%ADD13OC8,0.0600*%
%ADD14C,0.2000*%
%ADD15C,0.1306*%
%ADD16C,0.0554*%
%ADD17C,0.1065*%
%ADD18OC8,0.0520*%
%ADD19C,0.0825*%
%ADD20C,0.1000*%
%ADD21C,0.0560*%
%ADD22C,0.0360*%
%ADD23C,0.0160*%
%ADD24C,0.0240*%
%ADD25C,0.2540*%
D10*
X028229Y012176D02*
X028589Y011816D01*
X029310Y011816D01*
X029670Y012176D01*
X030568Y011816D02*
X030568Y013257D01*
X031289Y013977D01*
X032009Y013257D01*
X032009Y011816D01*
X032907Y011816D02*
X034348Y011816D01*
X035246Y011816D02*
X036687Y011816D01*
X037584Y011816D02*
X038305Y011816D01*
X037945Y011816D02*
X037945Y013977D01*
X038305Y013977D02*
X037584Y013977D01*
X039144Y013977D02*
X040585Y011816D01*
X040585Y013977D01*
X041482Y013617D02*
X041482Y012176D01*
X041843Y011816D01*
X042563Y011816D01*
X042924Y012176D01*
X042924Y012897D01*
X042203Y012897D01*
X042924Y013617D02*
X042563Y013977D01*
X041843Y013977D01*
X041482Y013617D01*
X039144Y013977D02*
X039144Y011816D01*
X035246Y011816D02*
X035246Y013977D01*
X032907Y013977D02*
X032907Y011816D01*
X032009Y012897D02*
X030568Y012897D01*
X029670Y013617D02*
X029310Y013977D01*
X028589Y013977D01*
X028229Y013617D01*
X028229Y012176D01*
X046160Y012176D02*
X046520Y011816D01*
X047241Y011816D01*
X047601Y012176D01*
X047601Y013617D01*
X047241Y013977D01*
X046520Y013977D01*
X046160Y013617D01*
X046160Y012176D01*
X048499Y012536D02*
X049580Y012536D01*
X049940Y012897D01*
X049940Y013617D01*
X049580Y013977D01*
X048499Y013977D01*
X048499Y011816D01*
X051558Y011816D02*
X051558Y013977D01*
X050838Y013977D02*
X052279Y013977D01*
X053176Y013977D02*
X053897Y013977D01*
X053537Y013977D02*
X053537Y011816D01*
X053897Y011816D02*
X053176Y011816D01*
X054736Y011816D02*
X054736Y013977D01*
X055456Y013257D01*
X056177Y013977D01*
X056177Y011816D01*
X057074Y012176D02*
X057435Y011816D01*
X058155Y011816D01*
X058516Y012176D01*
X058516Y013977D01*
X059413Y013617D02*
X059413Y013257D01*
X059773Y012897D01*
X060494Y012897D01*
X060854Y012536D01*
X060854Y012176D01*
X060494Y011816D01*
X059773Y011816D01*
X059413Y012176D01*
X061752Y012176D02*
X061752Y011816D01*
X062112Y011816D01*
X062112Y012176D01*
X061752Y012176D01*
X062921Y012176D02*
X062921Y011816D01*
X063282Y011816D01*
X063282Y012176D01*
X062921Y012176D01*
X064091Y012176D02*
X064091Y011816D01*
X064451Y011816D01*
X064451Y012176D01*
X064091Y012176D01*
X065260Y012176D02*
X065260Y011816D01*
X065620Y011816D01*
X065620Y012176D01*
X065260Y012176D01*
X066430Y012176D02*
X066430Y011816D01*
X066790Y011816D01*
X066790Y012176D01*
X066430Y012176D01*
X060854Y013617D02*
X060494Y013977D01*
X059773Y013977D01*
X059413Y013617D01*
X057074Y013977D02*
X057074Y012176D01*
D11*
X057539Y005626D03*
X056539Y005626D03*
X056539Y004626D03*
X057539Y004626D03*
X058539Y004626D03*
X059539Y004626D03*
X060539Y004626D03*
X061539Y004626D03*
X062539Y004626D03*
X063539Y004626D03*
X064539Y004626D03*
X065539Y004626D03*
X066539Y004626D03*
X067539Y004626D03*
X068539Y004626D03*
X069539Y004626D03*
X070539Y004626D03*
X071539Y004626D03*
X072539Y004626D03*
X072539Y005626D03*
X071539Y005626D03*
X070539Y005626D03*
X069539Y005626D03*
X068539Y005626D03*
X067539Y005626D03*
X066539Y005626D03*
X065539Y005626D03*
X064539Y005626D03*
X063539Y005626D03*
X062539Y005626D03*
X061539Y005626D03*
X060539Y005626D03*
X059539Y005626D03*
X058539Y005626D03*
X040539Y005626D03*
X039539Y005626D03*
X038539Y005626D03*
X037539Y005626D03*
X036539Y005626D03*
X035539Y005626D03*
X034539Y005626D03*
X033539Y005626D03*
X032539Y005626D03*
X031539Y005626D03*
X030539Y005626D03*
X029539Y005626D03*
X028539Y005626D03*
X027539Y005626D03*
X026539Y005626D03*
X025539Y005626D03*
X024539Y005626D03*
X024539Y004626D03*
X025539Y004626D03*
X026539Y004626D03*
X027539Y004626D03*
X028539Y004626D03*
X029539Y004626D03*
X030539Y004626D03*
X031539Y004626D03*
X032539Y004626D03*
X033539Y004626D03*
X034539Y004626D03*
X035539Y004626D03*
X036539Y004626D03*
X037539Y004626D03*
X038539Y004626D03*
X039539Y004626D03*
X040539Y004626D03*
X019039Y013626D03*
X018039Y013626D03*
X018039Y014626D03*
X019039Y014626D03*
X019039Y015626D03*
X018039Y015626D03*
X018039Y016626D03*
X019039Y016626D03*
X019039Y017626D03*
X018039Y017626D03*
X018039Y018626D03*
X019039Y018626D03*
X019039Y019626D03*
X018039Y019626D03*
X018039Y020626D03*
X019039Y020626D03*
X019039Y021626D03*
X018039Y021626D03*
X018039Y022626D03*
X019039Y022626D03*
X019039Y023626D03*
X018039Y023626D03*
X018039Y024626D03*
X019039Y024626D03*
X019039Y025626D03*
X018039Y025626D03*
X018039Y026626D03*
X019039Y026626D03*
X019039Y027626D03*
X018039Y027626D03*
X018039Y028626D03*
X019039Y028626D03*
X019039Y029626D03*
X018039Y029626D03*
X026039Y029626D03*
X027039Y029626D03*
X028039Y029626D03*
X029039Y029626D03*
X030039Y029626D03*
X031039Y029626D03*
X032039Y029626D03*
X033039Y029626D03*
X034039Y029626D03*
X035039Y029626D03*
X036039Y029626D03*
X037039Y029626D03*
X038039Y029626D03*
X039039Y029626D03*
X040039Y029626D03*
X041039Y029626D03*
X042039Y029626D03*
X042039Y030626D03*
X041039Y030626D03*
X040039Y030626D03*
X039039Y030626D03*
X038039Y030626D03*
X037039Y030626D03*
X036039Y030626D03*
X035039Y030626D03*
X034039Y030626D03*
X033039Y030626D03*
X032039Y030626D03*
X031039Y030626D03*
X030039Y030626D03*
X029039Y030626D03*
X028039Y030626D03*
X027039Y030626D03*
X026039Y030626D03*
X057039Y031626D03*
X058039Y031626D03*
X059039Y031626D03*
X060039Y031626D03*
X061039Y031626D03*
X061039Y032626D03*
X060039Y032626D03*
X059039Y032626D03*
X058039Y032626D03*
X057039Y032626D03*
X062039Y032626D03*
X063039Y032626D03*
X064039Y032626D03*
X065039Y032626D03*
X066039Y032626D03*
X067039Y032626D03*
X068039Y032626D03*
X069039Y032626D03*
X070039Y032626D03*
X071039Y032626D03*
X072039Y032626D03*
X073039Y032626D03*
X073039Y031626D03*
X072039Y031626D03*
X071039Y031626D03*
X070039Y031626D03*
X069039Y031626D03*
X068039Y031626D03*
X067039Y031626D03*
X066039Y031626D03*
X065039Y031626D03*
X064039Y031626D03*
X063039Y031626D03*
X062039Y031626D03*
D12*
X062039Y027926D02*
X062039Y027326D01*
X063039Y027326D02*
X063039Y027926D01*
X064039Y027926D02*
X064039Y027326D01*
X065039Y027326D02*
X065039Y027926D01*
X066039Y027926D02*
X066039Y027326D01*
X067039Y027326D02*
X067039Y027926D01*
X071739Y022126D02*
X072339Y022126D01*
X072339Y021126D02*
X071739Y021126D01*
X071739Y020126D02*
X072339Y020126D01*
X072339Y019126D02*
X071739Y019126D01*
X071739Y018126D02*
X072339Y018126D01*
X072339Y017126D02*
X071739Y017126D01*
X060339Y017126D02*
X059739Y017126D01*
X059739Y018126D02*
X060339Y018126D01*
X060339Y019126D02*
X059739Y019126D01*
X059739Y020126D02*
X060339Y020126D01*
X060339Y021126D02*
X059739Y021126D01*
X059739Y022126D02*
X060339Y022126D01*
X049839Y022126D02*
X049239Y022126D01*
X049239Y021126D02*
X049839Y021126D01*
X049839Y020126D02*
X049239Y020126D01*
X049239Y019126D02*
X049839Y019126D01*
X049839Y018126D02*
X049239Y018126D01*
X049239Y017126D02*
X049839Y017126D01*
X038839Y017126D02*
X038239Y017126D01*
X038239Y018126D02*
X038839Y018126D01*
X038839Y019126D02*
X038239Y019126D01*
X038239Y020126D02*
X038839Y020126D01*
X038839Y021126D02*
X038239Y021126D01*
X038239Y022126D02*
X038839Y022126D01*
X028839Y022126D02*
X028239Y022126D01*
X028239Y021126D02*
X028839Y021126D01*
X028839Y020126D02*
X028239Y020126D01*
X028239Y019126D02*
X028839Y019126D01*
X028839Y018126D02*
X028239Y018126D01*
X028239Y017126D02*
X028839Y017126D01*
X019539Y009926D02*
X019539Y009326D01*
X018539Y009326D02*
X018539Y009926D01*
X017539Y009926D02*
X017539Y009326D01*
X017539Y007426D02*
X017539Y006826D01*
X018539Y006826D02*
X018539Y007426D01*
X019539Y007426D02*
X019539Y006826D01*
X030539Y008326D02*
X030539Y008926D01*
X031539Y008926D02*
X031539Y008326D01*
X032539Y008326D02*
X032539Y008926D01*
X033539Y008926D02*
X033539Y008326D01*
X033539Y033326D02*
X033539Y033926D01*
X032539Y033926D02*
X032539Y033326D01*
X031539Y033326D02*
X031539Y033926D01*
X030539Y033926D02*
X030539Y033326D01*
X034539Y033326D02*
X034539Y033926D01*
X014039Y036826D02*
X014039Y037426D01*
X013039Y037426D02*
X013039Y036826D01*
X012039Y036826D02*
X012039Y037426D01*
D13*
X079539Y027786D03*
X080539Y027246D03*
X079539Y026706D03*
X080539Y026166D03*
X079539Y025626D03*
X080539Y025086D03*
X079539Y024546D03*
X080539Y024006D03*
X079539Y023466D03*
D14*
X080039Y020696D03*
X080039Y030556D03*
D15*
X084106Y007712D03*
X084106Y002539D03*
X030126Y037693D03*
X024953Y037693D03*
D16*
X026161Y036626D03*
X027145Y036626D03*
X027933Y036626D03*
X028917Y036626D03*
X083039Y006504D03*
X083039Y005519D03*
X083039Y004732D03*
X083039Y003748D03*
D17*
X077072Y010776D02*
X076007Y010776D01*
X076007Y012626D02*
X077072Y012626D01*
X077072Y014476D02*
X076007Y014476D01*
X046889Y036593D02*
X046889Y037658D01*
X045039Y037658D02*
X045039Y036593D01*
X043189Y036593D02*
X043189Y037658D01*
D18*
X042539Y033626D03*
X041539Y033626D03*
X044539Y033626D03*
X048539Y033626D03*
X024039Y024126D03*
X024039Y020126D03*
X015539Y020126D03*
X014039Y020126D03*
X014039Y018126D03*
X011539Y017126D03*
X012289Y016626D03*
X011539Y016126D03*
X015539Y016126D03*
X015539Y014626D03*
X014039Y014126D03*
X014039Y012126D03*
X015539Y010626D03*
X015539Y009126D03*
X014039Y008126D03*
X014039Y006626D03*
X015539Y005126D03*
X012289Y004626D03*
X011539Y005126D03*
X011539Y004126D03*
X014039Y002626D03*
X018539Y004126D03*
X019539Y004126D03*
X021539Y002126D03*
X025539Y002126D03*
X011539Y009626D03*
X012289Y010126D03*
X011539Y010626D03*
X011539Y021626D03*
X012289Y022126D03*
X011539Y022626D03*
X014039Y024126D03*
X014039Y025626D03*
X015539Y025626D03*
X015539Y027126D03*
X012289Y027626D03*
X011539Y028126D03*
X011539Y027126D03*
X014039Y029626D03*
X014039Y031126D03*
X015539Y031126D03*
X015539Y033126D03*
X012289Y033126D03*
X011539Y032626D03*
X011539Y033626D03*
X014039Y035126D03*
X015539Y037126D03*
X015539Y021626D03*
X056539Y002126D03*
X060539Y002126D03*
X073539Y010126D03*
X070539Y012126D03*
X070539Y013126D03*
X073539Y014126D03*
X076039Y020126D03*
X076039Y024126D03*
D19*
X077055Y036213D02*
X077055Y037038D01*
X079023Y037038D02*
X079023Y036213D01*
X053023Y036713D02*
X053023Y037538D01*
X051055Y037538D02*
X051055Y036713D01*
X022023Y036713D02*
X022023Y037538D01*
X020055Y037538D02*
X020055Y036713D01*
X006452Y035110D02*
X005627Y035110D01*
X005627Y033141D02*
X006452Y033141D01*
X006452Y029110D02*
X005627Y029110D01*
X005627Y027141D02*
X006452Y027141D01*
X006452Y023610D02*
X005627Y023610D01*
X005627Y021641D02*
X006452Y021641D01*
X006452Y018110D02*
X005627Y018110D01*
X005627Y016141D02*
X006452Y016141D01*
X006452Y012610D02*
X005627Y012610D01*
X005627Y010641D02*
X006452Y010641D01*
X006452Y006610D02*
X005627Y006610D01*
X005627Y004641D02*
X006452Y004641D01*
X045555Y003038D02*
X045555Y002213D01*
X047523Y002213D02*
X047523Y003038D01*
X050555Y003038D02*
X050555Y002213D01*
X052523Y002213D02*
X052523Y003038D01*
X078055Y003038D02*
X078055Y002213D01*
X080023Y002213D02*
X080023Y003038D01*
D20*
X082039Y009196D02*
X083039Y009196D01*
X083039Y018056D02*
X082039Y018056D01*
X040469Y036626D02*
X040469Y037626D01*
X031609Y037626D02*
X031609Y036626D01*
D21*
X030039Y035126D02*
X034039Y035126D01*
X035539Y036626D01*
X036039Y036626D01*
X038539Y039126D01*
X044039Y039126D01*
X045039Y038126D01*
X045039Y037126D01*
X040469Y037126D02*
X039539Y037126D01*
X038539Y036126D01*
X038539Y034626D01*
X037539Y033626D01*
X034539Y033626D01*
X036039Y032126D02*
X042039Y032126D01*
X042539Y032626D01*
X042539Y033626D01*
X043039Y033626D01*
X044039Y034626D01*
X048039Y034626D01*
X050039Y036626D01*
X050555Y036626D01*
X051055Y037126D01*
X053023Y037126D02*
X053039Y037141D01*
X053039Y038126D01*
X053539Y038626D01*
X078539Y038626D01*
X079023Y038141D01*
X079023Y036626D01*
X074539Y033126D02*
X073039Y034626D01*
X058039Y034626D01*
X057039Y033626D01*
X057039Y032626D01*
X053023Y037126D02*
X053023Y027641D01*
X052539Y027157D01*
X052539Y016126D01*
X056039Y017626D02*
X056539Y017126D01*
X060039Y017126D01*
X056039Y017626D02*
X056039Y021126D01*
X058039Y023126D01*
X064039Y023126D01*
X065539Y021626D01*
X065539Y018126D01*
X069039Y014626D01*
X069039Y008626D01*
X069539Y008126D01*
X072539Y008126D01*
X074039Y006626D01*
X074039Y005126D01*
X073539Y004626D01*
X072539Y004626D01*
X070539Y004626D02*
X070539Y002626D01*
X070039Y002126D01*
X060539Y002126D01*
X056539Y002126D02*
X055539Y002126D01*
X054539Y001126D01*
X051039Y001126D01*
X050539Y001626D01*
X050539Y002626D01*
X050555Y002626D01*
X052523Y002626D02*
X052539Y002641D01*
X052539Y004626D01*
X051539Y005626D01*
X048039Y005626D01*
X047523Y005110D01*
X047523Y002626D01*
X047539Y002641D01*
X047539Y005126D01*
X044539Y008126D01*
X040539Y008126D01*
X028539Y016626D02*
X025539Y013626D01*
X022539Y013626D01*
X017539Y016626D02*
X017039Y016126D01*
X017039Y010626D01*
X016539Y010126D01*
X016539Y007626D01*
X017039Y007126D01*
X017539Y007126D01*
X018539Y007126D02*
X018539Y009626D01*
X019539Y009626D02*
X019539Y007126D01*
X020539Y005626D02*
X021539Y006626D01*
X021539Y022126D01*
X021039Y022626D01*
X019039Y022626D01*
X014039Y022126D02*
X014039Y024126D01*
X011539Y022626D02*
X011039Y023126D01*
X010039Y023126D01*
X009539Y022626D01*
X009539Y020626D01*
X010539Y019626D01*
X012039Y019626D01*
X013039Y019626D02*
X013039Y021126D01*
X014039Y022126D01*
X013039Y019626D02*
X013539Y019126D01*
X015039Y019126D01*
X015539Y018626D01*
X015539Y018126D01*
X014039Y016626D01*
X014039Y014126D01*
X017539Y016626D02*
X018039Y016626D01*
X028539Y016626D02*
X028539Y017126D01*
X015539Y010626D02*
X015039Y010626D01*
X014539Y010126D01*
X012289Y010126D01*
X011539Y010626D02*
X011039Y010626D01*
X010539Y010126D01*
X010539Y008626D01*
X011039Y008126D01*
X014039Y008126D01*
X015539Y009126D02*
X015539Y006626D01*
X016539Y005626D01*
X020539Y005626D01*
X014039Y002626D02*
X013539Y003126D01*
X013539Y005626D01*
X013039Y006126D01*
X012039Y006126D01*
X011539Y005626D01*
X011539Y005126D01*
X014039Y025626D02*
X014039Y027626D01*
X015539Y029126D01*
X016039Y029126D01*
X016539Y029626D01*
X016539Y031626D01*
X017539Y030626D02*
X022039Y030626D01*
X022539Y031126D01*
X022539Y032626D01*
X019539Y035626D01*
X018539Y035626D01*
X017039Y037126D01*
X015539Y037126D01*
X014039Y037126D02*
X016039Y035126D01*
X016039Y034626D01*
X018039Y032626D01*
X021039Y032626D01*
X021539Y032126D01*
X015539Y033126D02*
X012289Y033126D01*
X028917Y036248D02*
X030039Y035126D01*
X028917Y036248D02*
X028917Y036626D01*
X053023Y027641D02*
X056039Y024626D01*
X061539Y024626D01*
X063039Y026126D01*
X063039Y027626D01*
X064039Y027626D02*
X064039Y025626D01*
X067039Y022626D01*
X067039Y019626D01*
X068539Y018126D01*
X072039Y018126D01*
X072039Y017126D02*
X074039Y017126D01*
X074539Y017626D01*
X074539Y033126D01*
X073539Y014126D02*
X073539Y012626D01*
X073039Y012126D01*
X070539Y012126D01*
X076539Y012626D02*
X077539Y012626D01*
X080039Y010126D01*
X080039Y005126D01*
X081539Y003626D01*
X082917Y003626D01*
X083039Y003748D01*
D22*
X052539Y016126D03*
X040539Y008126D03*
X022539Y013626D03*
X012039Y019626D03*
X017539Y030626D03*
X016539Y031626D03*
X021539Y032126D03*
X028539Y032626D03*
X036039Y032126D03*
D23*
X036039Y030626D02*
X036539Y030126D01*
X036539Y028626D01*
X042039Y023126D01*
X050039Y023126D01*
X051039Y022126D01*
X051039Y019626D01*
X050539Y019126D01*
X049539Y019126D01*
X049539Y020126D02*
X044039Y020126D01*
X035539Y028626D01*
X035539Y030126D01*
X035039Y030626D01*
X033539Y032126D02*
X033539Y033626D01*
X032539Y033626D02*
X032539Y033126D01*
X032039Y032626D01*
X028539Y032626D01*
X027039Y031626D02*
X033039Y031626D01*
X033539Y032126D01*
X027039Y031626D02*
X026539Y031126D01*
X026539Y030126D01*
X026039Y029626D01*
X025039Y030126D02*
X025539Y030626D01*
X026039Y030626D01*
X025039Y030126D02*
X025039Y029126D01*
X025539Y028626D01*
X034539Y028626D01*
X046039Y017126D01*
X049539Y017126D01*
X060039Y019126D02*
X061539Y019126D01*
X063039Y017626D01*
X064039Y018126D02*
X062039Y020126D01*
X060039Y020126D01*
X070039Y020626D02*
X070039Y025126D01*
X068539Y026626D01*
X068539Y028126D01*
X066539Y030126D01*
X066539Y032126D01*
X066039Y032626D01*
X067039Y032626D02*
X067539Y032126D01*
X067539Y030626D01*
X070039Y028126D01*
X070039Y025626D01*
X071039Y024626D01*
X071539Y024626D01*
X073039Y023126D01*
X073039Y019626D01*
X072539Y019126D01*
X072039Y019126D01*
X072039Y020126D02*
X070539Y020126D01*
X070039Y020626D01*
X064039Y005126D02*
X063539Y004626D01*
X063039Y005126D02*
X062539Y004626D01*
D24*
X063039Y005126D02*
X063039Y007626D01*
X065539Y010126D01*
X067039Y010126D01*
X067539Y010626D01*
X067539Y012626D01*
X067039Y013126D01*
X064039Y013126D01*
X063039Y014126D01*
X063039Y017626D01*
X064039Y018126D02*
X064039Y015126D01*
X065039Y014126D01*
X067539Y014126D01*
X068039Y013626D01*
X068039Y010126D01*
X067039Y009126D01*
X066039Y009126D01*
X064039Y007126D01*
X064039Y005126D01*
X039539Y019626D02*
X039039Y019126D01*
X038539Y019126D01*
X039539Y019626D02*
X039539Y022626D01*
X039039Y023126D01*
X035539Y023126D01*
X029539Y017126D01*
X029539Y016626D01*
X026039Y013126D01*
X026039Y008126D01*
X026539Y007626D01*
X029539Y007626D01*
X031039Y006126D01*
X031039Y005126D01*
X030539Y004626D01*
X031539Y004626D02*
X032039Y005126D01*
X032039Y006126D01*
X033039Y007126D01*
X034539Y007126D01*
X035039Y007626D01*
X035039Y009126D01*
X034039Y010126D01*
X031039Y010126D01*
X030539Y010626D01*
X027539Y010626D01*
X026539Y011626D01*
X026539Y012626D01*
X034039Y020126D01*
X038539Y020126D01*
X030039Y019626D02*
X030039Y023126D01*
X028039Y025126D01*
X023539Y025126D01*
X022539Y024126D01*
X018539Y024126D01*
X018039Y023626D01*
X018539Y023126D02*
X018039Y022626D01*
X018539Y023126D02*
X022039Y023126D01*
X022539Y022626D01*
X022539Y020126D01*
X023539Y019126D01*
X026039Y019126D01*
X027039Y020126D01*
X028539Y020126D01*
X028539Y019126D02*
X029539Y019126D01*
X030039Y019626D01*
X057039Y030626D02*
X058539Y029126D01*
X064539Y029126D01*
X065039Y028626D01*
X065039Y027626D01*
X066039Y027626D02*
X066039Y028126D01*
X065539Y028626D01*
X065539Y029126D01*
X064539Y030126D01*
X059039Y030126D01*
X058039Y031126D01*
X058039Y031626D01*
X057039Y031626D02*
X057039Y030626D01*
X076039Y025126D02*
X076039Y024126D01*
X076039Y025126D02*
X077539Y026626D01*
X079459Y026626D01*
X079539Y026706D01*
X080539Y026166D02*
X082499Y026166D01*
X083039Y025626D01*
X083039Y023126D01*
X082039Y022126D01*
X077039Y022126D01*
X076039Y021126D01*
X076039Y020126D01*
D25*
X005039Y001626D03*
X025539Y033626D03*
X084039Y036626D03*
X074039Y001626D03*
M02*
