G75*
G70*
%OFA0B0*%
%FSLAX24Y24*%
%IPPOS*%
%LPD*%
%AMOC8*
5,1,8,0,0,1.08239X$1,22.5*
%
%ADD10C,0.1340*%
%ADD11C,0.0680*%
%ADD12C,0.0674*%
%ADD13OC8,0.1580*%
%ADD14C,0.2630*%
%ADD15C,0.0940*%
%ADD16OC8,0.0940*%
%ADD17C,0.0940*%
%ADD18C,0.0600*%
%ADD19OC8,0.0640*%
%ADD20OC8,0.0600*%
%ADD21C,0.1064*%
%ADD22C,0.0740*%
%ADD23C,0.1070*%
%ADD24OC8,0.0710*%
%ADD25C,0.0480*%
%ADD26R,0.0476X0.0476*%
%ADD27C,0.0476*%
D10*
X002097Y002295D03*
X002249Y040864D03*
X067928Y001989D03*
X068387Y041323D03*
D11*
X046222Y024587D02*
X046222Y023987D01*
X045222Y023987D02*
X045222Y024587D01*
X044222Y024587D02*
X044222Y023987D01*
X043222Y023987D02*
X043222Y024587D01*
X042222Y024587D02*
X042222Y023987D01*
X041222Y023987D02*
X041222Y024587D01*
X040222Y024587D02*
X040222Y023987D01*
X039222Y023987D02*
X039222Y024587D01*
X038222Y024587D02*
X038222Y023987D01*
X037222Y023987D02*
X037222Y024587D01*
X034683Y024585D02*
X034683Y023985D01*
X033683Y023985D02*
X033683Y024585D01*
X032683Y024585D02*
X032683Y023985D01*
X031683Y023985D02*
X031683Y024585D01*
X030683Y024585D02*
X030683Y023985D01*
X029683Y023985D02*
X029683Y024585D01*
X028683Y024585D02*
X028683Y023985D01*
X027683Y023985D02*
X027683Y024585D01*
X026683Y024585D02*
X026683Y023985D01*
X025683Y023985D02*
X025683Y024585D01*
X023427Y020649D02*
X023427Y020049D01*
X022427Y020049D02*
X022427Y020649D01*
X021427Y020649D02*
X021427Y020049D01*
X018099Y020564D02*
X018099Y021164D01*
X017099Y021164D02*
X017099Y020564D01*
X016099Y020564D02*
X016099Y021164D01*
X016073Y023946D02*
X016073Y024546D01*
X017073Y024546D02*
X017073Y023946D01*
X018073Y023946D02*
X018073Y024546D01*
X018017Y027064D02*
X018017Y027664D01*
X017017Y027664D02*
X017017Y027064D01*
X016017Y027064D02*
X016017Y027664D01*
X015996Y030051D02*
X015996Y030651D01*
X016996Y030651D02*
X016996Y030051D01*
X017996Y030051D02*
X017996Y030651D01*
X018020Y033076D02*
X018020Y033676D01*
X017020Y033676D02*
X017020Y033076D01*
X016020Y033076D02*
X016020Y033676D01*
X016111Y035883D02*
X016111Y036483D01*
X017111Y036483D02*
X017111Y035883D01*
X018111Y035883D02*
X018111Y036483D01*
X018111Y038883D02*
X018111Y039483D01*
X017111Y039483D02*
X017111Y038883D01*
X016111Y038883D02*
X016111Y039483D01*
X013111Y039483D02*
X013111Y038883D01*
X012111Y038883D02*
X012111Y039483D01*
X011111Y039483D02*
X011111Y038883D01*
X011111Y036483D02*
X011111Y035883D01*
X012111Y035883D02*
X012111Y036483D01*
X013111Y036483D02*
X013111Y035883D01*
X021434Y017313D02*
X021434Y016713D01*
X022434Y016713D02*
X022434Y017313D01*
X023434Y017313D02*
X023434Y016713D01*
X023506Y014254D02*
X023506Y013654D01*
X022506Y013654D02*
X022506Y014254D01*
X021506Y014254D02*
X021506Y013654D01*
D12*
X022108Y009502D03*
X023108Y009502D03*
X023108Y008502D03*
X022108Y008502D03*
X022108Y007502D03*
X023108Y007502D03*
X023108Y006502D03*
X022108Y006502D03*
X022108Y005502D03*
X023108Y005502D03*
X045147Y005096D03*
X046147Y005096D03*
X046147Y006096D03*
X045147Y006096D03*
X045147Y007096D03*
X046147Y007096D03*
X046147Y008096D03*
X045147Y008096D03*
X045147Y009096D03*
X046147Y009096D03*
X050477Y008983D03*
X051477Y008983D03*
X051477Y007983D03*
X051477Y006983D03*
X051477Y005983D03*
X050477Y005983D03*
X050477Y006983D03*
X050477Y007983D03*
X050477Y004983D03*
X051477Y004983D03*
X055869Y005379D03*
X056869Y005379D03*
X056869Y006379D03*
X055869Y006379D03*
X055869Y007379D03*
X056869Y007379D03*
X056869Y008379D03*
X056869Y009379D03*
X055869Y009379D03*
X055869Y008379D03*
X061576Y008378D03*
X061576Y007378D03*
X062576Y007378D03*
X062576Y008378D03*
X062576Y009378D03*
X061576Y009378D03*
X061576Y006378D03*
X061576Y005378D03*
X062576Y005378D03*
X062576Y006378D03*
X066330Y006476D03*
X066330Y007476D03*
X066330Y008476D03*
X067330Y008476D03*
X067330Y007476D03*
X067330Y006476D03*
X067330Y005476D03*
X066330Y005476D03*
X066330Y009476D03*
X067330Y009476D03*
X067550Y015290D03*
X066550Y015290D03*
X066550Y016290D03*
X067550Y016290D03*
X067550Y017290D03*
X067550Y018290D03*
X066550Y018290D03*
X066550Y017290D03*
X066550Y019290D03*
X067550Y019290D03*
X062477Y019296D03*
X061477Y019296D03*
X061477Y018296D03*
X062477Y018296D03*
X062477Y017296D03*
X062477Y016296D03*
X061477Y016296D03*
X061477Y017296D03*
X061477Y015296D03*
X062477Y015296D03*
X056845Y015230D03*
X056845Y016230D03*
X055845Y016230D03*
X055845Y015230D03*
X055845Y017230D03*
X055845Y018230D03*
X056845Y018230D03*
X056845Y017230D03*
X056845Y019230D03*
X055845Y019230D03*
X051537Y018916D03*
X050537Y018916D03*
X050537Y017916D03*
X051537Y017916D03*
X051537Y016916D03*
X050537Y016916D03*
X050537Y015916D03*
X051537Y015916D03*
X051537Y014916D03*
X050537Y014916D03*
X046037Y014916D03*
X045037Y014916D03*
X045037Y015916D03*
X046037Y015916D03*
X046037Y016916D03*
X045037Y016916D03*
X045037Y017916D03*
X046037Y017916D03*
X046037Y018916D03*
X045037Y018916D03*
X055830Y025116D03*
X056830Y025116D03*
X056830Y026116D03*
X056830Y027116D03*
X056830Y028116D03*
X055830Y028116D03*
X055830Y027116D03*
X055830Y026116D03*
X055830Y029116D03*
X056830Y029116D03*
X061403Y029157D03*
X062403Y029157D03*
X062403Y028157D03*
X061403Y028157D03*
X061403Y027157D03*
X062403Y027157D03*
X062403Y026157D03*
X061403Y026157D03*
X061403Y025157D03*
X062403Y025157D03*
X066523Y025256D03*
X067523Y025256D03*
X067523Y026256D03*
X066523Y026256D03*
X066523Y027256D03*
X067523Y027256D03*
X067523Y028256D03*
X066523Y028256D03*
X066523Y029256D03*
X067523Y029256D03*
X067509Y034287D03*
X066509Y034287D03*
X066509Y035287D03*
X066509Y036287D03*
X067509Y036287D03*
X067509Y035287D03*
X067509Y037287D03*
X066509Y037287D03*
X066509Y038287D03*
X067509Y038287D03*
X062316Y038563D03*
X061316Y038563D03*
X061316Y037563D03*
X062316Y037563D03*
X062316Y036563D03*
X061316Y036563D03*
X061316Y035563D03*
X062316Y035563D03*
X062316Y034563D03*
X061316Y034563D03*
X056611Y034683D03*
X055611Y034683D03*
X055611Y035683D03*
X056611Y035683D03*
X056611Y036683D03*
X055611Y036683D03*
X055611Y037683D03*
X056611Y037683D03*
X056611Y038683D03*
X055611Y038683D03*
D13*
X010761Y008983D03*
X006461Y008983D03*
D14*
X008611Y003733D03*
X008611Y015633D03*
D15*
X010698Y022277D03*
X009418Y028593D03*
D16*
X011418Y028593D03*
X008698Y022277D03*
D17*
X006051Y023915D02*
X005191Y023915D01*
X004439Y025374D02*
X004439Y026234D01*
X006802Y026234D02*
X006802Y025374D01*
D18*
X006828Y029008D02*
X006308Y029008D01*
X002828Y029008D02*
X002308Y029008D01*
X002308Y033008D02*
X002828Y033008D01*
X006308Y033008D02*
X006828Y033008D01*
X006611Y037923D02*
X006611Y038443D01*
X007611Y038443D02*
X007611Y037923D01*
X004764Y021194D02*
X004244Y021194D01*
X004244Y020214D02*
X004764Y020214D01*
X004764Y019234D02*
X004244Y019234D01*
X002404Y019234D02*
X001884Y019234D01*
X001884Y020214D02*
X002404Y020214D01*
X002404Y021194D02*
X001884Y021194D01*
X019486Y002275D02*
X019486Y001755D01*
X020486Y001755D02*
X020486Y002275D01*
X023279Y002364D02*
X023279Y001844D01*
X024279Y001844D02*
X024279Y002364D01*
D19*
X027897Y004800D03*
X027897Y005800D03*
X027897Y006800D03*
X026897Y006800D03*
X026897Y007800D03*
X027897Y007800D03*
X027897Y008800D03*
X026897Y008800D03*
X026897Y009800D03*
X027897Y009800D03*
X027897Y010800D03*
X026897Y010800D03*
X026897Y011800D03*
X027897Y011800D03*
X027897Y012800D03*
X026897Y012800D03*
X026897Y013800D03*
X027897Y013800D03*
X027897Y014800D03*
X026897Y014800D03*
X026897Y015800D03*
X027897Y015800D03*
X027897Y016800D03*
X026897Y016800D03*
X026897Y017800D03*
X027897Y017800D03*
X027897Y018800D03*
X026897Y018800D03*
X027897Y019800D03*
X027897Y020800D03*
X028897Y020800D03*
X029897Y020800D03*
X029897Y019800D03*
X028897Y019800D03*
X030897Y019800D03*
X031897Y019800D03*
X032897Y019800D03*
X032897Y020800D03*
X031897Y020800D03*
X030897Y020800D03*
X033897Y020800D03*
X034897Y020800D03*
X034897Y019800D03*
X033897Y019800D03*
X035897Y019800D03*
X036897Y019800D03*
X036897Y020800D03*
X035897Y020800D03*
X037897Y020800D03*
X038897Y020800D03*
X039897Y020800D03*
X039897Y019800D03*
X038897Y019800D03*
X037897Y019800D03*
X039897Y018800D03*
X040897Y018800D03*
X040897Y017800D03*
X039897Y017800D03*
X039897Y016800D03*
X040897Y016800D03*
X040897Y015800D03*
X039897Y015800D03*
X039897Y014800D03*
X039897Y013800D03*
X040897Y013800D03*
X040897Y014800D03*
X040897Y012800D03*
X039897Y012800D03*
X039897Y011800D03*
X039897Y010800D03*
X040897Y010800D03*
X040897Y011800D03*
X040897Y009800D03*
X039897Y009800D03*
X039897Y008800D03*
X039897Y007800D03*
X040897Y007800D03*
X040897Y008800D03*
X040897Y006800D03*
X039897Y006800D03*
X039897Y005800D03*
X038897Y005800D03*
X037897Y005800D03*
X036897Y005800D03*
X035897Y005800D03*
X034897Y005800D03*
X033897Y005800D03*
X032897Y005800D03*
X031897Y005800D03*
X030897Y005800D03*
X029897Y005800D03*
X028897Y005800D03*
X028897Y004800D03*
X029897Y004800D03*
X030897Y004800D03*
X031897Y004800D03*
X032897Y004800D03*
X033897Y004800D03*
X034897Y004800D03*
X035897Y004800D03*
X036897Y004800D03*
X037897Y004800D03*
X038897Y004800D03*
X039897Y004800D03*
D20*
X019894Y006494D03*
X018721Y006532D03*
X018721Y010532D03*
X019894Y010494D03*
X006612Y031008D03*
X002612Y031008D03*
D21*
X022078Y026779D03*
X022078Y038984D03*
X051605Y038984D03*
X051605Y026779D03*
D22*
X039243Y038984D03*
X038243Y038984D03*
X037243Y038984D03*
X036243Y038984D03*
X035243Y038984D03*
X034243Y038984D03*
X033243Y038984D03*
X032243Y038984D03*
X031243Y038984D03*
X030243Y038984D03*
X029243Y038984D03*
X028243Y038984D03*
X027243Y038984D03*
X026243Y038984D03*
X025243Y038984D03*
X024243Y038984D03*
D23*
X003745Y037245D02*
X002755Y037245D01*
X002755Y035685D02*
X003745Y035685D01*
D24*
X036244Y017703D03*
X037244Y017703D03*
X030034Y014529D03*
X030034Y013529D03*
X037622Y012342D03*
X037622Y011342D03*
X031206Y007900D03*
X030206Y007900D03*
D25*
X029254Y009544D03*
X028630Y010151D03*
X034118Y009282D03*
X034683Y009027D03*
X038392Y009824D03*
X038078Y013210D03*
X038165Y014078D03*
X037633Y014764D03*
X037062Y015315D03*
X035907Y015457D03*
X034132Y015142D03*
X033297Y016135D03*
X032806Y016686D03*
X032215Y017288D03*
X031391Y017779D03*
X028650Y018289D03*
X024953Y018282D03*
X028933Y020677D03*
X026713Y024299D03*
X025646Y024193D03*
X023577Y024197D03*
X019028Y026421D03*
X018738Y028404D03*
X022772Y028963D03*
X023958Y028817D03*
X022883Y030595D03*
X022625Y032263D03*
X023067Y034242D03*
X023038Y035686D03*
X021101Y035686D03*
X019096Y034367D03*
X019001Y031484D03*
X019706Y037504D03*
X021931Y037504D03*
X024293Y039181D03*
X026614Y037288D03*
X017117Y040569D03*
X006577Y028893D03*
X018794Y022798D03*
X021240Y015232D03*
X014300Y015020D03*
X025745Y005483D03*
X025762Y004034D03*
X026765Y002660D03*
X031880Y003671D03*
X046630Y003208D03*
X047181Y002658D03*
X048063Y002141D03*
X047054Y004564D03*
X054419Y005316D03*
X057847Y003424D03*
X058855Y005378D03*
X063637Y003924D03*
X064903Y004519D03*
X054564Y008961D03*
X054501Y010674D03*
X055785Y011237D03*
X062976Y012978D03*
X053369Y018290D03*
X054543Y018946D03*
X055477Y020450D03*
X055435Y021255D03*
X055853Y022099D03*
X052802Y020391D03*
X052303Y021204D03*
X048747Y018684D03*
X047529Y018681D03*
X047568Y019737D03*
X047369Y020457D03*
X047521Y021391D03*
X045728Y026805D03*
X046851Y026968D03*
X047954Y027030D03*
X050912Y028139D03*
X050754Y029272D03*
X051746Y029823D03*
X052686Y030429D03*
X055479Y030531D03*
X056038Y029942D03*
X050797Y033784D03*
X047892Y033848D03*
X046480Y033449D03*
X045357Y032974D03*
X044300Y032934D03*
X048770Y035947D03*
X049305Y037270D03*
X048831Y038579D03*
X048813Y040235D03*
X055461Y039778D03*
X041945Y039130D03*
X035144Y027185D03*
X036200Y026671D03*
X037213Y026288D03*
X034266Y026306D03*
X044815Y026591D03*
X035224Y018718D03*
X035233Y018704D03*
X036272Y017682D03*
X015072Y003824D03*
D26*
X028897Y020664D03*
D27*
X020649Y008325D03*
X019876Y004396D03*
X018708Y004486D03*
M02*
