G75*
G70*
%OFA0B0*%
%FSLAX24Y24*%
%IPPOS*%
%LPD*%
%AMOC8*
5,1,8,0,0,1.08239X$1,22.5*
%
%ADD10C,0.0000*%
%ADD11R,0.2000X0.0700*%
%ADD12R,0.0425X0.0413*%
%ADD13C,0.0600*%
%ADD14R,0.0630X0.0512*%
%ADD15R,0.0413X0.0425*%
%ADD16OC8,0.0560*%
%ADD17C,0.0594*%
%ADD18R,0.0512X0.0630*%
%ADD19C,0.0080*%
%ADD20C,0.0120*%
%ADD21C,0.0278*%
%ADD22C,0.0320*%
%ADD23C,0.0400*%
%ADD24C,0.0240*%
D10*
X000105Y000266D02*
X000115Y018794D01*
X016854Y018794D01*
X016843Y000266D01*
X000105Y000266D01*
D11*
X006366Y010266D03*
X010166Y010266D03*
D12*
X008551Y011645D03*
X008551Y012334D03*
X007632Y012363D03*
X007632Y011674D03*
X003665Y009322D03*
X003665Y008633D03*
X012250Y014855D03*
X012250Y015544D03*
X013211Y015541D03*
X013211Y014852D03*
X013140Y011274D03*
X013140Y010585D03*
X012468Y006409D03*
X012468Y005721D03*
D13*
X011603Y006045D02*
X011603Y006645D01*
X013383Y006645D02*
X013383Y006045D01*
X013383Y004085D02*
X013383Y003485D01*
X011603Y003485D02*
X011603Y004085D01*
D14*
X012495Y003947D03*
X012495Y004695D03*
D15*
X008611Y007831D03*
X007922Y007831D03*
X006531Y015342D03*
X005842Y015342D03*
D16*
X005488Y016582D03*
X005488Y017582D03*
X004488Y017582D03*
X004488Y016582D03*
X003488Y016582D03*
X003488Y017582D03*
X002488Y017582D03*
X002488Y016582D03*
X002439Y015507D03*
X002439Y014507D03*
X002439Y013507D03*
X002439Y012507D03*
X002439Y011507D03*
X002439Y010507D03*
X002439Y009507D03*
X002439Y008507D03*
X002439Y007507D03*
X002439Y006507D03*
X002439Y005507D03*
X002439Y004507D03*
X002439Y003507D03*
X001439Y003507D03*
X001439Y004507D03*
X001439Y005507D03*
X001439Y006507D03*
X001439Y007507D03*
X001439Y008507D03*
X001439Y009507D03*
X001439Y010507D03*
X001439Y011507D03*
X001439Y012507D03*
X001439Y013507D03*
X001439Y014507D03*
X001439Y015507D03*
X006488Y016582D03*
X006488Y017582D03*
X007488Y017582D03*
X007488Y016582D03*
X008488Y016582D03*
X009488Y016582D03*
X009488Y017582D03*
X008488Y017582D03*
X010488Y017582D03*
X010488Y016582D03*
X011488Y016582D03*
X011488Y017582D03*
X012488Y017582D03*
X012488Y016582D03*
X013488Y016582D03*
X013488Y017582D03*
X014488Y017582D03*
X014488Y016582D03*
X014545Y015512D03*
X014545Y014512D03*
X014545Y013512D03*
X015545Y013512D03*
X015545Y014512D03*
X015545Y015512D03*
X015545Y012512D03*
X015545Y011512D03*
X015545Y010512D03*
X015545Y009512D03*
X014545Y009512D03*
X014545Y010512D03*
X014545Y011512D03*
X014545Y012512D03*
X014545Y008512D03*
X014545Y007512D03*
X014545Y006512D03*
X014545Y005512D03*
X015545Y005512D03*
X015545Y006512D03*
X015545Y007512D03*
X015545Y008512D03*
X015545Y004512D03*
X015545Y003512D03*
X014545Y003512D03*
X014545Y004512D03*
X014504Y002408D03*
X014504Y001408D03*
X013504Y001408D03*
X013504Y002408D03*
X012504Y002408D03*
X012504Y001408D03*
X011504Y001408D03*
X011504Y002408D03*
X010504Y002408D03*
X010504Y001408D03*
X009504Y001408D03*
X009504Y002408D03*
X008504Y002408D03*
X008504Y001408D03*
X007504Y001408D03*
X007504Y002408D03*
X006504Y002408D03*
X006504Y001408D03*
X005504Y001408D03*
X005504Y002408D03*
X004504Y002408D03*
X004504Y001408D03*
X003504Y001408D03*
X003504Y002408D03*
X002504Y002408D03*
X002504Y001408D03*
D17*
X005145Y004571D03*
X005145Y005571D03*
X006145Y005571D03*
X006145Y004571D03*
X007145Y004571D03*
X007145Y005571D03*
X008145Y005571D03*
X008145Y004571D03*
X009145Y004571D03*
X009145Y005571D03*
D18*
X010109Y014942D03*
X010857Y014942D03*
D19*
X010644Y014729D02*
X010644Y014221D01*
X010355Y013932D01*
X006163Y013932D01*
X005970Y013739D01*
X005970Y013344D01*
X005621Y013432D02*
X005621Y013112D01*
X005950Y012782D01*
X005764Y012782D01*
X004260Y011278D01*
X004260Y004695D01*
X004383Y004571D01*
X005145Y004571D01*
X004381Y004518D02*
X004293Y004429D01*
X004260Y004260D02*
X004953Y003567D01*
X004953Y001183D01*
X005258Y000878D01*
X009962Y000878D01*
X010023Y000938D01*
X010432Y001408D02*
X010043Y001798D01*
X009996Y001844D01*
X009996Y002713D01*
X011002Y002153D02*
X011002Y000558D01*
X010504Y001408D02*
X010432Y001408D01*
X011002Y002153D02*
X011257Y002408D01*
X012022Y002835D02*
X012495Y003309D01*
X012495Y003947D01*
X013383Y003785D02*
X013383Y003490D01*
X013851Y003023D01*
X016533Y003023D01*
X015915Y004994D02*
X015063Y004994D01*
X014545Y005512D01*
X014201Y006039D02*
X015018Y006039D01*
X015545Y005512D01*
X015915Y004994D02*
X016140Y005219D01*
X016140Y008829D01*
X015915Y009054D01*
X013862Y009054D01*
X013462Y009455D01*
X012581Y010336D01*
X012581Y010708D01*
X011853Y011436D01*
X011248Y011436D01*
X010981Y011702D01*
X010981Y012114D01*
X010000Y013095D01*
X006766Y013095D01*
X004745Y011074D01*
X004745Y008152D01*
X005145Y007752D01*
X005145Y005571D01*
X004260Y004695D02*
X004260Y004260D01*
X005593Y003534D02*
X005593Y007845D01*
X005004Y008434D01*
X005004Y010914D01*
X005855Y011765D01*
X006920Y012830D01*
X009724Y012830D01*
X010591Y011964D01*
X010591Y011162D01*
X010815Y010937D01*
X011810Y010937D01*
X012130Y010618D01*
X012130Y009172D01*
X011967Y009010D01*
X011903Y008946D01*
X008718Y008946D01*
X008310Y008874D02*
X008656Y008528D01*
X010184Y008551D01*
X009636Y009236D02*
X007946Y009236D01*
X007583Y009236D01*
X006817Y008469D01*
X006817Y006691D01*
X006680Y006554D01*
X006680Y005106D01*
X006145Y004571D01*
X006601Y005027D02*
X006601Y006077D01*
X006228Y006449D01*
X006228Y008682D01*
X006446Y008899D01*
X006864Y008899D01*
X007632Y009667D01*
X007632Y011674D01*
X007632Y012363D02*
X006901Y012363D01*
X006389Y011850D01*
X006389Y010288D01*
X006389Y009635D01*
X006449Y009574D01*
X006602Y009574D01*
X007689Y008956D02*
X007143Y008434D01*
X007143Y005573D01*
X007145Y005571D02*
X007683Y005034D01*
X009489Y005034D01*
X009518Y005062D02*
X011608Y005062D01*
X011603Y005067D02*
X011603Y006345D01*
X012228Y005721D01*
X012468Y006409D02*
X013319Y006409D01*
X013383Y006345D01*
X013383Y003785D01*
X012073Y002785D02*
X012073Y001839D01*
X012504Y001408D01*
X011603Y003785D02*
X011603Y006345D01*
X011594Y005185D02*
X011498Y005090D01*
X011498Y005035D02*
X011567Y004966D01*
X009609Y007378D02*
X013801Y007378D01*
X013988Y007191D01*
X013988Y006252D01*
X014201Y006039D01*
X015064Y006993D02*
X015064Y007851D01*
X014939Y007976D01*
X014248Y007976D01*
X014038Y007766D01*
X009434Y007766D01*
X008145Y006477D01*
X008145Y005571D01*
X009145Y005571D02*
X009145Y006914D01*
X009609Y007378D01*
X008611Y007831D02*
X008611Y008150D01*
X008322Y008439D01*
X008310Y008874D02*
X008298Y008897D01*
X008169Y008956D01*
X007689Y008956D01*
X007922Y008638D02*
X007922Y007831D01*
X009243Y009577D02*
X009914Y009577D01*
X010166Y009830D01*
X010166Y010266D01*
X010158Y010274D02*
X010158Y011653D01*
X009476Y012334D01*
X008551Y012334D01*
X008545Y010955D02*
X009674Y010955D01*
X009686Y010967D01*
X008545Y010955D02*
X008322Y010732D01*
X008322Y009767D01*
X005621Y013432D02*
X005481Y013572D01*
X005481Y014253D01*
X005478Y014253D01*
X005917Y014691D01*
X007232Y014691D01*
X007483Y014942D01*
X010109Y014942D01*
X013211Y015541D02*
X013211Y015748D01*
X013522Y016058D01*
X013759Y016058D02*
X014274Y016573D01*
X014479Y016573D01*
X013486Y017580D02*
X013486Y018397D01*
X015154Y011466D02*
X015500Y011466D01*
X015154Y011466D02*
X014728Y011040D01*
X014380Y011040D01*
X014146Y011274D01*
X013140Y011274D01*
X013140Y010585D02*
X014472Y010585D01*
X014545Y010512D01*
X014692Y010512D01*
X015181Y011000D01*
X016394Y011000D01*
X015064Y006993D02*
X015545Y006512D01*
X006085Y016040D02*
X005238Y016040D01*
X004938Y016340D01*
X004488Y016108D02*
X005254Y015342D01*
X004488Y016093D02*
X004488Y016582D01*
X003665Y009322D02*
X002955Y009322D01*
X002645Y009011D01*
X001920Y009011D01*
X001439Y008507D01*
X000478Y008507D01*
X002439Y008507D02*
X002541Y008633D01*
X003665Y008633D01*
D20*
X006366Y010266D02*
X006389Y010288D01*
X005855Y011765D02*
X005855Y011767D01*
X007632Y011674D02*
X007661Y011645D01*
X008551Y011645D01*
X010158Y010274D02*
X010166Y010266D01*
X008718Y008946D02*
X008715Y008943D01*
X007922Y008639D02*
X007922Y008638D01*
X007143Y005573D02*
X007145Y005571D01*
X006601Y005027D02*
X006145Y004571D01*
X007145Y004571D01*
X008145Y004571D01*
X009145Y004571D01*
X009340Y004571D01*
X011504Y002408D01*
X011257Y002408D01*
X012022Y002835D02*
X012073Y002785D01*
X012495Y004695D02*
X012468Y004939D01*
X012468Y005721D01*
X012228Y005721D01*
X011608Y005185D02*
X011594Y005185D01*
X011603Y005067D02*
X011608Y005062D01*
X011498Y005035D02*
X011498Y005090D01*
X009518Y005062D02*
X009489Y005034D01*
X009686Y003023D02*
X006104Y003023D01*
X005593Y003534D01*
X004381Y004518D02*
X004381Y004571D01*
X000478Y008507D02*
X000377Y008406D01*
X005239Y015342D02*
X005842Y015342D01*
X005254Y015342D01*
X005239Y015342D02*
X004488Y016093D01*
X004479Y016117D02*
X004479Y016599D01*
X004938Y016340D02*
X004938Y017133D01*
X004488Y017582D01*
X004488Y018450D01*
X004435Y018504D01*
X006085Y016040D02*
X006531Y015593D01*
X006531Y015342D01*
X007278Y014768D02*
X007452Y014942D01*
X010109Y014942D01*
X010644Y014729D02*
X010857Y014942D01*
X012076Y014750D02*
X012143Y014750D01*
X012261Y014868D01*
X013180Y014868D01*
X013215Y014903D01*
X013215Y015052D01*
X014230Y016067D01*
X016393Y016067D01*
X016463Y016137D01*
X014488Y016582D02*
X014479Y016573D01*
X013759Y016058D02*
X013522Y016058D01*
X013488Y016582D02*
X012450Y015544D01*
X012250Y015544D01*
X012250Y014855D02*
X012181Y014855D01*
X012076Y014750D01*
X012250Y014855D02*
X012253Y014852D01*
X013211Y014852D01*
X013486Y018397D02*
X013380Y018504D01*
X015545Y011512D02*
X015500Y011466D01*
X016394Y011000D02*
X016463Y010931D01*
X013462Y009455D02*
X013462Y009455D01*
X012105Y009147D02*
X011967Y009010D01*
X009686Y003023D02*
X009996Y002713D01*
X010043Y001798D02*
X010043Y001798D01*
X011002Y000558D02*
X011085Y000475D01*
D21*
X010023Y000938D03*
X010184Y008551D03*
X009636Y009236D03*
X009243Y009577D03*
X008715Y008943D03*
X008322Y009767D03*
X007946Y009236D03*
X007922Y008639D03*
X006602Y009574D03*
X009686Y010967D03*
X013486Y017580D03*
D22*
X008322Y008439D03*
D23*
X005950Y012782D03*
X005970Y013344D03*
D24*
X004435Y018504D02*
X013380Y018504D01*
X016047Y018504D01*
X016463Y018088D01*
X016463Y016137D01*
X016463Y010931D01*
X016533Y011000D02*
X016533Y003023D01*
X016533Y000822D01*
X016185Y000475D01*
X011085Y000475D01*
X000862Y000475D01*
X000377Y000960D01*
X000377Y008406D01*
X000377Y017913D01*
X000968Y018504D01*
X004435Y018504D01*
M02*
