%
M48
M72
T01C0.0394
%
T01
X511Y511
X511Y1495
X1495Y1495
X1495Y511
X2479Y511
X2479Y1495
X3463Y1495
X3463Y511
X4448Y511
X4448Y1495
X4448Y1495
X5432Y1495
X5432Y1495
X6416Y1495
X6416Y511
X5432Y511
X5432Y2479
X6416Y2479
X6416Y3463
X5432Y3463
X4448Y3463
X4448Y3463
X4448Y2479
X4448Y2479
X3463Y2479
X2479Y2479
X2479Y3463
X3463Y3463
X3463Y4448
X3463Y5432
X2479Y5432
X2479Y6416
X3463Y6416
X4448Y6416
X4448Y6416
X5432Y6416
X6416Y6416
X6416Y5432
X5432Y5432
X5432Y4448
X6416Y4448
X7400Y4448
X7400Y5432
X7400Y6416
X8385Y6416
X9369Y6416
X10353Y6416
X10353Y5432
X9369Y5432
X9369Y4448
X10353Y4448
X10353Y3463
X10353Y2479
X9369Y2479
X9369Y3463
X8385Y3463
X8385Y2479
X7400Y2479
X7400Y3463
X8385Y4448
X8385Y5432
X8385Y7400
X9369Y7400
X10353Y7400
X10353Y8385
X10353Y9369
X10353Y10353
X9369Y10353
X9369Y9369
X9369Y8385
X8385Y8385
X8385Y9369
X8385Y10353
X7400Y10353
X7400Y9369
X7400Y8385
X7400Y7400
X6416Y7400
X5432Y7400
X4448Y7400
X4448Y7400
X4448Y8385
X4448Y8385
X4448Y9369
X4448Y9369
X5432Y9369
X5432Y10353
X6416Y10353
X6416Y9369
X6416Y8385
X5432Y8385
X3463Y8385
X3463Y9369
X2479Y9369
X2479Y10353
X3463Y10353
X4448Y10353
X4448Y10353
X4448Y11337
X4448Y11337
X5432Y11337
X6416Y11337
X6416Y12322
X6416Y13306
X6416Y14290
X5432Y14290
X5432Y13306
X5432Y12322
X4448Y12322
X4448Y12322
X4448Y13306
X4448Y13306
X4448Y14290
X4448Y14290
X4448Y15274
X4448Y15274
X5432Y15274
X6416Y15274
X7400Y15274
X7400Y14290
X7400Y13306
X7400Y12322
X8385Y12322
X8385Y13306
X9369Y13306
X10353Y13306
X10353Y14290
X9369Y14290
X9369Y15274
X10353Y15274
X11337Y15274
X11337Y15274
X11337Y14290
X11337Y14290
X11337Y13306
X11337Y13306
X11337Y12322
X11337Y12322
X12322Y12322
X12322Y13306
X13306Y13306
X13306Y14290
X14290Y14290
X14290Y13306
X15274Y13306
X15274Y14290
X15274Y15274
X14290Y15274
X13306Y15274
X12322Y15274
X12322Y14290
X13306Y12322
X14290Y12322
X15274Y12322
X15274Y11337
X14290Y11337
X13306Y11337
X12322Y11337
X11337Y11337
X11337Y11337
X11337Y10353
X11337Y10353
X11337Y9369
X11337Y9369
X11337Y8385
X11337Y8385
X12322Y8385
X12322Y9369
X13306Y9369
X13306Y10353
X14290Y10353
X14290Y9369
X15274Y9369
X15274Y10353
X16259Y10353
X16259Y10353
X17243Y10353
X18227Y10353
X18227Y9369
X17243Y9369
X16259Y9369
X16259Y9369
X16259Y8385
X16259Y8385
X17243Y8385
X18227Y8385
X19211Y8385
X19211Y9369
X19211Y10353
X19211Y11337
X18227Y11337
X17243Y11337
X16259Y11337
X16259Y11337
X16259Y12322
X16259Y12322
X16259Y13306
X16259Y13306
X17243Y13306
X17243Y14290
X18227Y14290
X18227Y13306
X19211Y13306
X19211Y14290
X19211Y15274
X18227Y15274
X17243Y15274
X16259Y15274
X16259Y15274
X16259Y14290
X16259Y14290
X17243Y12322
X18227Y12322
X19211Y12322
X20196Y12322
X20196Y13306
X21180Y13306
X21180Y14290
X22164Y14290
X22164Y13306
X23148Y13306
X23148Y13306
X23148Y14290
X23148Y14290
X23148Y15274
X23148Y15274
X22164Y15274
X21180Y15274
X20196Y15274
X20196Y14290
X21180Y12322
X22164Y12322
X23148Y12322
X23148Y12322
X24133Y12322
X24133Y13306
X24133Y14290
X24133Y15274
X25117Y15274
X25117Y14290
X26101Y14290
X26101Y13306
X25117Y13306
X25117Y12322
X26101Y12322
X27085Y12322
X27085Y13306
X27085Y14290
X27085Y15274
X26101Y15274
X26101Y16259
X26101Y17243
X26101Y18227
X25117Y18227
X25117Y17243
X25117Y16259
X24133Y16259
X24133Y17243
X24133Y18227
X24133Y19211
X23148Y19211
X23148Y19211
X23148Y18227
X23148Y18227
X22164Y18227
X22164Y17243
X21180Y17243
X21180Y18227
X21180Y19211
X22164Y19211
X22164Y20196
X22164Y21180
X22164Y22164
X21180Y22164
X21180Y21180
X21180Y20196
X20196Y20196
X20196Y21180
X20196Y22164
X20196Y23148
X21180Y23148
X22164Y23148
X23148Y23148
X23148Y23148
X23148Y22164
X23148Y22164
X23148Y21180
X23148Y21180
X23148Y20196
X23148Y20196
X24133Y20196
X24133Y21180
X24133Y22164
X24133Y23148
X24133Y24133
X23148Y24133
X23148Y24133
X22164Y24133
X21180Y24133
X20196Y24133
X20196Y25117
X21180Y25117
X21180Y26101
X22164Y26101
X22164Y25117
X23148Y25117
X23148Y25117
X23148Y26101
X23148Y26101
X23148Y27085
X23148Y27085
X22164Y27085
X21180Y27085
X20196Y27085
X20196Y26101
X19211Y26101
X18227Y26101
X18227Y25117
X17243Y25117
X17243Y26101
X17243Y27085
X18227Y27085
X19211Y27085
X19211Y28070
X19211Y29054
X18227Y29054
X17243Y29054
X17243Y28070
X18227Y28070
X16259Y28070
X16259Y28070
X16259Y29054
X16259Y29054
X16259Y30038
X16259Y30038
X17243Y30038
X18227Y30038
X19211Y30038
X19211Y31022
X18227Y31022
X17243Y31022
X16259Y31022
X16259Y31022
X16259Y32007
X16259Y32007
X17243Y32007
X17243Y32991
X18227Y32991
X19211Y32991
X19211Y32007
X18227Y32007
X16259Y32991
X16259Y32991
X16259Y33975
X16259Y33975
X17243Y33975
X18227Y33975
X19211Y33975
X19211Y34959
X18227Y34959
X17243Y34959
X16259Y34959
X16259Y34959
X16259Y35944
X16259Y35944
X17243Y35944
X17243Y36928
X18227Y36928
X18227Y37912
X17243Y37912
X16259Y37912
X16259Y37912
X16259Y36928
X16259Y36928
X15274Y36928
X14290Y36928
X14290Y37912
X13306Y37912
X13306Y36928
X13306Y35944
X14290Y35944
X15274Y35944
X15274Y34959
X15274Y33975
X14290Y33975
X13306Y33975
X13306Y34959
X14290Y34959
X12322Y34959
X12322Y33975
X11337Y33975
X11337Y33975
X11337Y34959
X11337Y34959
X11337Y35944
X11337Y35944
X11337Y36928
X11337Y36928
X11337Y37912
X11337Y37912
X12322Y37912
X12322Y36928
X12322Y35944
X10353Y35944
X10353Y36928
X10353Y37912
X9369Y37912
X9369Y36928
X9369Y35944
X8385Y35944
X8385Y36928
X8385Y37912
X7400Y37912
X7400Y36928
X7400Y35944
X7400Y34959
X7400Y33975
X8385Y33975
X9369Y33975
X10353Y33975
X10353Y34959
X9369Y34959
X8385Y34959
X8385Y32991
X9369Y32991
X10353Y32991
X10353Y32007
X9369Y32007
X8385Y32007
X8385Y31022
X9369Y31022
X9369Y30038
X10353Y30038
X10353Y31022
X11337Y31022
X11337Y31022
X11337Y30038
X11337Y30038
X12322Y30038
X13306Y30038
X14290Y30038
X15274Y30038
X15274Y31022
X14290Y31022
X13306Y31022
X12322Y31022
X12322Y32007
X13306Y32007
X13306Y32991
X14290Y32991
X15274Y32991
X15274Y32007
X14290Y32007
X12322Y32991
X11337Y32991
X11337Y32991
X11337Y32007
X11337Y32007
X11337Y29054
X11337Y29054
X11337Y28070
X11337Y28070
X12322Y28070
X13306Y28070
X13306Y29054
X14290Y29054
X15274Y29054
X15274Y28070
X14290Y28070
X14290Y27085
X14290Y26101
X14290Y25117
X13306Y25117
X13306Y26101
X13306Y27085
X12322Y27085
X12322Y26101
X12322Y25117
X11337Y25117
X11337Y25117
X11337Y26101
X11337Y26101
X11337Y27085
X11337Y27085
X10353Y27085
X10353Y26101
X10353Y25117
X9369Y25117
X9369Y26101
X9369Y27085
X8385Y27085
X8385Y26101
X8385Y25117
X7400Y25117
X7400Y26101
X7400Y27085
X7400Y28070
X7400Y29054
X8385Y29054
X9369Y29054
X10353Y29054
X10353Y28070
X9369Y28070
X8385Y28070
X8385Y30038
X7400Y30038
X7400Y31022
X7400Y32007
X7400Y32991
X6416Y32991
X5432Y32991
X5432Y32007
X6416Y32007
X6416Y31022
X6416Y30038
X5432Y30038
X5432Y31022
X4448Y31022
X4448Y31022
X4448Y30038
X4448Y30038
X3463Y30038
X2479Y30038
X2479Y31022
X3463Y31022
X3463Y32007
X3463Y32991
X2479Y32991
X2479Y32007
X1495Y32007
X1495Y32991
X511Y32991
X511Y32007
X511Y31022
X1495Y31022
X1495Y30038
X511Y30038
X511Y29054
X1495Y29054
X1495Y28070
X511Y28070
X511Y27085
X1495Y27085
X1495Y26101
X1495Y25117
X511Y25117
X511Y26101
X2479Y26101
X2479Y25117
X3463Y25117
X3463Y26101
X3463Y27085
X2479Y27085
X2479Y28070
X2479Y29054
X3463Y29054
X3463Y28070
X4448Y28070
X4448Y28070
X5432Y28070
X5432Y29054
X6416Y29054
X6416Y28070
X6416Y27085
X6416Y26101
X6416Y25117
X5432Y25117
X5432Y26101
X5432Y27085
X4448Y27085
X4448Y27085
X4448Y26101
X4448Y26101
X4448Y25117
X4448Y25117
X4448Y24133
X4448Y24133
X5432Y24133
X6416Y24133
X6416Y23148
X6416Y22164
X6416Y21180
X5432Y21180
X5432Y22164
X5432Y23148
X4448Y23148
X4448Y23148
X4448Y22164
X4448Y22164
X4448Y21180
X4448Y21180
X4448Y20196
X4448Y20196
X5432Y20196
X6416Y20196
X7400Y20196
X7400Y21180
X7400Y22164
X7400Y23148
X8385Y23148
X9369Y23148
X9369Y22164
X10353Y22164
X10353Y21180
X9369Y21180
X9369Y20196
X10353Y20196
X11337Y20196
X11337Y20196
X11337Y21180
X11337Y21180
X11337Y22164
X11337Y22164
X11337Y23148
X11337Y23148
X12322Y23148
X13306Y23148
X13306Y22164
X14290Y22164
X14290Y21180
X13306Y21180
X13306Y20196
X14290Y20196
X15274Y20196
X15274Y21180
X15274Y22164
X15274Y23148
X14290Y23148
X14290Y24133
X13306Y24133
X12322Y24133
X11337Y24133
X11337Y24133
X10353Y24133
X9369Y24133
X8385Y24133
X7400Y24133
X8385Y22164
X8385Y21180
X8385Y20196
X8385Y19211
X9369Y19211
X9369Y18227
X10353Y18227
X10353Y17243
X9369Y17243
X9369Y16259
X10353Y16259
X11337Y16259
X11337Y16259
X11337Y17243
X11337Y17243
X11337Y18227
X11337Y18227
X11337Y19211
X11337Y19211
X12322Y19211
X13306Y19211
X13306Y18227
X14290Y18227
X14290Y17243
X13306Y17243
X13306Y16259
X14290Y16259
X15274Y16259
X15274Y17243
X15274Y18227
X15274Y19211
X14290Y19211
X12322Y18227
X12322Y17243
X12322Y16259
X10353Y19211
X8385Y18227
X8385Y17243
X8385Y16259
X7400Y16259
X7400Y17243
X7400Y18227
X7400Y19211
X6416Y19211
X6416Y18227
X6416Y17243
X5432Y17243
X5432Y18227
X5432Y19211
X4448Y19211
X4448Y19211
X4448Y18227
X4448Y18227
X4448Y17243
X4448Y17243
X4448Y16259
X4448Y16259
X5432Y16259
X6416Y16259
X8385Y15274
X8385Y14290
X9369Y12322
X10353Y12322
X10353Y11337
X9369Y11337
X8385Y11337
X7400Y11337
X3463Y11337
X2479Y11337
X2479Y12322
X2479Y13306
X2479Y14290
X3463Y14290
X3463Y13306
X3463Y12322
X1495Y12322
X1495Y13306
X1495Y14290
X1495Y15274
X511Y15274
X511Y14290
X511Y13306
X511Y12322
X511Y11337
X1495Y11337
X1495Y10353
X1495Y9369
X1495Y8385
X511Y8385
X511Y9369
X511Y10353
X2479Y8385
X2479Y7400
X3463Y7400
X1495Y7400
X511Y7400
X511Y6416
X1495Y6416
X1495Y5432
X1495Y4448
X511Y4448
X511Y5432
X511Y3463
X1495Y3463
X1495Y2479
X511Y2479
X2479Y4448
X4448Y4448
X4448Y4448
X4448Y5432
X4448Y5432
X7400Y1495
X7400Y511
X8385Y511
X8385Y1495
X9369Y1495
X10353Y1495
X10353Y511
X9369Y511
X11337Y511
X11337Y1495
X11337Y1495
X12322Y1495
X13306Y1495
X14290Y1495
X15274Y1495
X15274Y511
X14290Y511
X13306Y511
X12322Y511
X12322Y2479
X13306Y2479
X14290Y2479
X14290Y3463
X13306Y3463
X12322Y3463
X12322Y4448
X12322Y5432
X13306Y5432
X13306Y6416
X14290Y6416
X14290Y5432
X15274Y5432
X15274Y6416
X15274Y7400
X14290Y7400
X13306Y7400
X12322Y7400
X11337Y7400
X11337Y7400
X11337Y6416
X11337Y6416
X11337Y5432
X11337Y5432
X11337Y4448
X11337Y4448
X11337Y3463
X11337Y3463
X11337Y2479
X11337Y2479
X13306Y4448
X14290Y4448
X15274Y4448
X15274Y3463
X15274Y2479
X16259Y2479
X16259Y2479
X17243Y2479
X18227Y2479
X18227Y3463
X17243Y3463
X16259Y3463
X16259Y3463
X16259Y4448
X16259Y4448
X16259Y5432
X16259Y5432
X17243Y5432
X17243Y6416
X18227Y6416
X18227Y5432
X19211Y5432
X19211Y6416
X19211Y7400
X18227Y7400
X17243Y7400
X16259Y7400
X16259Y7400
X16259Y6416
X16259Y6416
X17243Y4448
X18227Y4448
X19211Y4448
X19211Y3463
X19211Y2479
X19211Y1495
X18227Y1495
X17243Y1495
X17243Y1495
X16259Y1495
X16259Y1495
X16259Y511
X17243Y511
X18227Y511
X19211Y511
X20196Y511
X20196Y1495
X21180Y1495
X22164Y1495
X23148Y1495
X23148Y1495
X23148Y511
X22164Y511
X21180Y511
X21180Y2479
X22164Y2479
X22164Y3463
X21180Y3463
X20196Y3463
X20196Y2479
X20196Y4448
X20196Y5432
X21180Y5432
X21180Y6416
X22164Y6416
X22164Y5432
X23148Y5432
X23148Y5432
X23148Y6416
X23148Y6416
X24133Y6416
X24133Y5432
X24133Y4448
X23148Y4448
X23148Y4448
X22164Y4448
X21180Y4448
X20196Y6416
X20196Y7400
X21180Y7400
X22164Y7400
X23148Y7400
X23148Y7400
X23148Y8385
X23148Y8385
X23148Y9369
X23148Y9369
X22164Y9369
X22164Y10353
X21180Y10353
X21180Y9369
X20196Y9369
X20196Y10353
X20196Y11337
X21180Y11337
X22164Y11337
X23148Y11337
X23148Y11337
X24133Y11337
X25117Y11337
X26101Y11337
X27085Y11337
X28070Y11337
X29054Y11337
X29054Y12322
X29054Y13306
X29054Y14290
X29054Y15274
X28070Y15274
X28070Y14290
X28070Y13306
X28070Y12322
X30038Y12322
X30038Y12322
X30038Y13306
X30038Y13306
X30038Y14290
X30038Y14290
X30038Y15274
X30038Y15274
X31022Y15274
X31022Y14290
X31022Y13306
X31022Y12322
X32007Y12322
X32007Y13306
X32991Y13306
X32991Y14290
X32991Y15274
X32007Y15274
X32007Y14290
X32991Y12322
X32991Y11337
X32007Y11337
X31022Y11337
X30038Y11337
X30038Y11337
X30038Y10353
X30038Y10353
X30038Y9369
X30038Y9369
X31022Y9369
X31022Y10353
X32007Y10353
X32991Y10353
X32991Y9369
X32007Y9369
X32007Y8385
X32991Y8385
X32991Y7400
X32007Y7400
X31022Y7400
X30038Y7400
X30038Y7400
X30038Y8385
X30038Y8385
X31022Y8385
X29054Y8385
X29054Y9369
X29054Y10353
X28070Y10353
X28070Y9369
X28070Y8385
X27085Y8385
X27085Y9369
X26101Y9369
X26101Y10353
X25117Y10353
X25117Y9369
X25117Y8385
X26101Y8385
X26101Y7400
X25117Y7400
X25117Y6416
X26101Y6416
X26101Y5432
X25117Y5432
X25117Y4448
X26101Y4448
X27085Y4448
X27085Y5432
X27085Y6416
X28070Y6416
X29054Y6416
X29054Y5432
X28070Y5432
X28070Y4448
X29054Y4448
X29054Y3463
X29054Y2479
X28070Y2479
X28070Y3463
X27085Y3463
X26101Y3463
X26101Y2479
X25117Y2479
X25117Y3463
X24133Y3463
X24133Y2479
X23148Y2479
X23148Y2479
X23148Y3463
X23148Y3463
X24133Y1495
X24133Y511
X25117Y511
X25117Y1495
X26101Y1495
X27085Y1495
X27085Y511
X26101Y511
X28070Y511
X28070Y1495
X29054Y1495
X29054Y511
X30038Y511
X30038Y1495
X30038Y1495
X31022Y1495
X31022Y1495
X31022Y511
X32007Y511
X32007Y1495
X32991Y1495
X32991Y511
X33975Y511
X33975Y1495
X34959Y1495
X34959Y511
X35944Y511
X35944Y1495
X36928Y1495
X36928Y1495
X37912Y1495
X37912Y511
X37912Y511
X36928Y511
X36928Y511
X36928Y2479
X36928Y2479
X37912Y2479
X37912Y3463
X36928Y3463
X36928Y3463
X35944Y3463
X35944Y2479
X34959Y2479
X33975Y2479
X33975Y3463
X34959Y3463
X34959Y4448
X34959Y5432
X33975Y5432
X33975Y6416
X34959Y6416
X35944Y6416
X36928Y6416
X36928Y6416
X37912Y6416
X37912Y5432
X36928Y5432
X36928Y5432
X35944Y5432
X35944Y4448
X36928Y4448
X36928Y4448
X37912Y4448
X38896Y4448
X38896Y5432
X38896Y6416
X39881Y6416
X40865Y6416
X41849Y6416
X41849Y5432
X40865Y5432
X39881Y5432
X39881Y4448
X40865Y4448
X41849Y4448
X41849Y3463
X41849Y2479
X40865Y2479
X40865Y3463
X39881Y3463
X39881Y2479
X38896Y2479
X38896Y3463
X38896Y1495
X38896Y511
X39881Y511
X39881Y1495
X40865Y1495
X41849Y1495
X41849Y511
X40865Y511
X42833Y511
X42833Y1495
X43818Y1495
X44802Y1495
X44802Y1495
X45786Y1495
X45786Y1495
X46770Y1495
X46770Y511
X45786Y511
X44802Y511
X43818Y511
X43818Y2479
X44802Y2479
X44802Y2479
X45786Y2479
X45786Y3463
X44802Y3463
X44802Y3463
X43818Y3463
X43818Y4448
X43818Y5432
X44802Y5432
X44802Y5432
X44802Y6416
X44802Y6416
X45786Y6416
X45786Y5432
X46770Y5432
X46770Y6416
X46770Y7400
X45786Y7400
X44802Y7400
X44802Y7400
X43818Y7400
X43818Y8385
X43818Y9369
X44802Y9369
X44802Y9369
X44802Y10353
X44802Y10353
X45786Y10353
X45786Y9369
X46770Y9369
X46770Y10353
X46770Y11337
X45786Y11337
X44802Y11337
X44802Y11337
X43818Y11337
X43818Y12322
X43818Y13306
X44802Y13306
X44802Y13306
X44802Y14290
X44802Y14290
X45786Y14290
X45786Y13306
X45786Y12322
X44802Y12322
X44802Y12322
X46770Y12322
X46770Y13306
X46770Y14290
X46770Y15274
X45786Y15274
X44802Y15274
X44802Y15274
X43818Y15274
X43818Y14290
X42833Y14290
X42833Y13306
X42833Y12322
X42833Y11337
X41849Y11337
X40865Y11337
X39881Y11337
X39881Y12322
X39881Y13306
X40865Y13306
X40865Y14290
X41849Y14290
X41849Y13306
X41849Y12322
X40865Y12322
X38896Y12322
X38896Y13306
X38896Y14290
X38896Y15274
X39881Y15274
X40865Y15274
X41849Y15274
X42833Y15274
X42833Y16259
X42833Y17243
X42833Y18227
X42833Y19211
X43818Y19211
X43818Y18227
X44802Y18227
X44802Y18227
X45786Y18227
X45786Y17243
X44802Y17243
X44802Y17243
X43818Y17243
X43818Y16259
X44802Y16259
X44802Y16259
X45786Y16259
X46770Y16259
X46770Y17243
X46770Y18227
X46770Y19211
X45786Y19211
X44802Y19211
X44802Y19211
X44802Y20196
X44802Y20196
X44802Y21180
X44802Y21180
X44802Y22164
X44802Y22164
X45786Y22164
X45786Y21180
X45786Y20196
X46770Y20196
X46770Y21180
X46770Y22164
X46770Y23148
X45786Y23148
X44802Y23148
X44802Y23148
X43818Y23148
X43818Y22164
X43818Y21180
X43818Y20196
X42833Y20196
X42833Y21180
X42833Y22164
X42833Y23148
X42833Y24133
X43818Y24133
X44802Y24133
X44802Y24133
X45786Y24133
X46770Y24133
X46770Y25117
X45786Y25117
X45786Y26101
X44802Y26101
X44802Y26101
X44802Y25117
X44802Y25117
X43818Y25117
X43818Y26101
X43818Y27085
X44802Y27085
X44802Y27085
X45786Y27085
X46770Y27085
X46770Y26101
X47755Y26101
X48739Y26101
X48739Y25117
X49723Y25117
X49723Y26101
X49723Y27085
X48739Y27085
X47755Y27085
X47755Y28070
X47755Y29054
X48739Y29054
X49723Y29054
X49723Y28070
X48739Y28070
X50707Y28070
X50707Y29054
X50707Y30038
X49723Y30038
X48739Y30038
X48739Y31022
X49723Y31022
X50707Y31022
X50707Y32007
X50707Y32991
X49723Y32991
X48739Y32991
X48739Y32007
X49723Y32007
X47755Y32007
X47755Y32991
X47755Y33975
X48739Y33975
X49723Y33975
X49723Y34959
X48739Y34959
X47755Y34959
X47755Y35944
X47755Y36928
X48739Y36928
X48739Y37912
X49723Y37912
X49723Y36928
X49723Y35944
X48739Y35944
X50707Y35944
X50707Y36928
X50707Y37912
X50707Y38896
X49723Y38896
X48739Y38896
X47755Y38896
X47755Y39881
X47755Y40865
X48739Y40865
X48739Y41849
X49723Y41849
X49723Y40865
X49723Y39881
X48739Y39881
X50707Y39881
X50707Y40865
X50707Y41849
X50707Y42833
X49723Y42833
X48739Y42833
X47755Y42833
X47755Y43818
X47755Y44802
X48739Y44802
X48739Y45786
X49723Y45786
X49723Y44802
X49723Y43818
X48739Y43818
X50707Y43818
X50707Y44802
X50707Y45786
X50707Y46770
X49723Y46770
X48739Y46770
X47755Y46770
X47755Y45786
X46770Y45786
X45786Y45786
X45786Y44802
X44802Y44802
X44802Y44802
X44802Y45786
X44802Y45786
X43818Y45786
X43818Y44802
X43818Y43818
X44802Y43818
X44802Y43818
X45786Y43818
X46770Y43818
X46770Y44802
X46770Y46770
X45786Y46770
X44802Y46770
X44802Y46770
X43818Y46770
X42833Y46770
X42833Y45786
X42833Y44802
X42833Y43818
X42833Y42833
X43818Y42833
X44802Y42833
X44802Y42833
X45786Y42833
X46770Y42833
X46770Y41849
X45786Y41849
X45786Y41849
X44802Y41849
X44802Y41849
X44802Y40865
X45786Y40865
X45786Y39881
X44802Y39881
X43818Y39881
X43818Y40865
X43818Y41849
X42833Y41849
X42833Y40865
X42833Y39881
X42833Y38896
X43818Y38896
X44802Y38896
X45786Y38896
X46770Y38896
X46770Y39881
X46770Y40865
X47755Y41849
X51692Y41849
X51692Y41849
X52676Y41849
X52676Y40865
X53660Y40865
X53660Y41849
X54644Y41849
X54644Y40865
X54644Y39881
X53660Y39881
X52676Y39881
X51692Y39881
X51692Y40865
X51692Y38896
X52676Y38896
X53660Y38896
X54644Y38896
X55629Y38896
X55629Y39881
X55629Y40865
X55629Y41849
X56613Y41849
X56613Y41849
X56613Y40865
X57597Y40865
X57597Y41849
X57597Y41849
X58581Y41849
X58581Y40865
X58581Y39881
X57597Y39881
X56613Y39881
X56613Y38896
X57597Y38896
X58581Y38896
X59566Y38896
X60550Y38896
X60550Y39881
X60550Y40865
X60550Y41849
X59566Y41849
X59566Y40865
X59566Y39881
X61534Y39881
X61534Y40865
X61534Y41849
X62518Y41849
X62518Y40865
X62518Y39881
X62518Y38896
X61534Y38896
X61534Y37912
X61534Y36928
X61534Y35944
X62518Y35944
X62518Y36928
X62518Y37912
X63503Y37912
X63503Y37912
X64487Y37912
X64487Y36928
X63503Y36928
X63503Y36928
X63503Y35944
X63503Y35944
X64487Y35944
X64487Y34959
X64487Y33975
X63503Y33975
X63503Y33975
X63503Y34959
X63503Y34959
X62518Y34959
X61534Y34959
X61534Y33975
X62518Y33975
X62518Y32991
X61534Y32991
X61534Y32007
X62518Y32007
X62518Y31022
X61534Y31022
X61534Y30038
X62518Y30038
X63503Y30038
X63503Y30038
X64487Y30038
X64487Y31022
X63503Y31022
X63503Y31022
X63503Y32007
X63503Y32007
X63503Y32991
X63503Y32991
X64487Y32991
X64487Y32007
X65471Y32007
X65471Y32991
X66455Y32991
X66455Y32007
X66455Y31022
X65471Y31022
X65471Y30038
X66455Y30038
X67440Y30038
X68424Y30038
X69408Y30038
X69408Y31022
X68424Y31022
X67440Y31022
X67440Y32007
X67440Y32991
X68424Y32991
X69408Y32991
X69408Y32007
X68424Y32007
X68424Y33975
X69408Y33975
X69408Y34959
X68424Y34959
X67440Y34959
X67440Y33975
X66455Y33975
X65471Y33975
X65471Y34959
X66455Y34959
X66455Y35944
X65471Y35944
X65471Y36928
X65471Y37912
X66455Y37912
X66455Y36928
X67440Y36928
X68424Y36928
X68424Y37912
X69408Y37912
X69408Y36928
X69408Y35944
X68424Y35944
X67440Y35944
X67440Y37912
X67440Y38896
X67440Y38896
X68424Y38896
X68424Y38896
X69408Y38896
X69408Y38896
X69408Y39881
X69408Y40865
X68424Y40865
X68424Y41849
X69408Y41849
X69408Y42833
X68424Y42833
X67440Y42833
X66455Y42833
X65471Y42833
X65471Y43818
X65471Y44802
X65471Y45786
X65471Y46770
X66455Y46770
X66455Y45786
X66455Y44802
X66455Y43818
X67440Y43818
X67440Y44802
X68424Y44802
X68424Y45786
X69408Y45786
X69408Y44802
X69408Y43818
X68424Y43818
X67440Y45786
X67440Y46770
X68424Y46770
X69408Y46770
X70392Y46770
X70392Y46770
X70392Y45786
X70392Y45786
X70392Y44802
X70392Y44802
X70392Y43818
X70392Y43818
X70392Y42833
X70392Y42833
X71377Y42833
X72361Y42833
X73345Y42833
X73345Y43818
X73345Y44802
X72361Y44802
X72361Y45786
X73345Y45786
X73345Y46770
X72361Y46770
X71377Y46770
X71377Y45786
X71377Y44802
X71377Y43818
X72361Y43818
X74329Y43818
X74329Y44802
X74329Y45786
X74329Y46770
X75314Y46770
X75314Y45786
X76298Y45786
X76298Y44802
X77282Y44802
X77282Y44802
X77282Y45786
X77282Y45786
X77282Y46770
X77282Y46770
X76298Y46770
X76298Y47755
X76298Y48739
X76298Y49723
X77282Y49723
X77282Y49723
X77282Y48739
X77282Y48739
X77282Y47755
X77282Y47755
X78266Y47755
X78266Y48739
X78266Y49723
X78266Y50707
X77282Y50707
X77282Y50707
X76298Y50707
X75314Y50707
X75314Y49723
X75314Y48739
X75314Y47755
X74329Y47755
X74329Y48739
X74329Y49723
X74329Y50707
X73345Y50707
X73345Y49723
X72361Y49723
X72361Y48739
X73345Y48739
X73345Y47755
X72361Y47755
X71377Y47755
X71377Y48739
X71377Y49723
X71377Y50707
X72361Y50707
X72361Y51692
X72361Y52676
X72361Y53660
X73345Y53660
X73345Y52676
X73345Y51692
X74329Y51692
X74329Y52676
X74329Y53660
X74329Y54644
X74329Y55629
X75314Y55629
X76298Y55629
X77282Y55629
X77282Y55629
X78266Y55629
X78266Y54644
X77282Y54644
X77282Y54644
X77282Y53660
X77282Y53660
X76298Y53660
X76298Y52676
X77282Y52676
X77282Y52676
X77282Y51692
X77282Y51692
X76298Y51692
X75314Y51692
X75314Y52676
X75314Y53660
X75314Y54644
X76298Y54644
X78266Y53660
X78266Y52676
X78266Y51692
X79251Y51692
X79251Y52676
X80235Y52676
X80235Y53660
X79251Y53660
X79251Y54644
X80235Y54644
X80235Y55629
X79251Y55629
X79251Y56613
X80235Y56613
X80235Y57597
X79251Y57597
X79251Y58581
X80235Y58581
X80235Y59566
X80235Y60550
X79251Y60550
X79251Y59566
X78266Y59566
X77282Y59566
X77282Y59566
X77282Y60550
X77282Y60550
X76298Y60550
X75314Y60550
X75314Y59566
X76298Y59566
X76298Y58581
X76298Y57597
X76298Y56613
X77282Y56613
X77282Y56613
X77282Y57597
X77282Y57597
X77282Y58581
X77282Y58581
X78266Y58581
X78266Y57597
X78266Y56613
X75314Y56613
X75314Y57597
X75314Y58581
X74329Y58581
X74329Y57597
X74329Y56613
X73345Y56613
X72361Y56613
X72361Y57597
X73345Y57597
X73345Y58581
X72361Y58581
X71377Y58581
X71377Y57597
X71377Y56613
X70392Y56613
X70392Y56613
X70392Y57597
X70392Y57597
X70392Y58581
X70392Y58581
X70392Y59566
X70392Y59566
X70392Y60550
X70392Y60550
X71377Y60550
X72361Y60550
X73345Y60550
X73345Y59566
X72361Y59566
X71377Y59566
X71377Y61534
X72361Y61534
X73345Y61534
X73345Y62518
X72361Y62518
X71377Y62518
X70392Y62518
X70392Y62518
X70392Y61534
X70392Y61534
X69408Y61534
X68424Y61534
X67440Y61534
X67440Y62518
X68424Y62518
X69408Y62518
X69408Y63503
X69408Y64487
X68424Y64487
X68424Y63503
X67440Y63503
X67440Y64487
X66455Y64487
X65471Y64487
X65471Y63503
X66455Y63503
X66455Y62518
X66455Y61534
X65471Y61534
X65471Y62518
X64487Y62518
X64487Y61534
X63503Y61534
X63503Y61534
X63503Y62518
X63503Y62518
X62518Y62518
X62518Y61534
X61534Y61534
X61534Y62518
X61534Y63503
X61534Y64487
X62518Y64487
X62518Y63503
X63503Y63503
X63503Y63503
X63503Y64487
X63503Y64487
X64487Y64487
X64487Y63503
X64487Y65471
X63503Y65471
X63503Y65471
X63503Y66455
X63503Y66455
X64487Y66455
X64487Y67440
X64487Y68424
X64487Y69408
X63503Y69408
X63503Y69408
X63503Y68424
X63503Y68424
X63503Y67440
X63503Y67440
X62518Y67440
X61534Y67440
X61534Y68424
X61534Y69408
X62518Y69408
X62518Y68424
X62518Y66455
X62518Y65471
X61534Y65471
X61534Y66455
X60550Y66455
X60550Y65471
X59566Y65471
X59566Y66455
X58581Y66455
X58581Y65471
X57597Y65471
X56613Y65471
X56613Y65471
X56613Y66455
X56613Y66455
X57597Y66455
X57597Y67440
X57597Y68424
X56613Y68424
X56613Y68424
X56613Y69408
X56613Y69408
X57597Y69408
X58581Y69408
X58581Y68424
X58581Y67440
X59566Y67440
X59566Y68424
X60550Y68424
X60550Y69408
X59566Y69408
X59566Y70392
X60550Y70392
X60550Y71377
X60550Y72361
X60550Y73345
X59566Y73345
X59566Y72361
X59566Y71377
X58581Y71377
X57597Y71377
X57597Y72361
X56613Y72361
X56613Y72361
X56613Y73345
X56613Y73345
X57597Y73345
X58581Y73345
X58581Y72361
X58581Y70392
X57597Y70392
X56613Y70392
X56613Y70392
X56613Y71377
X56613Y71377
X55629Y71377
X55629Y72361
X55629Y73345
X54644Y73345
X53660Y73345
X53660Y72361
X52676Y72361
X52676Y73345
X51692Y73345
X51692Y73345
X51692Y72361
X51692Y72361
X51692Y71377
X51692Y71377
X52676Y71377
X53660Y71377
X54644Y71377
X54644Y72361
X54644Y70392
X53660Y70392
X52676Y70392
X51692Y70392
X51692Y70392
X51692Y69408
X51692Y69408
X52676Y69408
X52676Y68424
X53660Y68424
X53660Y69408
X54644Y69408
X54644Y68424
X54644Y67440
X53660Y67440
X52676Y67440
X51692Y67440
X51692Y67440
X51692Y68424
X51692Y68424
X50707Y68424
X49723Y68424
X48739Y68424
X48739Y69408
X49723Y69408
X50707Y69408
X50707Y70392
X49723Y70392
X48739Y70392
X47755Y70392
X47755Y71377
X48739Y71377
X48739Y72361
X49723Y72361
X49723Y73345
X48739Y73345
X47755Y73345
X47755Y72361
X46770Y72361
X45786Y72361
X44802Y72361
X44802Y72361
X44802Y73345
X44802Y73345
X45786Y73345
X46770Y73345
X46770Y74329
X45786Y74329
X44802Y74329
X44802Y74329
X43818Y74329
X42833Y74329
X42833Y75314
X42833Y76298
X42833Y77282
X42833Y78266
X43818Y78266
X43818Y77282
X44802Y77282
X44802Y77282
X44802Y76298
X44802Y76298
X45786Y76298
X45786Y77282
X46770Y77282
X46770Y76298
X46770Y75314
X45786Y75314
X44802Y75314
X44802Y75314
X43818Y75314
X43818Y76298
X44802Y78266
X44802Y78266
X45786Y78266
X46770Y78266
X47755Y78266
X47755Y77282
X48739Y77282
X48739Y76298
X49723Y76298
X49723Y77282
X50707Y77282
X50707Y76298
X50707Y75314
X49723Y75314
X48739Y75314
X47755Y75314
X47755Y76298
X47755Y74329
X48739Y74329
X49723Y74329
X50707Y74329
X50707Y73345
X50707Y72361
X50707Y71377
X49723Y71377
X47755Y69408
X47755Y68424
X47755Y67440
X48739Y67440
X49723Y67440
X50707Y67440
X50707Y66455
X50707Y65471
X49723Y65471
X48739Y65471
X47755Y65471
X47755Y66455
X48739Y66455
X49723Y66455
X49723Y64487
X48739Y64487
X48739Y63503
X49723Y63503
X50707Y63503
X50707Y64487
X51692Y64487
X51692Y64487
X52676Y64487
X53660Y64487
X53660Y63503
X52676Y63503
X51692Y63503
X51692Y63503
X51692Y62518
X51692Y62518
X51692Y61534
X51692Y61534
X52676Y61534
X53660Y61534
X53660Y62518
X52676Y62518
X54644Y62518
X54644Y61534
X55629Y61534
X55629Y62518
X55629Y63503
X55629Y64487
X54644Y64487
X54644Y63503
X54644Y65471
X53660Y65471
X52676Y65471
X51692Y65471
X51692Y65471
X51692Y66455
X51692Y66455
X52676Y66455
X53660Y66455
X54644Y66455
X55629Y66455
X55629Y65471
X56613Y64487
X56613Y64487
X57597Y64487
X57597Y63503
X56613Y63503
X56613Y63503
X56613Y62518
X56613Y62518
X56613Y61534
X56613Y61534
X57597Y61534
X57597Y62518
X58581Y62518
X58581Y61534
X59566Y61534
X60550Y61534
X60550Y62518
X59566Y62518
X59566Y63503
X59566Y64487
X60550Y64487
X60550Y63503
X58581Y63503
X58581Y64487
X56613Y67440
X56613Y67440
X55629Y67440
X55629Y68424
X55629Y69408
X55629Y70392
X55629Y74329
X54644Y74329
X53660Y74329
X52676Y74329
X51692Y74329
X51692Y74329
X51692Y75314
X51692Y75314
X52676Y75314
X52676Y76298
X53660Y76298
X53660Y77282
X52676Y77282
X51692Y77282
X51692Y77282
X51692Y76298
X51692Y76298
X51692Y78266
X51692Y78266
X52676Y78266
X53660Y78266
X54644Y78266
X54644Y77282
X54644Y76298
X54644Y75314
X53660Y75314
X55629Y75314
X55629Y76298
X55629Y77282
X55629Y78266
X56613Y78266
X56613Y78266
X56613Y77282
X56613Y77282
X56613Y76298
X56613Y76298
X57597Y76298
X57597Y77282
X58581Y77282
X58581Y76298
X58581Y75314
X57597Y75314
X56613Y75314
X56613Y75314
X56613Y74329
X56613Y74329
X57597Y74329
X58581Y74329
X59566Y74329
X60550Y74329
X60550Y75314
X60550Y76298
X60550Y77282
X59566Y77282
X59566Y76298
X59566Y75314
X61534Y75314
X61534Y76298
X61534Y77282
X62518Y77282
X62518Y76298
X62518Y75314
X62518Y74329
X61534Y74329
X61534Y73345
X61534Y72361
X61534Y71377
X62518Y71377
X62518Y72361
X62518Y73345
X63503Y73345
X63503Y73345
X64487Y73345
X64487Y72361
X64487Y71377
X63503Y71377
X63503Y71377
X63503Y72361
X63503Y72361
X63503Y70392
X63503Y70392
X64487Y70392
X65471Y70392
X66455Y70392
X66455Y71377
X65471Y71377
X65471Y72361
X65471Y73345
X66455Y73345
X66455Y72361
X67440Y72361
X68424Y72361
X69408Y72361
X69408Y73345
X68424Y73345
X67440Y73345
X67440Y74329
X68424Y74329
X69408Y74329
X69408Y75314
X69408Y76298
X68424Y76298
X68424Y77282
X69408Y77282
X69408Y78266
X68424Y78266
X67440Y78266
X67440Y77282
X67440Y76298
X67440Y75314
X68424Y75314
X66455Y75314
X65471Y75314
X65471Y76298
X65471Y77282
X65471Y78266
X66455Y78266
X66455Y77282
X66455Y76298
X66455Y74329
X65471Y74329
X64487Y74329
X63503Y74329
X63503Y74329
X63503Y75314
X63503Y75314
X63503Y76298
X63503Y76298
X64487Y76298
X64487Y77282
X63503Y77282
X63503Y77282
X63503Y78266
X63503Y78266
X64487Y78266
X64487Y79251
X64487Y80235
X63503Y80235
X63503Y79251
X62518Y79251
X61534Y79251
X61534Y80235
X62518Y80235
X60550Y80235
X60550Y79251
X59566Y79251
X59566Y80235
X58581Y80235
X57597Y80235
X56613Y80235
X56613Y79251
X57597Y79251
X58581Y79251
X58581Y78266
X57597Y78266
X59566Y78266
X60550Y78266
X61534Y78266
X62518Y78266
X64487Y75314
X65471Y79251
X65471Y80235
X66455Y80235
X66455Y79251
X67440Y79251
X67440Y79251
X68424Y79251
X68424Y79251
X68424Y80235
X69408Y80235
X69408Y79251
X69408Y79251
X70392Y79251
X70392Y79251
X70392Y79251
X70392Y80235
X71377Y80235
X72361Y80235
X73345Y80235
X73345Y79251
X73345Y79251
X72361Y79251
X72361Y79251
X71377Y79251
X71377Y79251
X71377Y78266
X71377Y77282
X72361Y77282
X72361Y76298
X73345Y76298
X73345Y77282
X73345Y78266
X72361Y78266
X70392Y78266
X70392Y78266
X70392Y77282
X70392Y77282
X70392Y76298
X70392Y76298
X70392Y75314
X70392Y75314
X70392Y74329
X70392Y74329
X71377Y74329
X72361Y74329
X73345Y74329
X73345Y75314
X72361Y75314
X71377Y75314
X71377Y76298
X74329Y76298
X74329Y77282
X74329Y78266
X75314Y78266
X75314Y77282
X76298Y77282
X76298Y76298
X77282Y76298
X77282Y76298
X77282Y77282
X77282Y77282
X77282Y78266
X77282Y78266
X76298Y78266
X76298Y79251
X76298Y80235
X77282Y80235
X77282Y79251
X78266Y79251
X78266Y80235
X79251Y80235
X80235Y80235
X80235Y79251
X79251Y79251
X79251Y78266
X79251Y77282
X80235Y77282
X80235Y76298
X80235Y75314
X79251Y75314
X79251Y76298
X78266Y76298
X78266Y77282
X78266Y78266
X80235Y78266
X78266Y75314
X77282Y75314
X77282Y75314
X76298Y75314
X75314Y75314
X75314Y76298
X74329Y75314
X74329Y74329
X75314Y74329
X76298Y74329
X77282Y74329
X77282Y74329
X78266Y74329
X78266Y73345
X77282Y73345
X77282Y73345
X77282Y72361
X77282Y72361
X76298Y72361
X76298Y73345
X75314Y73345
X75314Y72361
X75314Y71377
X76298Y71377
X77282Y71377
X77282Y71377
X78266Y71377
X78266Y72361
X79251Y72361
X80235Y72361
X80235Y73345
X79251Y73345
X79251Y74329
X80235Y74329
X80235Y71377
X79251Y71377
X79251Y70392
X80235Y70392
X80235Y69408
X80235Y68424
X79251Y68424
X79251Y69408
X78266Y69408
X77282Y69408
X77282Y69408
X77282Y68424
X77282Y68424
X76298Y68424
X76298Y69408
X75314Y69408
X75314Y68424
X75314Y67440
X76298Y67440
X77282Y67440
X77282Y67440
X78266Y67440
X78266Y68424
X79251Y67440
X80235Y67440
X80235Y66455
X80235Y65471
X79251Y65471
X79251Y66455
X78266Y66455
X77282Y66455
X77282Y66455
X77282Y65471
X77282Y65471
X76298Y65471
X75314Y65471
X75314Y66455
X76298Y66455
X74329Y66455
X74329Y65471
X73345Y65471
X72361Y65471
X71377Y65471
X71377Y66455
X72361Y66455
X73345Y66455
X73345Y67440
X73345Y68424
X72361Y68424
X72361Y69408
X73345Y69408
X73345Y70392
X72361Y70392
X71377Y70392
X70392Y70392
X70392Y70392
X70392Y71377
X70392Y71377
X70392Y72361
X70392Y72361
X70392Y73345
X70392Y73345
X71377Y73345
X72361Y73345
X72361Y72361
X73345Y72361
X73345Y73345
X74329Y73345
X74329Y72361
X74329Y71377
X74329Y70392
X75314Y70392
X76298Y70392
X77282Y70392
X77282Y70392
X78266Y70392
X74329Y69408
X74329Y68424
X74329Y67440
X72361Y67440
X71377Y67440
X71377Y68424
X71377Y69408
X70392Y69408
X70392Y69408
X70392Y68424
X70392Y68424
X70392Y67440
X70392Y67440
X70392Y66455
X70392Y66455
X70392Y65471
X70392Y65471
X69408Y65471
X68424Y65471
X67440Y65471
X67440Y66455
X68424Y66455
X69408Y66455
X69408Y67440
X69408Y68424
X68424Y68424
X68424Y69408
X69408Y69408
X69408Y70392
X68424Y70392
X67440Y70392
X67440Y71377
X68424Y71377
X69408Y71377
X71377Y71377
X71377Y72361
X72361Y71377
X73345Y71377
X68424Y67440
X67440Y67440
X67440Y68424
X67440Y69408
X66455Y69408
X65471Y69408
X65471Y68424
X65471Y67440
X66455Y67440
X66455Y68424
X66455Y66455
X66455Y65471
X65471Y65471
X65471Y66455
X62518Y70392
X61534Y70392
X60550Y67440
X60550Y60550
X60550Y59566
X59566Y59566
X59566Y60550
X58581Y60550
X57597Y60550
X56613Y60550
X56613Y60550
X56613Y59566
X56613Y59566
X57597Y59566
X58581Y59566
X58581Y58581
X58581Y57597
X57597Y57597
X57597Y56613
X56613Y56613
X56613Y56613
X56613Y57597
X56613Y57597
X56613Y58581
X56613Y58581
X57597Y58581
X59566Y58581
X59566Y57597
X60550Y57597
X60550Y56613
X59566Y56613
X58581Y56613
X58581Y55629
X57597Y55629
X56613Y55629
X56613Y55629
X56613Y54644
X56613Y54644
X56613Y53660
X56613Y53660
X56613Y52676
X56613Y52676
X57597Y52676
X57597Y53660
X57597Y54644
X58581Y54644
X58581Y53660
X58581Y52676
X58581Y51692
X57597Y51692
X56613Y51692
X56613Y51692
X55629Y51692
X55629Y52676
X55629Y53660
X55629Y54644
X54644Y54644
X54644Y53660
X53660Y53660
X53660Y52676
X52676Y52676
X52676Y53660
X51692Y53660
X51692Y53660
X51692Y52676
X51692Y52676
X51692Y51692
X51692Y51692
X52676Y51692
X53660Y51692
X54644Y51692
X54644Y52676
X53660Y54644
X52676Y54644
X51692Y54644
X51692Y54644
X51692Y55629
X51692Y55629
X52676Y55629
X53660Y55629
X54644Y55629
X55629Y55629
X55629Y56613
X55629Y57597
X55629Y58581
X54644Y58581
X54644Y57597
X53660Y57597
X53660Y56613
X52676Y56613
X52676Y57597
X51692Y57597
X51692Y57597
X51692Y56613
X51692Y56613
X50707Y56613
X49723Y56613
X48739Y56613
X48739Y57597
X49723Y57597
X49723Y58581
X48739Y58581
X47755Y58581
X47755Y57597
X47755Y56613
X47755Y55629
X48739Y55629
X49723Y55629
X50707Y55629
X50707Y54644
X50707Y53660
X49723Y53660
X49723Y52676
X48739Y52676
X48739Y53660
X47755Y53660
X47755Y52676
X47755Y51692
X48739Y51692
X49723Y51692
X50707Y51692
X50707Y52676
X49723Y54644
X48739Y54644
X47755Y54644
X46770Y54644
X46770Y53660
X45786Y53660
X45786Y52676
X44802Y52676
X44802Y52676
X44802Y53660
X44802Y53660
X43818Y53660
X43818Y52676
X43818Y51692
X44802Y51692
X44802Y51692
X45786Y51692
X46770Y51692
X46770Y52676
X45786Y54644
X44802Y54644
X44802Y54644
X43818Y54644
X42833Y54644
X42833Y53660
X42833Y52676
X42833Y51692
X41849Y51692
X41849Y52676
X40865Y52676
X40865Y53660
X41849Y53660
X41849Y54644
X40865Y54644
X39881Y54644
X39881Y53660
X39881Y52676
X39881Y51692
X40865Y51692
X40865Y50707
X40865Y49723
X40865Y48739
X41849Y48739
X41849Y49723
X41849Y50707
X42833Y50707
X42833Y49723
X42833Y48739
X42833Y47755
X43818Y47755
X43818Y48739
X44802Y48739
X44802Y48739
X44802Y49723
X44802Y49723
X45786Y49723
X45786Y48739
X45786Y47755
X44802Y47755
X44802Y47755
X46770Y47755
X46770Y48739
X46770Y49723
X46770Y50707
X45786Y50707
X44802Y50707
X44802Y50707
X43818Y50707
X43818Y49723
X41849Y47755
X40865Y47755
X39881Y47755
X39881Y48739
X39881Y49723
X39881Y50707
X38896Y50707
X38896Y49723
X38896Y48739
X38896Y47755
X37912Y47755
X37912Y48739
X37912Y49723
X36928Y49723
X36928Y49723
X36928Y48739
X36928Y48739
X36928Y47755
X36928Y47755
X35944Y47755
X35944Y48739
X35944Y49723
X35944Y50707
X36928Y50707
X36928Y50707
X37912Y50707
X37912Y51692
X37912Y52676
X36928Y52676
X36928Y52676
X36928Y53660
X36928Y53660
X37912Y53660
X37912Y54644
X36928Y54644
X36928Y54644
X35944Y54644
X35944Y53660
X35944Y52676
X35944Y51692
X36928Y51692
X36928Y51692
X34959Y51692
X34959Y52676
X33975Y52676
X33975Y53660
X34959Y53660
X34959Y54644
X33975Y54644
X33975Y55629
X34959Y55629
X35944Y55629
X36928Y55629
X36928Y55629
X37912Y55629
X37912Y56613
X36928Y56613
X36928Y56613
X36928Y57597
X36928Y57597
X37912Y57597
X37912Y58581
X36928Y58581
X36928Y58581
X35944Y58581
X35944Y57597
X35944Y56613
X34959Y56613
X33975Y56613
X33975Y57597
X34959Y57597
X34959Y58581
X33975Y58581
X33975Y59566
X33975Y60550
X34959Y60550
X34959Y59566
X35944Y59566
X36928Y59566
X36928Y59566
X36928Y60550
X36928Y60550
X37912Y60550
X37912Y59566
X38896Y59566
X38896Y60550
X39881Y60550
X40865Y60550
X41849Y60550
X41849Y59566
X40865Y59566
X39881Y59566
X39881Y58581
X39881Y57597
X40865Y57597
X40865Y56613
X41849Y56613
X41849Y57597
X41849Y58581
X40865Y58581
X38896Y58581
X38896Y57597
X38896Y56613
X39881Y56613
X39881Y55629
X40865Y55629
X41849Y55629
X42833Y55629
X43818Y55629
X44802Y55629
X44802Y55629
X45786Y55629
X46770Y55629
X46770Y56613
X45786Y56613
X44802Y56613
X44802Y56613
X44802Y57597
X44802Y57597
X45786Y57597
X45786Y58581
X44802Y58581
X44802Y58581
X43818Y58581
X43818Y57597
X43818Y56613
X42833Y56613
X42833Y57597
X42833Y58581
X42833Y59566
X42833Y60550
X43818Y60550
X44802Y60550
X44802Y60550
X45786Y60550
X45786Y59566
X44802Y59566
X44802Y59566
X43818Y59566
X43818Y61534
X44802Y61534
X44802Y61534
X45786Y61534
X45786Y62518
X44802Y62518
X44802Y62518
X43818Y62518
X42833Y62518
X42833Y61534
X41849Y61534
X40865Y61534
X39881Y61534
X39881Y62518
X40865Y62518
X41849Y62518
X41849Y63503
X41849Y64487
X40865Y64487
X40865Y63503
X39881Y63503
X39881Y64487
X38896Y64487
X38896Y63503
X38896Y62518
X38896Y61534
X37912Y61534
X36928Y61534
X36928Y61534
X35944Y61534
X35944Y62518
X36928Y62518
X36928Y62518
X37912Y62518
X37912Y63503
X37912Y64487
X36928Y64487
X36928Y64487
X36928Y63503
X36928Y63503
X35944Y63503
X35944Y64487
X34959Y64487
X33975Y64487
X33975Y63503
X34959Y63503
X34959Y62518
X34959Y61534
X33975Y61534
X33975Y62518
X32991Y62518
X32991Y61534
X32007Y61534
X32007Y62518
X31022Y62518
X31022Y61534
X30038Y61534
X30038Y61534
X30038Y62518
X30038Y62518
X30038Y63503
X30038Y63503
X30038Y64487
X30038Y64487
X31022Y64487
X31022Y63503
X32007Y63503
X32991Y63503
X32991Y64487
X32007Y64487
X32007Y65471
X32991Y65471
X32991Y66455
X32007Y66455
X31022Y66455
X31022Y65471
X30038Y65471
X30038Y65471
X30038Y66455
X30038Y66455
X30038Y67440
X30038Y67440
X30038Y68424
X30038Y68424
X30038Y69408
X30038Y69408
X31022Y69408
X31022Y68424
X31022Y67440
X32007Y67440
X32991Y67440
X32991Y68424
X32991Y69408
X32007Y69408
X32007Y68424
X33975Y68424
X33975Y69408
X34959Y69408
X34959Y68424
X34959Y67440
X33975Y67440
X33975Y66455
X33975Y65471
X34959Y65471
X34959Y66455
X35944Y66455
X35944Y65471
X36928Y65471
X36928Y65471
X37912Y65471
X37912Y66455
X36928Y66455
X36928Y66455
X36928Y67440
X36928Y67440
X36928Y68424
X36928Y68424
X37912Y68424
X37912Y69408
X36928Y69408
X36928Y69408
X35944Y69408
X35944Y68424
X35944Y67440
X37912Y67440
X38896Y67440
X38896Y68424
X38896Y69408
X39881Y69408
X40865Y69408
X40865Y68424
X41849Y68424
X41849Y69408
X42833Y69408
X42833Y68424
X42833Y67440
X42833Y66455
X42833Y65471
X43818Y65471
X44802Y65471
X44802Y65471
X45786Y65471
X46770Y65471
X46770Y66455
X45786Y66455
X44802Y66455
X44802Y66455
X43818Y66455
X43818Y67440
X44802Y67440
X44802Y67440
X44802Y68424
X44802Y68424
X45786Y68424
X45786Y69408
X44802Y69408
X44802Y69408
X43818Y69408
X43818Y68424
X45786Y67440
X46770Y67440
X46770Y68424
X46770Y69408
X46770Y70392
X45786Y70392
X44802Y70392
X44802Y70392
X43818Y70392
X42833Y70392
X42833Y71377
X42833Y72361
X42833Y73345
X43818Y73345
X43818Y72361
X43818Y71377
X44802Y71377
X44802Y71377
X45786Y71377
X46770Y71377
X41849Y71377
X41849Y72361
X40865Y72361
X40865Y73345
X41849Y73345
X41849Y74329
X40865Y74329
X39881Y74329
X38896Y74329
X38896Y75314
X38896Y76298
X38896Y77282
X38896Y78266
X39881Y78266
X39881Y77282
X40865Y77282
X40865Y76298
X41849Y76298
X41849Y77282
X41849Y78266
X40865Y78266
X40865Y79251
X40865Y80235
X41849Y80235
X41849Y79251
X42833Y79251
X42833Y80235
X43818Y80235
X44802Y80235
X45786Y80235
X45786Y79251
X44802Y79251
X43818Y79251
X46770Y79251
X46770Y80235
X47755Y80235
X48739Y80235
X49723Y80235
X49723Y79251
X48739Y79251
X47755Y79251
X48739Y78266
X49723Y78266
X50707Y78266
X50707Y79251
X50707Y80235
X51692Y80235
X52676Y80235
X53660Y80235
X53660Y79251
X52676Y79251
X51692Y79251
X54644Y79251
X54644Y80235
X55629Y80235
X55629Y79251
X67440Y80235
X74329Y80235
X74329Y79251
X75314Y79251
X75314Y80235
X78266Y65471
X78266Y64487
X77282Y64487
X77282Y64487
X76298Y64487
X75314Y64487
X75314Y63503
X76298Y63503
X77282Y63503
X77282Y63503
X78266Y63503
X78266Y62518
X77282Y62518
X77282Y62518
X77282Y61534
X77282Y61534
X76298Y61534
X75314Y61534
X75314Y62518
X76298Y62518
X74329Y62518
X74329Y61534
X74329Y60550
X74329Y59566
X78266Y60550
X78266Y61534
X79251Y61534
X80235Y61534
X80235Y62518
X79251Y62518
X79251Y63503
X79251Y64487
X80235Y64487
X80235Y63503
X74329Y63503
X74329Y64487
X73345Y64487
X72361Y64487
X71377Y64487
X71377Y63503
X72361Y63503
X73345Y63503
X70392Y63503
X70392Y63503
X70392Y64487
X70392Y64487
X69408Y60550
X68424Y60550
X68424Y59566
X69408Y59566
X69408Y58581
X69408Y57597
X68424Y57597
X68424Y56613
X69408Y56613
X69408Y55629
X68424Y55629
X67440Y55629
X66455Y55629
X65471Y55629
X65471Y54644
X65471Y53660
X65471Y52676
X65471Y51692
X66455Y51692
X66455Y52676
X66455Y53660
X66455Y54644
X67440Y54644
X67440Y53660
X68424Y53660
X68424Y52676
X69408Y52676
X69408Y53660
X69408Y54644
X68424Y54644
X67440Y52676
X67440Y51692
X68424Y51692
X69408Y51692
X70392Y51692
X70392Y51692
X70392Y52676
X70392Y52676
X70392Y53660
X70392Y53660
X70392Y54644
X70392Y54644
X70392Y55629
X70392Y55629
X71377Y55629
X72361Y55629
X73345Y55629
X73345Y54644
X72361Y54644
X71377Y54644
X71377Y53660
X71377Y52676
X71377Y51692
X70392Y50707
X70392Y50707
X70392Y49723
X70392Y49723
X70392Y48739
X70392Y48739
X70392Y47755
X70392Y47755
X69408Y47755
X69408Y48739
X68424Y48739
X68424Y49723
X69408Y49723
X69408Y50707
X68424Y50707
X67440Y50707
X67440Y49723
X67440Y48739
X67440Y47755
X68424Y47755
X66455Y47755
X65471Y47755
X65471Y48739
X65471Y49723
X65471Y50707
X66455Y50707
X66455Y49723
X66455Y48739
X64487Y48739
X64487Y49723
X63503Y49723
X63503Y49723
X63503Y48739
X63503Y48739
X63503Y47755
X63503Y47755
X64487Y47755
X64487Y46770
X64487Y45786
X64487Y44802
X63503Y44802
X63503Y44802
X63503Y45786
X63503Y45786
X63503Y46770
X63503Y46770
X62518Y46770
X61534Y46770
X61534Y45786
X61534Y44802
X61534Y43818
X62518Y43818
X62518Y44802
X62518Y45786
X63503Y43818
X63503Y43818
X64487Y43818
X64487Y42833
X63503Y42833
X63503Y42833
X62518Y42833
X61534Y42833
X60550Y42833
X59566Y42833
X58581Y42833
X57597Y42833
X56613Y42833
X56613Y42833
X56613Y43818
X56613Y43818
X56613Y44802
X56613Y44802
X56613Y45786
X56613Y45786
X57597Y45786
X57597Y44802
X57597Y43818
X58581Y43818
X58581Y44802
X58581Y45786
X58581Y46770
X57597Y46770
X56613Y46770
X56613Y46770
X55629Y46770
X55629Y45786
X55629Y44802
X55629Y43818
X55629Y42833
X54644Y42833
X53660Y42833
X52676Y42833
X51692Y42833
X51692Y42833
X51692Y43818
X51692Y43818
X51692Y44802
X51692Y44802
X52676Y44802
X52676Y45786
X53660Y45786
X53660Y44802
X53660Y43818
X52676Y43818
X54644Y43818
X54644Y44802
X54644Y45786
X54644Y46770
X53660Y46770
X52676Y46770
X51692Y46770
X51692Y46770
X51692Y45786
X51692Y45786
X51692Y47755
X51692Y47755
X51692Y48739
X51692Y48739
X52676Y48739
X52676Y49723
X53660Y49723
X53660Y48739
X53660Y47755
X52676Y47755
X54644Y47755
X54644Y48739
X54644Y49723
X54644Y50707
X53660Y50707
X52676Y50707
X51692Y50707
X51692Y50707
X51692Y49723
X51692Y49723
X50707Y49723
X49723Y49723
X49723Y48739
X48739Y48739
X48739Y49723
X47755Y49723
X47755Y48739
X47755Y47755
X48739Y47755
X49723Y47755
X50707Y47755
X50707Y48739
X50707Y50707
X49723Y50707
X48739Y50707
X47755Y50707
X41849Y46770
X41849Y45786
X41849Y44802
X40865Y44802
X40865Y45786
X39881Y45786
X39881Y44802
X39881Y43818
X40865Y43818
X41849Y43818
X41849Y42833
X40865Y42833
X39881Y42833
X38896Y42833
X38896Y43818
X38896Y44802
X38896Y45786
X38896Y46770
X39881Y46770
X40865Y46770
X37912Y46770
X37912Y45786
X37912Y44802
X36928Y44802
X36928Y44802
X36928Y45786
X36928Y45786
X35944Y45786
X35944Y44802
X35944Y43818
X36928Y43818
X36928Y43818
X37912Y43818
X37912Y42833
X36928Y42833
X36928Y42833
X35944Y42833
X34959Y42833
X33975Y42833
X33975Y43818
X33975Y44802
X33975Y45786
X34959Y45786
X34959Y44802
X34959Y43818
X32991Y43818
X32991Y44802
X32991Y45786
X32007Y45786
X32007Y44802
X32007Y43818
X32007Y42833
X32991Y42833
X32991Y41849
X32991Y40865
X32991Y39881
X32007Y39881
X32007Y40865
X32007Y41849
X31022Y41849
X31022Y41849
X30038Y41849
X30038Y41849
X30038Y40865
X30038Y39881
X31022Y39881
X31022Y40865
X31022Y38896
X31022Y38896
X30038Y38896
X30038Y38896
X30038Y38896
X30038Y37912
X30038Y37912
X30038Y36928
X30038Y36928
X30038Y35944
X30038Y35944
X31022Y35944
X31022Y36928
X31022Y37912
X32007Y37912
X32991Y37912
X32991Y36928
X32991Y35944
X32007Y35944
X32007Y36928
X32007Y34959
X32991Y34959
X32991Y33975
X32007Y33975
X31022Y33975
X30038Y33975
X30038Y33975
X30038Y34959
X30038Y34959
X31022Y34959
X31022Y32991
X30038Y32991
X30038Y32991
X30038Y32007
X30038Y32007
X31022Y32007
X32007Y32007
X32007Y32991
X32991Y32991
X32991Y32007
X32991Y31022
X32991Y30038
X32007Y30038
X32007Y31022
X31022Y31022
X31022Y30038
X30038Y30038
X30038Y30038
X30038Y31022
X30038Y31022
X29054Y31022
X29054Y30038
X28070Y30038
X28070Y31022
X28070Y32007
X28070Y32991
X29054Y32991
X29054Y32007
X27085Y32007
X27085Y32991
X26101Y32991
X25117Y32991
X25117Y32007
X26101Y32007
X26101Y31022
X26101Y30038
X25117Y30038
X25117Y31022
X24133Y31022
X24133Y30038
X23148Y30038
X23148Y30038
X22164Y30038
X21180Y30038
X21180Y31022
X22164Y31022
X23148Y31022
X23148Y31022
X23148Y32007
X23148Y32007
X23148Y32991
X23148Y32991
X22164Y32991
X21180Y32991
X21180Y32007
X22164Y32007
X20196Y32007
X20196Y32991
X20196Y33975
X21180Y33975
X22164Y33975
X23148Y33975
X23148Y33975
X23148Y34959
X23148Y34959
X22164Y34959
X21180Y34959
X20196Y34959
X20196Y35944
X20196Y36928
X21180Y36928
X22164Y36928
X22164Y37912
X21180Y37912
X20196Y37912
X20196Y38896
X21180Y38896
X22164Y38896
X23148Y38896
X24133Y38896
X24133Y39881
X24133Y40865
X24133Y41849
X23148Y41849
X23148Y41849
X22164Y41849
X22164Y40865
X21180Y40865
X21180Y41849
X20196Y41849
X20196Y40865
X20196Y39881
X21180Y39881
X22164Y39881
X23148Y39881
X23148Y40865
X23148Y42833
X23148Y42833
X22164Y42833
X21180Y42833
X20196Y42833
X20196Y43818
X21180Y43818
X21180Y44802
X22164Y44802
X22164Y45786
X21180Y45786
X21180Y46770
X22164Y46770
X23148Y46770
X23148Y46770
X23148Y45786
X23148Y45786
X23148Y44802
X23148Y44802
X23148Y43818
X23148Y43818
X22164Y43818
X24133Y43818
X24133Y44802
X24133Y45786
X24133Y46770
X25117Y46770
X25117Y45786
X25117Y44802
X26101Y44802
X26101Y45786
X27085Y45786
X27085Y44802
X27085Y43818
X26101Y43818
X25117Y43818
X25117Y42833
X26101Y42833
X27085Y42833
X28070Y42833
X29054Y42833
X29054Y43818
X29054Y44802
X29054Y45786
X29054Y46770
X28070Y46770
X28070Y45786
X28070Y44802
X28070Y43818
X30038Y43818
X30038Y43818
X30038Y44802
X30038Y44802
X30038Y45786
X30038Y45786
X31022Y45786
X31022Y44802
X31022Y43818
X31022Y42833
X30038Y42833
X30038Y42833
X29054Y41849
X29054Y40865
X29054Y39881
X28070Y39881
X28070Y40865
X28070Y41849
X27085Y41849
X26101Y41849
X26101Y40865
X25117Y40865
X25117Y41849
X24133Y42833
X25117Y39881
X26101Y39881
X27085Y39881
X27085Y40865
X27085Y38896
X27085Y38896
X26101Y38896
X25117Y38896
X25117Y37912
X26101Y37912
X26101Y36928
X25117Y36928
X25117Y35944
X26101Y35944
X27085Y35944
X27085Y36928
X27085Y37912
X28070Y37912
X29054Y37912
X29054Y36928
X29054Y35944
X28070Y35944
X28070Y36928
X28070Y34959
X29054Y34959
X29054Y33975
X28070Y33975
X27085Y33975
X26101Y33975
X25117Y33975
X25117Y34959
X26101Y34959
X27085Y34959
X24133Y34959
X24133Y33975
X24133Y32991
X24133Y32007
X24133Y29054
X24133Y28070
X24133Y27085
X24133Y26101
X24133Y25117
X25117Y25117
X25117Y26101
X26101Y26101
X26101Y25117
X27085Y25117
X27085Y26101
X27085Y27085
X26101Y27085
X25117Y27085
X25117Y28070
X25117Y29054
X26101Y29054
X27085Y29054
X27085Y28070
X26101Y28070
X28070Y28070
X28070Y29054
X29054Y29054
X29054Y28070
X29054Y27085
X29054Y26101
X29054Y25117
X28070Y25117
X28070Y26101
X28070Y27085
X30038Y27085
X30038Y27085
X30038Y26101
X30038Y26101
X30038Y25117
X30038Y25117
X31022Y25117
X31022Y26101
X31022Y27085
X31022Y28070
X31022Y29054
X30038Y29054
X30038Y29054
X30038Y28070
X30038Y28070
X32007Y28070
X32007Y29054
X32991Y29054
X32991Y28070
X32991Y27085
X32991Y26101
X32991Y25117
X32007Y25117
X32007Y26101
X32007Y27085
X33975Y27085
X33975Y26101
X33975Y25117
X34959Y25117
X34959Y26101
X34959Y27085
X34959Y28070
X34959Y29054
X33975Y29054
X33975Y28070
X35944Y28070
X35944Y29054
X36928Y29054
X36928Y29054
X37912Y29054
X37912Y28070
X36928Y28070
X36928Y28070
X36928Y27085
X36928Y27085
X36928Y26101
X36928Y26101
X36928Y25117
X36928Y25117
X37912Y25117
X37912Y26101
X37912Y27085
X38896Y27085
X38896Y26101
X38896Y25117
X39881Y25117
X40865Y25117
X40865Y26101
X41849Y26101
X41849Y25117
X42833Y25117
X42833Y26101
X42833Y27085
X42833Y28070
X42833Y29054
X43818Y29054
X44802Y29054
X44802Y29054
X45786Y29054
X45786Y28070
X44802Y28070
X44802Y28070
X43818Y28070
X43818Y30038
X44802Y30038
X44802Y30038
X45786Y30038
X45786Y31022
X44802Y31022
X44802Y31022
X43818Y31022
X43818Y32007
X43818Y32991
X44802Y32991
X44802Y32991
X45786Y32991
X45786Y32007
X44802Y32007
X44802Y32007
X46770Y32007
X46770Y32991
X46770Y33975
X45786Y33975
X44802Y33975
X44802Y33975
X44802Y34959
X44802Y34959
X45786Y34959
X46770Y34959
X46770Y35944
X46770Y36928
X45786Y36928
X44802Y36928
X44802Y36928
X44802Y37912
X44802Y37912
X45786Y37912
X46770Y37912
X47755Y37912
X45786Y35944
X44802Y35944
X44802Y35944
X43818Y35944
X43818Y36928
X43818Y37912
X42833Y37912
X42833Y36928
X42833Y35944
X42833Y34959
X42833Y33975
X43818Y33975
X43818Y34959
X41849Y34959
X41849Y33975
X40865Y33975
X40865Y34959
X39881Y34959
X39881Y33975
X38896Y33975
X38896Y34959
X38896Y35944
X38896Y36928
X38896Y37912
X39881Y37912
X40865Y37912
X40865Y36928
X41849Y36928
X41849Y37912
X41849Y38896
X40865Y38896
X39881Y38896
X38896Y38896
X38896Y39881
X38896Y40865
X38896Y41849
X39881Y41849
X40865Y41849
X40865Y40865
X41849Y40865
X41849Y41849
X41849Y39881
X40865Y39881
X39881Y39881
X39881Y40865
X37912Y40865
X37912Y40865
X37912Y41849
X36928Y41849
X36928Y41849
X36928Y40865
X36928Y40865
X36928Y39881
X37912Y39881
X37912Y38896
X36928Y38896
X35944Y38896
X35944Y39881
X35944Y40865
X35944Y41849
X34959Y41849
X33975Y41849
X33975Y40865
X33975Y39881
X34959Y39881
X34959Y40865
X34959Y38896
X33975Y38896
X33975Y37912
X33975Y36928
X33975Y35944
X34959Y35944
X34959Y36928
X34959Y37912
X35944Y37912
X36928Y37912
X36928Y37912
X36928Y36928
X36928Y36928
X37912Y36928
X37912Y37912
X37912Y35944
X36928Y35944
X36928Y35944
X35944Y35944
X35944Y36928
X35944Y34959
X36928Y34959
X36928Y34959
X36928Y33975
X36928Y33975
X37912Y33975
X37912Y34959
X35944Y33975
X34959Y33975
X33975Y33975
X33975Y34959
X34959Y34959
X34959Y32991
X33975Y32991
X33975Y32007
X34959Y32007
X35944Y32007
X35944Y32991
X36928Y32991
X36928Y32991
X37912Y32991
X37912Y32007
X36928Y32007
X36928Y32007
X36928Y31022
X36928Y31022
X36928Y30038
X36928Y30038
X37912Y30038
X37912Y31022
X38896Y31022
X38896Y30038
X39881Y30038
X40865Y30038
X41849Y30038
X41849Y31022
X40865Y31022
X39881Y31022
X39881Y32007
X39881Y32991
X40865Y32991
X41849Y32991
X41849Y32007
X40865Y32007
X38896Y32007
X38896Y32991
X39881Y35944
X39881Y36928
X40865Y35944
X41849Y35944
X42833Y32991
X42833Y32007
X42833Y31022
X42833Y30038
X41849Y29054
X40865Y29054
X39881Y29054
X39881Y28070
X40865Y28070
X41849Y28070
X41849Y27085
X40865Y27085
X39881Y27085
X39881Y26101
X38896Y28070
X38896Y29054
X35944Y30038
X35944Y31022
X34959Y31022
X34959Y30038
X33975Y30038
X33975Y31022
X35944Y27085
X35944Y26101
X35944Y25117
X35944Y24133
X36928Y24133
X36928Y24133
X37912Y24133
X37912Y23148
X37912Y22164
X36928Y22164
X36928Y22164
X36928Y21180
X36928Y21180
X37912Y21180
X37912Y20196
X36928Y20196
X36928Y20196
X35944Y20196
X35944Y21180
X35944Y22164
X35944Y23148
X36928Y23148
X36928Y23148
X34959Y23148
X34959Y22164
X33975Y22164
X33975Y21180
X34959Y21180
X34959Y20196
X33975Y20196
X32991Y20196
X32991Y21180
X32991Y22164
X32991Y23148
X32007Y23148
X32007Y22164
X32007Y21180
X32007Y20196
X31022Y20196
X31022Y21180
X30038Y21180
X30038Y21180
X30038Y22164
X30038Y22164
X30038Y23148
X30038Y23148
X31022Y23148
X31022Y22164
X31022Y24133
X30038Y24133
X30038Y24133
X29054Y24133
X28070Y24133
X28070Y23148
X29054Y23148
X29054Y22164
X29054Y21180
X29054Y20196
X28070Y20196
X28070Y21180
X28070Y22164
X27085Y22164
X26101Y22164
X25117Y22164
X25117Y21180
X26101Y21180
X27085Y21180
X27085Y20196
X26101Y20196
X25117Y20196
X25117Y19211
X26101Y19211
X27085Y19211
X27085Y18227
X27085Y17243
X27085Y16259
X28070Y16259
X28070Y17243
X29054Y17243
X29054Y18227
X29054Y19211
X28070Y19211
X28070Y18227
X29054Y16259
X30038Y16259
X30038Y16259
X30038Y17243
X30038Y17243
X30038Y18227
X30038Y18227
X30038Y19211
X30038Y19211
X31022Y19211
X31022Y18227
X31022Y17243
X31022Y16259
X32007Y16259
X32007Y17243
X32991Y17243
X32991Y18227
X32991Y19211
X32007Y19211
X32007Y18227
X32991Y16259
X33975Y16259
X33975Y17243
X33975Y18227
X33975Y19211
X34959Y19211
X34959Y18227
X34959Y17243
X34959Y16259
X35944Y16259
X35944Y17243
X36928Y17243
X36928Y17243
X36928Y18227
X36928Y18227
X37912Y18227
X37912Y17243
X37912Y16259
X36928Y16259
X36928Y16259
X36928Y15274
X36928Y15274
X36928Y14290
X36928Y14290
X37912Y14290
X37912Y13306
X36928Y13306
X36928Y13306
X35944Y13306
X35944Y14290
X35944Y15274
X34959Y15274
X33975Y15274
X33975Y14290
X33975Y13306
X34959Y13306
X34959Y14290
X34959Y12322
X33975Y12322
X33975Y11337
X34959Y11337
X35944Y11337
X36928Y11337
X36928Y11337
X37912Y11337
X37912Y12322
X36928Y12322
X36928Y12322
X35944Y12322
X35944Y10353
X36928Y10353
X36928Y10353
X37912Y10353
X37912Y9369
X36928Y9369
X36928Y9369
X35944Y9369
X35944Y8385
X36928Y8385
X36928Y8385
X37912Y8385
X37912Y7400
X36928Y7400
X36928Y7400
X35944Y7400
X34959Y7400
X33975Y7400
X33975Y8385
X33975Y9369
X33975Y10353
X34959Y10353
X34959Y9369
X34959Y8385
X32991Y6416
X32991Y5432
X32007Y5432
X32007Y6416
X31022Y6416
X30038Y6416
X30038Y6416
X30038Y5432
X30038Y5432
X31022Y5432
X31022Y4448
X30038Y4448
X30038Y4448
X30038Y3463
X30038Y3463
X30038Y2479
X30038Y2479
X31022Y2479
X31022Y3463
X32007Y3463
X32991Y3463
X32991Y2479
X32007Y2479
X32007Y4448
X32991Y4448
X33975Y4448
X38896Y7400
X38896Y8385
X38896Y9369
X38896Y10353
X39881Y10353
X40865Y10353
X41849Y10353
X41849Y9369
X40865Y9369
X39881Y9369
X39881Y8385
X40865Y8385
X41849Y8385
X41849Y7400
X40865Y7400
X39881Y7400
X42833Y7400
X42833Y8385
X42833Y9369
X42833Y10353
X43818Y10353
X44802Y8385
X44802Y8385
X45786Y8385
X46770Y8385
X47755Y8385
X47755Y9369
X48739Y9369
X48739Y10353
X49723Y10353
X49723Y9369
X50707Y9369
X50707Y10353
X50707Y11337
X49723Y11337
X48739Y11337
X47755Y11337
X47755Y12322
X47755Y13306
X48739Y13306
X48739Y14290
X49723Y14290
X49723Y13306
X49723Y12322
X48739Y12322
X50707Y12322
X50707Y13306
X50707Y14290
X50707Y15274
X49723Y15274
X48739Y15274
X47755Y15274
X47755Y14290
X47755Y16259
X47755Y17243
X48739Y17243
X48739Y18227
X49723Y18227
X49723Y17243
X49723Y16259
X48739Y16259
X50707Y16259
X50707Y17243
X50707Y18227
X50707Y19211
X49723Y19211
X48739Y19211
X47755Y19211
X47755Y18227
X47755Y20196
X47755Y21180
X48739Y21180
X48739Y22164
X49723Y22164
X49723Y21180
X49723Y20196
X48739Y20196
X50707Y20196
X50707Y21180
X50707Y22164
X50707Y23148
X49723Y23148
X48739Y23148
X47755Y23148
X47755Y22164
X47755Y24133
X48739Y24133
X49723Y24133
X50707Y24133
X50707Y25117
X50707Y26101
X50707Y27085
X51692Y27085
X51692Y27085
X51692Y26101
X51692Y26101
X52676Y26101
X52676Y25117
X53660Y25117
X53660Y26101
X53660Y27085
X52676Y27085
X52676Y28070
X52676Y29054
X53660Y29054
X53660Y28070
X54644Y28070
X54644Y29054
X55629Y29054
X55629Y28070
X55629Y27085
X55629Y26101
X55629Y25117
X54644Y25117
X54644Y26101
X54644Y27085
X56613Y27085
X56613Y27085
X56613Y26101
X56613Y26101
X56613Y25117
X56613Y25117
X57597Y25117
X57597Y26101
X57597Y27085
X58581Y27085
X58581Y26101
X58581Y25117
X59566Y25117
X60550Y25117
X60550Y26101
X59566Y26101
X59566Y27085
X60550Y27085
X60550Y28070
X60550Y29054
X59566Y29054
X59566Y28070
X58581Y28070
X57597Y28070
X57597Y29054
X56613Y29054
X56613Y29054
X56613Y28070
X56613Y28070
X58581Y29054
X58581Y30038
X57597Y30038
X56613Y30038
X56613Y30038
X56613Y31022
X56613Y31022
X57597Y31022
X58581Y31022
X58581Y32007
X57597Y32007
X57597Y32991
X56613Y32991
X56613Y32991
X56613Y32007
X56613Y32007
X55629Y32007
X55629Y32991
X54644Y32991
X53660Y32991
X52676Y32991
X51692Y32991
X51692Y32991
X51692Y32007
X51692Y32007
X52676Y32007
X53660Y32007
X54644Y32007
X54644Y31022
X53660Y31022
X53660Y30038
X52676Y30038
X51692Y30038
X51692Y30038
X51692Y31022
X51692Y31022
X52676Y31022
X54644Y30038
X55629Y30038
X55629Y31022
X55629Y33975
X55629Y34959
X55629Y35944
X55629Y36928
X55629Y37912
X54644Y37912
X53660Y37912
X52676Y37912
X52676Y36928
X53660Y36928
X53660Y35944
X52676Y35944
X51692Y35944
X51692Y35944
X51692Y36928
X51692Y36928
X51692Y37912
X51692Y37912
X51692Y34959
X51692Y34959
X51692Y33975
X51692Y33975
X52676Y33975
X53660Y33975
X53660Y34959
X52676Y34959
X54644Y34959
X54644Y33975
X54644Y35944
X54644Y36928
X56613Y36928
X56613Y36928
X56613Y37912
X56613Y37912
X57597Y37912
X57597Y36928
X57597Y35944
X56613Y35944
X56613Y35944
X56613Y34959
X56613Y34959
X56613Y33975
X56613Y33975
X57597Y33975
X57597Y34959
X58581Y34959
X58581Y33975
X59566Y33975
X60550Y33975
X60550Y34959
X59566Y34959
X59566Y35944
X59566Y36928
X60550Y36928
X60550Y37912
X59566Y37912
X58581Y37912
X58581Y36928
X58581Y35944
X60550Y35944
X60550Y32991
X59566Y32991
X59566Y32007
X60550Y32007
X60550Y31022
X60550Y30038
X59566Y30038
X59566Y31022
X58581Y32991
X61534Y29054
X61534Y28070
X62518Y28070
X62518Y29054
X63503Y29054
X63503Y29054
X64487Y29054
X64487Y28070
X63503Y28070
X63503Y28070
X63503Y27085
X63503Y27085
X63503Y26101
X63503Y26101
X64487Y26101
X64487Y25117
X63503Y25117
X63503Y25117
X62518Y25117
X61534Y25117
X61534Y26101
X61534Y27085
X62518Y27085
X62518Y26101
X64487Y27085
X65471Y27085
X65471Y26101
X65471Y25117
X66455Y25117
X66455Y26101
X66455Y27085
X66455Y28070
X65471Y28070
X65471Y29054
X66455Y29054
X67440Y29054
X68424Y29054
X69408Y29054
X69408Y28070
X68424Y28070
X67440Y28070
X67440Y27085
X67440Y26101
X68424Y26101
X68424Y25117
X69408Y25117
X69408Y26101
X69408Y27085
X68424Y27085
X67440Y25117
X67440Y24133
X68424Y24133
X69408Y24133
X69408Y23148
X69408Y22164
X68424Y22164
X68424Y21180
X69408Y21180
X69408Y20196
X68424Y20196
X67440Y20196
X67440Y21180
X67440Y22164
X67440Y23148
X68424Y23148
X66455Y23148
X65471Y23148
X65471Y22164
X65471Y21180
X65471Y20196
X66455Y20196
X66455Y21180
X66455Y22164
X66455Y24133
X65471Y24133
X64487Y24133
X63503Y24133
X63503Y24133
X62518Y24133
X61534Y24133
X61534Y23148
X61534Y22164
X61534Y21180
X61534Y20196
X62518Y20196
X62518Y21180
X62518Y22164
X62518Y23148
X63503Y23148
X63503Y23148
X63503Y22164
X63503Y22164
X64487Y22164
X64487Y21180
X63503Y21180
X63503Y21180
X63503Y20196
X63503Y20196
X64487Y20196
X64487Y19211
X64487Y18227
X64487Y17243
X63503Y17243
X63503Y17243
X63503Y18227
X63503Y18227
X63503Y19211
X63503Y19211
X62518Y19211
X61534Y19211
X61534Y18227
X61534Y17243
X61534Y16259
X62518Y16259
X62518Y17243
X62518Y18227
X63503Y16259
X63503Y16259
X64487Y16259
X65471Y16259
X65471Y17243
X65471Y18227
X65471Y19211
X66455Y19211
X66455Y18227
X66455Y17243
X66455Y16259
X67440Y16259
X67440Y17243
X68424Y17243
X68424Y18227
X69408Y18227
X69408Y17243
X69408Y16259
X68424Y16259
X68424Y15274
X68424Y14290
X68424Y13306
X69408Y13306
X69408Y14290
X69408Y15274
X70392Y15274
X70392Y15274
X70392Y14290
X70392Y14290
X70392Y13306
X70392Y13306
X70392Y12322
X70392Y12322
X70392Y11337
X70392Y11337
X71377Y11337
X72361Y11337
X73345Y11337
X73345Y12322
X73345Y13306
X72361Y13306
X72361Y14290
X73345Y14290
X73345Y15274
X72361Y15274
X71377Y15274
X71377Y14290
X71377Y13306
X71377Y12322
X72361Y12322
X74329Y12322
X74329Y13306
X74329Y14290
X74329Y15274
X75314Y15274
X75314Y14290
X76298Y14290
X76298Y13306
X77282Y13306
X77282Y13306
X77282Y14290
X77282Y14290
X77282Y15274
X77282Y15274
X76298Y15274
X76298Y16259
X76298Y17243
X76298Y18227
X77282Y18227
X77282Y18227
X77282Y17243
X77282Y17243
X77282Y16259
X77282Y16259
X78266Y16259
X78266Y17243
X78266Y18227
X78266Y19211
X77282Y19211
X77282Y19211
X76298Y19211
X75314Y19211
X75314Y18227
X75314Y17243
X75314Y16259
X74329Y16259
X74329Y17243
X74329Y18227
X74329Y19211
X73345Y19211
X73345Y18227
X72361Y18227
X72361Y17243
X73345Y17243
X73345Y16259
X72361Y16259
X71377Y16259
X71377Y17243
X71377Y18227
X71377Y19211
X72361Y19211
X72361Y20196
X72361Y21180
X72361Y22164
X73345Y22164
X73345Y21180
X73345Y20196
X74329Y20196
X74329Y21180
X74329Y22164
X74329Y23148
X74329Y24133
X75314Y24133
X76298Y24133
X77282Y24133
X77282Y24133
X78266Y24133
X78266Y23148
X77282Y23148
X77282Y23148
X77282Y22164
X77282Y22164
X76298Y22164
X76298Y21180
X77282Y21180
X77282Y21180
X77282Y20196
X77282Y20196
X76298Y20196
X75314Y20196
X75314Y21180
X75314Y22164
X75314Y23148
X76298Y23148
X78266Y22164
X78266Y21180
X78266Y20196
X79251Y20196
X79251Y21180
X80235Y21180
X80235Y22164
X79251Y22164
X79251Y23148
X80235Y23148
X80235Y24133
X79251Y24133
X79251Y25117
X80235Y25117
X80235Y26101
X79251Y26101
X79251Y27085
X80235Y27085
X80235Y28070
X80235Y29054
X79251Y29054
X79251Y28070
X78266Y28070
X77282Y28070
X77282Y28070
X77282Y29054
X77282Y29054
X76298Y29054
X75314Y29054
X75314Y28070
X76298Y28070
X76298Y27085
X76298Y26101
X76298Y25117
X77282Y25117
X77282Y25117
X77282Y26101
X77282Y26101
X77282Y27085
X77282Y27085
X78266Y27085
X78266Y26101
X78266Y25117
X75314Y25117
X75314Y26101
X75314Y27085
X74329Y27085
X74329Y26101
X74329Y25117
X73345Y25117
X72361Y25117
X72361Y26101
X73345Y26101
X73345Y27085
X72361Y27085
X71377Y27085
X71377Y26101
X71377Y25117
X70392Y25117
X70392Y25117
X70392Y26101
X70392Y26101
X70392Y27085
X70392Y27085
X70392Y28070
X70392Y28070
X70392Y29054
X70392Y29054
X71377Y29054
X72361Y29054
X73345Y29054
X73345Y28070
X72361Y28070
X71377Y28070
X71377Y30038
X72361Y30038
X73345Y30038
X73345Y31022
X72361Y31022
X71377Y31022
X70392Y31022
X70392Y31022
X70392Y30038
X70392Y30038
X70392Y32007
X70392Y32007
X70392Y32991
X70392Y32991
X71377Y32991
X72361Y32991
X73345Y32991
X73345Y32007
X72361Y32007
X71377Y32007
X71377Y33975
X72361Y33975
X73345Y33975
X73345Y34959
X72361Y34959
X71377Y34959
X70392Y34959
X70392Y34959
X70392Y33975
X70392Y33975
X70392Y35944
X70392Y35944
X70392Y36928
X70392Y36928
X70392Y37912
X70392Y37912
X71377Y37912
X72361Y37912
X72361Y36928
X73345Y36928
X73345Y37912
X73345Y38896
X73345Y38896
X72361Y38896
X72361Y38896
X71377Y38896
X71377Y38896
X70392Y38896
X70392Y38896
X70392Y38896
X70392Y39881
X70392Y40865
X70392Y41849
X70392Y41849
X71377Y41849
X71377Y41849
X72361Y41849
X72361Y40865
X73345Y40865
X73345Y41849
X74329Y41849
X74329Y40865
X74329Y39881
X74329Y38896
X75314Y38896
X76298Y38896
X77282Y38896
X78266Y38896
X78266Y39881
X77282Y39881
X77282Y40865
X77282Y40865
X76298Y40865
X76298Y41849
X77282Y41849
X77282Y41849
X78266Y41849
X78266Y40865
X78266Y40865
X79251Y40865
X80235Y40865
X80235Y41849
X79251Y41849
X79251Y42833
X80235Y42833
X80235Y43818
X80235Y44802
X80235Y45786
X79251Y45786
X79251Y44802
X79251Y43818
X78266Y43818
X77282Y43818
X77282Y43818
X76298Y43818
X75314Y43818
X75314Y44802
X75314Y42833
X76298Y42833
X77282Y42833
X77282Y42833
X78266Y42833
X78266Y44802
X78266Y45786
X78266Y46770
X79251Y46770
X80235Y46770
X80235Y47755
X80235Y48739
X80235Y49723
X79251Y49723
X79251Y48739
X79251Y47755
X79251Y50707
X80235Y50707
X80235Y51692
X74329Y42833
X75314Y41849
X75314Y40865
X75314Y39881
X76298Y39881
X76298Y37912
X76298Y36928
X77282Y36928
X77282Y36928
X77282Y37912
X77282Y37912
X78266Y37912
X78266Y36928
X78266Y35944
X77282Y35944
X77282Y35944
X76298Y35944
X75314Y35944
X75314Y36928
X75314Y37912
X74329Y37912
X74329Y36928
X74329Y35944
X74329Y34959
X74329Y33975
X75314Y33975
X76298Y33975
X77282Y33975
X77282Y33975
X77282Y34959
X77282Y34959
X76298Y34959
X75314Y34959
X75314Y32991
X76298Y32991
X77282Y32991
X77282Y32991
X77282Y32007
X77282Y32007
X76298Y32007
X75314Y32007
X74329Y32007
X74329Y32991
X74329Y31022
X74329Y30038
X75314Y30038
X76298Y30038
X77282Y30038
X77282Y30038
X77282Y31022
X77282Y31022
X76298Y31022
X75314Y31022
X74329Y29054
X74329Y28070
X78266Y29054
X78266Y30038
X78266Y31022
X78266Y32007
X78266Y32991
X78266Y33975
X78266Y34959
X79251Y34959
X79251Y33975
X80235Y33975
X80235Y34959
X80235Y35944
X80235Y36928
X80235Y37912
X79251Y37912
X79251Y36928
X79251Y35944
X79251Y38896
X80235Y38896
X80235Y39881
X79251Y39881
X73345Y39881
X72361Y39881
X71377Y39881
X71377Y40865
X68424Y39881
X67440Y39881
X67440Y40865
X67440Y41849
X66455Y41849
X65471Y41849
X65471Y40865
X65471Y39881
X66455Y39881
X66455Y40865
X66455Y38896
X65471Y38896
X64487Y38896
X63503Y38896
X63503Y39881
X63503Y40865
X64487Y40865
X64487Y41849
X63503Y41849
X63503Y41849
X64487Y39881
X60550Y43818
X60550Y44802
X60550Y45786
X59566Y45786
X59566Y44802
X59566Y43818
X59566Y46770
X60550Y46770
X60550Y47755
X60550Y48739
X60550Y49723
X59566Y49723
X59566Y48739
X59566Y47755
X58581Y47755
X57597Y47755
X57597Y48739
X56613Y48739
X56613Y48739
X56613Y49723
X56613Y49723
X57597Y49723
X57597Y50707
X56613Y50707
X56613Y50707
X55629Y50707
X55629Y49723
X55629Y48739
X55629Y47755
X56613Y47755
X56613Y47755
X58581Y48739
X58581Y49723
X58581Y50707
X59566Y50707
X60550Y50707
X61534Y50707
X61534Y49723
X61534Y48739
X61534Y47755
X62518Y47755
X62518Y48739
X62518Y49723
X62518Y50707
X63503Y50707
X63503Y50707
X64487Y50707
X64487Y51692
X64487Y52676
X64487Y53660
X63503Y53660
X63503Y53660
X63503Y52676
X63503Y52676
X63503Y51692
X63503Y51692
X62518Y51692
X61534Y51692
X61534Y52676
X61534Y53660
X61534Y54644
X62518Y54644
X62518Y53660
X62518Y52676
X63503Y54644
X63503Y54644
X64487Y54644
X64487Y55629
X63503Y55629
X63503Y55629
X62518Y55629
X61534Y55629
X61534Y56613
X61534Y57597
X61534Y58581
X62518Y58581
X62518Y57597
X62518Y56613
X63503Y56613
X63503Y56613
X64487Y56613
X64487Y57597
X63503Y57597
X63503Y57597
X63503Y58581
X63503Y58581
X64487Y58581
X64487Y59566
X64487Y60550
X63503Y60550
X63503Y60550
X63503Y59566
X63503Y59566
X62518Y59566
X61534Y59566
X61534Y60550
X62518Y60550
X60550Y58581
X60550Y55629
X59566Y55629
X59566Y54644
X59566Y53660
X60550Y53660
X60550Y52676
X60550Y51692
X59566Y51692
X59566Y52676
X60550Y54644
X55629Y59566
X55629Y60550
X54644Y60550
X53660Y60550
X52676Y60550
X52676Y59566
X53660Y59566
X54644Y59566
X53660Y58581
X52676Y58581
X51692Y58581
X51692Y58581
X51692Y59566
X51692Y59566
X51692Y60550
X51692Y60550
X50707Y60550
X49723Y60550
X48739Y60550
X48739Y59566
X49723Y59566
X50707Y59566
X50707Y58581
X50707Y57597
X47755Y59566
X47755Y60550
X47755Y61534
X48739Y61534
X49723Y61534
X49723Y62518
X48739Y62518
X47755Y62518
X47755Y63503
X47755Y64487
X46770Y64487
X45786Y64487
X44802Y64487
X44802Y64487
X44802Y63503
X44802Y63503
X45786Y63503
X46770Y63503
X46770Y62518
X46770Y61534
X46770Y60550
X46770Y59566
X46770Y58581
X46770Y57597
X50707Y61534
X50707Y62518
X54644Y56613
X43818Y63503
X43818Y64487
X42833Y64487
X42833Y63503
X41849Y65471
X40865Y65471
X39881Y65471
X39881Y66455
X40865Y66455
X41849Y66455
X41849Y67440
X40865Y67440
X39881Y67440
X39881Y68424
X38896Y66455
X38896Y65471
X38896Y70392
X39881Y70392
X40865Y70392
X41849Y70392
X40865Y71377
X39881Y71377
X39881Y72361
X39881Y73345
X38896Y73345
X38896Y72361
X38896Y71377
X37912Y71377
X37912Y72361
X36928Y72361
X36928Y72361
X36928Y73345
X36928Y73345
X37912Y73345
X37912Y74329
X36928Y74329
X36928Y74329
X35944Y74329
X34959Y74329
X33975Y74329
X33975Y75314
X33975Y76298
X33975Y77282
X34959Y77282
X34959Y76298
X34959Y75314
X35944Y75314
X36928Y75314
X36928Y75314
X36928Y76298
X36928Y76298
X37912Y76298
X37912Y77282
X36928Y77282
X36928Y77282
X35944Y77282
X35944Y76298
X35944Y78266
X36928Y78266
X36928Y78266
X37912Y78266
X37912Y79251
X37912Y80235
X36928Y80235
X36928Y79251
X35944Y79251
X35944Y80235
X34959Y80235
X33975Y80235
X33975Y79251
X34959Y79251
X34959Y78266
X33975Y78266
X32991Y78266
X32991Y77282
X32991Y76298
X32991Y75314
X32007Y75314
X32007Y76298
X32007Y77282
X32007Y78266
X31022Y78266
X31022Y77282
X30038Y77282
X30038Y77282
X30038Y76298
X30038Y76298
X30038Y75314
X30038Y75314
X31022Y75314
X31022Y76298
X31022Y74329
X30038Y74329
X30038Y74329
X30038Y73345
X30038Y73345
X30038Y72361
X30038Y72361
X30038Y71377
X30038Y71377
X31022Y71377
X31022Y72361
X31022Y73345
X32007Y73345
X32991Y73345
X32991Y72361
X32991Y71377
X32007Y71377
X32007Y72361
X32007Y70392
X32991Y70392
X33975Y70392
X34959Y70392
X35944Y70392
X36928Y70392
X36928Y70392
X37912Y70392
X36928Y71377
X36928Y71377
X35944Y71377
X35944Y72361
X35944Y73345
X34959Y73345
X33975Y73345
X33975Y72361
X33975Y71377
X34959Y71377
X34959Y72361
X32991Y74329
X32007Y74329
X29054Y74329
X28070Y74329
X27085Y74329
X26101Y74329
X25117Y74329
X25117Y75314
X25117Y76298
X26101Y76298
X26101Y77282
X25117Y77282
X25117Y78266
X26101Y78266
X27085Y78266
X27085Y77282
X27085Y76298
X27085Y75314
X26101Y75314
X28070Y75314
X29054Y75314
X29054Y76298
X29054Y77282
X28070Y77282
X28070Y76298
X28070Y78266
X29054Y78266
X30038Y78266
X30038Y78266
X30038Y79251
X30038Y79251
X30038Y79251
X30038Y80235
X31022Y80235
X31022Y79251
X31022Y79251
X32007Y79251
X32007Y79251
X32991Y79251
X32991Y79251
X32991Y80235
X32007Y80235
X29054Y80235
X29054Y79251
X29054Y79251
X28070Y79251
X28070Y79251
X28070Y80235
X27085Y80235
X26101Y80235
X25117Y80235
X25117Y79251
X26101Y79251
X27085Y79251
X27085Y79251
X24133Y79251
X24133Y80235
X23148Y80235
X22164Y80235
X21180Y80235
X21180Y79251
X22164Y79251
X23148Y79251
X23148Y78266
X23148Y78266
X23148Y77282
X23148Y77282
X22164Y77282
X22164Y76298
X21180Y76298
X21180Y77282
X20196Y77282
X20196Y76298
X20196Y75314
X21180Y75314
X22164Y75314
X23148Y75314
X23148Y75314
X23148Y76298
X23148Y76298
X24133Y76298
X24133Y77282
X24133Y78266
X22164Y78266
X21180Y78266
X20196Y78266
X19211Y78266
X19211Y77282
X18227Y77282
X18227Y76298
X17243Y76298
X17243Y77282
X16259Y77282
X16259Y77282
X16259Y76298
X16259Y76298
X16259Y75314
X16259Y75314
X17243Y75314
X18227Y75314
X19211Y75314
X19211Y76298
X19211Y74329
X18227Y74329
X17243Y74329
X16259Y74329
X16259Y74329
X16259Y73345
X16259Y73345
X17243Y73345
X17243Y72361
X18227Y72361
X18227Y73345
X19211Y73345
X19211Y72361
X19211Y71377
X18227Y71377
X17243Y71377
X16259Y71377
X16259Y71377
X16259Y72361
X16259Y72361
X15274Y72361
X14290Y72361
X13306Y72361
X13306Y73345
X14290Y73345
X15274Y73345
X15274Y74329
X14290Y74329
X13306Y74329
X12322Y74329
X12322Y75314
X13306Y75314
X13306Y76298
X14290Y76298
X14290Y77282
X13306Y77282
X12322Y77282
X12322Y76298
X11337Y76298
X11337Y76298
X11337Y77282
X11337Y77282
X11337Y78266
X11337Y78266
X12322Y78266
X13306Y78266
X14290Y78266
X15274Y78266
X15274Y77282
X15274Y76298
X15274Y75314
X14290Y75314
X12322Y73345
X12322Y72361
X12322Y71377
X13306Y71377
X14290Y71377
X15274Y71377
X15274Y70392
X14290Y70392
X13306Y70392
X12322Y70392
X11337Y70392
X11337Y70392
X11337Y71377
X11337Y71377
X11337Y72361
X11337Y72361
X11337Y73345
X11337Y73345
X10353Y73345
X10353Y72361
X9369Y72361
X9369Y73345
X8385Y73345
X8385Y72361
X8385Y71377
X9369Y71377
X10353Y71377
X10353Y70392
X9369Y70392
X8385Y70392
X7400Y70392
X7400Y71377
X7400Y72361
X7400Y73345
X6416Y73345
X6416Y72361
X5432Y72361
X5432Y73345
X4448Y73345
X4448Y73345
X4448Y72361
X4448Y72361
X4448Y71377
X4448Y71377
X5432Y71377
X6416Y71377
X6416Y70392
X5432Y70392
X4448Y70392
X4448Y70392
X3463Y70392
X2479Y70392
X2479Y71377
X2479Y72361
X2479Y73345
X3463Y73345
X3463Y72361
X3463Y71377
X1495Y71377
X1495Y72361
X1495Y73345
X511Y73345
X511Y72361
X511Y71377
X511Y70392
X1495Y70392
X1495Y69408
X1495Y68424
X1495Y67440
X511Y67440
X511Y68424
X511Y69408
X2479Y69408
X2479Y68424
X3463Y68424
X3463Y69408
X4448Y69408
X4448Y69408
X5432Y69408
X5432Y68424
X6416Y68424
X6416Y69408
X7400Y69408
X7400Y68424
X7400Y67440
X7400Y66455
X7400Y65471
X8385Y65471
X9369Y65471
X10353Y65471
X10353Y66455
X9369Y66455
X8385Y66455
X8385Y67440
X9369Y67440
X9369Y68424
X10353Y68424
X10353Y69408
X9369Y69408
X8385Y69408
X8385Y68424
X10353Y67440
X11337Y67440
X11337Y67440
X11337Y68424
X11337Y68424
X11337Y69408
X11337Y69408
X12322Y69408
X13306Y69408
X13306Y68424
X14290Y68424
X14290Y69408
X15274Y69408
X15274Y68424
X15274Y67440
X14290Y67440
X13306Y67440
X12322Y67440
X12322Y68424
X12322Y66455
X12322Y65471
X13306Y65471
X14290Y65471
X15274Y65471
X15274Y66455
X14290Y66455
X13306Y66455
X11337Y66455
X11337Y66455
X11337Y65471
X11337Y65471
X11337Y64487
X11337Y64487
X11337Y63503
X11337Y63503
X11337Y62518
X11337Y62518
X11337Y61534
X11337Y61534
X12322Y61534
X13306Y61534
X14290Y61534
X15274Y61534
X15274Y62518
X14290Y62518
X13306Y62518
X12322Y62518
X12322Y63503
X13306Y63503
X13306Y64487
X14290Y64487
X14290Y63503
X15274Y63503
X15274Y64487
X16259Y64487
X16259Y64487
X17243Y64487
X18227Y64487
X18227Y63503
X17243Y63503
X16259Y63503
X16259Y63503
X16259Y62518
X16259Y62518
X16259Y61534
X16259Y61534
X17243Y61534
X18227Y61534
X19211Y61534
X19211Y62518
X18227Y62518
X17243Y62518
X19211Y63503
X19211Y64487
X19211Y65471
X18227Y65471
X17243Y65471
X16259Y65471
X16259Y65471
X16259Y66455
X16259Y66455
X17243Y66455
X18227Y66455
X19211Y66455
X19211Y67440
X18227Y67440
X18227Y68424
X18227Y69408
X17243Y69408
X17243Y68424
X17243Y67440
X16259Y67440
X16259Y67440
X16259Y68424
X16259Y68424
X16259Y69408
X16259Y69408
X16259Y70392
X16259Y70392
X17243Y70392
X18227Y70392
X19211Y70392
X19211Y69408
X19211Y68424
X20196Y68424
X21180Y68424
X22164Y68424
X22164Y69408
X21180Y69408
X20196Y69408
X20196Y70392
X21180Y70392
X22164Y70392
X23148Y70392
X23148Y70392
X24133Y70392
X24133Y71377
X24133Y72361
X24133Y73345
X23148Y73345
X23148Y73345
X22164Y73345
X22164Y72361
X21180Y72361
X21180Y73345
X20196Y73345
X20196Y72361
X20196Y71377
X21180Y71377
X22164Y71377
X23148Y71377
X23148Y71377
X23148Y72361
X23148Y72361
X23148Y74329
X23148Y74329
X22164Y74329
X21180Y74329
X20196Y74329
X24133Y74329
X24133Y75314
X25117Y73345
X25117Y72361
X26101Y72361
X26101Y73345
X27085Y73345
X27085Y72361
X27085Y71377
X26101Y71377
X25117Y71377
X25117Y70392
X26101Y70392
X27085Y70392
X28070Y70392
X29054Y70392
X29054Y71377
X29054Y72361
X29054Y73345
X28070Y73345
X28070Y72361
X28070Y71377
X28070Y69408
X29054Y69408
X29054Y68424
X29054Y67440
X28070Y67440
X28070Y68424
X27085Y68424
X26101Y68424
X25117Y68424
X25117Y69408
X26101Y69408
X27085Y69408
X27085Y67440
X26101Y67440
X25117Y67440
X25117Y66455
X25117Y65471
X26101Y65471
X27085Y65471
X27085Y66455
X26101Y66455
X28070Y66455
X28070Y65471
X29054Y65471
X29054Y66455
X29054Y64487
X29054Y63503
X28070Y63503
X28070Y64487
X27085Y64487
X26101Y64487
X25117Y64487
X25117Y63503
X26101Y63503
X27085Y63503
X27085Y62518
X27085Y61534
X26101Y61534
X25117Y61534
X25117Y62518
X26101Y62518
X28070Y62518
X28070Y61534
X29054Y61534
X29054Y62518
X29054Y60550
X29054Y59566
X28070Y59566
X28070Y60550
X27085Y60550
X26101Y60550
X25117Y60550
X25117Y59566
X26101Y59566
X27085Y59566
X27085Y58581
X27085Y57597
X26101Y57597
X26101Y56613
X25117Y56613
X25117Y57597
X25117Y58581
X26101Y58581
X28070Y58581
X28070Y57597
X29054Y57597
X29054Y56613
X28070Y56613
X27085Y56613
X27085Y55629
X26101Y55629
X25117Y55629
X25117Y54644
X25117Y53660
X25117Y52676
X26101Y52676
X26101Y53660
X27085Y53660
X27085Y52676
X27085Y51692
X26101Y51692
X25117Y51692
X24133Y51692
X24133Y52676
X24133Y53660
X24133Y54644
X24133Y55629
X23148Y55629
X23148Y55629
X22164Y55629
X21180Y55629
X20196Y55629
X20196Y54644
X20196Y53660
X21180Y53660
X21180Y52676
X22164Y52676
X22164Y53660
X23148Y53660
X23148Y53660
X23148Y52676
X23148Y52676
X23148Y51692
X23148Y51692
X22164Y51692
X21180Y51692
X20196Y51692
X20196Y52676
X19211Y52676
X18227Y52676
X18227Y53660
X17243Y53660
X17243Y52676
X17243Y51692
X18227Y51692
X19211Y51692
X19211Y50707
X19211Y49723
X18227Y49723
X18227Y48739
X17243Y48739
X17243Y49723
X17243Y50707
X18227Y50707
X16259Y50707
X16259Y50707
X16259Y49723
X16259Y49723
X16259Y48739
X16259Y48739
X16259Y47755
X16259Y47755
X17243Y47755
X18227Y47755
X19211Y47755
X19211Y48739
X20196Y48739
X21180Y48739
X22164Y48739
X22164Y49723
X21180Y49723
X21180Y50707
X22164Y50707
X23148Y50707
X23148Y50707
X23148Y49723
X23148Y49723
X23148Y48739
X23148Y48739
X23148Y47755
X23148Y47755
X22164Y47755
X21180Y47755
X20196Y47755
X20196Y46770
X20196Y45786
X20196Y44802
X19211Y44802
X18227Y44802
X18227Y45786
X17243Y45786
X17243Y44802
X17243Y43818
X18227Y43818
X19211Y43818
X19211Y42833
X18227Y42833
X17243Y42833
X16259Y42833
X16259Y42833
X16259Y43818
X16259Y43818
X16259Y44802
X16259Y44802
X16259Y45786
X16259Y45786
X16259Y46770
X16259Y46770
X17243Y46770
X18227Y46770
X19211Y46770
X19211Y45786
X15274Y45786
X14290Y45786
X14290Y44802
X13306Y44802
X13306Y45786
X13306Y46770
X14290Y46770
X15274Y46770
X15274Y47755
X15274Y48739
X14290Y48739
X14290Y49723
X13306Y49723
X13306Y48739
X13306Y47755
X14290Y47755
X12322Y47755
X12322Y48739
X12322Y49723
X12322Y50707
X13306Y50707
X14290Y50707
X15274Y50707
X15274Y49723
X15274Y51692
X15274Y52676
X14290Y52676
X14290Y53660
X13306Y53660
X13306Y52676
X13306Y51692
X14290Y51692
X12322Y51692
X12322Y52676
X12322Y53660
X12322Y54644
X13306Y54644
X14290Y54644
X15274Y54644
X15274Y53660
X16259Y53660
X16259Y53660
X16259Y52676
X16259Y52676
X16259Y51692
X16259Y51692
X16259Y54644
X16259Y54644
X17243Y54644
X18227Y54644
X19211Y54644
X19211Y53660
X19211Y55629
X18227Y55629
X17243Y55629
X16259Y55629
X16259Y55629
X16259Y56613
X16259Y56613
X17243Y56613
X18227Y56613
X18227Y57597
X17243Y57597
X17243Y58581
X18227Y58581
X19211Y58581
X19211Y57597
X19211Y56613
X20196Y56613
X21180Y56613
X22164Y56613
X22164Y57597
X21180Y57597
X21180Y58581
X22164Y58581
X23148Y58581
X23148Y58581
X23148Y57597
X23148Y57597
X23148Y56613
X23148Y56613
X24133Y56613
X24133Y57597
X24133Y58581
X24133Y59566
X24133Y60550
X23148Y60550
X23148Y60550
X22164Y60550
X21180Y60550
X21180Y59566
X22164Y59566
X23148Y59566
X23148Y59566
X23148Y61534
X23148Y61534
X22164Y61534
X21180Y61534
X21180Y62518
X22164Y62518
X23148Y62518
X23148Y62518
X24133Y62518
X24133Y61534
X24133Y63503
X24133Y64487
X23148Y64487
X23148Y64487
X22164Y64487
X21180Y64487
X21180Y63503
X22164Y63503
X23148Y63503
X23148Y63503
X23148Y65471
X23148Y65471
X22164Y65471
X21180Y65471
X20196Y65471
X20196Y66455
X21180Y66455
X22164Y66455
X23148Y66455
X23148Y66455
X24133Y66455
X24133Y65471
X24133Y67440
X24133Y68424
X24133Y69408
X23148Y69408
X23148Y69408
X23148Y68424
X23148Y68424
X23148Y67440
X23148Y67440
X22164Y67440
X21180Y67440
X20196Y67440
X20196Y64487
X20196Y63503
X20196Y62518
X20196Y61534
X20196Y60550
X20196Y59566
X20196Y58581
X20196Y57597
X19211Y59566
X18227Y59566
X18227Y60550
X17243Y60550
X17243Y59566
X16259Y59566
X16259Y59566
X16259Y60550
X16259Y60550
X15274Y60550
X14290Y60550
X13306Y60550
X13306Y59566
X14290Y59566
X15274Y59566
X15274Y58581
X15274Y57597
X14290Y57597
X14290Y56613
X13306Y56613
X13306Y57597
X13306Y58581
X14290Y58581
X12322Y58581
X12322Y57597
X12322Y56613
X11337Y56613
X11337Y56613
X11337Y57597
X11337Y57597
X11337Y58581
X11337Y58581
X11337Y59566
X11337Y59566
X11337Y60550
X11337Y60550
X12322Y60550
X12322Y59566
X10353Y59566
X10353Y60550
X9369Y60550
X9369Y59566
X8385Y59566
X8385Y60550
X7400Y60550
X7400Y59566
X7400Y58581
X7400Y57597
X7400Y56613
X8385Y56613
X9369Y56613
X10353Y56613
X10353Y57597
X9369Y57597
X9369Y58581
X10353Y58581
X8385Y58581
X8385Y57597
X8385Y55629
X9369Y55629
X10353Y55629
X10353Y54644
X10353Y53660
X10353Y52676
X9369Y52676
X9369Y53660
X9369Y54644
X8385Y54644
X8385Y53660
X8385Y52676
X8385Y51692
X9369Y51692
X10353Y51692
X11337Y51692
X11337Y51692
X11337Y52676
X11337Y52676
X11337Y53660
X11337Y53660
X11337Y54644
X11337Y54644
X11337Y55629
X11337Y55629
X12322Y55629
X13306Y55629
X14290Y55629
X15274Y55629
X15274Y56613
X16259Y57597
X16259Y57597
X16259Y58581
X16259Y58581
X19211Y60550
X21180Y54644
X22164Y54644
X23148Y54644
X23148Y54644
X26101Y54644
X27085Y54644
X28070Y54644
X28070Y53660
X29054Y53660
X29054Y52676
X29054Y51692
X28070Y51692
X28070Y52676
X29054Y54644
X29054Y55629
X28070Y55629
X30038Y55629
X30038Y55629
X31022Y55629
X31022Y54644
X31022Y53660
X30038Y53660
X30038Y53660
X30038Y52676
X30038Y52676
X30038Y51692
X30038Y51692
X31022Y51692
X31022Y52676
X32007Y52676
X32991Y52676
X32991Y53660
X32007Y53660
X32007Y54644
X32991Y54644
X32991Y55629
X32007Y55629
X32007Y56613
X32991Y56613
X32991Y57597
X32007Y57597
X32007Y58581
X32991Y58581
X32991Y59566
X32991Y60550
X32007Y60550
X32007Y59566
X31022Y59566
X30038Y59566
X30038Y59566
X30038Y60550
X30038Y60550
X31022Y60550
X31022Y58581
X31022Y57597
X30038Y57597
X30038Y57597
X30038Y56613
X30038Y56613
X31022Y56613
X30038Y58581
X30038Y58581
X29054Y58581
X30038Y54644
X30038Y54644
X32007Y51692
X32991Y51692
X33975Y51692
X33975Y50707
X33975Y49723
X33975Y48739
X33975Y47755
X34959Y47755
X34959Y48739
X34959Y49723
X34959Y50707
X32991Y50707
X32991Y49723
X32991Y48739
X32991Y47755
X32007Y47755
X32007Y48739
X32007Y49723
X32007Y50707
X31022Y50707
X31022Y49723
X30038Y49723
X30038Y49723
X30038Y48739
X30038Y48739
X30038Y47755
X30038Y47755
X31022Y47755
X31022Y48739
X30038Y50707
X30038Y50707
X29054Y50707
X29054Y49723
X29054Y48739
X29054Y47755
X28070Y47755
X28070Y48739
X28070Y49723
X28070Y50707
X27085Y50707
X27085Y49723
X26101Y49723
X26101Y48739
X25117Y48739
X25117Y49723
X25117Y50707
X26101Y50707
X27085Y48739
X27085Y47755
X26101Y47755
X25117Y47755
X24133Y47755
X24133Y48739
X24133Y49723
X24133Y50707
X20196Y50707
X20196Y49723
X26101Y46770
X27085Y46770
X30038Y46770
X30038Y46770
X31022Y46770
X32007Y46770
X32991Y46770
X33975Y46770
X34959Y46770
X35944Y46770
X36928Y46770
X36928Y46770
X38896Y51692
X38896Y52676
X38896Y53660
X38896Y54644
X38896Y55629
X35944Y60550
X31022Y70392
X30038Y70392
X30038Y70392
X37912Y75314
X39881Y75314
X40865Y75314
X41849Y75314
X39881Y76298
X39881Y79251
X39881Y80235
X38896Y80235
X38896Y79251
X20196Y79251
X20196Y80235
X19211Y80235
X18227Y80235
X17243Y80235
X17243Y79251
X18227Y79251
X19211Y79251
X18227Y78266
X17243Y78266
X16259Y78266
X16259Y78266
X16259Y79251
X16259Y80235
X15274Y80235
X14290Y80235
X13306Y80235
X13306Y79251
X14290Y79251
X15274Y79251
X12322Y79251
X12322Y80235
X11337Y80235
X11337Y79251
X10353Y79251
X10353Y80235
X9369Y80235
X9369Y79251
X8385Y79251
X8385Y80235
X7400Y80235
X7400Y79251
X6416Y79251
X6416Y80235
X5432Y80235
X5432Y79251
X4448Y79251
X4448Y80235
X3463Y80235
X2479Y80235
X2479Y79251
X3463Y79251
X3463Y78266
X3463Y77282
X2479Y77282
X2479Y76298
X2479Y75314
X3463Y75314
X3463Y76298
X4448Y76298
X4448Y76298
X5432Y76298
X6416Y76298
X6416Y77282
X5432Y77282
X5432Y78266
X6416Y78266
X7400Y78266
X7400Y77282
X7400Y76298
X7400Y75314
X7400Y74329
X8385Y74329
X9369Y74329
X10353Y74329
X10353Y75314
X10353Y76298
X9369Y76298
X9369Y77282
X10353Y77282
X10353Y78266
X9369Y78266
X8385Y78266
X8385Y77282
X8385Y76298
X8385Y75314
X9369Y75314
X11337Y75314
X11337Y75314
X11337Y74329
X11337Y74329
X6416Y74329
X5432Y74329
X4448Y74329
X4448Y74329
X4448Y75314
X4448Y75314
X5432Y75314
X6416Y75314
X4448Y77282
X4448Y77282
X4448Y78266
X4448Y78266
X2479Y78266
X1495Y78266
X1495Y77282
X1495Y76298
X1495Y75314
X511Y75314
X511Y76298
X511Y77282
X511Y78266
X511Y79251
X1495Y79251
X1495Y80235
X511Y80235
X511Y74329
X1495Y74329
X2479Y74329
X3463Y74329
X4448Y68424
X4448Y68424
X4448Y67440
X4448Y67440
X5432Y67440
X6416Y67440
X6416Y66455
X6416Y65471
X5432Y65471
X5432Y66455
X4448Y66455
X4448Y66455
X4448Y65471
X4448Y65471
X3463Y65471
X2479Y65471
X2479Y66455
X3463Y66455
X3463Y67440
X2479Y67440
X1495Y66455
X1495Y65471
X511Y65471
X511Y66455
X511Y64487
X1495Y64487
X1495Y63503
X511Y63503
X511Y62518
X511Y61534
X1495Y61534
X1495Y62518
X2479Y62518
X2479Y61534
X3463Y61534
X3463Y62518
X4448Y62518
X4448Y62518
X4448Y61534
X4448Y61534
X5432Y61534
X6416Y61534
X6416Y62518
X5432Y62518
X5432Y63503
X5432Y64487
X6416Y64487
X6416Y63503
X7400Y63503
X7400Y64487
X8385Y64487
X9369Y64487
X10353Y64487
X10353Y63503
X9369Y63503
X8385Y63503
X8385Y62518
X8385Y61534
X9369Y61534
X10353Y61534
X10353Y62518
X9369Y62518
X7400Y62518
X7400Y61534
X6416Y60550
X5432Y60550
X5432Y59566
X6416Y59566
X6416Y58581
X6416Y57597
X6416Y56613
X5432Y56613
X5432Y57597
X5432Y58581
X4448Y58581
X4448Y58581
X4448Y57597
X4448Y57597
X4448Y56613
X4448Y56613
X3463Y56613
X2479Y56613
X2479Y57597
X3463Y57597
X3463Y58581
X2479Y58581
X2479Y59566
X2479Y60550
X3463Y60550
X3463Y59566
X4448Y59566
X4448Y59566
X4448Y60550
X4448Y60550
X4448Y63503
X4448Y63503
X4448Y64487
X4448Y64487
X3463Y64487
X2479Y64487
X2479Y63503
X3463Y63503
X1495Y60550
X1495Y59566
X511Y59566
X511Y60550
X511Y58581
X511Y57597
X1495Y57597
X1495Y56613
X511Y56613
X511Y55629
X1495Y55629
X1495Y54644
X1495Y53660
X1495Y52676
X1495Y51692
X511Y51692
X511Y52676
X511Y53660
X511Y54644
X2479Y54644
X2479Y53660
X2479Y52676
X3463Y52676
X3463Y53660
X3463Y54644
X4448Y54644
X4448Y54644
X5432Y54644
X5432Y53660
X6416Y53660
X6416Y52676
X5432Y52676
X5432Y51692
X6416Y51692
X7400Y51692
X7400Y52676
X7400Y53660
X7400Y54644
X7400Y55629
X6416Y55629
X5432Y55629
X4448Y55629
X4448Y55629
X3463Y55629
X2479Y55629
X4448Y53660
X4448Y53660
X4448Y52676
X4448Y52676
X4448Y51692
X4448Y51692
X3463Y51692
X2479Y51692
X2479Y50707
X2479Y49723
X2479Y48739
X3463Y48739
X3463Y49723
X3463Y50707
X4448Y50707
X4448Y50707
X5432Y50707
X5432Y49723
X6416Y49723
X6416Y48739
X5432Y48739
X5432Y47755
X6416Y47755
X7400Y47755
X7400Y48739
X7400Y49723
X7400Y50707
X8385Y50707
X9369Y50707
X9369Y49723
X10353Y49723
X10353Y48739
X9369Y48739
X9369Y47755
X10353Y47755
X11337Y47755
X11337Y47755
X11337Y48739
X11337Y48739
X11337Y49723
X11337Y49723
X11337Y50707
X11337Y50707
X10353Y50707
X8385Y49723
X8385Y48739
X8385Y47755
X8385Y46770
X9369Y46770
X9369Y45786
X10353Y45786
X10353Y44802
X9369Y44802
X9369Y43818
X10353Y43818
X10353Y42833
X9369Y42833
X8385Y42833
X8385Y43818
X8385Y44802
X8385Y45786
X7400Y45786
X7400Y44802
X7400Y43818
X7400Y42833
X7400Y41849
X7400Y40865
X7400Y39881
X8385Y39881
X9369Y39881
X9369Y40865
X10353Y40865
X10353Y41849
X9369Y41849
X8385Y41849
X8385Y40865
X8385Y38896
X9369Y38896
X10353Y38896
X10353Y39881
X11337Y39881
X11337Y40865
X11337Y41849
X11337Y41849
X12322Y41849
X13306Y41849
X14290Y41849
X14290Y40865
X13306Y40865
X13306Y39881
X14290Y39881
X15274Y39881
X15274Y40865
X15274Y41849
X15274Y42833
X14290Y42833
X13306Y42833
X12322Y42833
X12322Y43818
X13306Y43818
X14290Y43818
X15274Y43818
X15274Y44802
X12322Y44802
X12322Y45786
X12322Y46770
X11337Y46770
X11337Y46770
X11337Y45786
X11337Y45786
X11337Y44802
X11337Y44802
X11337Y43818
X11337Y43818
X11337Y42833
X11337Y42833
X12322Y40865
X12322Y39881
X12322Y38896
X13306Y38896
X14290Y38896
X15274Y38896
X15274Y37912
X16259Y38896
X17243Y38896
X18227Y38896
X19211Y38896
X19211Y39881
X19211Y40865
X18227Y40865
X18227Y41849
X17243Y41849
X17243Y41849
X17243Y40865
X17243Y39881
X18227Y39881
X16259Y39881
X16259Y40865
X16259Y41849
X16259Y41849
X19211Y41849
X19211Y37912
X19211Y36928
X19211Y35944
X18227Y35944
X21180Y35944
X22164Y35944
X23148Y35944
X23148Y35944
X23148Y36928
X23148Y36928
X23148Y37912
X23148Y37912
X24133Y37912
X24133Y36928
X24133Y35944
X28070Y38896
X28070Y38896
X29054Y38896
X29054Y38896
X32007Y38896
X32007Y38896
X32991Y38896
X32991Y38896
X27085Y31022
X27085Y30038
X23148Y29054
X23148Y29054
X22164Y29054
X21180Y29054
X21180Y28070
X22164Y28070
X23148Y28070
X23148Y28070
X20196Y28070
X20196Y29054
X20196Y30038
X20196Y31022
X16259Y27085
X16259Y27085
X16259Y26101
X16259Y26101
X16259Y25117
X16259Y25117
X16259Y24133
X16259Y24133
X17243Y24133
X18227Y24133
X19211Y24133
X19211Y23148
X19211Y22164
X18227Y22164
X18227Y21180
X17243Y21180
X17243Y22164
X17243Y23148
X18227Y23148
X16259Y23148
X16259Y23148
X16259Y22164
X16259Y22164
X16259Y21180
X16259Y21180
X16259Y20196
X16259Y20196
X17243Y20196
X18227Y20196
X19211Y20196
X19211Y21180
X19211Y19211
X19211Y18227
X18227Y18227
X18227Y17243
X17243Y17243
X17243Y18227
X17243Y19211
X18227Y19211
X16259Y19211
X16259Y19211
X16259Y18227
X16259Y18227
X16259Y17243
X16259Y17243
X16259Y16259
X16259Y16259
X17243Y16259
X18227Y16259
X19211Y16259
X19211Y17243
X20196Y17243
X20196Y18227
X20196Y19211
X20196Y16259
X21180Y16259
X22164Y16259
X23148Y16259
X23148Y16259
X23148Y17243
X23148Y17243
X25117Y23148
X26101Y23148
X27085Y23148
X27085Y24133
X26101Y24133
X25117Y24133
X30038Y20196
X30038Y20196
X32007Y24133
X32991Y24133
X33975Y24133
X34959Y24133
X33975Y23148
X35944Y19211
X36928Y19211
X36928Y19211
X37912Y19211
X38896Y19211
X38896Y18227
X38896Y17243
X38896Y16259
X39881Y16259
X39881Y17243
X40865Y17243
X40865Y18227
X41849Y18227
X41849Y17243
X41849Y16259
X40865Y16259
X39881Y18227
X39881Y19211
X40865Y19211
X41849Y19211
X41849Y20196
X41849Y21180
X41849Y22164
X40865Y22164
X40865Y21180
X39881Y21180
X39881Y22164
X39881Y23148
X40865Y23148
X41849Y23148
X41849Y24133
X40865Y24133
X39881Y24133
X38896Y24133
X38896Y23148
X38896Y22164
X38896Y21180
X38896Y20196
X39881Y20196
X40865Y20196
X35944Y18227
X37912Y15274
X39881Y14290
X38896Y11337
X42833Y6416
X42833Y5432
X42833Y4448
X42833Y3463
X42833Y2479
X44802Y4448
X44802Y4448
X45786Y4448
X46770Y4448
X46770Y3463
X46770Y2479
X47755Y2479
X48739Y2479
X49723Y2479
X49723Y3463
X48739Y3463
X47755Y3463
X47755Y4448
X47755Y5432
X48739Y5432
X48739Y6416
X49723Y6416
X49723Y5432
X50707Y5432
X50707Y6416
X50707Y7400
X49723Y7400
X48739Y7400
X47755Y7400
X48739Y8385
X49723Y8385
X50707Y8385
X51692Y8385
X51692Y8385
X51692Y9369
X51692Y9369
X52676Y9369
X52676Y10353
X53660Y10353
X53660Y9369
X54644Y9369
X54644Y10353
X55629Y10353
X55629Y9369
X55629Y8385
X54644Y8385
X53660Y8385
X52676Y8385
X52676Y7400
X53660Y7400
X54644Y7400
X55629Y7400
X56613Y7400
X56613Y7400
X57597Y7400
X58581Y7400
X58581Y8385
X58581Y9369
X57597Y9369
X57597Y10353
X56613Y10353
X56613Y10353
X56613Y9369
X56613Y9369
X56613Y8385
X56613Y8385
X57597Y8385
X59566Y8385
X59566Y9369
X60550Y9369
X60550Y10353
X59566Y10353
X58581Y10353
X58581Y11337
X57597Y11337
X56613Y11337
X56613Y11337
X56613Y12322
X56613Y12322
X56613Y13306
X56613Y13306
X56613Y14290
X56613Y14290
X57597Y14290
X57597Y13306
X57597Y12322
X58581Y12322
X58581Y13306
X58581Y14290
X58581Y15274
X57597Y15274
X56613Y15274
X56613Y15274
X55629Y15274
X55629Y14290
X55629Y13306
X55629Y12322
X54644Y12322
X54644Y13306
X53660Y13306
X53660Y14290
X52676Y14290
X52676Y13306
X51692Y13306
X51692Y13306
X51692Y14290
X51692Y14290
X51692Y15274
X51692Y15274
X52676Y15274
X53660Y15274
X54644Y15274
X54644Y14290
X53660Y12322
X52676Y12322
X51692Y12322
X51692Y12322
X51692Y11337
X51692Y11337
X52676Y11337
X53660Y11337
X54644Y11337
X55629Y11337
X51692Y10353
X51692Y10353
X51692Y7400
X51692Y7400
X51692Y6416
X51692Y6416
X52676Y6416
X52676Y5432
X53660Y5432
X53660Y6416
X54644Y6416
X54644Y5432
X54644Y4448
X53660Y4448
X52676Y4448
X51692Y4448
X51692Y4448
X51692Y5432
X51692Y5432
X50707Y4448
X49723Y4448
X48739Y4448
X47755Y6416
X50707Y3463
X50707Y2479
X50707Y1495
X49723Y1495
X48739Y1495
X47755Y1495
X47755Y511
X48739Y511
X49723Y511
X50707Y511
X51692Y511
X51692Y1495
X51692Y1495
X52676Y1495
X53660Y1495
X54644Y1495
X54644Y511
X53660Y511
X52676Y511
X52676Y2479
X53660Y2479
X53660Y3463
X52676Y3463
X51692Y3463
X51692Y3463
X51692Y2479
X51692Y2479
X54644Y2479
X54644Y3463
X55629Y3463
X55629Y2479
X56613Y2479
X56613Y2479
X57597Y2479
X57597Y3463
X56613Y3463
X56613Y3463
X56613Y4448
X56613Y4448
X56613Y5432
X56613Y5432
X56613Y6416
X56613Y6416
X57597Y6416
X57597Y5432
X58581Y5432
X58581Y6416
X59566Y6416
X60550Y6416
X60550Y5432
X59566Y5432
X59566Y4448
X60550Y4448
X60550Y3463
X60550Y2479
X59566Y2479
X59566Y3463
X58581Y3463
X58581Y2479
X58581Y1495
X57597Y1495
X57597Y1495
X56613Y1495
X56613Y1495
X56613Y511
X57597Y511
X58581Y511
X59566Y511
X59566Y1495
X60550Y1495
X60550Y511
X61534Y511
X61534Y1495
X62518Y1495
X62518Y511
X63503Y511
X63503Y1495
X63503Y1495
X64487Y1495
X64487Y511
X65471Y511
X65471Y1495
X66455Y1495
X66455Y511
X67440Y511
X67440Y1495
X68424Y1495
X69408Y1495
X69408Y511
X68424Y511
X68424Y2479
X69408Y2479
X69408Y3463
X68424Y3463
X67440Y3463
X67440Y2479
X66455Y2479
X65471Y2479
X65471Y3463
X66455Y3463
X66455Y4448
X66455Y5432
X65471Y5432
X65471Y6416
X66455Y6416
X67440Y6416
X68424Y6416
X68424Y5432
X69408Y5432
X69408Y6416
X69408Y7400
X68424Y7400
X67440Y7400
X67440Y8385
X67440Y9369
X68424Y9369
X68424Y10353
X69408Y10353
X69408Y9369
X69408Y8385
X68424Y8385
X66455Y8385
X66455Y9369
X65471Y9369
X65471Y10353
X66455Y10353
X67440Y10353
X67440Y11337
X68424Y11337
X69408Y11337
X69408Y12322
X68424Y12322
X67440Y12322
X67440Y13306
X67440Y14290
X67440Y15274
X66455Y15274
X65471Y15274
X65471Y14290
X65471Y13306
X65471Y12322
X66455Y12322
X66455Y13306
X66455Y14290
X64487Y14290
X64487Y13306
X63503Y13306
X63503Y13306
X63503Y14290
X63503Y14290
X63503Y15274
X63503Y15274
X64487Y15274
X62518Y15274
X61534Y15274
X61534Y14290
X61534Y13306
X61534Y12322
X62518Y12322
X62518Y13306
X62518Y14290
X63503Y12322
X63503Y12322
X64487Y12322
X64487Y11337
X63503Y11337
X63503Y11337
X62518Y11337
X61534Y11337
X61534Y10353
X61534Y9369
X62518Y9369
X62518Y10353
X63503Y10353
X63503Y10353
X64487Y10353
X64487Y9369
X63503Y9369
X63503Y9369
X63503Y8385
X63503Y8385
X64487Y8385
X64487Y7400
X63503Y7400
X63503Y7400
X62518Y7400
X61534Y7400
X61534Y8385
X62518Y8385
X60550Y8385
X60550Y7400
X59566Y7400
X61534Y6416
X61534Y5432
X62518Y5432
X62518Y6416
X63503Y6416
X63503Y6416
X64487Y6416
X64487Y5432
X63503Y5432
X63503Y5432
X63503Y4448
X63503Y4448
X64487Y4448
X64487Y3463
X64487Y2479
X63503Y2479
X63503Y2479
X63503Y3463
X63503Y3463
X62518Y3463
X61534Y3463
X61534Y2479
X62518Y2479
X62518Y4448
X61534Y4448
X58581Y4448
X57597Y4448
X55629Y4448
X55629Y5432
X55629Y6416
X55629Y1495
X55629Y511
X47755Y10353
X43818Y6416
X51692Y16259
X51692Y16259
X51692Y17243
X51692Y17243
X52676Y17243
X52676Y18227
X53660Y18227
X53660Y17243
X53660Y16259
X52676Y16259
X54644Y16259
X54644Y17243
X54644Y18227
X54644Y19211
X53660Y19211
X52676Y19211
X51692Y19211
X51692Y19211
X51692Y18227
X51692Y18227
X51692Y20196
X51692Y20196
X51692Y21180
X51692Y21180
X52676Y21180
X52676Y22164
X53660Y22164
X53660Y21180
X53660Y20196
X52676Y20196
X54644Y20196
X54644Y21180
X54644Y22164
X54644Y23148
X53660Y23148
X52676Y23148
X51692Y23148
X51692Y23148
X51692Y22164
X51692Y22164
X51692Y24133
X51692Y24133
X52676Y24133
X53660Y24133
X54644Y24133
X55629Y24133
X55629Y23148
X55629Y22164
X55629Y21180
X55629Y20196
X56613Y20196
X56613Y20196
X56613Y21180
X56613Y21180
X56613Y22164
X56613Y22164
X57597Y22164
X57597Y21180
X57597Y20196
X58581Y20196
X58581Y21180
X58581Y22164
X58581Y23148
X57597Y23148
X56613Y23148
X56613Y23148
X56613Y24133
X56613Y24133
X57597Y24133
X58581Y24133
X59566Y24133
X60550Y24133
X60550Y23148
X60550Y22164
X60550Y21180
X59566Y21180
X59566Y22164
X59566Y23148
X59566Y20196
X60550Y20196
X60550Y19211
X60550Y18227
X60550Y17243
X59566Y17243
X59566Y18227
X59566Y19211
X58581Y19211
X57597Y19211
X57597Y18227
X56613Y18227
X56613Y18227
X56613Y17243
X56613Y17243
X57597Y17243
X57597Y16259
X56613Y16259
X56613Y16259
X55629Y16259
X55629Y17243
X55629Y18227
X55629Y19211
X56613Y19211
X56613Y19211
X58581Y18227
X58581Y17243
X58581Y16259
X59566Y16259
X60550Y16259
X60550Y15274
X60550Y14290
X60550Y13306
X59566Y13306
X59566Y14290
X59566Y15274
X59566Y12322
X60550Y12322
X60550Y11337
X59566Y11337
X65471Y11337
X66455Y11337
X65471Y8385
X65471Y7400
X66455Y7400
X67440Y5432
X67440Y4448
X68424Y4448
X69408Y4448
X70392Y4448
X70392Y4448
X70392Y5432
X70392Y5432
X70392Y6416
X70392Y6416
X71377Y6416
X72361Y6416
X72361Y5432
X73345Y5432
X73345Y6416
X73345Y7400
X72361Y7400
X71377Y7400
X71377Y8385
X71377Y9369
X72361Y9369
X72361Y10353
X73345Y10353
X73345Y9369
X73345Y8385
X72361Y8385
X70392Y8385
X70392Y8385
X70392Y9369
X70392Y9369
X70392Y10353
X70392Y10353
X71377Y10353
X70392Y7400
X70392Y7400
X71377Y5432
X71377Y4448
X72361Y4448
X73345Y4448
X73345Y3463
X73345Y2479
X72361Y2479
X72361Y3463
X71377Y3463
X71377Y2479
X70392Y2479
X70392Y2479
X70392Y3463
X70392Y3463
X70392Y1495
X70392Y1495
X70392Y511
X71377Y511
X71377Y1495
X71377Y1495
X72361Y1495
X73345Y1495
X73345Y511
X72361Y511
X74329Y511
X74329Y1495
X75314Y1495
X76298Y1495
X77282Y1495
X77282Y1495
X77282Y511
X77282Y511
X76298Y511
X75314Y511
X75314Y2479
X76298Y2479
X77282Y2479
X77282Y2479
X77282Y3463
X77282Y3463
X76298Y3463
X75314Y3463
X75314Y4448
X75314Y5432
X76298Y5432
X76298Y6416
X77282Y6416
X77282Y6416
X77282Y5432
X77282Y5432
X77282Y4448
X77282Y4448
X76298Y4448
X78266Y4448
X78266Y5432
X78266Y6416
X78266Y7400
X77282Y7400
X77282Y7400
X76298Y7400
X75314Y7400
X75314Y8385
X75314Y9369
X76298Y9369
X76298Y10353
X77282Y10353
X77282Y10353
X77282Y9369
X77282Y9369
X77282Y8385
X77282Y8385
X76298Y8385
X78266Y8385
X78266Y9369
X78266Y10353
X78266Y11337
X77282Y11337
X77282Y11337
X76298Y11337
X75314Y11337
X75314Y12322
X75314Y13306
X76298Y12322
X77282Y12322
X77282Y12322
X78266Y12322
X78266Y13306
X78266Y14290
X78266Y15274
X79251Y15274
X79251Y14290
X80235Y14290
X80235Y13306
X79251Y13306
X79251Y12322
X80235Y12322
X80235Y11337
X79251Y11337
X79251Y10353
X80235Y10353
X80235Y9369
X79251Y9369
X79251Y8385
X80235Y8385
X80235Y7400
X79251Y7400
X79251Y6416
X80235Y6416
X80235Y5432
X79251Y5432
X79251Y4448
X80235Y4448
X80235Y3463
X80235Y2479
X79251Y2479
X79251Y3463
X78266Y3463
X78266Y2479
X78266Y1495
X78266Y511
X78266Y511
X79251Y511
X79251Y1495
X80235Y1495
X80235Y511
X74329Y2479
X74329Y3463
X74329Y4448
X74329Y5432
X74329Y6416
X75314Y6416
X74329Y7400
X74329Y8385
X74329Y9369
X74329Y10353
X75314Y10353
X74329Y11337
X70392Y16259
X70392Y16259
X70392Y17243
X70392Y17243
X70392Y18227
X70392Y18227
X70392Y19211
X70392Y19211
X69408Y19211
X68424Y19211
X67440Y19211
X67440Y18227
X70392Y20196
X70392Y20196
X70392Y21180
X70392Y21180
X70392Y22164
X70392Y22164
X70392Y23148
X70392Y23148
X70392Y24133
X70392Y24133
X71377Y24133
X72361Y24133
X73345Y24133
X73345Y23148
X72361Y23148
X71377Y23148
X71377Y22164
X71377Y21180
X71377Y20196
X64487Y23148
X51692Y25117
X51692Y25117
X51692Y28070
X51692Y28070
X51692Y29054
X51692Y29054
X47755Y30038
X47755Y31022
X46770Y31022
X46770Y30038
X46770Y29054
X46770Y28070
X47755Y25117
X50707Y33975
X50707Y34959
X71377Y35944
X71377Y36928
X72361Y35944
X73345Y35944
X79251Y32991
X80235Y32991
X80235Y32007
X79251Y32007
X79251Y31022
X79251Y30038
X80235Y30038
X80235Y31022
X80235Y20196
X80235Y19211
X80235Y18227
X80235Y17243
X79251Y17243
X79251Y18227
X79251Y19211
X79251Y16259
X80235Y16259
X80235Y15274
X65471Y4448
X29054Y7400
X28070Y7400
X27085Y7400
X27085Y10353
X24133Y10353
X24133Y9369
X24133Y8385
X24133Y7400
X22164Y8385
X21180Y8385
X20196Y8385
X23148Y10353
X23148Y10353
X27085Y2479
X15274Y8385
X14290Y8385
X13306Y8385
X12322Y10353
X12322Y6416
X3463Y15274
X2479Y15274
X2479Y16259
X2479Y17243
X2479Y18227
X3463Y18227
X3463Y17243
X3463Y16259
X1495Y16259
X1495Y17243
X1495Y18227
X1495Y19211
X511Y19211
X511Y18227
X511Y17243
X511Y16259
X2479Y19211
X3463Y19211
X3463Y20196
X3463Y21180
X2479Y21180
X2479Y22164
X3463Y22164
X3463Y23148
X2479Y23148
X2479Y24133
X3463Y24133
X1495Y24133
X511Y24133
X511Y23148
X1495Y23148
X1495Y22164
X1495Y21180
X1495Y20196
X511Y20196
X511Y21180
X511Y22164
X2479Y20196
X10353Y23148
X12322Y22164
X12322Y21180
X12322Y20196
X15274Y24133
X15274Y25117
X15274Y26101
X15274Y27085
X12322Y29054
X6416Y33975
X5432Y33975
X5432Y34959
X6416Y34959
X6416Y35944
X6416Y36928
X6416Y37912
X5432Y37912
X5432Y36928
X5432Y35944
X4448Y35944
X4448Y35944
X4448Y36928
X4448Y36928
X4448Y37912
X4448Y37912
X3463Y37912
X2479Y37912
X2479Y36928
X3463Y36928
X3463Y35944
X2479Y35944
X2479Y34959
X2479Y33975
X3463Y33975
X3463Y34959
X4448Y34959
X4448Y34959
X4448Y33975
X4448Y33975
X4448Y32991
X4448Y32991
X4448Y32007
X4448Y32007
X4448Y29054
X4448Y29054
X1495Y33975
X1495Y34959
X511Y34959
X511Y33975
X511Y35944
X1495Y35944
X1495Y36928
X1495Y37912
X511Y37912
X511Y36928
X511Y38896
X1495Y38896
X1495Y39881
X1495Y40865
X1495Y41849
X511Y41849
X511Y40865
X511Y39881
X2479Y39881
X2479Y40865
X2479Y41849
X3463Y41849
X3463Y40865
X3463Y39881
X4448Y39881
X5432Y39881
X5432Y40865
X6416Y40865
X6416Y41849
X5432Y41849
X5432Y41849
X4448Y41849
X4448Y41849
X4448Y40865
X4448Y38896
X5432Y38896
X6416Y38896
X6416Y39881
X7400Y38896
X3463Y38896
X2479Y38896
X2479Y42833
X3463Y42833
X4448Y42833
X4448Y42833
X5432Y42833
X6416Y42833
X6416Y43818
X6416Y44802
X6416Y45786
X5432Y45786
X5432Y44802
X5432Y43818
X4448Y43818
X4448Y43818
X4448Y44802
X4448Y44802
X4448Y45786
X4448Y45786
X4448Y46770
X4448Y46770
X5432Y46770
X6416Y46770
X7400Y46770
X10353Y46770
X6416Y50707
X4448Y49723
X4448Y49723
X4448Y48739
X4448Y48739
X4448Y47755
X4448Y47755
X3463Y47755
X2479Y47755
X1495Y47755
X1495Y48739
X1495Y49723
X1495Y50707
X511Y50707
X511Y49723
X511Y48739
X511Y47755
X511Y46770
X1495Y46770
X1495Y45786
X1495Y44802
X1495Y43818
X511Y43818
X511Y44802
X511Y45786
X2479Y45786
X2479Y44802
X3463Y44802
X3463Y45786
X3463Y46770
X2479Y46770
X2479Y43818
X3463Y43818
X1495Y42833
X511Y42833
X11337Y38896
X19211Y25117
X6416Y54644
X1495Y58581
X12322Y64487
X65471Y60550
X65471Y59566
X66455Y59566
X66455Y60550
X67440Y60550
X67440Y59566
X67440Y58581
X67440Y57597
X67440Y56613
X66455Y56613
X65471Y56613
X65471Y57597
X65471Y58581
X66455Y58581
X66455Y57597
X68424Y58581
M30
