G75*
G70*
%OFA0B0*%
%FSLAX24Y24*%
%IPPOS*%
%LPD*%
%AMOC8*
5,1,8,0,0,1.08239X$1,22.5*
%
%ADD10C,0.0000*%
%ADD11C,0.0600*%
%ADD12C,0.0594*%
%ADD13OC8,0.1500*%
%ADD14C,0.2550*%
%ADD15C,0.0860*%
%ADD16OC8,0.0860*%
%ADD17C,0.0860*%
%ADD18C,0.0520*%
%ADD19OC8,0.0560*%
%ADD20OC8,0.0520*%
%ADD21C,0.0660*%
%ADD22C,0.0990*%
%ADD23OC8,0.0630*%
%ADD24C,0.0560*%
%ADD25C,0.0660*%
%ADD26C,0.0500*%
%ADD27C,0.0700*%
%ADD28C,0.0400*%
%ADD29C,0.0160*%
%ADD30R,0.0396X0.0396*%
%ADD31C,0.0400*%
%ADD32C,0.0320*%
%ADD33C,0.0394*%
%ADD34C,0.0240*%
%ADD35C,0.0396*%
D10*
X000110Y000131D02*
X000104Y042622D01*
X070009Y042619D01*
X070019Y000437D01*
X000110Y000131D01*
X001569Y001989D02*
X001571Y002039D01*
X001577Y002089D01*
X001587Y002138D01*
X001601Y002186D01*
X001618Y002233D01*
X001639Y002278D01*
X001664Y002322D01*
X001692Y002363D01*
X001724Y002402D01*
X001758Y002439D01*
X001795Y002473D01*
X001835Y002503D01*
X001877Y002530D01*
X001921Y002554D01*
X001967Y002575D01*
X002014Y002591D01*
X002062Y002604D01*
X002112Y002613D01*
X002161Y002618D01*
X002212Y002619D01*
X002262Y002616D01*
X002311Y002609D01*
X002360Y002598D01*
X002408Y002583D01*
X002454Y002565D01*
X002499Y002543D01*
X002542Y002517D01*
X002583Y002488D01*
X002622Y002456D01*
X002658Y002421D01*
X002690Y002383D01*
X002720Y002343D01*
X002747Y002300D01*
X002770Y002256D01*
X002789Y002210D01*
X002805Y002162D01*
X002817Y002113D01*
X002825Y002064D01*
X002829Y002014D01*
X002829Y001964D01*
X002825Y001914D01*
X002817Y001865D01*
X002805Y001816D01*
X002789Y001768D01*
X002770Y001722D01*
X002747Y001678D01*
X002720Y001635D01*
X002690Y001595D01*
X002658Y001557D01*
X002622Y001522D01*
X002583Y001490D01*
X002542Y001461D01*
X002499Y001435D01*
X002454Y001413D01*
X002408Y001395D01*
X002360Y001380D01*
X002311Y001369D01*
X002262Y001362D01*
X002212Y001359D01*
X002161Y001360D01*
X002112Y001365D01*
X002062Y001374D01*
X002014Y001387D01*
X001967Y001403D01*
X001921Y001424D01*
X001877Y001448D01*
X001835Y001475D01*
X001795Y001505D01*
X001758Y001539D01*
X001724Y001576D01*
X001692Y001615D01*
X001664Y001656D01*
X001639Y001700D01*
X001618Y001745D01*
X001601Y001792D01*
X001587Y001840D01*
X001577Y001889D01*
X001571Y001939D01*
X001569Y001989D01*
X018031Y026779D02*
X018033Y026823D01*
X018039Y026867D01*
X018049Y026910D01*
X018062Y026952D01*
X018080Y026992D01*
X018101Y027031D01*
X018125Y027068D01*
X018152Y027103D01*
X018183Y027135D01*
X018216Y027164D01*
X018252Y027190D01*
X018290Y027212D01*
X018330Y027231D01*
X018371Y027247D01*
X018414Y027259D01*
X018457Y027267D01*
X018501Y027271D01*
X018545Y027271D01*
X018589Y027267D01*
X018632Y027259D01*
X018675Y027247D01*
X018716Y027231D01*
X018756Y027212D01*
X018794Y027190D01*
X018830Y027164D01*
X018863Y027135D01*
X018894Y027103D01*
X018921Y027068D01*
X018945Y027031D01*
X018966Y026992D01*
X018984Y026952D01*
X018997Y026910D01*
X019007Y026867D01*
X019013Y026823D01*
X019015Y026779D01*
X019013Y026735D01*
X019007Y026691D01*
X018997Y026648D01*
X018984Y026606D01*
X018966Y026566D01*
X018945Y026527D01*
X018921Y026490D01*
X018894Y026455D01*
X018863Y026423D01*
X018830Y026394D01*
X018794Y026368D01*
X018756Y026346D01*
X018716Y026327D01*
X018675Y026311D01*
X018632Y026299D01*
X018589Y026291D01*
X018545Y026287D01*
X018501Y026287D01*
X018457Y026291D01*
X018414Y026299D01*
X018371Y026311D01*
X018330Y026327D01*
X018290Y026346D01*
X018252Y026368D01*
X018216Y026394D01*
X018183Y026423D01*
X018152Y026455D01*
X018125Y026490D01*
X018101Y026527D01*
X018080Y026566D01*
X018062Y026606D01*
X018049Y026648D01*
X018039Y026691D01*
X018033Y026735D01*
X018031Y026779D01*
X018031Y038984D02*
X018033Y039028D01*
X018039Y039072D01*
X018049Y039115D01*
X018062Y039157D01*
X018080Y039197D01*
X018101Y039236D01*
X018125Y039273D01*
X018152Y039308D01*
X018183Y039340D01*
X018216Y039369D01*
X018252Y039395D01*
X018290Y039417D01*
X018330Y039436D01*
X018371Y039452D01*
X018414Y039464D01*
X018457Y039472D01*
X018501Y039476D01*
X018545Y039476D01*
X018589Y039472D01*
X018632Y039464D01*
X018675Y039452D01*
X018716Y039436D01*
X018756Y039417D01*
X018794Y039395D01*
X018830Y039369D01*
X018863Y039340D01*
X018894Y039308D01*
X018921Y039273D01*
X018945Y039236D01*
X018966Y039197D01*
X018984Y039157D01*
X018997Y039115D01*
X019007Y039072D01*
X019013Y039028D01*
X019015Y038984D01*
X019013Y038940D01*
X019007Y038896D01*
X018997Y038853D01*
X018984Y038811D01*
X018966Y038771D01*
X018945Y038732D01*
X018921Y038695D01*
X018894Y038660D01*
X018863Y038628D01*
X018830Y038599D01*
X018794Y038573D01*
X018756Y038551D01*
X018716Y038532D01*
X018675Y038516D01*
X018632Y038504D01*
X018589Y038496D01*
X018545Y038492D01*
X018501Y038492D01*
X018457Y038496D01*
X018414Y038504D01*
X018371Y038516D01*
X018330Y038532D01*
X018290Y038551D01*
X018252Y038573D01*
X018216Y038599D01*
X018183Y038628D01*
X018152Y038660D01*
X018125Y038695D01*
X018101Y038732D01*
X018080Y038771D01*
X018062Y038811D01*
X018049Y038853D01*
X018039Y038896D01*
X018033Y038940D01*
X018031Y038984D01*
X001111Y041323D02*
X001113Y041373D01*
X001119Y041423D01*
X001129Y041472D01*
X001143Y041520D01*
X001160Y041567D01*
X001181Y041612D01*
X001206Y041656D01*
X001234Y041697D01*
X001266Y041736D01*
X001300Y041773D01*
X001337Y041807D01*
X001377Y041837D01*
X001419Y041864D01*
X001463Y041888D01*
X001509Y041909D01*
X001556Y041925D01*
X001604Y041938D01*
X001654Y041947D01*
X001703Y041952D01*
X001754Y041953D01*
X001804Y041950D01*
X001853Y041943D01*
X001902Y041932D01*
X001950Y041917D01*
X001996Y041899D01*
X002041Y041877D01*
X002084Y041851D01*
X002125Y041822D01*
X002164Y041790D01*
X002200Y041755D01*
X002232Y041717D01*
X002262Y041677D01*
X002289Y041634D01*
X002312Y041590D01*
X002331Y041544D01*
X002347Y041496D01*
X002359Y041447D01*
X002367Y041398D01*
X002371Y041348D01*
X002371Y041298D01*
X002367Y041248D01*
X002359Y041199D01*
X002347Y041150D01*
X002331Y041102D01*
X002312Y041056D01*
X002289Y041012D01*
X002262Y040969D01*
X002232Y040929D01*
X002200Y040891D01*
X002164Y040856D01*
X002125Y040824D01*
X002084Y040795D01*
X002041Y040769D01*
X001996Y040747D01*
X001950Y040729D01*
X001902Y040714D01*
X001853Y040703D01*
X001804Y040696D01*
X001754Y040693D01*
X001703Y040694D01*
X001654Y040699D01*
X001604Y040708D01*
X001556Y040721D01*
X001509Y040737D01*
X001463Y040758D01*
X001419Y040782D01*
X001377Y040809D01*
X001337Y040839D01*
X001300Y040873D01*
X001266Y040910D01*
X001234Y040949D01*
X001206Y040990D01*
X001181Y041034D01*
X001160Y041079D01*
X001143Y041126D01*
X001129Y041174D01*
X001119Y041223D01*
X001113Y041273D01*
X001111Y041323D01*
X047558Y038984D02*
X047560Y039028D01*
X047566Y039072D01*
X047576Y039115D01*
X047589Y039157D01*
X047607Y039197D01*
X047628Y039236D01*
X047652Y039273D01*
X047679Y039308D01*
X047710Y039340D01*
X047743Y039369D01*
X047779Y039395D01*
X047817Y039417D01*
X047857Y039436D01*
X047898Y039452D01*
X047941Y039464D01*
X047984Y039472D01*
X048028Y039476D01*
X048072Y039476D01*
X048116Y039472D01*
X048159Y039464D01*
X048202Y039452D01*
X048243Y039436D01*
X048283Y039417D01*
X048321Y039395D01*
X048357Y039369D01*
X048390Y039340D01*
X048421Y039308D01*
X048448Y039273D01*
X048472Y039236D01*
X048493Y039197D01*
X048511Y039157D01*
X048524Y039115D01*
X048534Y039072D01*
X048540Y039028D01*
X048542Y038984D01*
X048540Y038940D01*
X048534Y038896D01*
X048524Y038853D01*
X048511Y038811D01*
X048493Y038771D01*
X048472Y038732D01*
X048448Y038695D01*
X048421Y038660D01*
X048390Y038628D01*
X048357Y038599D01*
X048321Y038573D01*
X048283Y038551D01*
X048243Y038532D01*
X048202Y038516D01*
X048159Y038504D01*
X048116Y038496D01*
X048072Y038492D01*
X048028Y038492D01*
X047984Y038496D01*
X047941Y038504D01*
X047898Y038516D01*
X047857Y038532D01*
X047817Y038551D01*
X047779Y038573D01*
X047743Y038599D01*
X047710Y038628D01*
X047679Y038660D01*
X047652Y038695D01*
X047628Y038732D01*
X047607Y038771D01*
X047589Y038811D01*
X047576Y038853D01*
X047566Y038896D01*
X047560Y038940D01*
X047558Y038984D01*
X047558Y026779D02*
X047560Y026823D01*
X047566Y026867D01*
X047576Y026910D01*
X047589Y026952D01*
X047607Y026992D01*
X047628Y027031D01*
X047652Y027068D01*
X047679Y027103D01*
X047710Y027135D01*
X047743Y027164D01*
X047779Y027190D01*
X047817Y027212D01*
X047857Y027231D01*
X047898Y027247D01*
X047941Y027259D01*
X047984Y027267D01*
X048028Y027271D01*
X048072Y027271D01*
X048116Y027267D01*
X048159Y027259D01*
X048202Y027247D01*
X048243Y027231D01*
X048283Y027212D01*
X048321Y027190D01*
X048357Y027164D01*
X048390Y027135D01*
X048421Y027103D01*
X048448Y027068D01*
X048472Y027031D01*
X048493Y026992D01*
X048511Y026952D01*
X048524Y026910D01*
X048534Y026867D01*
X048540Y026823D01*
X048542Y026779D01*
X048540Y026735D01*
X048534Y026691D01*
X048524Y026648D01*
X048511Y026606D01*
X048493Y026566D01*
X048472Y026527D01*
X048448Y026490D01*
X048421Y026455D01*
X048390Y026423D01*
X048357Y026394D01*
X048321Y026368D01*
X048283Y026346D01*
X048243Y026327D01*
X048202Y026311D01*
X048159Y026299D01*
X048116Y026291D01*
X048072Y026287D01*
X048028Y026287D01*
X047984Y026291D01*
X047941Y026299D01*
X047898Y026311D01*
X047857Y026327D01*
X047817Y026346D01*
X047779Y026368D01*
X047743Y026394D01*
X047710Y026423D01*
X047679Y026455D01*
X047652Y026490D01*
X047628Y026527D01*
X047607Y026566D01*
X047589Y026606D01*
X047576Y026648D01*
X047566Y026691D01*
X047560Y026735D01*
X047558Y026779D01*
X067249Y040864D02*
X067251Y040914D01*
X067257Y040964D01*
X067267Y041013D01*
X067281Y041061D01*
X067298Y041108D01*
X067319Y041153D01*
X067344Y041197D01*
X067372Y041238D01*
X067404Y041277D01*
X067438Y041314D01*
X067475Y041348D01*
X067515Y041378D01*
X067557Y041405D01*
X067601Y041429D01*
X067647Y041450D01*
X067694Y041466D01*
X067742Y041479D01*
X067792Y041488D01*
X067841Y041493D01*
X067892Y041494D01*
X067942Y041491D01*
X067991Y041484D01*
X068040Y041473D01*
X068088Y041458D01*
X068134Y041440D01*
X068179Y041418D01*
X068222Y041392D01*
X068263Y041363D01*
X068302Y041331D01*
X068338Y041296D01*
X068370Y041258D01*
X068400Y041218D01*
X068427Y041175D01*
X068450Y041131D01*
X068469Y041085D01*
X068485Y041037D01*
X068497Y040988D01*
X068505Y040939D01*
X068509Y040889D01*
X068509Y040839D01*
X068505Y040789D01*
X068497Y040740D01*
X068485Y040691D01*
X068469Y040643D01*
X068450Y040597D01*
X068427Y040553D01*
X068400Y040510D01*
X068370Y040470D01*
X068338Y040432D01*
X068302Y040397D01*
X068263Y040365D01*
X068222Y040336D01*
X068179Y040310D01*
X068134Y040288D01*
X068088Y040270D01*
X068040Y040255D01*
X067991Y040244D01*
X067942Y040237D01*
X067892Y040234D01*
X067841Y040235D01*
X067792Y040240D01*
X067742Y040249D01*
X067694Y040262D01*
X067647Y040278D01*
X067601Y040299D01*
X067557Y040323D01*
X067515Y040350D01*
X067475Y040380D01*
X067438Y040414D01*
X067404Y040451D01*
X067372Y040490D01*
X067344Y040531D01*
X067319Y040575D01*
X067298Y040620D01*
X067281Y040667D01*
X067267Y040715D01*
X067257Y040764D01*
X067251Y040814D01*
X067249Y040864D01*
X067401Y002295D02*
X067403Y002345D01*
X067409Y002395D01*
X067419Y002444D01*
X067433Y002492D01*
X067450Y002539D01*
X067471Y002584D01*
X067496Y002628D01*
X067524Y002669D01*
X067556Y002708D01*
X067590Y002745D01*
X067627Y002779D01*
X067667Y002809D01*
X067709Y002836D01*
X067753Y002860D01*
X067799Y002881D01*
X067846Y002897D01*
X067894Y002910D01*
X067944Y002919D01*
X067993Y002924D01*
X068044Y002925D01*
X068094Y002922D01*
X068143Y002915D01*
X068192Y002904D01*
X068240Y002889D01*
X068286Y002871D01*
X068331Y002849D01*
X068374Y002823D01*
X068415Y002794D01*
X068454Y002762D01*
X068490Y002727D01*
X068522Y002689D01*
X068552Y002649D01*
X068579Y002606D01*
X068602Y002562D01*
X068621Y002516D01*
X068637Y002468D01*
X068649Y002419D01*
X068657Y002370D01*
X068661Y002320D01*
X068661Y002270D01*
X068657Y002220D01*
X068649Y002171D01*
X068637Y002122D01*
X068621Y002074D01*
X068602Y002028D01*
X068579Y001984D01*
X068552Y001941D01*
X068522Y001901D01*
X068490Y001863D01*
X068454Y001828D01*
X068415Y001796D01*
X068374Y001767D01*
X068331Y001741D01*
X068286Y001719D01*
X068240Y001701D01*
X068192Y001686D01*
X068143Y001675D01*
X068094Y001668D01*
X068044Y001665D01*
X067993Y001666D01*
X067944Y001671D01*
X067894Y001680D01*
X067846Y001693D01*
X067799Y001709D01*
X067753Y001730D01*
X067709Y001754D01*
X067667Y001781D01*
X067627Y001811D01*
X067590Y001845D01*
X067556Y001882D01*
X067524Y001921D01*
X067496Y001962D01*
X067471Y002006D01*
X067450Y002051D01*
X067433Y002098D01*
X067419Y002146D01*
X067409Y002195D01*
X067403Y002245D01*
X067401Y002295D01*
D11*
X048622Y013654D02*
X048622Y014254D01*
X047622Y014254D02*
X047622Y013654D01*
X046622Y013654D02*
X046622Y014254D01*
X046694Y016713D02*
X046694Y017313D01*
X047694Y017313D02*
X047694Y016713D01*
X048694Y016713D02*
X048694Y017313D01*
X048701Y020049D02*
X048701Y020649D01*
X047701Y020649D02*
X047701Y020049D01*
X046701Y020049D02*
X046701Y020649D01*
X044445Y023985D02*
X044445Y024585D01*
X043445Y024585D02*
X043445Y023985D01*
X042445Y023985D02*
X042445Y024585D01*
X041445Y024585D02*
X041445Y023985D01*
X040445Y023985D02*
X040445Y024585D01*
X039445Y024585D02*
X039445Y023985D01*
X038445Y023985D02*
X038445Y024585D01*
X037445Y024585D02*
X037445Y023985D01*
X036445Y023985D02*
X036445Y024585D01*
X035445Y024585D02*
X035445Y023985D01*
X032905Y023987D02*
X032905Y024587D01*
X031905Y024587D02*
X031905Y023987D01*
X030905Y023987D02*
X030905Y024587D01*
X029905Y024587D02*
X029905Y023987D01*
X028905Y023987D02*
X028905Y024587D01*
X027905Y024587D02*
X027905Y023987D01*
X026905Y023987D02*
X026905Y024587D01*
X025905Y024587D02*
X025905Y023987D01*
X024905Y023987D02*
X024905Y024587D01*
X023905Y024587D02*
X023905Y023987D01*
X052055Y023946D02*
X052055Y024546D01*
X053055Y024546D02*
X053055Y023946D01*
X054055Y023946D02*
X054055Y024546D01*
X054111Y027064D02*
X054111Y027664D01*
X053111Y027664D02*
X053111Y027064D01*
X052111Y027064D02*
X052111Y027664D01*
X052132Y030051D02*
X052132Y030651D01*
X053132Y030651D02*
X053132Y030051D01*
X054132Y030051D02*
X054132Y030651D01*
X054108Y033076D02*
X054108Y033676D01*
X053108Y033676D02*
X053108Y033076D01*
X052108Y033076D02*
X052108Y033676D01*
X052017Y035883D02*
X052017Y036483D01*
X053017Y036483D02*
X053017Y035883D01*
X054017Y035883D02*
X054017Y036483D01*
X057017Y036483D02*
X057017Y035883D01*
X058017Y035883D02*
X058017Y036483D01*
X059017Y036483D02*
X059017Y035883D01*
X059017Y038883D02*
X059017Y039483D01*
X058017Y039483D02*
X058017Y038883D01*
X057017Y038883D02*
X057017Y039483D01*
X054017Y039483D02*
X054017Y038883D01*
X053017Y038883D02*
X053017Y039483D01*
X052017Y039483D02*
X052017Y038883D01*
X052029Y021164D02*
X052029Y020564D01*
X053029Y020564D02*
X053029Y021164D01*
X054029Y021164D02*
X054029Y020564D01*
D12*
X048019Y009502D03*
X047019Y009502D03*
X047019Y008502D03*
X048019Y008502D03*
X048019Y007502D03*
X047019Y007502D03*
X047019Y006502D03*
X048019Y006502D03*
X048019Y005502D03*
X047019Y005502D03*
X024981Y005096D03*
X023981Y005096D03*
X023981Y006096D03*
X024981Y006096D03*
X024981Y007096D03*
X023981Y007096D03*
X023981Y008096D03*
X024981Y008096D03*
X024981Y009096D03*
X023981Y009096D03*
X019651Y008983D03*
X018651Y008983D03*
X018651Y007983D03*
X018651Y006983D03*
X018651Y005983D03*
X019651Y005983D03*
X019651Y006983D03*
X019651Y007983D03*
X019651Y004983D03*
X018651Y004983D03*
X014259Y005379D03*
X013259Y005379D03*
X013259Y006379D03*
X014259Y006379D03*
X014259Y007379D03*
X013259Y007379D03*
X013259Y008379D03*
X014259Y008379D03*
X014259Y009379D03*
X013259Y009379D03*
X008552Y009378D03*
X008552Y008378D03*
X008552Y007378D03*
X007552Y007378D03*
X007552Y008378D03*
X007552Y009378D03*
X003798Y009476D03*
X002798Y009476D03*
X002798Y008476D03*
X003798Y008476D03*
X003798Y007476D03*
X003798Y006476D03*
X002798Y006476D03*
X002798Y007476D03*
X002798Y005476D03*
X003798Y005476D03*
X007552Y005378D03*
X008552Y005378D03*
X008552Y006378D03*
X007552Y006378D03*
X018591Y014916D03*
X019591Y014916D03*
X019591Y015916D03*
X018591Y015916D03*
X018591Y016916D03*
X019591Y016916D03*
X019591Y017916D03*
X018591Y017916D03*
X018591Y018916D03*
X019591Y018916D03*
X024091Y018916D03*
X025091Y018916D03*
X025091Y017916D03*
X024091Y017916D03*
X024091Y016916D03*
X025091Y016916D03*
X025091Y015916D03*
X024091Y015916D03*
X024091Y014916D03*
X025091Y014916D03*
X014283Y015230D03*
X014283Y016230D03*
X013283Y016230D03*
X013283Y015230D03*
X013283Y017230D03*
X013283Y018230D03*
X014283Y018230D03*
X014283Y017230D03*
X014283Y019230D03*
X013283Y019230D03*
X008651Y019296D03*
X007651Y019296D03*
X007651Y018296D03*
X007651Y017296D03*
X007651Y016296D03*
X008651Y016296D03*
X008651Y017296D03*
X008651Y018296D03*
X008651Y015296D03*
X007651Y015296D03*
X003578Y015290D03*
X002578Y015290D03*
X002578Y016290D03*
X002578Y017290D03*
X002578Y018290D03*
X003578Y018290D03*
X003578Y017290D03*
X003578Y016290D03*
X003578Y019290D03*
X002578Y019290D03*
X007724Y025157D03*
X008724Y025157D03*
X008724Y026157D03*
X007724Y026157D03*
X007724Y027157D03*
X008724Y027157D03*
X008724Y028157D03*
X007724Y028157D03*
X007724Y029157D03*
X008724Y029157D03*
X013298Y029116D03*
X014298Y029116D03*
X014298Y028116D03*
X014298Y027116D03*
X014298Y026116D03*
X013298Y026116D03*
X013298Y027116D03*
X013298Y028116D03*
X013298Y025116D03*
X014298Y025116D03*
X003605Y025256D03*
X002605Y025256D03*
X002605Y026256D03*
X003605Y026256D03*
X003605Y027256D03*
X002605Y027256D03*
X002605Y028256D03*
X003605Y028256D03*
X003605Y029256D03*
X002605Y029256D03*
X002618Y034287D03*
X002618Y035287D03*
X002618Y036287D03*
X003618Y036287D03*
X003618Y035287D03*
X003618Y034287D03*
X007812Y034563D03*
X008812Y034563D03*
X008812Y035563D03*
X007812Y035563D03*
X007812Y036563D03*
X008812Y036563D03*
X008812Y037563D03*
X007812Y037563D03*
X007812Y038563D03*
X008812Y038563D03*
X013517Y038683D03*
X014517Y038683D03*
X014517Y037683D03*
X013517Y037683D03*
X013517Y036683D03*
X014517Y036683D03*
X014517Y035683D03*
X013517Y035683D03*
X013517Y034683D03*
X014517Y034683D03*
X003618Y037287D03*
X002618Y037287D03*
X002618Y038287D03*
X003618Y038287D03*
D13*
X059367Y008983D03*
X063667Y008983D03*
D14*
X061517Y003733D03*
X061517Y015633D03*
D15*
X059429Y022277D03*
X060709Y028593D03*
D16*
X058709Y028593D03*
X061429Y022277D03*
D17*
X064077Y023915D02*
X064937Y023915D01*
X065688Y025374D02*
X065688Y026234D01*
X063326Y026234D02*
X063326Y025374D01*
D18*
X063300Y029008D02*
X063820Y029008D01*
X067300Y029008D02*
X067820Y029008D01*
X067820Y033008D02*
X067300Y033008D01*
X063820Y033008D02*
X063300Y033008D01*
X063517Y037923D02*
X063517Y038443D01*
X062517Y038443D02*
X062517Y037923D01*
X065364Y021194D02*
X065884Y021194D01*
X065884Y020214D02*
X065364Y020214D01*
X065364Y019234D02*
X065884Y019234D01*
X067724Y019234D02*
X068244Y019234D01*
X068244Y020214D02*
X067724Y020214D01*
X067724Y021194D02*
X068244Y021194D01*
X050642Y002275D02*
X050642Y001755D01*
X049642Y001755D02*
X049642Y002275D01*
X046849Y002364D02*
X046849Y001844D01*
X045849Y001844D02*
X045849Y002364D01*
D19*
X042230Y004800D03*
X041230Y004800D03*
X040230Y004800D03*
X039230Y004800D03*
X038230Y004800D03*
X037230Y004800D03*
X036230Y004800D03*
X035230Y004800D03*
X034230Y004800D03*
X033230Y004800D03*
X032230Y004800D03*
X031230Y004800D03*
X030230Y004800D03*
X030230Y005800D03*
X031230Y005800D03*
X032230Y005800D03*
X033230Y005800D03*
X034230Y005800D03*
X035230Y005800D03*
X036230Y005800D03*
X037230Y005800D03*
X038230Y005800D03*
X039230Y005800D03*
X040230Y005800D03*
X041230Y005800D03*
X042230Y005800D03*
X042230Y006800D03*
X043230Y006800D03*
X043230Y007800D03*
X042230Y007800D03*
X042230Y008800D03*
X043230Y008800D03*
X043230Y009800D03*
X042230Y009800D03*
X042230Y010800D03*
X043230Y010800D03*
X043230Y011800D03*
X042230Y011800D03*
X042230Y012800D03*
X043230Y012800D03*
X043230Y013800D03*
X042230Y013800D03*
X042230Y014800D03*
X043230Y014800D03*
X043230Y015800D03*
X042230Y015800D03*
X042230Y016800D03*
X043230Y016800D03*
X043230Y017800D03*
X042230Y017800D03*
X042230Y018800D03*
X043230Y018800D03*
X042230Y019800D03*
X041230Y019800D03*
X040230Y019800D03*
X039230Y019800D03*
X038230Y019800D03*
X037230Y019800D03*
X036230Y019800D03*
X035230Y019800D03*
X034230Y019800D03*
X033230Y019800D03*
X032230Y019800D03*
X031230Y019800D03*
X030230Y019800D03*
X030230Y018800D03*
X029230Y018800D03*
X029230Y017800D03*
X029230Y016800D03*
X030230Y016800D03*
X030230Y017800D03*
X030230Y015800D03*
X030230Y014800D03*
X030230Y013800D03*
X029230Y013800D03*
X029230Y014800D03*
X029230Y015800D03*
X029230Y012800D03*
X029230Y011800D03*
X029230Y010800D03*
X030230Y010800D03*
X030230Y011800D03*
X030230Y012800D03*
X030230Y009800D03*
X030230Y008800D03*
X030230Y007800D03*
X029230Y007800D03*
X029230Y008800D03*
X029230Y009800D03*
X029230Y006800D03*
X030230Y006800D03*
X030230Y020800D03*
X031230Y020800D03*
X032230Y020800D03*
X033230Y020800D03*
X034230Y020800D03*
X035230Y020800D03*
X036230Y020800D03*
X037230Y020800D03*
X038230Y020800D03*
X039230Y020800D03*
X040230Y020800D03*
X041230Y020800D03*
X042230Y020800D03*
D20*
X050234Y010494D03*
X051407Y010532D03*
X051407Y006532D03*
X050234Y006494D03*
X063516Y031008D03*
X067516Y031008D03*
D21*
X045885Y038984D03*
X044885Y038984D03*
X043885Y038984D03*
X042885Y038984D03*
X041885Y038984D03*
X040885Y038984D03*
X039885Y038984D03*
X038885Y038984D03*
X037885Y038984D03*
X036885Y038984D03*
X035885Y038984D03*
X034885Y038984D03*
X033885Y038984D03*
X032885Y038984D03*
X031885Y038984D03*
X030885Y038984D03*
D22*
X066383Y037245D02*
X067373Y037245D01*
X067373Y035685D02*
X066383Y035685D01*
D23*
X033884Y017703D03*
X032884Y017703D03*
X040094Y014529D03*
X040094Y013529D03*
X032506Y012342D03*
X032506Y011342D03*
X038922Y007900D03*
X039922Y007900D03*
D24*
X062604Y023269D02*
X063456Y022417D01*
X063456Y022416D01*
X063541Y022331D01*
X063626Y022331D01*
X067589Y022331D01*
X067984Y021935D01*
X067984Y021194D01*
X067984Y020214D02*
X068043Y020155D01*
X069080Y020155D01*
X069367Y020442D01*
X069367Y028175D01*
X069367Y028957D01*
X067560Y029008D02*
X065863Y029008D01*
X065416Y029455D01*
X065416Y031151D01*
X063560Y033008D01*
X063516Y031008D02*
X063516Y029051D01*
X063560Y029008D01*
X060709Y028593D02*
X060709Y026358D01*
X062092Y024975D01*
X062476Y024591D01*
X062476Y023610D01*
X062604Y023482D01*
X062604Y023269D01*
X064507Y023915D02*
X064507Y024623D01*
X065688Y025804D01*
X062092Y024975D02*
X062092Y024975D01*
D25*
X061429Y024203D02*
X060379Y025253D01*
X060379Y025254D01*
X059474Y026158D01*
X058740Y026892D01*
X058740Y028563D01*
X058709Y028593D01*
X058440Y028863D01*
X053162Y028863D01*
X053132Y028833D01*
X059474Y026158D02*
X059474Y026158D01*
X061429Y024203D02*
X061429Y022277D01*
X061429Y015721D01*
X061517Y015633D01*
X063456Y018192D02*
X064521Y017127D01*
X064521Y009916D01*
X063667Y009063D01*
X063667Y008983D01*
X058931Y012205D02*
X058931Y020027D01*
X059537Y020633D01*
X059537Y022170D01*
X059429Y022277D01*
X059409Y022257D01*
X057573Y022257D01*
X057483Y022166D01*
X057483Y012331D01*
X057061Y011910D01*
X050959Y011910D01*
X050179Y011910D01*
X049757Y011910D01*
X048619Y011910D01*
X047089Y011910D01*
X046576Y012422D01*
X046576Y013908D01*
X046622Y013954D01*
X063456Y018192D02*
X063456Y022160D01*
X063626Y022331D01*
X063326Y025804D02*
X063326Y026554D01*
X064734Y027962D01*
X069154Y027962D01*
X069367Y028175D01*
X069367Y028957D02*
X069421Y029010D01*
X069421Y037091D01*
X069266Y037245D01*
X066878Y037245D01*
X066878Y035685D02*
X067560Y035003D01*
X067560Y033008D01*
D26*
X067516Y031008D02*
X063517Y035007D01*
X063517Y038183D01*
X062517Y038183D02*
X062517Y036323D01*
X062604Y036236D01*
X062604Y033806D01*
X063402Y033008D01*
X063560Y033008D01*
X063516Y031008D02*
X063499Y030990D01*
X060346Y030990D01*
X059195Y032141D01*
X059195Y032142D01*
X057136Y034201D01*
X057017Y034201D01*
X057137Y034201D01*
X058684Y032654D01*
X058121Y033183D02*
X057080Y034224D01*
X057080Y036120D01*
X057017Y036183D01*
X057017Y039183D01*
X058017Y039183D02*
X058017Y036183D01*
X058017Y040349D01*
X057772Y040594D01*
X057426Y040594D01*
X057401Y040569D01*
X057401Y040579D01*
X057372Y040609D01*
X053312Y040609D01*
X053284Y040637D01*
X053312Y040609D02*
X053126Y040609D01*
X053095Y040640D01*
X053017Y040563D01*
X053011Y040569D01*
X053017Y040563D02*
X053017Y039183D01*
X053017Y035932D01*
X053030Y035918D01*
X053030Y033453D01*
X053108Y033376D01*
X053108Y030376D01*
X053132Y030351D01*
X053132Y028833D01*
X053132Y027386D01*
X053111Y027364D01*
X053111Y024302D01*
X053055Y024246D01*
X053055Y020890D01*
X053029Y020864D01*
X053029Y019937D01*
X052665Y019572D01*
X050218Y019572D01*
X049916Y019875D01*
X049916Y021306D01*
X049471Y021751D01*
X048089Y021751D01*
X047723Y021385D01*
X047723Y020371D01*
X047701Y020349D01*
X047701Y017020D01*
X047694Y017013D01*
X047694Y014153D01*
X047691Y014150D01*
X047691Y014024D01*
X047622Y013954D01*
X046622Y013954D02*
X046622Y014400D01*
X046622Y016941D01*
X046694Y017013D01*
X046701Y017020D01*
X046701Y020129D01*
X046706Y020134D01*
X046706Y021989D01*
X047358Y022641D01*
X047467Y022641D01*
X047450Y022659D01*
X047467Y022641D02*
X050043Y022641D01*
X050933Y021752D01*
X050933Y021004D01*
X051072Y020864D01*
X052029Y020864D01*
X052029Y024220D01*
X052055Y024246D01*
X052055Y024241D01*
X051981Y024168D01*
X051981Y027603D01*
X052132Y027754D01*
X052132Y029908D01*
X052108Y029933D01*
X052108Y033376D01*
X052017Y033467D01*
X052017Y036183D01*
X052017Y039183D01*
X052017Y040234D01*
X051716Y040535D01*
X046394Y040535D01*
X046325Y040604D01*
X046663Y040266D01*
X046663Y039197D01*
X046676Y039183D01*
X046663Y039197D02*
X046663Y038536D01*
X046663Y038368D01*
X046347Y038052D01*
X045383Y038052D01*
X044901Y038534D01*
X044901Y038967D01*
X044885Y038984D01*
X045835Y039034D02*
X045885Y038984D01*
X045885Y039131D01*
X045835Y039181D01*
X045835Y039498D01*
X045353Y039980D01*
X043907Y039980D01*
X043885Y039957D01*
X043885Y038984D01*
X043872Y038971D01*
X043907Y039980D02*
X041859Y039980D01*
X041885Y039955D01*
X041885Y038984D01*
X041859Y039980D02*
X039917Y039980D01*
X039885Y039948D01*
X039885Y038984D01*
X038885Y038984D01*
X036904Y038984D01*
X036875Y038955D01*
X036875Y039739D01*
X039646Y039739D01*
X039782Y039603D01*
X039782Y039377D01*
X039751Y039347D01*
X037252Y039347D01*
X037192Y039287D01*
X036885Y038984D02*
X037885Y038984D01*
X038885Y038984D01*
X039885Y038984D01*
X039917Y039980D02*
X031304Y039980D01*
X030885Y039561D01*
X030885Y038984D01*
X031885Y038984D02*
X031885Y038301D01*
X031560Y037976D01*
X030100Y037976D01*
X029798Y038278D01*
X029798Y040251D01*
X030250Y040703D01*
X046226Y040703D01*
X046325Y040604D01*
X045835Y039181D02*
X045835Y039034D01*
X053017Y036183D02*
X053030Y036170D01*
X053030Y035934D01*
X053030Y035918D01*
X053030Y035934D02*
X053017Y035948D01*
X053017Y036183D01*
X057426Y040594D02*
X062142Y040594D01*
X062315Y040421D01*
X062315Y040421D01*
X062517Y040219D01*
X062517Y036323D01*
X062517Y036183D01*
X052132Y030351D02*
X052132Y029908D01*
X052061Y027682D02*
X052061Y027415D01*
X052111Y027364D01*
X051981Y027603D02*
X052061Y027682D01*
X046701Y020349D02*
X046701Y020129D01*
X029178Y040772D02*
X029173Y040772D01*
X001785Y034426D02*
X001531Y034681D01*
D27*
X058931Y012205D02*
X059367Y011769D01*
X059367Y008983D01*
X061326Y004274D02*
X061756Y004274D01*
X061900Y004130D01*
X061972Y004130D01*
X061972Y003842D01*
X061900Y003771D01*
X061900Y003626D01*
X062115Y003483D02*
X061756Y003123D01*
X061756Y003123D01*
X061541Y003123D01*
X061469Y003195D01*
X061110Y003195D01*
X060966Y003338D01*
X060966Y003842D01*
X061110Y003986D01*
X061110Y004058D01*
X061326Y004274D01*
X061541Y003626D02*
X061541Y015791D01*
X061469Y015862D01*
X061469Y015935D01*
X061612Y016078D01*
X061612Y015934D01*
X062043Y015502D01*
X061972Y015502D01*
X061828Y015359D01*
X061828Y016006D01*
X061972Y015862D01*
X061972Y015286D01*
X061756Y015071D01*
X061110Y015071D01*
X061110Y015143D01*
X060966Y015287D01*
X060966Y015575D01*
X060894Y015646D01*
X060894Y015934D01*
X060966Y016006D01*
X061397Y016006D01*
X061541Y016150D01*
X061469Y016078D02*
X061756Y016078D01*
X061828Y016006D01*
X061828Y016006D01*
X061828Y016006D01*
X061756Y016078D01*
X061756Y016078D01*
X061517Y015633D02*
X061054Y016096D01*
X069367Y028957D02*
X069367Y029174D01*
D28*
X063550Y028893D03*
X051389Y028404D03*
X051100Y026421D03*
X047356Y028963D03*
X046170Y028817D03*
X047245Y030595D03*
X047502Y032263D03*
X047061Y034242D03*
X047090Y035686D03*
X049027Y035686D03*
X051031Y034367D03*
X051127Y031484D03*
X050422Y037504D03*
X048197Y037504D03*
X045835Y039181D03*
X043514Y037288D03*
X053011Y040569D03*
X034984Y027185D03*
X033928Y026671D03*
X032915Y026288D03*
X035862Y026306D03*
X043415Y024299D03*
X044482Y024193D03*
X046550Y024197D03*
X051333Y022798D03*
X045175Y018282D03*
X041478Y018289D03*
X038737Y017779D03*
X037913Y017288D03*
X037322Y016686D03*
X036830Y016135D03*
X035996Y015142D03*
X034221Y015457D03*
X033066Y015315D03*
X032495Y014764D03*
X031963Y014078D03*
X032050Y013210D03*
X031735Y009824D03*
X035444Y009027D03*
X036010Y009282D03*
X040873Y009544D03*
X041498Y010151D03*
X044383Y005483D03*
X044366Y004034D03*
X043363Y002660D03*
X038248Y003671D03*
X023497Y003208D03*
X022947Y002658D03*
X022065Y002141D03*
X023074Y004564D03*
X015709Y005316D03*
X012281Y003424D03*
X011273Y005378D03*
X006490Y003924D03*
X005225Y004519D03*
X015564Y008961D03*
X015627Y010674D03*
X014343Y011237D03*
X007152Y012978D03*
X016759Y018290D03*
X015585Y018946D03*
X014651Y020450D03*
X014693Y021255D03*
X014275Y022099D03*
X017326Y020391D03*
X017825Y021204D03*
X021381Y018684D03*
X022598Y018681D03*
X022560Y019737D03*
X022759Y020457D03*
X022607Y021391D03*
X024400Y026805D03*
X023277Y026968D03*
X022174Y027030D03*
X019216Y028139D03*
X019374Y029272D03*
X018382Y029823D03*
X017442Y030429D03*
X014649Y030531D03*
X014090Y029942D03*
X019331Y033784D03*
X022236Y033848D03*
X023648Y033449D03*
X024770Y032974D03*
X025828Y032934D03*
X021358Y035947D03*
X020823Y037270D03*
X021297Y038579D03*
X021315Y040235D03*
X014667Y039778D03*
X028182Y039130D03*
X025313Y026591D03*
X034904Y018718D03*
X034895Y018704D03*
X033856Y017682D03*
X041194Y020677D03*
X048888Y015232D03*
X055828Y015020D03*
X055056Y003824D03*
D29*
X055032Y003800D01*
X055032Y001713D01*
X054387Y001069D01*
X049787Y001069D01*
X049642Y001214D01*
X049642Y002015D01*
X046303Y003841D02*
X054333Y003841D01*
X055039Y003841D01*
X055056Y003824D01*
X054333Y003841D02*
X061367Y003841D01*
X061394Y003868D01*
X061394Y015510D01*
X061517Y015633D01*
X055828Y015020D02*
X049141Y015020D01*
X049092Y015069D01*
X049051Y015069D01*
X048888Y015232D01*
X045780Y013732D02*
X045612Y013901D01*
X043331Y013901D01*
X043230Y013800D01*
X042844Y014298D02*
X041018Y014298D01*
X040745Y014570D01*
X040135Y014570D01*
X040094Y014529D01*
X040366Y013800D02*
X040094Y013529D01*
X040366Y013800D02*
X042230Y013800D01*
X042671Y013298D02*
X045241Y013298D01*
X045443Y013169D01*
X045443Y011649D01*
X045537Y011555D01*
X045537Y011555D01*
X046325Y010767D01*
X046793Y010767D01*
X047019Y010541D01*
X047019Y009502D01*
X046512Y009003D02*
X047544Y009003D01*
X048019Y008527D01*
X048019Y008502D01*
X047563Y008008D02*
X045931Y008008D01*
X045218Y008721D01*
X045218Y009566D01*
X044974Y009810D01*
X043239Y009810D01*
X043230Y009800D01*
X042746Y010316D02*
X042230Y009800D01*
X042686Y009317D02*
X044656Y009317D01*
X044617Y009303D01*
X044656Y009317D02*
X044843Y009078D01*
X044843Y008364D01*
X045705Y007502D01*
X047019Y007502D01*
X047544Y006994D02*
X045462Y006994D01*
X044505Y007952D01*
X044505Y008684D01*
X044374Y008815D01*
X043245Y008815D01*
X043230Y008800D01*
X042723Y008308D02*
X043829Y008308D01*
X044036Y008102D01*
X044036Y007745D01*
X045279Y006502D01*
X047019Y006502D01*
X047563Y006957D02*
X047563Y006976D01*
X047544Y006994D01*
X047563Y006957D02*
X048018Y006502D01*
X048019Y006502D01*
X047677Y005999D02*
X046168Y005999D01*
X045952Y005783D01*
X045952Y004191D01*
X046303Y003841D01*
X047394Y004611D02*
X048511Y004611D01*
X048674Y004774D01*
X048674Y011606D01*
X048701Y011633D01*
X048701Y011828D01*
X048619Y011910D01*
X049757Y011910D02*
X049832Y011834D01*
X050179Y011910D02*
X050179Y010494D01*
X050234Y010494D01*
X051407Y010532D02*
X051407Y010453D01*
X049485Y008531D01*
X049486Y008569D01*
X049485Y008531D02*
X049479Y008325D01*
X048019Y007551D02*
X047563Y008008D01*
X048019Y007551D02*
X048019Y007502D01*
X047019Y008502D02*
X046262Y008502D01*
X045687Y009078D01*
X045687Y010035D01*
X045518Y010204D01*
X045518Y010222D01*
X045424Y010316D01*
X042746Y010316D01*
X043230Y010800D02*
X042736Y011295D01*
X041831Y011295D01*
X041748Y011212D01*
X041741Y011212D01*
X041492Y010962D01*
X041482Y010962D01*
X041187Y010667D01*
X040366Y010667D01*
X039972Y010273D01*
X038113Y010273D01*
X036787Y008948D01*
X036787Y008670D01*
X036564Y008447D01*
X034636Y008447D01*
X034265Y008818D01*
X034265Y009041D01*
X034991Y009767D01*
X034991Y013907D01*
X033583Y015315D01*
X033066Y015315D01*
X033398Y014764D02*
X034520Y013642D01*
X034520Y009949D01*
X033903Y009332D01*
X033357Y009332D01*
X033109Y009084D01*
X033109Y008090D01*
X033283Y007916D01*
X037080Y007916D01*
X037378Y008214D01*
X037378Y008935D01*
X038172Y009729D01*
X040108Y009729D01*
X040605Y010226D01*
X041424Y010226D01*
X041498Y010151D01*
X040873Y009544D02*
X040598Y009268D01*
X038340Y009268D01*
X037806Y008734D01*
X037806Y007751D01*
X037582Y007527D01*
X032963Y007527D01*
X032739Y007751D01*
X032739Y009492D01*
X033032Y009786D01*
X033669Y009786D01*
X034049Y010165D01*
X034049Y013354D01*
X033324Y014078D01*
X031963Y014078D01*
X032495Y014764D02*
X033398Y014764D01*
X034221Y015457D02*
X035444Y014233D01*
X035444Y009027D01*
X035996Y009296D02*
X036010Y009282D01*
X035996Y009296D02*
X035996Y015142D01*
X036830Y016135D02*
X040896Y016135D01*
X042230Y014800D01*
X042844Y014298D02*
X043230Y014684D01*
X043230Y014800D01*
X043230Y015800D02*
X042695Y016335D01*
X041312Y016335D01*
X040961Y016686D01*
X037322Y016686D01*
X037913Y017288D02*
X042718Y017288D01*
X043230Y017800D01*
X042230Y017800D02*
X042209Y017779D01*
X038737Y017779D01*
X039995Y018704D02*
X040710Y019419D01*
X040710Y020201D01*
X040719Y020201D01*
X041194Y020677D01*
X041170Y020664D02*
X040709Y020203D01*
X040709Y019402D01*
X040025Y018718D01*
X034904Y018718D01*
X034895Y018704D02*
X039995Y018704D01*
X040720Y018249D02*
X033431Y018249D01*
X032884Y017703D01*
X032871Y017703D01*
X032856Y017703D01*
X032184Y018375D01*
X032189Y018385D02*
X032189Y019760D01*
X032230Y019800D01*
X031709Y020247D02*
X032230Y020800D01*
X031709Y020247D02*
X031709Y017455D01*
X032254Y016878D01*
X033316Y016878D01*
X033909Y017470D01*
X033909Y017629D01*
X033856Y017682D01*
X033884Y017703D02*
X033884Y017468D01*
X033295Y016878D01*
X032254Y016878D01*
X032871Y017703D02*
X032189Y018385D01*
X030230Y018800D02*
X029613Y019418D01*
X027295Y019418D01*
X026491Y018613D01*
X026491Y017979D01*
X025929Y017418D01*
X024589Y017418D01*
X024091Y017915D01*
X024091Y017916D01*
X023296Y018271D02*
X023004Y017979D01*
X019654Y017979D01*
X019591Y017916D01*
X018980Y017418D02*
X023052Y017418D01*
X023082Y017388D01*
X023323Y017147D01*
X023323Y014687D01*
X023675Y014334D01*
X026000Y014334D01*
X026986Y015320D01*
X029750Y015320D01*
X030230Y015800D01*
X029734Y016320D02*
X027369Y016320D01*
X026881Y015832D01*
X026881Y015807D01*
X026466Y015393D01*
X024614Y015393D01*
X024091Y015916D01*
X024589Y016417D02*
X024091Y016916D01*
X024589Y016417D02*
X026369Y016417D01*
X026466Y016466D01*
X026466Y016466D01*
X027320Y017320D01*
X029734Y017320D01*
X030214Y017800D01*
X030230Y017800D01*
X030230Y016800D02*
X030214Y016800D01*
X029734Y016320D01*
X029230Y016800D02*
X027337Y016800D01*
X026442Y015905D01*
X025102Y015905D01*
X025091Y015916D01*
X025091Y016916D02*
X025105Y016930D01*
X026295Y016930D01*
X027166Y017800D01*
X029230Y017800D01*
X026727Y019800D02*
X025954Y019028D01*
X025954Y018271D01*
X025588Y017906D01*
X025101Y017906D01*
X025091Y017916D01*
X023296Y018271D02*
X023296Y021272D01*
X023443Y021418D01*
X030636Y021418D01*
X031230Y020824D01*
X031230Y020800D01*
X030686Y020345D02*
X031230Y019800D01*
X030686Y020345D02*
X025735Y020345D01*
X025091Y019701D01*
X025091Y018916D01*
X024091Y018916D02*
X024052Y018955D01*
X024052Y020321D01*
X024532Y020800D01*
X030230Y020800D01*
X030230Y019800D02*
X026727Y019800D01*
X026529Y021752D02*
X025912Y022369D01*
X025912Y024280D01*
X025905Y024287D01*
X026828Y024209D02*
X026905Y024287D01*
X026828Y024209D02*
X026828Y022422D01*
X027113Y022137D01*
X031156Y022137D01*
X031557Y021735D01*
X033198Y021735D01*
X033727Y021207D01*
X033727Y020257D01*
X034184Y019800D01*
X034230Y019800D01*
X034730Y020257D02*
X034730Y021535D01*
X034548Y021717D01*
X034111Y021717D01*
X033454Y022374D01*
X031794Y022374D01*
X031448Y022721D01*
X029171Y022721D01*
X028871Y023021D01*
X028871Y024252D01*
X028905Y024287D01*
X029875Y024256D02*
X029905Y024287D01*
X029875Y024256D02*
X029875Y023197D01*
X030023Y023049D01*
X031539Y023049D01*
X031904Y022684D01*
X033545Y022684D01*
X034165Y022064D01*
X035022Y022064D01*
X035230Y021855D01*
X035230Y020800D01*
X035733Y020276D02*
X035733Y021936D01*
X035314Y022356D01*
X034293Y022356D01*
X033654Y022994D01*
X032031Y022994D01*
X031648Y023378D01*
X031284Y023378D01*
X030919Y023742D01*
X030919Y024273D01*
X030905Y024287D01*
X031904Y024285D02*
X031904Y023834D01*
X032415Y023323D01*
X033764Y023323D01*
X034439Y022648D01*
X035496Y022648D01*
X035843Y022301D01*
X036134Y022301D01*
X036230Y022205D01*
X036230Y020800D01*
X035733Y020276D02*
X036209Y019800D01*
X036230Y019800D01*
X036735Y020184D02*
X036735Y022538D01*
X036609Y022684D01*
X035989Y022684D01*
X035660Y023013D01*
X034676Y023013D01*
X034238Y023451D01*
X034110Y023578D01*
X034110Y024035D01*
X033873Y024272D01*
X032920Y024272D01*
X032905Y024287D01*
X031905Y024287D02*
X031904Y024285D01*
X034238Y023451D02*
X034238Y023451D01*
X035452Y023614D02*
X035452Y024278D01*
X035445Y024285D01*
X035452Y023614D02*
X035612Y023454D01*
X035771Y023454D01*
X036207Y023019D01*
X036817Y023019D01*
X037230Y022605D01*
X037230Y020800D01*
X037702Y020303D02*
X037702Y022801D01*
X037034Y023469D01*
X036614Y023469D01*
X036425Y023658D01*
X036425Y024265D01*
X036445Y024285D01*
X037441Y024281D02*
X037441Y023875D01*
X038230Y023086D01*
X038230Y020800D01*
X038718Y020312D02*
X039230Y019800D01*
X039720Y020311D02*
X040230Y019800D01*
X039720Y020311D02*
X039720Y021305D01*
X040445Y022030D01*
X040445Y024285D01*
X039836Y023894D02*
X039445Y024285D01*
X039836Y023894D02*
X039836Y022031D01*
X039230Y021425D01*
X039230Y020800D01*
X038718Y020312D02*
X038718Y023469D01*
X038445Y023742D01*
X038445Y024285D01*
X037445Y024285D02*
X037441Y024281D01*
X035862Y026306D02*
X035885Y026329D01*
X035885Y038984D01*
X034885Y038984D02*
X034885Y027284D01*
X034984Y027185D01*
X033928Y026671D02*
X033885Y026714D01*
X033885Y038984D01*
X032885Y038984D02*
X032885Y026317D01*
X032915Y026288D01*
X027905Y024287D02*
X027850Y024231D01*
X027850Y022897D01*
X028318Y022429D01*
X031284Y022429D01*
X031630Y022082D01*
X033326Y022082D01*
X033965Y021443D01*
X034074Y021443D01*
X034230Y021287D01*
X034230Y020800D01*
X034730Y020257D02*
X035187Y019800D01*
X035230Y019800D01*
X036735Y020184D02*
X037139Y019800D01*
X037230Y019800D01*
X037702Y020303D02*
X038204Y019800D01*
X038230Y019800D01*
X040230Y020800D02*
X040230Y021089D01*
X040911Y021770D01*
X041099Y021770D01*
X041520Y022191D01*
X041520Y024210D01*
X041445Y024285D01*
X042445Y024285D02*
X042445Y022070D01*
X041709Y021363D01*
X041709Y020308D01*
X041230Y019800D01*
X041585Y019132D02*
X041585Y019132D01*
X041343Y018890D01*
X041343Y018872D01*
X040720Y018249D01*
X041478Y018289D02*
X041485Y018282D01*
X045175Y018282D01*
X043230Y018800D02*
X043230Y018813D01*
X045813Y021396D01*
X045813Y025265D01*
X044978Y026101D01*
X044699Y026101D01*
X044394Y026405D01*
X044394Y027294D01*
X043506Y028182D01*
X043506Y029375D01*
X043506Y029832D01*
X043514Y029840D01*
X043514Y037288D01*
X042869Y038968D02*
X042885Y038984D01*
X042869Y038968D02*
X042869Y029769D01*
X042846Y029746D01*
X042846Y029121D01*
X042846Y028309D01*
X044053Y027102D01*
X044053Y025891D01*
X044211Y025733D01*
X044580Y025733D01*
X045336Y024977D01*
X045336Y021906D01*
X042230Y018800D01*
X041585Y019132D02*
X042230Y019777D01*
X042230Y019800D01*
X044445Y022015D01*
X044445Y024156D01*
X044482Y024193D01*
X044445Y024285D02*
X044445Y022015D01*
X041230Y020664D02*
X041170Y020664D01*
X033230Y020800D02*
X033230Y021138D01*
X032998Y021370D01*
X031296Y021370D01*
X030914Y021752D01*
X026529Y021752D01*
X022607Y021391D02*
X022428Y021570D01*
X021759Y021570D01*
X021358Y021970D01*
X021358Y035947D01*
X020823Y037270D02*
X020823Y021550D01*
X021393Y020979D01*
X022237Y020979D01*
X022759Y020457D01*
X022560Y019737D02*
X021840Y020457D01*
X021344Y020457D01*
X020141Y021661D01*
X020141Y037570D01*
X021150Y038579D01*
X021297Y038579D01*
X021313Y040234D02*
X021315Y040235D01*
X021313Y040234D02*
X005541Y040234D01*
X004647Y039340D01*
X004647Y038266D01*
X003984Y037603D01*
X003618Y037287D01*
X008812Y037563D02*
X009400Y037563D01*
X009877Y038040D01*
X009877Y039009D01*
X010646Y039778D01*
X014667Y039778D01*
X019331Y033784D02*
X019374Y033741D01*
X019374Y029272D01*
X018382Y029823D02*
X018287Y029823D01*
X017422Y028959D01*
X016947Y028959D01*
X016718Y028729D01*
X016718Y023277D01*
X018422Y021572D01*
X018382Y021613D01*
X018422Y021572D02*
X019918Y020077D01*
X019988Y020077D01*
X021381Y018684D01*
X021436Y019599D02*
X019694Y021341D01*
X019694Y027725D01*
X019280Y028139D01*
X019216Y028139D01*
X017442Y030429D02*
X016223Y029210D01*
X016223Y003055D01*
X017239Y002039D01*
X021963Y002039D01*
X022065Y002141D01*
X022905Y002615D02*
X022947Y002658D01*
X022905Y002615D02*
X017741Y002615D01*
X016759Y003800D01*
X016759Y018290D01*
X015614Y018917D02*
X015585Y018946D01*
X015614Y018917D02*
X015614Y016230D01*
X018591Y015916D02*
X018591Y015904D01*
X019053Y015442D01*
X021784Y015442D01*
X022077Y015149D01*
X022077Y013514D01*
X022687Y012940D01*
X026881Y012940D01*
X027337Y013344D01*
X029791Y013344D01*
X030230Y013800D01*
X029749Y014320D02*
X027043Y014320D01*
X026370Y013647D01*
X026335Y013647D01*
X026300Y013612D01*
X023235Y013612D01*
X022685Y014163D01*
X022685Y016225D01*
X022467Y016442D01*
X019053Y016442D01*
X018591Y016904D01*
X018591Y016916D01*
X018980Y017418D02*
X018591Y017807D01*
X018591Y017916D01*
X019591Y016916D02*
X022725Y016916D01*
X022888Y016753D01*
X022971Y016670D01*
X022971Y014546D01*
X023587Y013929D01*
X026141Y013929D01*
X027068Y014856D01*
X029175Y014856D01*
X029230Y014800D01*
X029749Y014320D02*
X030230Y014800D01*
X029230Y013800D02*
X029175Y013856D01*
X027198Y013856D01*
X026557Y013285D01*
X026526Y013317D01*
X022975Y013317D01*
X022387Y013904D01*
X022387Y015543D01*
X022345Y015585D01*
X022345Y015588D01*
X022017Y015916D01*
X019591Y015916D01*
X019591Y014916D02*
X021603Y014916D01*
X021809Y014710D01*
X021809Y013368D01*
X022565Y012612D01*
X027222Y012612D01*
X027515Y012905D01*
X029126Y012905D01*
X029230Y012800D01*
X029702Y012353D02*
X029702Y012348D01*
X029677Y012323D01*
X027451Y012323D01*
X027333Y012205D01*
X022544Y012205D01*
X022217Y012531D01*
X021516Y013246D01*
X021516Y014100D01*
X021248Y014368D01*
X019102Y014368D01*
X018591Y014879D01*
X018591Y014916D01*
X022217Y012531D02*
X022467Y012277D01*
X022840Y011876D02*
X026177Y011876D01*
X027295Y010758D01*
X029188Y010758D01*
X029230Y010800D01*
X029747Y011300D02*
X029230Y011800D01*
X029747Y011300D02*
X031100Y011300D01*
X031773Y010611D01*
X032975Y010611D01*
X033311Y010947D01*
X033311Y011909D01*
X032879Y012342D01*
X032506Y012342D01*
X032047Y011800D02*
X032506Y011342D01*
X032047Y011800D02*
X030230Y011800D01*
X029702Y012353D02*
X030150Y012800D01*
X030230Y012800D01*
X032050Y013210D02*
X033144Y013210D01*
X033734Y012620D01*
X033734Y010503D01*
X033346Y010115D01*
X032817Y010115D01*
X032429Y009727D01*
X032429Y007363D01*
X032676Y007116D01*
X037895Y007116D01*
X038106Y007328D01*
X038106Y008492D01*
X038529Y008915D01*
X041146Y008915D01*
X041715Y008420D01*
X041715Y005211D01*
X041230Y004800D01*
X040732Y005322D02*
X040732Y003909D01*
X041317Y003324D01*
X041444Y003197D01*
X045067Y003197D01*
X045849Y002415D01*
X045849Y002104D01*
X043363Y002660D02*
X042501Y001798D01*
X036010Y001798D01*
X035048Y000836D01*
X022339Y000836D01*
X022324Y000821D01*
X016048Y000821D01*
X014742Y002128D01*
X014742Y003263D01*
X014580Y003424D01*
X012281Y003424D01*
X014884Y003924D02*
X015194Y003614D01*
X015194Y002217D01*
X016280Y001131D01*
X034445Y001131D01*
X035272Y001959D01*
X035272Y003842D01*
X036230Y004800D01*
X036709Y005281D02*
X036230Y005800D01*
X036709Y005281D02*
X036709Y003997D01*
X037076Y003671D01*
X038248Y003671D01*
X038230Y004800D02*
X038695Y005265D01*
X038695Y006375D01*
X038440Y006630D01*
X032288Y006630D01*
X031735Y007183D01*
X031735Y009824D01*
X030230Y009800D02*
X029761Y010294D01*
X027295Y010294D01*
X025978Y011587D01*
X023042Y011587D01*
X021715Y010261D01*
X021715Y010252D01*
X021664Y010201D01*
X021664Y007780D01*
X021687Y007757D01*
X021418Y007489D01*
X019102Y007489D01*
X018651Y007038D01*
X018651Y006983D01*
X019224Y006513D02*
X021809Y006513D01*
X022321Y007026D01*
X022321Y009807D01*
X023394Y010880D01*
X025685Y010880D01*
X026686Y009880D01*
X026686Y009514D01*
X026856Y009343D01*
X026929Y009319D01*
X029734Y009319D01*
X030075Y008928D01*
X030103Y008928D01*
X030230Y008800D01*
X029712Y008318D02*
X030230Y007800D01*
X029712Y008318D02*
X028612Y008318D01*
X028466Y008172D01*
X026929Y008172D01*
X025905Y009196D01*
X025905Y009587D01*
X025393Y010099D01*
X023589Y010099D01*
X022882Y009392D01*
X022882Y005879D01*
X022491Y005489D01*
X019248Y005489D01*
X018743Y004983D01*
X018651Y004983D01*
X018307Y004278D02*
X022767Y004278D01*
X022778Y004267D01*
X023074Y004564D01*
X022595Y004983D02*
X023174Y005562D01*
X023174Y009270D01*
X023662Y009758D01*
X025247Y009758D01*
X025613Y009392D01*
X025613Y008733D01*
X025905Y008440D01*
X026124Y008440D01*
X026856Y007709D01*
X029139Y007709D01*
X029230Y007800D01*
X029212Y008782D02*
X029230Y008800D01*
X029212Y008782D02*
X026881Y008782D01*
X026295Y009367D01*
X026295Y009733D01*
X025515Y010514D01*
X023491Y010514D01*
X022613Y009636D01*
X022613Y006367D01*
X022230Y005983D01*
X019651Y005983D01*
X019224Y006513D02*
X018694Y005983D01*
X018651Y005983D01*
X019651Y006983D02*
X021644Y006983D01*
X021979Y007318D01*
X021979Y009953D01*
X023296Y011270D01*
X025783Y011270D01*
X027222Y009831D01*
X029200Y009831D01*
X029230Y009800D01*
X026856Y009343D02*
X026856Y009343D01*
X026000Y008078D02*
X027321Y006758D01*
X027321Y005418D01*
X027550Y005189D01*
X029626Y005189D01*
X030230Y005794D01*
X030230Y005800D01*
X031230Y005800D02*
X031293Y005800D01*
X031744Y005350D01*
X031744Y004189D01*
X031249Y003694D01*
X027124Y003694D01*
X027065Y003753D01*
X027065Y003768D01*
X026623Y004210D01*
X026623Y006488D01*
X026015Y007096D01*
X024981Y007096D01*
X024456Y007603D02*
X023981Y008096D01*
X024456Y007603D02*
X025983Y007603D01*
X026969Y006635D01*
X026963Y006628D01*
X026963Y004473D01*
X027344Y004091D01*
X030809Y004091D01*
X031230Y004513D01*
X031230Y004800D01*
X032230Y004800D02*
X032230Y003883D01*
X031660Y003313D01*
X027007Y003313D01*
X026322Y003998D01*
X026322Y006287D01*
X026020Y006588D01*
X024447Y006588D01*
X023981Y007055D01*
X023981Y007096D01*
X023985Y006096D02*
X024464Y005617D01*
X025418Y005617D01*
X025736Y005299D01*
X025736Y002688D01*
X025903Y002520D01*
X033049Y002520D01*
X033334Y002805D01*
X033334Y004697D01*
X033230Y004800D01*
X033735Y005316D02*
X033735Y002604D01*
X033367Y002236D01*
X025334Y002236D01*
X024981Y002589D01*
X024981Y005096D01*
X024380Y004555D02*
X024380Y002124D01*
X024619Y001884D01*
X033802Y001884D01*
X034221Y002303D01*
X034221Y004791D01*
X034230Y004800D01*
X034721Y005308D02*
X035230Y005800D01*
X034721Y005308D02*
X034721Y002200D01*
X034031Y001494D01*
X016607Y001494D01*
X015661Y002440D01*
X015661Y004045D01*
X015187Y004519D01*
X005225Y004519D01*
X006490Y003924D02*
X014884Y003924D01*
X014322Y005316D02*
X015709Y005316D01*
X014322Y005316D02*
X014259Y005379D01*
X015627Y006995D02*
X015627Y008898D01*
X015564Y008961D01*
X014343Y011237D02*
X013244Y010138D01*
X010529Y010138D01*
X008770Y008378D01*
X008552Y008378D01*
X004794Y008795D02*
X004476Y008476D01*
X003798Y008476D01*
X004794Y008795D02*
X004794Y010291D01*
X004783Y010301D01*
X004783Y012050D01*
X004998Y012265D01*
X005712Y012978D01*
X007152Y012978D01*
X005130Y012396D02*
X004998Y012265D01*
X003772Y018290D02*
X004788Y019306D01*
X004788Y020493D01*
X005550Y021255D01*
X014693Y021255D01*
X014651Y020450D02*
X014566Y020365D01*
X010079Y020365D01*
X009656Y019942D01*
X009656Y018883D01*
X009069Y018296D01*
X008651Y018296D01*
X003772Y018290D02*
X003578Y018290D01*
X014105Y025116D02*
X014275Y024947D01*
X010740Y029977D02*
X008920Y028157D01*
X008724Y028157D01*
X010740Y029977D02*
X014055Y029977D01*
X014090Y029942D01*
X014598Y030480D02*
X014649Y030531D01*
X014598Y030480D02*
X005506Y030480D01*
X005354Y030327D01*
X005354Y029717D01*
X003894Y028256D01*
X003605Y028256D01*
X017326Y020391D02*
X017326Y003995D01*
X017910Y003208D01*
X023497Y003208D01*
X024380Y004555D02*
X023981Y004954D01*
X023981Y005096D01*
X022595Y004983D02*
X019651Y004983D01*
X018307Y004278D02*
X017825Y004759D01*
X017825Y021204D01*
X021436Y019599D02*
X021680Y019599D01*
X022598Y018681D01*
X023082Y017388D02*
X023223Y017247D01*
X022888Y016753D02*
X022930Y016710D01*
X022840Y011876D02*
X021370Y010406D01*
X021370Y008148D01*
X021205Y007983D01*
X019651Y007983D01*
X023981Y006096D02*
X023985Y006096D01*
X024981Y006096D02*
X025021Y006136D01*
X025602Y006136D01*
X026037Y005701D01*
X026037Y003619D01*
X026810Y002846D01*
X027039Y002846D01*
X027065Y002872D01*
X032042Y002872D01*
X032731Y003562D01*
X032731Y005350D01*
X032280Y005800D01*
X032230Y005800D01*
X033230Y005800D02*
X033251Y005800D01*
X033735Y005316D01*
X039230Y005800D02*
X039230Y007591D01*
X038922Y007900D01*
X039922Y007900D02*
X039922Y007079D01*
X039736Y006892D01*
X039736Y005295D01*
X040230Y004800D01*
X040732Y005322D02*
X040254Y005800D01*
X040230Y005800D01*
X042230Y007800D02*
X042230Y007816D01*
X042723Y008308D01*
X042230Y008800D02*
X042230Y008848D01*
X042686Y009317D01*
X045105Y011367D02*
X045105Y012550D01*
X044880Y012775D01*
X043256Y012775D01*
X043230Y012800D01*
X042671Y013298D02*
X042230Y012864D01*
X042230Y012800D01*
X045105Y011367D02*
X045143Y011330D01*
X045161Y011330D01*
X046156Y010336D01*
X046156Y009359D01*
X046512Y009003D01*
X047984Y009538D02*
X048019Y009502D01*
X047984Y009538D02*
X047984Y010714D01*
X047593Y011105D01*
X046606Y011105D01*
X045780Y011930D01*
X045780Y013732D01*
X050817Y011767D02*
X050959Y011910D01*
X051407Y006532D02*
X051407Y004499D01*
X051420Y004486D01*
X050251Y004396D02*
X050234Y004414D01*
X050234Y006494D01*
X048019Y005656D02*
X048019Y005502D01*
X048019Y005656D02*
X047677Y005999D01*
X047019Y005502D02*
X047019Y004985D01*
X047394Y004611D01*
X044366Y004034D02*
X044366Y005466D01*
X044383Y005483D01*
X041322Y003330D02*
X041317Y003324D01*
X026339Y006304D02*
X026322Y006287D01*
X026000Y008078D02*
X024999Y008078D01*
X024981Y008096D01*
X034221Y015457D02*
X034221Y015457D01*
X050204Y025162D02*
X050204Y027015D01*
X049772Y027446D01*
X049772Y027446D01*
X049366Y027852D01*
X047134Y027852D01*
X046170Y028817D01*
X047356Y028963D02*
X049336Y028963D01*
X051104Y027194D01*
X051093Y027184D01*
X051104Y027194D02*
X051156Y027143D01*
X051100Y027087D01*
X051100Y026421D01*
X050204Y025162D02*
X051168Y024197D01*
X051256Y024197D01*
X051333Y024120D01*
X051333Y022798D01*
X051319Y024134D02*
X051256Y024197D01*
X051389Y028404D02*
X051389Y030329D01*
X051104Y030614D01*
X051085Y030595D01*
X047245Y030595D01*
X047502Y032263D02*
X050903Y032263D01*
X051127Y032039D01*
X051127Y031484D01*
X051031Y034367D02*
X047185Y034367D01*
X047061Y034242D01*
X047090Y035686D02*
X047662Y035686D01*
X047698Y035651D01*
X047734Y035686D01*
X049027Y035686D01*
X048197Y037504D02*
X050422Y037504D01*
X057017Y039183D02*
X057017Y034201D01*
X057145Y034074D01*
X057216Y034074D01*
X058096Y033194D01*
X063550Y028893D02*
X063697Y029040D01*
X043506Y029172D02*
X043506Y029375D01*
X042846Y029121D02*
X042846Y028944D01*
X025828Y032934D02*
X025313Y032419D01*
X025313Y026591D01*
X024400Y026805D02*
X024400Y032603D01*
X024770Y032974D01*
X023648Y033449D02*
X023277Y033078D01*
X023277Y026968D01*
X022174Y027030D02*
X022174Y033786D01*
X022236Y033848D01*
D30*
X041230Y020664D03*
D31*
X015627Y016217D02*
X015627Y010674D01*
X015627Y006995D01*
X014956Y006324D01*
X014314Y006324D01*
X014259Y006379D01*
X013259Y006379D01*
X008553Y006379D01*
X008552Y006378D01*
X007552Y006378D01*
X003896Y006378D01*
X003798Y006476D01*
X002798Y006476D01*
X002798Y007476D02*
X003798Y007476D01*
X003798Y008476D02*
X002798Y008476D01*
X001581Y005750D02*
X001886Y005445D01*
X002767Y005445D01*
X002798Y005476D01*
X003798Y005476D01*
X007453Y005476D01*
X007552Y005378D01*
X008552Y005378D01*
X011273Y005378D01*
X013258Y005378D01*
X013259Y005379D01*
X014259Y005379D01*
X014259Y007379D02*
X013259Y007379D01*
X013259Y008379D02*
X014259Y008379D01*
X008552Y008378D02*
X007552Y008378D01*
X007552Y007378D02*
X008552Y007378D01*
X001581Y005750D02*
X001581Y015362D01*
X001714Y015230D01*
X014283Y015230D01*
X001674Y015230D01*
X001602Y015301D01*
X001581Y015362D02*
X001581Y025133D01*
X001599Y025116D01*
X014105Y025116D01*
X014298Y025116D01*
X014105Y025116D02*
X013298Y025116D01*
X013257Y025157D01*
X008724Y025157D01*
X007724Y025157D01*
X007625Y025256D01*
X003605Y025256D01*
X002605Y025256D01*
X001581Y025133D02*
X001581Y034222D01*
X001672Y034313D01*
X001699Y034287D01*
X002618Y034287D01*
X003618Y034287D01*
X003623Y034282D01*
X005044Y034282D01*
X005324Y034563D01*
X007812Y034563D01*
X008812Y034563D01*
X008932Y034683D01*
X013517Y034683D01*
X014517Y034683D01*
X014517Y035683D02*
X014931Y035683D01*
X015012Y035603D01*
X015379Y035970D01*
X015379Y037464D01*
X015648Y037733D01*
X019195Y037733D01*
X021031Y039570D01*
X027743Y039570D01*
X028182Y039130D01*
X029247Y040703D02*
X029178Y040772D01*
X029173Y040772D02*
X028982Y040963D01*
X005232Y040963D01*
X003769Y039500D01*
X001960Y039500D01*
X001531Y039071D01*
X001531Y034681D01*
X001574Y034656D02*
X001493Y034737D01*
X001574Y034754D02*
X001574Y034656D01*
X001574Y034105D01*
X001672Y034313D02*
X001785Y034426D01*
X001922Y034563D01*
X002618Y035287D02*
X003618Y035287D01*
X003621Y035285D01*
X004691Y035285D01*
X005009Y035603D01*
X007773Y035603D01*
X007812Y035563D01*
X008812Y035563D01*
X013397Y035563D01*
X013517Y035683D01*
X014517Y035683D01*
X015012Y035603D02*
X015172Y035603D01*
X015627Y035148D01*
X015627Y026110D01*
X015261Y026110D01*
X015256Y026116D01*
X014298Y026116D01*
X013298Y026116D01*
X008765Y026116D01*
X008724Y026157D01*
X007724Y026157D01*
X003705Y026157D01*
X003605Y026256D01*
X002605Y026256D01*
X002605Y027256D02*
X003605Y027256D01*
X003605Y028256D02*
X002605Y028256D01*
X007724Y028157D02*
X008724Y028157D01*
X008724Y027157D02*
X007724Y027157D01*
X013298Y027116D02*
X014298Y027116D01*
X014298Y028116D02*
X013298Y028116D01*
X015627Y026110D02*
X015627Y016217D01*
X015614Y016230D01*
X014283Y016230D01*
X013283Y016230D01*
X008717Y016230D01*
X008651Y016296D01*
X007651Y016296D01*
X003584Y016296D01*
X003578Y016290D01*
X002578Y016290D01*
X002578Y017290D02*
X003578Y017290D01*
X003578Y018290D02*
X002578Y018290D01*
X002578Y015290D02*
X003578Y015290D01*
X007646Y015290D01*
X007651Y015296D01*
X008651Y015296D01*
X013217Y015296D01*
X013283Y015230D01*
X014283Y015230D01*
X014283Y017230D02*
X013283Y017230D01*
X013283Y018230D02*
X014283Y018230D01*
X008651Y018296D02*
X007651Y018296D01*
X007651Y017296D02*
X008651Y017296D01*
X015611Y035189D02*
X015611Y036106D01*
X015452Y036265D01*
X015501Y036045D02*
X015501Y035299D01*
X015611Y035189D01*
X014517Y036683D02*
X013517Y036683D01*
X013517Y037683D02*
X014517Y037683D01*
X008812Y037563D02*
X007812Y037563D01*
X007812Y036563D02*
X008812Y036563D01*
X003618Y036287D02*
X002618Y036287D01*
X002618Y037287D02*
X003618Y037287D01*
D32*
X038817Y038916D02*
X038817Y031316D01*
X041472Y028661D01*
X041501Y028661D01*
X043415Y026747D01*
X043415Y024299D01*
X045054Y026862D02*
X046550Y025365D01*
X046550Y024197D01*
X045054Y026862D02*
X045028Y026862D01*
X044901Y026989D01*
X044901Y029070D01*
X044901Y028867D01*
X044901Y029070D02*
X044901Y036863D01*
X045282Y037244D01*
X046170Y037244D01*
X046717Y037790D01*
X046717Y038482D01*
X046663Y038536D01*
X038885Y038984D02*
X038817Y038916D01*
D33*
X030264Y040755D02*
X030174Y040665D01*
X029355Y040665D01*
X029375Y040685D01*
X030224Y040685D01*
X029798Y040251D02*
X029699Y040251D01*
X029247Y040703D01*
D34*
X014275Y024947D02*
X014275Y022099D01*
X043230Y014684D02*
X043662Y014684D01*
X043845Y014502D01*
X046520Y014502D01*
X046622Y014400D01*
D35*
X049479Y008325D03*
X050251Y004396D03*
X051420Y004486D03*
M02*
